<svg width="34" height="34" viewBox="0 0 34 34" fill="none" xmlns="http://www.w3.org/2000/svg">
    <path d="M16.9997 33.6667C14.6941 33.6667 12.5275 33.2289 10.4997 32.3534C8.4719 31.4778 6.70801 30.2906 5.20801 28.7917C3.70801 27.2928 2.52079 25.5289 1.64634 23.5C0.771899 21.4712 0.334121 19.3045 0.33301 17C0.331899 14.6956 0.769677 12.5289 1.64634 10.5C2.52301 8.47115 3.71023 6.70726 5.20801 5.20837C6.70579 3.70949 8.46968 2.52226 10.4997 1.64671C12.5297 0.771152 14.6963 0.333374 16.9997 0.333374C19.303 0.333374 21.4697 0.771152 23.4997 1.64671C25.5297 2.52226 27.2936 3.70949 28.7913 5.20837C30.2891 6.70726 31.4769 8.47115 32.3547 10.5C33.2325 12.5289 33.6697 14.6956 33.6663 17C33.663 19.3045 33.2252 21.4712 32.353 23.5C31.4808 25.5289 30.2936 27.2928 28.7913 28.7917C27.2891 30.2906 25.5252 31.4784 23.4997 32.355C21.4741 33.2317 19.3075 33.6689 16.9997 33.6667ZM16.9997 30.3334C20.7219 30.3334 23.8747 29.0417 26.458 26.4584C29.0413 23.875 30.333 20.7223 30.333 17C30.333 13.2778 29.0413 10.125 26.458 7.54171C23.8747 4.95837 20.7219 3.66671 16.9997 3.66671C13.2775 3.66671 10.1247 4.95837 7.54134 7.54171C4.95801 10.125 3.66634 13.2778 3.66634 17C3.66634 20.7223 4.95801 23.875 7.54134 26.4584C10.1247 29.0417 13.2775 30.3334 16.9997 30.3334Z" fill="black"/>
</svg>
