<svg id="Layer_1" data-name="Layer 1" xmlns="http://www.w3.org/2000/svg" viewBox="0 0 1500 1500"><defs><style>.cls-1{fill:#fff;}</style></defs><title>Coffe call</title><path class="cls-1" d="M842.61,581.5c4.31,12.44,27.2,40.79,63.54,53.25l117.59,25.56c0-2.74.1-5.46.24-8.17,11.89,5.3,30.11,2,36,3l-35.82-5.54c1.72-25.29,8.83-49.44,9.81-74.25.13-3.31-113.31-26.31-126.25-31.7-5.74-2.39-22.12-40.75-31.71-67.11l38.68-23.11-15.2-27.92h0l46-29a230.6,230.6,0,0,0,21.3-18.13l24.29,5.31c.08,0,5.43.45,6.08.45,8.27,0,10.39-6.43,11.76-13.69l13.7-99c1.79-18,5.19-25.77-11.71-27.5l-48.53-7.91c-10.69-1.3-13.06,12.67-13,12.68l-8.7,55.12c-11.6-.79-29.91,5.8-33.86,17.87-4.29,13.14-5,19.52-5,33.63L873,377l-2-3.68-15.29,10c-13.27-54.27-50.25-24.14-63.56-12,3.92-16,9.19-35.43,9.19-42,0-.88,39.82-10.48,39.38-33.41-.74-38.84-12.89-67.3-28.31-82.7,14.08-11.31,23.89-24,21.32-36.81-7-34.75-69.48-3.15-88.53,29.1-6.18,10.45-9.45,39,1.39,45.56h0A168.93,168.93,0,0,0,745,270.94c-.55,20.43-2,47.93-4.3,60.25-22.7-14-57.26-6.71-84.91,44.16l0,0c6.85-11.73-79.4-80.28-138.11,24.28-1.55,2.78-13.53,21.37-28.43,44.41h0c-25.71,39.76-60.14,92.79-64.84,100.85-27.73,47.51-7.1,73.4,28.43,74.19l107.09,2.39h0c-10.54,30.15-17.6,53.31-17.42,60.94l14.11.17c-6.9,26.75-6,52.25-1.47,75.16h0c7.06,35.39,23,64.58,32.89,82.65l-.18.12h.25c1.33,2.43,2.56,4.66,3.63,6.67l.07,1.17-3.95-7.84L480.48,1151.16c-7.15,15.47-40.06,58.5-44.35,72.73-11-2.93-18.81,25.68-5.28,28.43,20.69,4.22,6.31-5.39,11.61,11.55,1.83,5.86,28.46,3.08,26.61,3.46-9.39,27.12,27,15.61,26.26,18.17-8.79,32,31.74,10.79,28.54,17.49-8.27,17.3,13.19,18.93,17.78,17,19.16-7.91,5.18,4.69,12.91,8.62,27.18,13.8,36.05-6.94,36.68-7.09,3.37,16.45,41.61,8.21,31.72-17.2,9.33-54.6-45.11-50.2-48.17-53.72-8.14-9.36-16.8-34.07-8.38-59.65l-4.43-2,96-209.42L652.63,969h.29l119.57,238.34c-1.11,1.32-1.76,3.6,2,9.1,10.93,31.18,11.35,65.06,20.36,78-3,2.83-.33,28,3.67,28.86,14.63,3.2,18.13-18.16,22.19-5.66,2.25,6.92,13.79.46,17-2.26,10.23-8.61,5.63-12.92,11.12-8.13,14.81,12.92,24.52-10.42,24.67-10.48,9.59,5.34,2.11,7.71,19.16,4.6,15-2.74,19.24-15.87,20.1-14.73,6.46,8.5,21.45,5.53,25.74-2,5.73-10.14,2.22-6.74,4.66-5.78,10,3.93,11,3.37,20.54-2.15,4.63-2.67,7.17-10.29,7.43-10.38,1.36,3.75,11.19,4.61,14.5,3.78a17.11,17.11,0,0,0,13.09-16.85l-3.16-10.87c2.65-3-24.1-51.41-72.79-40-48.08,11.28-52.9-13.95-60.91-19.35l-43.3-135.31h0L727.1,761.78a229.33,229.33,0,0,0,29.62-2.25c.06,12,.12,23.79.12,35l0-35a106.37,106.37,0,0,0,27-7.3l-27,.65,0-48.4c9.32.25,18.78.4,28.47.4l-28.47-.78V685l51.8.62c.06,0,29.48-115.45,43.95-195.08l9.58-5.72Zm96.51-267.87-.49,3.12a65.1,65.1,0,0,1-7,8.65c-1.24,1.25-2.72,3.79-4.58,4.43C927.65,329.17,934.22,320.62,939.12,313.63ZM591.81,847.29c.68,1.28,1.31,2.48,1.86,3.58l25,49.92-.46,0-26.43-52.42C591.82,848,591.81,847.65,591.81,847.29Zm31,457.34c-1.37,1.65-6.06,2.26-11.76,2.37C617.38,1306.33,621.78,1305.37,622.76,1304.63Zm28.77-337.85-32.44-64.34.46,0,32.28,64.33Zm105.13-262.7L717.72,703c12.8.54,25.72,1.08,38.94,1.43-.12,15.64-.06,32.11,0,48.41l-32.19.77-1.06-3.3-48.78-21.72-1.38-26.81c-.51-.08-.73,9.92-.68,25.89l-58.39-26c9.71-.45,19.22-.67,28.6-.72l-32.2-.88-39-17.37L756.91,685C756.79,691.13,756.71,697.53,756.66,704.08Z"/><path class="cls-1" d="M1090.66,693.6l4.22-25-17.58.61-15.94-10.9-18.6-1.07-1.64,27C1044.52,696.48,1080.5,700,1090.66,693.6Z"/><path class="cls-1" d="M1046.38,530.41l-4,17.24-8.9,13.4,10,1.39.17,24.37c-2.26-.58-5.45-1.3-10.34-2.16L1053.11,604l13.73,25.07c-1.66,3-1.76,6.95.25,11.14.66,1.37-8.7,7.38-5,15.41,1.65,3.56,4.9,4.34,16,10.18,9.25,4.89,33.32,1.55,32.28-13.08-.22-3.16,1.24-5.37,3-7.74a11.78,11.78,0,0,0,2.05-2.69h0a18.76,18.76,0,0,0,3.75-11.09,36.81,36.81,0,0,1,2-11.9,15,15,0,0,0,.72-2.48c.28-1,.56-2.06.84-3.32,2.1-9.31-4.13-15.81-13.56-20l4-21.39,11.91,1.65-4.93-16.5.63-17.08Zm26.31,94.12a10,10,0,0,0-5,3.27A6.93,6.93,0,0,1,1072.69,624.53Z"/><path class="cls-1" d="M934.87,432.66a8.78,8.78,0,0,0-1.39-.91Z"/><path class="cls-1" d="M989,468.12l19.1,12.5C1005.8,471.23,1003.9,461.69,989,468.12Z"/><path class="cls-1" d="M1027.37,493.22l-19.24-12.6C1010.34,489.53,1013,498.31,1027.37,493.22Z"/><path class="cls-1" d="M642.8,701l30.47.83L717.72,703C692.78,702,668.27,700.84,642.8,701Z"/><path class="cls-1" d="M499.37,428.32c-10-2.13-8.7-5.08-14.53,3.1-8,11.22-21.24,35.09-21.24,35.09.42,2,7.31,1.09,9.36,2.65Z"/><path d="M1044.8,528.13l-4.37,18.69-10.51,15.82,11.51,1.59.14,20c-1.63-.37-3.62-.79-6.08-1.24.21-2.49.39-5,.49-7.49.11-2.82.13-3.49-67-18.78-26.92-6.14-54.75-12.48-60.54-14.89-2.38-1-10.07-14.62-21.33-42.08-3.14-7.65-6.12-15.34-8.66-22.25l-1.8,1.07-1.78,1.07-10.83,6.47-2.38,1.42-2.38,1.42L840.6,581.09l-.11.55.18.53c4.43,12.78,28,41.9,64.82,54.52l120.3,26.17v-2.55c0-1.75,0-3.5.1-5.25a53.14,53.14,0,0,0,14.81,2.21l-1.64,27.24.09.33c1.12,4,5.1,7.46,11.5,9.95a68.6,68.6,0,0,0,23.54,4c7.3,0,13.88-1.13,17.55-3.43l.78-.49L1096.9,669a26.89,26.89,0,0,0,8.6-3.5c4.87-3.17,7.24-7.64,6.87-12.91-.17-2.39.92-4.1,2.53-6.22a13.91,13.91,0,0,0,2.31-3.09h0a20.7,20.7,0,0,0,4-12A34.49,34.49,0,0,1,1123,620l.06-.21a16.81,16.81,0,0,0,.71-2.41c.28-1,.57-2.14.86-3.44a16,16,0,0,0-3.71-14.71,29.79,29.79,0,0,0-9.53-7l3.37-17.89,13.13,1.82L1122.18,557l.69-18.61Zm70.76,42.23-14.67-2L1055.5,562l-10-1.39-2-.28-2.06-.29-4.45-.61,6.81-10.25,74.78,9.88,3.63,12.17Zm3.07-28.41-.47,13L1045,545.25l2.94-12.57ZM1026.1,650.78c.77-12.23,2.84-24.28,4.86-36,1.57-9.06,3.15-18.35,4.14-27.7,2.73.51,4.83,1,6.5,1.36v1.36c.43,6.71,11.15,12,31.86,15.65,3.82.68,7.67,1.22,11.34,1.66,5.51,1.75,14.88,6.8,18.45,12.75,1.7,2.84,1.88,5.48.54,8.06a6.52,6.52,0,0,1-3.67,3.57c-3.41,1.06-8.41-1.62-13.25-4.21-4.52-2.41-9.16-4.89-13.38-4.83l0-.2c-.44.09-.86.19-1.27.31a8.93,8.93,0,0,0-1.34.3,9.18,9.18,0,0,0-4.82,3.75,10.82,10.82,0,0,0-1.22,1.88c-1.75,3.46-1.73,7.63,0,11.81-.22.29-.52.65-.79,1-2,2.42-5.46,6.56-4.84,11.78a70.46,70.46,0,0,0-8.11,0C1043.84,653.3,1033.7,653.64,1026.1,650.78Zm33.77,4.79c.07.21.16.42.25.63l-.36,0Zm48.41-2.71c.26,3.75-1.43,6.84-5,9.18-7,4.6-18.83,4.82-24.26,2-2.66-1.41-4.91-2.54-6.71-3.45-5.86-2.95-7.42-3.8-8.33-5.77-1.92-4.15.57-7.66,3.27-10.9l.45-.53c8.32,6.53,17.9,10,27.26,10a37.27,37.27,0,0,0,6.67-.6,30.94,30.94,0,0,0,6.73-2A10,10,0,0,0,1108.28,652.86Zm8.79-21.71c-.12,5.77-2.51,8.89-4.83,11.92l-.45.58c-2.43,2.37-6.35,4.23-10.93,5.08-5.09.94-18.36,1.84-32.08-9.78-1.41-3.15-1.53-6.2-.3-8.63,0-.09.11-.18.16-.28l.08,0a10.16,10.16,0,0,1,.6-1,7.91,7.91,0,0,1,3.76-2.48c3.19-.31,7.59,2,11.86,4.32,4.55,2.43,9.22,4.92,13.52,4.92a9.7,9.7,0,0,0,2.88-.42,10,10,0,0,0,5.66-4.81l0,.13a25.73,25.73,0,0,0,10.29-3.72C1117.19,628.2,1117.11,629.56,1117.07,631.15Zm.78-29.23a12,12,0,0,1,2.81,11.12c-.22,1-.44,1.84-.66,2.65h0c0,.19-.07.39-.1.59-.26.92-.51,1.75-.75,2.53-1.21,2.88-3.95,5.86-10.48,7.4a12.39,12.39,0,0,0-1.84-8.47c-2.18-3.63-6-6.91-10.13-9.51,4.84.35,8.43.48,9.69.48h.42l1.58-.11,2.29-12.11A24.66,24.66,0,0,1,1117.85,601.92Z"/><path d="M1000.81,1253.18v-.29l-3-10.51c.21-1.15,0-3.24-2.08-7.17l-.09-.3h-.07c-.39-.75-.84-1.56-1.37-2.45-2.62-4.4-26.91-42.67-71.81-32.14-36.9,8.66-47.11-4.52-53.87-13.24a30.56,30.56,0,0,0-4.81-5.37l-133.78-418a233.84,233.84,0,0,0,24.8-1.88c.06,11.38.11,22.18.11,32.67h4.1c0-10.68,0-21.67-.11-33.27a114.29,114.29,0,0,0,21.77-5.53L760.9,817.81l3.91,1.23L806.42,687.6l3.13,0,.61-.61c.43-.43.63-.63,8.8-34.08,4.48-18.29,11.23-46.43,18-76.61q11.24-50,17.55-84.56l-2.36,1.41-2.36,1.41-84.9,50.73c-36,20-63.28,29.92-82.45,29.92q-12.23,0-20.11-5.37c-21.23-14.38-16.17-54-11.28-92.36,2.08-16.29,4-31.67,4-44.91h4.1c0,13.5-2,29-4.07,45.43-4.73,37.11-9.63,75.48,9.51,88.44,16.28,11,48.4,2.95,98.21-24.71l86.21-51.51,1.72-1,.16-.09,2.2-1.31,2.35-1.41,4.91-2.93,2.38-1.43,2.38-1.42,8.3-4.95,1.79-1.07,1.79-1.08,34.85-20.82-14.23-26.14,1.12,1.81,1.16-.73,1.74-1.1.48-.3,44.39-28,.15-.1a233.87,233.87,0,0,0,20.68-17.53l23.53,5.15h.16l1.26.1c2.84.23,4.36.34,4.8.34,10.88,0,12.77-10,13.78-15.36l13.72-99.14c.22-2.26.48-4.36.71-6.31,1-8.3,1.7-14.29-1.55-18.36-2.27-2.83-6.17-4.4-12.64-5.06l-48.55-7.92c-10.07-1.22-14.4,8.81-15.27,14.28a1.11,1.11,0,0,0,0,.17l-8.41,53.27c-12.54-.1-30,7-34.07,19.35-4.29,13.14-5.07,19.73-5.11,33.24l-26,19.54-.45.34-1.66,1.24-1.21.91-.09-.17-12.26,8-1.79,1.18-1.8,1.17-19.7,12.88-1.86,1.22-85,55.62a1.7,1.7,0,0,1-1.06.54l-11.22,2.59,8.93-5.84,0,.05,1.68-.92c6.63-3.67,10.75-6.46,13.53-9.1l93.71-61.28,1.77-1.16,1.76-1.15c-4.17-15.16-10.64-24.67-19.37-28.37-14.52-6.16-31.42,5.08-41.86,13.78.25-1,.49-1.95.74-2.93,3.31-13.19,6.45-25.7,6.89-31.9l1.52-.54c9.48-3.36,38.31-13.58,37.91-34.24-.72-37.86-12.16-66.31-27.28-82.51C829.15,202,838.4,189.2,835.76,176c-1.85-9.22-7.53-14.88-16.43-16.39-21.82-3.69-60.82,19.35-75.88,44.84-6.51,11-9.79,39.06.95,47.57a177,177,0,0,0-1.48,18.85c-.67,24.56-2.13,45.89-3.76,57.05a43.55,43.55,0,0,0-13.91-4.58c-24.62-3.73-49,13.07-68.32,45.92-.12-.24-.26-.48-.4-.73-5.7-9.87-29-28.17-59.57-28.17h-.49c-21.93.14-53.71,10.35-80.58,58.22-1.13,2-8,12.7-17.46,27.41-1.69-.42-3-.84-4.08-1.19-5.49-1.8-6.73-.83-11.18,5.42-8,11.19-20.82,34.31-21.36,35.29l-.37.66.15.75c.53,2.57,3.54,2.88,6.45,3.18.47.05,1.11.11,1.73.2-21.95,33.92-43.44,67.17-47.14,73.5-17.42,29.85-14.38,48.07-8.77,58.1,6.69,12,20.52,18.77,38.93,19.18l104.28,2.33c-10.11,29.13-16.8,51.38-16.62,59l0,2,13.49.16c-16.13,67.1,15.43,126.08,31.72,155.82l-107.13,310c-3.1,6.66-11.07,18.56-19.5,31.16-12.37,18.47-21.31,32.13-24.34,40.11a8.65,8.65,0,0,0-5.16,1.59c-5.62,3.82-9.17,14-7.6,21.85,1,5.06,4,8.34,8.46,9.24a56.48,56.48,0,0,0,8.8,1.23c-.26,2,0,4.82,1.26,8.93,1.35,4.31,9.08,5.82,25.78,5-1.45,5.61-.93,10,1.53,13.18,5.05,6.42,16.36,5.35,23.12,4.71l1.86-.16c-1.51,6.81-.8,11.69,2.13,14.87,5.16,5.6,15.6,3.62,22.5,2.32,1.29-.24,2.76-.52,3.88-.67-2.81,7-.76,11.4,1.57,13.86,5.15,5.45,15.74,5.9,19.56,4.33,5.28-2.18,7.21-2.45,7.92-2.41a13.27,13.27,0,0,1-.18,1.77c-.36,2.59-1,6.94,3.46,9.19,6.48,3.29,12.52,4.92,18,4.92a23.36,23.36,0,0,0,19.12-9.58,13.09,13.09,0,0,0,8,5.63,24.25,24.25,0,0,0,23.21-6.91c4.86-5.4,5.94-12.62,3.09-20.38,2.44-14.8.45-26.81-5.92-35.69-9.94-13.87-27.92-16.73-37.59-18.26a37.61,37.61,0,0,1-5.34-1.06c-8.07-9.44-15.8-33.37-7.85-57.52l.57-1.73-4.23-2L658.16,984l112,223.2c-1.59,3.28.57,7.25,2.54,10.15,5,14.4,7.79,29.4,10.24,42.66,2.68,14.49,5,27.08,9.58,34.49-2,5.26-.33,18.73,1.24,24.32,1.15,4,2.49,6,4.37,6.46a15.58,15.58,0,0,0,3.37.37c6.7,0,11.09-4.62,13.86-7.54a20.24,20.24,0,0,1,2.39-2.29,9.31,9.31,0,0,1,1.06,2.43,6.13,6.13,0,0,0,4.25,4.21c5.81,1.65,14.25-4,16-5.54a27.65,27.65,0,0,0,7.47-9l1,.84c4.15,3.63,8.4,5,12.62,4.16,6.78-1.39,11.58-8.3,14.22-13.28a15.19,15.19,0,0,1,3,2.68c2.78,3,4.25,3.12,15.66,1,11.59-2.12,17.22-10,19.73-13.72a16.71,16.71,0,0,0,12.77,4.12c6.39-.43,12.18-3.65,14.75-8.19,1.17-2.08,2-3.61,2.52-4.72,10.16,4,11.94,3.32,21.93-2.45,3.36-1.94,5.63-5.83,7-8.56,4.17,2.68,11.83,2.83,14.43,2.18A19.12,19.12,0,0,0,1000.81,1253.18Zm-127.25-874,1.66-1.24.45-.34,28.17-21.12v-1c0-13.72.67-20.06,4.9-33,3.28-10,18.58-16.37,29.53-16.53.71,0,1.39,0,2.06.05q.69,0,1.35.12c-.45.78-1.08,1.76-1.82,2.86s-1.7,2.51-2.69,3.91c-4.57,6.47-10.59,14.39-11.65,15.67l-4.65,5.63,6.91-2.39c1.85-.64,3.22-2.34,4.32-3.7.38-.47.74-.92,1-1.22.72-.71,1.46-1.54,2.21-2.42s1.71-2.07,2.59-3.23,1.76-2.38,2.66-3.68c4.89-7,10.09-15.94,14.87-24.13,5.32-9.09,11.93-20.41,14-21.37,2.53-.87,5.85-1.59,7.32,0,1.78,1.88,1.47,7.07-.67,13.82-1.8,2.09-4.21,6.79-7.88,14-4.37,8.64-10.35,20.47-13.69,22.34l2,3.58c4.11-2.3,8.95-11.43,15.34-24.07,1.32-2.61,2.66-5.26,3.87-7.52l1.14.54.93-1.71c8.71-16.05,14-19.12,16.88-18.86a2.63,2.63,0,0,1,2.37,1.26c2.76,5-5.51,21.41-9,28.43-1.34,2.67-2.33,4.63-2.73,5.78-4.85,9.65-14.63,28.24-16.63,30a1.7,1.7,0,0,1,.58-.26l.93,4c1-.23,1.93-.46,7.6-10.64l-1.57,4.82,12.81-26.19c3.93-8,6.08-9.15,6.51-9.3,1.07,1,2.33,7.72-.47,22.38-3.25,17-10,32.95-29,51.78-.57.57-1.15,1.14-1.75,1.71l-1.8,1.71a236.36,236.36,0,0,1-18.24,15.27l-44.1,27.77-.1.06L895.92,416l-19.26-31.08-3.39-5.49Zm99.24-120c-.64,1.27-2.14,3.23-3.47,3.5-5.64,1.15-3.08-5.32-2.39-7.32C969.44,248.17,976.27,252.23,972.8,259.21Zm.3,1006.34-.7-1.92-1.92.69c-.88.31-1.15.94-1.62,2-.83,1.85-3,6.77-6.14,8.56-9.27,5.35-9.69,5.6-18.59,2.09a2.07,2.07,0,0,0-1.79-1.53,2.12,2.12,0,0,0-2.23,1.54,57.49,57.49,0,0,1-3.36,6.6c-1.88,3.32-6.48,5.78-11.46,6.12-4.59.31-8.54-1.26-10.85-4.31a2.17,2.17,0,0,0-1.82-.87c-1.31,0-2,1-3,2.55-2.29,3.38-7.05,10.41-17.27,12.28s-10.6,1.64-11.89.23a21.06,21.06,0,0,0-5.9-4.61l-.93-.51-1,.46a2.3,2.3,0,0,0-1.12,1.27c-3.48,7.22-7.93,11.87-12.21,12.74-2.9.6-6-.49-9.1-3.23-2.09-1.82-3.15-2.73-4.65-2.44s-2,1.39-2.51,2.49a23.64,23.64,0,0,1-6.63,8.07c-2.48,2.08-9.06,5.64-12.26,4.72a2,2,0,0,1-1.48-1.53c-.76-2.34-1.84-4.79-4.05-5.3s-4.17,1.39-6.27,3.6c-3.09,3.26-6.94,7.29-13.19,6-2.13-2.07-4.07-16.64-3.49-22.9a7.79,7.79,0,0,1,.45-2.23l.13,0,2.28-.65L992.79,1240l.51,1.75.63,2.16.61,2.12,2.17,7.47A15.06,15.06,0,0,1,985.18,1268C981.74,1268.9,973.82,1267.54,973.1,1265.55Zm-135-78.22c-.15-22.51-.17-49.79,0-71.88l21.16,66.11Zm-4.09,1.11-7.84,2.14c-10.86-3.7-25.75-2.75-38.28-1.94-4.26.27-8.31.53-11.86.59-3.39-12.42-3.23-37.06-2.91-63.46,6.34.42,12.87,1,19.35,1.53,12.58,1.08,25.59,2.19,36.38,2.19v-4.1c-10.62,0-23-1.06-36-2.17-6.57-.56-13.21-1.13-19.65-1.55.32-26.82.6-54.37-2.75-71.9,8,.28,16,.49,24.54.49,7,0,14.31-.14,22.16-.47l17.06,53.3C833.82,1127,833.82,1161.34,834,1188.44ZM598.38,929.85c-1.22-12.75-2.17-22.84-2.42-26.59,6.71.39,14.24.79,22.29,1.19l31.26,62.3c-18-.88-34.11-1.74-47.93-2.56C600.56,953,599.48,941.44,598.38,929.85Zm-4.29-147.68q.15-12.12.27-24.73c19.16.18,39.89,1.69,60.23,3.17l16.33,1.17c.31,17.13.77,35.64,1.35,53.37.11,3.31.23,6.81.36,10.46-29.68-1.59-60.64.38-78.88,9C593.67,817.05,593.87,799.83,594.09,782.17Zm.39-48.77c0-4.64.3-9.15.6-13.51.44-6.5.8-11.89,0-15.82a74.84,74.84,0,0,0,9.71.18c23-1.43,44.64-1.46,66.11-.93-.33,3.58-.55,12.23-.36,34.24.06,6.33.15,13.08.26,20.1l-16-1.14c-20.41-1.49-41.2-3-60.49-3.19Q594.48,743.55,594.48,733.4ZM673,703.83l.07-.46,1.49,0A2,2,0,0,1,673,703.83Zm3.7,198.91c-19.16-.69-38.64-1.5-55.84-2.32L595.5,850c-.49-1-1-2.05-1.64-3.17,0-2.54-.06-5.07-.08-7.59,17.1-9,48.75-11,79-9.38C673.63,852.57,674.9,880.08,676.66,902.74ZM594,856.12l22.11,44.07c-7.37-.36-14.24-.73-20.41-1.08C594.82,884.15,594.29,869.93,594,856.12Zm29,48.55c16.79.8,35.57,1.58,54,2.24,1.5,18.07,3.35,32.47,5.58,37.88,1.39,3.36,2,13.09,2.42,23.61l-10-.45q-10.78-.48-20.83-1ZM757.8,924.22c.48,14,1.06,30.52,1.8,47.07-18.61-.6-43.24-1.53-70.49-2.71-.41-11.22-1.1-21.39-2.74-25.36-1.85-4.49-3.63-17-5.24-36.17,28.86,1,56.54,1.68,74.19,1.68h1.93C757.42,913.42,757.61,918.7,757.8,924.22Zm-72.66,48.35c.1,3.36.18,6.73.26,9.93.43,17.28.7,22.18,1.8,23.8l3.4-2.31.08.15c-.68-1.64-.94-12.32-1.18-21.74-.08-3.17-.16-6.43-.25-9.65,26.23,1.15,51.31,2.1,70.54,2.7,1.27,27.43,3,54.45,5.65,70l-10.5-.44c-13.4-.58-27.27-1.18-42.94-1.18v4.1c15.59,0,29.4.6,42.76,1.17l11.45.48c3.46,17,3.18,44.77,2.86,71.81-14.31-.81-27.39-.73-36.42,1.9l-76.3-152.09C665.91,971.7,675.58,972.15,685.14,972.57Zm84.49,73.07c-2.66-15.14-4.44-42.34-5.73-70.06,11.68.34,20.84.54,26.28.54,1.36,0,2.48,0,3.35,0l22.29,69.65C798.64,1046.43,784,1046.17,769.63,1045.64Zm-5.92-74.22c-.75-16.63-1.32-33.24-1.81-47.34-.21-6-.39-11.12-.55-15.38,4.64-.05,8.23-.18,10.5-.38l20.39,63.73C787.84,972.08,777.76,971.86,763.71,971.42Zm6.86-67.1c-2.16.16-5.34.25-9.38.29-.4-10.13-.67-14.45-1-15.59l-3.91,1.23c.25,1,.54,6.52.85,14.38-17.37,0-46.2-.7-76.3-1.75-1.48-18.8-2.8-43.4-3.89-72.82,22,1.44,42.78,4.74,56.28,8.57l1.12-3.94c-14.07-4-35.27-7.39-57.56-8.84-.1-2.81-.2-5.65-.29-8.54-.67-19.91-1.13-38.78-1.42-55.26,15.42,1,30.72,1.82,45.23,1.82,1.8,0,3.57,0,5.34,0Zm-42-144.64-3.19-10L721.48,751l2.82,8.8c-15.68.17-32.43-.68-49.34-1.81-.48-28.91-.41-49.7,0-54.51,13,.36,26,.92,39.2,1.49s26.62,1.14,40.4,1.52c-.11,16.62,0,34.13.06,51.3A229.92,229.92,0,0,1,728.58,759.68Zm53.57-9a102.42,102.42,0,0,1-23.39,6.44c-.09-16.94-.17-34.19-.06-50.56,8.74.21,17.62.35,26.67.35v-4.1c-9,0-17.9-.14-26.64-.36,0-5.25.11-10.4.2-15.42l43.21.52ZM452.88,617c-16.9-.37-29.49-6.44-35.44-17.09-7.3-13-4.28-31.72,8.73-54,3.67-6.28,25.3-39.73,47.31-73.76h0l1.64-2.53,2.49-3.84c4.34-6.72,8.64-13.35,12.72-19.67,1.09,0,2.21.05,3.4.05,8.64,0,19.94-.68,31.79-1.4,12.23-.73,24.88-1.49,34.88-1.49H566c14.78,0,41.72-.07,59,1l2.14.14,1.46.11c-7.61,20.37-16,42.6-24.32,64.17-2,5.23-4,10.42-6,15.53-11,28.52-21.41,54.74-28.82,72.52l-.7.16-1.3.32-.95.22-.43.86,0,.09c-7.46,15-8.52,19.35-8.28,21Zm49.82-190c9.1-14.12,15.63-24.32,16.76-26.34,25.91-46.15,56.2-56,77-56.13H597c28.56,0,50.9,17.26,56,26.12,1.25,2.16,1.23,3.33,1,3.69l-.18.38a.88.88,0,0,1-.05.15c-1.44,4.28-3.31,9.65-5.53,15.89C643.51,404,637.17,421.34,630,440.47l-1.38-.11-2.14-.16c-17.16-1.15-44.28-1.1-60.55-1.07H560.4c-10.12,0-22.83.76-35.12,1.5S501.55,442.07,493,442L501,429.54l1.68-2.6ZM625.43,590.66c-13.27,8.91-34.13,20.24-60,25.45l-1.53.3-1,.19-.61.13a171.81,171.81,0,0,1,7-15.8l.15,0,.48-.11,2.49-.62c30.7-7.89,56.35-23.92,72.85-45.54a152,152,0,0,0,6,14.08C649,571.7,639.86,581,625.43,590.66Zm193.21-427c7.18,1.22,11.59,5.65,13.1,13.16,2.29,11.43-6.41,23-19.17,33.59l-1.67,1.35c-.53.43-1.08.86-1.63,1.28-17.88,13.83-42,25.6-55.8,32.35l-4.21,2.07-2.23,1.1-.25.13a10.08,10.08,0,0,1-1.59-1.72c-6.38-8.72-3.41-31.61,1.79-40.42,13.13-22.22,46.6-43.23,67.34-43.23A26,26,0,0,1,818.64,163.66Zm-73.82,150c1-11.7,1.78-27.24,2.2-42.62a173.32,173.32,0,0,1,1.47-18.58c1.9-1,4.18-2.07,6.78-3.34,15.13-7.39,39.07-19.08,57-33.09a72.68,72.68,0,0,1,8.15,10.51c8,12.39,17.62,34.49,18.28,69.46.34,17.7-26.39,27.18-35.18,30.29-3.31,1.18-4.2,1.49-4.2,3.08,0,5.08-3.47,18.89-6.82,32.23-.74,3-1.48,5.88-2.17,8.68-.74.68-1.42,1.31-2,1.85-.85.79-1.73,1.61-2,1.78-.93.64-4.91.08-8.27-.5a13.57,13.57,0,0,0-.39-1.31c-.27-.7-.64-1.67-10.65-7.14l-1.71-.93-.05.08c-3.2-14.56-11.31-26.67-22.36-33.91C743.55,326.45,744.19,321.17,744.82,313.62Zm10.25,104.61c3.23-11,6.7-22.77,9-32.52.17-.68.32-1.35.47-2s.32-1.42.47-2.11c.45-2.1.83-4.07,1.12-5.86.12-.71.22-1.39.3-2.05s.17-1.39.23-2,.11-1.5.12-2.17c1,.58,2.06,1.17,3,1.74l1.61,1a29.58,29.58,0,0,1,2.56,1.69q.13.42.24.9a17,17,0,0,1,.34,2.15,48.48,48.48,0,0,1-.14,8.67c-.07.69-.14,1.39-.22,2.11s-.16,1.35-.25,2c-1.49,11.23-5,24.86-8.2,32.66-1.2,2.89-2,5.28-2.8,7.39-2.47,6.9-3.56,10-11.37,15-1.27.83-2.71,1.71-4.37,2.67C748.15,441.78,751.93,428.94,755.07,418.23ZM468.45,466c-.59-.06-1.41-.15-2.09-.26,3.2-5.68,13.55-23.9,20.15-33.16,1.52-2.14,3-4.09,3.76-4.49.38-.18,1.07,0,2.81.59.81.26,1.8.58,3,.92l-23.91,37A22.36,22.36,0,0,0,468.45,466Zm89.74,218.58L754.83,687c-.1,5-.16,10.13-.2,15.36-13.73-.39-27.12-1-40.25-1.52-36.58-1.57-71.13-3.06-109.79-.67a76.82,76.82,0,0,1-11.13-.32,6.32,6.32,0,0,0-1.47-1.45c-2.22-1.55-5.29-1.45-9.34.26l-1.55-.19a173.52,173.52,0,0,0-19.92-1.75v4.1a170,170,0,0,1,19.42,1.72c3.41.42,6.87.84,10.23,1.18,1,3.29.58,9.68.16,15.91-.29,4.23-.61,9-.61,13.79q0,10.14-.09,19.92a236.39,236.39,0,0,0-33.48,2.07C552.7,733.67,552,709.69,558.19,684.61Zm-.57,74.81a235,235,0,0,1,32.64-2q-.1,12.6-.27,24.7c-.23,18.4-.44,36.33-.33,54.68-.31.19-.62.38-.92.58C579.12,819.79,564.58,792.38,557.62,759.42Zm30.75,85.82,1.39,2.58c.23,16.34.77,33.16,1.83,51-9.31-.57-16.69-1.1-21.21-1.57Zm-19.36,56c4.63.52,12.61,1.11,22.82,1.74l0,.35c.23,3.69,1.15,13.42,2.43,26.87.89,9.38,2,21.12,3.15,33.7-24.93-1.53-41.84-2.9-48.7-4Zm-21.63,62.58c7.23,1.24,26.11,2.72,50.44,4.21,2.34,26,4.71,54.75,5.48,73.5-20.5-2.82-48.52-5.65-67.19-5.94-1.42-10.42-3.35-18.25-5.91-22.07Zm-19,55c1.5,3.75,2.72,9.53,3.69,16.77a85.19,85.19,0,0,0-9.66.5Zm-7.49,21.66a62.58,62.58,0,0,1,11.69-.81c2.17,19,2.87,46.23,2.65,73-15.93-1.24-32.76-2.63-38-3.66Zm-25,72.35c4.12,1,14,1.93,39.3,3.9-.25,20.75-1.05,40.94-2.15,56.51l-50-23.18Zm104,214.64c-2.56-.69-5.77-2.36-6.59-6.34l-.42-2.06-2.05.48c-.88.2-1.26.79-1.78,1.6-7.27,11.35-18.55,13.25-33.52,5.65-1.64-.84-1.64-2.15-1.25-5,.28-2,.59-4.23-1.19-5.62a4.33,4.33,0,0,0-2.73-.81c-2,0-5,.87-9.44,2.7-2.19.91-11.07.82-15-3.35-2.36-2.49-2.4-6.16-.13-10.91a2.88,2.88,0,0,0-.17-3.16c-1.35-1.76-4-1.25-8.89-.33-6,1.13-15.11,2.85-18.72-1.07-2.19-2.36-2.4-6.83-.63-13.27a2.28,2.28,0,0,0-.44-2.06c-1-1.18-2.45-1-6.32-.68-5.54.52-15.85,1.49-19.51-3.17-1.82-2.31-2-6-.39-11l.79-.17-.24-1.89c-.25-1.91-1.91-1.82-3.66-1.72-21.84,1.23-23.08-1.91-23.12-2-2.05-6.54-.8-8.25-.82-8.25l1.49-1-1.57-3.19-1.7.54s-2.24.66-10.56-1c-2.8-.57-4.57-2.6-5.26-6-1.24-6.18,1.62-14.76,5.88-17.65a5.27,5.27,0,0,1,1.76-.79,4.08,4.08,0,0,1,2.05.06,5.67,5.67,0,0,1,1.57.73c.64.41,1.31.82,2,1.23,4.64,2.77,10.32,5.46,16.29,8.28,9.18,4.34,19.59,9.26,29,15.76,5.91,4.09,12.43,9.08,19.33,14.36,9.64,7.38,20.23,15.48,31.15,22.57,11.83,7.67,24.06,14.14,35.93,17.22a55.91,55.91,0,0,0,14,1.93c1.26,0,3.74.16,6.62.34,8.3.54,15,.83,20.14.71,4.55-.11,7.92-.55,10.16-1.44,1.48,5.52.48,10.39-2.94,14.2C614.44,1326.78,606.24,1329.23,599.84,1327.49ZM561,1186.21l-24-11.11c1.17-15.72,2.06-36.52,2.33-58l3.08.24c19.67,1.51,39.92,3.07,48.09,4.44Zm31.3-68.3c-7.77-1.47-28.1-3-49.54-4.68l-3.35-.26c.24-26.51-.47-53.63-2.76-73.25,18.33.35,46.4,3.11,66.82,6,.25,8.3.09,14-.66,15.7l3.74,1.69c.91-2,1.19-8,1-16.82,6.78,1,12.47,2,16.31,2.85Zm33.28-72.62c-3.89-.9-10.32-2-18.17-3.14-.63-17.61-2.77-44.3-5.43-73.83,15.14.91,32.17,1.82,49.69,2.69l4.16,8.29Zm109,81.76c8.49-2.28,20.89-2.31,34.5-1.53-.34,27.88-.51,53.87,3.53,66.41l2-.63v2c4,0,8.7-.3,13.66-.62,9.59-.61,20.64-1.32,29.8.08l-44.39,12.08Z"/><path d="M1075.12,523.37c1.82-15.91-2.81-28.82-12.69-35.42a25.69,25.69,0,0,0-26.86-.81c-8.82,4.91-15.21,6.56-19,4.91-3.94-1.72-5.25-7-6.64-12.68-1.5-6.08-3.05-12.37-8.42-14.62-4.68-1.95-11.14-.32-20.35,5.14-3.24,1.93-5.66,2.61-7.19,2-2.06-.79-3.15-4.24-4.31-7.9-2.12-6.72-5-15.92-17.15-13.33-4.61,1-7.77.87-9.4-.33s-2-4.14-2.32-7.43c-.41-4.54-.92-10.18-6.38-13l-1.88,3.64c3.22,1.67,3.73,4.79,4.18,9.73.35,3.92.72,8,4,10.36,2.69,2,6.72,2.31,12.69,1,8.06-1.72,10,2.89,12.38,10.56,1.4,4.42,2.84,9,6.76,10.49,2.83,1.08,6.25.34,10.75-2.33,7.77-4.62,13.39-6.26,16.66-4.88,3.47,1.45,4.71,6.48,6,11.81,1.5,6.06,3.19,12.93,9,15.46,5.16,2.25,12.35.63,22.62-5.08a21.61,21.61,0,0,1,22.59.63c8.56,5.72,12.53,17.22,10.89,31.55Z"/><path d="M1091.69,521.35l4.1-.09c-.33-14.5-6-35.46-20.92-46.83-8.74-6.66-19.42-8.66-30.88-5.77l-.27.09c-15.21,6.18-18,1-22.23-6.83-4.34-8.05-9.75-18.06-30.42-15.45l.51,4.07c17.9-2.26,22.16,5.67,26.3,13.33,4.3,8,8.74,16.2,27.25,8.73,10.29-2.55,19.47-.84,27.26,5.1C1085.27,487.5,1091.36,506.69,1091.69,521.35Z"/></svg>