<?xml version="1.0" standalone="no"?>
<!DOCTYPE svg PUBLIC "-//W3C//DTD SVG 20010904//EN"
 "http://www.w3.org/TR/2001/REC-SVG-20010904/DTD/svg10.dtd">
<svg version="1.0" xmlns="http://www.w3.org/2000/svg"
 width="573.000000pt" height="573.000000pt" viewBox="0 0 573.000000 573.000000"
 preserveAspectRatio="xMidYMid meet">
<metadata>
Created by potrace 1.14, written by Peter Selinger 2001-2017
</metadata>
<g transform="translate(0.000000,573.000000) scale(0.100000,-0.100000)"
fill="#000000" stroke="none">
<path d="M2669 5726 c-2 -2 -35 -6 -74 -9 -100 -9 -228 -28 -315 -47 -25 -6
-54 -12 -65 -14 -215 -41 -611 -201 -825 -334 -121 -75 -253 -167 -311 -216
-130 -110 -162 -140 -239 -217 -376 -377 -627 -822 -759 -1344 -30 -118 -48
-227 -70 -425 -9 -78 -7 -488 3 -550 3 -19 8 -55 11 -80 9 -71 24 -159 41
-235 9 -38 18 -81 20 -95 3 -14 9 -36 14 -50 5 -14 19 -59 31 -100 83 -290
264 -635 475 -906 125 -162 317 -357 454 -464 25 -19 47 -37 50 -40 17 -18
166 -120 270 -185 168 -106 440 -228 642 -289 113 -35 321 -81 428 -95 189
-26 244 -29 455 -26 214 3 242 5 373 26 34 5 79 12 100 15 32 4 228 51 295 69
9 3 25 7 35 9 119 30 468 185 622 278 144 87 343 233 439 322 126 117 250 247
316 331 17 21 35 43 40 49 86 95 256 375 344 565 128 278 197 526 247 896 13
97 12 497 -2 605 -21 161 -24 183 -28 205 -30 145 -43 196 -72 298 -31 107
-55 174 -103 292 -72 178 -214 428 -341 599 -316 429 -762 775 -1240 960 -52
21 -104 41 -115 45 -100 40 -373 108 -505 126 -24 3 -113 16 -145 21 -36 5
-491 14 -496 10z"/>
</g>
</svg>
