<svg id="Layer_1" data-name="Layer 1" xmlns="http://www.w3.org/2000/svg" viewBox="0 0 1500 1500"><defs><style>.cls-1{fill:#fff;}</style></defs><title>Podcast</title><path class="cls-1" d="M1273.14,1092.78l.23-1.34c31.44-1.61,155.82,11,155.29-28.08-.58-42.92-44.59-97.94-90.91-160.54.91-.09,2.2-1.51,5.4-4.23,1-.89-11.67-16.48-12.73-18.09-7.23-11.1-5.9-11-12.43-6.18-15.79-33.48,30.19-49.62,10.69-103.69,13.87-34.59-17-65.06-66.11-51.29-6-2.13-12.49-2.07-15.66,2.81-2,3.13-7.5-2.08-18.43,1.36-7.66,2.41-5.51,7.37-10.21,11.7-1.45,1.34-11.46,6.83-11.8,15.63-4.27,3.57-8.59,7.43-13,11.63a28.42,28.42,0,0,0-4.65-.39c-14.71,0-26.63,11.14-26.63,24.89a23.41,23.41,0,0,0,1.35,7.82c-.83,1.14-1.64,2.29-2.43,3.47l-37.9-32.49c1.43,37.9-60.16,70.56-72.15,93.9-.92,1.81-1.83,3.56-2.72,5.28l-56.71-28c-15.79-10.43-52.47-36.51-53.23-37.82a.17.17,0,0,1,0-.12l11.84-3.4c15.12-3,41.91-7.08,63.69-9.81,8.06-1,54-9.92,74.77-16.4,9,.73,25.2-4.06,34.53-3.67,11.55.5,22.73-9.68,26.88-19.64,2-4.72,8.07-15,15.27-26.62,10.7-6.82,32.66-19.37,27.75-29.11-1.23-2.42-4.14-2.93-7.75-2.4,4.79-7.46,8.72-13.59,10.68-16.82,11.05-18.23,10.7-21-1.28-20.76-9.38.16-29.3.68-34,1.4-6.35,1-7.32,1.85-17,14.22q-1.62,2.07-3.3,4.34h-.08c-20.74,3.37-27.74,4.28-39.08,24.51-2.75,4.9-4.67,8.18-6.25,11.12-53.73,1.71-141.26,12-165.4,15.93-40,6.43-52.83,1.43-80.53,29.32-30,30.22-1.81,79.22,14.07,93.91,5.3,4.91,45.92,46.59,69.59,69.51-13.15-.4-26.64-1.1-40.52-2.29-78.86-6.76-126.27-12.82-126.27-12.82l-.12,2.15C731.4,850.44,718.06,814.79,665,760.22c-40.35-41.52-102.87-19-145.61,24.73-53,54.24-108.65,136.36-147.56,195.74-81.64,10.9-157.32,18.79-214,18.79,0,3.52-.06,7.1-.15,10.69-9.05,1-15.65,1.74-15.65,1.74a37.5,37.5,0,0,1-2.31,6.85c.47-6.17.7-10.18.55-10.41C113.8,968,127.69,897.24,78.06,898.7c-6.54.19-21.18,182.87-24.11,196.13-.5,3.92,76.81,3.54,79,.34.07-.1.67-6.19,1.51-15.1,5.14.4,12,.8,19.41,1.19-.15,4-.23,7.83-.23,11.52H790.47l.12-.57,138-2.21Zm34.63-93c-.33-.2-11.92-1-18.45-1.43.19-1.22.32-2.07.37-2.46,0,0-54.57-23.38-71.66-35.74a230.51,230.51,0,0,0-30.34-18.61c17.4-18.4,38.27-44.57,55.58-66.85,2.39,10.2,10.3,17.95,15.17,28.38.48,1,2.54,4.55,5.55,9.64.75,1.34,1.68,2.88,2.57,4.32,13.13,22.07,37.84,63.46,43,78.13-3.18-7.15-6-13-6.82-14.1l7.75,18.18C1310.43,1000.63,1309.61,1000.92,1307.77,999.78Zm-762-45.26,30.64-3.85L545,955.45Z"/><path d="M1274.87,1094.84l.24-1.42c6.23-.21,15.53,0,26.08.28,10.19.24,21.66.52,33.46.52,36.31,0,75.68-2.64,90.16-17a18.62,18.62,0,0,0,5.9-13.92c-.53-39.79-37-88.69-79.12-145.32-3.58-4.8-7.21-9.69-10.85-14.61.45-.37.94-.8,1.51-1.31s1.35-1.19,2.23-1.94c1.86-1.59.37-3.85-2.92-8.39-2.13-3-4.86-6.47-6.86-9-1.2-1.55-2.34-3-2.56-3.35-.84-1.29-1.56-2.42-2.19-3.42-2.86-4.48-4-6.34-6.18-6.73-1.66-.3-3,.49-4.93,1.9-5.21-13.23-.2-23.62,5.84-36.12,7.84-16.2,16.69-34.54,6.19-64.34,3.37-8.74,4.14-17.55,2.05-25.87-3.6-14.28-15-24.85-31.36-29-12-3-25.16-2.49-39,1.37a23.15,23.15,0,0,0-6.65-1.21c-4.8-.07-8.46,1.67-10.72,5.14a9.15,9.15,0,0,1-2.88-.25,28.43,28.43,0,0,0-14.41.71c-5.52,1.74-6.88,4.86-8.08,7.61a12,12,0,0,1-2.9,4.54c-.14.13-.63.48-1.07.79-3.19,2.27-10.5,7.48-11.31,15.39q-5.84,4.9-11.64,10.42a30.85,30.85,0,0,0-4-.27c-15.81,0-28.68,12.09-28.68,26.94a25.35,25.35,0,0,0,1.13,7.47c-11.12,15.54-16.51,31.13-15.94,45.87-8.19,11.9-6.43,26.17-3,37-1.85,2.71-4,5.51-6.43,8.59-3,3.83-6.36,8.16-9.65,13.1l-1.06,1.61L1051.18,864l1.76-3.42c4.17-8.12,15.14-17.9,26.75-28.26,21.22-18.92,45.18-40.29,45.64-64.55,11.62-.71,22.51-10.81,26.7-20.89,1.89-4.54,7.85-14.6,14.88-25.93l2.6-1.63c12.27-7.69,30.81-19.32,25.48-29.87a6.75,6.75,0,0,0-5.76-3.62c3.88-6.07,6.93-10.84,8.61-13.62,6.94-11.44,9.69-17.16,7.64-20.74-1.57-2.73-5.25-3.23-10.7-3.13-7.82.13-29.21.64-34.28,1.43-7.25,1.12-8.56,2.52-18.29,15-.92,1.18-1.87,2.42-2.83,3.71-20.45,3.31-28.11,4.56-39.8,25.4-1.08,1.93-2,3.6-2.88,5.1-1.08,1.89-2,3.51-2.82,5-55.16,1.85-143.39,12.52-164.49,15.91-8.32,1.34-15.5,2.19-21.83,2.93-24.13,2.85-37.42,4.41-59.83,27-9.47,9.53-14.12,21.55-13.82,35.71.52,24.82,16.66,50.7,28,61.15,2.1,1.94,10,10,20.11,20.13,21.33,21.54,35.78,36,45.66,45.65-11.43-.42-23.11-1.09-35.13-2.12-77.91-6.67-125.72-12.75-126.19-12.81l-.8-.1c-9.09-13.68-16.75-26.31-24.29-38.74-19.07-31.46-37.09-61.18-74.73-99.91-14.53-15-32.41-22.55-53.12-22.58h-.11c-30.75,0-66.37,17.68-95.32,47.31-52.88,54.12-108.45,136-147.31,195.29-81.41,10.87-156.15,18.62-212.75,18.62h-2v2.05c0,2.92-.05,5.87-.11,8.84-6.7.71-11.79,1.3-13.37,1.49,0-2-.13-2.3-.32-2.58-9.67-14.72-13.85-33.53-17.89-51.73-6.73-30.26-13.09-58.87-44.58-58.87-.52,0-1,0-1.57,0-2.49.07-4.64.14-10.49,49.81-3.24,27.6-6.71,63-9.5,91.49-2.74,28-5.11,52.14-6.06,56.44l0,.18c-.08.59,0,2.07,2.16,2.89,4.47,1.68,22.61,2.26,38.29,2.26h3.89c36.23-.23,37.72-2.45,38.36-3.4.2-.31.39-.59,1.67-14,3.81.28,8.81.59,15.42.93-.11,3.29-.17,6.49-.17,9.58v2H752.92v0l2.18,0h37l.13-.6,136.31-2.18ZM139,1052.21c1.44-16.21,2.3-26.47,2.78-33,.92-2.32,1.58-4.09,2-5.43,3.93-.46,7.9-.91,11.85-1.33-.39,12.47-1.24,25.19-2.08,37.61-.68,10.15-1.33,19.91-1.69,29-5.69-.31-10.92-.62-15.18-.91C137.26,1072,138,1063.57,139,1052.21Zm20.82-44.32c0-2.13.08-4.25.09-6.37,55.73-.18,128.5-7.67,207.73-18.18l5.37-.71c53.88-7.21,110.61-15.77,166.91-24.33l6.16-.94,9-1.38q22.77-3.47,45-6.83l4.3-.65c32.32-4.88,63.56-9.5,93-13.58.5.56,1,1.1,1.45,1.58l2.15-2.07c21.55-3,42.12-5.64,61.41-7.89l-4.19,73.89c-9.39,1.29-58.42,5.17-114,9.26l-6.72.49c-55.09,4-115.19,8.18-148.79,10.16l-6.25.36c-9.46.53-16.08.83-18.86.83-35.42,0-76.75,1.86-118.73,4.14l-5.09.28c-12,.66-24.1,1.35-36.08,2-31.18,1.78-63,3.6-92.91,4.82l-2,.08-2.05.08c-16.84.67-33,1.12-48.1,1.27.45-7.42.83-14.86,1.05-22.22,0-.69,0-1.37,0-2Zm969.9-106.66c3.2-4.82,6.38-8.9,9.46-12.86,1.72-2.2,3.37-4.32,4.88-6.4a74.34,74.34,0,0,0,5.74,11.58l.14-.09c-5.38,5.55-8.82,15.54-11.87,27.75q-7.78-1.87-15.67-3.27a19.76,19.76,0,0,1,1.94-8.24C1126.08,906.84,1127.91,904,1129.75,901.23Zm296.86,162.15a14.52,14.52,0,0,1-4.68,11c-18,17.75-82.23,16.19-120.64,15.26-8-.2-14.86-.36-20.44-.36-1.82,0-3.49,0-5,0l-1.15,0c.4-3.36,1.19-9.95,2.2-18.14,1.73-14.07,4.09-32.86,6.18-48.07,1.37-9.94,2.63-18.35,3.52-22.9l.35,0,2,.14,2.06.14c6.87.46,14.35,1,16,1.21a4.42,4.42,0,0,0,3.4.69c4.32,10,8.59,20.56,9.07,23.13l4-.74c-.58-3.15-6.8-18.41-12.09-30.36-.52-1.5-1.26-3.32-2.25-5.53-2.37-5.27-6.12-12.57-11.14-21.7-7.73-14.07-17.35-30.4-24.84-43a74.56,74.56,0,0,0,9.65-1.93c15.22-3.86,42.21-13.67,47.45-25.53a58.07,58.07,0,0,1,3.46,4.88c1,1.52,1.68,2.6,2.79,3,4,5.33,7.88,10.61,11.74,15.8C1390,976.52,1426.09,1024.93,1426.61,1063.38Zm-748.54-38.93c-59.58,3.43-158,8.2-204.22,10l-6.5.25c-8.52.32-14.58.49-17.32.49-36.62,0-76.21,2.4-114.56,4.74l-1.2.07-4,.24c-40.37,2.46-81.84,4.9-119.29,4.43l-2.05,0-2.05,0h-.81c-15-.29-24.37,1.15-34.35,2.68-4.35.66-8.83,1.35-14,1.94.24-3.61.49-7.25.72-10.9,15.16-.14,31.45-.6,48.39-1.26l2-.08,2.05-.09c30-1.22,61.86-3,93.1-4.82,11-.63,22-1.26,33-1.87l5.1-.28c43-2.35,85.36-4.3,121.54-4.3,1.66,0,6.76-.25,14.49-.69l6.32-.37c33.21-2,99.5-6.44,158.87-10.72l8.46-.61c50.55-3.68,94.51-7.12,106.2-8.64l-.84,14.92c-4.17.38-9.83.44-14.15.48-6.72.07-13.07.13-16.31,1-1.61.43-11.9,1.21-27.64,2.2C692.88,1023.58,685.81,1024,678.07,1024.45Zm285.78-57.7c1.43,0,2.83,0,4.24.08,5.65.16,11.12.54,16.27,1,10.95,1.07,18.93.31,24.83-2a23.13,23.13,0,0,0,2.75-1.25,22.44,22.44,0,0,0,2.26-1.34c10.18-7,11.71-20.76,13.66-38.23.31-2.8.63-5.7,1-8.69.08-.68.17-1.37.26-2.06s.19-1.36.29-2.05c.62-4.43,1.4-9,2.44-13.69a118.56,118.56,0,0,1,4.67-15.81,94.87,94.87,0,0,1,8.54-17.2c.23-.37.46-.74.71-1.11l.4.27,3,2-.44.69a90.47,90.47,0,0,0-8.57,17.17,129.81,129.81,0,0,0-6.64,27.67c-.1.68-.2,1.37-.29,2l-.27,2.05c-.39,3.12-.73,6.19-1.07,9.19-1.83,16.43-3.44,30.85-12.82,39.22-.59.53-1.21,1-1.86,1.51s-1.47,1-2.26,1.47c-6.78,3.94-16.58,5.61-31,4.2-5.25-.51-10.84-.89-16.6-1-1.39,0-2.79-.06-4.2-.07-25.25-.16-53.17,4.36-71.09,21.37-18.88,17.92-20.34,40.16-10.84,51.31s31,14,63.56-10.77a80.53,80.53,0,0,1,26.12-13.46c1.35-.4,2.69-.75,4-1.07,23.77-5.67,47.83.36,71.33,6.27,9.5,2.4,18.84,4.75,28,6.26,2.3.38,4.59.71,6.86,1,17.43,2,34,.19,49.34-11.25,27.32-20.38,22.92-40,15.75-59.1-.32-.87-.66-1.74-1-2.62l-1-2.64-.24-.61a149.05,149.05,0,0,1-5.71-16.43,43.06,43.06,0,0,1-1.55-11.9c0-.68.06-1.35.12-2s.15-1.41.26-2.11c.09-.5.17-1,.28-1.52l.65.15,3.35.73c-.11.54-.2,1.08-.28,1.62-.11.71-.19,1.42-.23,2.13,0,.51,0,1,0,1.53-.08,8.28,3.36,17.09,7,26.32.56,1.41,1.11,2.83,1.66,4.26.33.86.66,1.72,1,2.58s.61,1.69.91,2.54c6.65,18.87,9.54,39.54-18.4,60.38-18.24,13.61-37.73,14.52-58.17,11.24-2.31-.37-4.62-.79-7-1.25-7.39-1.48-14.89-3.36-22.5-5.28-22.6-5.68-45.73-11.49-68.39-6.44-1.36.31-2.73.66-4.1,1.05A75.72,75.72,0,0,0,947.28,1036c-18.84,14.36-34.44,19.81-46.47,19.81-10.2,0-17.83-3.91-22.7-9.64-10.59-12.43-10.28-36.62,11.13-57C908.26,971.18,937.59,966.5,963.85,966.75Zm276.88-94.29q.12.9.3,1.77c-16.57,21.3-36.82,46.65-53.8,64.79a226.16,226.16,0,0,0-45.14-16.81c3-11.76,6.31-21.6,11.24-26.32.93-.17,3.45-.46,6.1-.77C1176.83,893.11,1221.34,887.94,1240.73,872.46Zm21.42,41.16c.66,1.18,1.53,2.64,2.64,4.44l1.08,1.82c.56,1,1.15,1.93,1.74,2.92a2.22,2.22,0,0,0,.36.6c7.6,12.8,17.28,29.17,25.43,43.88,3.33,6,5.92,10.88,7.95,14.86l-.25.2c.73.93,3.5,6.83,6.67,14,.2.59.34,1.07.44,1.46-1.11-.24-4.44-.55-16.52-1.36,0-.11,0-.21,0-.29l.19-1.54-1.42-.61c-.54-.23-54.55-23.43-71.26-35.51A232.31,232.31,0,0,0,1191,941c16.27-17.43,35.13-41,51.42-61.86,1.8,4.76,4.61,9.07,7.49,13.48a92.8,92.8,0,0,1,6.65,11.35C1257.09,905,1258.89,908.12,1262.15,913.62ZM1321,833.23c-6.45,13.34-12.58,26-4.57,42.52l-.47.11c.08.33,2,3.36,4.35,6.82-.76.53-1.59,1.18-2.55,1.93-7.1,5.53-23.71,18.46-54.81,22.27-1.4-2.4-2.36-4.07-2.64-4.68a96.57,96.57,0,0,0-6.94-11.87c-3.29-5.05-6.38-9.79-7.84-15.19a24.32,24.32,0,0,1-.56-2.62,23.7,23.7,0,0,1-.3-3q0-.87,0-1.77c0-.72.08-1.46.17-2.22s.2-1.44.34-2.18a44.17,44.17,0,0,1,5-12.79c1-1.8,4.33-4.44,8.43-7.4l1.69-1.21,1.66-1.17,1.94-1.36c2.69-1.88,5.57-3.9,8.47-6q2.07-1.53,4.13-3.13l.34-.26,1.53-1.22c.54-.43,1.07-.87,1.59-1.3l.84-.71.72-.62c6-5.2,11.29-10.94,14.08-17.1a22,22,0,0,0,2.13-9.68c-.24-9.86,3-15.84,6-17.23a3.35,3.35,0,0,1,3.53.45,2.52,2.52,0,0,0,1.3,2.13c.09,1.19.15,2.13.14,2.45-.07,2.8-.26,5.46-.57,8a66.24,66.24,0,0,1-1.34,7.53,54.63,54.63,0,0,1-7.15,16.68l3.45,2.21a59.21,59.21,0,0,0,8.93-24.49c.29-2,.49-4.16.63-6.35.07-1.14.12-2.3.15-3.49,0-1-.27-4.55-.66-9.11,0-.34-.06-.68-.09-1,.83-1.65,2.24-2.28,3.71-2.93.47-.21.94-.43,1.39-.68.54,1.21,1,2.2,1.12,2.6l0,.07c.65,2,1.2,3.9,1.68,5.78s.84,3.57,1.14,5.31c0,.16,0,.33.07.49a57.11,57.11,0,0,1,.66,5.71,54.52,54.52,0,0,1-1.35,16l4,.93a59.82,59.82,0,0,0-.1-27.62q-.6-2.65-1.42-5.41c-.22-.72-.45-1.45-.69-2.18,0-.1-.06-.2-.1-.3-.21-.65-1-2.43-2.1-4.84l0-.11.07-.11a8.82,8.82,0,0,1,2.32-2.66,1.92,1.92,0,0,1,1.16-.42c.73,0,1.87,1,2.86,3.71l0,0c.71,1.93,1.33,3.81,1.88,5.64C1336.08,802,1328.1,818.53,1321,833.23ZM1164.51,797c.46-.64.92-1.28,1.4-1.92.68-.91,1.37-1.82,2.1-2.73a154.41,154.41,0,0,1,28.14-27.21c.73-.55,1.42-1,2-1.5s1.45-1,2-1.41,1.13-.73,1.55-1q2.29-1.38,4.55-2.56a31.09,31.09,0,0,0,7,8.61c-.54,1.35-1,2.62-1.33,3.83-.26.91-.47,1.77-.64,2.6A24.05,24.05,0,0,0,1211,777a14.59,14.59,0,0,0,2.44,9.66,12.83,12.83,0,0,0,2,2.2,14.51,14.51,0,0,0,1.9,1.45c.34.21.67.41,1,.59,2,9.29,12.24,13.08,17.81,15.15.89.33,1.94.72,2.53,1,1.13,8.09,3.25,11.8,5.88,13.9q.95-.57,2-1.08c.71-.37,1.45-.72,2.2-1l.1,0a28.9,28.9,0,0,1,29.31,4l.55.45-1.2,1-.38.32c-.54.45-1.09.89-1.64,1.33a24,24,0,0,0-15.18-5.27,26.08,26.08,0,0,0-6.51.84,25,25,0,0,0-2.42.76c-.35.13-.71.26-1.06.41s-.94.43-1.41.66a25.16,25.16,0,0,0-12.09,12.25,21.88,21.88,0,0,0-.43,17.61,21.38,21.38,0,0,0,5.24,7.49c-.21.78-.38,1.54-.52,2.29s-.27,1.56-.36,2.31-.13,1.29-.17,1.92C1224,883.51,1176.83,889,1159,891.05c-3.66.42-5.5.64-6.52.84l.85-.54a74.29,74.29,0,0,1-6.31-13.59c4.87-7.66,7.38-15.4,4.35-26-4.77-16.67-.77-34.42,11.85-52.85C1163.61,798.29,1164.06,797.66,1164.51,797ZM579.22,915.29c3.26,1.5,11.3,15.77,18.9,30l-43.57,6.62-4.46.67C561.91,938.41,572.14,925.35,579.22,915.29Zm4.06-1.88c.13-2.08-2.54-5.13-11.16-14.24-3.91-4.14-9.83-10.41-10.32-11.87l-4,.69c.37,2.17,3.58,5.75,11.38,14,2.73,2.88,6.45,6.81,8.52,9.36a3.58,3.58,0,0,0-1.62,1.32c-8.1,11.55-19.5,25.94-32.06,40.87-25,3.8-50.14,7.61-75.07,11.31,4.77-5,18.31-22.31,61.71-82l3.62-5c2.74-3.73,5.24-7.44,7.65-11,11.89-17.66,21.28-31.6,46.22-31.6,18.14,0,45.72,39.74,65.86,68.76,8.45,12.17,15.89,22.9,21.82,29.79-23.58,3.37-48.15,7-73.37,10.83C593.24,927.41,587.52,917.54,583.28,913.41Zm97.39,19.73c-6-6.47-14-18.07-23.33-31.44-21.81-31.42-49-70.52-69.23-70.52-27.12,0-37.55,15.48-49.62,33.41-2.39,3.55-4.87,7.23-7.55,10.9-.68.92-1.93,2.64-3.64,5-47.8,65.7-60.31,81.19-62.39,82.61a.87.87,0,0,1,.26-.12l.8,2.32-15.75,2.32c4-3.78,16.33-19.28,62.57-82.84,1.69-2.32,2.92-4,3.59-4.93l2.86-3.92c15.65-21.54,39.2-53.93,67.08-53.93l1.22,0c30.05,1,65.86,51.9,89.55,85.56,6.55,9.31,12.44,17.66,17.25,23.65C689.82,931.85,685.27,932.48,680.67,933.14ZM155.81,1083.42c0-.69,0-1.36.06-2.06s.06-1.37.08-2c.33-8.18.89-16.88,1.49-25.92,5.57-.62,10.32-1.34,14.91-2.05,10.22-1.56,19.05-2.92,33.65-2.63h.91c.68,0,1.37,0,2.05,0l2,0c36.57.46,76.87-1.84,116.26-4.23l5.25-.32,2-.13c38.66-2.36,78.63-4.8,115.51-4.8,1.57,0,5.61-.12,11.59-.33l7.14-.27c48.25-1.89,173.56-7.72,230.49-11.35,13.75-.88,23.51-1.63,27.23-2.16a10.52,10.52,0,0,0,1.32-.24c2.73-.73,9.12-.79,15.29-.85,5.64,0,10.26-.14,13.87-.45l-.12,2.19-.23,4.07-3.46,60.82H155.65C155.67,1088.35,155.73,1085.91,155.81,1083.42ZM1323.05,873.3a30,30,0,0,1,3.44,4.87c.64,1,1.37,2.15,2.22,3.45.3.46,1.1,1.5,2.75,3.62,2.44,3.13,7.76,10,9.33,12.67l-1.26,1.11c-.43.38-.86.76-1.24,1.08q-3.76-5.08-7.53-10.24c-1-3.09-3.45-5.75-5.61-7.83a1.92,1.92,0,0,0-.22-.18l-.28-.39a53.26,53.26,0,0,1-4.06-6.51A14.94,14.94,0,0,1,1323.05,873.3Zm-22.5-153.53c14.83,3.77,25.18,13.26,28.39,26a37.15,37.15,0,0,1-.6,19.56,6,6,0,0,0-4.5-2.64,5.13,5.13,0,0,0-.87,0c.22-3.17-.16-6.14-2.89-8.76-5.17-5-7.58-10.59-9.71-15.57-3.55-8.29-6.9-16.12-21.38-16.12h-.82c-2.05,0-5.07,1-8,2a46.13,46.13,0,0,1-5,1.45,21.46,21.46,0,0,0-6.66-5.85C1279.88,717.37,1290.69,717.26,1300.55,719.77ZM1146.13,847.41a51.91,51.91,0,0,0,1.26,5.49,24.34,24.34,0,0,1-2,19.54C1143.36,864.66,1142.65,855.57,1146.13,847.41ZM1077,829.29c-12.42,11.08-23.15,20.64-27.67,29.44l-1.79,3.49-54.65-26.94c-13.2-8.75-42.41-29.24-50.73-35.69,9.08-2.57,41.56-7.89,72.09-11.71,5.3-.66,26.67-4.68,46.82-9.23,13.18-3,22-5.29,28-7.14.57,0,1.16,0,1.77,0,4.59,0,10.24-.94,16-1.91a116.84,116.84,0,0,1,14.41-1.83C1120.72,790.26,1097.51,811,1077,829.29Zm21.69-125.42,1.61-2.85c.86-1.51,1.82-3.19,2.9-5.12,9.95-17.75,15.9-19.87,32.77-22.69l2.87-.47,1.24-.21.74-.11.89-.13a35.66,35.66,0,0,1,5.09-.39c6.28,0,9.68,2,10.15,3.82.68,2.66-3.82,7.37-15.29,11.42a4.91,4.91,0,0,0-1.27.65c-3.08.17-6.58.42-10,.74-.89.08-1.78.17-2.65.27s-1.78.2-2.64.3a75.42,75.42,0,0,0-7.63,1.28,2.37,2.37,0,0,0-1.56,1.09,1.83,1.83,0,0,1,1.09-.82l.39,4.08a2.84,2.84,0,0,0,1.38-.44c1-.22,2.1-.43,3.37-.63.84-.13,1.73-.26,2.67-.38s1.75-.22,2.67-.33a195,195,0,0,1,19.82-1.27c4,.19,5,.82,5.18,1.25.57,1.28-.9,7.84-7,10.59-1.55.7-2.79,1.24-3.8,1.68-1.48.19-4,.45-6.6.72l-2.48.25c-5.77.59-10.83,1.12-14.56,1.6l-.93.12-1.72.25c-1.11.17-2,.34-2.68.5l-.48.12a11.12,11.12,0,0,1-1.11.23,37.44,37.44,0,0,0-7.38,2.06l1.53,3.8a29.35,29.35,0,0,1,4.5-1.39c.8-.19,1.52-.32,2.11-.43l.59-.12a8.38,8.38,0,0,0,.91-.21,17,17,0,0,1,1.87-.38c3.88-.65,11.74-1.45,17.77-2.07l1.67-.17h0l2.06-.21a2.53,2.53,0,0,0,.82.91l.06.05a5.68,5.68,0,0,1-.76,2.77c-.25.56-.57,1.2-1,2a9.92,9.92,0,0,1-3.53,3.42,15.63,15.63,0,0,1-1.39.79,27.28,27.28,0,0,1-3.38,1.45c-1.07.39-2.13.73-3.13,1-5.28-.12-12.38,2.73-18.27,5.17l-.66.27-2.49,1c-1.13.46-2.19.86-3,1.12a6.16,6.16,0,0,1-1.16.29l-.47,0-.74.43,1,1.69.46.82.09,1.12c.22,0,.46-.06.72-.11a18.79,18.79,0,0,0,2.91-.9c1.17-.44,2.57-1,4.28-1.72,3.17-1.31,7-2.91,10.59-4a2.94,2.94,0,0,0,1.14,1c2.09,1.09,2,2.06,2,2.47-.6,5.67-18.47,15.86-22.23,16.9a22.76,22.76,0,0,0-9.35,5.34,14,14,0,0,0-3.91,5.83,5.82,5.82,0,0,0-.22,2,4.67,4.67,0,0,0,.1.71,9.17,9.17,0,0,0-.51,3.48,11.32,11.32,0,0,1-1.2-.94,10.12,10.12,0,0,1-1.45-1.69,10.36,10.36,0,0,1-1.17-2.12c-3.29-8.29,2.76-21.71,6.38-29.73,1.12-2.47,2-4.42,2.47-5.87,2.77-8.48,4.36-12.4,6.69-16.86C1097.06,706.71,1097.8,705.37,1098.65,703.87Zm92.68-12.54c3.12,6.18-9.61,15.32-19.4,21.63,5-8,10.28-16.16,14.71-23.08C1188.93,689.65,1190.66,690,1191.33,691.33ZM884.89,863.93c-10.1-10.19-18.07-18.24-20.24-20.25-10.76-10-26.14-34.61-26.64-58.23-.27-13,4-24,12.63-32.73,21.4-21.55,33.43-23,57.4-25.79,6.37-.75,13.6-1.6,22-3,25.22-4.06,108.62-13.77,161.66-15.81a116,116,0,0,0-5.91,15.43c-.4,1.23-1.29,3.19-2.31,5.45-3.88,8.62-10.38,23-6.45,32.94a14.24,14.24,0,0,0,3.84,5.45,5.76,5.76,0,0,0,1.31,1.79c-21.48,5.86-59.2,13.43-68.49,14.59-16.33,2-34.77,4.73-49.33,7.19-6.1,1-10.81,1.89-14.49,2.63-4.77.53-23.25,3.57-33.16,9.59l2.13,3.5c4.72-2.86,11.61-5,17.84-6.51.26.45,1.35,2,30.27,22.28,9.45,6.64,16,11.16,20.61,14.24L934.4,911.82l.42.88-1.11,0C919.12,898.5,898.36,877.53,884.89,863.93Zm-364-77.55c28.2-28.85,62.72-46.07,92.39-46.07h.1c19.57,0,36.46,7.21,50.19,21.34,37.31,38.4,55.21,67.92,74.16,99.17,8,13.26,16.23,26.76,26.13,41.5l-1.14,20.06c-20,2.32-41.25,5.09-63.61,8.18-4.94-5.88-11.38-15-18.65-25.35-25.61-36.38-60.68-86.2-92.77-87.3-30.58-1-55.37,33-71.76,55.6l-2.85,3.91c-.67.91-1.91,2.61-3.59,4.93-47.83,65.75-60.35,81.24-62.43,82.66a1.74,1.74,0,0,1,.26-.12l1,3c-24.46,3.57-48.66,7-72.32,10.2C414.68,919.21,469.13,839.35,520.88,786.38Z"/></svg>