<svg xmlns="http://www.w3.org/2000/svg" id="Layer_1" data-name="Layer 1" viewBox="0 0 24 24" width="20" height="20"><path d="M24,15.5c0,3.584-2.916,6.5-6.5,6.5h-5c-3.584,0-6.5-2.916-6.5-6.5s2.916-6.5,6.5-6.5c.552,0,1,.447,1,1s-.448,1-1,1c-2.481,0-4.5,2.019-4.5,4.5s2.019,4.5,4.5,4.5h5c2.481,0,4.5-2.019,4.5-4.5,0-1.348-.597-2.613-1.637-3.472-.426-.352-.486-.982-.134-1.408,.352-.425,.981-.484,1.408-.135,1.502,1.24,2.363,3.068,2.363,5.015ZM3.637,11.972c-1.04-.858-1.637-2.124-1.637-3.472,0-2.481,2.019-4.5,4.5-4.5h5c2.481,0,4.5,2.019,4.5,4.5s-2.019,4.5-4.5,4.5c-.552,0-1,.447-1,1s.448,1,1,1c3.584,0,6.5-2.916,6.5-6.5s-2.916-6.5-6.5-6.5H6.5C2.916,2,0,4.916,0,8.5c0,1.946,.861,3.774,2.363,5.015,.187,.153,.412,.229,.636,.229,.288,0,.574-.124,.771-.363,.352-.426,.292-1.057-.134-1.408Z"/></svg>       
