<svg width="450" height="322" viewBox="0 0 450 322" fill="none" xmlns="http://www.w3.org/2000/svg">
    <g xmlns="http://www.w3.org/2000/svg" transform="translate(-8, -8)">
        <rect width="120%" height="120%" fill="url(#grid)" />
    </g>
    <mask id="mask0_7_2016" style="mask-type:alpha" maskUnits="userSpaceOnUse" x="-215" y="-5" width="1040"
        height="640">
        <rect width="1040" height="640" transform="matrix(-1 0 0 1 825 -5)" fill="url(#paint0_radial_7_2016)" />
    </mask>
    <g mask="url(#mask0_7_2016)">
        <g opacity="0.5" filter="url(#filter0_i_7_2016)">
            <rect x="353" y="152" width="39" height="39" fill="url(#paint1_linear_7_2016)" fill-opacity="0.01" />
            <rect x="353" y="152" width="39" height="39" fill="white" fill-opacity="0.4" />
        </g>
        <g style="mix-blend-mode:overlay">
            <path fill-rule="evenodd" clip-rule="evenodd"
                d="M372 160V158H373V160H372ZM372 184V182H373V184H372ZM372 176V179H373V176H372ZM372 169.5V164H373V169.5C373 170.881 371.881 172 370.5 172H367V171H370.5C371.328 171 372 170.328 372 169.5ZM362 171V172H364V171H362ZM383 171V172H381V171H383ZM378 171H375V172H378V171ZM364.879 160L364.9 160H366.1L366.121 160C366.523 160 366.855 160 367.126 160.022C367.407 160.045 367.665 160.094 367.908 160.218C368.284 160.41 368.59 160.716 368.782 161.092C368.906 161.335 368.955 161.593 368.978 161.874C369 162.145 369 162.477 369 162.879V162.9V164.1V164.121C369 164.523 369 164.855 368.978 165.126C368.955 165.407 368.906 165.665 368.782 165.908C368.59 166.284 368.284 166.59 367.908 166.782C367.665 166.906 367.407 166.955 367.126 166.978C366.855 167 366.523 167 366.121 167H366.1H364.9H364.879C364.477 167 364.145 167 363.874 166.978C363.593 166.955 363.335 166.906 363.092 166.782C362.716 166.59 362.41 166.284 362.218 165.908C362.094 165.665 362.045 165.407 362.022 165.126C362 164.855 362 164.523 362 164.121V164.1V162.9V162.879C362 162.477 362 162.145 362.022 161.874C362.045 161.593 362.094 161.335 362.218 161.092C362.41 160.716 362.716 160.41 363.092 160.218C363.335 160.094 363.593 160.045 363.874 160.022C364.145 160 364.477 160 364.879 160ZM363.956 161.019C363.736 161.037 363.624 161.069 363.546 161.109C363.358 161.205 363.205 161.358 363.109 161.546C363.069 161.624 363.037 161.736 363.019 161.956C363 162.181 363 162.472 363 162.9V164.1C363 164.528 363 164.819 363.019 165.044C363.037 165.264 363.069 165.376 363.109 165.454C363.205 165.642 363.358 165.795 363.546 165.891C363.624 165.931 363.736 165.963 363.956 165.981C364.181 166 364.472 166 364.9 166H366.1C366.528 166 366.819 166 367.044 165.981C367.264 165.963 367.376 165.931 367.454 165.891C367.642 165.795 367.795 165.642 367.891 165.454C367.931 165.376 367.963 165.264 367.981 165.044C368 164.819 368 164.528 368 164.1V162.9C368 162.472 368 162.181 367.981 161.956C367.963 161.736 367.931 161.624 367.891 161.546C367.795 161.358 367.642 161.205 367.454 161.109C367.376 161.069 367.264 161.037 367.044 161.019C366.819 161 366.528 161 366.1 161H364.9C364.472 161 364.181 161 363.956 161.019ZM364.9 175H364.879H364.879C364.477 175 364.145 175 363.874 175.022C363.593 175.045 363.335 175.094 363.092 175.218C362.716 175.41 362.41 175.716 362.218 176.092C362.094 176.335 362.045 176.593 362.022 176.874C362 177.145 362 177.477 362 177.879V177.9V179.1V179.121C362 179.523 362 179.855 362.022 180.126C362.045 180.407 362.094 180.665 362.218 180.908C362.41 181.284 362.716 181.59 363.092 181.782C363.335 181.906 363.593 181.955 363.874 181.978C364.145 182 364.477 182 364.879 182H364.9H366.1H366.121C366.523 182 366.855 182 367.126 181.978C367.407 181.955 367.665 181.906 367.908 181.782C368.284 181.59 368.59 181.284 368.782 180.908C368.906 180.665 368.955 180.407 368.978 180.126C369 179.855 369 179.523 369 179.121V179.1V177.9V177.879C369 177.477 369 177.145 368.978 176.874C368.955 176.593 368.906 176.335 368.782 176.092C368.59 175.716 368.284 175.41 367.908 175.218C367.665 175.094 367.407 175.045 367.126 175.022C366.855 175 366.523 175 366.121 175H366.121H366.1H364.9ZM363.546 176.109C363.624 176.069 363.736 176.037 363.956 176.019C364.181 176 364.472 176 364.9 176H366.1C366.528 176 366.819 176 367.044 176.019C367.264 176.037 367.376 176.069 367.454 176.109C367.642 176.205 367.795 176.358 367.891 176.546C367.931 176.624 367.963 176.736 367.981 176.956C368 177.181 368 177.472 368 177.9V179.1C368 179.528 368 179.819 367.981 180.044C367.963 180.264 367.931 180.376 367.891 180.454C367.795 180.642 367.642 180.795 367.454 180.891C367.376 180.931 367.264 180.963 367.044 180.981C366.819 181 366.528 181 366.1 181H364.9C364.472 181 364.181 181 363.956 180.981C363.736 180.963 363.624 180.931 363.546 180.891C363.358 180.795 363.205 180.642 363.109 180.454C363.069 180.376 363.037 180.264 363.019 180.044C363 179.819 363 179.528 363 179.1V177.9C363 177.472 363 177.181 363.019 176.956C363.037 176.736 363.069 176.624 363.109 176.546C363.205 176.358 363.358 176.205 363.546 176.109ZM378.879 160L378.9 160H380.1L380.121 160C380.523 160 380.855 160 381.126 160.022C381.407 160.045 381.665 160.094 381.908 160.218C382.284 160.41 382.59 160.716 382.782 161.092C382.906 161.335 382.955 161.593 382.978 161.874C383 162.145 383 162.477 383 162.879V162.9V164.1V164.121C383 164.523 383 164.855 382.978 165.126C382.955 165.407 382.906 165.665 382.782 165.908C382.59 166.284 382.284 166.59 381.908 166.782C381.665 166.906 381.407 166.955 381.126 166.978C380.855 167 380.523 167 380.121 167H380.1H378.9H378.879C378.477 167 378.145 167 377.874 166.978C377.593 166.955 377.335 166.906 377.092 166.782C376.716 166.59 376.41 166.284 376.218 165.908C376.094 165.665 376.045 165.407 376.022 165.126C376 164.855 376 164.523 376 164.121V164.1V162.9V162.879C376 162.477 376 162.145 376.022 161.874C376.045 161.593 376.094 161.335 376.218 161.092C376.41 160.716 376.716 160.41 377.092 160.218C377.335 160.094 377.593 160.045 377.874 160.022C378.145 160 378.477 160 378.879 160ZM377.956 161.019C377.736 161.037 377.624 161.069 377.546 161.109C377.358 161.205 377.205 161.358 377.109 161.546C377.069 161.624 377.037 161.736 377.019 161.956C377 162.181 377 162.472 377 162.9V164.1C377 164.528 377 164.819 377.019 165.044C377.037 165.264 377.069 165.376 377.109 165.454C377.205 165.642 377.358 165.795 377.546 165.891C377.624 165.931 377.736 165.963 377.956 165.981C378.181 166 378.472 166 378.9 166H380.1C380.528 166 380.819 166 381.044 165.981C381.264 165.963 381.376 165.931 381.454 165.891C381.642 165.795 381.795 165.642 381.891 165.454C381.931 165.376 381.963 165.264 381.981 165.044C382 164.819 382 164.528 382 164.1V162.9C382 162.472 382 162.181 381.981 161.956C381.963 161.736 381.931 161.624 381.891 161.546C381.795 161.358 381.642 161.205 381.454 161.109C381.376 161.069 381.264 161.037 381.044 161.019C380.819 161 380.528 161 380.1 161H378.9C378.472 161 378.181 161 377.956 161.019ZM378.9 175H378.879H378.879C378.477 175 378.145 175 377.874 175.022C377.593 175.045 377.335 175.094 377.092 175.218C376.716 175.41 376.41 175.716 376.218 176.092C376.094 176.335 376.045 176.593 376.022 176.874C376 177.145 376 177.477 376 177.879V177.9V179.1V179.121C376 179.523 376 179.855 376.022 180.126C376.045 180.407 376.094 180.665 376.218 180.908C376.41 181.284 376.716 181.59 377.092 181.782C377.335 181.906 377.593 181.955 377.874 181.978C378.145 182 378.477 182 378.879 182H378.9H380.1H380.121C380.523 182 380.855 182 381.126 181.978C381.407 181.955 381.665 181.906 381.908 181.782C382.284 181.59 382.59 181.284 382.782 180.908C382.906 180.665 382.955 180.407 382.978 180.126C383 179.855 383 179.523 383 179.121V179.1V177.9V177.879C383 177.477 383 177.145 382.978 176.874C382.955 176.593 382.906 176.335 382.782 176.092C382.59 175.716 382.284 175.41 381.908 175.218C381.665 175.094 381.407 175.045 381.126 175.022C380.855 175 380.523 175 380.121 175H380.121H380.1H378.9ZM377.546 176.109C377.624 176.069 377.736 176.037 377.956 176.019C378.181 176 378.472 176 378.9 176H380.1C380.528 176 380.819 176 381.044 176.019C381.264 176.037 381.376 176.069 381.454 176.109C381.642 176.205 381.795 176.358 381.891 176.546C381.931 176.624 381.963 176.736 381.981 176.956C382 177.181 382 177.472 382 177.9V179.1C382 179.528 382 179.819 381.981 180.044C381.963 180.264 381.931 180.376 381.891 180.454C381.795 180.642 381.642 180.795 381.454 180.891C381.376 180.931 381.264 180.963 381.044 180.981C380.819 181 380.528 181 380.1 181H378.9C378.472 181 378.181 181 377.956 180.981C377.736 180.963 377.624 180.931 377.546 180.891C377.358 180.795 377.205 180.642 377.109 180.454C377.069 180.376 377.037 180.264 377.019 180.044C377 179.819 377 179.528 377 179.1V177.9C377 177.472 377 177.181 377.019 176.956C377.037 176.736 377.069 176.624 377.109 176.546C377.205 176.358 377.358 176.205 377.546 176.109Z"
                fill="#0006" />
        </g>
        <g opacity="0.5" filter="url(#filter1_i_7_2016)">
            <rect x="93" y="133" width="39" height="39" fill="url(#paint2_linear_7_2016)" fill-opacity="0.01" />
            <rect x="93" y="133" width="39" height="39" fill="white" fill-opacity="0.4" />
        </g>
        <g style="mix-blend-mode:overlay">
            <path fill-rule="evenodd" clip-rule="evenodd"
                d="M102 152.5C102 146.701 106.701 142 112.5 142C118.299 142 123 146.701 123 152.5C123 158.299 118.299 163 112.5 163C106.701 163 102 158.299 102 152.5ZM112.5 141C106.149 141 101 146.149 101 152.5C101 158.851 106.149 164 112.5 164C118.851 164 124 158.851 124 152.5C124 146.149 118.851 141 112.5 141ZM115 148V155.5V156H115.5H116H116.234L116.384 155.82L118.884 152.82L118.116 152.18L116 154.719V148H115ZM110 149H109.766L109.616 149.18L107.116 152.18L107.884 152.82L110 150.281V157H111V149.5V149H110.5H110Z"
                fill="#0009" />
        </g>
        <g opacity="0.5" filter="url(#filter2_i_7_2016)">
            <rect x="313" y="73" width="39" height="39" fill="url(#paint3_linear_7_2016)" fill-opacity="0.01" />
            <rect x="313" y="73" width="39" height="39" fill="white" fill-opacity="0.4" />
        </g>
        <g style="mix-blend-mode:overlay">
            <path d="M326 88L322 92.5L326 97M335.5 85L329 100M339 88L343 92.5L339 97" stroke="#0008" />
        </g>
        <g opacity="0.5" filter="url(#filter3_i_7_2016)">
            <rect x="133" y="13" width="39" height="39" fill="url(#paint4_linear_7_2016)" fill-opacity="0.01" />
            <rect x="133" y="13" width="39" height="39" fill="white" fill-opacity="0.4" />
        </g>
        <g style="mix-blend-mode:overlay">
            <path fill-rule="evenodd" clip-rule="evenodd"
                d="M147.3 22H147.278H147.278C146.457 22 145.81 22 145.289 22.0425C144.758 22.0859 144.314 22.1761 143.911 22.3815C143.252 22.717 142.717 23.2525 142.381 23.911C142.176 24.3141 142.086 24.7577 142.043 25.2889C142 25.8095 142 26.4565 142 27.2778V27.2778V27.3V38.7V38.7222C142 39.5435 142 40.1905 142.043 40.7111C142.086 41.2423 142.176 41.6859 142.381 42.089C142.717 42.7475 143.252 43.283 143.911 43.6185C144.314 43.8239 144.758 43.9141 145.289 43.9575C145.81 44 146.457 44 147.278 44H147.3H158.7H158.722C159.543 44 160.19 44 160.711 43.9575C161.242 43.9141 161.686 43.8239 162.089 43.6185C162.747 43.283 163.283 42.7475 163.618 42.089C163.824 41.6859 163.914 41.2423 163.957 40.7111C164 40.1905 164 39.5435 164 38.7222V38.7V27.3V27.2778C164 26.4565 164 25.8095 163.957 25.2889C163.914 24.7577 163.824 24.3141 163.618 23.911C163.283 23.2525 162.747 22.717 162.089 22.3815C161.686 22.1761 161.242 22.0859 160.711 22.0425C160.19 22 159.543 22 158.722 22H158.7H147.3ZM144.365 23.2725C144.604 23.1509 144.901 23.0776 145.37 23.0392C145.845 23.0004 146.452 23 147.3 23H158.7C159.548 23 160.154 23.0004 160.629 23.0392C161.099 23.0776 161.396 23.1509 161.635 23.2725C162.105 23.5122 162.488 23.8946 162.727 24.365C162.849 24.6037 162.922 24.901 162.961 25.3703C162.999 25.8455 163 26.4517 163 27.3V38.7C163 39.5483 162.999 40.1545 162.961 40.6297C162.922 41.099 162.849 41.3963 162.727 41.635C162.488 42.1054 162.105 42.4878 161.635 42.7275C161.396 42.8491 161.099 42.9224 160.629 42.9608C160.154 42.9996 159.548 43 158.7 43H147.3C146.452 43 145.845 42.9996 145.37 42.9608C144.901 42.9224 144.604 42.8491 144.365 42.7275C143.895 42.4878 143.512 42.1054 143.272 41.635C143.151 41.3963 143.078 41.099 143.039 40.6297C143 40.1545 143 39.5483 143 38.7V27.3C143 26.4517 143 25.8455 143.039 25.3703C143.078 24.901 143.151 24.6037 143.272 24.365C143.512 23.8946 143.895 23.5122 144.365 23.2725ZM148 31V39H149V31H148ZM152 39V33H153V39H152ZM157 28V39H158V28H157Z"
                fill="#0008" />
        </g>
        <g opacity="0.5" filter="url(#filter4_i_7_2016)">
            <rect x="33" y="33" width="39" height="39" fill="url(#paint5_linear_7_2016)" fill-opacity="0.01" />
            <rect x="33" y="33" width="39" height="39" fill="white" fill-opacity="0.4" />
        </g>
        <g style="mix-blend-mode:overlay">
            <path fill-rule="evenodd" clip-rule="evenodd"
                d="M48.3971 44.7387C49.7683 42.9014 51.388 42 52.5 42C53.612 42 55.2317 42.9014 56.6029 44.7387C57.8847 46.4562 58.8926 48.9261 58.992 52H52.5H46.008C46.1074 48.9261 47.1153 46.4562 48.3971 44.7387ZM45.0076 52C45.1074 48.7083 46.186 46.0293 47.5957 44.1406C48.0354 43.5514 48.5134 43.0321 49.0093 42.5942C45.0759 43.9803 42.216 47.6429 42.0117 52H45.0076ZM42.0117 53H45.0076C45.1074 56.2917 46.186 58.9707 47.5957 60.8594C48.0354 61.4486 48.5134 61.9679 49.0093 62.4058C45.0759 61.0197 42.216 57.3571 42.0117 53ZM41 52.5C41 46.1487 46.1487 41 52.5 41C58.8513 41 64 46.1487 64 52.5C64 58.8513 58.8513 64 52.5 64C46.1487 64 41 58.8513 41 52.5ZM62.9883 52C62.784 47.6429 59.9241 43.9803 55.9907 42.5942C56.4867 43.0321 56.9646 43.5514 57.4043 44.1406C58.814 46.0293 59.8926 48.7083 59.9924 52H62.9883ZM59.9924 53H62.9883C62.784 57.3571 59.9241 61.0197 55.9907 62.4058C56.4866 61.9679 56.9646 61.4486 57.4043 60.8594C58.814 58.9707 59.8926 56.2917 59.9924 53ZM58.992 53C58.8926 56.0739 57.8847 58.5438 56.6029 60.2613C55.2317 62.0986 53.612 63 52.5 63C51.388 63 49.7683 62.0986 48.3971 60.2613C47.1153 58.5438 46.1074 56.0739 46.008 53H52.5H58.992Z"
                fill="#0006" />
        </g>
        <g opacity="0.5" filter="url(#filter5_i_7_2016)">
            <rect x="373" y="13" width="39" height="39" fill="url(#paint6_linear_7_2016)" fill-opacity="0.01" />
            <rect x="373" y="13" width="39" height="39" fill="white" fill-opacity="0.4" />
        </g>
        <g style="mix-blend-mode:overlay">
            <path
                d="M389 25.5H387.5C383.634 25.5 380.5 28.634 380.5 32.5V32.5C380.5 36.366 383.634 39.5 387.5 39.5H389M396 25.5H398.5C402.366 25.5 405.5 28.634 405.5 32.5V32.5C405.5 36.366 402.366 39.5 398.5 39.5H396M397 32.5H389"
                stroke="#0006" />
        </g>
    </g>
    <defs>
        <pattern xmlns="http://www.w3.org/2000/svg" id="smallGrid" width="20" height="20" patternUnits="userSpaceOnUse">
            <path d="M 20 0 L 0 0 0 20" fill="none" stroke="#00000020" stroke-width="0.5" />
        </pattern>
        <pattern xmlns="http://www.w3.org/2000/svg" id="grid" width="80" height="80" patternUnits="userSpaceOnUse">
            <rect width="80" height="80" fill="url(#smallGrid)" />
            <path d="M 80 0 L 0 0 0 80" fill="none" stroke="#00000009" stroke-width="1" />
        </pattern>
        <filter id="filter0_i_7_2016" x="353" y="152" width="39" height="39" filterUnits="userSpaceOnUse"
            color-interpolation-filters="sRGB">
            <feFlood flood-opacity="0" result="BackgroundImageFix" />
            <feBlend mode="normal" in="SourceGraphic" in2="BackgroundImageFix" result="shape" />
            <feColorMatrix in="SourceAlpha" type="matrix" values="0 0 0 0 0 0 0 0 0 0 0 0 0 0 0 0 0 0 127 0"
                result="hardAlpha" />
            <feMorphology radius="6" operator="erode" in="SourceAlpha" result="effect1_innerShadow_7_2016" />
            <feOffset />
            <feGaussianBlur stdDeviation="6" />
            <feComposite in2="hardAlpha" operator="arithmetic" k2="-1" k3="1" />
            <feColorMatrix type="matrix" values="0 0 0 0 1 0 0 0 0 1 0 0 0 0 1 0 0 0 0.5 0" />
            <feBlend mode="normal" in2="shape" result="effect1_innerShadow_7_2016" />
        </filter>
        <filter id="filter1_i_7_2016" x="93" y="133" width="39" height="39" filterUnits="userSpaceOnUse"
            color-interpolation-filters="sRGB">
            <feFlood flood-opacity="0" result="BackgroundImageFix" />
            <feBlend mode="normal" in="SourceGraphic" in2="BackgroundImageFix" result="shape" />
            <feColorMatrix in="SourceAlpha" type="matrix" values="0 0 0 0 0 0 0 0 0 0 0 0 0 0 0 0 0 0 127 0"
                result="hardAlpha" />
            <feMorphology radius="6" operator="erode" in="SourceAlpha" result="effect1_innerShadow_7_2016" />
            <feOffset />
            <feGaussianBlur stdDeviation="6" />
            <feComposite in2="hardAlpha" operator="arithmetic" k2="-1" k3="1" />
            <feColorMatrix type="matrix" values="0 0 0 0 1 0 0 0 0 1 0 0 0 0 1 0 0 0 0.5 0" />
            <feBlend mode="normal" in2="shape" result="effect1_innerShadow_7_2016" />
        </filter>
        <filter id="filter2_i_7_2016" x="313" y="73" width="39" height="39" filterUnits="userSpaceOnUse"
            color-interpolation-filters="sRGB">
            <feFlood flood-opacity="0" result="BackgroundImageFix" />
            <feBlend mode="normal" in="SourceGraphic" in2="BackgroundImageFix" result="shape" />
            <feColorMatrix in="SourceAlpha" type="matrix" values="0 0 0 0 0 0 0 0 0 0 0 0 0 0 0 0 0 0 127 0"
                result="hardAlpha" />
            <feMorphology radius="6" operator="erode" in="SourceAlpha" result="effect1_innerShadow_7_2016" />
            <feOffset />
            <feGaussianBlur stdDeviation="6" />
            <feComposite in2="hardAlpha" operator="arithmetic" k2="-1" k3="1" />
            <feColorMatrix type="matrix" values="0 0 0 0 1 0 0 0 0 1 0 0 0 0 1 0 0 0 0.5 0" />
            <feBlend mode="normal" in2="shape" result="effect1_innerShadow_7_2016" />
        </filter>
        <filter id="filter3_i_7_2016" x="133" y="13" width="39" height="39" filterUnits="userSpaceOnUse"
            color-interpolation-filters="sRGB">
            <feFlood flood-opacity="0" result="BackgroundImageFix" />
            <feBlend mode="normal" in="SourceGraphic" in2="BackgroundImageFix" result="shape" />
            <feColorMatrix in="SourceAlpha" type="matrix" values="0 0 0 0 0 0 0 0 0 0 0 0 0 0 0 0 0 0 127 0"
                result="hardAlpha" />
            <feMorphology radius="6" operator="erode" in="SourceAlpha" result="effect1_innerShadow_7_2016" />
            <feOffset />
            <feGaussianBlur stdDeviation="6" />
            <feComposite in2="hardAlpha" operator="arithmetic" k2="-1" k3="1" />
            <feColorMatrix type="matrix" values="0 0 0 0 1 0 0 0 0 1 0 0 0 0 1 0 0 0 0.5 0" />
            <feBlend mode="normal" in2="shape" result="effect1_innerShadow_7_2016" />
        </filter>
        <filter id="filter4_i_7_2016" x="33" y="33" width="39" height="39" filterUnits="userSpaceOnUse"
            color-interpolation-filters="sRGB">
            <feFlood flood-opacity="0" result="BackgroundImageFix" />
            <feBlend mode="normal" in="SourceGraphic" in2="BackgroundImageFix" result="shape" />
            <feColorMatrix in="SourceAlpha" type="matrix" values="0 0 0 0 0 0 0 0 0 0 0 0 0 0 0 0 0 0 127 0"
                result="hardAlpha" />
            <feMorphology radius="6" operator="erode" in="SourceAlpha" result="effect1_innerShadow_7_2016" />
            <feOffset />
            <feGaussianBlur stdDeviation="6" />
            <feComposite in2="hardAlpha" operator="arithmetic" k2="-1" k3="1" />
            <feColorMatrix type="matrix" values="0 0 0 0 1 0 0 0 0 1 0 0 0 0 1 0 0 0 0.5 0" />
            <feBlend mode="normal" in2="shape" result="effect1_innerShadow_7_2016" />
        </filter>
        <filter id="filter5_i_7_2016" x="373" y="13" width="39" height="39" filterUnits="userSpaceOnUse"
            color-interpolation-filters="sRGB">
            <feFlood flood-opacity="0" result="BackgroundImageFix" />
            <feBlend mode="normal" in="SourceGraphic" in2="BackgroundImageFix" result="shape" />
            <feColorMatrix in="SourceAlpha" type="matrix" values="0 0 0 0 0 0 0 0 0 0 0 0 0 0 0 0 0 0 127 0"
                result="hardAlpha" />
            <feMorphology radius="6" operator="erode" in="SourceAlpha" result="effect1_innerShadow_7_2016" />
            <feOffset />
            <feGaussianBlur stdDeviation="6" />
            <feComposite in2="hardAlpha" operator="arithmetic" k2="-1" k3="1" />
            <feColorMatrix type="matrix" values="0 0 0 0 1 0 0 0 0 1 0 0 0 0 1 0 0 0 0.5 0" />
            <feBlend mode="normal" in2="shape" result="effect1_innerShadow_7_2016" />
        </filter>
        <radialGradient id="paint0_radial_7_2016" cx="0" cy="0" r="1" gradientUnits="userSpaceOnUse"
            gradientTransform="translate(569.5 2.75474e-06) rotate(90) scale(459.5 794.033)">
            <stop stop-color="white" />
            <stop offset="0.5" stop-color="white" stop-opacity="0.65" />
            <stop offset="1" stop-color="white" stop-opacity="0" />
        </radialGradient>
        <linearGradient id="paint1_linear_7_2016" x1="372.5" y1="191" x2="372.5" y2="152"
            gradientUnits="userSpaceOnUse">
            <stop stop-color="white" stop-opacity="0.23" />
            <stop offset="1" stop-color="white" stop-opacity="0.3" />
        </linearGradient>
        <linearGradient id="paint2_linear_7_2016" x1="112.5" y1="172" x2="112.5" y2="133"
            gradientUnits="userSpaceOnUse">
            <stop stop-color="white" stop-opacity="0.23" />
            <stop offset="1" stop-color="white" stop-opacity="0.3" />
        </linearGradient>
        <linearGradient id="paint3_linear_7_2016" x1="332.5" y1="112" x2="332.5" y2="73" gradientUnits="userSpaceOnUse">
            <stop stop-color="white" stop-opacity="0.23" />
            <stop offset="1" stop-color="white" stop-opacity="0.3" />
        </linearGradient>
        <linearGradient id="paint4_linear_7_2016" x1="152.5" y1="52" x2="152.5" y2="13" gradientUnits="userSpaceOnUse">
            <stop stop-color="white" stop-opacity="0.23" />
            <stop offset="1" stop-color="white" stop-opacity="0.3" />
        </linearGradient>
        <linearGradient id="paint5_linear_7_2016" x1="52.5" y1="72" x2="52.5" y2="33" gradientUnits="userSpaceOnUse">
            <stop stop-color="white" stop-opacity="0.23" />
            <stop offset="1" stop-color="white" stop-opacity="0.3" />
        </linearGradient>
        <linearGradient id="paint6_linear_7_2016" x1="392.5" y1="52" x2="392.5" y2="13" gradientUnits="userSpaceOnUse">
            <stop stop-color="white" stop-opacity="0.23" />
            <stop offset="1" stop-color="white" stop-opacity="0.3" />
        </linearGradient>
    </defs>
</svg>