<svg width="139" height="122" viewBox="0 0 139 122" fill="none" xmlns="http://www.w3.org/2000/svg">
    <rect y="16" width="138.479" height="106" fill="white"/>
    <rect x="8.39258" y="22" width="25.1779" height="2" rx="1" fill="#C0C0C0"/>
    <path d="M80.2538 40H47.2078C45.2602 40 43.3923 40.7375 42.0151 42.0503C40.638 43.363 39.8643 45.1435 39.8643 47V103C39.8643 104.857 40.638 106.637 42.0151 107.95C43.3923 109.263 45.2602 110 47.2078 110H91.2692C93.2168 110 95.0847 109.263 96.4618 107.95C97.839 106.637 98.6127 104.857 98.6127 103V57.5L80.2538 40Z" stroke="#F0F2F5" stroke-width="4" stroke-linecap="round" stroke-linejoin="round"/>
    <path d="M76.583 40V54C76.583 55.8565 77.3567 57.637 78.7339 58.9497C80.1111 60.2625 81.9789 61 83.9266 61H98.6137" stroke="#F0F2F5" stroke-width="4" stroke-linecap="round" stroke-linejoin="round"/>
    <path d="M51.8355 82V68.9091H57.2432C58.2233 68.9091 59.0692 69.1009 59.7808 69.4844C60.4967 69.8636 61.0486 70.3942 61.4363 71.076C61.8241 71.7536 62.018 72.5419 62.018 73.4411C62.018 74.3445 61.8199 75.1349 61.4236 75.8125C61.0315 76.4858 60.4711 77.0078 59.7425 77.3786C59.0138 77.7493 58.1487 77.9347 57.1473 77.9347H53.8106V75.4418H56.5592C57.0365 75.4418 57.4349 75.3587 57.7545 75.1925C58.0784 75.0263 58.3234 74.794 58.4896 74.4957C58.6558 74.1932 58.7389 73.8416 58.7389 73.4411C58.7389 73.0362 58.6558 72.6868 58.4896 72.3928C58.3234 72.0945 58.0784 71.8643 57.7545 71.7024C57.4307 71.5405 57.0322 71.4595 56.5592 71.4595H54.9996V82H51.8355ZM68.4165 82H63.5777V68.9091H68.4101C69.7439 68.9091 70.8923 69.1712 71.8554 69.6953C72.8227 70.2152 73.5684 70.9652 74.0926 71.9453C74.6167 72.9212 74.8788 74.0888 74.8788 75.4482C74.8788 76.8118 74.6167 77.9837 74.0926 78.9638C73.5727 79.9439 72.8291 80.696 71.8618 81.2202C70.8944 81.7401 69.746 82 68.4165 82ZM66.7417 79.3026H68.295C69.028 79.3026 69.648 79.179 70.1551 78.9318C70.6665 78.6804 71.0521 78.2734 71.3121 77.7109C71.5763 77.1442 71.7084 76.3899 71.7084 75.4482C71.7084 74.5064 71.5763 73.7564 71.3121 73.1982C71.0479 72.6357 70.6579 72.2308 70.1423 71.9837C69.6309 71.7322 69.0003 71.6065 68.2503 71.6065H66.7417V79.3026ZM76.7261 82V68.9091H85.6622V71.4787H79.8902V74.1634H85.0933V76.7393H79.8902V82H76.7261Z" fill="#006666"/>
    <rect x="50.8438" y="90.5745" width="25" height="4" rx="2" fill="#C0C0C0"/>
    <rect x="50.8438" y="96.5745" width="12" height="4" rx="2" fill="#C0C0C0"/>
    <mask id="path-8-inside-1_141_17364" fill="white">
        <path d="M0 6C0 2.68629 2.68629 0 6 0H132.479C135.792 0 138.479 2.68629 138.479 6V16H0V6Z"/>
    </mask>
    <path d="M0 6C0 2.68629 2.68629 0 6 0H132.479C135.792 0 138.479 2.68629 138.479 6V16H0V6Z" fill="white"/>
    <path d="M0 0H138.479H0ZM138.479 18H0V14H138.479V18ZM0 16V0V16ZM138.479 0V16V0Z" fill="#F0F2F5" mask="url(#path-8-inside-1_141_17364)"/>
    <rect x="22" y="6" width="24" height="4" rx="2" fill="#F0F2F5"/>
    <rect x="54" y="6" width="24" height="4" rx="2" fill="#F0F2F5"/>
    <rect x="86" y="6" width="24" height="4" rx="2" fill="#006666"/>
</svg>
