<svg width="302" height="122" viewBox="0 0 302 122" fill="none" xmlns="http://www.w3.org/2000/svg">
    <rect x="85" y="16" width="132" height="106" fill="white"/>
    <path d="M115 34C115 30.6863 117.686 28 121 28H181C184.314 28 187 30.6863 187 34V122H115V34Z" fill="#F0F2F5"/>
    <rect x="121" y="34" width="60" height="60" rx="4" fill="white"/>
    <rect x="135" y="100" width="32" height="6" rx="2" fill="#C0C0C0"/>
    <rect x="121" y="109" width="60" height="6" rx="2" fill="#C0C0C0"/>
    <path d="M141.334 46H135.334C134.229 46 133.334 46.8954 133.334 48V54C133.334 55.1046 134.229 56 135.334 56H141.334C142.439 56 143.334 55.1046 143.334 54V48C143.334 46.8954 142.439 46 141.334 46Z" stroke="#006666" stroke-width="4" stroke-linecap="round" stroke-linejoin="round"/>
    <path d="M167.334 46H161.334C160.229 46 159.334 46.8954 159.334 48V54C159.334 55.1046 160.229 56 161.334 56H167.334C168.439 56 169.334 55.1046 169.334 54V48C169.334 46.8954 168.439 46 167.334 46Z" stroke="#006666" stroke-width="4" stroke-linecap="round" stroke-linejoin="round"/>
    <path d="M141.334 72H135.334C134.229 72 133.334 72.8954 133.334 74V80C133.334 81.1046 134.229 82 135.334 82H141.334C142.439 82 143.334 81.1046 143.334 80V74C143.334 72.8954 142.439 72 141.334 72Z" stroke="#006666" stroke-width="4" stroke-linecap="round" stroke-linejoin="round"/>
    <path d="M169.334 72H163.334C162.273 72 161.256 72.4214 160.506 73.1716C159.755 73.9217 159.334 74.9391 159.334 76V82" stroke="#006666" stroke-width="4" stroke-linecap="round" stroke-linejoin="round"/>
    <path d="M169.334 82V82.02" stroke="#006666" stroke-width="4" stroke-linecap="round" stroke-linejoin="round"/>
    <path d="M151.334 54V60C151.334 61.0609 150.913 62.0783 150.162 62.8284C149.412 63.5786 148.395 64 147.334 64H141.334" stroke="#006666" stroke-width="4" stroke-linecap="round" stroke-linejoin="round"/>
    <path d="M133.334 64H133.354" stroke="#006666" stroke-width="4" stroke-linecap="round" stroke-linejoin="round"/>
    <path d="M151.334 46H151.354" stroke="#006666" stroke-width="4" stroke-linecap="round" stroke-linejoin="round"/>
    <path d="M151.334 72V72.02" stroke="#006666" stroke-width="4" stroke-linecap="round" stroke-linejoin="round"/>
    <path d="M159.334 64H161.334" stroke="#006666" stroke-width="4" stroke-linecap="round" stroke-linejoin="round"/>
    <path d="M169.334 64V64.02" stroke="#006666" stroke-width="4" stroke-linecap="round" stroke-linejoin="round"/>
    <path d="M151.334 82V80" stroke="#006666" stroke-width="4" stroke-linecap="round" stroke-linejoin="round"/>
    <mask id="path-18-inside-1_1269_3623" fill="white">
        <path d="M85 6C85 2.68629 87.6863 0 91 0H211C214.314 0 217 2.68629 217 6V16H85V6Z"/>
    </mask>
    <path d="M85 6C85 2.68629 87.6863 0 91 0H211C214.314 0 217 2.68629 217 6V16H85V6Z" fill="white"/>
    <path d="M85 0H217H85ZM217 18H85V14H217V18ZM85 16V0V16ZM217 0V16V0Z" fill="#F0F2F5" mask="url(#path-18-inside-1_1269_3623)"/>
    <rect x="107" y="6" width="24" height="4" rx="2" fill="#F0F2F5"/>
    <rect x="139" y="6" width="24" height="4" rx="2" fill="#006666"/>
    <rect x="171" y="6" width="24" height="4" rx="2" fill="#F0F2F5"/>
    <rect x="0.5" y="68.5" width="73" height="33" rx="3.5" fill="white"/>
    <rect x="0.5" y="68.5" width="73" height="33" rx="3.5" stroke="#F0F2F5"/>
    <rect x="6" y="74" width="28" height="18" rx="2" fill="#22A97D"/>
    <rect x="6" y="94" width="28" height="2" rx="1" fill="#C0C0C0"/>
    <rect x="40" y="74" width="28" height="18" rx="2" fill="#FFA2A2"/>
    <rect x="40" y="94" width="28" height="2" rx="1" fill="#C0C0C0"/>
    <rect x="232" y="69" width="33" height="33" rx="4" fill="#006666"/>
    <path d="M241.64 91H239.333L242.848 80.8182H245.622L249.132 91H246.825L244.275 83.1449H244.195L241.64 91ZM241.496 86.9979H246.945V88.6783H241.496V86.9979ZM252.495 91.1442C252.008 91.1442 251.574 91.0597 251.193 90.8906C250.812 90.7183 250.51 90.4647 250.288 90.13C250.069 89.7919 249.96 89.371 249.96 88.8672C249.96 88.4429 250.038 88.0866 250.194 87.7983C250.349 87.5099 250.561 87.2779 250.83 87.1023C251.098 86.9266 251.403 86.794 251.745 86.7045C252.089 86.6151 252.451 86.5521 252.828 86.5156C253.273 86.4692 253.631 86.4261 253.902 86.3864C254.174 86.3433 254.371 86.2803 254.494 86.1974C254.617 86.1146 254.678 85.992 254.678 85.8295V85.7997C254.678 85.4848 254.578 85.2412 254.38 85.0689C254.184 84.8965 253.906 84.8104 253.544 84.8104C253.163 84.8104 252.86 84.8949 252.635 85.0639C252.409 85.2296 252.26 85.4384 252.187 85.6903L250.228 85.5312C250.328 85.0672 250.523 84.6662 250.815 84.3281C251.107 83.9867 251.483 83.7249 251.944 83.5426C252.408 83.357 252.944 83.2642 253.554 83.2642C253.979 83.2642 254.385 83.3139 254.772 83.4134C255.163 83.5128 255.51 83.6669 255.811 83.8757C256.116 84.0845 256.357 84.353 256.532 84.6811C256.708 85.0059 256.796 85.3954 256.796 85.8494V91H254.787V89.9411H254.728C254.605 90.1797 254.441 90.3902 254.235 90.5724C254.03 90.7514 253.783 90.8923 253.495 90.995C253.206 91.0945 252.873 91.1442 252.495 91.1442ZM253.102 89.6825C253.413 89.6825 253.689 89.6212 253.927 89.4986C254.166 89.3726 254.353 89.2036 254.489 88.9915C254.625 88.7794 254.693 88.5391 254.693 88.2706V87.4602C254.627 87.5033 254.535 87.5431 254.419 87.5795C254.307 87.6127 254.179 87.6442 254.037 87.674C253.894 87.7005 253.752 87.7254 253.609 87.7486C253.467 87.7685 253.337 87.7867 253.221 87.8033C252.973 87.8397 252.756 87.8977 252.57 87.9773C252.384 88.0568 252.24 88.1645 252.137 88.3004C252.035 88.433 251.983 88.5987 251.983 88.7976C251.983 89.0859 252.088 89.3063 252.297 89.4588C252.509 89.608 252.777 89.6825 253.102 89.6825Z" fill="white"/>
    <rect x="269.5" y="69.5" width="32" height="32" rx="3.5" fill="white"/>
    <rect x="269.5" y="69.5" width="32" height="32" rx="3.5" stroke="#F0F2F5"/>
    <path d="M278.367 91H277.393L281.097 80.8182H282.091L285.795 91H284.82L281.629 82.0263H281.559L278.367 91ZM279.068 87.0973H284.119V87.9325H279.068V87.0973ZM289.489 91.174C289.028 91.174 288.607 91.0845 288.226 90.9055C287.845 90.7232 287.541 90.4614 287.316 90.12C287.091 89.7753 286.978 89.3577 286.978 88.8672C286.978 88.4893 287.049 88.1712 287.192 87.9126C287.334 87.6541 287.536 87.442 287.798 87.2763C288.06 87.1106 288.37 86.9796 288.728 86.8835C289.086 86.7874 289.48 86.7128 289.911 86.6598C290.339 86.6068 290.7 86.5604 290.995 86.5206C291.293 86.4808 291.52 86.4179 291.676 86.3317C291.832 86.2455 291.91 86.1063 291.91 85.9141V85.7351C291.91 85.2147 291.754 84.8054 291.442 84.5071C291.134 84.2055 290.69 84.0547 290.11 84.0547C289.56 84.0547 289.111 84.1757 288.763 84.4176C288.418 84.6596 288.176 84.9446 288.037 85.2727L287.197 84.9695C287.369 84.5518 287.608 84.2187 287.913 83.9702C288.218 83.7183 288.559 83.5376 288.937 83.4283C289.315 83.3156 289.697 83.2592 290.085 83.2592C290.377 83.2592 290.68 83.2973 290.995 83.3736C291.313 83.4498 291.608 83.5824 291.88 83.7713C292.152 83.9569 292.372 84.2171 292.541 84.5518C292.71 84.8833 292.795 85.3042 292.795 85.8146V91H291.91V89.7919H291.855C291.749 90.0173 291.592 90.236 291.383 90.4482C291.174 90.6603 290.912 90.8343 290.597 90.9702C290.282 91.1061 289.913 91.174 289.489 91.174ZM289.608 90.3636C290.079 90.3636 290.486 90.2592 290.831 90.0504C291.176 89.8416 291.441 89.5649 291.626 89.2202C291.815 88.8722 291.91 88.4893 291.91 88.0717V86.968C291.844 87.031 291.732 87.0874 291.577 87.1371C291.424 87.1868 291.247 87.2315 291.045 87.2713C290.846 87.3078 290.647 87.3393 290.448 87.3658C290.249 87.3923 290.07 87.4155 289.911 87.4354C289.48 87.4884 289.112 87.5713 288.808 87.6839C288.503 87.7966 288.269 87.9524 288.107 88.1513C287.944 88.3468 287.863 88.5987 287.863 88.907C287.863 89.371 288.029 89.7306 288.36 89.9858C288.692 90.2377 289.107 90.3636 289.608 90.3636Z" fill="black"/>
</svg>
