<svg width="139" height="122" viewBox="0 0 139 122" fill="none" xmlns="http://www.w3.org/2000/svg">
    <rect y="16" width="138.479" height="106" fill="white"/>
    <rect x="8.39258" y="22" width="25.1779" height="2" rx="1" fill="#C0C0C0"/>
    <path d="M80.2538 40H47.2078C45.2602 40 43.3923 40.7375 42.0151 42.0503C40.638 43.363 39.8643 45.1435 39.8643 47V103C39.8643 104.857 40.638 106.637 42.0151 107.95C43.3923 109.263 45.2602 110 47.2078 110H91.2692C93.2168 110 95.0847 109.263 96.4618 107.95C97.839 106.637 98.6127 104.857 98.6127 103V57.5L80.2538 40Z" stroke="#F0F2F5" stroke-width="4" stroke-linecap="round" stroke-linejoin="round"/>
    <path d="M76.583 40V54C76.583 55.8565 77.3567 57.637 78.7339 58.9497C80.1111 60.2625 81.9789 61 83.9266 61H98.6137" stroke="#F0F2F5" stroke-width="4" stroke-linecap="round" stroke-linejoin="round"/>
    <text x="51" y="82" font-family="Arial, sans-serif" font-size="14" fill="#006666" font-weight="bold">JPEG</text>
    <rect x="50.8438" y="90.5745" width="25" height="4" rx="2" fill="#C0C0C0"/>
    <rect x="50.8438" y="96.5745" width="12" height="4" rx="2" fill="#C0C0C0"/>
    <mask id="path-8-inside-1_141_17364" fill="white">
        <path d="M0 6C0 2.68629 2.68629 0 6 0H132.479C135.792 0 138.479 2.68629 138.479 6V16H0V6Z"/>
    </mask>
    <path d="M0 6C0 2.68629 2.68629 0 6 0H132.479C135.792 0 138.479 2.68629 138.479 6V16H0V6Z" fill="white"/>
    <path d="M0 0H138.479H0ZM138.479 18H0V14H138.479V18ZM0 16V0V16ZM138.479 0V16V0Z" fill="#F0F2F5" mask="url(#path-8-inside-1_141_17364)"/>
    <rect x="22" y="6" width="24" height="4" rx="2" fill="#F0F2F5"/>
    <rect x="54" y="6" width="24" height="4" rx="2" fill="#F0F2F5"/>
    <rect x="86" y="6" width="24" height="4" rx="2" fill="#006666"/>
</svg>
