<svg width="139" height="122" viewBox="0 0 139 122" fill="none" xmlns="http://www.w3.org/2000/svg">
    <rect y="16" width="138.224" height="106" fill="white"/>
    <rect x="8.37695" y="22" width="25.1316" height="2" rx="1" fill="#C0C0C0"/>
    <rect x="8.37695" y="28" width="77.4892" height="56" rx="4" fill="#F0F2F5"/>
    <rect x="12.377" y="32" width="8" height="2" rx="1" fill="#006666"/>
    <rect x="22.377" y="32" width="18" height="2" rx="1" fill="#C0C0C0"/>
    <rect x="74.377" y="32" width="4" height="2" rx="1" fill="#C0C0C0"/>
    <rect x="12.377" y="38" width="66" height="9" rx="2" fill="#006666"/>
    <rect x="14.377" y="40" width="22" height="5" rx="1" fill="white"/>
    <rect x="12.377" y="49" width="66" height="9" rx="2" fill="white"/>
    <rect x="14.377" y="51" width="22" height="5" rx="1" fill="#C0C0C0"/>
    <rect x="12.377" y="60" width="66" height="9" rx="2" fill="white"/>
    <rect x="14.377" y="62" width="22" height="5" rx="1" fill="#C0C0C0"/>
    <rect x="12.377" y="71" width="66" height="9" rx="2" fill="white"/>
    <rect x="14.377" y="73" width="22" height="5" rx="1" fill="#C0C0C0"/>
    <path d="M8.37695 92C8.37695 89.7909 10.1678 88 12.377 88H81.8662C84.0753 88 85.8662 89.7909 85.8662 92V122H8.37695V92Z" fill="#F0F2F5"/>
    <rect x="12.377" y="92" width="8" height="2" rx="1" fill="#006666"/>
    <rect x="22.377" y="92" width="18" height="2" rx="1" fill="#C0C0C0"/>
    <rect x="74.377" y="92" width="4" height="2" rx="1" fill="#C0C0C0"/>
    <rect x="12.377" y="98" width="66" height="9" rx="2" fill="white"/>
    <rect x="14.377" y="100" width="22" height="5" rx="1" fill="#C0C0C0"/>
    <rect x="12.377" y="109" width="66" height="9" rx="2" fill="white"/>
    <rect x="14.377" y="111" width="22" height="5" rx="1" fill="#C0C0C0"/>
    <rect x="90.0547" y="28" width="39.7918" height="72" rx="4" fill="#F0F2F5"/>
    <rect x="94.9502" y="32" width="30" height="30" rx="2" fill="white"/>
    <rect x="94.9502" y="68" width="30" height="6" rx="2" fill="white"/>
    <rect x="94.9502" y="77" width="30" height="6" rx="2" fill="white"/>
    <rect x="103.95" y="89" width="12" height="6" rx="2" fill="white"/>
    <mask id="path-28-inside-1_141_17323" fill="white">
        <path d="M0 6C0 2.68629 2.68629 0 6 0H132.224C135.538 0 138.224 2.68629 138.224 6V16H0V6Z"/>
    </mask>
    <path d="M0 6C0 2.68629 2.68629 0 6 0H132.224C135.538 0 138.224 2.68629 138.224 6V16H0V6Z" fill="white"/>
    <path d="M0 0H138.224H0ZM138.224 18H0V14H138.224V18ZM0 16V0V16ZM138.224 0V16V0Z" fill="#F0F2F5" mask="url(#path-28-inside-1_141_17323)"/>
    <rect x="22" y="6" width="24" height="4" rx="2" fill="#006666"/>
    <rect x="54" y="6" width="24" height="4" rx="2" fill="#F0F2F5"/>
    <rect x="86" y="6" width="24" height="4" rx="2" fill="#F0F2F5"/>
</svg>
