<svg width="95" height="18" viewBox="0 0 95 18" fill="none" xmlns="http://www.w3.org/2000/svg">
    <path d="M8.99217 13.8064L4.66741 16.3773C4.52244 16.4725 4.36935 16.5123 4.20814 16.4967C4.04693 16.4807 3.90196 16.4331 3.77323 16.3539C3.6445 16.2587 3.54785 16.1396 3.48329 15.9968C3.41873 15.854 3.41061 15.6952 3.45893 15.5203L4.59492 10.6642L0.776979 7.37914C0.632009 7.26831 0.54348 7.13748 0.511393 6.98665C0.479306 6.83583 0.487425 6.689 0.535748 6.54617C0.584072 6.40335 0.664482 6.28432 0.776979 6.1891C0.889863 6.09389 1.04295 6.03047 1.23624 5.99886L6.28586 5.57038L8.24296 0.975901C8.30752 0.817077 8.41229 0.698054 8.55726 0.618833C8.70223 0.539611 8.8472 0.5 8.99217 0.5C9.13714 0.5 9.28211 0.539611 9.42708 0.618833C9.57205 0.698054 9.67685 0.817077 9.74141 0.975901L11.6985 5.57038L16.7481 5.99886C16.9414 6.03047 17.0945 6.09389 17.2074 6.1891C17.3199 6.28432 17.4003 6.40335 17.4486 6.54617C17.497 6.689 17.5051 6.83583 17.473 6.98665C17.4409 7.13748 17.3524 7.26831 17.2074 7.37914L13.3894 10.6642L14.5254 15.5203C14.5738 15.6952 14.5656 15.854 14.5011 15.9968C14.4365 16.1396 14.3399 16.2587 14.2111 16.3539C14.0824 16.4331 13.9374 16.4807 13.7762 16.4967C13.615 16.5123 13.4619 16.4725 13.317 16.3773L8.99217 13.8064Z" fill="#F4B73F"/>
    <path d="M28.1719 13.8064L23.8471 16.3773C23.7021 16.4725 23.549 16.5123 23.3878 16.4967C23.2266 16.4807 23.0817 16.4331 22.9529 16.3539C22.8242 16.2587 22.7275 16.1396 22.663 15.9968C22.5984 15.854 22.5903 15.6952 22.6386 15.5203L23.7746 10.6642L19.9567 7.37914C19.8117 7.26831 19.7232 7.13748 19.6911 6.98665C19.659 6.83583 19.6671 6.689 19.7154 6.54617C19.7638 6.40335 19.8442 6.28432 19.9567 6.1891C20.0696 6.09389 20.2226 6.03047 20.4159 5.99886L25.4656 5.57038L27.4227 0.975901C27.4872 0.817077 27.592 0.698054 27.737 0.618833C27.8819 0.539611 28.0269 0.5 28.1719 0.5C28.3168 0.5 28.4618 0.539611 28.6068 0.618833C28.7518 0.698054 28.8565 0.817077 28.9211 0.975901L30.8782 5.57038L35.9278 5.99886C36.1211 6.03047 36.2742 6.09389 36.3871 6.1891C36.4996 6.28432 36.58 6.40335 36.6283 6.54617C36.6766 6.689 36.6848 6.83583 36.6527 6.98665C36.6206 7.13748 36.5321 7.26831 36.3871 7.37914L32.5691 10.6642L33.7051 15.5203C33.7534 15.6952 33.7453 15.854 33.6808 15.9968C33.6162 16.1396 33.5196 16.2587 33.3908 16.3539C33.2621 16.4331 33.1171 16.4807 32.9559 16.4967C32.7947 16.5123 32.6416 16.4725 32.4966 16.3773L28.1719 13.8064Z" fill="#F4B73F"/>
    <path d="M47.3594 13.8064L43.0346 16.3773C42.8896 16.4725 42.7365 16.5123 42.5753 16.4967C42.4141 16.4807 42.2692 16.4331 42.1404 16.3539C42.0117 16.2587 41.915 16.1396 41.8505 15.9968C41.7859 15.854 41.7778 15.6952 41.8261 15.5203L42.9621 10.6642L39.1442 7.37914C38.9992 7.26831 38.9107 7.13748 38.8786 6.98665C38.8465 6.83583 38.8546 6.689 38.9029 6.54617C38.9513 6.40335 39.0317 6.28432 39.1442 6.1891C39.2571 6.09389 39.4101 6.03047 39.6034 5.99886L44.6531 5.57038L46.6102 0.975901C46.6747 0.817077 46.7795 0.698054 46.9245 0.618833C47.0694 0.539611 47.2144 0.5 47.3594 0.5C47.5043 0.5 47.6493 0.539611 47.7943 0.618833C47.9393 0.698054 48.044 0.817077 48.1086 0.975901L50.0657 5.57038L55.1153 5.99886C55.3086 6.03047 55.4617 6.09389 55.5746 6.1891C55.6871 6.28432 55.7675 6.40335 55.8158 6.54617C55.8641 6.689 55.8723 6.83583 55.8402 6.98665C55.8081 7.13748 55.7196 7.26831 55.5746 7.37914L51.7566 10.6642L52.8926 15.5203C52.9409 15.6952 52.9328 15.854 52.8683 15.9968C52.8037 16.1396 52.7071 16.2587 52.5783 16.3539C52.4496 16.4331 52.3046 16.4807 52.1434 16.4967C51.9822 16.5123 51.8291 16.4725 51.6841 16.3773L47.3594 13.8064Z" fill="#F4B73F"/>
    <path d="M66.5469 13.8064L62.2221 16.3773C62.0771 16.4725 61.924 16.5123 61.7628 16.4967C61.6016 16.4807 61.4567 16.4331 61.3279 16.3539C61.1992 16.2587 61.1025 16.1396 61.038 15.9968C60.9734 15.854 60.9653 15.6952 61.0136 15.5203L62.1496 10.6642L58.3317 7.37914C58.1867 7.26831 58.0982 7.13748 58.0661 6.98665C58.034 6.83583 58.0421 6.689 58.0904 6.54617C58.1388 6.40335 58.2192 6.28432 58.3317 6.1891C58.4446 6.09389 58.5976 6.03047 58.7909 5.99886L63.8406 5.57038L65.7977 0.975901C65.8622 0.817077 65.967 0.698054 66.112 0.618833C66.2569 0.539611 66.4019 0.5 66.5469 0.5C66.6918 0.5 66.8368 0.539611 66.9818 0.618833C67.1268 0.698054 67.2315 0.817077 67.2961 0.975901L69.2532 5.57038L74.3028 5.99886C74.4961 6.03047 74.6492 6.09389 74.7621 6.1891C74.8746 6.28432 74.955 6.40335 75.0033 6.54617C75.0516 6.689 75.0598 6.83583 75.0277 6.98665C74.9956 7.13748 74.907 7.26831 74.7621 7.37914L70.9441 10.6642L72.0801 15.5203C72.1284 15.6952 72.1203 15.854 72.0558 15.9968C71.9912 16.1396 71.8946 16.2587 71.7658 16.3539C71.6371 16.4331 71.4921 16.4807 71.3309 16.4967C71.1697 16.5123 71.0166 16.4725 70.8716 16.3773L66.5469 13.8064Z" fill="#F4B73F"/>
    <path d="M85.5 13.8064L81.1752 16.3773C81.0303 16.4725 80.8772 16.5123 80.716 16.4967C80.5548 16.4807 80.4098 16.4331 80.281 16.3539C80.1523 16.2587 80.0557 16.1396 79.9911 15.9968C79.9265 15.854 79.9184 15.6952 79.9668 15.5203L81.1027 10.6642L77.2848 7.37914C77.1398 7.26831 77.0513 7.13748 77.0192 6.98665C76.9871 6.83583 76.9952 6.689 77.0436 6.54617C77.0919 6.40335 77.1723 6.28432 77.2848 6.1891C77.3977 6.09389 77.5508 6.03047 77.7441 5.99886L82.7937 5.57038L84.7508 0.975901C84.8154 0.817077 84.9201 0.698054 85.0651 0.618833C85.2101 0.539611 85.355 0.5 85.5 0.5C85.645 0.5 85.7899 0.539611 85.9349 0.618833C86.0799 0.698054 86.1846 0.817077 86.2492 0.975901L88.2063 5.57038L93.2559 5.99886C93.4492 6.03047 93.6023 6.09389 93.7152 6.1891C93.8277 6.28432 93.9081 6.40335 93.9564 6.54617C94.0048 6.689 94.0129 6.83583 93.9808 6.98665C93.9487 7.13748 93.8602 7.26831 93.7152 7.37914L89.8973 10.6642L91.0332 15.5203C91.0816 15.6952 91.0734 15.854 91.0089 15.9968C90.9443 16.1396 90.8477 16.2587 90.719 16.3539C90.5902 16.4331 90.4452 16.4807 90.284 16.4967C90.1228 16.5123 89.9697 16.4725 89.8248 16.3773L85.5 13.8064Z" fill="#E4E3E3"/>
    <path d="M81.1752 16.3773L85.5 13.8064V0.5C85.355 0.5 85.2101 0.539611 85.0651 0.618833C84.9201 0.698054 84.8154 0.817077 84.7508 0.975901L82.7937 5.57038L77.7441 5.99886C77.5508 6.03047 77.3977 6.09389 77.2848 6.1891C77.1723 6.28432 77.0919 6.40335 77.0436 6.54617C76.9952 6.689 76.9871 6.83583 77.0192 6.98665C77.0513 7.13748 77.1398 7.26831 77.2848 7.37914L81.1027 10.6642L79.9668 15.5203C79.9184 15.6952 79.9265 15.854 79.9911 15.9968C80.0557 16.1396 80.1523 16.2587 80.281 16.3539C80.4098 16.4331 80.5548 16.4807 80.716 16.4967C80.8772 16.5123 81.0303 16.4725 81.1752 16.3773Z" fill="#F4B73F"/>
</svg>
