<?xml version="1.0" encoding="UTF-8" standalone="no"?>
<svg xmlns="http://www.w3.org/2000/svg" version="1.2" baseProfile="tiny" viewBox="0.00 0.00 1024.00 1024.00">
<g stroke-width="2.00" fill="none" stroke-linecap="butt">
<path stroke="#99ebd7" vector-effect="non-scaling-stroke" d="
  M 459.56 0.00
  L 461.92 0.27
  Q 462.64 0.35 461.92 0.48
  C 352.26 19.15 254.86 81.95 224.52 194.16
  C 213.42 235.18 211.99 277.34 217.55 319.99
  C 224.20 370.95 244.05 418.03 276.89 456.92
  C 342.95 535.16 444.46 571.48 535.50 611.25
  C 567.67 625.31 601.46 641.56 629.65 663.71
  C 653.58 682.52 671.24 707.60 673.67 738.67
  C 678.62 801.79 641.91 852.99 579.56 865.62
  C 540.54 873.53 498.46 867.52 460.41 855.88
  C 398.31 836.89 339.68 804.55 289.00 764.28
  Q 288.39 763.80 288.01 764.47
  L 202.07 919.33
  Q 201.76 919.89 202.28 920.25
  C 273.19 969.94 350.55 1007.70 435.68 1023.45
  Q 436.43 1023.59 435.67 1023.70
  L 433.44 1024.00"
/>
<path stroke="#9a9c9f" vector-effect="non-scaling-stroke" d="
  M 627.56 0.00
  L 625.27 0.36
  Q 624.34 0.51 625.27 0.64
  Q 630.93 1.46 636.49 2.76
  C 712.22 20.45 779.39 57.67 841.35 103.70
  Q 841.80 104.04 841.54 104.54
  L 760.04 261.07
  A 0.46 0.45 33.6 0 1 759.34 261.21
  C 694.58 207.68 609.67 157.57 522.82 158.96
  C 473.98 159.74 430.08 183.90 416.22 232.71
  C 408.71 259.12 411.31 286.89 424.00 311.07
  C 440.40 342.34 474.18 365.65 504.49 382.27
  C 599.64 434.42 710.10 466.52 785.81 547.18
  C 829.06 593.26 851.93 651.15 854.95 714.99
  C 857.69 772.63 848.74 831.72 822.17 883.36
  C 780.47 964.45 698.78 1007.88 611.83 1023.20
  C 611.41 1023.27 610.58 1023.12 610.38 1023.42
  Q 610.16 1023.75 610.55 1023.77
  L 613.69 1024.00"
/>
</g>
<path fill="#32d6ae" d="
  M 0.00 0.00
  L 459.56 0.00
  L 461.92 0.27
  Q 462.64 0.35 461.92 0.48
  C 352.26 19.15 254.86 81.95 224.52 194.16
  C 213.42 235.18 211.99 277.34 217.55 319.99
  C 224.20 370.95 244.05 418.03 276.89 456.92
  C 342.95 535.16 444.46 571.48 535.50 611.25
  C 567.67 625.31 601.46 641.56 629.65 663.71
  C 653.58 682.52 671.24 707.60 673.67 738.67
  C 678.62 801.79 641.91 852.99 579.56 865.62
  C 540.54 873.53 498.46 867.52 460.41 855.88
  C 398.31 836.89 339.68 804.55 289.00 764.28
  Q 288.39 763.80 288.01 764.47
  L 202.07 919.33
  Q 201.76 919.89 202.28 920.25
  C 273.19 969.94 350.55 1007.70 435.68 1023.45
  Q 436.43 1023.59 435.67 1023.70
  L 433.44 1024.00
  L 0.00 1024.00
  L 0.00 0.00
  Z"
/>
<path fill="#ffffff" d="
  M 459.56 0.00
  L 627.56 0.00
  L 625.27 0.36
  Q 624.34 0.51 625.27 0.64
  Q 630.93 1.46 636.49 2.76
  C 712.22 20.45 779.39 57.67 841.35 103.70
  Q 841.80 104.04 841.54 104.54
  L 760.04 261.07
  A 0.46 0.45 33.6 0 1 759.34 261.21
  C 694.58 207.68 609.67 157.57 522.82 158.96
  C 473.98 159.74 430.08 183.90 416.22 232.71
  C 408.71 259.12 411.31 286.89 424.00 311.07
  C 440.40 342.34 474.18 365.65 504.49 382.27
  C 599.64 434.42 710.10 466.52 785.81 547.18
  C 829.06 593.26 851.93 651.15 854.95 714.99
  C 857.69 772.63 848.74 831.72 822.17 883.36
  C 780.47 964.45 698.78 1007.88 611.83 1023.20
  C 611.41 1023.27 610.58 1023.12 610.38 1023.42
  Q 610.16 1023.75 610.55 1023.77
  L 613.69 1024.00
  L 433.44 1024.00
  L 435.67 1023.70
  Q 436.43 1023.59 435.68 1023.45
  C 350.55 1007.70 273.19 969.94 202.28 920.25
  Q 201.76 919.89 202.07 919.33
  L 288.01 764.47
  Q 288.39 763.80 289.00 764.28
  C 339.68 804.55 398.31 836.89 460.41 855.88
  C 498.46 867.52 540.54 873.53 579.56 865.62
  C 641.91 852.99 678.62 801.79 673.67 738.67
  C 671.24 707.60 653.58 682.52 629.65 663.71
  C 601.46 641.56 567.67 625.31 535.50 611.25
  C 444.46 571.48 342.95 535.16 276.89 456.92
  C 244.05 418.03 224.20 370.95 217.55 319.99
  C 211.99 277.34 213.42 235.18 224.52 194.16
  C 254.86 81.95 352.26 19.15 461.92 0.48
  Q 462.64 0.35 461.92 0.27
  L 459.56 0.00
  Z"
/>
<path fill="#35393f" d="
  M 627.56 0.00
  L 1024.00 0.00
  L 1024.00 1024.00
  L 613.69 1024.00
  L 610.55 1023.77
  Q 610.16 1023.75 610.38 1023.42
  C 610.58 1023.12 611.41 1023.27 611.83 1023.20
  C 698.78 1007.88 780.47 964.45 822.17 883.36
  C 848.74 831.72 857.69 772.63 854.95 714.99
  C 851.93 651.15 829.06 593.26 785.81 547.18
  C 710.10 466.52 599.64 434.42 504.49 382.27
  C 474.18 365.65 440.40 342.34 424.00 311.07
  C 411.31 286.89 408.71 259.12 416.22 232.71
  C 430.08 183.90 473.98 159.74 522.82 158.96
  C 609.67 157.57 694.58 207.68 759.34 261.21
  A 0.46 0.45 33.6 0 0 760.04 261.07
  L 841.54 104.54
  Q 841.80 104.04 841.35 103.70
  C 779.39 57.67 712.22 20.45 636.49 2.76
  Q 630.93 1.46 625.27 0.64
  Q 624.34 0.51 625.27 0.36
  L 627.56 0.00
  Z"
/>
</svg>
