<?xml version="1.0" encoding="utf-8"?>
<!-- Uploaded to: SVG Repo, www.svgrepo.com, Generator: SVG Repo Mixer Tools -->
<svg width="800px" height="800px" viewBox="0 0 1024 1024" class="icon"  version="1.1" xmlns="http://www.w3.org/2000/svg"><path d="M21.333329 405.333462l981.333129 0 0 597.333209-981.333129 0 0-597.333209Z" fill="#9FDBAD" /><path d="M959.9998 426.666791a21.333329 21.333329 0 0 1 21.333329 21.333329v511.999893a21.333329 21.333329 0 0 1-21.333329 21.333329H63.999987a21.333329 21.333329 0 0 1-21.333329-21.333329V448.00012a21.333329 21.333329 0 0 1 21.333329-21.333329h895.999813m0-42.666658H63.999987a63.999987 63.999987 0 0 0-63.999987 63.999987v511.999893a63.999987 63.999987 0 0 0 63.999987 63.999987h895.999813a63.999987 63.999987 0 0 0 63.999987-63.999987V448.00012a63.999987 63.999987 0 0 0-63.999987-63.999987z" fill="#5C2D51" /><path d="M66.986653 407.040129a15.999997 15.999997 0 0 1-15.359997-11.946665L21.333329 281.600155a15.999997 15.999997 0 0 1 11.519997-19.626663L951.679802 21.333542h4.053332a15.999997 15.999997 0 0 1 15.359997 11.946664l29.653327 113.49331a15.999997 15.999997 0 0 1-11.519997 19.626663L71.039985 406.613462z" fill="#FFFFFF" /><path d="M951.893135 43.946871l27.093328 103.253312L70.826652 384.000133l-26.879994-102.613312L951.893135 43.946871M955.733134 0.000213a37.333326 37.333326 0 0 0-9.386664 1.28L27.946661 241.493496a37.333326 37.333326 0 0 0-26.666661 45.439991l29.653327 113.49331A37.333326 37.333326 0 0 0 76.373317 426.666791L994.986459 186.880174a37.333326 37.333326 0 0 0 26.666661-45.653323L991.999793 27.946874A37.333326 37.333326 0 0 0 955.733134 0.000213z" fill="#5C2D51" /><path d="M177.493296 224.426833l78.933317-20.693329 9.173332 151.893302-78.933317 20.693329-9.173332-151.893302z" fill="#F05071" /><path d="M236.799951 230.826832l6.399998 108.586644-36.906659 9.599998-6.399998-108.586644 36.906659-9.599998m39.466658-54.399989L155.306634 208.213503l11.519998 195.413293 120.959975-31.573327-11.519998-195.413292z" fill="#5C2D51" /><path d="M369.919923 174.080177l78.933317-20.693329 8.959998 152.106635-78.933317 20.479996-8.959998-151.893302z" fill="#F05071" /><path d="M429.013244 180.693509l6.399999 108.586644-36.693326 9.386665-6.399999-108.586644 36.906659-9.599998M469.333236 126.29352L347.519928 157.866847l11.519997 195.413293 120.959975-31.573327-10.666664-195.413293z" fill="#5C2D51" /><path d="M562.133216 123.733521l78.933317-20.693329 9.173332 152.106635-79.146651 20.693329-8.959998-152.106635z" fill="#F05071" /><path d="M621.439871 130.346853l6.399998 108.586644-36.906659 9.599998-6.399998-108.586644 36.906659-9.599998M661.333196 75.946864L539.946554 106.666858l11.519998 195.413292 120.959975-31.573326L661.333196 75.946864z" fill="#5C2D51" /><path d="M754.559843 73.386865l78.719983-20.479996 9.173332 151.893302-78.933317 20.693329-8.959998-152.106635z" fill="#F05071" /><path d="M813.653164 80.000197l6.399998 108.586644-36.906658 9.599998-6.399999-108.586644 36.906659-9.599998M853.333156 25.600208l-121.173309 31.573327 11.519998 195.413292 120.959975-31.573326L853.333156 25.600208z" fill="#5C2D51" /><path d="M429.013244 842.026705a42.666658 42.666658 0 0 1-42.666658-42.666658v-189.866627a42.666658 42.666658 0 0 1 42.666658-42.666658 42.666658 42.666658 0 0 1 21.333329 5.759999l165.973299 94.933313a42.666658 42.666658 0 0 1 0 74.666651l-165.973299 94.079981a42.666658 42.666658 0 0 1-21.333329 5.759999z" fill="#FDCA89" /><path d="M429.013244 587.306758a21.333329 21.333329 0 0 1 10.666664 2.986666l165.973299 94.933313a21.333329 21.333329 0 0 1 0 37.759992l-165.973299 94.933314a21.333329 21.333329 0 0 1-10.666664 2.986666 21.333329 21.333329 0 0 1-21.333329-21.333329v-189.866627a21.333329 21.333329 0 0 1 21.333329-21.333329m0-42.666658a63.999987 63.999987 0 0 0-63.999987 63.999987v189.866627a63.999987 63.999987 0 0 0 96.426647 55.893322l165.973299-94.933314a63.999987 63.999987 0 0 0 0-111.786643l-165.973299-94.933314a63.999987 63.999987 0 0 0-31.78666-8.533331z" fill="#5C2D51" /></svg>