<?xml version="1.0" encoding="iso-8859-1"?>
<!-- Uploaded to: SVG Repo, www.svgrepo.com, Generator: SVG Repo Mixer Tools -->
<svg height="800px" width="800px" version="1.1" id="Layer_1" xmlns="http://www.w3.org/2000/svg" xmlns:xlink="http://www.w3.org/1999/xlink" 
	 viewBox="0 0 503.467 503.467" xml:space="preserve">
<g transform="translate(5 1)">
	<path style="fill:#F2EDDA;" d="M460.067,122.733v341.333c0,18.773-15.36,34.133-34.133,34.133h-358.4
		c-18.773,0-34.133-15.36-34.133-34.133V37.4c0-18.773,15.36-34.133,34.133-34.133H340.6V88.6c0,18.773,15.36,34.133,34.133,34.133
		H460.067z"/>
	<path style="fill:#FFD0A1;" d="M460.067,122.733h-85.333c-18.773,0-34.133-15.36-34.133-34.133V3.267L460.067,122.733z"/>
	<path style="fill:#80D6FA;" d="M246.733,191c61.44,0,110.933,49.493,110.933,110.933s-49.493,110.933-110.933,110.933
		c-61.44,0-110.933-49.493-110.933-110.933S185.293,191,246.733,191L246.733,191z"/>
	<polygon style="fill:#ECF4F7;" points="280.867,301.933 221.133,336.067 221.133,267.8 	"/>
</g>
<path style="fill:#51565F;" d="M430.933,503.467h-358.4c-21.333,0-38.4-17.067-38.4-38.4V38.4C34.133,17.067,51.2,0,72.533,0H345.6
	c0.853,0,2.56,0.853,3.413,0.853l85.333,85.333c1.707,1.707,1.707,4.267,0,5.973c-1.707,1.707-4.267,1.707-5.973,0l-84.48-84.48
	H72.533c-16.213,0-29.867,13.653-29.867,29.867v426.667c0,16.213,13.653,29.867,29.867,29.867h358.4
	c16.213,0,29.867-13.653,29.867-29.867V127.147h-81.067c-21.333,0-38.4-17.067-38.4-38.4V46.08c0-2.56,1.707-4.267,4.267-4.267
	s4.267,1.707,4.267,4.267v42.667c0,16.213,13.653,29.867,29.867,29.867h85.333c2.56,0,4.267,1.707,4.267,4.267v341.333
	C469.333,486.4,452.267,503.467,430.933,503.467z M251.733,418.133c-63.147,0-115.2-52.053-115.2-115.2s52.053-115.2,115.2-115.2
	s115.2,52.053,115.2,115.2S314.88,418.133,251.733,418.133z M251.733,196.267c-58.88,0-106.667,47.787-106.667,106.667
	S192.853,409.6,251.733,409.6S358.4,361.813,358.4,302.933S310.613,196.267,251.733,196.267z M226.133,341.333
	c-0.853,0-1.707,0-2.56-0.853c-1.707-0.853-1.707-2.56-1.707-3.413V268.8c0-1.707,0.853-2.56,1.707-3.413
	c1.707-0.853,2.56-0.853,4.267,0l59.733,34.133c1.707,0.853,2.56,2.56,2.56,3.413s-0.853,2.56-2.56,3.413L227.84,340.48
	C227.84,341.333,226.987,341.333,226.133,341.333z M230.4,276.48v53.76l46.933-26.453L230.4,276.48z"/>
</svg>