<?xml version="1.0" encoding="iso-8859-1"?>

<!DOCTYPE svg PUBLIC "-//W3C//DTD SVG 1.1//EN" "http://www.w3.org/Graphics/SVG/1.1/DTD/svg11.dtd">
<!-- Uploaded to: SVG Repo, www.svgrepo.com, Generator: SVG Repo Mixer Tools -->
<svg version="1.1" id="_x36_" xmlns="http://www.w3.org/2000/svg" xmlns:xlink="http://www.w3.org/1999/xlink" 
	 viewBox="0 0 512 512"  xml:space="preserve">
<g>
	<g>
		<rect style="fill:#57646D;" width="512" height="404.352"/>
		<g>
			<g>
				<path style="fill:#FFF9F1;" d="M40.7,17.812H30.453H20.189c-4.058,0-7.378,3.32-7.378,7.379v14.808
					c0,4.058,3.32,7.379,7.378,7.379h10.264H40.7c4.058,0,7.379-3.32,7.379-7.379V25.19C48.079,21.132,44.758,17.812,40.7,17.812z"
					/>
				<path style="fill:#FFF9F1;" d="M40.7,75.236H30.453H20.189c-4.058,0-7.378,3.32-7.378,7.379v14.808
					c0,4.058,3.32,7.379,7.378,7.379h10.264H40.7c4.058,0,7.379-3.32,7.379-7.379V82.614C48.079,78.556,44.758,75.236,40.7,75.236z"
					/>
				<path style="fill:#FFF9F1;" d="M40.7,132.66H30.453H20.189c-4.058,0-7.378,3.32-7.378,7.379v14.808
					c0,4.058,3.32,7.379,7.378,7.379h10.264H40.7c4.058,0,7.379-3.32,7.379-7.379v-14.808C48.079,135.98,44.758,132.66,40.7,132.66z
					"/>
				<path style="fill:#FFF9F1;" d="M40.7,190.084H30.453H20.189c-4.058,0-7.378,3.32-7.378,7.379v14.808
					c0,4.058,3.32,7.379,7.378,7.379h10.264H40.7c4.058,0,7.379-3.321,7.379-7.379v-14.808
					C48.079,193.404,44.758,190.084,40.7,190.084z"/>
				<path style="fill:#FFF9F1;" d="M40.7,247.508H30.453H20.189c-4.058,0-7.378,3.32-7.378,7.379v14.808
					c0,4.058,3.32,7.379,7.378,7.379h10.264H40.7c4.058,0,7.379-3.32,7.379-7.379v-14.808
					C48.079,250.829,44.758,247.508,40.7,247.508z"/>
				<path style="fill:#FFF9F1;" d="M40.7,304.932H30.453H20.189c-4.058,0-7.378,3.32-7.378,7.379v14.808
					c0,4.058,3.32,7.379,7.378,7.379h10.264H40.7c4.058,0,7.379-3.32,7.379-7.379v-14.808
					C48.079,308.253,44.758,304.932,40.7,304.932z"/>
				<path style="fill:#FFF9F1;" d="M40.7,362.357H30.453H20.189c-4.058,0-7.378,3.32-7.378,7.379v14.808
					c0,4.058,3.32,7.379,7.378,7.379h10.264H40.7c4.058,0,7.379-3.32,7.379-7.379v-14.808
					C48.079,365.677,44.758,362.357,40.7,362.357z"/>
			</g>
			<g>
				<path style="fill:#FFF9F1;" d="M490.844,17.812h-10.247h-10.264c-4.058,0-7.379,3.32-7.379,7.379v14.808
					c0,4.058,3.32,7.379,7.379,7.379h10.264h10.247c4.058,0,7.378-3.32,7.378-7.379V25.19
					C498.223,21.132,494.902,17.812,490.844,17.812z"/>
				<path style="fill:#FFF9F1;" d="M490.844,75.236h-10.247h-10.264c-4.058,0-7.379,3.32-7.379,7.379v14.808
					c0,4.058,3.32,7.379,7.379,7.379h10.264h10.247c4.058,0,7.378-3.32,7.378-7.379V82.614
					C498.223,78.556,494.902,75.236,490.844,75.236z"/>
				<path style="fill:#FFF9F1;" d="M490.844,132.66h-10.247h-10.264c-4.058,0-7.379,3.32-7.379,7.379v14.808
					c0,4.058,3.32,7.379,7.379,7.379h10.264h10.247c4.058,0,7.378-3.32,7.378-7.379v-14.808
					C498.223,135.98,494.902,132.66,490.844,132.66z"/>
				<path style="fill:#FFF9F1;" d="M490.844,190.084h-10.247h-10.264c-4.058,0-7.379,3.32-7.379,7.379v14.808
					c0,4.058,3.32,7.379,7.379,7.379h10.264h10.247c4.058,0,7.378-3.321,7.378-7.379v-14.808
					C498.223,193.404,494.902,190.084,490.844,190.084z"/>
				<path style="fill:#FFF9F1;" d="M490.844,247.508h-10.247h-10.264c-4.058,0-7.379,3.32-7.379,7.379v14.808
					c0,4.058,3.32,7.379,7.379,7.379h10.264h10.247c4.058,0,7.378-3.32,7.378-7.379v-14.808
					C498.223,250.829,494.902,247.508,490.844,247.508z"/>
				<path style="fill:#FFF9F1;" d="M490.844,304.932h-10.247h-10.264c-4.058,0-7.379,3.32-7.379,7.379v14.808
					c0,4.058,3.32,7.379,7.379,7.379h10.264h10.247c4.058,0,7.378-3.32,7.378-7.379v-14.808
					C498.223,308.253,494.902,304.932,490.844,304.932z"/>
				<path style="fill:#FFF9F1;" d="M490.844,362.357h-10.247h-10.264c-4.058,0-7.379,3.32-7.379,7.379v14.808
					c0,4.058,3.32,7.379,7.379,7.379h10.264h10.247c4.058,0,7.378-3.32,7.378-7.379v-14.808
					C498.223,365.677,494.902,362.357,490.844,362.357z"/>
			</g>
		</g>
		<path style="fill:#FFF9F1;" d="M450.004,0v30.88c0,13.908-11.394,25.144-25.144,25.144H87.219
			c-13.751,0-25.144-11.236-25.144-25.144V0H450.004z"/>
		<path style="fill:#FFF9F1;" d="M424.835,86.727H87.227c-13.818,0-25.124,11.306-25.124,25.124v186.032
			c0,13.818,11.306,25.124,25.124,25.124h337.608c13.818,0,25.124-11.306,25.124-25.124V111.851
			C449.959,98.032,438.653,86.727,424.835,86.727z"/>
		<path style="fill:#FFF9F1;" d="M449.997,378.825v25.554H62.087v-25.554c0-13.863,11.357-25.137,25.137-25.137H424.86
			C438.639,353.688,449.997,364.963,449.997,378.825z"/>
	</g>
	<g>
		<circle style="fill:#717983;" cx="256.03" cy="203.903" r="81.577"/>
		<polygon style="fill:#FFFFFF;" points="228.332,158.522 306.933,203.903 228.332,249.283 		"/>
	</g>
	<polygon style="opacity:0.08;fill:#040000;" points="512,0 512,404.352 53.824,404.352 458.176,0 	"/>
</g>
</svg>