<?xml version="1.0"?><!DOCTYPE svg  PUBLIC '-//W3C//DTD SVG 1.1//EN'  'http://www.w3.org/Graphics/SVG/1.1/DTD/svg11.dtd'><svg enable-background="new 0 0 158.52 155.031" height="155.031px" id="icons" version="1.1" viewBox="0 0 158.52 155.031" width="158.52px" xml:space="preserve" xmlns="http://www.w3.org/2000/svg" xmlns:xlink="http://www.w3.org/1999/xlink"><g><path d="M135.498,16.178C117.803,3.475,63.141,7.021,48.924,9.095C29.74,11.894,22.713,9.988,12.127,26.628   c-10.422,16.381-1.04,41.586-2.179,60.354c-1.074,17.687-0.871,40.829,14.905,52.506c17.419,12.893,43.715,9.648,63.825,7.586   c10.509-1.078,20.958-2.347,31.518-2.8c8.416-0.36,17.433-1.325,22.83-8.609c7.134-9.63,6.517-24.767,6.586-36.129   c0.06-9.851,0.296-19.635,0.555-29.479C150.576,54.55,156.917,31.554,135.498,16.178z" fill="#87C9FF"/><circle cx="73.26" cy="83.516" fill="#FFFFFF" r="48"/><path d="M129.148,55.699c-6.966-14.077-19.614-25.885-34.943-30.341c-4.994-1.452-10.285-2.674-15.527-2.571   c-8.823,0.173-16.184,2.371-24.319,5.611C40.843,33.782,29.563,48.605,26.18,62.492c-1.41,5.787-1.145,11.145-0.87,17.01   c0.187,5.737,0.47,11.316,2.384,16.785c7.205,20.593,30.131,36.005,51.563,36.071c13.625,0.042,30.763-5.387,39.187-16.812   c4.757-5.833,9.22-11.953,11.887-19.05c2.325-6.188,2.914-12.341,3.146-18.893C133.319,70.313,132.472,62.312,129.148,55.699z    M119.757,47.854c2.466,3.071,3.461,6.233,4.95,9.789c2.61,5.337,4.05,11.267,4.638,17.17c-4.312-0.172-8.633,0.182-12.949,0.184   c-5.739,0.002-11.521-0.197-17.298-0.287c-0.053-4.587-0.303-9.172-0.757-13.727c-0.352-3.535-0.984-6.966-1.79-10.352   c0.629-0.188,1.258-0.386,1.882-0.615c5.467-2.009,9.819-5.705,14.618-8.774C115.485,43.235,117.787,45.401,119.757,47.854z    M91.734,103.027c-2.552-0.54-5.175-0.844-7.893-0.838c-6.096,0.012-12.019-0.235-17.804,1.123   c-1.16-7.568-1.92-15.162-1.901-22.782c2.856-0.01,5.714-0.029,8.577-0.055c7.295-0.066,14.583-0.226,21.878-0.287   c-0.033,4.215-0.264,8.427-0.865,12.602C93.103,96.206,92.415,99.616,91.734,103.027z M95.212,108.799   c5.561,1.772,10.8,4.519,15.257,8.112c-6.593,5.201-14.521,8.709-22.765,10.156c3.712-3.949,5.557-9.405,6.763-14.863   C94.716,111.076,94.965,109.94,95.212,108.799z M90.382,109.955c-0.915,4.905-2.157,10.502-5.666,14.27   c-1.185,1.273-4.065,3.224-5.258,3.166c-4.608-0.141-6.824-3.252-8.729-7.273c-1.778-3.753-2.967-7.766-3.815-11.836   c2.137-0.364,4.269-0.763,6.411-1.141c5.735-1.011,11.726-0.785,17.506,0.482C90.681,108.4,90.527,109.177,90.382,109.955z    M66.646,55.1c0.151-1.012,0.262-2.057,0.367-3.114c4.31,0.958,8.792,1.322,13.444,0.929c4.008-0.339,7.986-0.571,11.889-1.285   c1.499,7.577,2.001,15.424,2.191,23.042c-3.647-0.007-7.287,0.057-10.906,0.286c-6.428,0.406-12.914,0.844-19.384,0.827   c0.073-1.529,0.172-3.059,0.318-4.59C65.078,65.801,65.846,60.456,66.646,55.1z M77.18,28.209c0.553-0.404,1.144-0.515,1.557-0.755   c0.317,0.007,0.634,0.024,0.95,0.038c0.52,0.347,1.247,0.701,1.525,0.935c3.775,3.175,6.672,8.864,8.505,13.354   c0.614,1.767,1.144,3.566,1.613,5.384c-4.154,0.958-8.474,1.506-12.071,1.576c-4.081-0.014-7.973-0.371-11.783-1.248   c0.321-2.592,0.815-5.144,1.879-7.435c1.004-2.162,2.396-4.209,3.517-6.321C73.943,31.721,75.311,29.575,77.18,28.209z    M109.677,38.653c-3.302,2.45-6.805,4.503-10.613,6.1c-1.158,0.485-2.412,0.918-3.701,1.319c-0.787-2.764-1.672-5.513-2.614-8.277   c-0.944-2.77-2.369-6.258-4.397-9.122C95.979,30.424,103.205,33.95,109.677,38.653z M69.897,28.092   c0.229-0.04,0.458-0.061,0.687-0.097c-4.002,5.02-5.986,12.976-7.048,18.382c-1.365-0.462-2.725-0.987-4.082-1.619   c-4.075-1.899-7.862-4.229-11.493-6.838C54.449,32.963,62.075,29.446,69.897,28.092z M29.203,68.983   c0.598-5.463,2.607-10.857,5.253-15.661c2.547-4.606,5.974-8.822,9.977-12.463c5.63,4.357,11.736,7.852,18.283,9.966   c-1.469,8.215-2.676,16.517-3.118,24.853c-1.973-0.082-3.943-0.202-5.908-0.407c-8.162-0.851-16.438-0.133-24.645-0.228   C28.968,72.998,28.986,70.968,29.203,68.983z M29.779,84.856c-0.107-1.503-0.245-3.023-0.376-4.549   c3.712,0.243,7.345-0.092,11.084,0.005c6.325,0.163,12.634,0.217,18.947,0.22c-0.007,0.5-0.029,1.001-0.03,1.501   c-0.01,7.521,0.548,15.327,2.053,22.737c-0.17,0.07-0.34,0.132-0.51,0.205c-5.67,2.457-10.802,5.035-15.732,8.548   C36.891,105.961,30.28,96.505,29.779,84.856z M49.078,116.82c0.129-0.103,0.242-0.193,0.323-0.251   c1.303-1.017,2.7-1.903,3.982-2.952c2.687-1.818,5.677-4.23,8.992-4.646c1.541,6.238,3.609,12.8,7.497,17.879   c-4.324-0.773-8.511-2.063-12.47-4.287C54.54,120.955,51.707,118.934,49.078,116.82z M114.065,113.761   c-2.112-1.906-4.642-3.454-7.109-4.788c-3.513-1.901-7.084-3.553-10.786-4.753c1.22-6.018,2.252-12.13,2.639-18.16   c0.126-1.96,0.209-3.925,0.257-5.892c2.146-0.002,4.291-0.003,6.438,0.026c2.656,0.036,5.307,0.234,7.966,0.173   c2.599-0.06,5.141-0.765,7.727-0.786c2.671-0.022,5.363,0.147,8.042,0.306C127.455,92.053,123.219,104.844,114.065,113.761z"/><path d="M157.771,78.006c-0.011-1.118-0.022-2.237-0.033-3.355c-0.144-14.476-0.438-28.918-1.01-43.384   c-0.281-7.106-2.245-13.237-7.082-18.641c-5.507-6.152-12.73-9.865-20.991-10.236c-8.5-0.382-17.028,0.33-25.515-0.295   c-8.992-0.662-17.797-0.691-26.808-0.478c-9.014,0.213-18.018,0.798-27.035,0.513c-8.181-0.259-17.448-1.117-25.359,1.431   C16.582,5.85,9.88,11.02,6.094,17.765c-4.164,7.42-3.428,16.154-3.365,24.369c0.128,16.912,0.932,33.804,1.316,50.71   c0.266,11.738-0.111,23.516,0.598,35.238c0.441,7.292,3.577,13.991,8.994,18.93c6.237,5.686,13.484,6.92,21.63,6.95   c8.768,0.032,17.529-0.324,26.296-0.397c8.658-0.073,17.275,0.452,25.927,0.613c8.846,0.165,17.696,0.19,26.544,0.186   c6.695-0.003,13.543,0.201,20.204-0.605c8.079-0.977,15.874-4.683,19.682-12.217c3.459-6.843,2.742-15.077,3.112-22.521   C157.71,105.349,157.847,91.691,157.771,78.006z M152.831,96.206c-0.125,8.196-0.121,16.452-0.819,24.623   c-0.4,5.383-0.859,11.303-2.688,16.436c-2.643,7.419-9.971,10.773-17.329,11.67c-7.971,0.972-16.229,0.391-24.241,0.308   c-8.738-0.09-17.469-0.204-26.205-0.446c-6.701-0.185-13.311,0.422-20.028,0.095c-8.786-0.427-17.511-0.524-26.303-0.378   c-7.723,0.128-14.673-1.042-20.137-7.058c-4.077-4.489-5.58-9.823-5.94-15.716c-0.463-7.593-0.462-15.209-0.609-22.813   C8.342,93.073,7.945,83.227,7.55,73.377C7.037,60.559,7.427,47.771,8.032,34.961c0.201-4.255,0.074-8.573,1.734-12.577   c1.376-3.319,3.642-6.238,6.342-8.589c6.454-5.62,13.726-6.333,21.903-6.954c8.501-0.645,16.96-0.611,25.477-0.637   C71.683,6.18,79.806,5.63,87.996,6.227c8.872,0.646,17.71,1.35,26.61,1.271c7.268-0.064,16.031-1.06,22.857,1.854   c6.933,2.958,12.684,9.094,14.14,16.631c1.255,6.496,0.6,13.672,0.793,20.263c0.311,10.597,0.344,21.203,0.477,31.804   C152.891,84.026,152.923,90.172,152.831,96.206z"/></g></svg>