<?xml version="1.0"?><!DOCTYPE svg  PUBLIC '-//W3C//DTD SVG 1.1//EN'  'http://www.w3.org/Graphics/SVG/1.1/DTD/svg11.dtd'><svg style="enable-background:new 0 0 500 500;" version="1.1" viewBox="0 0 500 500" xml:space="preserve" xmlns="http://www.w3.org/2000/svg" xmlns:xlink="http://www.w3.org/1999/xlink"><g id="checked-www-domain-window"><g><circle cx="250" cy="250" r="250" style="fill:#F4F1F0;"/><g id="_x31_2"><g><path d="M167.383,230.284c-16.873,0-30.556,13.677-30.556,30.556c0,16.873,13.683,30.55,30.556,30.55      c16.873,0,30.556-13.677,30.556-30.55C197.938,243.961,184.256,230.284,167.383,230.284z M165.945,274.04l-2.17,2.354      l-2.078-2.426l-11.795-13.715l3.841-4.15l9.559,7.037l20.888-17.161l3.895,4.129L165.945,274.04z" style="fill:#FF931E;"/></g><path d="M362.776,140.077H137.229c-14.415,0.027-26.09,11.702-26.117,26.112v167.616     c0.027,14.409,11.702,26.09,26.117,26.117h225.548c14.41-0.027,26.097-11.708,26.112-26.117V166.19     C388.873,151.779,377.186,140.104,362.776,140.077z M360.004,156.815c3.283,0,5.941,2.663,5.941,5.935     c0,3.277-2.658,5.935-5.941,5.935c-3.276,0-5.93-2.658-5.93-5.935C354.074,159.478,356.727,156.815,360.004,156.815z      M313.362,157.172h29.188c3.087,0,5.583,2.496,5.583,5.577c0,3.082-2.496,5.577-5.583,5.577h-29.188     c-3.087,0-5.582-2.496-5.582-5.577C307.78,159.668,310.275,157.172,313.362,157.172z M374.652,333.806     c-0.011,6.488-5.392,11.859-11.876,11.87H137.229c-6.477-0.011-11.854-5.382-11.87-11.87V182.938h249.294V333.806z" style="fill:#675F58;"/><g><path d="M239.383,276.221l-5.469-20.654h-0.12l-5.235,20.654h-8.751l-9.76-30.767h8.93l5.653,20.882      h0.114l5.122-20.882h8.208l5.246,20.823h0.114l5.653-20.823h8.685l-9.7,30.767H239.383z" style="fill:#675F58;"/><path d="M287.825,276.221l-5.469-20.654h-0.119l-5.241,20.654h-8.745l-9.761-30.767h8.931l5.647,20.882      h0.125l5.116-20.882h8.208l5.236,20.823h0.119l5.653-20.823h8.685l-9.689,30.767H287.825z" style="fill:#675F58;"/><path d="M336.269,276.221l-5.475-20.654h-0.119l-5.235,20.654h-8.757l-9.755-30.767h8.925l5.653,20.882      h0.125l5.116-20.882h8.214l5.235,20.823h0.119l5.653-20.823h8.691l-9.7,30.767H336.269z" style="fill:#675F58;"/><path d="M364.648,267.058v9.163h-9.337v-9.163H364.648z" style="fill:#675F58;"/></g></g></g></g><g id="Layer_1"/></svg>