<?xml version="1.0" encoding="utf-8"?><!-- Uploaded to: SVG Repo, www.svgrepo.com, Generator: SVG Repo Mixer Tools -->
<svg fill="#000000" width="800px" height="800px" viewBox="0 0 24 24" id="unlink-alt-5" data-name="Line Color" xmlns="http://www.w3.org/2000/svg" class="icon line-color"><path id="secondary" d="M8,12h8M12,4V3M9,5,8,4m7,1,1-1M12,20v1M9,19,8,20m7-1,1,1" style="fill: none; stroke: rgb(44, 169, 188); stroke-linecap: round; stroke-linejoin: round; stroke-width: 2;"></path><path id="primary" d="M10,9A1,1,0,0,0,9,8H7a4,4,0,0,0-4,4H3a4,4,0,0,0,4,4H9a1,1,0,0,0,1-1" style="fill: none; stroke: rgb(0, 0, 0); stroke-linecap: round; stroke-linejoin: round; stroke-width: 2;"></path><path id="primary-2" data-name="primary" d="M14,15a1,1,0,0,0,1,1h2a4,4,0,0,0,4-4h0a4,4,0,0,0-4-4H15a1,1,0,0,0-1,1" style="fill: none; stroke: rgb(0, 0, 0); stroke-linecap: round; stroke-linejoin: round; stroke-width: 2;"></path></svg>