<?xml version="1.0" ?><!-- Uploaded to: SVG Repo, www.svgrepo.com, Generator: SVG Repo Mixer Tools -->
<svg width="800px" height="800px" viewBox="0 -4 60 60" id="image" xmlns="http://www.w3.org/2000/svg"><defs><style>
      .cls-1 {
        fill: #6aa04e;
      }

      .cls-1, .cls-2 {
        fill-rule: evenodd;
      }

      .cls-2 {
        fill: #65727f;
      }
    </style></defs><path class="cls-1" d="M376.067,363.317a2.186,2.186,0,0,0,1.571.365,2.233,2.233,0,0,0,1.406-.806L389.235,352.8a2.218,2.218,0,0,1,3.485.036l5.28,9.327v10.685a1.162,1.162,0,0,1-.33.815,1.106,1.106,0,0,1-.8.338h-33.75a1.11,1.11,0,0,1-.8-0.338,1.166,1.166,0,0,1-.329-0.815v-3.766l5.473-7.48a2.233,2.233,0,0,1,1.42-.89,2.2,2.2,0,0,1,1.628.354Z" data-name="image copy" id="image_copy" transform="translate(-350 -334)"/><path class="cls-2" d="M404,340v40H356V340h48m2-6H354a4,4,0,0,0-4,4v44a4,4,0,0,0,4,4h52a4,4,0,0,0,4-4V338a4,4,0,0,0-4-4h0Z" data-name="image copy 2" id="image_copy_2" transform="translate(-350 -334)"/></svg>