<?xml version="1.0" encoding="utf-8"?><!-- Uploaded to: SVG Repo, www.svgrepo.com, Generator: SVG Repo Mixer Tools -->
<svg width="800px" height="800px" viewBox="0 0 24 24" id="image" data-name="multi color" xmlns="http://www.w3.org/2000/svg" class="icon multi-color"><polygon id="tertiary-fill" points="3.29 19.71 9 14 11 16 14 13 20.71 19.71 3.29 19.71" style="fill: #b7b7b7; stroke-width: 2;"></polygon><path id="primary-stroke" d="M20,20H4a1,1,0,0,1-1-1V5A1,1,0,0,1,4,4H20a1,1,0,0,1,1,1V19A1,1,0,0,1,20,20Zm.71-.29L14,13l-3,3L9,14,3.29,19.71Z" style="fill: none; stroke: rgb(0, 0, 0); stroke-linecap: round; stroke-linejoin: round; stroke-width: 2;"></path><circle id="secondary-fill" cx="11" cy="9" r="1" style="fill: rgb(44, 169, 188); stroke: rgb(246, 146, 30); stroke-linecap: round; stroke-linejoin: round; stroke-width: 2;"></circle></svg>