<svg id="Layer_1" data-name="Layer 1" xmlns="http://www.w3.org/2000/svg" viewBox="0 0 1500 1500"><defs><style>.cls-1{fill:#fff;}</style></defs><title>Video park</title><path class="cls-1" d="M414,589l2,.12Z"/><path class="cls-1" d="M579.72,280.52l-3.38,1.33C578.89,281.64,580.63,281.25,579.72,280.52Z"/><path class="cls-1" d="M1300.79,1066.74c-16.36,5.59-53.18-.24-90.52,1a16.47,16.47,0,0,1,2.26-1.46c32-17,25.73-30.34,9.38-22-11.79,6-16.94,17.57-18.37,21.62.17-.67.39-1.59.66-2.8,10.17-47.29-34.39-43-10-3.19,1.94,3.17,2.73,6.79,4,8.36-17.19.24-20.16-6.58-40.17,3.48-2-3.44-4.58-8.62-7.33-13.86l13.64-7.21c1.26-2.65-10.26-26.18-28.05-59.48,0,0-15.51-28.34-37-66.5h65.4V899.39h-79.7c-32.34-57-72.09-125.08-94.49-156.28-11.07-15.43-34.81-21.72-75.8-21.65-32.65.07-100.72.41-169,.91-17-40-36.14-87.9-37.19-90.53l2.87,1.15,0-.13c1.65,1,5.69,3.19,23,8.84C915.85,701,843.08,561,754.88,506.45c-33.75-20.87-103.53-81.39-151.24-79.85l0-6.25a5.26,5.26,0,0,0-5.28-5.22l-27.12.14c-.05-3.72-.61-7.26-.73-10.8-.17-5-.41-10.88,4.77-15.54,11.89-10.7,19-21.86,17-41.9-1.8-17.84-12.08-43.13-16.66-64.88l.77-.3-.82.06c-.08-.36-.17-.73-.24-1.08-10.56-52.56-105-45.68-92.91,17,.25,1.27,1.18,7.65,2.57,16.16a7.57,7.57,0,0,0-2.93,5l3.53-1.39c1.77,10.6,4.14,23.57,6.73,34.12,2.06,8.41,7.59,17.46,9.8,20.33,8.32,10.8,8.85,31.5,9.53,43.54l-29.9.15a5.26,5.26,0,0,0-5.22,5.28v.55c-28.71-5.72-58.37,17-88.09,42.27-19.69,16.74-46.45,35.61-57.75,45.89-46.14,42-101.56,104.09-55,140.18,21.73,16.85,52.61,24.45,84.73,27.86,49.74.56,119.88,1.48,119.88,1.48l13.59,58.82S482.24,868.14,609.37,899.39H261.86v25.32H826c11.11,70.78,12.42,148.78,12.42,221,0,.2,5.84-.23,14.79-1-.17,4.5-.31,9.54-.3,13.89-6,.33-11.24.67-11.21.94,1,9.79-2.45,89.49,3.22,90.53,9,1.65,50.9,4.61,54.52-2.1.73-1.35,3.32-19.72,8.5-23.6,1.62-1.22,3.5-1,5.66,1.59,1.84,2.22,3.88,13.09,6.14,18.67,6.55,16.23,115.9,5.62,134.94,5.54,4.91,0,21.15-19.82-9.11-30.09-21-7.14-35.71-12.14-46.65-16.51L978,1196.47a44.72,44.72,0,0,1-30.31-42l-2-229.81h3.95l124.79,162.11c4.29,5,6.77,7.87,6.77,7.87l10.88-5.75c4.24,5.56,8.9,12.24,12.34,17-2.47,1.61-4.16,2.78-4,2.91,6.41,7.59,49,74.65,54.19,72.95,8.28-2.7,44-19.15,43.17-26.3-.28-2.27-18.1-37.39,11.59-16.25,14.58,10.38,100.53-43.26,116-51.92C1329.32,1085.13,1329.47,1056.94,1300.79,1066.74ZM463.48,590l-.23,0-.29,0-.35,0-.24,0c-.9-.07-2-.14-3.31-.21l-1.17,0c-3.9-.16-9.07-.26-14.7-.32h-.51l-3.79,0-1.78,0-5.51,0-4.45,0h-2.68l-4.15,0h-6.11l-5.23,0-1.65,0c-1.34,0-2.43,0-3.2-.06-.92,0-1.41-.07-1.35-.12l.26-.22c4.15.08,7.87.18,10.94.34l-10.59-.62c9.55-7.73,53-35.23,53.09-41.3l8.45,43.23A3.67,3.67,0,0,0,463.48,590ZM815,861.74c.93,8.87,3,20,5.85,34.14.24,1.16.46,2.34.69,3.51H688C729.62,892.33,773.83,877.2,815,861.74Zm391.54,206.14.58,0h0Z"/><path class="cls-1" d="M1086.57,678l2-30.72c6.48,2.83,13.76,5.64,22,8.45,21.68,7.39,59,16.16,63.2,17.62,21.09,7.35-8.8-31.4-16.11-48.43-12.29-28.65-57.86-84.31-61.94-125.1-3.73-37.24-48.74-43.8-55.56-10.08-7,5.93-15.7,15.76-9.92,15.76,2,0,5.58.12,9.43,0,0,.14,0,.27,0,.4,7.54,66-17.67,101.15,28.46,130.71,1,15.72,3.39,41.1,3.39,41.1l-3.07-40.9a148.5,148.5,0,0,0,20,10.42c-.83,10.05-1.14,18.31-1.76,29.16Z"/><path d="M1165,1231.83h4.1V1178c-1.42.67-2.79,1.29-4.1,1.88Z"/><path d="M699.15,899.39q-5.6,1.11-11.13,2.05-7,1.18-13.93,2H820.21c-.13-.69-.27-1.37-.4-2s-.27-1.37-.41-2.05Z"/><path d="M923.63,1140.8l-2.07.16-2,.16c-13.34,1-29.81,2.49-44.4,3.76l-20,1.74-2,.17-2,.17c-.11,3.2-.2,6.55-.21,9.71l2-.12,2-.11,5.24-.27c4.27-.22,8.3-.42,9.37-.54,10.24-1.07,26.12-1.8,37.72-2.32,4.41-.2,8.22-.38,10.65-.52l2.16-.13,2.05-.09,2-.08c0-.37,0-.73,0-1.12-.06-1.47-.13-3.11-.2-4.92C923.83,1144.39,923.74,1142.52,923.63,1140.8Z"/><path d="M1113.69,1097.68c3.35-2.11,6.51-4.1,7.31-4.67,15.2-10.83,26-17.76,34.28-22.1l1.82-.94c.63-.32,1.24-.61,1.84-.9-1.16-2.13-2.5-4.71-3.88-7.37l-1.53-2.94-1.81,1-1.82,1-54.7,28.94-1.84,1-1.83,1c3,3.93,6,8.28,8.68,12l1.33,1.87c.49-.33,1-.71,1.71-1.13l1.73-1.12C1107.1,1101.82,1109.93,1100,1113.69,1097.68Z"/><path d="M853.25,1142.65l2-.17,19.47-1.68c14.59-1.28,31-2.71,44.43-3.76l2-.15,2.08-.16c9.12-.69,16.4-1.14,20-1.15,3.59-10.8,2.25-111.43,1.35-178.54-.15-11.52-.3-22.41-.42-32.33,0-.69,0-1.38,0-2.05s0-1.37,0-2v-1q0-3.32-.07-6.46c-.08-3.19-.22-6.42-.43-9.66l-.15-2c0-.68-.1-1.37-.16-2.05-2.23-26.71-9.33-53.3-24-63-6.87-4.53-15-4.81-24.22-.84l-.24.1-.26,0c-7.6,1.16-28.72,8.72-37.75,12.2l-8.56,3.29c-10.09,3.9-20.52,7.92-31.17,11.93,1,8.45,2.94,19,5.66,32.37.27,1.3.52,2.61.77,3.92.14.68.27,1.36.41,2.05l.39,2c1.08,5.65,2.07,11.36,3,17.12l.33,2,.33,2.05c11.22,71.6,12.36,149.73,12.38,218.93,2.15-.12,6-.42,10.79-.82Z"/><path d="M1148,1057.05l1.82-1,1.8-.95,10.77-5.7a38.82,38.82,0,0,0-2.33-6.52c-.5-1.17-1.09-2.53-1.8-4.1-5.79-12.76-19.3-39.52-50.43-95.57-3.36-6.06-6.82-12.26-10.34-18.54l-1.15-2.05-1.15-2q-4.76-8.48-9.65-17.12l-1.16-2-1.16-2.05c-24.19-42.69-49.94-87.07-70.44-121.25q-1.59-2.67-3.14-5.31c-5.38-9.12-10.51-17.81-17.59-25.29-1.16-1.23-2.39-2.43-3.67-3.59-13.51-12.25-34-20.44-73-20.44h-.54c-32.83.07-99.07.4-165.91.88l-2.23,0-2.23,0c-32.13.23-64.23.51-92.65.81l.12-2,.06-1-.89,0-.33-1c-2-5.92-4.29-12.33-6.65-19.08-9-25.72-19.23-54.87-25-75.89-1.26-4.57-6.08-18.25-11.25-32.65L707,633.41c2.92,7.31,20,49.91,35.67,86.93l2.23,0h2.23c-14.11-33.17-29.54-71.5-34.81-84.65,2.72,1.35,8.32,3.68,21.52,8,79.15,25.87,104.63,12.19,112.07-3.84,7.13-15.35.31-39.9-18.7-67.37C809.31,546.53,782.66,521.2,756,504.7c-7.76-4.79-17.33-11.62-28.41-19.53-23.15-16.53-51.95-37.09-79.33-49.49-16.36-7.42-30.48-11.15-42.54-11.22l0-4.12a7.31,7.31,0,0,0-7.3-7.26h0l-25.13.13c-.08-1.4-.2-2.76-.32-4.09-.15-1.63-.29-3.17-.34-4.72v-.1c-.17-4.84-.35-9.85,4.09-13.85,12.15-10.92,19.79-22.52,17.65-43.63-1-10.42-4.85-23-8.87-36.33-2.69-8.93-5.46-18.13-7.4-26.75-.58.07-1.26.14-2,.2-.62,0-1.31.08-2.08.11-1.89.07-4.25.1-7.2.09h-4.56c-10.21,0-31.47-.13-37.09,1-.65.13-1.39.23-2.25.34-7.45,1-14,2.83-13.06,14.22.55,6.34-.24,10.21-2.56,12.56-2.92,3-7.4,2.61-12.59,2.22-.85-.06-1.72-.13-2.62-.18a10,10,0,0,0-4.75.71,5.53,5.53,0,0,0-1.85,1.4,6.12,6.12,0,0,0-1.32,2.93l-.27-.05c1.75,10.37,4,22.76,6.52,32.91,2.15,8.74,7.78,18,10.18,21.09,7.36,9.56,8.32,27.76,9,39.8,0,.16,0,.3,0,.45l-27.74.14a7.32,7.32,0,0,0-7,5.46c-28.42-4.28-57.73,17.72-87.61,43.13-9.86,8.38-21.68,17.44-32.11,25.43-10.73,8.23-20,15.33-25.69,20.51C278.87,554.06,254.91,590,256,618.12c.52,13.13,6.69,24.37,18.35,33.41C291,664.46,313,672,336.8,676.41,315,678.63,293.54,685.8,280.09,702c-17.14,20.58-19,82.66-22,185.51-.52,17.93-1.07,36.46-1.74,56.4v288h4.1V1042.92H442.78v188.91h4.1v-288c0-4.28,0-10.86-.15-19.16H823.89c-.1-.69-.22-1.37-.33-2.05s-.21-1.37-.32-2H446.67c-.07-5.19-.17-10.93-.3-17.12H615.16c-2.25-.36-4.48-.76-6.68-1.22-1.28-.27-2.54-.54-3.79-.83q-4.07-.95-8-2.05H446.28c-.57-26-1.64-58.95-3.55-91-5.66-95.15-14.25-112.75-20.57-116.1-2.28-4.24-11.76-7.74-19.36-9.94,12.38.28,24.37.26,35.48.24,16.76,0,31.34-.06,42.77.88L490,729.05l1-.36a8.26,8.26,0,0,1,.94-.25c.46-.11,1.11-.25,2-.42l-8.65-44.2h0L459.25,550.56c-.09-.8-.53-3-2.42-12.37L454.64,527v.37c-1.62-8.07-3.21-16.23-3.22-17.48h-4.1c0,2,2.2,13,5.3,28.19.66,3.21,1.32,6.48,1.81,8.93-1.07,4-24.08,19.88-36.47,28.46-6.71,4.65-12.6,8.72-15.63,11.14l-9-.14c-19.79-.26-44.42-.59-53.74-3.82l-1.35,3.88c9.95,3.44,34.95,3.78,55,4.05,2.93,0,5.73.07,8.37.12.76.37,2.35.39,6.4.43,3.26,0,7.78.05,12.87.07,14.08,0,37,.12,42.25.79l17.06,87.25c-11.41-.86-25.66-.83-42-.8-18.9,0-40.36.06-61.9-1.4-4.59-.56-9.42-1-14.39-1.22-32.28-3.31-63.48-10.77-85.1-27.54-10.66-8.26-16.3-18.47-16.77-30.34-1-26.45,23.16-62.35,71.91-106.7,5.56-5.06,14.77-12.11,25.43-20.28,10.47-8,22.33-17.11,32.26-25.56,16.94-14.4,36.58-30.4,55.38-38,10.48-4.2,20.21-5.58,29.35-4.13l.31,58.06a7.31,7.31,0,0,0,7.3,7.26h0l49.46-.26-.34-.14.74-1.91.73-1.92c1.17.45,2.31,1,3.44,1.51l.78.38,1.41.74c.77.41,1.54.83,2.3,1.27l0,0,2.89,1.67c6.89,4,14,8.2,23.64,8.2v4.1c-10.74,0-18.69-4.65-25.71-8.75-1.59-.93-3.14-1.83-4.68-2.67-.61-.33-1.22-.65-1.84-1s-1.23-.6-1.85-.88a8.28,8.28,0,0,0-.61,1.27c-1.65,4.44.33,10.26,6,17.74.9.35,2,.79,3.33,1.34l.32.13,2.24.91c9.26,3.75,24.25,9.36,38.81,9.36h2.14v4.1h-2.14c-13.3,0-26.72-4.36-36.27-8-1.48-.57-2.86-1.12-4.14-1.64l-2.52-1-.46-.19c.49,1.62,2.07,3.61,5.07,6.61.09.23.23.65.34,1,1.7,5.14,6.87,20.77,34.19,28.09,7.5,2,40.88,12.12,46.74,15.15l-20.86,22.65c-2.08-5.77-4.14-11.44-6-16.47.49-1-.14-2.22-1.09-3-2.48-6.84-4.48-12.35-4.66-13l-2,.5-2,.19c0,.43,0,.51,4.84,13.71-.69,1.63.15,3.18,1,3.14h.12c2,5.39,4.28,11.8,6.64,18.35l-.9,1,1.46.59c5.52,15.33,11.08,31,12.39,35.78,5.81,21.16,16.05,50.38,25.08,76.17,2.2,6.25,4.29,12.22,6.21,17.76.23.69.47,1.37.7,2s.47,1.36.7,2h0c-43.91.47-78.43,1-89.57,1.53-42.45,2-58.22,4.23-63.53,5.22l-1,.2c0,1.9,0,3.85.09,5.84.12,4.66.37,9.56.77,14.63,4.32,54,26.89,127.33,114.72,145.55,2,.43,4.11.8,6.2,1.14a170.31,170.31,0,0,0,24.88,2.05h4.91a254.39,254.39,0,0,0,28.56-2.05c44.93-5.66,93.85-22.13,138.91-39l2-.74,2-.74c10.28-3.88,20.36-7.77,30.12-11.53l8.55-3.3c7.22-2.78,29.59-10.95,38.35-12.38a34.69,34.69,0,0,1,13.59-3A25.38,25.38,0,0,1,921.61,833c11.36,7.5,18.49,23.92,22.5,42.84.74,3.53,1.38,7.14,1.92,10.8.62,4.23,1.1,8.51,1.46,12.79,0,.68.11,1.37.16,2.05l.15,2c.21,3.27.35,6.52.43,9.73q.07,3.13.07,6.21v.13h0a5.35,5.35,0,0,0,.13,1,13.12,13.12,0,0,0,.63,2c.24.62.54,1.31.89,2.05,3.9,8.18,14.43,23.26,28.59,41.87,1.33,1.75,2.7,3.54,4.1,5.35,15.48,20.11,34.59,43.69,53.89,66.89,1.14,1.37,2.27,2.74,3.41,4.1,14.42,17.28,28.82,34.22,41.77,49.2l7.29-3.86,1.84-1,1.84-1ZM691.2,620.74V621a3.52,3.52,0,0,0-.59,1.37l-62.47-25.11c2-1.43,5.07-4.69,11.34-11.56,3.6-4,7.67-8.42,9.1-9.4,10.18-7,20.94-21.36,29.59-32.89,5.15-6.87,10-13.38,13.1-15.94,17.19,8.52,40.22,19.26,45.77,20.2,0,1.08.63,1.9,1.26,1.87,8.9-.38.74-8.37-.6-4.17l-.1-1.72C733,543.4,682.7,519.44,674.35,514l-1.45-.94-5,5.39-.55-.81c-.52-.79-1.27-1-2.31-1.21C652.9,513.62,641,502,629.62,481.93c-.6-1.06-2.11-5.05-3.71-9.26-3.5-9.22-7.86-20.7-11-24.74-2-2.66-4.1-4-6.29-4.22a5.86,5.86,0,0,0-2.86.51l-.09-15.55c26.56.14,60.09,19.18,89.87,39.16a2.16,2.16,0,0,0-.33.68v.28c-1.32,1.86-.37,3.89.63,3.84,2.68-.11,3.8-.92,4-1.87,8.92,6.07,17.44,12.16,25.27,17.74,11.14,8,20.76,14.82,28.64,19.69,26.24,16.22,52.43,41.11,70.06,66.58C842,601,848.72,624.09,842.22,638.08c-9.53,20.53-47.56,21.12-107.08,1.67-18.47-6-21.57-8-22.89-8.85a7.13,7.13,0,0,0-3.34-1.21l-.23,0-13.74-5.53C698.2,622.15,692.28,617.14,691.2,620.74ZM442.78,943.87v94.95H260.46V943.94c.22-6.55.43-12.94.63-19.23H442.63C442.73,933,442.78,939.59,442.78,943.87Zm-.21-23.26H262V903.49H442.27C442.4,909.68,442.5,915.42,442.57,920.61Zm-48-236.23c17.19,4,23.71,8.46,24.05,9.87l.25,1.1,1.08.37c3.69,1.28,12.9,14.84,18.72,112.88,1.91,32,3,64.86,3.55,90.79H261.86q.17-6,.34-11.8c2.9-98.46,4.81-163.51,21-183,17.63-21.18,50.22-26,78.34-24.67q7.16.74,14.35,1.22A177.83,177.83,0,0,1,394.53,684.38Zm26.41-97.27-4.84,0c-2-.14-4.44-.24-7.12-.32,3-2.19,7-4.93,11.32-7.92,18.95-13.12,30.14-21.23,35.12-26.47l6.93,35.45C457.54,587.39,446.67,587.19,420.94,587.11Zm61.13-102.56a3.21,3.21,0,0,1-3.22-3.18l-.3-57.18,0-2.17v-1a3.17,3.17,0,0,1,.19-1.07,3.21,3.21,0,0,1,3-2.15l28-.14h2.05l2.06,0,55.35-.29h4.09l25.12-.13h0a3.21,3.21,0,0,1,3.2,3.18l0,4.23v4.22l.09,16.6-.45.13.46,1.89.12,23a12.74,12.74,0,0,1-1.68,3.06c-1.89,2.5-4.6,3.77-8.29,3.9-8.74.31-25.82-4.73-39.54-8.78-8.51-2.5-15.87-4.67-20.73-5.52-6.41-1.11-9.37,2-10,5-1,5.27,3.77,12,13.57,16.15Zm191.55,33.83c2.65,1.5,7.64,4.1,13.71,7.14-3.29,3.22-7.46,8.78-12.45,15.44-8.47,11.29-19,25.34-28.63,32-1.7,1.17-4.84,4.56-9.81,10-3.86,4.24-9.69,10.64-11.15,11.3a1.32,1.32,0,0,1,.59-.07l-.17,2.12-17.38-7ZM522.23,281.43c.78-.11,1.46-.2,2-.3,6-1.23,26.78-1.15,37.93-1.1h4.55c2.63,0,4.68,0,6.3-.07.8,0,1.49-.05,2.09-.08.87-.05,1.54-.11,2.06-.17-6.12-28.25-35.69-40-61-35-20.49,4-42.16,20.48-35.77,53.5.11.54.37,2.23.73,4.58.41,2.63,1,6.23,1.65,10.39a9.16,9.16,0,0,1,1.84-1.41,11.07,11.07,0,0,1,1.94-.89,15,15,0,0,1,5.67-.68l2.68.19c4.35.33,7.78.59,9.36-1,1.35-1.36,1.82-4.5,1.39-9.32C504.21,283.82,516.83,282.14,522.23,281.43Z"/><path d="M585,433.54a4.29,4.29,0,0,0,3.65,1.17,4.51,4.51,0,0,0,4.08-4.36c0-.05,0-.09,0-.13a3.42,3.42,0,0,0-.7-1.83,4,4,0,0,0-2.36-1.46,4.85,4.85,0,0,0-5,2.13,3.85,3.85,0,0,0-.61,2.31c0,.12.05.22.07.34A3.46,3.46,0,0,0,585,433.54Z"/><path d="M1301.45,1068.68c-10.15,3.47-27.58,2.71-47.78,1.84-13.24-.58-28-1.2-42.7-.74l.1-.08a17.46,17.46,0,0,1,2.42-1.62l.84-.45c1.3-.71,2.55-1.41,3.73-2.1,17.21-10.07,21-18.44,18.77-22.76-2.11-4-8.33-4.16-15.86-.3a38.49,38.49,0,0,0-13.35,11.57c1.14-14.92-3.86-23.31-9.22-26.11a8.48,8.48,0,0,0-10.49,1.57c-4.3,4.61-5.35,15.3,4.59,31.5a28.46,28.46,0,0,1,2.11,4.5c.1.23.19.45.28.68.3.74.61,1.45.94,2.09a6.33,6.33,0,0,0,1.62,2.07,72.52,72.52,0,0,1-12.77-1.21c-5-.81-9.19-1.48-15.63.37-1.27.37-2.63.83-4.1,1.41-1.23.49-2.54,1.06-3.94,1.72q-.9.42-1.86.9l-1.82.93c-8,4.19-18.67,11-33.94,21.89-.91.64-3.83,2.48-7.52,4.8-2.45,1.54-5.72,3.6-8.49,5.37-.61.39-1.19.76-1.73,1.12l-1.72,1.13-.66.45c2.6,3.48,7.31,10.44,13,18.87,11.66,17.22,33.19,49,38.11,51.65,2.21-.76,6-2.34,10.55-4.4q2-.9,4.1-1.92c3.12-1.49,6.39-3.14,9.59-4.88,14.08-7.62,17.09-11.69,17.09-12.7-.11-.37-.54-1.45-.93-2.41-3.53-8.77-6.93-18.41-2.55-21.86,3.22-2.54,8.86-.68,18.3,6,2.68,1.91,12.14,2.64,45.45-13.84,21.49-10.63,44.73-24.34,58.62-32.53,4.21-2.48,7.55-4.45,9.64-5.63,1-1.12,1.87-8-1.39-13.24C1319.18,1066.43,1311.77,1065.16,1301.45,1068.68Zm-110.54-36.38a4.4,4.4,0,0,1,5.59-.73c4.13,2.16,10,11.14,5.69,31.1-.25,1.15-.45,2-.61,2.64-.1.28-.18.55-.25.8a7.24,7.24,0,0,0-.25,1.23l-.63-.8a4.77,4.77,0,0,1-.62.42,4.34,4.34,0,0,1-.45-.76c-.32-.65-.67-1.52-1-2.23a33,33,0,0,0-2.43-5.12C1187.81,1045.52,1187.54,1035.91,1190.91,1032.3Zm11.55,37.86c.23-.16.42-.31.55-.42l-.25-.31h.38c1,0,1.51-.37,1.94-1.47a11.21,11.21,0,0,0,.48-1.55c.06-.16.13-.34.19-.52,1.6-4.14,6.45-14.32,17.09-19.76,5.72-2.93,9.69-2.73,10.35-1.45,1.06,2-2.9,9.86-21.62,19.79a18.19,18.19,0,0,0-2,1.25l-1,.74a8.11,8.11,0,0,1-.87.63,1.32,1.32,0,0,1,1.12.11l-1.77.67-1.9.72a5.28,5.28,0,0,0,.75,1.4C1204.75,1070,1203.6,1070.09,1202.46,1070.16Z"/><path d="M1044.87,1222c-32.86-11.15-50.33-17.18-62.23-23.56-1.45-.77-2.81-1.55-4.1-2.34-6.9-4.21-12-8.85-17.85-15.36l.32-.15,1.64-.75,1.94-.91a98,98,0,0,0,13.95-8v20.25c1.29.86,2.65,1.7,4.1,2.53v-26c5.39-4.67,7.7-9.07,6.18-12.52-.81-1.85-2.8-3.27-6.18-3.35v-109h52l-3.41-4.1H982.64V978.64q-2.13-2.73-4.1-5.3v179a32,32,0,0,0-5.64,1.88,46.49,46.49,0,0,0-15.38,11.09c3.67-15,.55-24-4.29-27.58a8.64,8.64,0,0,0-5.8-1.8,8.13,8.13,0,0,0-2.26.47,9.47,9.47,0,0,0-2.31,1.21l-.29.21a11,11,0,0,0-1.92,1.89c-2.3,2.86-3.92,7.43-3.81,13.67,0,.69,0,1.39.1,2.12s.13,1.47.23,2.24c-3.28-1.17-7.16-1.39-12.86-1.19l-2,.08-2,.11-2.06.12c-2.46.15-6.28.32-10.71.52-11.55.53-27.36,1.25-37.48,2.31-1.18.13-4.89.32-9.59.56l-5.45.28-2,.11-2,.12c-2.85.16-5.45.33-7,.48.18,4.29.08,12.78,0,23.12-.24,20.64-.69,58.71,2,63.77a223.7,223.7,0,0,0,28.41,2c20.22.15,23.07-2.63,23.38-3.06.14-.42.43-1.79.69-3,1.87-8.66,4.22-18.17,8.42-21.31a5.37,5.37,0,0,1,3.2-1.13c1.49,0,3.33.71,5.27,3.05,1.26,1.52,2.23,4.92,3.72,10.32.89,3.24,1.81,6.58,2.74,8.9,1.09,2.68,8.11,7.25,43,7.69,23.1.3,49.76-1.28,69.24-2.43,9.48-.56,17-1,20.82-1,1.3-.07,5.91-4.14,6.63-9.53C1062.18,1231.71,1056.52,1226,1044.87,1222Zm-59.8-65.13c.33.76-.21,2.56-2.43,5.09v-6C984.06,1156.06,984.87,1156.45,985.07,1156.9ZM974.52,1158a29,29,0,0,1,4-1.42v9.23a84.61,84.61,0,0,1-16.81,10c-.63.3-1.27.59-1.94.89l-.46.21c-.53.24-1,.49-1.44.73-.81-.93-1.65-1.9-2.5-2.91.37-.56.76-1.14,1.2-1.75s.82-1.1,1.27-1.67A43.32,43.32,0,0,1,974.52,1158Zm-33.26-.6c-.12-.85-.2-1.67-.26-2.47-.49-6.94,1.27-11.71,4.06-13.84a4.47,4.47,0,0,1,5.71-.07c3.05,2.29,6.37,9.89,2.39,24.75-.21.77-.43,1.55-.67,2.35s-.47,1.51-.74,2.3c-4.12-4.81-7.08-8.06-10-10.19C941.56,1159.27,941.39,1158.32,941.26,1157.41Z"/><path d="M1090.25,650.2c5.89,2.5,12.42,5,19.65,7.44,14.93,5.09,37.55,10.91,51.07,14.39,6.08,1.56,10.88,2.8,12.12,3.23a15.74,15.74,0,0,0,5,1,5,5,0,0,0,4.09-1.69c3.66-4.47-2.34-15.09-12.42-32.06-4.16-7-8.1-13.63-10.17-18.46-4.22-9.83-12-22.4-21.12-37-16.94-27.18-38-61-40.67-87.54-1.44-14.37-9.23-26-20.83-31.2-9.56-4.26-19.9-3.41-27.67,2.29-5.58,4.09-9.28,10.28-11,18-5.84,5-12.46,12.2-12,15.92.19,1.41,1.32,2.91,3.9,2.91l2,0,3.2,0c.81,0,1.61,0,2.41,0,2.24,20.76,1.25,38.35.37,53.91-1.87,32.82-3.17,55.91,28,76.28.84,13,2.54,31.7,3.13,38-25.24.88-51.47,7.52-67,26.23-6,7.23-10.15,19.6-13.1,37.06q1.9,1.61,3.65,3.31c2.84-18,6.81-30.79,12.61-37.75,25.42-30.54,81.92-27.06,111.29-20.2,17.19,4,23.71,8.46,24,9.87l.25,1.1,1.07.37c3.69,1.28,12.9,14.84,18.73,112.88,1.9,32,3,64.86,3.55,90.79h-76.44l1.16,2.05,1.16,2h72.44v17.12h-62.8l1.15,2,1.15,2.05h62.62c.11,8.3.15,14.88.15,19.16v94.95h-2.28c.68,1.56,1.24,2.92,1.71,4.1h.57v1.48c2.08,5.55,1.62,6.52,1.31,7.17l-.29.61-1,.54v13.78c1.47-.53,2.82-1,4.1-1.29V943.87c0-18.28-.74-78.28-4.14-135.52-5.66-95.15-14.25-112.75-20.57-116.1-3-5.67-19-10-26.08-11.71a188.48,188.48,0,0,0-29.53-4.43c.17-3,.32-5.75.46-8.43C1089.51,661.66,1089.8,656.18,1090.25,650.2Zm-58-146.76-1.71,0c.68-1.83,3.58-5.22,6.83-8.42.74-.73,1.5-1.45,2.26-2.15s1.62-1.45,2.4-2.1a28.28,28.28,0,0,1,4-2.94c.64.6,1.28,1.17,1.91,1.73,2.57,2.3,4.8,4.28,6,7.24.69,1.68.34,2.51,0,3-1.59,2.34-7.16,3.23-12.5,3.54l-2.06.1-2,.05C1035.37,503.48,1033.55,503.46,1032.26,503.44Zm41.16,172.2c-.51-5.52-2.05-22.37-3-35.24a158.07,158.07,0,0,0,15.8,8.07c-.52,6.59-.83,12.46-1.17,19-.15,2.67-.29,5.44-.46,8.4C1081,675.67,1077.21,675.59,1073.42,675.64Z"/><path d="M369.58,534.09a14.17,14.17,0,0,0-.28,1.56c0,4.16,6.41,2.9,5.21-.94C373.68,532.05,370.27,532.7,369.58,534.09Z"/><path d="M443.75,485.79a13.3,13.3,0,0,0-.28,1.56c0,4.16,6.4,2.9,5.21-.94C447.85,483.75,444.44,484.4,443.75,485.79Z"/><path d="M704.09,508.72a11.72,11.72,0,0,0-.29,1.56c0,4.16,6.41,2.9,5.21-.93C708.18,506.68,704.78,507.33,704.09,508.72Z"/><path d="M631,624.64a14,14,0,0,0-.28,1.57c0,4.15,6.4,2.89,5.21-.94C635.12,622.61,631.71,623.26,631,624.64Z"/><path d="M697.21,679.87a11.62,11.62,0,0,0-.29,1.57c0,4.16,6.41,2.89,5.21-.94C701.3,677.84,697.89,678.49,697.21,679.87Z"/><path d="M541.9,588.59c-.83-2.66-4.24-2-4.92-.62a11.72,11.72,0,0,0-.29,1.56C536.69,593.69,543.1,592.43,541.9,588.59Z"/><path d="M309.72,600.39a11.62,11.62,0,0,0-.29,1.57c0,4.15,6.41,2.89,5.21-.94C313.81,598.36,310.4,599,309.72,600.39Z"/><path d="M421.75,639.58c-.83-2.67-4.24-2-4.93-.63a14,14,0,0,0-.28,1.57C416.54,644.67,423,643.41,421.75,639.58Z"/><path d="M548.62,536.13c-.83-2.66-4.24-2-4.93-.62a13.72,13.72,0,0,0-.28,1.56C543.41,541.23,549.82,540,548.62,536.13Z"/><path d="M566.07,689.7c-.83-2.66-4.24-2-4.92-.62a11.72,11.72,0,0,0-.29,1.56C560.86,694.8,567.27,693.54,566.07,689.7Z"/><path d="M393.3,661.67c-.83-2.67-4.24-2-4.93-.63a14.17,14.17,0,0,0-.28,1.56C388.09,666.76,394.49,665.5,393.3,661.67Z"/><path d="M419.08,529.12v.27c-1.32,1.86-.36,3.89.63,3.85C428.63,532.86,420.37,524.81,419.08,529.12Z"/><path d="M802.7,577.59c8.94-.38.68-8.43-.61-4.12v.27C800.75,575.6,801.71,577.63,802.7,577.59Z"/><path d="M383.39,612.55v.28c-1.32,1.86-.37,3.89.62,3.84C392.94,616.29,384.68,608.24,383.39,612.55Z"/><path d="M718.51,591.31c8.93-.38.67-8.43-.62-4.12v.27C716.56,589.32,717.52,591.35,718.51,591.31Z"/><path d="M617.47,686.14v.27c-1.32,1.86-.37,3.89.63,3.85C627,689.88,618.76,681.83,617.47,686.14Z"/><path d="M403.17,570.8v.27c-1.32,1.86-.37,3.89.63,3.85C412.72,574.53,404.46,566.48,403.17,570.8Z"/><path d="M637.25,644.38v.27c-1.32,1.86-.36,3.89.63,3.85C646.8,648.12,638.54,640.07,637.25,644.38Z"/><path d="M360.74,493.88l0,.27c-1.32,1.86-.36,3.89.63,3.85C370.28,497.62,362,489.57,360.74,493.88Z"/><path d="M813.37,609.77c8.94-.38.68-8.43-.61-4.12v.28C811.43,607.79,812.38,609.82,813.37,609.77Z"/><path d="M434.91,445.58l0,.27c-1.32,1.86-.36,3.89.63,3.85C444.45,449.32,436.19,441.27,434.91,445.58Z"/><path d="M528.13,547.76V548c-1.32,1.86-.37,3.89.63,3.85C537.68,551.5,529.42,543.45,528.13,547.76Z"/><path d="M445.31,662.22c8.93-.38.67-8.43-.62-4.12v.27C443.36,660.23,444.32,662.26,445.31,662.22Z"/><path d="M356.7,646.11v.27c-1.32,1.86-.37,3.89.63,3.85C366.25,649.85,358,641.8,356.7,646.11Z"/><path d="M293.91,643.5c8.93-.39.67-8.43-.62-4.12v.27C292,641.51,292.91,643.54,293.91,643.5Z"/><path d="M509.92,559.39v.27c-1.33,1.86-.37,3.89.62,3.85C519.46,563.13,511.21,555.08,509.92,559.39Z"/><path d="M527.37,713v.27c-1.32,1.86-.37,3.89.63,3.85C536.92,716.7,528.66,708.65,527.37,713Z"/><path d="M289.88,575.34v.28c-1.32,1.86-.37,3.88.63,3.84C299.43,579.08,291.17,571,289.88,575.34Z"/><path d="M506.51,495.35v.28c-1.33,1.86-.37,3.89.62,3.84C516.06,499.09,507.8,491,506.51,495.35Z"/><path d="M524,648.93v.27c-1.32,1.86-.37,3.89.63,3.85C533.51,652.66,525.25,644.61,524,648.93Z"/><path d="M262.11,618l.26.09c1.45,1.76,3.66,1.37,3.88.4C268.23,609.74,258.29,615.59,262.11,618Z"/><path d="M478.74,538l.26.09c1.45,1.76,3.65,1.37,3.88.41C484.86,529.75,474.92,535.6,478.74,538Z"/><path d="M671.92,645.3c1.45,1.77,3.66,1.38,3.88.41,2-8.72-8-2.87-4.14-.49Z"/><path d="M767.56,635.77l.26.08c1.45,1.77,3.66,1.38,3.88.41C773.68,627.54,763.74,633.39,767.56,635.77Z"/><path d="M396.53,494.38c-2.61.54-1.12,7.68,3.37,4C401.36,497.2,401.36,493.38,396.53,494.38Z"/><path d="M782.9,542.74c1.46-1.19,1.47-5-3.36-4C776.93,539.27,778.41,546.41,782.9,542.74Z"/><path d="M655.65,493.41c-2.61.54-1.13,7.69,3.36,4C660.47,496.23,660.48,492.41,655.65,493.41Z"/><path d="M634,572c1.46-1.2,1.46-5-3.37-4C628,568.5,629.49,575.65,634,572Z"/><path d="M319.62,531.88c-2.61.55-1.13,7.69,3.36,4C324.44,534.71,324.45,530.89,319.62,531.88Z"/><path d="M828.38,632.83c1.46-1.19,1.47-5-3.36-4C822.41,629.35,823.89,636.5,828.38,632.83Z"/><path d="M636,454.59c-2.61.54-1.13,7.69,3.36,4C640.82,457.41,640.83,453.59,636,454.59Z"/><path d="M675.35,711.66c1.46-1.2,1.47-5-3.36-4C669.38,708.18,670.86,715.32,675.35,711.66Z"/><path d="M557.06,609.49c1.46-1.2,1.47-5-3.36-4C551.09,606,552.57,613.16,557.06,609.49Z"/><path d="M487,585.77c-2.61.54-1.12,7.68,3.37,4C491.84,588.59,491.84,584.77,487,585.77Z"/><path d="M360.84,577.81c-2.61.54-1.13,7.69,3.36,4C365.66,580.63,365.67,576.81,360.84,577.81Z"/><path d="M427.18,478.31c1.46-1.19,1.46-5-3.36-4C421.2,474.83,422.69,482,427.18,478.31Z"/><path d="M698.71,556.46c1.46-1.19,1.46-5-3.36-4C692.73,553,694.22,560.13,698.71,556.46Z"/><path d="M598.28,655.41c1.46-1.19,1.47-5-3.36-4C592.31,651.93,593.79,659.08,598.28,655.41Z"/><path d="M440.48,611c-2.61.54-1.12,7.69,3.37,4C445.31,613.85,445.31,610,440.48,611Z"/><path d="M778.35,589.67c1.46-1.19,1.47-5-3.36-4C772.38,586.19,773.86,593.34,778.35,589.67Z"/></svg>