<svg width="217" height="280" viewBox="0 0 217 280" fill="none" xmlns="http://www.w3.org/2000/svg">
    <rect x="0.5" width="216" height="336" rx="18" fill="white"/>
    <path d="M0.5 17.5775C0.5 7.8697 8.3697 0 18.0775 0H198.923C208.63 0 216.5 7.8697 216.5 17.5775V156H0.5V17.5775Z" fill="#006666"/>
    <g filter="url(#filter0_d_1836_23084)">
        <rect x="12.5" y="60" width="192" height="270" rx="10" fill="white"/>
    </g>
    <g opacity="0.4" filter="url(#filter1_d_1836_23084)">
        <rect x="12.6504" y="24.3379" width="191.7" height="24.338" rx="12.169" fill="white"/>
    </g>
    <path d="M40.0754 36.5079V39.7466H39.0136V32.4739H40.0612V35.1798H40.1286C40.2565 34.8863 40.4518 34.6531 40.7146 34.4802C40.9774 34.3074 41.3206 34.221 41.7444 34.221C42.1185 34.221 42.4452 34.298 42.7245 34.4518C43.0062 34.6057 43.224 34.8354 43.3779 35.1408C43.5342 35.4438 43.6123 35.8226 43.6123 36.2771V39.7466H42.5505V36.405C42.5505 36.0049 42.4475 35.6947 42.2416 35.4746C42.0356 35.252 41.7491 35.1408 41.3822 35.1408C41.1312 35.1408 40.9063 35.194 40.7075 35.3006C40.511 35.4071 40.3559 35.5633 40.2423 35.7693C40.131 35.9729 40.0754 36.2191 40.0754 36.5079ZM47.7754 34.292V35.1443H44.796V34.292H47.7754ZM45.595 32.9852H46.6568V38.145C46.6568 38.351 46.6875 38.5061 46.7491 38.6102C46.8106 38.712 46.89 38.7819 46.987 38.8197C47.0865 38.8552 47.1942 38.873 47.3102 38.873C47.3954 38.873 47.47 38.8671 47.5339 38.8552C47.5978 38.8434 47.6475 38.8339 47.683 38.8268L47.8748 39.704C47.8133 39.7276 47.7257 39.7513 47.612 39.775C47.4984 39.801 47.3563 39.8152 47.1859 39.8176C46.9065 39.8223 46.6461 39.7726 46.4046 39.6685C46.1632 39.5643 45.9678 39.4033 45.8187 39.1855C45.6695 38.9677 45.595 38.6943 45.595 38.3652V32.9852ZM51.6961 34.292V35.1443H48.7167V34.292H51.6961ZM49.5157 32.9852H50.5775V38.145C50.5775 38.351 50.6082 38.5061 50.6698 38.6102C50.7314 38.712 50.8107 38.7819 50.9077 38.8197C51.0072 38.8552 51.1149 38.873 51.2309 38.873C51.3161 38.873 51.3907 38.8671 51.4546 38.8552C51.5185 38.8434 51.5682 38.8339 51.6037 38.8268L51.7955 39.704C51.734 39.7276 51.6464 39.7513 51.5327 39.775C51.4191 39.801 51.277 39.8152 51.1066 39.8176C50.8272 39.8223 50.5668 39.7726 50.3253 39.6685C50.0839 39.5643 49.8885 39.4033 49.7394 39.1855C49.5903 38.9677 49.5157 38.6943 49.5157 38.3652V32.9852ZM53.0706 41.792V34.292H54.1075V35.1763H54.1963C54.2579 35.0626 54.3467 34.9312 54.4627 34.7821C54.5787 34.6329 54.7396 34.5027 54.9456 34.3915C55.1516 34.2778 55.4238 34.221 55.7624 34.221C56.2027 34.221 56.5957 34.3323 56.9414 34.5548C57.287 34.7774 57.5581 35.0981 57.7546 35.5172C57.9534 35.9362 58.0529 36.4405 58.0529 37.03C58.0529 37.6195 57.9546 38.1249 57.7581 38.5463C57.5616 38.9653 57.2917 39.2885 56.9485 39.5158C56.6052 39.7407 56.2134 39.8531 55.773 39.8531C55.4416 39.8531 55.1705 39.7975 54.9598 39.6862C54.7515 39.5749 54.5881 39.4447 54.4698 39.2956C54.3514 39.1464 54.2602 39.0139 54.1963 38.8979H54.1324V41.792H53.0706ZM54.1111 37.0193C54.1111 37.4028 54.1667 37.739 54.278 38.0278C54.3893 38.3167 54.5503 38.5427 54.761 38.7061C54.9717 38.8671 55.2297 38.9476 55.5351 38.9476C55.8523 38.9476 56.1175 38.8635 56.3306 38.6954C56.5436 38.525 56.7046 38.2942 56.8135 38.003C56.9248 37.7118 56.9804 37.3839 56.9804 37.0193C56.9804 36.6595 56.926 36.3363 56.8171 36.0498C56.7105 35.7634 56.5495 35.5373 56.3341 35.3716C56.121 35.2059 55.8547 35.123 55.5351 35.123C55.2273 35.123 54.9669 35.2023 54.7539 35.3609C54.5432 35.5195 54.3834 35.7409 54.2745 36.025C54.1655 36.3091 54.1111 36.6405 54.1111 37.0193ZM63.5298 35.6237L62.5675 35.7942C62.5272 35.6711 62.4633 35.5539 62.3757 35.4426C62.2905 35.3313 62.1745 35.2402 62.0277 35.1692C61.8809 35.0981 61.6975 35.0626 61.4773 35.0626C61.1766 35.0626 60.9257 35.1301 60.7244 35.265C60.5232 35.3976 60.4226 35.5693 60.4226 35.78C60.4226 35.9623 60.4901 36.109 60.625 36.2203C60.76 36.3316 60.9778 36.4227 61.2784 36.4937L62.1449 36.6926C62.6468 36.8086 63.0209 36.9873 63.2671 37.2288C63.5133 37.4703 63.6364 37.784 63.6364 38.1699C63.6364 38.4966 63.5417 38.7878 63.3523 39.0435C63.1653 39.2968 62.9037 39.4956 62.5675 39.64C62.2337 39.7845 61.8466 39.8567 61.4063 39.8567C60.7955 39.8567 60.2971 39.7265 59.9112 39.466C59.5253 39.2033 59.2886 38.8304 59.201 38.3474L60.2273 38.1912C60.2912 38.4587 60.4226 38.6611 60.6215 38.7984C60.8203 38.9334 61.0796 39.0008 61.3992 39.0008C61.7472 39.0008 62.0253 38.9286 62.2337 38.7842C62.442 38.6374 62.5462 38.4587 62.5462 38.248C62.5462 38.0775 62.4823 37.9343 62.3544 37.8183C62.2289 37.7023 62.036 37.6147 61.7756 37.5555L60.8523 37.3531C60.3433 37.2371 59.9669 37.0525 59.723 36.7991C59.4816 36.5458 59.3608 36.225 59.3608 35.8368C59.3608 35.5148 59.4508 35.2331 59.6307 34.9916C59.8106 34.7501 60.0592 34.5619 60.3764 34.427C60.6937 34.2897 61.0571 34.221 61.4666 34.221C62.0561 34.221 62.5201 34.3489 62.8587 34.6045C63.1972 34.8579 63.4209 35.1976 63.5298 35.6237ZM65.7034 39.8141C65.5093 39.8141 65.3424 39.7454 65.2027 39.6081C65.063 39.4684 64.9932 39.3003 64.9932 39.1038C64.9932 38.9097 65.063 38.744 65.2027 38.6067C65.3424 38.467 65.5093 38.3972 65.7034 38.3972C65.8975 38.3972 66.0644 38.467 66.2041 38.6067C66.3438 38.744 66.4136 38.9097 66.4136 39.1038C66.4136 39.234 66.3805 39.3536 66.3142 39.4625C66.2503 39.569 66.165 39.6543 66.0585 39.7182C65.952 39.7821 65.8336 39.8141 65.7034 39.8141ZM65.7034 35.8439C65.5093 35.8439 65.3424 35.774 65.2027 35.6344C65.063 35.4947 64.9932 35.3278 64.9932 35.1337C64.9932 34.9395 65.063 34.7738 65.2027 34.6365C65.3424 34.4968 65.5093 34.427 65.7034 34.427C65.8975 34.427 66.0644 34.4968 66.2041 34.6365C66.3438 34.7738 66.4136 34.9395 66.4136 35.1337C66.4136 35.2639 66.3805 35.3834 66.3142 35.4923C66.2503 35.5989 66.165 35.6841 66.0585 35.748C65.952 35.8119 65.8336 35.8439 65.7034 35.8439ZM70.8057 32.1329L68.462 40.8403H67.5138L69.8576 32.1329H70.8057ZM74.6776 32.1329L72.3339 40.8403H71.3857L73.7295 32.1329H74.6776ZM78.0665 41.9057C77.6333 41.9057 77.2604 41.8489 76.9479 41.7352C76.6378 41.6216 76.3845 41.4713 76.188 41.2842C75.9915 41.0972 75.8447 40.8924 75.7476 40.6699L76.6603 40.2935C76.7242 40.3976 76.8094 40.5077 76.916 40.6237C77.0249 40.7421 77.1716 40.8427 77.3563 40.9256C77.5433 41.0084 77.7836 41.0498 78.0772 41.0498C78.4796 41.0498 78.8123 40.9516 79.0751 40.7551C79.3378 40.561 79.4692 40.2508 79.4692 39.8247V38.7523H79.4018C79.3378 38.8683 79.2455 38.9973 79.1248 39.1393C79.0064 39.2814 78.843 39.4045 78.6347 39.5087C78.4264 39.6128 78.1553 39.6649 77.8215 39.6649C77.3906 39.6649 77.0024 39.5643 76.6567 39.3631C76.3135 39.1595 76.0412 38.86 75.84 38.4646C75.6411 38.0669 75.5417 37.578 75.5417 36.998C75.5417 36.418 75.6399 35.9208 75.8364 35.5065C76.0353 35.0922 76.3075 34.775 76.6532 34.5548C76.9988 34.3323 77.3906 34.221 77.8286 34.221C78.1671 34.221 78.4406 34.2778 78.6489 34.3915C78.8572 34.5027 79.0194 34.6329 79.1354 34.7821C79.2538 34.9312 79.3449 35.0626 79.4089 35.1763H79.487V34.292H80.5275V39.8673C80.5275 40.3361 80.4186 40.7208 80.2008 41.0214C79.983 41.3221 79.6882 41.5446 79.3165 41.6891C78.9472 41.8335 78.5305 41.9057 78.0665 41.9057ZM78.0559 38.7842C78.3613 38.7842 78.6193 38.7132 78.83 38.5712C79.0431 38.4267 79.2041 38.2208 79.313 37.9533C79.4242 37.6834 79.4799 37.3602 79.4799 36.9838C79.4799 36.6168 79.4254 36.2937 79.3165 36.0143C79.2076 35.735 79.0478 35.5172 78.8371 35.3609C78.6264 35.2023 78.366 35.123 78.0559 35.123C77.7363 35.123 77.4699 35.2059 77.2569 35.3716C77.0438 35.5349 76.8828 35.7575 76.7739 36.0392C76.6674 36.3209 76.6141 36.6358 76.6141 36.9838C76.6141 37.3413 76.6686 37.655 76.7775 37.9248C76.8864 38.1947 77.0474 38.4054 77.2604 38.557C77.4759 38.7085 77.741 38.7842 78.0559 38.7842ZM84.5023 39.8567C83.9649 39.8567 83.5021 39.7418 83.1138 39.5122C82.7279 39.2802 82.4296 38.9547 82.2189 38.5356C82.0106 38.1142 81.9064 37.6206 81.9064 37.0548C81.9064 36.4961 82.0106 36.0037 82.2189 35.5775C82.4296 35.1514 82.7232 34.8188 83.0996 34.5797C83.4784 34.3406 83.9211 34.221 84.4278 34.221C84.7355 34.221 85.0338 34.2719 85.3226 34.3737C85.6115 34.4755 85.8707 34.6353 86.1003 34.8531C86.33 35.0709 86.5111 35.3538 86.6437 35.7018C86.7762 36.0475 86.8425 36.4677 86.8425 36.9625V37.3389H82.5066V36.5435H85.802C85.802 36.2641 85.7452 36.0167 85.6316 35.8013C85.518 35.5835 85.3581 35.4118 85.1522 35.2864C84.9486 35.1609 84.7095 35.0981 84.4349 35.0981C84.1366 35.0981 83.8761 35.1715 83.6536 35.3183C83.4334 35.4627 83.263 35.6521 83.1422 35.8865C83.0239 36.1185 82.9647 36.3706 82.9647 36.6429V37.2643C82.9647 37.6289 83.0286 37.9391 83.1564 38.1947C83.2867 38.4504 83.4678 38.6457 83.6998 38.7807C83.9318 38.9132 84.2028 38.9795 84.513 38.9795C84.7142 38.9795 84.8977 38.9511 85.0634 38.8943C85.2291 38.8351 85.3724 38.7475 85.4931 38.6315C85.6138 38.5155 85.7062 38.3723 85.7701 38.2018L86.7751 38.3829C86.6946 38.6789 86.5501 38.9381 86.3418 39.1606C86.1358 39.3808 85.8766 39.5525 85.5641 39.6756C85.254 39.7963 84.9001 39.8567 84.5023 39.8567ZM90.7668 34.292V35.1443H87.7874V34.292H90.7668ZM88.5864 32.9852H89.6482V38.145C89.6482 38.351 89.6789 38.5061 89.7405 38.6102C89.8021 38.712 89.8814 38.7819 89.9784 38.8197C90.0779 38.8552 90.1856 38.873 90.3016 38.873C90.3868 38.873 90.4614 38.8671 90.5253 38.8552C90.5892 38.8434 90.6389 38.8339 90.6744 38.8268L90.8662 39.704C90.8047 39.7276 90.7171 39.7513 90.6034 39.775C90.4898 39.801 90.3477 39.8152 90.1773 39.8176C89.8979 39.8223 89.6375 39.7726 89.396 39.6685C89.1546 39.5643 88.9593 39.4033 88.8101 39.1855C88.661 38.9677 88.5864 38.6943 88.5864 38.3652V32.9852ZM95.7653 41.792V38.8979H95.7013C95.6374 39.0139 95.5451 39.1464 95.4243 39.2956C95.306 39.4447 95.1426 39.5749 94.9343 39.6862C94.726 39.7975 94.4561 39.8531 94.1246 39.8531C93.6843 39.8531 93.2913 39.7407 92.9457 39.5158C92.6024 39.2885 92.3325 38.9653 92.136 38.5463C91.9419 38.1249 91.8448 37.6195 91.8448 37.03C91.8448 36.4405 91.943 35.9362 92.1395 35.5172C92.3384 35.0981 92.6107 34.7774 92.9563 34.5548C93.3019 34.3323 93.6938 34.221 94.1317 34.221C94.4703 34.221 94.7425 34.2778 94.9485 34.3915C95.1568 34.5027 95.3178 34.6329 95.4314 34.7821C95.5475 34.9312 95.6374 35.0626 95.7013 35.1763H95.7901V34.292H96.827V41.792H95.7653ZM94.359 38.9476C94.6644 38.9476 94.9224 38.8671 95.1332 38.7061C95.3462 38.5427 95.5072 38.3167 95.6161 38.0278C95.7274 37.739 95.783 37.4028 95.783 37.0193C95.783 36.6405 95.7286 36.3091 95.6197 36.025C95.5108 35.7409 95.351 35.5195 95.1403 35.3609C94.9296 35.2023 94.6691 35.123 94.359 35.123C94.0394 35.123 93.7731 35.2059 93.56 35.3716C93.3469 35.5373 93.1859 35.7634 93.077 36.0498C92.9705 36.3363 92.9172 36.6595 92.9172 37.0193C92.9172 37.3839 92.9717 37.7118 93.0806 38.003C93.1895 38.2942 93.3505 38.525 93.5635 38.6954C93.779 38.8635 94.0441 38.9476 94.359 38.9476ZM98.4546 39.7466V34.292H99.4809V35.1585H99.5377C99.6371 34.865 99.8123 34.6341 100.063 34.466C100.317 34.2956 100.603 34.2104 100.923 34.2104C100.989 34.2104 101.067 34.2127 101.157 34.2175C101.249 34.2222 101.322 34.2281 101.374 34.2352V35.2508C101.331 35.239 101.255 35.226 101.146 35.2118C101.037 35.1952 100.929 35.1869 100.82 35.1869C100.569 35.1869 100.345 35.2402 100.148 35.3467C99.9544 35.4509 99.8005 35.5965 99.6868 35.7835C99.5732 35.9682 99.5164 36.1789 99.5164 36.4156V39.7466H98.4546ZM102.567 39.8141C102.373 39.8141 102.206 39.7454 102.066 39.6081C101.927 39.4684 101.857 39.3003 101.857 39.1038C101.857 38.9097 101.927 38.744 102.066 38.6067C102.206 38.467 102.373 38.3972 102.567 38.3972C102.761 38.3972 102.928 38.467 103.068 38.6067C103.207 38.744 103.277 38.9097 103.277 39.1038C103.277 39.234 103.244 39.3536 103.178 39.4625C103.114 39.569 103.029 39.6543 102.922 39.7182C102.816 39.7821 102.697 39.8141 102.567 39.8141ZM107.197 39.8567C106.669 39.8567 106.215 39.7371 105.833 39.498C105.455 39.2565 105.163 38.9239 104.96 38.5001C104.756 38.0764 104.654 37.591 104.654 37.0442C104.654 36.4902 104.759 36.0013 104.967 35.5775C105.175 35.1514 105.469 34.8188 105.848 34.5797C106.226 34.3406 106.673 34.221 107.186 34.221C107.601 34.221 107.97 34.298 108.294 34.4518C108.619 34.6034 108.88 34.8164 109.079 35.091C109.28 35.3657 109.4 35.6864 109.438 36.0534H108.404C108.348 35.7977 108.217 35.5775 108.014 35.3929C107.813 35.2082 107.543 35.1159 107.204 35.1159C106.908 35.1159 106.649 35.194 106.427 35.3503C106.206 35.5042 106.035 35.7243 105.912 36.0108C105.788 36.2949 105.727 36.6311 105.727 37.0193C105.727 37.417 105.787 37.7603 105.908 38.0491C106.029 38.338 106.199 38.5617 106.419 38.7203C106.642 38.8789 106.904 38.9582 107.204 38.9582C107.405 38.9582 107.588 38.9215 107.751 38.8481C107.917 38.7724 108.055 38.6647 108.167 38.525C108.28 38.3853 108.36 38.2172 108.404 38.0207H109.438C109.4 38.3735 109.285 38.6883 109.093 38.9653C108.902 39.2423 108.645 39.4601 108.323 39.6187C108.003 39.7774 107.628 39.8567 107.197 39.8567ZM113.071 39.8567C112.56 39.8567 112.113 39.7395 111.732 39.5051C111.351 39.2707 111.055 38.9428 110.844 38.5214C110.634 38.1 110.528 37.6076 110.528 37.0442C110.528 36.4784 110.634 35.9836 110.844 35.5598C111.055 35.136 111.351 34.807 111.732 34.5726C112.113 34.3382 112.56 34.221 113.071 34.221C113.582 34.221 114.029 34.3382 114.41 34.5726C114.791 34.807 115.087 35.136 115.297 35.5598C115.508 35.9836 115.614 36.4784 115.614 37.0442C115.614 37.6076 115.508 38.1 115.297 38.5214C115.087 38.9428 114.791 39.2707 114.41 39.5051C114.029 39.7395 113.582 39.8567 113.071 39.8567ZM113.074 38.9653C113.406 38.9653 113.681 38.8777 113.898 38.7025C114.116 38.5274 114.277 38.2942 114.381 38.003C114.488 37.7118 114.541 37.391 114.541 37.0406C114.541 36.6926 114.488 36.373 114.381 36.0818C114.277 35.7882 114.116 35.5527 113.898 35.3751C113.681 35.1976 113.406 35.1088 113.074 35.1088C112.741 35.1088 112.464 35.1976 112.244 35.3751C112.026 35.5527 111.864 35.7882 111.757 36.0818C111.653 36.373 111.601 36.6926 111.601 37.0406C111.601 37.391 111.653 37.7118 111.757 38.003C111.864 38.2942 112.026 38.5274 112.244 38.7025C112.464 38.8777 112.741 38.9653 113.074 38.9653ZM116.999 39.7466V34.292H118.018V35.1798H118.085C118.199 34.8792 118.385 34.6448 118.643 34.4767C118.901 34.3062 119.21 34.221 119.57 34.221C119.934 34.221 120.24 34.3062 120.486 34.4767C120.735 34.6471 120.918 34.8815 121.036 35.1798H121.093C121.223 34.8886 121.431 34.6566 121.715 34.4838C121.999 34.3086 122.337 34.221 122.73 34.221C123.225 34.221 123.629 34.3761 123.941 34.6862C124.256 34.9963 124.414 35.4639 124.414 36.0889V39.7466H123.352V36.1883C123.352 35.819 123.251 35.5515 123.05 35.3858C122.849 35.2201 122.608 35.1372 122.329 35.1372C121.983 35.1372 121.715 35.2437 121.523 35.4568C121.331 35.6675 121.235 35.9386 121.235 36.27V39.7466H120.177V36.1209C120.177 35.8249 120.085 35.587 119.9 35.4071C119.715 35.2272 119.475 35.1372 119.179 35.1372C118.978 35.1372 118.792 35.1905 118.622 35.297C118.454 35.4012 118.317 35.5468 118.213 35.7338C118.111 35.9208 118.061 36.1374 118.061 36.3837V39.7466H116.999Z" fill="white"/>
    <g clip-path="url(#clip0_1836_23084)">
        <path d="M31.9284 36.9999C31.9284 38.97 31.1458 40.8595 29.7527 42.2527C28.3595 43.6458 26.47 44.4284 24.4999 44.4284C22.5297 44.4284 20.6402 43.6458 19.2471 42.2527C17.8539 40.8595 17.0713 38.97 17.0713 36.9999M31.9284 36.9999C31.9284 35.0297 31.1458 33.1402 29.7527 31.7471C28.3595 30.3539 26.47 29.5713 24.4999 29.5713C22.5297 29.5713 20.6402 30.3539 19.2471 31.7471C17.8539 33.1402 17.0713 35.0297 17.0713 36.9999M31.9284 36.9999H17.0713" stroke="white" stroke-width="1.14286" stroke-linecap="round" stroke-linejoin="round"/>
        <path d="M27.3574 36.9999C27.217 39.7164 26.2164 42.318 24.5002 44.4284C22.784 42.318 21.7834 39.7164 21.6431 36.9999C21.7834 34.2833 22.784 31.6817 24.5002 29.5713C26.2164 31.6817 27.217 34.2833 27.3574 36.9999Z" stroke="white" stroke-width="1.14286" stroke-linecap="round" stroke-linejoin="round"/>
    </g>
    <rect x="24" y="72" width="170" height="149" rx="6" fill="#D3E1E1"/>
    <path d="M92.3333 92H82.3333C80.4924 92 79 93.4924 79 95.3333V105.333C79 107.174 80.4924 108.667 82.3333 108.667H92.3333C94.1743 108.667 95.6667 107.174 95.6667 105.333V95.3333C95.6667 93.4924 94.1743 92 92.3333 92Z" stroke="#A9C8C8" stroke-width="6.66667" stroke-linecap="round" stroke-linejoin="round"/>
    <path d="M135.667 92H125.667C123.826 92 122.333 93.4924 122.333 95.3333V105.333C122.333 107.174 123.826 108.667 125.667 108.667H135.667C137.508 108.667 139 107.174 139 105.333V95.3333C139 93.4924 137.508 92 135.667 92Z" stroke="#A9C8C8" stroke-width="6.66667" stroke-linecap="round" stroke-linejoin="round"/>
    <path d="M92.3333 135.333H82.3333C80.4924 135.333 79 136.826 79 138.667V148.667C79 150.508 80.4924 152 82.3333 152H92.3333C94.1743 152 95.6667 150.508 95.6667 148.667V138.667C95.6667 136.826 94.1743 135.333 92.3333 135.333Z" stroke="#A9C8C8" stroke-width="6.66667" stroke-linecap="round" stroke-linejoin="round"/>
    <path d="M139 135.333H129C127.232 135.333 125.536 136.036 124.286 137.286C123.036 138.536 122.333 140.232 122.333 142V152" stroke="#A9C8C8" stroke-width="6.66667" stroke-linecap="round" stroke-linejoin="round"/>
    <path d="M139 152V152.033" stroke="#A9C8C8" stroke-width="6.66667" stroke-linecap="round" stroke-linejoin="round"/>
    <path d="M109 105.333V115.333C109 117.102 108.298 118.797 107.047 120.048C105.797 121.298 104.101 122 102.333 122H92.3334" stroke="#A9C8C8" stroke-width="6.66667" stroke-linecap="round" stroke-linejoin="round"/>
    <path d="M79 122H79.0333" stroke="#A9C8C8" stroke-width="6.66667" stroke-linecap="round" stroke-linejoin="round"/>
    <path d="M109 92H109.033" stroke="#A9C8C8" stroke-width="6.66667" stroke-linecap="round" stroke-linejoin="round"/>
    <path d="M109 135.333V135.367" stroke="#A9C8C8" stroke-width="6.66667" stroke-linecap="round" stroke-linejoin="round"/>
    <path d="M122.333 122H125.667" stroke="#A9C8C8" stroke-width="6.66667" stroke-linecap="round" stroke-linejoin="round"/>
    <path d="M139 122V122.033" stroke="#A9C8C8" stroke-width="6.66667" stroke-linecap="round" stroke-linejoin="round"/>
    <path d="M109 152V148.667" stroke="#A9C8C8" stroke-width="6.66667" stroke-linecap="round" stroke-linejoin="round"/>
    <rect x="118" y="178" width="33" height="33" rx="4" fill="#006666"/>
    <path d="M127.64 200H125.333L128.848 189.818H131.622L135.132 200H132.825L130.275 192.145H130.195L127.64 200ZM127.496 195.998H132.945V197.678H127.496V195.998ZM138.495 200.144C138.008 200.144 137.574 200.06 137.193 199.891C136.812 199.718 136.51 199.465 136.288 199.13C136.069 198.792 135.96 198.371 135.96 197.867C135.96 197.443 136.038 197.087 136.194 196.798C136.349 196.51 136.561 196.278 136.83 196.102C137.098 195.927 137.403 195.794 137.745 195.705C138.089 195.615 138.451 195.552 138.828 195.516C139.273 195.469 139.631 195.426 139.902 195.386C140.174 195.343 140.371 195.28 140.494 195.197C140.617 195.115 140.678 194.992 140.678 194.83V194.8C140.678 194.485 140.578 194.241 140.38 194.069C140.184 193.897 139.906 193.81 139.544 193.81C139.163 193.81 138.86 193.895 138.635 194.064C138.409 194.23 138.26 194.438 138.187 194.69L136.228 194.531C136.328 194.067 136.523 193.666 136.815 193.328C137.107 192.987 137.483 192.725 137.944 192.543C138.408 192.357 138.944 192.264 139.554 192.264C139.979 192.264 140.385 192.314 140.772 192.413C141.163 192.513 141.51 192.667 141.811 192.876C142.116 193.085 142.357 193.353 142.532 193.681C142.708 194.006 142.796 194.395 142.796 194.849V200H140.787V198.941H140.728C140.605 199.18 140.441 199.39 140.235 199.572C140.03 199.751 139.783 199.892 139.495 199.995C139.206 200.094 138.873 200.144 138.495 200.144ZM139.102 198.683C139.413 198.683 139.689 198.621 139.927 198.499C140.166 198.373 140.353 198.204 140.489 197.991C140.625 197.779 140.693 197.539 140.693 197.271V196.46C140.627 196.503 140.535 196.543 140.419 196.58C140.307 196.613 140.179 196.644 140.037 196.674C139.894 196.701 139.752 196.725 139.609 196.749C139.467 196.768 139.337 196.787 139.221 196.803C138.973 196.84 138.756 196.898 138.57 196.977C138.384 197.057 138.24 197.165 138.137 197.3C138.035 197.433 137.983 197.599 137.983 197.798C137.983 198.086 138.088 198.306 138.297 198.459C138.509 198.608 138.777 198.683 139.102 198.683Z" fill="white"/>
    <rect x="153.5" y="178.5" width="32" height="32" rx="3.5" fill="white"/>
    <rect x="153.5" y="178.5" width="32" height="32" rx="3.5" stroke="#F0F2F5"/>
    <path d="M162.367 200H161.393L165.097 189.818H166.091L169.795 200H168.82L165.629 191.026H165.559L162.367 200ZM163.068 196.097H168.119V196.933H163.068V196.097ZM173.489 200.174C173.028 200.174 172.607 200.085 172.226 199.906C171.845 199.723 171.541 199.461 171.316 199.12C171.091 198.775 170.978 198.358 170.978 197.867C170.978 197.489 171.049 197.171 171.192 196.913C171.334 196.654 171.536 196.442 171.798 196.276C172.06 196.111 172.37 195.98 172.728 195.884C173.086 195.787 173.48 195.713 173.911 195.66C174.339 195.607 174.7 195.56 174.995 195.521C175.293 195.481 175.52 195.418 175.676 195.332C175.832 195.246 175.91 195.106 175.91 194.914V194.735C175.91 194.215 175.754 193.805 175.442 193.507C175.134 193.205 174.69 193.055 174.11 193.055C173.56 193.055 173.111 193.176 172.763 193.418C172.418 193.66 172.176 193.945 172.037 194.273L171.197 193.969C171.369 193.552 171.608 193.219 171.913 192.97C172.218 192.718 172.559 192.538 172.937 192.428C173.315 192.316 173.697 192.259 174.085 192.259C174.377 192.259 174.68 192.297 174.995 192.374C175.313 192.45 175.608 192.582 175.88 192.771C176.152 192.957 176.372 193.217 176.541 193.552C176.71 193.883 176.795 194.304 176.795 194.815V200H175.91V198.792H175.855C175.749 199.017 175.592 199.236 175.383 199.448C175.174 199.66 174.912 199.834 174.597 199.97C174.282 200.106 173.913 200.174 173.489 200.174ZM173.608 199.364C174.079 199.364 174.486 199.259 174.831 199.05C175.176 198.842 175.441 198.565 175.626 198.22C175.815 197.872 175.91 197.489 175.91 197.072V195.968C175.844 196.031 175.732 196.087 175.577 196.137C175.424 196.187 175.247 196.232 175.045 196.271C174.846 196.308 174.647 196.339 174.448 196.366C174.249 196.392 174.07 196.415 173.911 196.435C173.48 196.488 173.112 196.571 172.808 196.684C172.503 196.797 172.269 196.952 172.107 197.151C171.944 197.347 171.863 197.599 171.863 197.907C171.863 198.371 172.029 198.731 172.36 198.986C172.692 199.238 173.107 199.364 173.608 199.364Z" fill="black"/>
    <rect x="32.6471" y="176.647" width="72.7059" height="35.7059" rx="3.35294" fill="white"/>
    <rect x="32.6471" y="176.647" width="72.7059" height="35.7059" rx="3.35294" stroke="#F0F2F5" stroke-width="1.29412"/>
    <rect x="38" y="182" width="28" height="20" rx="2" fill="#22A97D"/>
    <rect x="38" y="204" width="28" height="3" rx="1.5" fill="#C0C0C0"/>
    <rect x="72" y="182" width="28" height="20" rx="2" fill="#FFA2A2"/>
    <rect x="72" y="204" width="28" height="3" rx="1.5" fill="#C0C0C0"/>
    <rect x="23.4504" y="232.563" width="170.1" height="8.11268" rx="4.05634" fill="#BBCACA"/>
    <rect x="23.4504" y="246.084" width="135" height="8.11268" rx="4.05634" fill="#BBCACA"/>
    <rect x="23.4504" y="259.606" width="43.2" height="8.11268" rx="4.05634" fill="#EFEFEF"/>
    <defs>
        <filter id="filter0_d_1836_23084" x="3.71127" y="50.5352" width="210.93" height="288.93" filterUnits="userSpaceOnUse" color-interpolation-filters="sRGB">
            <feFlood flood-opacity="0" result="BackgroundImageFix"/>
            <feColorMatrix in="SourceAlpha" type="matrix" values="0 0 0 0 0 0 0 0 0 0 0 0 0 0 0 0 0 0 127 0" result="hardAlpha"/>
            <feMorphology radius="1.35211" operator="dilate" in="SourceAlpha" result="effect1_dropShadow_1836_23084"/>
            <feOffset dx="0.676056"/>
            <feGaussianBlur stdDeviation="4.05634"/>
            <feComposite in2="hardAlpha" operator="out"/>
            <feColorMatrix type="matrix" values="0 0 0 0 0 0 0 0 0 0 0 0 0 0 0 0 0 0 0.05 0"/>
            <feBlend mode="normal" in2="BackgroundImageFix" result="effect1_dropShadow_1836_23084"/>
            <feBlend mode="normal" in="SourceGraphic" in2="effect1_dropShadow_1836_23084" result="shape"/>
        </filter>
        <filter id="filter1_d_1836_23084" x="3.86166" y="14.8731" width="210.63" height="43.2675" filterUnits="userSpaceOnUse" color-interpolation-filters="sRGB">
            <feFlood flood-opacity="0" result="BackgroundImageFix"/>
            <feColorMatrix in="SourceAlpha" type="matrix" values="0 0 0 0 0 0 0 0 0 0 0 0 0 0 0 0 0 0 127 0" result="hardAlpha"/>
            <feMorphology radius="1.35211" operator="dilate" in="SourceAlpha" result="effect1_dropShadow_1836_23084"/>
            <feOffset dx="0.676056"/>
            <feGaussianBlur stdDeviation="4.05634"/>
            <feComposite in2="hardAlpha" operator="out"/>
            <feColorMatrix type="matrix" values="0 0 0 0 0 0 0 0 0 0 0 0 0 0 0 0 0 0 0.05 0"/>
            <feBlend mode="normal" in2="BackgroundImageFix" result="effect1_dropShadow_1836_23084"/>
            <feBlend mode="normal" in="SourceGraphic" in2="effect1_dropShadow_1836_23084" result="shape"/>
        </filter>
        <clipPath id="clip0_1836_23084">
            <rect width="16" height="16" fill="white" transform="translate(16.5 29)"/>
        </clipPath>
    </defs>
</svg>
