<svg width="50" height="50" viewBox="0 0 50 50" fill="none" xmlns="http://www.w3.org/2000/svg">
    <g clip-path="url(#clip0_1247_2102)">
        <rect width="50" height="50" rx="8" fill="white"/>
        <path d="M31.7844 7.01806C31.7074 6.93238 28.9513 7.0519 26.553 9.6554C24.1547 12.256 24.5233 15.2397 24.5773 15.316C24.6313 15.3923 27.9973 15.5118 30.1465 12.4857C32.2949 9.45957 31.86 7.1059 31.7844 7.01806ZM39.2407 33.4174C39.1327 33.2014 34.0092 30.6404 34.4866 25.7178C34.9632 20.793 38.255 19.4423 38.3069 19.2961C38.3587 19.15 36.9634 17.5185 35.4852 16.6934C34.4 16.111 33.1988 15.7773 31.9688 15.7163C31.7254 15.7091 30.8816 15.5025 29.1471 15.9777C28.0045 16.2902 25.4276 17.3025 24.7191 17.3435C24.0078 17.3838 21.8932 16.1685 19.6187 15.8466C18.1629 15.5658 16.6192 16.1418 15.5147 16.5846C14.4117 17.026 12.3151 18.2817 10.8477 21.6181C9.38108 24.9524 10.1486 30.2357 10.6972 31.8781C11.2466 33.5182 12.1034 36.2074 13.5614 38.1694C14.8574 40.3834 16.5767 41.9198 17.2938 42.4418C18.0117 42.9638 20.037 43.3101 21.441 42.593C22.5707 41.8997 24.609 41.5015 25.4146 41.5303C26.2174 41.5598 27.8014 41.8773 29.4236 42.7435C30.7088 43.1863 31.9234 43.0027 33.1409 42.5073C34.3577 42.0098 36.1195 40.1242 38.1766 36.301C38.957 34.524 39.3127 33.5636 39.2407 33.4174Z" fill="#131313"/>
    </g>
    <defs>
        <clipPath id="clip0_1247_2102">
            <rect width="50" height="50" fill="white"/>
        </clipPath>
    </defs>
</svg>
