<svg width="50" height="50" viewBox="0 0 50 50" fill="none" xmlns="http://www.w3.org/2000/svg">
    <g clip-path="url(#clip0_1247_2147)">
        <rect width="50" height="50" rx="8" fill="white"/>
        <path d="M39.9988 25.3375C39.9988 24.35 39.9094 23.4125 39.7562 22.5H25.3242V28.1375H33.5875C33.2171 29.9875 32.1315 31.55 30.5223 32.6125V36.3625H35.4521C38.3385 33.75 39.9988 29.9 39.9988 25.3375Z" fill="#4285F4"/>
        <path d="M25.3269 40.0008C29.4649 40.0008 32.926 38.6508 35.4548 36.3633L30.5249 32.6133C29.1456 33.5133 27.3959 34.0633 25.3269 34.0633C21.3293 34.0633 17.9449 31.4258 16.7315 27.8633H11.6484V31.7258C14.1644 36.6258 19.337 40.0008 25.3269 40.0008Z" fill="#34A853"/>
        <path d="M16.7307 27.861C16.4114 26.9609 16.2453 25.9984 16.2453 24.9984C16.2453 23.9984 16.4241 23.0359 16.7307 22.1359V18.2734H11.6475C10.6003 20.2984 10 22.5734 10 24.9984C10 27.4234 10.6003 29.6985 11.6475 31.7235L16.7307 27.861Z" fill="#FBBC05"/>
        <path d="M25.3269 15.9375C27.5874 15.9375 29.6054 16.7 31.2018 18.1875L35.5697 13.9125C32.926 11.4875 29.4649 10 25.3269 10C19.337 10 14.1644 13.375 11.6484 18.275L16.7315 22.1375C17.9449 18.575 21.3293 15.9375 25.3269 15.9375Z" fill="#EA4335"/>
    </g>
    <defs>
        <clipPath id="clip0_1247_2147">
            <rect width="50" height="50" fill="white"/>
        </clipPath>
    </defs>
</svg>
