<svg width="50" height="50" viewBox="0 0 50 50" fill="none" xmlns="http://www.w3.org/2000/svg">
    <g clip-path="url(#clip0_1247_2173)">
        <rect width="50" height="50" rx="8" fill="white"/>
        <mask id="mask0_1247_2173" style="mask-type:luminance" maskUnits="userSpaceOnUse" x="9" y="7" width="32" height="36">
            <path d="M41 7H9V42.3103H41V7Z" fill="white"/>
        </mask>
        <g mask="url(#mask0_1247_2173)">
            <path d="M23.9406 23.8607L9.13232 39.3752C9.2986 39.9645 9.59743 40.508 10.006 40.9642C10.4145 41.4203 10.9219 41.777 11.4894 42.007C12.0569 42.237 12.6695 42.3341 13.2803 42.2911C13.8912 42.2481 14.4841 42.0659 15.0137 41.7587L31.6758 32.2689L23.9406 23.8607Z" fill="#EA4335"/>
            <path d="M38.9145 21.2234L31.709 17.0966L23.5986 24.2138L31.742 32.2469L38.8924 28.1642C39.5259 27.8325 40.0565 27.3338 40.4267 26.722C40.797 26.1103 40.9927 25.4089 40.9927 24.6938C40.9927 23.9788 40.797 23.2774 40.4267 22.6656C40.0565 22.0539 39.5259 21.5552 38.8924 21.2234H38.9145Z" fill="#FBBC04"/>
            <path d="M9.13246 9.93518C9.04295 10.2661 8.99841 10.6076 9.00004 10.9504V38.36C9.00094 38.7026 9.04543 39.0438 9.13246 39.3752L24.4483 24.2579L9.13246 9.93518Z" fill="#4285F4"/>
            <path d="M24.0509 24.6552L31.7088 17.0966L15.0689 7.56277C14.4429 7.19613 13.7309 7.00196 13.0054 7.00001C12.1293 6.99827 11.2766 7.28307 10.5773 7.811C9.87807 8.33893 9.37062 9.08102 9.13232 9.92415L24.0509 24.6552Z" fill="#34A853"/>
        </g>
    </g>
    <defs>
        <clipPath id="clip0_1247_2173">
            <rect width="50" height="50" fill="white"/>
        </clipPath>
    </defs>
</svg>
