<svg width="50" height="50" viewBox="0 0 50 50" fill="none" xmlns="http://www.w3.org/2000/svg">
    <g clip-path="url(#clip0_1247_2158)">
        <rect width="50" height="50" rx="8" fill="white"/>
        <path d="M20.0479 32.2069C20.9735 33.3645 21.9162 34.8201 22.4095 35.6992C23.0103 36.8422 23.2595 37.6139 23.7064 38.9962C23.9677 39.7533 24.2168 39.9828 24.7395 39.9828C25.311 39.9828 25.5723 39.597 25.7726 38.9962C26.1902 37.6994 26.5126 36.7127 27.023 35.7725C28.9914 32.0604 32.2006 29.4228 34.0079 25.8084C34.0079 25.8084 35.1972 23.6006 35.1972 20.5088C35.1972 17.627 34.025 15.6244 34.025 15.6244L20.0552 32.2314L20.0479 32.2069Z" fill="#34A853"/>
        <path d="M15.3098 25.4176C16.4357 27.9819 18.5825 30.2287 20.0478 32.2069L27.8142 22.9998C27.8142 22.9998 26.7177 24.4358 24.7369 24.4358C22.5292 24.4358 20.7317 22.6774 20.7317 20.4551C20.7317 18.9262 21.6426 17.8663 21.6426 17.8663C15.9277 18.7162 16.2452 20.1009 15.2927 25.4127L15.3098 25.4176Z" fill="#FBBC04"/>
        <path d="M27.9121 10.464C30.501 11.2968 32.6989 13.0527 34.0178 15.617L27.8144 23.0169C27.8144 23.0169 28.7254 21.9521 28.7254 20.4281C28.7254 18.1594 26.8107 16.4474 24.7445 16.4474C22.7834 16.4474 21.6672 17.8663 21.6672 17.8663C22.1435 16.7819 27.0646 10.8328 27.9194 10.4664L27.9121 10.464Z" fill="#4285F4"/>
        <path d="M16.7266 13.7194C18.2701 11.8828 20.9761 9.98282 24.7128 9.98282C26.5176 9.98282 27.8877 10.4615 27.8877 10.4615L21.6599 17.8614C21.2399 17.6335 17.1417 14.4423 16.7266 13.7096V13.7194Z" fill="#1A73E8"/>
        <path d="M15.3099 25.4176C15.3099 25.4176 14.2915 23.3954 14.2915 20.4843C14.2915 17.7247 15.371 15.3069 16.7338 13.7439L21.6672 17.8956L15.3173 25.4176H15.3099Z" fill="#EA4335"/>
    </g>
    <defs>
        <clipPath id="clip0_1247_2158">
            <rect width="50" height="50" fill="white"/>
        </clipPath>
    </defs>
</svg>
