<svg width="50" height="50" viewBox="0 0 50 50" fill="none" xmlns="http://www.w3.org/2000/svg">
    <g clip-path="url(#clip0_1247_2190)">
        <rect width="50" height="50" rx="8" fill="url(#paint0_linear_1247_2190)"/>
        <path d="M25.502 7C20.749 7 20.152 7.02 18.286 7.106C16.423 7.191 15.151 7.486 14.038 7.919C12.8701 8.35799 11.8121 9.04669 10.938 9.937C10.0475 10.8113 9.35818 11.8692 8.918 13.037C8.485 14.15 8.189 15.422 8.105 17.284C8.022 19.15 8 19.747 8 24.5C8 29.253 8.021 29.848 8.106 31.714C8.191 33.577 8.486 34.849 8.919 35.962C9.35813 37.1298 10.0468 38.1878 10.937 39.062C11.8109 39.953 12.8689 40.6424 14.037 41.082C15.15 41.514 16.422 41.809 18.284 41.895C20.151 41.98 20.747 42 25.5 42C30.253 42 30.847 41.98 32.714 41.895C34.577 41.809 35.85 41.515 36.964 41.082C38.1311 40.6423 39.1881 39.9529 40.061 39.062C40.9515 38.1877 41.6409 37.1298 42.081 35.962C42.511 34.849 42.807 33.577 42.894 31.715C42.978 29.848 43 29.253 43 24.5C43 19.747 42.978 19.151 42.894 17.284C42.807 15.421 42.511 14.15 42.081 13.037C41.6409 11.8692 40.9516 10.8113 40.061 9.937C39.1875 9.04636 38.1298 8.35759 36.962 7.919C35.847 7.486 34.574 7.191 32.712 7.106C30.844 7.02 30.25 7 25.495 7H25.501H25.502ZM23.932 10.154H25.502C30.174 10.154 30.728 10.17 32.573 10.254C34.279 10.332 35.206 10.617 35.823 10.857C36.5825 11.1375 37.2693 11.5848 37.833 12.166C38.4143 12.7305 38.8619 13.418 39.143 14.178C39.383 14.794 39.668 15.721 39.746 17.427C39.83 19.272 39.848 19.826 39.848 24.497C39.848 29.167 39.83 29.721 39.746 31.566C39.668 33.272 39.383 34.198 39.143 34.814C38.8623 35.5736 38.4146 36.2605 37.833 36.824C37.2694 37.4055 36.5826 37.8532 35.823 38.134C35.206 38.374 34.279 38.658 32.573 38.736C30.728 38.82 30.174 38.838 25.502 38.838C20.829 38.838 20.275 38.82 18.43 38.736C16.724 38.658 15.798 38.372 15.18 38.133C14.4199 37.8525 13.7324 37.4052 13.168 36.824C12.5866 36.2599 12.139 35.5727 11.858 34.813C11.618 34.196 11.333 33.27 11.256 31.564C11.172 29.719 11.156 29.165 11.156 24.492C11.156 19.818 11.172 19.267 11.256 17.422C11.334 15.716 11.619 14.79 11.858 14.173C12.176 13.357 12.555 12.773 13.168 12.161C13.7329 11.5796 14.4207 11.132 15.181 10.851C15.797 10.611 16.724 10.326 18.431 10.248C20.044 10.175 20.671 10.153 23.931 10.149L23.932 10.154ZM34.843 13.059C34.2859 13.059 33.7516 13.2803 33.3577 13.6742C32.9638 14.0681 32.7425 14.6024 32.7425 15.1595C32.7425 15.7166 32.9638 16.2509 33.3577 16.6448C33.7516 17.0387 34.2859 17.26 34.843 17.26C35.4001 17.26 35.9344 17.0387 36.3283 16.6448C36.7222 16.2509 36.9435 15.7166 36.9435 15.1595C36.9435 14.6024 36.7222 14.0681 36.3283 13.6742C35.9344 13.2803 35.4001 13.059 34.843 13.059ZM25.502 15.513C23.1188 15.513 20.8331 16.4597 19.1479 18.1449C17.4627 19.8301 16.516 22.1158 16.516 24.499C16.516 26.8822 17.4627 29.1679 19.1479 30.8531C20.8331 32.5383 23.1188 33.485 25.502 33.485C27.885 33.485 30.1703 32.5384 31.8554 30.8534C33.5404 29.1683 34.487 26.883 34.487 24.5C34.487 22.1167 33.5403 19.8309 31.8551 18.1456C30.1699 16.4602 27.8843 15.5133 25.501 15.513H25.502ZM25.502 18.667C27.0491 18.667 28.5329 19.2816 29.6269 20.3756C30.7209 21.4696 31.3355 22.9534 31.3355 24.5005C31.3355 26.0476 30.7209 27.5314 29.6269 28.6254C28.5329 29.7194 27.0491 30.334 25.502 30.334C23.9549 30.334 22.4711 29.7194 21.3771 28.6254C20.2831 27.5314 19.6685 26.0476 19.6685 24.5005C19.6685 22.9534 20.2831 21.4696 21.3771 20.3756C22.4711 19.2816 23.9549 18.667 25.502 18.667Z" fill="white"/>
    </g>
    <defs>
        <linearGradient id="paint0_linear_1247_2190" x1="9.375" y1="-4.88937e-07" x2="35.937" y2="50" gradientUnits="userSpaceOnUse">
            <stop stop-color="#405DE6"/>
            <stop offset="0.151" stop-color="#5B51D8"/>
            <stop offset="0.323" stop-color="#833AB4"/>
            <stop offset="0.495" stop-color="#C13584"/>
            <stop offset="0.646" stop-color="#E1306C"/>
            <stop offset="0.802" stop-color="#F77737"/>
            <stop offset="1" stop-color="#FFDC80"/>
        </linearGradient>
        <clipPath id="clip0_1247_2190">
            <rect width="50" height="50" fill="white"/>
        </clipPath>
    </defs>
</svg>
