<svg width="50" height="50" viewBox="0 0 50 50" fill="none" xmlns="http://www.w3.org/2000/svg">
    <g clip-path="url(#clip0_1247_2201)">
        <rect width="50" height="50" rx="8" fill="#0A66C2"/>
        <path d="M15.948 18.884V41.462H8.444V18.884H15.948Z" fill="white"/>
        <path d="M16.442 11.902C16.442 14.068 14.813 15.802 12.196 15.802L12.147 15.801C9.628 15.801 8 14.068 8 11.901C8 9.687 9.678 8 12.245 8C14.812 8 16.392 9.686 16.442 11.902Z" fill="white"/>
        <path d="M27.536 28.854V41.462L27.535 41.463H20.03C20.03 41.463 20.129 21.004 20.03 18.885H27.536V22.082C28.533 20.544 30.318 18.356 34.298 18.356C39.236 18.356 42.938 21.583 42.938 28.517V41.462H35.435V29.384C35.435 26.348 34.349 24.278 31.633 24.278C29.56 24.278 28.325 25.674 27.782 27.023C27.584 27.504 27.536 28.179 27.536 28.854Z" fill="white"/>
    </g>
    <defs>
        <clipPath id="clip0_1247_2201">
            <rect width="50" height="50" fill="white"/>
        </clipPath>
    </defs>
</svg>
