<svg width="50" height="50" viewBox="0 0 50 50" fill="none" xmlns="http://www.w3.org/2000/svg">
    <g clip-path="url(#clip0_1247_2969)">
        <rect width="50" height="50" rx="8" fill="#6AAB00"/>
        <path d="M36.5391 15.1562H13.4609C12.1012 15.1562 11 16.2643 11 17.6172V32.3828C11 33.7437 12.1093 34.8438 13.4609 34.8438H36.5391C37.8874 34.8438 39 33.7484 39 32.3828V17.6172C39 16.2667 37.9031 15.1562 36.5391 15.1562ZM36.1944 16.7969L26.7402 26.2013C26.2753 26.6662 25.6573 26.9221 25 26.9221C24.3427 26.9221 23.7247 26.6661 23.2583 26.1998L13.8056 16.7969H36.1944ZM12.6406 32.0489V17.9521L19.7302 25.0044L12.6406 32.0489ZM13.8066 33.2031L20.8934 26.1614L22.0998 27.3614C22.8745 28.1361 23.9044 28.5627 25 28.5627C26.0956 28.5627 27.1255 28.1361 27.8987 27.3629L29.1066 26.1614L36.1934 33.2031H13.8066ZM37.3594 32.0489L30.2698 25.0044L37.3594 17.9521V32.0489Z" fill="white"/>
    </g>
    <defs>
        <clipPath id="clip0_1247_2969">
            <rect width="50" height="50" fill="white"/>
        </clipPath>
    </defs>
</svg>
