<svg width="50" height="50" viewBox="0 0 50 50" fill="none" xmlns="http://www.w3.org/2000/svg">
    <g clip-path="url(#clip0_1247_2207)">
        <rect width="50" height="50" rx="8" fill="#0E319F"/>
        <mask id="mask0_1247_2207" style="mask-type:luminance" maskUnits="userSpaceOnUse" x="11" y="7" width="28" height="35">
            <path d="M39 7H11V42H39V7Z" fill="white"/>
        </mask>
        <g mask="url(#mask0_1247_2207)">
            <path d="M21.9534 14.0005C21.7168 14.0005 21.488 14.0862 21.3081 14.2422C21.1282 14.3983 21.009 14.6144 20.9721 14.8517L19.3411 25.3517C19.4173 24.8613 19.834 24.5005 20.3228 24.5005H25.1009C29.9097 24.5005 33.9911 20.9386 34.7365 16.1119C34.7933 15.7452 34.8237 15.3819 34.8306 15.0235C33.6086 14.3726 32.173 14.0005 30.6006 14.0005H21.9534Z" fill="#EAEEF9"/>
            <path d="M34.8302 15.0232C34.8235 15.3816 34.7928 15.7452 34.7361 16.112C33.9907 20.9386 29.9093 24.5006 25.1006 24.5006H20.3224C19.8337 24.5006 19.4178 24.8614 19.3416 25.3518L17.8431 35L16.9026 41.0532C16.8845 41.1702 16.8916 41.2897 16.9233 41.4036C16.955 41.5175 17.0107 41.623 17.0864 41.713C17.1622 41.803 17.2562 41.8752 17.3621 41.9248C17.468 41.9743 17.5832 42 17.6998 42H22.8862C23.1228 42 23.3516 41.9143 23.5315 41.7582C23.7114 41.6022 23.8306 41.3861 23.8675 41.1488L25.2338 32.3518C25.3103 31.8614 25.7264 31.5 26.2151 31.5H29.2691C34.0778 31.5 38.1587 27.9383 38.9041 23.1119C39.4332 19.6856 37.7349 16.5687 34.8302 15.0232Z" fill="white"/>
            <path d="M16.0611 7C15.8244 7.00001 15.5955 7.08582 15.4156 7.24197C15.2357 7.39813 15.1166 7.61437 15.0797 7.85176L11.0101 34.0527C10.9919 34.1696 10.9989 34.2892 11.0305 34.4032C11.0622 34.5171 11.1179 34.6228 11.1936 34.7128C11.2694 34.8028 11.3635 34.8751 11.4694 34.9247C11.5753 34.9743 11.6906 35 11.8072 35H17.8425L19.3411 25.3517L20.9721 14.8518C21.009 14.6145 21.1282 14.3984 21.3081 14.2423C21.488 14.0863 21.7168 14.0005 21.9534 14.0005H30.6002C32.1729 14.0005 33.608 14.3726 34.8302 15.0226C34.9134 10.6284 31.3421 7 26.4314 7H16.0611Z" fill="#B9C6EA"/>
        </g>
    </g>
    <defs>
        <clipPath id="clip0_1247_2207">
            <rect width="50" height="50" fill="white"/>
        </clipPath>
    </defs>
</svg>
