<svg width="50" height="50" viewBox="0 0 50 50" fill="none" xmlns="http://www.w3.org/2000/svg">
    <g clip-path="url(#clip0_1247_2996)">
        <rect width="50" height="50" rx="8" fill="#EB4245"/>
        <path d="M13.0119 12.6719C12.9721 12.2997 12.8045 12.0099 12.5091 11.8026C12.2164 11.5952 11.8358 11.4915 11.367 11.4915C11.0375 11.4915 10.7548 11.5412 10.519 11.6406C10.2832 11.7401 10.1028 11.875 9.97781 12.0455C9.85281 12.2159 9.78889 12.4105 9.78604 12.6293C9.78604 12.8111 9.82724 12.9687 9.90962 13.1023C9.99485 13.2358 10.1099 13.3494 10.2548 13.4432C10.3997 13.5341 10.5602 13.6108 10.7363 13.6733C10.9125 13.7358 11.09 13.7884 11.269 13.831L12.0872 14.0355C12.4167 14.1122 12.7335 14.2159 13.0375 14.3466C13.3443 14.4773 13.6184 14.642 13.8599 14.8409C14.1042 15.0398 14.2974 15.2798 14.4395 15.5611C14.5815 15.8423 14.6525 16.1719 14.6525 16.5497C14.6525 17.0611 14.5218 17.5114 14.2605 17.9006C13.9991 18.2869 13.6213 18.5895 13.127 18.8082C12.6355 19.0241 12.0403 19.1321 11.3414 19.1321C10.6625 19.1321 10.073 19.027 9.57298 18.8168C9.07582 18.6065 8.68661 18.2997 8.40536 17.8963C8.12695 17.4929 7.97638 17.0014 7.95366 16.4219H9.50906C9.53178 16.7259 9.62553 16.9787 9.79031 17.1804C9.95508 17.3821 10.1696 17.5327 10.4338 17.6321C10.7008 17.7315 10.9991 17.7812 11.3287 17.7812C11.6724 17.7812 11.9735 17.7301 12.2321 17.6278C12.4934 17.5227 12.698 17.3778 12.8457 17.1932C12.9934 17.0057 13.0687 16.7869 13.0716 16.5369C13.0687 16.3097 13.002 16.1222 12.8713 15.9744C12.7406 15.8239 12.5574 15.6989 12.3216 15.5994C12.0886 15.4972 11.8159 15.4062 11.5034 15.3267L10.5105 15.071C9.79173 14.8864 9.22354 14.6065 8.80593 14.2315C8.39116 13.8537 8.18377 13.3523 8.18377 12.7273C8.18377 12.2131 8.32298 11.7628 8.60138 11.3764C8.88264 10.9901 9.26474 10.6903 9.74769 10.4773C10.2306 10.2614 10.7775 10.1534 11.3883 10.1534C12.0076 10.1534 12.5502 10.2614 13.0162 10.4773C13.4849 10.6903 13.8528 10.9872 14.1199 11.3679C14.3869 11.7457 14.5247 12.1804 14.5332 12.6719H13.0119ZM23.5321 13.2173H21.9384C21.8929 12.956 21.8091 12.7244 21.687 12.5227C21.5648 12.3182 21.4128 12.1449 21.231 12.0028C21.0492 11.8608 20.8418 11.7543 20.6088 11.6832C20.3787 11.6094 20.1301 11.5724 19.8631 11.5724C19.3887 11.5724 18.9682 11.6918 18.6017 11.9304C18.2353 12.1662 17.9483 12.5128 17.7409 12.9702C17.5336 13.4247 17.4299 13.9801 17.4299 14.6364C17.4299 15.304 17.5336 15.8665 17.7409 16.3239C17.9512 16.7784 18.2381 17.1222 18.6017 17.3551C18.9682 17.5852 19.3873 17.7003 19.8588 17.7003C20.1202 17.7003 20.3645 17.6662 20.5918 17.598C20.8219 17.527 21.0279 17.4233 21.2097 17.2869C21.3944 17.1506 21.5492 16.983 21.6742 16.7841C21.802 16.5852 21.8901 16.358 21.9384 16.1023L23.5321 16.1108C23.4725 16.5256 23.3432 16.9148 23.1444 17.2784C22.9483 17.642 22.6912 17.9631 22.373 18.2415C22.0549 18.517 21.6827 18.733 21.2566 18.8892C20.8304 19.0426 20.3574 19.1193 19.8375 19.1193C19.0705 19.1193 18.3858 18.9418 17.7836 18.5866C17.1813 18.2315 16.7069 17.7188 16.3603 17.0483C16.0137 16.3778 15.8404 15.5739 15.8404 14.6364C15.8404 13.696 16.0151 12.892 16.3645 12.2244C16.714 11.554 17.1898 11.0412 17.7921 10.6861C18.3944 10.331 19.0762 10.1534 19.8375 10.1534C20.3233 10.1534 20.775 10.2216 21.1926 10.358C21.6103 10.4943 21.9824 10.6946 22.3091 10.9588C22.6358 11.2202 22.9043 11.5412 23.1145 11.9219C23.3276 12.2997 23.4668 12.7315 23.5321 13.2173ZM25.9952 19H24.3077L27.3801 10.2727H29.3319L32.4086 19H30.7211L28.3901 12.0625H28.3219L25.9952 19ZM26.0506 15.5781H30.6529V16.848H26.0506V15.5781ZM40.7299 10.2727V19H39.3237L35.2115 13.0554H35.139V19H33.5581V10.2727H34.9728L39.0808 16.2216H39.1575V10.2727H40.7299Z" fill="white"/>
        <path d="M9.70774 24H13.2546L18.0046 35.5937H18.1921L22.9421 24H26.489V40H23.7077V29.0078H23.5593L19.1374 39.9531H17.0593L12.6374 28.9844H12.489V40H9.70774V24ZM30.0852 40V24H40.4915V26.4297H32.9837V30.7734H39.9524V33.2031H32.9837V37.5703H40.554V40H30.0852Z" fill="white"/>
    </g>
    <defs>
        <clipPath id="clip0_1247_2996">
            <rect width="50" height="50" fill="white"/>
        </clipPath>
    </defs>
</svg>
