<svg width="50" height="50" viewBox="0 0 50 50" fill="none" xmlns="http://www.w3.org/2000/svg">
    <g clip-path="url(#clip0_1247_2234)">
        <rect width="50" height="50" rx="8" fill="#06C167"/>
        <path d="M42.0311 15.7487C40.9031 15.7487 40.103 16.6206 40.103 17.959V22.8686H38.381V14.2269H40.0823V15.2822C40.2922 14.9324 40.5929 14.6445 40.9533 14.4482C41.3138 14.2519 41.7208 14.1544 42.1322 14.1658H42.7509V15.7487H42.0311ZM37.1911 18.5478C37.1911 15.9707 35.3351 14.0435 32.8233 14.0435C32.2298 14.0475 31.643 14.1674 31.0966 14.3962C30.5502 14.6251 30.055 14.9584 29.6394 15.377C29.2239 15.7956 28.8963 16.2913 28.6754 16.8354C28.4545 17.3796 28.3447 17.9615 28.3524 18.5478C28.3524 21.1228 30.363 23.0703 32.9862 23.0703C33.7189 23.084 34.4443 22.9234 35.1011 22.6022C35.7578 22.281 36.3268 21.8085 36.7601 21.2246L35.5104 20.3201C35.2237 20.7154 34.8443 21.0362 34.4047 21.2551C33.9651 21.474 33.4784 21.5845 32.9862 21.577C32.2852 21.5738 31.6085 21.3225 31.0788 20.8688C30.5492 20.4151 30.2016 19.789 30.0991 19.1039H37.1952L37.1911 18.5478ZM30.1362 17.7553C30.4435 16.4372 31.5096 15.545 32.8027 15.545C34.0957 15.545 35.1598 16.4372 35.4485 17.7553H30.1362ZM22.8978 14.0435C22.3223 14.044 21.7526 14.1572 21.2217 14.3764C20.6907 14.5956 20.209 14.9166 19.8044 15.3209V11H18.0824V22.8686H19.7838V21.7726C20.608 22.5963 21.7295 23.063 22.9019 23.0703C23.51 23.0831 24.1147 22.9758 24.6803 22.7547C25.2459 22.5336 25.7612 22.2032 26.1959 21.7828C26.6305 21.3624 26.9759 20.8606 27.2116 20.3066C27.4474 19.7527 27.5689 19.1578 27.5689 18.5569C27.5689 17.956 27.4474 17.3612 27.2116 16.8072C26.9759 16.2533 26.6305 15.7514 26.1959 15.331C25.7612 14.9107 25.2459 14.5803 24.6803 14.3592C24.1147 14.1381 23.51 14.0308 22.9019 14.0435H22.8978ZM22.774 21.5506C22.1738 21.5534 21.5863 21.38 21.086 21.0524C20.5857 20.7249 20.1951 20.2579 19.9639 19.7107C19.7327 19.1636 19.6713 18.5609 19.7874 17.9791C19.9035 17.3974 20.1919 16.8629 20.616 16.4433C21.0401 16.0238 21.5809 15.7381 22.1696 15.6227C22.7583 15.5072 23.3685 15.5671 23.9227 15.7947C24.4769 16.0224 24.9502 16.4075 25.2825 16.9013C25.6147 17.3951 25.791 17.9752 25.789 18.5681C25.7895 18.9592 25.7119 19.3466 25.5605 19.7079C25.4092 20.0693 25.187 20.3976 24.9069 20.6739C24.6268 20.9503 24.2942 21.1692 23.9281 21.3183C23.5621 21.4673 23.1699 21.5435 22.774 21.5424V21.5506ZM11.7411 21.4691C13.4032 21.4691 14.6942 20.2101 14.6942 18.3237V11H16.478V22.8686H14.7148V21.7461C14.3029 22.1667 13.8088 22.5004 13.2626 22.7269C12.7164 22.9535 12.1293 23.0682 11.5369 23.0642C8.97356 23.0642 7 21.2185 7 18.4194V11H8.81683V18.3339C8.81683 20.2305 10.0542 21.4691 11.7411 21.4691Z" fill="black"/>
        <path d="M7 26.6355H15.4283V28.6727H9.2767V31.5655H15.2572V33.5334H9.2767V36.4751H15.4283V38.5123H7V26.6355ZM38.7048 38.7262C41.2887 38.7262 42.7447 37.5039 42.7447 35.8252C42.7447 34.6294 41.8827 33.7371 40.0782 33.35L38.1706 32.965C37.0632 32.7613 36.7147 32.5576 36.7147 32.1501C36.7147 31.6225 37.2488 31.2986 38.2325 31.2986C39.2987 31.2986 40.0885 31.5818 40.2947 32.5555H42.5302C42.4085 30.7221 41.0743 29.512 38.3686 29.512C36.03 29.512 34.3885 30.4654 34.3885 32.3131C34.3885 33.5904 35.2918 34.4216 37.2406 34.827L39.3729 35.3139C40.2143 35.4769 40.4391 35.701 40.4391 36.0452C40.4391 36.5932 39.8039 36.9375 38.7769 36.9375C37.486 36.9375 36.7477 36.6544 36.4611 35.6806H34.2132C34.5411 37.51 35.9146 38.7262 38.7048 38.7262ZM33.5636 38.5041H31.1446C29.6268 38.5041 28.7854 37.5711 28.7854 36.3936V31.7285H27.0841V29.7402H28.7937V27.2446H31.0415V29.7402H33.5636V31.7285H31.0415V35.8252C31.0415 36.2917 31.3694 36.5158 31.8829 36.5158H33.5636V38.5041ZM23.8711 29.7442V30.5347C23.0797 29.8738 22.076 29.5127 21.0397 29.5161C20.4192 29.5032 19.8025 29.6128 19.2255 29.8384C18.6484 30.064 18.1228 30.4012 17.6794 30.8301C17.236 31.259 16.8838 31.771 16.6433 32.3361C16.4028 32.9012 16.2789 33.5081 16.2789 34.1211C16.2789 34.7341 16.4028 35.341 16.6433 35.9061C16.8838 36.4713 17.236 36.9833 17.6794 37.4122C18.1228 37.8411 18.6484 38.1782 19.2255 38.4038C19.8025 38.6295 20.4192 38.7391 21.0397 38.7262C22.0762 38.7306 23.0802 38.3694 23.8711 37.7076V38.5H26.1128V29.7402L23.8711 29.7442ZM21.2253 36.8031C20.6876 36.8091 20.1602 36.6571 19.7101 36.3664C19.2601 36.0756 18.9077 35.6593 18.6977 35.1702C18.4878 34.6812 18.4298 34.1415 18.531 33.6198C18.6323 33.0981 18.8883 32.6179 19.2665 32.2403C19.6448 31.8626 20.1281 31.6046 20.6551 31.499C21.1821 31.3933 21.729 31.4448 22.2263 31.647C22.7236 31.8491 23.1488 32.1928 23.4479 32.6342C23.747 33.0757 23.9066 33.595 23.9062 34.1262C23.9095 34.4764 23.8424 34.8237 23.7089 35.1481C23.5753 35.4725 23.378 35.7676 23.1283 36.0161C22.8786 36.2647 22.5815 36.4619 22.2541 36.5963C21.9267 36.7306 21.5757 36.7995 21.2212 36.799L21.2253 36.8031Z" fill="black"/>
    </g>
    <defs>
        <clipPath id="clip0_1247_2234">
            <rect width="50" height="50" fill="white"/>
        </clipPath>
    </defs>
</svg>
