<svg width="50" height="50" viewBox="0 0 50 50" fill="none" xmlns="http://www.w3.org/2000/svg">
    <g clip-path="url(#clip0_1247_2244)">
        <rect width="50" height="50" rx="8" fill="#06C167"/>
        <path d="M35.652 14.217C34.3227 12.875 32.7395 11.811 30.9949 11.087C29.2502 10.363 27.3789 9.99352 25.49 9.99999C17.573 9.99999 11.124 16.449 11.117 24.366C11.117 26.901 11.779 29.368 13.032 31.552L11 39L18.62 37.002C20.7281 38.1495 23.0898 38.7511 25.49 38.752H25.497C33.413 38.752 39.862 32.302 39.869 24.379C39.871 22.4907 39.4994 20.6208 38.7757 18.8767C38.052 17.1327 36.9903 15.549 35.652 14.217ZM25.49 36.32C23.34 36.32 21.238 35.741 19.406 34.652L18.972 34.391L14.452 35.576L15.658 31.166L15.375 30.711C14.1784 28.8087 13.5452 26.6063 13.549 24.359C13.549 17.786 18.909 12.425 25.497 12.425C27.0663 12.4221 28.6206 12.7299 30.0704 13.3306C31.5202 13.9313 32.8367 14.813 33.944 15.925C35.055 17.0327 35.9357 18.3494 36.5352 19.7992C37.1347 21.249 37.4412 22.8031 37.437 24.372C37.43 30.966 32.07 36.32 25.49 36.32ZM32.042 27.377C31.684 27.197 29.92 26.329 29.589 26.205C29.259 26.088 29.017 26.026 28.783 26.385C28.542 26.743 27.853 27.555 27.646 27.79C27.439 28.031 27.226 28.059 26.868 27.88C26.509 27.7 25.352 27.322 23.981 26.095C22.913 25.145 22.196 23.966 21.983 23.608C21.776 23.25 21.962 23.056 22.141 22.878C22.3 22.718 22.499 22.458 22.679 22.25C22.858 22.044 22.919 21.892 23.037 21.651C23.154 21.41 23.099 21.203 23.009 21.024C22.919 20.844 22.203 19.074 21.9 18.358C21.61 17.655 21.314 17.751 21.094 17.744C20.887 17.731 20.646 17.731 20.404 17.731C20.164 17.731 19.778 17.821 19.447 18.178C19.117 18.537 18.193 19.405 18.193 21.176C18.193 22.946 19.482 24.648 19.661 24.889C19.84 25.13 22.189 28.755 25.793 30.312C26.647 30.684 27.316 30.904 27.839 31.07C28.7 31.345 29.479 31.304 30.099 31.214C30.788 31.111 32.221 30.346 32.524 29.506C32.821 28.665 32.821 27.948 32.731 27.796C32.641 27.646 32.401 27.556 32.042 27.376V27.377Z" fill="white"/>
    </g>
    <defs>
        <clipPath id="clip0_1247_2244">
            <rect width="50" height="50" fill="white"/>
        </clipPath>
    </defs>
</svg>
