<svg width="50" height="50" viewBox="0 0 50 50" fill="none" xmlns="http://www.w3.org/2000/svg">
    <g clip-path="url(#clip0_1247_2090)">
        <rect width="50" height="50" rx="8" fill="white"/>
        <path d="M18.7854 22.7154L24.9997 16.377L31.2174 22.7187L34.8333 19.0305L24.9997 9L15.1694 19.0271L18.7854 22.7154Z" fill="#F3BA2F"/>
        <path d="M16.232 25.3192L12.616 21.631L9 25.3194L12.6159 29.0076L16.232 25.3192Z" fill="#F3BA2F"/>
        <path d="M18.7856 27.9241L24.9999 34.2624L31.2173 27.921L34.8352 31.6072L34.8335 31.6092L24.9999 41.6394L15.1694 31.6126L15.1643 31.6074L18.7856 27.9241Z" fill="#F3BA2F"/>
        <path d="M37.384 29.0092L41.0001 25.3208L37.3842 21.6326L33.7681 25.321L37.384 29.0092Z" fill="#F3BA2F"/>
        <path d="M28.6676 25.3178H28.6691L24.9999 21.5751L22.2883 24.341L21.9766 24.6588L21.3339 25.3144L21.3289 25.3195L21.3339 25.3249L24.9999 29.0643L28.6691 25.3216L28.6709 25.3195L28.6676 25.3178Z" fill="#F3BA2F"/>
    </g>
    <defs>
        <clipPath id="clip0_1247_2090">
            <rect width="50" height="50" fill="white"/>
        </clipPath>
    </defs>
</svg>
