<svg width="40" height="40" viewBox="0 0 40 40" fill="none" xmlns="http://www.w3.org/2000/svg">
    <path d="M16.667 21.6667C17.3827 22.6235 18.2959 23.4153 19.3446 23.9882C20.3932 24.5612 21.5528 24.9019 22.7447 24.9872C23.9366 25.0726 25.133 24.9006 26.2526 24.483C27.3722 24.0653 28.3888 23.4118 29.2337 22.5667L34.2337 17.5667C35.7516 15.995 36.5916 13.89 36.5726 11.705C36.5536 9.52001 35.6772 7.42991 34.1321 5.88484C32.5871 4.33977 30.497 3.46336 28.312 3.44438C26.127 3.42539 24.022 4.26534 22.4503 5.78333L19.5837 8.63333" stroke="#6E7275" stroke-width="2.91667" stroke-linecap="round" stroke-linejoin="round"/>
    <path d="M23.3317 18.3333C22.616 17.3765 21.7028 16.5847 20.6541 16.0118C19.6055 15.4388 18.4459 15.0981 17.254 15.0128C16.0621 14.9274 14.8657 15.0994 13.7461 15.517C12.6265 15.9347 11.6099 16.5882 10.765 17.4333L5.76505 22.4333C4.24706 24.005 3.40711 26.11 3.4261 28.295C3.44508 30.48 4.32149 32.5701 5.86656 34.1152C7.41163 35.6602 9.50173 36.5366 11.6867 36.5556C13.8717 36.5746 15.9767 35.7346 17.5484 34.2167L20.3984 31.3667" stroke="#6E7275" stroke-width="2.91667" stroke-linecap="round" stroke-linejoin="round"/>
</svg>
