<svg width="40" height="40" viewBox="0 0 40 40" fill="none" xmlns="http://www.w3.org/2000/svg">
    <path d="M22.1537 24.3832C21.5403 24.7449 20.2003 24.8549 17.652 22.3149C15.1037 19.7749 15.212 18.4382 15.5737 17.8266C16.497 17.7332 17.3787 17.1182 18.2003 16.2999C18.8053 15.6949 18.3153 14.2266 17.102 13.0182C15.8903 11.8116 14.4187 11.3216 13.8103 11.9249C9.90868 15.8149 11.862 20.9182 15.457 24.5016C19.1003 28.1349 24.077 30.1249 28.0737 26.1416C28.6803 25.5382 28.1903 24.0682 26.977 22.8616C25.7653 21.6532 24.292 21.1632 23.6853 21.7682C22.8653 22.5849 22.247 23.4632 22.1537 24.3832Z" fill="#6E7275"/>
    <path fill-rule="evenodd" clip-rule="evenodd" d="M19.9992 7.38001C17.6854 7.3798 15.4161 8.0157 13.4393 9.21821C11.4625 10.4207 9.8544 12.1435 8.7907 14.1983C7.727 16.2531 7.24868 18.5608 7.40803 20.8691C7.56738 23.1775 8.35827 25.3975 9.69423 27.2867C9.81839 27.4617 9.89541 27.6657 9.91789 27.879C9.94036 28.0924 9.90754 28.308 9.82257 28.505L8.03257 32.6433L13.2776 31.1217C13.5855 31.0321 13.9161 31.0643 14.2009 31.2117C15.8984 32.0888 17.7728 32.569 19.6829 32.6162C21.593 32.6633 23.4889 32.2761 25.2276 31.4838C26.9662 30.6914 28.5023 29.5147 29.7199 28.0422C30.9375 26.5697 31.8048 24.84 32.2565 22.9835C32.7082 21.1269 32.7325 19.1921 32.3274 17.3248C31.9224 15.4576 31.0987 13.7066 29.9184 12.2041C28.7381 10.7016 27.232 9.48668 25.5137 8.65102C23.7955 7.81536 21.9099 7.38077 19.9992 7.38001ZM4.87923 20C4.88002 16.7233 5.94524 13.5355 7.91452 10.9166C9.8838 8.29769 12.6506 6.38937 15.7983 5.47896C18.9459 4.56855 22.3042 4.70533 25.3674 5.86869C28.4307 7.03205 31.0331 9.15904 32.7829 11.9294C34.5327 14.6998 35.3351 17.9637 35.0694 21.2296C34.8038 24.4955 33.4843 27.5867 31.3098 30.0379C29.1352 32.489 26.2233 34.1674 23.0123 34.8204C19.8013 35.4734 16.4651 35.0655 13.5059 33.6583L6.18257 35.7833C5.95486 35.8493 5.7131 35.8491 5.48549 35.7828C5.25789 35.7165 5.05382 35.5869 4.8971 35.409C4.74038 35.2312 4.63746 35.0124 4.60036 34.7783C4.56326 34.5441 4.59351 34.3043 4.68757 34.0867L7.25757 28.14C5.70092 25.7107 4.87537 22.8852 4.87923 20Z" fill="#6E7275"/>
</svg>
