<svg width="50" height="50" viewBox="0 0 50 50" fill="none" xmlns="http://www.w3.org/2000/svg">
    <g clip-path="url(#clip0_1247_2251)">
        <rect width="50" height="50" rx="8" fill="#FF0000"/>
        <path d="M25.083 15.246H25.228C26.563 15.251 33.331 15.3 35.156 15.791C36.275 16.091 37.156 16.975 37.455 18.098C37.62 18.715 37.735 19.534 37.815 20.378L37.83 20.546L37.865 20.969L37.877 21.137C37.984 22.623 37.997 24.013 37.997 24.317L37.998 24.357V24.439C37.996 24.755 37.983 26.24 37.865 27.788L37.851 27.957L37.837 28.126C37.757 29.056 37.636 29.98 37.455 30.659C37.3074 31.2111 37.0173 31.7147 36.6139 32.1194C36.2104 32.5241 35.7077 32.8157 35.156 32.965C33.271 33.472 26.106 33.508 25.113 33.51H24.883C24.381 33.51 22.303 33.5 20.127 33.425L19.849 33.415L19.709 33.41L19.431 33.399L19.153 33.387C17.35 33.307 15.631 33.178 14.84 32.965C13.721 32.665 12.84 31.781 12.541 30.659C12.361 29.98 12.239 29.056 12.159 28.126L12.145 27.956L12.131 27.788C12.0509 26.6864 12.0066 25.5825 11.998 24.478V24.278C12.001 23.929 12.014 22.721 12.102 21.388L12.113 21.221L12.119 21.137L12.131 20.969L12.166 20.546L12.182 20.377C12.262 19.534 12.377 18.715 12.542 18.097C12.6896 17.545 12.9795 17.0415 13.3828 16.6368C13.7861 16.2321 14.2886 15.9405 14.84 15.791C15.63 15.578 17.35 15.449 19.153 15.37L19.431 15.358L19.709 15.347L19.849 15.342L20.127 15.332C22.164 15.262 24.116 15.249 24.768 15.246H25.083ZM22.398 20.464V28.292L29.153 24.378L22.398 20.464Z" fill="white"/>
    </g>
    <defs>
        <clipPath id="clip0_1247_2251">
            <rect width="50" height="50" fill="white"/>
        </clipPath>
    </defs>
</svg>
