<svg width="520" height="182" viewBox="0 0 520 182" fill="none" xmlns="http://www.w3.org/2000/svg">
<g clip-path="url(#clip0_2393_2828)">
<path d="M188.373 54.1704V83.3052C188.373 83.3052 188.431 83.4523 188.52 83.4523H194.382C194.382 83.4523 194.529 83.3935 194.529 83.3052V46.5188C194.529 46.5188 194.47 46.3717 194.382 46.3717H188.402C188.402 46.3717 188.343 46.3717 188.314 46.4011L176.059 55.5536C176.059 55.5536 175.971 55.7007 176.029 55.7596L179.299 60.5859C179.299 60.5859 179.447 60.6742 179.506 60.6154L188.255 54.0821C188.255 54.0821 188.373 54.0821 188.373 54.141V54.1704Z" fill="#5C068C"/>
<path d="M222.515 68.8849L232.766 83.3935C232.766 83.3935 232.825 83.4523 232.884 83.4523H246.789C246.789 83.4523 246.995 83.3052 246.907 83.2169L233.562 63.4406C233.562 63.4406 233.532 63.3228 233.562 63.264L246.17 46.6071C246.17 46.6071 246.17 46.3717 246.052 46.3717H232.825C232.825 46.3717 232.737 46.3717 232.708 46.4306L222.515 59.8502C222.515 59.8502 222.368 59.8502 222.368 59.7914V46.5188C222.368 46.5188 222.309 46.3717 222.22 46.3717H210.083C210.083 46.3717 209.936 46.4306 209.936 46.5188V83.2757C209.936 83.2757 209.995 83.4229 210.083 83.4229H222.191C222.191 83.4229 222.338 83.364 222.338 83.2757V68.9144C222.338 68.9144 222.427 68.7966 222.485 68.8555L222.515 68.8849Z" fill="#5C068C"/>
<path d="M243.784 95.9008L228.996 132.687C228.996 132.687 229.025 132.893 229.143 132.893H242.075C242.075 132.893 242.193 132.864 242.223 132.775L244.02 127.537C244.02 127.537 244.108 127.419 244.167 127.419H256.009C256.009 127.419 256.127 127.449 256.156 127.508L258.071 132.746C258.071 132.746 258.16 132.834 258.219 132.834H271.269C271.269 132.834 271.445 132.717 271.416 132.628L256.687 95.8419C256.687 95.8419 256.598 95.7537 256.539 95.7537H243.931C243.931 95.7537 243.813 95.7831 243.784 95.8419V95.9008ZM247.142 117.796L250.147 108.938C250.147 108.938 250.265 108.879 250.294 108.938L253.24 117.796C253.24 117.796 253.24 117.884 253.181 117.884H247.231C247.231 117.884 247.142 117.825 247.172 117.796H247.142Z" fill="#5C068C"/>
<path d="M307.944 62.9991L314.632 83.364C314.632 83.364 314.72 83.4817 314.779 83.4817H325.207C325.207 83.4817 325.325 83.4229 325.354 83.364L331.482 63.1463C331.482 63.1463 331.629 63.0874 331.629 63.1463L331.276 83.2757C331.276 83.2757 331.334 83.4229 331.423 83.4229H342.853C342.853 83.4229 343 83.364 343 83.2757V46.5188C343 46.5188 342.941 46.3717 342.853 46.3717H326.12C326.12 46.3717 326.002 46.4306 325.973 46.4894L320.081 66.0892C320.081 66.0892 319.963 66.148 319.934 66.0892L313.954 46.4894C313.954 46.4894 313.866 46.3717 313.807 46.3717H296.78C296.78 46.3717 296.632 46.4306 296.632 46.5188V83.3052C296.632 83.3052 296.691 83.4523 296.78 83.4523H308.21C308.21 83.4523 308.357 83.3935 308.357 83.3052L307.797 63.0286C307.797 63.0286 307.915 62.9108 307.944 63.0286V62.9991Z" fill="#5C068C"/>
<path d="M187.312 112.44L193.999 132.805C193.999 132.805 194.087 132.923 194.146 132.923H204.575C204.575 132.923 204.693 132.864 204.722 132.805L210.849 112.587C210.849 112.587 210.997 112.528 210.997 112.587L210.643 132.717C210.643 132.717 210.702 132.864 210.79 132.864H222.22C222.22 132.864 222.368 132.805 222.368 132.717V95.9303C222.368 95.9303 222.309 95.7831 222.22 95.7831H205.488C205.488 95.7831 205.37 95.842 205.341 95.9008L199.449 115.501C199.449 115.501 199.331 115.559 199.302 115.501L193.322 95.9008C193.322 95.9008 193.233 95.7831 193.174 95.7831H176.147C176.147 95.7831 176 95.842 176 95.9303V132.717C176 132.717 176.059 132.864 176.147 132.864H187.577C187.577 132.864 187.724 132.805 187.724 132.717L187.165 112.44C187.165 112.44 187.283 112.322 187.312 112.44Z" fill="#5C068C"/>
<path d="M319.993 113.441C314.897 113.441 310.772 109.32 310.772 104.229C310.772 99.138 314.897 95.0179 319.993 95.0179C325.089 95.0179 329.213 99.138 329.213 104.229C329.213 109.32 325.089 113.441 319.993 113.441ZM319.993 101.198C318.343 101.198 316.959 102.552 316.959 104.229C316.959 105.907 318.314 107.26 319.993 107.26C321.672 107.26 323.027 105.907 323.027 104.229C323.027 102.552 321.672 101.198 319.993 101.198Z" fill="#5C068C"/>
<path d="M302.2 111.793C301.051 110.792 299.667 110.027 298.105 109.497C296.573 108.967 294.865 108.702 293.038 108.702C292.39 108.702 291.654 108.732 290.829 108.82C290.24 108.879 289.71 108.938 289.209 109.056C289.15 109.056 289.12 109.056 289.12 108.967L289.445 102.051C289.445 102.051 289.474 101.993 289.533 101.993H304.144C304.144 101.993 304.292 101.934 304.292 101.845V95.9597C304.292 95.9597 304.233 95.8125 304.144 95.8125H283.494C283.494 95.8125 283.347 95.8714 283.347 95.9597L282.492 116.177C282.492 116.177 282.61 116.383 282.699 116.325C283.052 116.148 283.759 115.824 284.643 115.53C285.35 115.295 286.057 115.089 286.764 114.883C287.471 114.706 288.237 114.559 288.973 114.471C290.8 114.235 292.39 114.294 293.952 114.647C294.865 114.853 295.69 115.236 296.426 115.765C297.163 116.295 297.752 117.001 298.194 117.884C298.636 118.767 298.871 119.886 298.871 121.21C298.871 122.269 298.694 123.211 298.37 124.035C298.046 124.859 297.575 125.565 296.986 126.095C296.397 126.654 295.719 127.066 294.953 127.36C294.187 127.655 293.333 127.802 292.449 127.802C290.888 127.802 289.503 127.39 288.384 126.566C287.265 125.771 286.44 124.741 285.88 123.093C285.88 123.005 285.762 122.976 285.703 123.005L279.782 125.183C279.782 125.183 279.664 125.3 279.694 125.389C280.695 128.008 282.345 130.097 284.437 131.51C286.558 132.952 289.209 133.688 292.302 133.688C294.128 133.688 295.896 133.393 297.546 132.805C299.195 132.216 300.639 131.333 301.847 130.215C303.054 129.097 304.056 127.714 304.763 126.095C305.47 124.476 305.853 122.622 305.853 120.562C305.853 118.679 305.529 117.001 304.881 115.53C304.233 114.059 303.319 112.823 302.171 111.822L302.2 111.793Z" fill="#5C068C"/>
<path d="M262.225 61.2628C262.578 60.2917 263.079 59.4676 263.698 58.7908C264.316 58.1139 265.082 57.5842 265.966 57.2016C266.85 56.819 267.793 56.6425 268.824 56.6425C269.855 56.6425 270.797 56.819 271.652 57.2016C272.535 57.5842 273.272 58.1139 273.92 58.7908C274.568 59.4676 275.069 60.2917 275.422 61.2628C275.776 62.234 275.953 63.3229 275.953 64.5C275.953 65.6772 275.776 66.7955 275.422 67.7961C275.069 68.7967 274.568 69.6501 273.92 70.3858C273.272 71.1216 272.506 71.6807 271.652 72.0633C270.768 72.4459 269.825 72.6519 268.824 72.6519C267.822 72.6519 266.85 72.4459 265.966 72.0633C265.082 71.6513 264.316 71.1216 263.698 70.3858C263.079 69.6501 262.578 68.7967 262.225 67.7961C261.871 66.7955 261.695 65.7066 261.695 64.5C261.695 63.2934 261.871 62.2634 262.225 61.2628ZM254.507 78.6554C256.304 80.3623 258.425 81.6866 260.87 82.5989C263.315 83.5112 265.966 83.982 268.824 83.982C271.681 83.982 274.332 83.5112 276.777 82.5989C279.222 81.6572 281.343 80.3623 283.17 78.6554C284.967 76.9485 286.381 74.8885 287.412 72.4753C288.443 70.0621 288.944 67.4135 288.944 64.4706C288.944 61.5277 288.443 58.9085 287.412 56.5542C286.381 54.1998 284.967 52.1987 283.17 50.5506C281.373 48.9026 279.222 47.6372 276.777 46.7249C274.332 45.8126 271.681 45.3711 268.824 45.3711C265.966 45.3711 263.315 45.8126 260.87 46.7249C258.425 47.6077 256.304 48.9026 254.507 50.5506C252.71 52.1987 251.325 54.1998 250.294 56.5542C249.263 58.9085 248.762 61.5571 248.762 64.4706C248.762 67.3841 249.263 70.0621 250.294 72.4753C251.325 74.8885 252.71 76.9485 254.507 78.6554Z" fill="#5C068C"/>
</g>
<defs>
<clipPath id="clip0_2393_2828">
<rect width="167" height="91" fill="white" transform="translate(176 44)"/>
</clipPath>
</defs>
</svg>
