<svg width="520" height="182" viewBox="0 0 520 182" fill="none" xmlns="http://www.w3.org/2000/svg">
<g clip-path="url(#clip0_2387_1709)">
<path d="M348.147 52.0921H336.677V63.6034H348.147V52.0921Z" fill="black"/>
<path fill-rule="evenodd" clip-rule="evenodd" d="M303.497 81.6488H293.424V100.355C293.424 101.914 293.81 103.054 294.587 103.771C295.364 104.493 296.5 104.912 297.992 105.032C299.483 105.09 301.339 105.064 303.549 104.943V115.466C295.724 116.365 290.14 115.643 286.793 113.31C283.508 110.913 281.866 106.597 281.866 100.36V81.6539H274.071V70.4984H281.866V61.4151L293.424 57.9095V70.5037H311.292V61.4204L322.85 57.9147V70.509H332.975V81.6645H322.85V100.37C322.85 101.93 323.236 103.07 324.013 103.787C324.79 104.509 325.927 104.927 327.417 105.048C328.909 105.106 330.765 105.079 332.97 104.959V115.481C325.144 116.381 319.561 115.659 316.213 113.326C312.929 110.929 311.287 106.612 311.287 100.375V81.6696H303.492L303.497 81.6488Z" fill="black"/>
<path d="M348.203 70.4878H336.645V115.46H348.203V70.4878Z" fill="black"/>
<path fill-rule="evenodd" clip-rule="evenodd" d="M375.436 69.3202C362.422 69.3202 351.87 79.9106 351.87 92.9757C351.87 106.041 362.422 116.631 375.436 116.631C388.449 116.631 399.003 106.041 399.003 92.9757C399.003 79.9106 388.454 69.3202 375.436 69.3202ZM375.394 105.481C368.491 105.481 362.892 99.8614 362.892 92.934C362.892 86.0062 368.491 80.3866 375.394 80.3866C382.297 80.3866 387.891 86.0009 387.891 92.934C387.891 99.8668 382.297 105.481 375.394 105.481Z" fill="black"/>
<path fill-rule="evenodd" clip-rule="evenodd" d="M258.919 70.3982V72.8938C255.306 70.6334 251.041 69.3202 246.469 69.3202C233.456 69.3202 222.903 79.9106 222.903 92.9757C222.903 106.041 233.456 116.631 246.469 116.631C251.041 116.631 255.306 115.323 258.919 113.058V115.553H270.389V70.3982H258.919ZM246.427 105.481C239.524 105.481 233.925 99.8614 233.925 92.934C233.925 86.0062 239.524 80.3866 246.427 80.3866C253.33 80.3866 258.81 85.8911 258.919 92.7245V93.1378C258.81 99.9715 253.262 105.476 246.427 105.476V105.481Z" fill="black"/>
<path d="M203.013 97.6128L196.006 86.3579C196.006 86.3579 195.98 86.3108 195.964 86.2898L195.411 85.4056C194.369 83.7262 192.565 82.7215 190.594 82.7162L179.306 82.6795L178.519 83.946L165.031 105.608L164.286 106.806L169.937 115.868C170.98 117.554 172.784 118.558 174.77 118.558H190.589C192.539 118.558 194.384 117.527 195.417 115.874L195.974 114.979C195.974 114.979 195.995 114.953 196.001 114.943L203.018 103.672C204.17 101.83 204.17 99.4493 203.018 97.6128H203.013ZM200.875 102.327L193.858 113.598C193.826 113.65 193.79 113.692 193.759 113.734C193.514 114.011 193.196 114.048 193.055 114.048C192.893 114.048 192.497 114.001 192.241 113.592L185.224 102.322C185.146 102.196 185.078 102.066 185.015 101.924C184.953 101.788 184.906 101.652 184.864 101.511C184.708 100.946 184.708 100.339 184.864 99.7738C184.943 99.4966 185.062 99.2191 185.219 98.968L192.226 87.708C192.226 87.708 192.236 87.6924 192.241 87.6817C192.408 87.4306 192.617 87.3155 192.799 87.2788C192.873 87.2581 192.935 87.2528 192.987 87.2424C193.013 87.2424 193.039 87.2424 193.065 87.2424C193.227 87.2424 193.628 87.2945 193.879 87.7027L200.886 98.9576C201.527 99.983 201.527 101.302 200.886 102.327H200.875Z" fill="black"/>
<path d="M182.278 70.3802C183.425 68.5331 183.425 66.1576 182.278 64.321L175.27 53.0662L174.686 52.1191C173.638 50.4396 171.835 49.4349 169.853 49.4349H154.035C152.059 49.4349 150.255 50.4396 149.202 52.1244L120.876 97.6198C120.308 98.5303 120 99.582 120 100.649C120 101.717 120.302 102.768 120.871 103.674L128.467 115.881C129.515 117.566 131.319 118.565 133.295 118.565H149.113C151.1 118.565 152.904 117.561 153.946 115.875L154.525 114.955C154.525 114.955 154.525 114.955 154.525 114.944L154.535 114.923L160.182 105.861L176.918 78.9821L182.267 70.3853L182.278 70.3802ZM180.625 67.3506C180.625 67.9314 180.463 68.5174 180.135 69.0354L152.387 113.605C152.137 114.008 151.736 114.055 151.574 114.055C151.412 114.055 151.016 114.008 150.761 113.605L143.748 102.329C143.112 101.309 143.112 99.9953 143.748 98.9646L171.496 54.4057C171.746 53.9976 172.147 53.9505 172.309 53.9505C172.47 53.9505 172.872 53.9976 173.127 54.4109L180.135 65.6659C180.463 66.1839 180.625 66.7696 180.625 67.3506Z" fill="black"/>
</g>
<defs>
<clipPath id="clip0_2387_1709">
<rect width="279" height="112" fill="white" transform="translate(120 35)"/>
</clipPath>
</defs>
</svg>
