<svg width="520" height="182" viewBox="0 0 520 182" fill="none" xmlns="http://www.w3.org/2000/svg">
<g clip-path="url(#clip0_2387_1409)">
<path fill-rule="evenodd" clip-rule="evenodd" d="M45.3002 78.6236C38.5324 85.3761 38.5324 96.3225 45.3002 103.074L64.9046 122.635C71.6724 129.387 82.644 129.387 89.4113 122.635L109.016 103.074C115.783 96.3222 115.783 85.3755 109.016 78.6236L89.4113 59.0639C82.6433 52.312 71.6718 52.312 64.9046 59.0639L45.3002 78.6236ZM85.7349 99.4072C90.4722 94.6803 90.4722 87.0177 85.7349 82.2916C80.998 77.5649 73.3178 77.5649 68.5809 82.2916C63.8434 87.0183 63.8434 94.6803 68.5809 99.4072C73.3184 104.133 80.9976 104.133 85.7349 99.4072Z" fill="#2962FF"/>
<path d="M131.233 118.942V61.8516H142.571V85.9096L141.21 84.0996C142.168 81.636 143.705 79.826 145.821 78.6696C147.988 77.4629 150.508 76.8595 153.38 76.8595C156.504 76.8595 159.226 77.5132 161.544 78.8204C163.912 80.1276 165.752 81.9628 167.062 84.3259C168.372 86.6386 169.027 89.3537 169.027 92.4709V118.942H157.689V94.8841C157.689 93.2754 157.361 91.8927 156.706 90.7364C156.101 89.5799 155.22 88.6749 154.06 88.0213C152.952 87.3677 151.641 87.0408 150.13 87.0408C148.669 87.0408 147.358 87.3677 146.199 88.0213C145.04 88.6749 144.133 89.5799 143.478 90.7364C142.873 91.8927 142.571 93.2754 142.571 94.8841V118.942H131.233Z" fill="#0F172A"/>
<path d="M187.745 119.847C184.772 119.847 182.202 119.37 180.035 118.414C177.868 117.459 176.205 116.102 175.047 114.342C173.887 112.532 173.308 110.395 173.308 107.931C173.308 105.618 173.837 103.582 174.895 101.823C175.953 100.013 177.566 98.5043 179.733 97.2977C181.95 96.091 184.697 95.2362 187.972 94.7335L200.595 92.6973V100.993L190.013 102.878C188.4 103.18 187.166 103.708 186.309 104.462C185.453 105.166 185.024 106.197 185.024 107.554C185.024 108.811 185.503 109.792 186.46 110.496C187.418 111.199 188.602 111.552 190.013 111.552C191.878 111.552 193.515 111.149 194.926 110.345C196.337 109.54 197.421 108.459 198.177 107.102C198.983 105.694 199.386 104.161 199.386 102.501V91.7921C199.386 90.2335 198.756 88.9263 197.496 87.8705C196.287 86.8146 194.624 86.2867 192.508 86.2867C190.492 86.2867 188.703 86.8397 187.141 87.9459C185.629 89.052 184.52 90.5101 183.815 92.32L174.744 88.0213C175.55 85.7085 176.835 83.7225 178.599 82.0633C180.363 80.4041 182.479 79.1221 184.949 78.2171C187.418 77.3121 190.114 76.8595 193.036 76.8595C196.514 76.8595 199.587 77.488 202.258 78.745C204.929 80.0019 206.995 81.7617 208.457 84.0242C209.969 86.2364 210.724 88.8257 210.724 91.7921V118.942H200.142V112.305L202.712 111.853C201.503 113.663 200.167 115.171 198.706 116.378C197.244 117.535 195.607 118.389 193.792 118.942C191.978 119.546 189.963 119.847 187.745 119.847Z" fill="#0F172A"/>
<path d="M233.704 119.847C229.169 119.847 225.213 118.792 221.837 116.68C218.511 114.518 216.243 111.627 215.034 108.007L223.348 104.085C224.407 106.297 225.843 108.032 227.657 109.289C229.471 110.546 231.487 111.174 233.704 111.174C235.317 111.174 236.551 110.848 237.408 110.194C238.264 109.54 238.693 108.635 238.693 107.479C238.693 106.876 238.542 106.373 238.239 105.971C237.937 105.518 237.484 105.116 236.879 104.764C236.274 104.412 235.518 104.11 234.611 103.859L227.581 101.898C224.205 100.943 221.61 99.4094 219.796 97.2977C217.982 95.1356 217.074 92.5966 217.074 89.6805C217.074 87.1163 217.73 84.8789 219.04 82.9683C220.35 81.0578 222.189 79.5746 224.558 78.5187C226.926 77.4126 229.647 76.8595 232.721 76.8595C236.753 76.8595 240.28 77.8148 243.304 79.7254C246.378 81.5857 248.545 84.2253 249.804 87.6442L241.414 91.5657C240.809 89.8564 239.701 88.4989 238.088 87.4934C236.526 86.4375 234.737 85.9096 232.721 85.9096C231.26 85.9096 230.101 86.2113 229.244 86.8146C228.438 87.418 228.035 88.2475 228.035 89.3034C228.035 89.8564 228.186 90.3592 228.488 90.8115C228.791 91.2643 229.269 91.6664 229.925 92.0185C230.63 92.3703 231.487 92.6973 232.495 92.9987L239.071 94.9595C242.497 95.9653 245.118 97.4989 246.932 99.5599C248.746 101.571 249.653 104.06 249.653 107.026C249.653 109.59 248.973 111.828 247.612 113.738C246.302 115.649 244.463 117.157 242.095 118.263C239.726 119.319 236.929 119.847 233.704 119.847Z" fill="#0F172A"/>
<path d="M254.918 118.942V61.8516H266.256V85.9096L264.895 84.0996C265.853 81.636 267.39 79.826 269.506 78.6696C271.673 77.4629 274.193 76.8595 277.065 76.8595C280.19 76.8595 282.911 77.5132 285.229 78.8204C287.597 80.1276 289.437 81.9628 290.747 84.3259C292.057 86.6386 292.712 89.3537 292.712 92.4709V118.942H281.374V94.8841C281.374 93.2754 281.046 91.8927 280.391 90.7364C279.787 89.5799 278.905 88.6749 277.746 88.0213C276.637 87.3677 275.327 87.0408 273.815 87.0408C272.354 87.0408 271.044 87.3677 269.884 88.0213C268.726 88.6749 267.818 89.5799 267.163 90.7364C266.559 91.8927 266.256 93.2754 266.256 94.8841V118.942H254.918Z" fill="#0F172A"/>
<path d="M298.656 118.942V77.7646H309.239V85.9096L308.634 84.0996C309.591 81.636 311.128 79.826 313.245 78.6696C315.412 77.4629 317.931 76.8595 320.804 76.8595C323.928 76.8595 326.649 77.5132 328.967 78.8204C331.336 80.1276 333.175 81.9628 334.485 84.3259C335.795 86.6386 336.451 89.3537 336.451 92.4709V118.942H325.112V94.8841C325.112 93.2754 324.785 91.8927 324.129 90.7364C323.525 89.5799 322.643 88.6749 321.484 88.0213C320.375 87.3677 319.065 87.0408 317.553 87.0408C316.092 87.0408 314.782 87.3677 313.623 88.0213C312.464 88.6749 311.557 89.5799 310.901 90.7364C310.297 91.8927 309.995 93.2754 309.995 94.8841V118.942H298.656Z" fill="#0F172A"/>
<path d="M362.879 119.847C358.797 119.847 355.068 118.917 351.692 117.057C348.366 115.197 345.695 112.658 343.679 109.44C341.714 106.172 340.731 102.476 340.731 98.3533C340.731 94.1802 341.714 90.4849 343.679 87.2671C345.695 84.0493 348.366 81.5103 351.692 79.65C355.068 77.7897 358.797 76.8595 362.879 76.8595C366.961 76.8595 370.665 77.7897 373.991 79.65C377.316 81.5103 379.962 84.0493 381.927 87.2671C383.943 90.4849 384.951 94.1802 384.951 98.3533C384.951 102.476 383.943 106.172 381.927 109.44C379.962 112.658 377.316 115.197 373.991 117.057C370.665 118.917 366.961 119.847 362.879 119.847ZM362.879 109.666C364.945 109.666 366.734 109.188 368.246 108.233C369.808 107.278 371.017 105.945 371.874 104.236C372.781 102.526 373.235 100.566 373.235 98.3533C373.235 96.1414 372.781 94.2053 371.874 92.5463C371.017 90.8367 369.808 89.5045 368.246 88.5492C366.734 87.5436 364.945 87.0408 362.879 87.0408C360.813 87.0408 358.999 87.5436 357.436 88.5492C355.874 89.5045 354.64 90.8367 353.733 92.5463C352.876 94.2053 352.448 96.1414 352.448 98.3533C352.448 100.566 352.876 102.526 353.733 104.236C354.64 105.945 355.874 107.278 357.436 108.233C358.999 109.188 360.813 109.666 362.879 109.666Z" fill="#0F172A"/>
<path d="M409.545 119.847C405.513 119.847 401.911 118.892 398.736 116.981C395.561 115.071 393.041 112.482 391.177 109.213C389.363 105.945 388.456 102.325 388.456 98.3533C388.456 94.3311 389.388 90.7113 391.253 87.4934C393.117 84.2253 395.637 81.636 398.811 79.7254C401.986 77.8148 405.539 76.8595 409.469 76.8595C412.493 76.8595 415.162 77.4378 417.482 78.5941C419.852 79.7003 421.715 81.284 423.077 83.3454L421.338 85.6079V61.8516H432.675V118.942H422.094V111.401L423.15 113.738C421.74 115.75 419.826 117.283 417.405 118.339C414.987 119.345 412.368 119.847 409.545 119.847ZM410.904 109.666C412.971 109.666 414.786 109.188 416.349 108.233C417.909 107.278 419.121 105.945 419.976 104.236C420.882 102.526 421.338 100.566 421.338 98.3533C421.338 96.1414 420.882 94.1802 419.976 92.4709C419.121 90.7616 417.909 89.4291 416.349 88.4738C414.786 87.5185 412.971 87.0408 410.904 87.0408C408.84 87.0408 406.974 87.5436 405.312 88.5492C403.699 89.5045 402.44 90.8367 401.533 92.5463C400.625 94.2053 400.172 96.1414 400.172 98.3533C400.172 100.566 400.625 102.526 401.533 104.236C402.44 105.945 403.699 107.278 405.312 108.233C406.974 109.188 408.84 109.666 410.904 109.666Z" fill="#0F172A"/>
<path d="M459.347 119.847C454.961 119.847 451.159 118.892 447.934 116.981C444.709 115.02 442.215 112.406 440.45 109.138C438.686 105.87 437.803 102.25 437.803 98.2779C437.803 94.1554 438.712 90.4849 440.524 87.2671C442.39 84.0493 444.884 81.5103 448.007 79.65C451.133 77.7897 454.661 76.8595 458.591 76.8595C461.867 76.8595 464.764 77.3875 467.284 78.4433C469.804 79.4489 471.918 80.8818 473.635 82.7421C475.395 84.6024 476.732 86.7643 477.638 89.228C478.547 91.6412 479 94.2808 479 97.1467C479 97.9513 478.949 98.7558 478.85 99.5599C478.799 100.314 478.671 100.968 478.47 101.521H447.554V93.2251H472.046L466.677 97.1467C467.181 94.9847 467.159 93.0742 466.604 91.4152C466.049 89.7056 465.067 88.3732 463.657 87.418C462.295 86.4124 460.607 85.9096 458.591 85.9096C456.626 85.9096 454.939 86.3872 453.526 87.3425C452.116 88.2978 451.057 89.7056 450.352 91.5657C449.647 93.4263 449.369 95.6886 449.519 98.3533C449.318 100.666 449.596 102.703 450.352 104.462C451.108 106.222 452.266 107.604 453.829 108.61C455.392 109.565 457.28 110.043 459.497 110.043C461.513 110.043 463.226 109.641 464.639 108.837C466.1 108.032 467.232 106.926 468.04 105.518L477.112 109.817C476.305 111.828 475.019 113.587 473.255 115.096C471.542 116.604 469.5 117.786 467.134 118.641C464.764 119.445 462.17 119.847 459.347 119.847Z" fill="#0F172A"/>
</g>
<defs>
<clipPath id="clip0_2387_1409">
<rect width="439" height="74" fill="white" transform="translate(40 54)"/>
</clipPath>
</defs>
</svg>
