<svg width="520" height="182" viewBox="0 0 520 182" fill="none" xmlns="http://www.w3.org/2000/svg">
<path d="M104.274 138.088C123.308 139.155 150.651 138.456 155.823 115.306C158.74 102.251 159.173 88.3378 157.122 73.5663C155.284 60.397 149.903 48.3191 135.613 45.1187C120.922 41.8243 105.197 41.6404 88.4391 44.5669C75.6846 46.7904 67.9061 53.9146 65.1035 65.9394C61.7698 80.2286 61.4839 95.5805 64.2456 111.995C67.9592 134.116 85.3873 137.034 104.274 138.088Z" stroke="#11A04C" stroke-width="2"/>
<path d="M104.58 121.768H107.105C107.514 121.768 107.718 121.563 107.718 121.155V113.148C107.718 112.608 107.988 112.322 108.527 112.289C123.112 111.59 137.01 99.9785 138.015 85.1416C138.75 74.3143 131.005 63.7936 120.648 60.5196C112.951 58.0918 100.315 59.2321 91.1354 59.2321C90.9014 59.2321 90.6769 59.3252 90.5115 59.4907C90.346 59.6563 90.253 59.8809 90.253 60.115V61.9911C90.253 62.6042 89.9466 62.9107 89.3338 62.9107H87.189C86.7804 62.9107 86.5762 63.1151 86.5762 63.5238V124.527C86.5762 125.14 86.8826 125.446 87.4954 125.446H103.306C103.894 125.446 104.139 125.152 104.041 124.564L103.735 122.773C103.711 122.651 103.715 122.525 103.747 122.404C103.779 122.283 103.837 122.171 103.918 122.075C103.999 121.979 104.1 121.901 104.215 121.848C104.329 121.795 104.454 121.768 104.58 121.768Z" stroke="#126A3A" stroke-width="2"/>
<path d="M118.994 103.964C141.937 96.7781 137.586 64.2595 114.067 63.0211C110.161 62.8167 103.633 62.8044 94.4813 62.9843C94.1137 62.9925 93.9298 63.1805 93.9298 63.5483V117.476C93.9298 117.885 94.1341 118.089 94.5426 118.089H102.779C103.424 118.089 103.747 117.77 103.747 117.133L103.735 105.545C103.735 105.38 103.801 105.22 103.918 105.103C104.035 104.986 104.194 104.92 104.36 104.92C109.274 104.895 114.643 105.325 118.994 103.964Z" stroke="#929497" stroke-width="2"/>
<path d="M104.004 72.7325L104.078 95.2208C104.078 95.3054 104.112 95.3865 104.171 95.4463C104.231 95.5061 104.312 95.5397 104.397 95.5397L112.473 95.5029C115.616 95.4925 118.626 94.2983 120.842 92.1827C123.058 90.0672 124.297 87.2037 124.288 84.2219V83.5843C124.284 82.1075 123.973 80.6461 123.373 79.2836C122.773 77.9211 121.896 76.6842 120.792 75.6434C119.688 74.6027 118.379 73.7786 116.939 73.2181C115.499 72.6576 113.956 72.3718 112.4 72.3769L104.323 72.4137C104.239 72.4137 104.157 72.4473 104.098 72.5071C104.038 72.5669 104.004 72.648 104.004 72.7325Z" stroke="#929497" stroke-width="2"/>
<path d="M114.851 91.53C121.053 88.955 114.545 79.3172 108.38 79.7095C107.971 79.7341 107.763 79.9507 107.755 80.3594L107.595 91.1622C107.587 91.53 107.767 91.7344 108.135 91.7752C111.321 92.1513 113.56 92.0695 114.851 91.53Z" stroke="#126A3A" stroke-width="2"/>
<path d="M105.058 39H116.359C138.358 39.515 157.122 45.3885 160.395 70.6112C162.38 85.914 162.205 99.9907 159.868 112.841C155.468 137.083 137.316 140.995 115.905 142H104.911C72.065 141.191 59.7844 128.696 59 95.9075V84.6265C59.2288 78.9043 60.0213 72.7734 61.3777 66.2337C66.2434 42.8135 85.2526 40.5573 105.058 39ZM104.274 138.088C123.308 139.155 150.651 138.456 155.823 115.306C158.74 102.251 159.173 88.3378 157.122 73.5663C155.284 60.397 149.903 48.319 135.613 45.1187C120.922 41.8243 105.197 41.6404 88.4391 44.5669C75.6846 46.7904 67.9061 53.9146 65.1035 65.9394C61.7699 80.2286 61.4839 95.5805 64.2456 111.995C67.9592 134.116 85.3874 137.034 104.274 138.088Z" fill="#219653"/>
<path d="M104.274 138.088C85.3873 137.034 67.9592 134.116 64.2456 111.995C61.4839 95.5805 61.7698 80.2286 65.1035 65.9394C67.9061 53.9146 75.6846 46.7904 88.4391 44.5669C105.197 41.6404 120.922 41.8243 135.613 45.1187C149.903 48.3191 155.284 60.397 157.122 73.5663C159.173 88.3378 158.74 102.251 155.823 115.306C150.651 138.456 123.308 139.155 104.274 138.088ZM104.58 121.768H107.105C107.514 121.768 107.718 121.563 107.718 121.155V113.148C107.718 112.608 107.988 112.322 108.527 112.289C123.112 111.59 137.01 99.9785 138.015 85.1416C138.75 74.3143 131.005 63.7936 120.648 60.5196C112.951 58.0918 100.315 59.2321 91.1355 59.2321C90.9014 59.2321 90.677 59.3252 90.5115 59.4907C90.346 59.6563 90.253 59.8809 90.253 60.115V61.9911C90.253 62.6042 89.9466 62.9107 89.3338 62.9107H87.189C86.7805 62.9107 86.5762 63.1151 86.5762 63.5238V124.527C86.5762 125.14 86.8826 125.446 87.4954 125.446H103.306C103.894 125.446 104.139 125.152 104.041 124.564L103.735 122.773C103.711 122.651 103.715 122.525 103.747 122.404C103.779 122.283 103.837 122.171 103.918 122.075C103.999 121.979 104.1 121.901 104.215 121.848C104.329 121.795 104.454 121.768 104.58 121.768Z" fill="#00AA45"/>
<path d="M103.735 122.773L104.041 124.564C104.139 125.152 103.894 125.446 103.306 125.446H87.4954C86.8826 125.446 86.5762 125.14 86.5762 124.527V63.5238C86.5762 63.1151 86.7804 62.9107 87.189 62.9107H89.3338C89.9466 62.9107 90.253 62.6042 90.253 61.9911V60.115C90.253 59.8809 90.346 59.6563 90.5115 59.4907C90.6769 59.3252 90.9014 59.2321 91.1354 59.2321C100.315 59.2321 112.951 58.0918 120.648 60.5196C131.005 63.7936 138.75 74.3143 138.015 85.1416C137.01 99.9785 123.112 111.59 108.527 112.289C107.988 112.322 107.718 112.608 107.718 113.148V121.155C107.718 121.563 107.514 121.768 107.105 121.768H104.58C104.454 121.768 104.329 121.795 104.215 121.848C104.1 121.901 103.999 121.979 103.918 122.075C103.837 122.171 103.779 122.283 103.747 122.404C103.715 122.525 103.711 122.651 103.735 122.773ZM118.994 103.964C141.937 96.7781 137.586 64.2595 114.067 63.0211C110.161 62.8167 103.633 62.8045 94.4814 62.9843C94.1137 62.9925 93.9298 63.1805 93.9298 63.5483V117.476C93.9298 117.885 94.1341 118.089 94.5426 118.089H102.779C103.424 118.089 103.747 117.77 103.747 117.133L103.735 105.545C103.735 105.38 103.801 105.22 103.918 105.103C104.035 104.986 104.194 104.92 104.36 104.92C109.274 104.895 114.643 105.325 118.994 103.964Z" fill="#24292E"/>
<path d="M367.131 115.539C367.488 115.587 367.829 115.726 368.122 115.942C368.415 116.158 368.651 116.445 368.81 116.777C369.406 118.053 368.981 118.715 367.535 118.764C362.036 118.935 356.59 119.029 351.198 119.046C350.839 119.045 350.49 118.935 350.199 118.731C349.907 118.527 349.686 118.239 349.568 117.905C349.306 117.178 349.474 116.577 350.07 116.103C350.965 115.404 352.239 115.784 353.22 114.754C353.563 114.378 353.735 113.838 353.735 113.135C353.784 98.3885 353.784 83.6415 353.735 68.8945C353.735 68.7015 353.659 68.5162 353.524 68.3786C353.388 68.241 353.204 68.162 353.012 68.1588L350.438 68.0852C350.081 68.0793 349.739 67.948 349.47 67.7142C349.202 67.4804 349.025 67.159 348.969 66.8059C348.914 66.4528 348.984 66.0904 349.167 65.782C349.35 65.4735 349.635 65.2385 349.972 65.1179L361.333 61.0224C361.723 60.8831 362.14 60.8394 362.55 60.8949C362.96 60.9504 363.351 61.1035 363.69 61.3413C364.028 61.5792 364.305 61.8948 364.496 62.2618C364.688 62.6288 364.788 63.0363 364.79 63.4502C364.798 79.5379 364.794 95.8625 364.777 112.424C364.777 114.362 365.145 115.257 367.131 115.539Z" fill="#212121"/>
<path d="M114.067 63.0211C137.586 64.2595 141.937 96.7781 118.994 103.964C114.643 105.325 109.275 104.895 104.36 104.92C104.194 104.92 104.035 104.986 103.918 105.103C103.801 105.22 103.735 105.38 103.735 105.545L103.747 117.133C103.747 117.77 103.424 118.089 102.779 118.089H94.5427C94.1342 118.089 93.9299 117.885 93.9299 117.476V63.5483C93.9299 63.1805 94.1138 62.9925 94.4815 62.9843C103.633 62.8044 110.161 62.8167 114.067 63.0211ZM104.004 72.7325L104.078 95.2208C104.078 95.3054 104.112 95.3865 104.171 95.4463C104.231 95.5061 104.312 95.5396 104.397 95.5396L112.473 95.5029C115.616 95.4925 118.627 94.2983 120.842 92.1827C123.058 90.0672 124.297 87.2037 124.288 84.2219V83.5843C124.284 82.1075 123.973 80.6461 123.373 79.2836C122.773 77.9211 121.896 76.6841 120.792 75.6434C119.688 74.6027 118.379 73.7785 116.939 73.2181C115.499 72.6576 113.956 72.3718 112.4 72.3769L104.323 72.4137C104.239 72.4137 104.158 72.4473 104.098 72.5071C104.038 72.5669 104.004 72.6479 104.004 72.7325Z" fill="white"/>
<path d="M388.713 69.5938C388.721 71.1483 387.996 72.6429 386.696 73.7489C385.396 74.8549 383.629 75.4816 381.783 75.4913C379.936 75.501 378.162 74.8927 376.851 73.8004C375.54 72.7081 374.799 71.2211 374.791 69.6667C374.782 68.1122 375.508 66.6176 376.808 65.5116C378.108 64.4056 379.875 63.7788 381.721 63.7692C383.568 63.7595 385.341 64.3678 386.653 65.4601C387.964 66.5524 388.705 68.0394 388.713 69.5938Z" fill="#212121"/>
<path d="M201.992 100.248L202.139 113.552C202.141 113.755 202.214 113.952 202.346 114.108C202.478 114.264 202.66 114.371 202.862 114.411L207.434 115.257C207.853 115.334 208.229 115.562 208.491 115.896C208.753 116.231 208.883 116.649 208.855 117.072C208.79 118.134 208.165 118.686 206.98 118.727C199.88 118.931 192.689 119.038 185.409 119.046C185.196 119.048 184.986 118.999 184.795 118.904C184.605 118.809 184.439 118.67 184.311 118.498C184.184 118.326 184.098 118.126 184.061 117.915C184.024 117.703 184.037 117.486 184.098 117.28L184.564 115.723C184.6 115.61 184.668 115.509 184.759 115.433C184.85 115.357 184.961 115.309 185.078 115.294C186.549 115.13 187.922 114.701 189.197 114.006C189.389 113.902 189.55 113.749 189.662 113.564C189.775 113.378 189.834 113.167 189.834 112.952V70.5621C189.834 70.1452 189.67 69.806 189.344 69.5444C187.836 68.3673 184.024 68.5757 184.073 66.0498C184.08 65.6452 184.243 65.259 184.529 64.9729C184.815 64.6869 185.201 64.5233 185.605 64.517C197.825 64.3208 212.177 62.69 223.158 68.821C231.701 73.5786 234.716 85.2519 229.115 93.2221C223.477 101.278 211.331 101.609 202.507 99.819C202.163 99.7536 201.992 99.8967 201.992 100.248ZM202.58 96.2999C208.341 97.2808 214.125 97.146 217.802 92.045C220.727 87.9904 221.263 83.3922 219.408 78.2504C216.72 70.8033 211.09 67.5335 202.519 68.4408C202.192 68.4735 202.029 68.6575 202.029 68.9926L202.114 95.7604C202.123 96.071 202.278 96.2508 202.58 96.2999Z" fill="#212121"/>
<path d="M104.004 72.7325C104.004 72.6479 104.038 72.5669 104.098 72.5071C104.157 72.4473 104.239 72.4137 104.323 72.4137L112.4 72.3769C113.956 72.3718 115.499 72.6576 116.939 73.2181C118.379 73.7785 119.688 74.6027 120.792 75.6434C121.896 76.6841 122.773 77.9211 123.373 79.2836C123.973 80.6461 124.284 82.1075 124.288 83.5843V84.2219C124.297 87.2037 123.058 90.0672 120.842 92.1827C118.626 94.2982 115.616 95.4925 112.473 95.5029L104.397 95.5396C104.312 95.5396 104.231 95.506 104.171 95.4463C104.112 95.3865 104.078 95.3054 104.078 95.2208L104.004 72.7325ZM114.851 91.53C121.053 88.955 114.545 79.3171 108.38 79.7095C107.971 79.734 107.763 79.9507 107.755 80.3594L107.595 91.1621C107.587 91.53 107.767 91.7344 108.135 91.7752C111.321 92.1513 113.56 92.0695 114.851 91.53Z" fill="#24292E"/>
<path d="M432.762 81.9412C438.13 84.0012 440.201 75.1972 444.111 72.9042C444.392 72.7375 444.712 72.6482 445.039 72.6454C445.366 72.6427 445.688 72.7265 445.971 72.8884C446.255 73.0504 446.491 73.2846 446.655 73.5674C446.819 73.8501 446.906 74.1713 446.905 74.4982V81.3036C446.905 81.9167 447.212 82.2232 447.825 82.2232H456.147C456.402 82.2233 456.648 82.3149 456.842 82.4814C457.035 82.6479 457.162 82.8782 457.201 83.1306C457.789 86.8337 449.737 85.9263 447.641 85.9141C447.183 85.9059 446.95 86.1307 446.942 86.5885C446.861 93.7576 446.856 100.882 446.93 107.961C446.979 111.615 448.364 114.129 452.433 113.332C452.781 113.268 453.098 113.082 453.328 112.804L455.693 110.009C455.823 109.858 455.992 109.747 456.182 109.688C456.372 109.628 456.574 109.623 456.767 109.673C456.959 109.723 457.134 109.825 457.271 109.969C457.409 110.113 457.503 110.292 457.544 110.487C459.529 120.174 436.047 125.912 435.912 108.991C435.855 101.855 435.846 94.8121 435.887 87.8637C435.89 87.3627 435.707 86.8788 435.373 86.5068C435.04 86.1349 434.581 85.9016 434.086 85.8527C433.032 85.7465 432.067 85.3132 431.193 84.553C430.916 84.3155 430.732 83.9873 430.673 83.6267C430.615 83.2662 430.686 82.8965 430.874 82.5834C431.062 82.2703 431.355 82.034 431.7 81.9165C432.046 81.7989 432.422 81.8077 432.762 81.9412Z" fill="#212121"/>
<path d="M108.38 79.7095C114.545 79.3171 121.053 88.955 114.851 91.53C113.56 92.0695 111.321 92.1513 108.135 91.7752C107.767 91.7344 107.587 91.53 107.595 91.1621L107.755 80.3594C107.763 79.9507 107.971 79.734 108.38 79.7095Z" fill="#00AA45"/>
<path d="M243.663 100.788C244.929 109.011 249.852 112.845 258.431 112.289C262.562 112.02 264.547 109.371 267.096 106.502C267.35 106.214 267.696 106.022 268.075 105.959C268.454 105.895 268.843 105.964 269.176 106.153C269.509 106.342 269.766 106.64 269.903 106.996C270.04 107.352 270.049 107.745 269.927 108.108C268.065 113.904 264.445 117.513 259.069 118.935C232.166 126.047 224.396 90.0463 245.513 82.4807C256.262 78.6182 270.749 83.339 269.4 97.1459C269.321 97.9895 268.926 98.7724 268.296 99.34C267.665 99.9076 266.843 100.219 265.993 100.211L244.361 99.9784C244.261 99.9772 244.161 99.9981 244.069 100.04C243.977 100.081 243.895 100.143 243.829 100.219C243.763 100.296 243.714 100.387 243.685 100.485C243.656 100.583 243.649 100.686 243.663 100.788ZM244.043 97.2073L258.358 97.2563C258.442 97.2563 258.523 97.2227 258.583 97.1629C258.643 97.1031 258.676 97.022 258.676 96.9375L258.689 94.9388C258.698 92.3086 257.937 89.7834 256.574 87.9186C255.211 86.0537 253.358 85.0019 251.421 84.9944H251.078C250.118 84.9907 249.167 85.2437 248.279 85.739C247.39 86.2343 246.582 86.9622 245.901 87.8811C245.219 88.8 244.677 89.892 244.305 91.0945C243.934 92.2971 243.741 93.5867 243.736 94.8898L243.724 96.8884C243.724 96.973 243.758 97.0541 243.817 97.1139C243.877 97.1737 243.958 97.2073 244.043 97.2073Z" fill="#212121"/>
<path d="M283.691 100.886C284.953 113.344 300.543 116.704 307.1 106.416C307.195 106.266 307.322 106.138 307.472 106.042C307.621 105.946 307.79 105.883 307.966 105.859C308.142 105.834 308.321 105.848 308.491 105.9C308.661 105.952 308.818 106.04 308.951 106.158C309.253 106.436 309.368 106.919 309.294 107.605C307.921 120.027 292.491 122.197 283.213 117.844C268.555 110.965 271.018 87.5694 286.032 82.3581C296.303 78.7899 311.243 83.6946 309.196 97.2073C309.081 97.9843 308.69 98.6942 308.094 99.2074C307.498 99.7206 306.736 100.003 305.948 100.003H284.5C284.387 100.003 284.276 100.026 284.172 100.071C284.069 100.116 283.976 100.182 283.9 100.265C283.824 100.349 283.766 100.447 283.73 100.553C283.694 100.66 283.681 100.774 283.691 100.886ZM284.794 97.244H297.565C297.861 97.244 298.144 97.1265 298.354 96.9172C298.563 96.708 298.68 96.4242 298.68 96.1282V95.3925C298.68 94.0254 298.492 92.6717 298.127 91.4086C297.762 90.1456 297.226 88.998 296.552 88.0313C295.877 87.0646 295.075 86.2978 294.194 85.7746C293.312 85.2514 292.367 84.9821 291.412 84.9821H290.947C289.019 84.9821 287.17 86.0789 285.807 88.0313C284.444 89.9836 283.679 92.6315 283.679 95.3925V96.1282C283.679 96.4242 283.796 96.708 284.005 96.9172C284.215 97.1265 284.498 97.244 284.794 97.244Z" fill="#212121"/>
<path d="M329.541 88.489C331.077 84.8186 333.594 82.5338 337.091 81.6346C349.592 78.4465 350.07 98.8626 339.285 95.8339C338.868 95.7195 338.525 95.4906 338.255 95.1473C337.07 93.6677 336.641 91.9101 336.968 89.8746C337.044 89.4125 336.976 88.9388 336.775 88.5166C336.573 88.0943 336.247 87.7435 335.84 87.5106C335.433 87.2777 334.964 87.1739 334.496 87.2129C334.028 87.2518 333.582 87.4318 333.218 87.7288C327.139 92.7562 329.284 105.447 329.124 112.866C329.115 113.36 329.28 113.842 329.589 114.225C329.899 114.609 330.333 114.87 330.816 114.962L334.836 115.723C335.246 115.794 335.614 116.017 335.867 116.348C336.12 116.679 336.239 117.093 336.2 117.507C336.162 117.922 335.968 118.307 335.658 118.585C335.349 118.864 334.945 119.015 334.529 119.009H315.434C315.117 119.01 314.808 118.911 314.551 118.726C314.293 118.541 314.101 118.28 314 117.979C313.665 116.982 314.041 116.242 315.128 115.76C315.306 115.678 315.492 115.625 315.679 115.6C317.983 115.294 318.143 114.239 318.082 112.093C317.861 104.548 317.832 97.0233 317.996 89.519C318.012 88.9059 317.714 88.5667 317.101 88.5013L314.564 88.2561C314.333 88.2352 314.115 88.1385 313.944 87.9811C313.774 87.8237 313.66 87.6143 313.62 87.3855C313.49 86.6171 313.804 86.0653 314.564 85.7301C318.045 84.2096 321.599 82.8036 325.227 81.512C325.559 81.3943 325.913 81.3539 326.263 81.3938C326.613 81.4338 326.949 81.5531 327.245 81.7426C327.54 81.932 327.789 82.1866 327.97 82.4868C328.151 82.7869 328.261 83.1246 328.291 83.4739L328.708 88.3542C328.718 88.4514 328.761 88.5431 328.828 88.6147C328.896 88.6862 328.985 88.7335 329.081 88.749C329.177 88.7645 329.274 88.7474 329.357 88.7002C329.441 88.6531 329.505 88.5788 329.541 88.489Z" fill="#212121"/>
<path d="M376.985 113.148C377.074 105.259 377.087 97.3462 377.021 89.4087C377.013 88.8365 376.723 88.5218 376.151 88.4645L373.516 88.2316C373.194 88.2073 372.89 88.0731 372.655 87.8514C372.42 87.6296 372.268 87.3338 372.225 87.0134C372.182 86.693 372.25 86.3676 372.418 86.0916C372.586 85.8155 372.844 85.6057 373.148 85.4971L384.645 81.2668C385.031 81.1272 385.445 81.0826 385.852 81.1367C386.259 81.1908 386.647 81.342 386.984 81.5776C387.32 81.8133 387.595 82.1263 387.785 82.4905C387.975 82.8547 388.075 83.2593 388.076 83.6701V113.724C388.076 114.105 388.215 114.473 388.465 114.757C388.716 115.042 389.062 115.224 389.437 115.269C390.442 115.392 391.312 115.776 392.047 116.422C392.276 116.618 392.438 116.88 392.513 117.172C392.588 117.464 392.572 117.771 392.466 118.053C392.36 118.336 392.171 118.579 391.923 118.749C391.675 118.92 391.38 119.011 391.079 119.009H374.288C374.016 119.009 373.748 118.932 373.517 118.787C373.285 118.641 373.098 118.434 372.977 118.187C372.56 117.329 372.687 116.634 373.357 116.103C374.239 115.404 375.551 115.796 376.482 114.754C376.809 114.386 376.976 113.851 376.985 113.148Z" fill="#212121"/>
<path d="M414.905 116.25C419.023 115.76 420.739 110.229 416.805 107.421C415.595 106.563 412.462 105.533 407.404 104.331C387.145 99.5248 398.016 74.8906 417.148 82.5665C418.864 83.2532 420.42 83.5843 421.474 81.9167C421.637 81.6624 421.869 81.4601 422.143 81.3337C422.418 81.2073 422.722 81.162 423.021 81.2033C423.32 81.2446 423.601 81.3706 423.831 81.5666C424.061 81.7625 424.23 82.0202 424.318 82.309C425.306 85.5952 426.025 88.7425 426.475 91.7507C426.597 92.5927 426.426 93.2017 425.96 93.5777C425.738 93.7562 425.478 93.8824 425.201 93.9468C424.923 94.0112 424.635 94.0122 424.358 93.9497C424.081 93.8872 423.822 93.7627 423.6 93.5858C423.379 93.4088 423.201 93.1839 423.08 92.9279C421.053 88.6771 417.56 85.9263 412.601 84.6756C406.252 83.0693 401.828 91.7384 409.819 94.2399C417.932 96.7781 429.833 98.4212 427.712 110.499C425.911 120.689 412.539 121.363 404.781 118.114C404.64 118.056 404.487 118.032 404.334 118.043C404.181 118.053 404.033 118.099 403.899 118.175L400.823 119.916C400.704 119.985 400.571 120.025 400.435 120.036C400.298 120.046 400.16 120.026 400.032 119.977C399.903 119.928 399.786 119.851 399.69 119.751C399.594 119.652 399.52 119.532 399.474 119.401L395.981 108.954C395.802 108.423 395.904 107.957 396.288 107.556C397.228 106.575 398.31 106.469 399.536 107.237C399.753 107.382 399.93 107.585 400.05 107.826C403.114 114.243 408.066 117.051 414.905 116.25Z" fill="#212121"/>
</svg>
