<svg width="520" height="182" viewBox="0 0 520 182" fill="none" xmlns="http://www.w3.org/2000/svg">
<g clip-path="url(#clip0_2387_1561)">
<path d="M121.547 46.7668L95.9435 72.3748H121.547V46.7668ZM121.547 46.7668V53.7778M95.8842 43V140M121.547 97.9774L95.9435 72.3694M121.547 97.9774V134.689L95.9435 109.081M121.547 97.9774L95.9408 72.3694M121.547 97.9774L121.545 108.933H132.533V72.3694H95.9408M95.9435 72.3694V109.081M95.9435 72.3694L70.3369 97.9774M95.9435 109.081L70.3369 134.689V97.9774M70.3369 97.9774L70.3342 108.933H59.3484V72.3694H95.9408M70.3369 97.9774L95.9408 72.3694M95.9408 72.3748L70.3342 46.7668V72.3748H95.9408Z" stroke="#20808D" stroke-miterlimit="10"/>
<path d="M207.552 78.1032C209.151 75.1151 211.386 72.814 214.269 71.1947C217.146 69.5807 220.522 68.7724 224.394 68.7724C228.267 68.7724 231.473 69.5672 234.156 71.1596C236.842 72.7521 238.851 74.8618 240.18 77.4889C241.51 80.1187 242.176 82.999 242.176 86.13V90.468H212.052C212.295 94.2295 213.565 97.2203 215.863 99.4378C218.16 101.658 221.245 102.765 225.12 102.765C228.264 102.765 230.675 102.127 232.341 100.85C234.013 99.5726 235.232 97.8023 236.009 95.5336H242.906C241.987 99.0525 240.113 102.105 237.281 104.684C234.453 107.265 230.397 108.553 225.123 108.553C221.153 108.553 217.656 107.745 214.63 106.131C211.607 104.517 209.269 102.213 207.625 99.2223C205.98 96.2314 205.157 92.7125 205.157 88.6601C205.157 84.6076 205.955 81.0914 207.554 78.1005L207.552 78.1032ZM234.919 85.0441C234.919 81.765 234.072 79.1999 232.379 77.3407C230.686 75.4842 228.024 74.5573 224.392 74.5573C221.005 74.5573 218.233 75.46 216.081 77.2679C213.926 79.0759 212.608 81.6707 212.125 85.0441H234.919ZM251.225 69.8555V75.8587C251.225 76.1982 251.395 76.3653 251.735 76.3653C251.929 76.3653 252.072 76.3168 252.172 76.2198C252.272 76.1228 252.366 75.9315 252.46 75.6432C253.717 71.6904 256.84 69.7127 261.826 69.7127H265.018V76.2198H260.879C257.635 76.2198 255.216 76.9904 253.617 78.5343C252.018 80.0783 251.22 82.6083 251.22 86.13V107.467H244.686V69.8528H251.225V69.8555ZM303.382 99.5456C301.665 102.558 299.437 104.813 296.703 106.306C293.969 107.799 291.027 108.548 287.882 108.548C281.688 108.548 277.331 106.09 274.815 101.17C274.621 100.788 274.378 100.594 274.09 100.594C273.801 100.594 273.653 100.739 273.653 101.028V121.206H267.119V69.8582H273.653V76.2953C273.653 76.5836 273.798 76.7291 274.09 76.7291C274.381 76.7291 274.621 76.5351 274.815 76.1524C277.331 71.2324 281.688 68.7751 287.882 68.7751C291.027 68.7751 293.969 69.5241 296.703 71.0168C299.437 72.5096 301.662 74.7648 303.382 77.7799C305.1 80.7923 305.96 84.4244 305.96 88.6628C305.96 92.9011 305.1 96.5305 303.382 99.5456ZM295.832 78.2811C293.435 75.7968 290.277 74.5546 286.359 74.5546C282.441 74.5546 279.28 75.7968 276.886 78.2811C274.489 80.7653 273.61 84.225 273.61 88.6601C273.61 93.0951 274.489 96.5575 276.886 99.0391C279.283 101.523 282.441 102.765 286.359 102.765C290.277 102.765 293.437 101.526 295.832 99.0391C298.229 96.5548 299.426 93.0951 299.426 88.6601C299.426 84.225 298.229 80.7653 295.832 78.2811ZM315.441 55.3891V107.465H308.908V55.3944H315.441V55.3891ZM320.821 78.1005C322.417 75.1124 324.656 72.8113 327.538 71.192C330.415 69.578 333.792 68.7697 337.661 68.7697C341.531 68.7697 344.742 69.5645 347.425 71.1569C350.111 72.7494 352.12 74.8591 353.45 77.4862C354.782 80.116 355.445 82.9963 355.445 86.1273V90.4653H325.322C325.564 94.2268 326.834 97.2176 329.132 99.4351C331.429 101.655 334.514 102.763 338.389 102.763C341.533 102.763 343.941 102.124 345.611 100.847C347.282 99.5699 348.501 97.7996 349.278 95.5309H356.176C355.256 99.0498 353.379 102.103 350.551 104.681C347.722 107.263 343.666 108.55 338.392 108.55C334.423 108.55 330.925 107.742 327.9 106.128C324.877 104.514 322.539 102.21 320.894 99.2196C319.249 96.2288 318.427 92.7098 318.427 88.6574C318.427 84.6049 319.225 81.0887 320.824 78.0978H320.821V78.1005ZM348.189 85.0414C348.189 81.7623 347.342 79.1972 345.648 77.338C343.955 75.4815 341.293 74.5546 337.661 74.5546C334.277 74.5546 331.502 75.4573 329.35 77.2652C327.196 79.0732 325.88 81.668 325.394 85.0414H348.189ZM352.538 106.018L367.491 87.5715L355.224 71.2997V69.8528H362.41L372.649 83.8828L383.683 69.8528H391.013V71.3725L376.931 88.6601L389.926 106.018V107.465H382.885L371.778 92.3488L359.875 107.465H352.544V106.018H352.538ZM400.499 57.612V65.7519H392.868V57.612H400.499ZM400.103 107.467H393.566V69.8555H400.103V107.467ZM402.163 69.8555H409.271V59.7298H415.808V69.8555H423.288L425.124 75.3684H415.808V93.3619C415.808 95.8192 415.746 97.6406 415.624 98.8235C415.503 100.006 415.444 100.718 415.444 100.958C415.444 101.297 415.538 101.561 415.732 101.752C415.926 101.946 416.191 102.041 416.533 102.041C416.773 102.041 417.488 101.981 418.674 101.86C419.858 101.739 421.686 101.68 424.156 101.68H426.696V107.465H421.616C417.453 107.465 414.354 106.454 412.324 104.425C410.293 102.399 409.274 99.3166 409.274 95.1671V75.3657H402.168V69.8528H402.163V69.8555ZM425.256 69.8555H431.917L442.733 101.41C442.881 101.798 443.11 102.307 443.852 102.307C444.594 102.307 444.823 101.795 444.968 101.41L455.784 69.8555H461.997V71.3024L448.466 111.878C447.304 115.351 445.672 117.774 443.569 119.148C441.463 120.522 439.017 121.209 434.948 121.209H427.98V115.424H433.281C434.975 115.424 436.353 115.483 437.418 115.605C438.48 115.726 439.16 115.785 439.451 115.785C440.274 115.785 440.829 115.424 441.123 114.702L443.156 109.205C443.399 108.629 443.421 108.195 443.229 107.901C443.132 107.707 443.013 107.586 442.868 107.54C442.722 107.492 442.504 107.467 442.215 107.467H437.787L425.262 69.8582H425.256V69.8555ZM201.004 99.6076C199.287 102.62 197.059 104.875 194.325 106.368C191.591 107.861 188.649 108.61 185.505 108.61C179.311 108.61 174.953 106.152 172.437 101.232C172.243 100.85 172 100.656 171.712 100.656C171.423 100.656 171.275 100.801 171.275 101.09V121.268H164.741V69.9202H171.275V76.3572C171.275 76.6455 171.42 76.791 171.712 76.791C172.003 76.791 172.243 76.597 172.437 76.2144C174.95 71.2944 179.311 68.837 185.505 68.837C188.649 68.837 191.591 69.5861 194.325 71.0788C197.059 72.5715 199.284 74.8268 201.004 77.8392C202.722 80.8516 203.582 84.4837 203.582 88.7247C203.582 92.9658 202.722 96.5952 201.004 99.6076ZM193.454 78.343C191.057 75.8587 187.899 74.6166 183.981 74.6166C180.063 74.6166 176.902 75.8587 174.508 78.343C172.111 80.8273 171.232 84.287 171.232 88.722C171.232 93.1571 172.111 96.6194 174.508 99.101C176.905 101.585 180.063 102.827 183.981 102.827C187.899 102.827 191.059 101.588 193.454 99.101C195.851 96.6167 197.049 93.1571 197.049 88.722C197.049 84.287 195.851 80.8273 193.454 78.343Z" fill="#13343B"/>
</g>
<defs>
<clipPath id="clip0_2387_1561">
<rect width="404" height="97" fill="white" transform="translate(58 43)"/>
</clipPath>
</defs>
</svg>
