<svg width="520" height="182" viewBox="0 0 520 182" fill="none" xmlns="http://www.w3.org/2000/svg">
<g clip-path="url(#clip0_2388_1858)">
<path d="M231.316 74.5947H238.492C240.182 74.5947 241.805 75.2629 243.002 76.4479C243.594 77.0333 244.063 77.7293 244.383 78.4959C244.703 79.2625 244.868 80.0845 244.868 80.9147C244.868 81.7448 244.703 82.5668 244.383 83.3334C244.063 84.1 243.594 84.796 243.002 85.3814C241.805 86.5664 240.182 87.2347 238.492 87.2347H231.743C231.447 87.2355 231.163 87.3525 230.953 87.5601C230.743 87.7678 230.624 88.0494 230.622 88.344V121.784C230.622 122.864 230.407 123.934 229.99 124.931C229.573 125.928 228.961 126.833 228.191 127.594C226.632 129.136 224.523 130 222.325 129.997C220.127 129.998 218.018 129.134 216.458 127.594C215.689 126.833 215.078 125.927 214.661 124.93C214.244 123.933 214.029 122.864 214.028 121.784V72.0667C214.028 65.6084 215.959 60.48 219.825 56.688C223.687 52.8927 229.13 50.9967 236.147 51C238.528 50.9934 240.906 51.2633 243.224 51.7999C244.619 52.1159 245.975 52.5833 247.265 53.1922C247.7 53.399 248.043 53.7594 248.226 54.2034C248.409 54.6475 248.42 55.1435 248.257 55.5952L245.228 63.8638C245.09 64.2374 244.838 64.5588 244.508 64.783C244.178 65.0073 243.786 65.1233 243.386 65.1147C243.12 65.1127 242.858 65.0567 242.615 64.9501C241.084 64.2917 239.431 63.9626 237.764 63.979C232.728 63.979 230.212 66.7177 230.215 72.195V73.5084C230.221 73.7958 230.339 74.0696 230.543 74.2722C230.748 74.4749 231.027 74.5905 231.316 74.5947ZM338.831 99.45C338.831 90.9575 336.281 84.2886 331.175 79.4367C326.07 74.5947 318.976 72.172 309.899 72.1753C300.822 72.1753 293.729 74.6012 288.626 79.4433C283.521 84.2853 280.968 90.9542 280.968 99.4533V121.784C280.968 123.963 281.841 126.053 283.398 127.594C284.957 129.137 287.066 130.003 289.265 130.003C291.463 130.003 293.572 129.137 295.131 127.594C295.901 126.833 296.512 125.927 296.929 124.93C297.346 123.933 297.561 122.864 297.561 121.784V99.98C297.558 95.2894 298.587 91.7442 300.643 89.3446C302.704 86.9417 305.716 85.7435 309.684 85.7435C313.729 85.76 316.797 86.9615 318.887 89.3446C320.98 91.7278 322.025 95.2762 322.025 99.98V121.781C322.025 123.96 322.898 126.05 324.453 127.59C326.01 129.131 328.123 129.993 330.322 129.993H330.534C332.736 129.993 334.846 129.131 336.403 127.59C337.173 126.829 337.784 125.924 338.201 124.927C338.618 123.93 338.833 122.861 338.834 121.781L338.831 99.45Z" fill="black"/>
<path fill-rule="evenodd" clip-rule="evenodd" d="M400.384 105.138H362.524C362.318 105.139 362.119 105.211 361.961 105.342C361.803 105.473 361.696 105.655 361.658 105.856C361.634 105.988 361.642 106.125 361.681 106.254C362.54 109.183 364.392 111.731 366.932 113.459C369.829 115.494 373.443 116.511 377.768 116.511C380.469 116.557 383.156 116.111 385.695 115.194C386.469 114.898 387.223 114.549 387.943 114.147C390.503 112.732 394.18 113.239 396.171 115.372L396.257 115.471C396.929 116.196 397.429 117.062 397.72 118.006C398.011 118.949 398.085 119.946 397.937 120.922C397.786 121.899 397.416 122.831 396.854 123.646C396.292 124.462 395.552 125.141 394.689 125.632C390.007 128.331 384.227 129.681 377.345 129.681C370.877 129.681 365.169 128.43 360.216 125.941C355.47 123.644 351.485 120.043 348.731 115.563C346.036 111.142 344.69 106.122 344.69 100.5C344.616 95.2279 345.995 90.0364 348.678 85.4901C351.294 81.0735 355.087 77.4641 359.637 75.0621C364.283 72.5736 369.475 71.3293 375.212 71.3293C380.814 71.3293 385.887 72.5209 390.424 74.9074C394.904 77.2403 398.616 80.8064 401.118 85.1807C403.707 89.6376 405 94.8187 405 100.717V100.773C404.948 101.952 404.439 103.065 403.578 103.877C402.718 104.69 401.574 105.141 400.384 105.138ZM365.854 86.9187C363.605 88.7899 362.05 91.3566 361.436 94.2097C361.398 94.3714 361.398 94.5394 361.435 94.7011C361.473 94.8629 361.546 95.0141 361.651 95.1434C361.755 95.2727 361.888 95.3768 362.038 95.4477C362.189 95.5186 362.354 95.5545 362.521 95.5527H388.026C388.192 95.5518 388.356 95.5139 388.506 95.4416C388.655 95.3693 388.787 95.2646 388.89 95.1351C388.993 95.0056 389.066 94.8546 389.103 94.6933C389.14 94.532 389.141 94.3645 389.104 94.2031C388.467 91.3783 386.919 88.8385 384.696 86.9713C382.14 84.835 379.022 83.7685 375.338 83.7685C371.568 83.7587 368.407 84.8087 365.854 86.9187Z" fill="black"/>
<path d="M261.491 89.9667C264.976 89.9667 267.807 87.1688 267.807 83.7159C267.807 80.2629 264.976 77.465 261.491 77.465C258.005 77.465 255.178 80.2629 255.178 83.7192C255.178 87.1688 258.005 89.9667 261.491 89.9667Z" fill="black"/>
<path fill-rule="evenodd" clip-rule="evenodd" d="M261.491 72.1786C258.349 72.1852 255.34 73.4195 253.125 75.6184C252.026 76.705 251.154 77.9968 250.558 79.4197C249.962 80.8426 249.654 82.3685 249.652 83.9101V117.966C249.652 121.076 250.899 124.055 253.118 126.257C255.342 128.46 258.353 129.697 261.491 129.697C264.629 129.697 267.639 128.46 269.864 126.257C270.963 125.171 271.835 123.88 272.431 122.457C273.027 121.034 273.335 119.507 273.336 117.966V83.9101C273.329 80.7995 272.079 77.8205 269.864 75.6184C267.638 73.4168 264.628 72.1804 261.491 72.1786ZM261.491 75.6941C263.693 75.6941 265.803 76.5598 267.357 78.097C268.127 78.8586 268.738 79.7643 269.155 80.762C269.573 81.7596 269.787 82.8295 269.788 83.9101V117.966C269.787 119.046 269.572 120.115 269.155 121.112C268.738 122.109 268.127 123.014 267.357 123.775C265.798 125.318 263.689 126.184 261.491 126.184C259.292 126.184 257.183 125.318 255.624 123.775C254.855 123.014 254.244 122.109 253.827 121.112C253.41 120.115 253.195 119.046 253.194 117.966V83.9101C253.194 82.8299 253.408 81.7604 253.825 80.7632C254.243 79.766 254.854 78.861 255.624 78.1003C257.183 76.5566 259.292 75.6912 261.491 75.6941Z" fill="black"/>
<path d="M150.514 72.5275C147.764 74.9953 145.405 77.8629 143.517 81.0332C142.766 82.3037 142.095 83.6171 141.5 84.9634C138.127 85.1872 135.521 86.3624 133.679 88.4987C131.622 90.8851 130.594 94.4302 130.594 99.134V121.781C130.593 122.86 130.377 123.929 129.96 124.925C129.543 125.922 128.932 126.826 128.163 127.587C126.604 129.13 124.495 129.996 122.297 129.996C120.098 129.996 117.989 129.13 116.431 127.587C115.661 126.826 115.05 125.921 114.633 124.924C114.216 123.927 114.001 122.857 114 121.777V98.6041C114 90.1116 116.553 83.4427 121.659 78.5973C126.764 73.752 133.857 71.3293 142.935 71.3293C145.534 71.3129 148.133 71.54 150.692 72.0074L150.514 72.5275Z" fill="black"/>
<path fill-rule="evenodd" clip-rule="evenodd" d="M165.011 105.138H202.874C204.061 105.138 205.202 104.687 206.058 103.871C206.918 103.058 207.424 101.948 207.474 100.773V100.717C207.474 94.8187 206.178 89.6376 203.592 85.1807C201.089 80.8091 197.379 77.2446 192.901 74.9107C188.36 72.5209 183.291 71.3293 177.689 71.3293C171.945 71.3293 166.75 72.5736 162.104 75.0687C157.56 77.4723 153.772 81.0802 151.159 85.4934C148.476 90.0387 147.097 95.229 147.171 100.5C147.171 106.122 148.52 111.142 151.215 115.563C153.972 120.042 157.958 123.643 162.703 125.941C167.656 128.433 173.364 129.677 179.832 129.677C186.707 129.677 192.491 128.328 197.176 125.632C198.037 125.139 198.775 124.46 199.337 123.645C199.899 122.831 200.27 121.901 200.424 120.925C200.575 119.948 200.502 118.949 200.211 118.004C199.919 117.059 199.417 116.192 198.74 115.467L198.658 115.369C196.667 113.239 192.99 112.729 190.43 114.147C189.707 114.549 188.956 114.899 188.182 115.194C185.643 116.111 182.956 116.557 180.255 116.511C175.927 116.511 172.316 115.494 169.416 113.459C166.881 111.733 165.025 109.187 164.161 106.254C164.124 106.123 164.117 105.986 164.142 105.852C164.168 105.719 164.224 105.593 164.306 105.485C164.388 105.376 164.495 105.289 164.617 105.229C164.74 105.168 164.874 105.137 165.011 105.138ZM163.923 94.2097C164.536 91.3564 166.091 88.7896 168.341 86.9187C170.894 84.812 174.045 83.7587 177.798 83.7685C181.486 83.7685 184.61 84.835 187.163 86.9713C189.389 88.839 190.94 91.3797 191.581 94.2064C191.619 94.3682 191.62 94.5364 191.583 94.6985C191.546 94.8606 191.473 95.0122 191.369 95.1421C191.265 95.272 191.133 95.3767 190.982 95.4484C190.832 95.5201 190.667 95.5569 190.5 95.556H165.004C164.754 95.5552 164.511 95.4703 164.314 95.315C164.118 95.1597 163.98 94.9431 163.923 94.7002C163.885 94.5377 163.885 94.3721 163.923 94.2097Z" fill="black"/>
</g>
<defs>
<clipPath id="clip0_2388_1858">
<rect width="291" height="79" fill="white" transform="translate(114 51)"/>
</clipPath>
</defs>
</svg>
