<svg width="520" height="182" viewBox="0 0 520 182" fill="none" xmlns="http://www.w3.org/2000/svg">
<g clip-path="url(#clip0_2387_1577)">
<path d="M135.201 51V58.876H79.8815V120.967H71V51H135.201Z" fill="black"/>
<path d="M135.201 65.938V73.814H96.6553V120.967H87.7664V65.938H135.201Z" fill="black"/>
<path d="M135.201 80.8247V88.7447H113.422V120.967H104.533V80.8247H135.201Z" fill="black"/>
<path d="M160.487 80.0547C171.059 80.0547 179.941 87.0213 179.941 99.972C179.941 100.83 179.941 101.556 179.852 102.869H148.091C148.505 109.432 153.835 113.773 160.531 113.773C166.179 113.773 169.967 111.192 172.056 107.665L178.848 112.461C175.201 118.166 168.918 121.781 160.443 121.781C148.187 121.781 139.35 113.135 139.35 100.918C139.394 89.104 148.232 80.0547 160.494 80.0547M148.556 96.3933H171.022C170.063 90.6 165.375 87.476 160.177 87.476C154.98 87.476 149.745 90.4607 148.556 96.3933Z" fill="black"/>
<path d="M188.963 80.8247H197.844V86.2073C200.125 82.9953 205.042 80.0547 210.83 80.0547C221.905 80.0547 230.284 89.4267 230.284 100.918C230.284 112.409 221.897 121.781 210.83 121.781C204.998 121.781 200.074 118.797 197.844 115.577V137.709H188.963V80.8247ZM209.236 88.0627C202.038 88.0627 197.113 93.6727 197.113 100.918C197.113 108.163 202.038 113.773 209.236 113.773C216.434 113.773 221.262 108.163 221.262 100.918C221.262 93.6727 216.338 88.0627 209.236 88.0627Z" fill="black"/>
<path d="M248.239 60.7753H239.358V120.923H248.239V60.7753Z" fill="black"/>
<path d="M264.651 72.0907C261.417 72.0907 258.686 69.4653 258.686 66.1653C258.686 62.8653 261.417 60.328 264.651 60.328C267.885 60.328 270.528 62.9973 270.528 66.1653C270.528 69.4727 267.973 72.0907 264.651 72.0907ZM260.229 80.8247H269.11V120.923H260.229V80.8247Z" fill="black"/>
<path d="M299.461 121.737C287.339 121.737 278.14 112.732 278.14 100.874C278.14 89.016 287.346 80.0107 299.461 80.0107C307.796 80.0107 314.817 84.4473 318.28 91.0987L310.535 95.264C308.579 91.194 304.659 88.202 299.461 88.202C292.263 88.202 287.206 93.724 287.206 100.874C287.206 108.024 292.307 113.546 299.461 113.546C304.607 113.546 308.572 110.561 310.535 106.484L318.28 110.649C314.817 117.345 307.752 121.737 299.461 121.737Z" fill="black"/>
<path d="M342.975 80.0547C348.808 80.0547 353.636 83.0393 355.918 86.2073V80.8247H364.799V120.923H355.918V115.541C353.636 118.753 348.808 121.745 342.975 121.745C331.901 121.745 323.522 112.373 323.522 100.881C323.522 89.39 331.909 80.062 342.975 80.062M344.614 88.07C337.416 88.07 332.588 93.68 332.588 100.925C332.588 108.171 337.416 113.781 344.614 113.781C351.813 113.781 356.641 108.171 356.641 100.925C356.641 93.68 351.768 88.07 344.614 88.07Z" fill="black"/>
<path d="M380.015 120.967V88.7007H371.584V80.8247H380.015V69.6927H388.904V80.8247H404.208V88.7007H388.904V113.047H404.208V120.967H380.015Z" fill="black"/>
<path d="M429.546 80.0547C440.118 80.0547 449 87.0213 449 99.972C449 100.83 449 101.556 448.911 102.869H417.151C417.564 109.432 422.894 113.773 429.591 113.773C435.238 113.773 439.026 111.192 441.115 107.665L447.907 112.461C444.26 118.166 437.977 121.781 429.502 121.781C417.247 121.781 408.409 113.135 408.409 100.918C408.498 89.104 417.291 80.0547 429.554 80.0547M417.616 96.3933H440.082C439.122 90.6 434.434 87.476 429.236 87.476C424.039 87.476 418.849 90.4607 417.616 96.3933Z" fill="black"/>
</g>
<defs>
<clipPath id="clip0_2387_1577">
<rect width="378" height="88" fill="white" transform="translate(71 51)"/>
</clipPath>
</defs>
</svg>
