<svg width="520" height="182" viewBox="0 0 520 182" fill="none" xmlns="http://www.w3.org/2000/svg">
<path d="M181.638 70.9529L184.323 80.5" stroke="#6B81BF" stroke-width="2"/>
<path d="M146.52 83.4294C145.201 84.6647 143.653 85.4118 141.874 85.6706" stroke="#3D58A8" stroke-width="2"/>
<path d="M174.996 115.794C171.545 115.747 168.436 114.5 165.669 112.053" stroke="#8D95CA" stroke-width="2"/>
<path d="M281.286 115.441L279.979 116.941C279.864 117.073 279.717 117.173 279.552 117.232C279.387 117.292 279.21 117.308 279.035 117.28C278.861 117.252 278.696 117.18 278.555 117.072C278.415 116.963 278.303 116.821 278.23 116.659L273.16 105.259C273.065 105.038 273.049 104.791 273.115 104.56C273.181 104.329 273.325 104.127 273.522 103.99C273.72 103.853 273.959 103.788 274.199 103.807C274.439 103.826 274.665 103.928 274.839 104.094C283.165 112.424 293.051 115.024 304.498 111.894C312.235 109.759 315.592 102.012 308.473 96.3471C302.396 91.5118 278.76 88 275.669 76.4941C271.182 59.7294 299.587 60.2059 308.985 63.7C309.762 63.9941 310.434 64.0471 310.999 63.8588C311.67 63.6471 312.147 63.2588 312.43 62.6941C312.544 62.4715 312.723 62.2887 312.943 62.1698C313.163 62.051 313.414 62.0017 313.663 62.0285C313.912 62.0552 314.147 62.1568 314.337 62.3198C314.526 62.4828 314.662 62.6994 314.726 62.9412L317.217 72.6118C317.269 72.824 317.251 73.0473 317.167 73.2489C317.083 73.4505 316.936 73.6199 316.749 73.7323C316.561 73.8447 316.343 73.8942 316.125 73.8736C315.907 73.8529 315.702 73.7633 315.539 73.6177C306.706 65.6765 296.602 63.8235 285.226 68.0588C283.6 68.6706 282.605 70.0471 282.24 72.1882C279.838 86.3059 324.936 84.2059 318.913 105.718C314.903 120.012 293.14 119.147 282.982 115.035C282.311 114.776 281.746 114.912 281.286 115.441Z" fill="black"/>
<path d="M389.732 83.6059C381.959 79.1235 381.818 68.3941 389.82 64.4412C398.499 60.1588 407.921 60.0118 418.084 64C418.637 64.2235 419.155 64.1588 419.638 63.8059L421.846 62.1824C421.969 62.0921 422.112 62.0336 422.262 62.0121C422.413 61.9905 422.568 62.0065 422.712 62.0586C422.856 62.1107 422.986 62.1975 423.091 62.3113C423.196 62.4251 423.272 62.5625 423.313 62.7118L425.945 72.9471C425.99 73.1352 425.975 73.3338 425.9 73.5133C425.826 73.6929 425.696 73.8436 425.531 73.9429C425.366 74.0422 425.174 74.0849 424.985 74.0644C424.795 74.0439 424.617 73.9615 424.479 73.8294C416.718 66.6412 407.75 64.3118 397.575 66.8412C392.346 68.1294 387.647 73.3706 393.053 78.1353C399.536 83.853 413.35 86.4647 421.087 91.1059C433.028 98.2529 428.771 112.582 416.759 116.129C408.492 118.576 400.154 118.212 391.745 115.035C391.251 114.859 390.815 114.953 390.438 115.318L388.495 117.276C388.386 117.384 388.253 117.463 388.107 117.506C387.96 117.55 387.806 117.558 387.656 117.528C387.506 117.499 387.366 117.433 387.247 117.337C387.129 117.241 387.036 117.117 386.976 116.976L381.835 105.153C381.744 104.96 381.724 104.74 381.78 104.534C381.836 104.328 381.964 104.148 382.14 104.027C382.316 103.906 382.53 103.851 382.743 103.873C382.956 103.895 383.154 103.992 383.301 104.147C392.216 112.7 402.374 115.171 413.774 111.559C425.998 107.694 421.211 96.5588 411.848 93.4353C403.758 90.7294 396.385 87.453 389.732 83.6059Z" fill="black"/>
<path d="M120.853 84.1882C130.074 80.6412 128.343 70.953 119.616 68.3941C113.769 66.7 104.937 67.4059 98.7364 67.1412C98.6244 67.1364 98.5126 67.1544 98.4078 67.1939C98.3029 67.2334 98.2072 67.2938 98.1263 67.3713C98.0454 67.4488 97.9811 67.5418 97.9372 67.6448C97.8933 67.7478 97.8707 67.8586 97.8708 67.9706L97.9415 112.194C97.9415 112.865 98.23 113.382 98.807 113.747L100.892 115.053C101.019 115.139 101.116 115.263 101.168 115.407C101.22 115.552 101.225 115.709 101.182 115.857C101.139 116.004 101.05 116.134 100.927 116.227C100.805 116.321 100.657 116.373 100.503 116.376L87.2365 116.324C87.0734 116.329 86.9132 116.28 86.7818 116.183C86.6504 116.086 86.5555 115.948 86.5126 115.791C86.4696 115.634 86.4811 115.466 86.5452 115.316C86.6093 115.166 86.7221 115.043 86.8655 114.965L89.0383 113.694C89.6625 113.329 89.9746 112.788 89.9746 112.071V67.0353C89.9747 66.8627 89.9387 66.6908 89.8689 66.53C89.799 66.3693 89.6968 66.223 89.5683 66.1L87.0068 63.7177C86.2531 63.0235 86.3944 62.6765 87.4308 62.6765C96.8639 62.6941 106.35 62.9941 115.73 62.7294C138.677 62.0765 143.482 88.2824 116.825 89.6059C116.616 89.6136 116.415 89.6926 116.257 89.8299C116.099 89.9671 115.992 90.1543 115.955 90.3604C115.918 90.5664 115.952 90.779 116.053 90.9627C116.153 91.1465 116.314 91.2904 116.507 91.3706C127.407 95.8706 133.854 103.776 140.373 113.076C140.478 113.227 140.623 113.354 140.797 113.447L143.464 114.894C143.615 114.981 143.734 115.115 143.801 115.276C143.868 115.437 143.881 115.615 143.837 115.784C143.792 115.952 143.694 116.102 143.556 116.209C143.419 116.316 143.25 116.375 143.075 116.376L128.767 116.288C128.641 116.292 128.518 116.256 128.415 116.184C128.312 116.112 128.235 116.009 128.195 115.89C128.156 115.771 128.155 115.643 128.195 115.524C128.234 115.405 128.311 115.301 128.414 115.229C130.592 113.618 130.993 111.676 129.615 109.406C124.139 100.371 112.798 92.9765 102.835 89.8706C102.187 89.6706 101.763 89.2412 101.563 88.5824C101.174 87.3118 101.745 86.4353 103.276 85.953C103.555 85.8718 103.857 85.8537 104.16 85.9C110.001 86.7941 115.565 86.2235 120.853 84.1882Z" fill="black"/>
<path d="M217.71 107.2C217.779 107.322 217.88 107.423 218.002 107.493C218.124 107.562 218.262 107.598 218.404 107.596C218.546 107.594 218.685 107.555 218.809 107.482C218.932 107.41 219.034 107.306 219.106 107.182L241.187 67.0706C241.481 66.5176 241.405 66.0294 240.957 65.6059L238.767 63.5412C238.695 63.4708 238.646 63.3809 238.626 63.2825C238.607 63.1842 238.618 63.0817 238.657 62.9877C238.696 62.8938 238.763 62.8126 238.849 62.7541C238.934 62.6956 239.035 62.6625 239.138 62.6588H251.698C251.842 62.6525 251.985 62.6958 252.102 62.7817C252.219 62.8676 252.303 62.9908 252.34 63.1309C252.377 63.2711 252.365 63.4196 252.306 63.552C252.247 63.6844 252.145 63.7927 252.016 63.8588C250.161 64.9 248.641 66.0118 247.546 67.9706C238.419 84.1588 229.357 100.335 220.36 116.5C220.092 116.976 219.703 117.372 219.233 117.65C218.763 117.928 218.228 118.077 217.681 118.082C217.135 118.087 216.597 117.949 216.121 117.68C215.646 117.412 215.249 117.023 214.972 116.553C205.621 100.588 196.141 84.4588 186.531 68.1647C185.33 66.1353 183.634 65.1824 181.886 63.4706C181.821 63.4007 181.778 63.3135 181.761 63.2197C181.745 63.1259 181.756 63.0293 181.794 62.9417C181.831 62.8541 181.893 62.7791 181.972 62.7258C182.051 62.6725 182.144 62.6431 182.239 62.6412L196.018 62.6941C196.146 62.6952 196.271 62.7341 196.378 62.806C196.484 62.8778 196.567 62.9793 196.616 63.0979C196.665 63.2166 196.678 63.347 196.653 63.4729C196.628 63.5988 196.567 63.7146 196.477 63.8059L194.498 65.7647C194.074 66.2 194.015 66.6765 194.322 67.1941L217.71 107.2Z" fill="black"/>
<path d="M259.364 66.0294L256.485 63.753C256.389 63.6786 256.32 63.5765 256.285 63.4608C256.25 63.3451 256.253 63.2215 256.291 63.1071C256.33 62.9928 256.404 62.8933 256.502 62.8225C256.6 62.7516 256.717 62.713 256.838 62.7118L270.263 62.6059C270.384 62.6071 270.502 62.6457 270.6 62.7166C270.697 62.7874 270.771 62.8869 270.81 63.0013C270.849 63.1156 270.851 63.2392 270.816 63.3549C270.782 63.4706 270.712 63.5727 270.617 63.6471L267.949 65.6235C267.812 65.7216 267.7 65.8497 267.624 65.997C267.547 66.1444 267.507 66.3068 267.508 66.4706V112.406C267.508 112.935 267.731 113.341 268.179 113.624L270.599 115.124C270.726 115.203 270.823 115.322 270.876 115.462C270.929 115.602 270.935 115.755 270.893 115.899C270.851 116.042 270.764 116.168 270.644 116.258C270.524 116.347 270.378 116.395 270.228 116.394L256.52 116.288C256.332 116.288 256.202 116.2 256.131 116.024C256.072 115.859 256.019 115.7 255.972 115.547C255.956 115.502 255.949 115.454 255.951 115.406C255.954 115.358 255.967 115.311 255.988 115.268C256.01 115.225 256.04 115.187 256.077 115.156C256.113 115.125 256.156 115.102 256.202 115.088C258.887 114.288 260.106 112.653 259.859 110.182C258.534 96.9471 259.541 81.5765 259.664 66.6647C259.664 66.5433 259.637 66.4235 259.585 66.3137C259.533 66.204 259.458 66.1069 259.364 66.0294Z" fill="black"/>
<path d="M349.208 112.035V93.6823C349.208 93.0823 349.002 92.5588 348.59 92.1118C340.546 83.5471 332.432 75.0823 324.247 66.7176C323.011 65.4647 321.35 64.4765 319.778 63.8941C319.636 63.8447 319.516 63.7465 319.44 63.617C319.363 63.4874 319.335 63.335 319.36 63.1868C319.386 63.0385 319.463 62.9041 319.578 62.8075C319.694 62.7108 319.84 62.6581 319.99 62.6588H334.74C334.83 62.6592 334.917 62.6862 334.99 62.7366C335.064 62.787 335.121 62.8586 335.154 62.9427C335.188 63.0268 335.197 63.1198 335.18 63.2104C335.163 63.301 335.121 63.3852 335.058 63.4529L333.575 64.9176C333.353 65.1395 333.227 65.439 333.224 65.7523C333.221 66.0655 333.34 66.3677 333.557 66.5941L353.059 86.8176C353.872 87.6647 354.678 87.6529 355.479 86.7823C361.179 80.5471 366.908 74.2471 372.667 67.8823C373.315 67.1647 373.686 66.5412 373.78 66.0118C373.957 64.9529 373.415 64.2 372.155 63.7529C371.719 63.6 371.572 63.3 371.713 62.8529C371.76 62.6765 371.813 62.5 371.872 62.3235C371.896 62.2647 371.943 62.2353 372.014 62.2353C376.477 63 380.94 63.0353 385.404 62.3412C385.585 62.3111 385.772 62.3435 385.932 62.4331C386.093 62.5226 386.219 62.6641 386.289 62.8343C386.358 63.0045 386.368 63.1933 386.317 63.3698C386.265 63.5463 386.155 63.7001 386.004 63.8059C375.087 71.5353 366.555 82.4765 357.687 92.5353C357.391 92.8768 357.227 93.3155 357.228 93.7706L357.034 111.982C357.022 112.665 357.305 113.182 357.882 113.535L360.302 115.035C360.424 115.119 360.518 115.239 360.568 115.379C360.618 115.519 360.623 115.671 360.582 115.813C360.541 115.956 360.456 116.082 360.339 116.174C360.222 116.265 360.079 116.318 359.931 116.324L346.417 116.376C346.27 116.373 346.128 116.324 346.011 116.236C345.893 116.148 345.806 116.025 345.761 115.886C345.717 115.746 345.717 115.596 345.761 115.456C345.806 115.316 345.893 115.194 346.011 115.106L348.59 113.253C348.782 113.11 348.938 112.926 349.045 112.714C349.153 112.503 349.209 112.27 349.208 112.035Z" fill="black"/>
<path d="M181.638 70.9529L184.323 80.5C178.688 90.1 169.202 79.2294 163.779 77.7118C157.502 75.9353 151.749 77.8412 146.52 83.4294C145.201 84.6647 143.653 85.4118 141.874 85.6706C147.686 69.1882 166.199 52.9 181.638 70.9529Z" fill="#1B449D"/>
<path d="M181.638 70.9529C194.269 84.1 202.748 113.271 174.996 115.794C171.546 115.747 168.437 114.5 165.669 112.053C163.208 108.018 164.397 104.853 169.237 102.559C179.554 97.6529 187.733 94.2647 184.323 80.5L181.638 70.9529Z" fill="#BBBEE0"/>
<path d="M146.52 83.4294C151.513 82.7235 154.275 84.2059 154.805 87.8765C156.254 97.8294 152.703 108.206 165.669 112.053C168.436 114.5 171.546 115.747 174.996 115.794C155.618 120.329 128.643 111.171 141.874 85.6706C143.653 85.4118 145.201 84.6647 146.52 83.4294Z" fill="#5F6CB3"/>
<path d="M433.134 117.541L433.541 118.282C433.906 118.965 433.717 119.412 432.975 119.624C431.185 120.153 429.478 120.071 427.853 119.376C427.693 119.285 427.571 119.14 427.511 118.966C427.451 118.792 427.456 118.603 427.525 118.432C427.594 118.262 427.722 118.123 427.887 118.04C428.051 117.957 428.24 117.937 428.418 117.982C429.148 118.265 429.76 118.682 430.255 119.235C430.383 119.383 430.555 119.485 430.746 119.526C430.937 119.567 431.136 119.546 431.313 119.464C431.491 119.382 431.637 119.245 431.729 119.074C431.822 118.902 431.856 118.705 431.827 118.512L431.315 115.071C431.298 114.95 431.257 114.834 431.193 114.73C431.13 114.626 431.047 114.535 430.948 114.464C430.848 114.394 430.736 114.343 430.617 114.317C430.498 114.291 430.375 114.289 430.255 114.312L428.206 114.718C428.083 114.749 427.953 114.736 427.838 114.682C427.723 114.628 427.631 114.536 427.577 114.421C427.522 114.306 427.51 114.177 427.541 114.054C427.572 113.931 427.644 113.822 427.747 113.747C428.936 112.771 430.384 112.559 432.092 113.112C432.704 113.312 433.093 113.653 433.258 114.135C433.47 114.747 433.417 115.412 433.099 116.129C432.875 116.612 432.887 117.082 433.134 117.541Z" fill="black"/>
</svg>
