<svg width="520" height="182" viewBox="0 0 520 182" fill="none" xmlns="http://www.w3.org/2000/svg">
<path d="M197.407 75.0085H188.337V63.9822H177.5V75.0085H170.974V83.3979H177.5V108.986C177.44 117.645 183.727 121.9 191.869 121.66C194.953 121.57 197.078 120.971 198.245 120.582L196.419 112.102C195.82 112.252 194.594 112.522 193.246 112.522C190.522 112.522 188.337 111.563 188.337 107.189V83.3979H197.407V75.0085ZM206.47 121.031H217.307V75.0085H206.47V121.031ZM211.919 68.4766C215.361 68.4766 218.175 65.8399 218.175 62.604C218.175 59.338 215.361 56.7013 211.919 56.7013C208.446 56.7013 205.632 59.338 205.632 62.604C205.632 65.8399 208.446 68.4766 211.919 68.4766ZM239.287 94.065C239.287 87.4129 243.299 83.578 249.017 83.578C254.614 83.578 257.967 87.2631 257.967 93.4056V121.031H268.804V91.7278C268.834 80.7013 262.547 74.4094 253.058 74.4094C246.173 74.4094 241.443 77.7051 239.347 82.8288H238.808V75.0085H228.451V121.031H239.287V94.065ZM284.909 138.2C293.351 138.2 298.231 133.825 300.835 126.604L319.306 75.0684L307.72 75.0085L297.093 109.765H296.614L286.017 75.0085H274.522L291.196 121.99L290.268 124.477C288.203 129.57 285.089 129.96 280.359 128.612L277.845 137.031C279.312 137.661 281.946 138.2 284.909 138.2ZM327.306 121.031H337.963V113.78H338.592C340.298 117.136 343.861 121.84 351.764 121.84C362.6 121.84 370.713 113.241 370.713 98.08C370.713 82.7389 362.361 74.4094 351.734 74.4094C343.621 74.4094 340.238 79.2931 338.592 82.6191H338.143V59.6676H327.306V121.031ZM337.933 98.0201C337.933 89.0911 341.765 83.308 348.74 83.308C355.955 83.308 359.667 89.4505 359.667 98.0201C359.667 106.649 355.895 112.941 348.74 112.941C341.825 112.941 337.933 106.949 337.933 98.0201ZM379.925 121.031H390.762V75.0085H379.925V121.031ZM385.374 68.4766C388.816 68.4766 391.63 65.8399 391.63 62.604C391.63 59.338 388.816 56.7013 385.374 56.7013C381.901 56.7013 379.088 59.338 379.088 62.604C379.088 65.8399 381.901 68.4766 385.374 68.4766ZM401.906 121.031H412.743V93.9747C412.743 88.1322 417.143 83.9974 423.1 83.9974C424.926 83.9974 427.202 84.3269 428.13 84.6264V74.6491C427.142 74.4693 425.436 74.3495 424.238 74.3495C418.969 74.3495 414.569 77.3457 412.892 82.679H412.413V75.0085H401.906V121.031ZM450.499 121.84C458.404 121.84 461.965 117.136 463.672 113.78H464.33V121.031H474.985V59.6676H464.119V82.6191H463.672C462.024 79.2931 458.64 74.4094 450.529 74.4094C439.902 74.4094 431.55 82.7389 431.55 98.08C431.55 113.241 439.662 121.84 450.499 121.84ZM453.523 112.941C446.368 112.941 442.596 106.649 442.596 98.0201C442.596 89.4505 446.308 83.308 453.523 83.308C460.498 83.308 464.33 89.0911 464.33 98.0201C464.33 106.949 460.439 112.941 453.523 112.941Z" fill="#25283D"/>
<path opacity="0.6" d="M135.159 49.5444L103.579 40.875L92.4681 65.7272L135.159 49.5444Z" fill="#268472"/>
<path opacity="0.6" d="M105.46 110.557L76.6785 98.8643L59.0571 142.125L105.46 110.557Z" fill="#268472"/>
<path d="M34.0007 85.409L104.96 110.828L116.598 56.5217L34.0007 85.409Z" fill="#268472"/>
</svg>
