<svg width="520" height="182" viewBox="0 0 520 182" fill="none" xmlns="http://www.w3.org/2000/svg">
<path d="M260.902 71.25C247.025 71.25 237.018 80.3625 237.018 94.0313C237.018 107.7 248.269 116.813 262.16 116.813C270.543 116.813 277.935 113.471 282.511 107.839L272.894 102.245C270.355 105.042 266.496 106.675 262.16 106.675C256.138 106.675 251.022 103.511 249.123 98.4483H284.346C284.622 97.0308 284.786 95.5626 284.786 94.0186C284.786 80.3625 274.793 71.25 260.902 71.25ZM249.023 89.6015C250.594 84.5517 254.893 81.375 260.902 81.375C266.923 81.375 271.222 84.5517 272.782 89.6015H249.023ZM246.182 57.3281L211.349 118.078L176.505 57.3281H189.565L211.337 95.2969L233.109 57.3281H246.182ZM128.448 51L174.896 132H82L128.448 51ZM335.319 94.0313C335.319 101.625 340.247 106.688 347.89 106.688C353.069 106.688 356.953 104.321 358.952 100.461L368.606 106.067C364.608 112.775 357.116 116.813 347.89 116.813C333.999 116.813 324.006 107.7 324.006 94.0313C324.006 80.3625 334.012 71.25 347.89 71.25C357.116 71.25 364.596 75.2874 368.606 81.9951L358.952 87.6019C356.953 83.7417 353.069 81.375 347.89 81.375C340.26 81.375 335.319 86.4375 335.319 94.0313ZM439 57.3281V115.547H427.687V57.3281H439ZM396.261 71.25C382.383 71.25 372.377 80.3625 372.377 94.0313C372.377 107.7 383.64 116.813 397.518 116.813C405.902 116.813 413.294 113.471 417.869 107.839L408.253 102.245C405.714 105.042 401.854 106.675 397.518 106.675C391.496 106.675 386.38 103.511 384.482 98.4483H419.705C419.981 97.0308 420.144 95.5626 420.144 94.0186C420.144 80.3625 410.151 71.25 396.261 71.25ZM384.381 89.6015C385.953 84.5517 390.24 81.375 396.261 81.375C402.282 81.375 406.581 84.5517 408.14 89.6015H384.381ZM320.235 72.5156V84.7795C318.978 84.4125 317.645 84.1594 316.212 84.1594C308.909 84.1594 303.642 89.2219 303.642 96.8156V115.547H292.329V72.5156H303.642V84.1594C303.642 77.73 311.071 72.5156 320.235 72.5156Z" fill="black"/>
</svg>
