<svg width="520" height="182" viewBox="0 0 520 182" fill="none" xmlns="http://www.w3.org/2000/svg">
<path d="M196.291 63.9358V75.1321C192.101 67.4484 184.935 62.6184 175.783 62.6184C160.347 62.6184 148.66 75.242 148.66 91.9269C148.66 108.612 160.347 121.235 175.783 121.235C184.935 121.235 192.101 116.406 196.291 108.722V119.918H208.861V63.9358H196.291ZM178.981 105.209C169.058 105.209 161.781 99.5011 161.781 91.9269C161.781 84.3528 169.058 78.6448 178.981 78.6448C188.904 78.6448 196.291 84.3528 196.291 91.9269C196.291 99.5011 188.904 105.209 178.981 105.209Z" fill="#0061F3"/>
<path d="M254.815 62.6184C245.663 62.6184 238.497 67.1189 234.197 75.6811V63.9358H221.627V119.918H234.197V89.5121C234.197 82.9258 240.371 78.6448 249.412 78.6448C258.122 78.6448 263.746 82.8161 263.746 89.2925V119.918H276.315V83.9137C276.315 71.0707 267.715 62.6184 254.815 62.6184Z" fill="#0061F3"/>
<path d="M295.008 56.5811C300.851 56.5811 305.262 52.7392 305.262 47.6898C305.262 42.7501 300.851 38.9082 295.008 38.9082C289.274 38.9082 284.864 42.7501 284.864 47.6898C284.864 52.7392 289.274 56.5811 295.008 56.5811ZM277.477 142.092C293.244 142.092 301.403 134.627 301.403 119.259V63.9357H288.723V117.613C288.723 123.541 284.864 126.285 277.477 126.285V142.092Z" fill="#0061F3"/>
<path d="M358.77 63.9358V75.1321C354.581 67.4484 347.413 62.6184 338.262 62.6184C322.826 62.6184 311.139 75.242 311.139 91.9269C311.139 108.612 322.826 121.235 338.262 121.235C347.413 121.235 354.581 116.406 358.77 108.722V119.918H371.339V63.9358H358.77ZM341.46 105.209C331.537 105.209 324.26 99.5011 324.26 91.9269C324.26 84.3528 331.537 78.6448 341.46 78.6448C351.383 78.6448 358.77 84.3528 358.77 91.9269C358.77 99.5011 351.383 105.209 341.46 105.209Z" fill="#0061F3"/>
</svg>
