<svg width="520" height="182" viewBox="0 0 520 182" fill="none" xmlns="http://www.w3.org/2000/svg">
<path d="M289.761 122.159L286.116 121.94L280.657 121.089L277.592 120.227L274.651 119.037L272.539 117.913L270.877 116.788L269.349 115.486L267.47 113.447L265.185 110.323L263.646 107.651L262.153 104.141L260.921 100.183L260.498 97.9143L260.296 94.4737V93.7175L260.566 88.8013L261.63 82.661L262.578 79.515L264.08 76.2217L266.31 72.5448L270.768 66.8855L273.393 64.1512L275.2 62.6475L276.864 61.5468L278.658 60.6368L280.548 59.9327L282.891 59.3325L285.704 58.9252L287.757 58.8407L291.029 59.0357L296.872 60.0107L303.139 61.731L306.379 63.0202L308.448 64.1403L310.985 65.9408L315.297 69.765L318.196 72.963L320.1 75.563L321.131 77.3418L321.979 79.242L322.613 81.231L323.115 83.6902L323.348 86.21L323.359 87.0637L323.226 89.2065L322.796 91.7263L321.242 97.156L318.598 103.827L316.673 107.48L315.158 109.656L312.917 112.193L310.675 114.208L308.515 115.742L305.535 117.343L297.295 120.79L294.247 121.657L291.827 122.049L289.767 122.159H289.761ZM287.744 60.4787L285.08 60.6347L282.477 61.0983L280.336 61.7288L278.649 62.4417L277.073 63.3365L275.327 64.63L272.972 66.8833L268.061 72.9067L265.696 76.6767L264.239 79.7663L263.311 82.6978L262.242 88.6258L261.939 93.3513V94.0837L262.129 97.702L262.606 100.14L264.087 104.601L265.451 107.558L267.18 110.344L269.465 113.246L271.026 114.793L272.77 116.117L275.017 117.393L278.128 118.675L281.012 119.488L286.678 120.352L289.75 120.521L292.028 120.376L294.613 119.884L298.136 118.734L306.411 115.063L308.794 113.571L310.97 111.779L313.172 109.476L314.876 107.218L316.463 104.445L319.171 98.0552L320.996 92.1597L321.53 89.4188L321.693 87.4472L321.7 87.055L321.575 84.7107L321.19 82.4053L320.557 80.1845L319.823 78.4317L318.702 76.4513L316.664 73.704L313.315 70.1442L309.073 66.5562L306.946 65.1695L304.661 64.0602L300.48 62.6302L293.905 61.1027L289.292 60.535L287.742 60.483L287.744 60.4787ZM121.427 60.1797H136.271L157.463 118.779H140.145L136.023 106.486H119.202L118.129 109.599C117.057 112.713 116.15 115.499 116.067 118.779H100.236L121.427 60.1797ZM132.066 94.7662L127.695 81.8983L123.241 94.7662H132.064H132.066ZM156.142 106.486L169.252 96.324C171.727 103.699 176.673 107.881 181.868 107.881C184.671 107.881 186.485 106.161 186.485 103.784C186.485 94.686 158.531 98.1288 158.531 77.0667C158.531 66.1662 167.848 59.0357 178.899 59.0357C186.568 59.0357 196.217 60.5112 202.894 71.1647L189.784 80.1802C187.804 74.8523 184.259 71.0823 179.806 71.0823C177.085 71.0823 175.435 72.6402 175.435 74.77C175.435 84.442 203.306 79.359 203.306 100.833C203.306 113.291 193.245 119.93 181.783 119.93C171.227 119.93 161.744 116.405 156.137 106.488L156.142 106.486ZM241.567 94.439H225.488V118.779H209.242V60.1797H225.488V81.9807H241.567V60.1797H257.896V118.779H241.567V94.439ZM325.835 60.1797H351.81C361.953 60.1797 371.188 65.7523 371.188 75.6692C371.188 84.52 362.446 88.4547 354.86 89.6832C363.19 90.8315 369.703 94.8463 370.033 103.288C370.279 109.926 369.95 116.892 372.012 118.777H355.355C353.787 117.219 354.036 109.025 353.541 103.532C352.88 97.1408 349.17 96.0748 342.078 96.0748V118.777H325.833V60.1797H325.835ZM346.369 83.6187C351.069 83.6187 354.038 81.3242 354.038 77.8813C354.038 74.6855 351.069 72.6358 346.286 72.6358H342.081V83.6187H346.369ZM377.451 60.1797H418.764V72.638H393.696V81.9807H415.466V94.439H393.696V106.323H418.764V118.782H377.451V60.1797Z" fill="#161E10"/>
</svg>
