<svg class="h-36px tablet:h-40px" viewBox="0 0 100 40" xmlns="http://www.w3.org/2000/svg"><path d="M81.7733 6.10431H77.6621V10.2155H81.7733V6.10431Z"></path><path fill-rule="evenodd" clip-rule="evenodd" d="M65.7696 16.6603H62.1593V23.3409C62.1593 23.8977 62.2976 24.3051 62.576 24.5611C62.8544 24.819 63.2618 24.9685 63.7963 25.0115C64.3307 25.032 64.996 25.0227 65.7883 24.9797V28.7377C62.9834 29.0591 60.982 28.8012 59.7823 27.9678C58.605 27.1119 58.0164 25.5702 58.0164 23.3427V16.6621H55.2227V12.678H58.0164V9.43398L62.1593 8.18195V12.6799H68.5633V9.43585L72.7062 8.18381V12.6818H76.3353V16.6659H72.7062V23.3465C72.7062 23.9034 72.8445 24.3107 73.123 24.5667C73.4014 24.8246 73.8088 24.9741 74.3432 25.0171C74.8777 25.0377 75.5429 25.0283 76.3334 24.9853V28.7433C73.5285 29.0647 71.5271 28.8068 70.3274 27.9734C69.1501 27.1175 68.5615 25.5758 68.5615 23.3483V16.6677H65.7678L65.7696 16.6603Z"></path><path d="M81.7933 12.6742H77.6504V28.7357H81.7933V12.6742Z"></path><path fill-rule="evenodd" clip-rule="evenodd" d="M91.554 12.2572C86.8897 12.2572 83.1074 16.0395 83.1074 20.7056C83.1074 25.3718 86.8897 29.154 91.554 29.154C96.2183 29.154 100.001 25.3718 100.001 20.7056C100.001 16.0395 96.2201 12.2572 91.554 12.2572ZM91.539 25.1718C89.0648 25.1718 87.0579 23.1648 87.0579 20.6907C87.0579 18.2165 89.0648 16.2095 91.539 16.2095C94.0132 16.2095 96.0183 18.2146 96.0183 20.6907C96.0183 23.1667 94.0132 25.1718 91.539 25.1718Z"></path><path fill-rule="evenodd" clip-rule="evenodd" d="M49.7918 12.6422V13.5335C48.4968 12.7262 46.9682 12.2572 45.3294 12.2572C40.6651 12.2572 36.8828 16.0395 36.8828 20.7056C36.8828 25.3718 40.6651 29.154 45.3294 29.154C46.9682 29.154 48.4968 28.6868 49.7918 27.8777V28.7691H53.903V12.6422H49.7918ZM45.3144 25.1718C42.8402 25.1718 40.8333 23.1648 40.8333 20.6907C40.8333 18.2165 42.8402 16.2095 45.3144 16.2095C47.7886 16.2095 49.7526 18.1754 49.7918 20.6159V20.7635C49.7526 23.2041 47.7643 25.1699 45.3144 25.1699V25.1718Z"></path><path d="M29.7538 22.3617L27.2422 18.3421C27.2422 18.3421 27.2329 18.3253 27.2273 18.3178L27.0292 18.002C26.6555 17.4022 26.0089 17.0434 25.3025 17.0415L21.2568 17.0284L20.9746 17.4807L16.1403 25.2171L15.873 25.645L17.8987 28.8816C18.2725 29.4834 18.919 29.8421 19.631 29.8421H25.3007C25.9996 29.8421 26.6611 29.474 27.0311 28.8835L27.231 28.564C27.231 28.564 27.2385 28.5546 27.2404 28.5509L29.7556 24.5257C30.1686 23.8679 30.1686 23.0176 29.7556 22.3617H29.7538ZM28.9876 24.0454L26.4723 28.0706C26.4611 28.0893 26.448 28.1042 26.4368 28.1192C26.349 28.2182 26.235 28.2313 26.1846 28.2313C26.1266 28.2313 25.9846 28.2145 25.893 28.0687L23.3778 24.0436C23.3497 23.9987 23.3254 23.952 23.303 23.9015C23.2806 23.8529 23.2638 23.8044 23.2488 23.7539C23.1928 23.5521 23.1928 23.3353 23.2488 23.1335C23.2769 23.0345 23.3198 22.9354 23.3759 22.8457L25.8874 18.8243C25.8874 18.8243 25.8912 18.8187 25.893 18.8149C25.9528 18.7252 26.0276 18.6841 26.093 18.671C26.1192 18.6636 26.1416 18.6617 26.1603 18.658C26.1696 18.658 26.1789 18.658 26.1883 18.658C26.2462 18.658 26.3901 18.6766 26.4798 18.8224L28.9913 22.842C29.2212 23.2082 29.2212 23.6792 28.9913 24.0454H28.9876Z"></path><path d="M22.3217 12.6358C22.7328 11.9761 22.7328 11.1277 22.3217 10.4718L19.8101 6.45222L19.6008 6.11398C19.2252 5.51413 18.5787 5.15533 17.8685 5.15533H12.1989C11.4907 5.15533 10.8441 5.51413 10.4666 6.11585L0.313942 22.3642C0.110254 22.6894 0 23.065 0 23.4462C0 23.8274 0.108385 24.203 0.312074 24.5263L3.03478 28.886C3.41038 29.4877 4.05696 29.8446 4.76519 29.8446H10.4348C11.1468 29.8446 11.7934 29.4859 12.1671 28.8841L12.3746 28.5552C12.3746 28.5552 12.3746 28.5552 12.3746 28.5515C12.3746 28.5515 12.3783 28.5459 12.3783 28.544L14.4021 25.3074L20.4006 15.7079L22.3179 12.6376L22.3217 12.6358ZM21.7293 11.5538C21.7293 11.7612 21.6714 11.9705 21.5536 12.1555L11.6084 28.0731C11.5187 28.217 11.3748 28.2338 11.3169 28.2338C11.2589 28.2338 11.1169 28.217 11.0254 28.0731L8.51195 24.0461C8.28396 23.6817 8.28396 23.2126 8.51195 22.8445L18.4572 6.9306C18.5469 6.78484 18.6908 6.76803 18.7487 6.76803C18.8066 6.76803 18.9505 6.78484 19.0421 6.93247L21.5536 10.9521C21.6714 11.1371 21.7293 11.3463 21.7293 11.5538Z"></path></svg>