<svg width="520" height="182" viewBox="0 0 520 182" fill="none" xmlns="http://www.w3.org/2000/svg">
<path d="M146.282 118.666C130.151 118.666 118 105.87 118 90.0711C118 74.2202 129.53 61.3183 146.282 61.3183C155.176 61.3183 161.328 64.0566 166.137 70.3233L158.381 76.8006C155.124 73.325 151.194 71.5872 146.282 71.5872C135.373 71.5872 129.375 79.9603 129.375 90.0711C129.375 100.182 135.941 108.397 146.282 108.397C151.143 108.397 155.279 106.66 158.536 103.184L166.189 109.924C161.587 115.928 155.279 118.666 146.282 118.666Z" fill="#292929"/>
<path d="M199.59 76.5878H210.034V117.663H199.59V111.66C197.418 115.926 193.799 118.769 186.871 118.769C175.806 118.769 166.964 109.132 166.964 97.2837C166.964 85.4349 175.806 75.7979 186.871 75.7979C193.747 75.7979 197.418 78.6416 199.59 82.9072V76.5878ZM199.9 97.2837C199.9 90.8591 195.505 85.5402 188.577 85.5402C181.907 85.5402 177.563 90.9115 177.563 97.2837C177.563 103.498 181.907 109.027 188.577 109.027C195.454 109.027 199.9 103.656 199.9 97.2837Z" fill="#292929"/>
<path d="M217.428 60H227.872V117.611H217.428V60Z" fill="#292929"/>
<path d="M232.525 112.188C232.525 108.817 235.214 105.974 238.885 105.974C242.556 105.974 245.141 108.817 245.141 112.188C245.141 115.663 242.504 118.507 238.885 118.507C235.266 118.507 232.525 115.663 232.525 112.188Z" fill="#292929"/>
<path d="M285.109 111.028C281.231 115.768 275.337 118.769 268.357 118.769C255.896 118.769 246.744 109.132 246.744 97.2837C246.744 85.4349 255.896 75.7979 268.357 75.7979C275.078 75.7979 280.921 78.6416 284.799 83.1178L276.733 89.9111C274.716 87.3833 272.079 85.4876 268.357 85.4876C261.687 85.4876 257.344 90.8591 257.344 97.231C257.344 103.603 261.687 108.974 268.357 108.974C272.39 108.974 275.182 106.868 277.25 104.024L285.109 111.028Z" fill="#292929"/>
<path d="M285.988 97.2837C285.988 85.4349 295.14 75.7979 307.6 75.7979C320.061 75.7979 329.213 85.4349 329.213 97.2837C329.213 109.132 320.061 118.769 307.6 118.769C295.14 118.717 285.988 109.132 285.988 97.2837ZM318.613 97.2837C318.613 90.8591 314.27 85.5402 307.6 85.5402C300.931 85.4876 296.587 90.8591 296.587 97.2837C296.587 103.656 300.931 109.027 307.6 109.027C314.27 109.027 318.613 103.656 318.613 97.2837Z" fill="#292929"/>
<path d="M399.84 92.5449V117.612H389.397V95.1253C389.397 88.0161 386.088 84.9617 381.125 84.9617C376.471 84.9617 373.162 87.2788 373.162 95.1253V117.612H362.718V95.1253C362.718 88.0161 359.357 84.9617 354.445 84.9617C349.791 84.9617 345.707 87.2788 345.707 95.1253V117.612H335.262V76.536H345.707V82.2234C347.878 77.7998 351.808 75.5881 357.857 75.5881C363.597 75.5881 368.405 78.4318 371.042 83.2239C373.679 78.3264 377.557 75.5881 384.588 75.5881C393.171 75.6407 399.84 82.1707 399.84 92.5449Z" fill="#292929"/>
</svg>
