<svg width="520" height="182" viewBox="0 0 520 182" fill="none" xmlns="http://www.w3.org/2000/svg">
<g clip-path="url(#clip0_2387_1784)">
<path d="M89.0546 137C114.49 137 135.109 116.405 135.109 91C135.109 65.5949 114.49 45 89.0546 45C63.6193 45 43 65.5949 43 91C43 116.405 63.6193 137 89.0546 137Z" fill="#47A7F6"/>
<path d="M108.269 111.27H86.9179C75.1482 111.27 65.5698 101.703 65.5698 89.9438C65.5698 78.1888 75.1482 68.6212 86.9181 68.6212C98.6911 68.6212 108.269 78.1888 108.269 89.9438V111.27Z" fill="white" stroke="white" stroke-width="6"/>
<path d="M174.864 92.4102C174.086 91.2187 172.919 90.2214 171.363 89.4185C169.807 88.6155 168.147 88.214 166.384 88.214C164.465 88.214 162.766 88.5766 161.288 89.3019C159.81 90.0272 158.552 90.9985 157.515 92.2159C156.477 93.4333 155.686 94.845 155.142 96.451C154.597 98.0569 154.325 99.7406 154.325 101.502C154.325 103.263 154.597 104.947 155.142 106.553C155.686 108.159 156.477 109.571 157.515 110.788C158.552 112.005 159.823 112.977 161.327 113.702C162.831 114.427 164.543 114.79 166.462 114.79C168.329 114.79 170.028 114.427 171.558 113.702C173.088 112.977 174.345 111.992 175.331 110.749L180.232 115.178C178.676 116.992 176.731 118.403 174.397 119.413C172.063 120.424 169.418 120.929 166.462 120.929C163.609 120.929 160.977 120.463 158.565 119.53C156.153 118.598 154.066 117.289 152.302 115.606C150.539 113.922 149.151 111.889 148.14 109.506C147.129 107.123 146.623 104.455 146.623 101.502C146.623 98.6009 147.116 95.9588 148.101 93.5758C149.086 91.1928 150.461 89.1465 152.224 87.4369C153.988 85.7274 156.075 84.4064 158.487 83.4739C160.899 82.5414 163.505 82.0751 166.306 82.0751C168.899 82.0751 171.48 82.5932 174.047 83.6293C176.615 84.6654 178.65 86.1677 180.154 88.1363L174.864 92.4102ZM195.092 88.6802C195.974 86.8671 197.478 85.3129 199.604 84.0178C201.731 82.7227 204.117 82.0751 206.762 82.0751C209.148 82.0751 211.196 82.4766 212.908 83.2796C214.62 84.0826 216.046 85.1575 217.187 86.5044C218.328 87.8514 219.171 89.4314 219.715 91.2446C220.26 93.0578 220.532 95.0004 220.532 97.0726V119.919H213.219V99.5593C213.219 98.0569 213.102 96.6323 212.869 95.2854C212.636 93.9384 212.208 92.7469 211.585 91.7108C210.963 90.6747 210.12 89.8459 209.057 89.2242C207.994 88.6025 206.606 88.2917 204.895 88.2917C201.99 88.2917 199.604 89.3925 197.737 91.5943C195.87 93.796 194.936 96.7359 194.936 100.414V119.919H187.623V61.1719H194.936V88.6802H195.092ZM255.853 96.0624C255.853 93.3168 255.023 91.2834 253.364 89.9624C251.704 88.6414 249.5 87.9809 246.751 87.9809C244.676 87.9809 242.718 88.3824 240.877 89.1853C239.036 89.9883 237.493 91.0115 236.248 92.2548L232.358 87.5923C234.173 85.8828 236.39 84.5359 239.01 83.5516C241.629 82.5673 244.443 82.0751 247.451 82.0751C250.096 82.0751 252.391 82.4507 254.336 83.2019C256.281 83.9531 257.876 84.9762 259.121 86.2713C260.366 87.5664 261.299 89.0947 261.922 90.856C262.544 92.6174 262.855 94.5083 262.855 96.5287V112.614C262.855 113.857 262.894 115.165 262.972 116.538C263.05 117.911 263.192 119.038 263.4 119.919H256.787C256.372 118.157 256.164 116.396 256.164 114.634H255.931C254.583 116.603 252.884 118.131 250.835 119.219C248.786 120.307 246.362 120.851 243.561 120.851C242.109 120.851 240.592 120.657 239.01 120.268C237.428 119.88 235.988 119.245 234.692 118.364C233.395 117.484 232.319 116.318 231.463 114.868C230.607 113.417 230.179 111.63 230.179 109.506C230.179 106.708 230.932 104.494 232.436 102.862C233.94 101.23 235.911 99.9867 238.348 99.1319C240.786 98.2771 243.535 97.7202 246.595 97.4612C249.655 97.2021 252.741 97.0726 255.853 97.0726V96.0624ZM254.064 102.357C252.249 102.357 250.368 102.434 248.423 102.59C246.478 102.745 244.715 103.056 243.133 103.522C241.551 103.989 240.242 104.688 239.204 105.62C238.167 106.553 237.648 107.796 237.648 109.35C237.648 110.438 237.869 111.345 238.31 112.07C238.75 112.795 239.334 113.391 240.06 113.857C240.786 114.324 241.59 114.647 242.472 114.829C243.354 115.01 244.261 115.101 245.195 115.101C248.618 115.101 251.25 114.078 253.091 112.031C254.933 109.985 255.853 107.408 255.853 104.299V102.357H254.064ZM292.341 89.0688H282.539V108.262C282.539 110.49 282.953 112.083 283.783 113.041C284.613 114 285.936 114.479 287.751 114.479C288.425 114.479 289.151 114.401 289.929 114.246C290.707 114.091 291.408 113.857 292.03 113.547L292.263 119.53C291.382 119.841 290.409 120.087 289.346 120.268C288.283 120.45 287.181 120.54 286.039 120.54C282.564 120.54 279.906 119.582 278.065 117.665C276.224 115.748 275.303 112.873 275.303 109.04V89.0688H268.223V83.0853H275.303V72.5171H282.539V83.0853H292.341V89.0688ZM306.748 83.0853L315.073 111.215H315.229L324.02 83.0853H331.722L340.669 111.215H340.825L349.149 83.0853H356.851L344.637 119.919H337.012L327.91 92.2548H327.754L318.73 119.919H311.105L298.813 83.0853H306.748ZM401.508 101.424C401.508 104.274 401.003 106.89 399.991 109.273C398.98 111.656 397.579 113.715 395.79 115.45C394.001 117.186 391.887 118.533 389.449 119.491C387.012 120.45 384.392 120.929 381.592 120.929C378.791 120.929 376.172 120.45 373.734 119.491C371.296 118.533 369.196 117.186 367.432 115.45C365.669 113.715 364.281 111.656 363.27 109.273C362.258 106.89 361.753 104.274 361.753 101.424C361.753 98.575 362.258 95.9718 363.27 93.6147C364.281 91.2575 365.669 89.2242 367.432 87.5146C369.196 85.8051 371.296 84.4711 373.734 83.5127C376.172 82.5543 378.791 82.0751 381.592 82.0751C384.392 82.0751 387.012 82.5543 389.449 83.5127C391.887 84.4711 394.001 85.8051 395.79 87.5146C397.579 89.2242 398.98 91.2575 399.991 93.6147C401.003 95.9718 401.508 98.575 401.508 101.424ZM393.884 101.424C393.884 99.6629 393.612 97.9792 393.067 96.3733C392.522 94.7673 391.731 93.3556 390.694 92.1382C389.657 90.9208 388.373 89.9495 386.843 89.2242C385.313 88.4989 383.562 88.1363 381.592 88.1363C379.621 88.1363 377.87 88.4989 376.34 89.2242C374.81 89.9495 373.526 90.9208 372.489 92.1382C371.452 93.3556 370.661 94.7673 370.116 96.3733C369.572 97.9792 369.299 99.6629 369.299 101.424C369.299 103.186 369.572 104.869 370.116 106.475C370.661 108.081 371.452 109.506 372.489 110.749C373.526 111.992 374.81 112.977 376.34 113.702C377.87 114.427 379.621 114.79 381.592 114.79C383.562 114.79 385.313 114.427 386.843 113.702C388.373 112.977 389.657 111.992 390.694 110.749C391.731 109.506 392.522 108.081 393.067 106.475C393.612 104.869 393.884 103.186 393.884 101.424ZM448.966 101.424C448.966 104.274 448.46 106.89 447.449 109.273C446.437 111.656 445.037 113.715 443.248 115.45C441.458 117.186 439.345 118.533 436.907 119.491C434.469 120.45 431.85 120.929 429.049 120.929C426.248 120.929 423.629 120.45 421.192 119.491C418.754 118.533 416.653 117.186 414.89 115.45C413.126 113.715 411.739 111.656 410.727 109.273C409.716 106.89 409.21 104.274 409.21 101.424C409.21 98.575 409.716 95.9718 410.727 93.6147C411.739 91.2575 413.126 89.2242 414.89 87.5146C416.653 85.8051 418.754 84.4711 421.192 83.5127C423.629 82.5543 426.248 82.0751 429.049 82.0751C431.85 82.0751 434.469 82.5543 436.907 83.5127C439.345 84.4711 441.458 85.8051 443.248 87.5146C445.037 89.2242 446.437 91.2575 447.449 93.6147C448.46 95.9718 448.966 98.575 448.966 101.424ZM441.342 101.424C441.342 99.6629 441.069 97.9792 440.525 96.3733C439.98 94.7673 439.189 93.3556 438.152 92.1382C437.114 90.9208 435.831 89.9495 434.301 89.2242C432.771 88.4989 431.02 88.1363 429.049 88.1363C427.078 88.1363 425.328 88.4989 423.798 89.2242C422.268 89.9495 420.984 90.9208 419.947 92.1382C418.909 93.3556 418.118 94.7673 417.574 96.3733C417.029 97.9792 416.757 99.6629 416.757 101.424C416.757 103.186 417.029 104.869 417.574 106.475C418.118 108.081 418.909 109.506 419.947 110.749C420.984 111.992 422.268 112.977 423.798 113.702C425.328 114.427 427.078 114.79 429.049 114.79C431.02 114.79 432.771 114.427 434.301 113.702C435.831 112.977 437.114 111.992 438.152 110.749C439.189 109.506 439.98 108.081 440.525 106.475C441.069 104.869 441.342 103.186 441.342 101.424ZM477.129 89.0688H467.327V108.262C467.327 110.49 467.742 112.083 468.571 113.041C469.401 114 470.724 114.479 472.539 114.479C473.213 114.479 473.94 114.401 474.717 114.246C475.495 114.091 476.196 113.857 476.818 113.547L477.052 119.53C476.17 119.841 475.197 120.087 474.134 120.268C473.071 120.45 471.969 120.54 470.828 120.54C467.352 120.54 464.694 119.582 462.853 117.665C461.012 115.748 460.091 112.873 460.091 109.04V89.0688H453.011V83.0853H460.091V72.5171H467.327V83.0853H477.129V89.0688Z" fill="#334456" stroke="#334456" stroke-width="4"/>
</g>
<defs>
<clipPath id="clip0_2387_1784">
<rect width="435" height="92" fill="white" transform="translate(43 45)"/>
</clipPath>
</defs>
</svg>
