<svg width="520" height="182" viewBox="0 0 520 182" fill="none" xmlns="http://www.w3.org/2000/svg">
<g clip-path="url(#clip0_2387_1761)">
<path d="M163.718 68.1291H150.238C149.992 66.3948 149.49 64.8543 148.73 63.5075C147.971 62.1405 146.997 60.9774 145.807 60.0184C144.617 59.0594 143.242 58.3249 141.683 57.8148C140.144 57.3047 138.472 57.0496 136.667 57.0496C133.405 57.0496 130.563 57.8556 128.142 59.4675C125.721 61.059 123.844 63.3851 122.51 66.4458C121.177 69.486 120.51 73.1792 120.51 77.5252C120.51 81.9939 121.177 85.7483 122.51 88.7886C123.865 91.8286 125.752 94.1242 128.173 95.6749C130.594 97.2258 133.394 98.0011 136.574 98.0011C138.359 98.0011 140.011 97.7664 141.529 97.2971C143.068 96.8278 144.432 96.1441 145.622 95.2466C146.812 94.3284 147.797 93.2164 148.577 91.9105C149.377 90.6043 149.931 89.115 150.238 87.4418L163.718 87.5031C163.369 90.3802 162.497 93.1551 161.102 95.8281C159.727 98.4804 157.87 100.858 155.532 102.959C153.213 105.041 150.444 106.693 147.222 107.917C144.022 109.121 140.401 109.723 136.359 109.723C130.738 109.723 125.711 108.458 121.279 105.928C116.868 103.398 113.381 99.7353 110.816 94.9405C108.272 90.1454 107 84.3402 107 77.5252C107 70.6899 108.293 64.8746 110.878 60.0796C113.463 55.2846 116.971 51.6323 121.403 49.1225C125.834 46.5924 130.82 45.3273 136.359 45.3273C140.011 45.3273 143.396 45.8374 146.515 46.8576C149.654 47.8779 152.434 49.3674 154.854 51.3262C157.276 53.2646 159.245 55.6417 160.763 58.4575C162.302 61.2733 163.287 64.4972 163.718 68.1291Z" fill="black"/>
<path d="M180.071 81.6879V108.866H166.96V46.1843H179.701V70.1492H180.255C181.322 67.3742 183.046 65.2011 185.425 63.63C187.805 62.0384 190.79 61.2427 194.381 61.2427C197.663 61.2427 200.525 61.9568 202.967 63.3851C205.429 64.793 207.337 66.8233 208.691 69.4758C210.065 72.108 210.743 75.2604 210.722 78.9333V108.866H197.612V81.2593C197.633 78.3618 196.894 76.1071 195.397 74.4953C193.919 72.8833 191.847 72.0774 189.18 72.0774C187.395 72.0774 185.815 72.4549 184.441 73.2098C183.086 73.9648 182.02 75.0666 181.24 76.5154C180.481 77.9435 180.091 79.6677 180.071 81.6879Z" fill="black"/>
<path d="M236.515 109.784C231.653 109.784 227.468 108.805 223.959 106.846C220.472 104.867 217.784 102.072 215.896 98.4601C214.009 94.8283 213.065 90.5331 213.065 85.5748C213.065 80.739 214.009 76.4948 215.896 72.8425C217.784 69.1902 220.441 66.3437 223.867 64.3033C227.314 62.2629 231.355 61.2427 235.992 61.2427C239.111 61.2427 242.014 61.7426 244.701 62.7424C247.409 63.7218 249.769 65.2011 251.78 67.1803C253.811 69.1596 255.39 71.6489 256.519 74.6483C257.647 77.6274 258.211 81.1164 258.211 85.1158V88.6967H218.297V80.6165H245.871C245.871 78.7395 245.461 77.0763 244.64 75.6279C243.819 74.179 242.68 73.0466 241.224 72.2304C239.788 71.3938 238.116 70.9755 236.208 70.9755C234.218 70.9755 232.453 71.4347 230.914 72.3528C229.396 73.2506 228.206 74.4647 227.344 75.9949C226.483 77.5049 226.042 79.1884 226.021 81.0451V88.7273C226.021 91.0533 226.452 93.0632 227.314 94.7567C228.196 96.4502 229.437 97.7563 231.037 98.6745C232.638 99.5927 234.535 100.052 236.731 100.052C238.187 100.052 239.521 99.8475 240.732 99.4395C241.942 99.0316 242.978 98.4194 243.84 97.6032C244.701 96.7869 245.358 95.7871 245.809 94.6038L257.934 95.3994C257.319 98.2969 256.057 100.827 254.149 102.99C252.262 105.132 249.82 106.805 246.825 108.009C243.85 109.193 240.413 109.784 236.515 109.784Z" fill="black"/>
<path d="M282.058 109.784C277.216 109.784 273.052 108.764 269.564 106.724C266.096 104.663 263.429 101.806 261.562 98.154C259.716 94.5016 258.792 90.2983 258.792 85.5441C258.792 80.7287 259.726 76.5051 261.593 72.8731C263.481 69.2208 266.158 66.3744 269.625 64.3339C273.093 62.2731 277.216 61.2427 281.997 61.2427C286.12 61.2427 289.731 61.9875 292.829 63.4769C295.927 64.9665 298.379 67.0579 300.185 69.7513C301.99 72.4447 302.985 75.6072 303.17 79.2394H290.798C290.449 76.8928 289.526 75.0054 288.029 73.5771C286.551 72.1284 284.613 71.404 282.212 71.404C280.181 71.404 278.406 71.955 276.888 73.0568C275.39 74.1382 274.221 75.7195 273.38 77.8006C272.539 79.8821 272.118 82.4019 272.118 85.3606C272.118 88.36 272.528 90.9104 273.349 93.0122C274.19 95.1137 275.37 96.7156 276.888 97.8173C278.406 98.9193 280.181 99.4702 282.212 99.4702C283.71 99.4702 285.054 99.1641 286.244 98.552C287.454 97.9399 288.449 97.0523 289.229 95.8893C290.029 94.7057 290.552 93.2876 290.798 91.6348H303.17C302.964 95.2259 301.98 98.3888 300.215 101.123C298.471 103.837 296.061 105.959 292.983 107.489C289.906 109.019 286.264 109.784 282.058 109.784Z" fill="black"/>
<path d="M317.376 95.3382L317.407 79.6983H319.315L334.456 61.8548H349.505L329.163 85.4829H326.055L317.376 95.3382ZM305.497 108.866V46.1843H318.607V108.866H305.497ZM335.041 108.866L321.13 88.3906L329.871 79.1781L350.397 108.866H335.041Z" fill="black"/>
<path d="M362.98 46.1843V108.866H349.87V46.1843H362.98Z" fill="black"/>
<path d="M363.662 61.8553L377.449 105.129L384.442 85.4829L377.449 61.8553H363.662Z" fill="black"/>
<path fill-rule="evenodd" clip-rule="evenodd" d="M383.635 135.673H369.831L348.468 116.28H366.606L375.44 123.924L397.384 61.6774H412.003L383.635 135.673Z" fill="#0075FF"/>
</g>
<defs>
<clipPath id="clip0_2387_1761">
<rect width="305" height="91" fill="white" transform="translate(107 45)"/>
</clipPath>
</defs>
</svg>
