<svg width="265" height="70" viewBox="0 0 265 70" fill="none" xmlns="http://www.w3.org/2000/svg">
<path fill-rule="evenodd" clip-rule="evenodd" d="M233.481 35.711C233.929 34.5994 234.404 33.4749 234.905 32.3374C235.491 31.005 236.068 29.7526 236.637 28.5801C236.85 27.9405 237.09 27.372 237.356 26.8746C237.623 26.3771 237.898 25.8264 238.182 25.2224C238.253 25.1513 238.502 25.0803 238.928 25.0092C239.355 24.9382 239.879 24.876 240.501 24.8227C241.122 24.7694 241.789 24.7516 242.499 24.7694C243.21 24.7872 243.885 24.8493 244.525 24.9559C245.164 25.0625 245.724 25.2135 246.203 25.4089C246.683 25.6044 246.994 25.862 247.136 26.1817C246.852 26.7147 246.408 27.5141 245.804 28.5801C245.2 29.646 244.578 30.8185 243.938 32.0976C243.299 33.3767 242.704 34.7002 242.153 36.0681C241.602 37.4361 241.256 38.6708 241.114 39.7722C240.865 41.3356 240.838 42.4193 241.034 43.0233C241.229 43.6273 241.558 43.8938 242.02 43.8227C242.482 43.7517 243.032 43.3964 243.672 42.7568C244.311 42.1172 244.951 41.3356 245.59 40.4118C246.763 38.0312 247.74 36.0504 248.522 34.4693C249.303 32.8881 249.978 31.5469 250.547 30.4454C251.115 29.344 251.586 28.4291 251.959 27.7007C252.332 26.9723 252.714 26.2706 253.105 25.5955C253.638 25.4178 254.287 25.2757 255.05 25.1691C255.814 25.0625 256.587 25.0359 257.369 25.0892C258.151 25.1425 258.888 25.2668 259.581 25.4622C260.274 25.6577 260.78 25.9685 261.1 26.3949L259.874 29.2196C259.376 30.3921 258.835 31.6712 258.248 33.0569C257.662 34.4426 257.058 35.8461 256.436 37.2673C255.814 38.6885 255.219 40.0831 254.651 41.451C254.082 42.819 253.567 44.0714 253.105 45.2084C253.46 44.9242 253.825 44.5689 254.198 44.1425C254.571 43.7161 255.006 43.1299 255.504 42.3837C256.001 41.6376 256.623 40.6783 257.369 39.5057C258.115 38.3332 259.039 36.841 260.14 35.0289C260.709 34.0695 261.322 33.5011 261.979 33.3234C262.636 33.1457 263.205 33.1902 263.684 33.4566C264.164 33.7231 264.493 34.1317 264.67 34.6825C264.848 35.2332 264.741 35.775 264.351 36.308C263.569 37.7292 262.681 39.2659 261.686 40.9181C260.691 42.5703 259.616 44.1247 258.461 45.5815C257.307 47.0383 256.099 48.2996 254.837 49.3655C253.576 50.4314 252.306 51.0888 251.027 51.3375C250.707 52.6521 250.254 54.0556 249.668 55.5479C249.081 57.0402 248.433 58.5147 247.722 59.9714C247.012 61.4282 246.274 62.8316 245.51 64.1818C244.747 65.532 244.027 66.7223 243.352 67.7526C242.855 68.5343 242.197 69.1028 241.38 69.4581C240.563 69.8134 239.737 69.9733 238.902 69.9378C238.067 69.9023 237.276 69.6802 236.53 69.2716C235.784 68.863 235.233 68.2501 234.878 67.4329C234.558 66.5091 234.478 65.5764 234.638 64.6348C234.798 63.6933 235.127 62.7517 235.624 61.8101C236.122 60.8686 236.734 59.927 237.463 58.9854C238.191 58.0439 238.946 57.1112 239.728 56.1874C240.296 55.5123 240.838 54.8639 241.353 54.2421C241.869 53.6203 242.348 52.9896 242.792 52.3501C243.237 51.7105 243.636 51.0355 243.992 50.3248C244.347 49.6142 244.631 48.8503 244.844 48.0331C244.24 48.6016 243.618 49.1168 242.979 49.5787C242.339 50.0406 241.664 50.4225 240.954 50.7246C240.243 51.0266 239.488 51.2131 238.689 51.2842C237.889 51.3552 237.045 51.2664 236.157 51.0177C234.274 50.5203 232.942 49.5876 232.16 48.2196C231.939 47.8327 231.756 47.4222 231.612 46.9884C231.063 47.7413 230.456 48.4271 229.788 49.0457C229.06 49.7208 228.251 50.2804 227.363 50.7246C226.475 51.1687 225.48 51.3908 224.379 51.3908C222.531 51.142 221.154 50.4314 220.248 49.2589C219.591 48.4078 219.101 47.4491 218.781 46.3828C218.515 46.7131 218.249 47.0323 217.983 47.3403C216.846 48.6549 215.682 49.6853 214.492 50.4314C213.302 51.1776 212.085 51.5507 210.841 51.5507C210.237 51.5507 209.438 51.3286 208.443 50.8844C207.448 50.4403 206.373 49.8629 205.219 49.1523C204.064 48.4417 202.927 47.6423 201.808 46.754C200.689 45.8657 199.72 44.9775 198.903 44.0892C198.512 45.2262 198.21 46.5941 197.997 48.193C197.784 49.7919 197.926 51.8349 198.423 54.322C197.038 54.0378 195.874 53.6736 194.933 53.2295C193.991 52.7853 193.209 52.3234 192.588 51.8438C191.966 51.3641 191.486 50.9022 191.149 50.4581C190.811 50.0139 190.589 49.6498 190.482 49.3655C190.252 48.7099 190.09 47.999 189.997 47.2329C189.529 47.7508 189.051 48.2485 188.564 48.726C187.675 49.5432 186.556 50.1916 185.206 50.6713C183.856 51.1509 182.399 51.3908 180.836 51.3908C179.77 51.3908 178.722 51.2398 177.691 50.9377C176.661 50.6357 175.702 50.2094 174.813 49.6586C173.925 49.1079 173.143 48.4417 172.468 47.66C172.09 47.2217 171.767 46.7498 171.5 46.2444C171.292 46.4727 171.082 46.6958 170.869 46.9139C169.555 48.2641 168.125 49.3477 166.579 50.165C165.033 50.9822 163.319 51.3908 161.436 51.3908C160.583 51.3908 159.677 51.2753 158.718 51.0443C157.759 50.8134 156.853 50.4758 156 50.0317C155.147 49.5876 154.383 49.028 153.708 48.3529C153.208 47.8529 152.815 47.2945 152.53 46.6776C152.164 47.1379 151.793 47.5719 151.416 47.9798C150.137 49.3655 148.76 50.3959 147.286 51.071C145.811 51.7461 144.133 51.9237 142.249 51.6039C141.468 51.4618 140.819 51.2398 140.304 50.9377C139.789 50.6357 139.371 50.2982 139.052 49.9251C138.732 49.552 138.492 49.1434 138.332 48.6993C138.172 48.2552 138.075 47.8022 138.039 47.3403C137.968 46.452 138.03 45.4838 138.226 44.4356C138.421 43.3875 138.679 42.3304 138.998 41.2645C139.318 40.1986 139.673 39.1593 140.064 38.1467C140.455 37.1341 140.81 36.2192 141.13 35.4019C141.414 34.5847 141.628 33.9363 141.77 33.4566C141.912 32.977 141.93 32.6483 141.823 32.4707C141.716 32.293 141.459 32.2486 141.05 32.3374C140.642 32.4263 140.047 32.6306 139.265 32.9503C138.377 33.3412 137.577 33.9452 136.867 34.7624C136.156 35.5796 135.534 36.5478 135.001 37.667C134.468 38.7863 134.015 39.9765 133.642 41.2379C133.269 42.4992 132.985 43.7605 132.789 45.0219C132.594 46.2832 132.478 47.4913 132.443 48.646C132.407 49.8008 132.443 50.7867 132.55 51.6039C131.093 51.1776 129.894 50.8223 128.952 50.538C128.01 50.2538 127.247 49.9607 126.66 49.6586C126.074 49.3566 125.648 49.028 125.381 48.6727C125.115 48.3174 124.91 47.8555 124.768 47.287C124.832 46.4599 124.942 45.5776 125.098 44.6402C124.607 45.1968 124.088 45.7415 123.543 46.2743C122.05 47.7311 120.416 49.0102 118.639 50.1117C116.863 51.2131 114.98 52.0836 112.99 52.7232C111 53.3627 108.993 53.6825 106.967 53.6825C104.836 53.6825 102.686 53.2917 100.519 52.51C98.3512 51.7283 96.4059 50.5913 94.6827 49.099C92.9594 47.6067 91.5649 45.7858 90.499 43.6362C89.433 41.4866 88.9356 39.0261 89.0067 36.2547C89.0777 34.5847 89.4419 32.8526 90.0992 31.0583C90.7566 29.264 91.6448 27.4875 92.764 25.7287C93.8833 23.9699 95.1979 22.2467 96.7079 20.559C98.218 18.8713 99.8346 17.2902 101.558 15.8157C103.281 14.3411 105.084 13.0087 106.967 11.8184C108.851 10.6282 110.751 9.62443 112.67 8.80722C114.766 7.99001 116.854 7.43929 118.932 7.15504C121.011 6.8708 122.867 6.97739 124.502 7.47482C126.136 7.97225 127.451 8.95822 128.446 10.4328C129.441 11.9073 129.92 13.9947 129.885 16.695C129.849 18.4716 129.361 20.177 128.419 21.8115C127.478 23.4459 126.323 24.8937 124.955 26.1551C123.587 27.4164 122.112 28.4202 120.531 29.1663C118.95 29.9125 117.52 30.2855 116.241 30.2855C115.672 30.2855 115.006 30.1079 114.242 29.7526C113.478 29.3973 112.706 28.9176 111.924 28.3136C113.736 27.2476 115.335 25.9508 116.721 24.423C118.106 22.8951 119.119 21.4206 119.758 19.9994C120.576 17.7965 120.78 16.2953 120.371 15.4959C119.963 14.6964 119.199 14.3589 118.08 14.4833C116.96 14.6076 115.61 15.0962 114.029 15.9489C112.448 16.8016 110.911 17.7876 109.419 18.9068C107.927 20.026 106.594 21.1808 105.422 22.3711C104.249 23.5613 103.503 24.5473 103.183 25.329C102.117 26.6436 101.238 28.0737 100.545 29.6193C99.8524 31.1649 99.3816 32.7105 99.1329 34.2561C98.8842 35.8017 98.8664 37.3028 99.0796 38.7596C99.2928 40.2164 99.7902 41.5132 100.572 42.6502C101.354 43.7872 102.437 44.7021 103.823 45.395C105.209 46.0878 106.932 46.4698 108.993 46.5408C110.521 46.6119 112.19 46.1944 114.003 45.2884C115.815 44.3823 117.68 43.2098 119.599 41.7708C121.517 40.3318 123.436 38.7152 125.355 36.9209C126.146 36.1811 126.919 35.4488 127.673 34.7241C127.812 34.2955 127.954 33.8641 128.099 33.43C128.97 30.8362 129.929 28.2425 130.977 25.6488C132.025 23.055 133.091 20.639 134.175 18.4005C135.259 16.1621 136.316 14.199 137.346 12.5113C138.377 10.8236 139.283 9.60667 140.064 8.86052C140.42 8.54074 141.095 8.36309 142.09 8.32756C143.084 8.29203 144.07 8.37197 145.047 8.56739C146.025 8.76281 146.86 9.04705 147.552 9.42013C148.245 9.7932 148.467 10.2107 148.219 10.6726C147.863 11.3121 147.392 12.1116 146.806 13.0709C146.22 14.0302 145.598 15.0695 144.941 16.1887C144.284 17.3079 143.6 18.4627 142.889 19.653C142.178 20.8433 141.521 21.9891 140.917 23.0906C140.313 24.192 139.78 25.1958 139.318 26.1018C138.856 27.0078 138.536 27.7451 138.359 28.3136C140.171 26.466 141.921 25.2846 143.608 24.7694C145.296 24.2542 146.691 24.3608 147.792 25.0892C148.894 25.8175 149.595 27.1322 149.897 29.0331C150.199 30.934 149.889 33.3412 148.965 36.2547C148.432 37.8891 148.059 39.1149 147.845 39.9321C147.632 40.7493 147.472 41.4066 147.366 41.9041C147.224 42.6502 147.206 43.1299 147.313 43.3431C147.419 43.5562 147.615 43.5829 147.899 43.423C148.183 43.2631 148.529 42.97 148.938 42.5436C149.347 42.1172 149.764 41.6021 150.191 40.998C150.617 40.4651 151.043 39.9055 151.47 39.3192C151.778 38.8954 152.072 38.4903 152.352 38.1036C152.369 38.0557 152.385 38.0079 152.402 37.9602C152.704 37.1074 153.051 36.2902 153.442 35.5085C154.188 34.0518 155.076 32.6927 156.106 31.4314C157.137 30.17 158.256 29.0686 159.464 28.127C160.672 27.1855 161.916 26.4393 163.195 25.8886C164.474 25.3379 165.717 25.0625 166.925 25.0625C169.057 25.0625 170.594 25.4267 171.536 26.1551C172.477 26.8835 172.957 27.8161 172.975 28.9531C172.992 30.0901 172.628 31.3514 171.882 32.7371C171.136 34.1228 170.177 35.4908 169.004 36.8409C167.832 38.1911 166.499 39.4258 165.007 40.545C163.515 41.6642 162.04 42.5259 160.583 43.1299C160.619 44.0892 160.796 44.7998 161.116 45.2617C161.436 45.7236 161.853 46.0079 162.369 46.1145C162.884 46.221 163.47 46.1766 164.127 45.9812C164.785 45.7858 165.433 45.4749 166.073 45.0485C166.712 44.6932 167.378 44.1336 168.071 43.3697C168.764 42.6058 169.466 41.7708 170.177 40.8648C170.275 40.7393 170.373 40.6132 170.47 40.4863C170.63 38.9426 171.03 37.4344 171.669 35.9616C172.308 34.487 173.152 33.0925 174.2 31.7778C175.249 30.4632 176.412 29.3084 177.691 28.3136C178.97 27.3187 180.329 26.5282 181.768 25.9419C183.207 25.3556 184.638 25.0625 186.059 25.0625C186.698 25.0625 187.365 25.1425 188.057 25.3023C188.75 25.4622 189.399 25.7109 190.003 26.0485C190.607 26.386 191.113 26.8124 191.522 27.3276C191.93 27.8428 192.17 28.4557 192.241 29.1663C192.277 29.8769 192.17 30.6497 191.921 31.4847C191.673 32.3197 191.362 33.128 190.989 33.9097C190.616 34.6913 190.234 35.4019 189.843 36.0415C189.452 36.6811 189.15 37.1785 188.937 37.5338C188.617 37.8536 188.12 38.1822 187.444 38.5198C186.769 38.8573 185.97 39.0261 185.046 39.0261C184.478 39.0261 183.891 38.9106 183.287 38.6797C182.683 38.4487 182.177 38.1112 181.768 37.667C181.36 37.2229 181.111 36.6811 181.022 36.0415C180.933 35.4019 181.156 34.6913 181.688 33.9097C182.293 33.128 182.95 32.6217 183.66 32.3907C184.371 32.1598 185.064 31.9555 185.739 31.7778C185.739 31.6357 185.792 31.458 185.899 31.2449C186.005 31.0317 186.085 30.8007 186.139 30.552C186.192 30.3033 186.201 30.0812 186.165 29.8858C186.13 29.6904 185.988 29.5394 185.739 29.4328H185.792C185.188 29.113 184.513 29.193 183.767 29.6726C183.021 30.1523 182.301 30.8718 181.609 31.8311C180.916 32.7904 180.294 33.9185 179.743 35.2154C179.192 36.5123 178.819 37.818 178.624 39.1327C178.429 40.4473 178.464 41.6909 178.731 42.8634C178.997 44.0359 179.61 44.9952 180.569 45.7414H180.516C181.44 46.3099 182.204 46.5497 182.808 46.4609C183.412 46.372 184.14 46.0789 184.993 45.5815C185.561 45.2262 186.165 44.6932 186.805 43.9826C187.444 43.272 188.111 42.4637 188.804 41.5576C189.496 40.6516 190.198 39.6656 190.909 38.5997C190.925 38.5749 190.942 38.55 190.958 38.5251C191.435 36.7242 192.04 34.866 192.774 32.9503C193.591 30.8185 194.48 28.7133 195.439 26.6347C196.398 24.5562 197.393 22.5576 198.423 20.6389C199.454 18.7203 200.431 16.9704 201.355 15.3893C202.279 13.8082 203.105 12.4402 203.833 11.2855C204.561 10.1307 205.121 9.30465 205.512 8.80722C205.938 8.45191 206.498 8.22985 207.191 8.14102C207.883 8.05219 208.594 8.06996 209.322 8.19432C210.051 8.31867 210.726 8.54962 211.348 8.88717C211.97 9.22471 212.423 9.60666 212.707 10.033C212.565 10.566 212.272 11.3388 211.827 12.3514C211.383 13.364 210.841 14.4921 210.202 15.7357C209.562 16.9793 208.887 18.2673 208.177 19.5997C207.466 20.9321 206.8 22.1845 206.178 23.357C205.556 24.5296 205.023 25.5422 204.579 26.3949C204.135 27.2477 203.86 27.8161 203.753 28.1004C204.783 27.3187 205.894 26.6436 207.084 26.0751C208.274 25.5066 209.527 25.2224 210.841 25.2224C212.618 25.2224 214.066 25.6754 215.185 26.5815C216.304 27.4875 216.953 28.7755 217.13 30.4454C217.237 31.9377 216.944 33.3856 216.251 34.789C215.558 36.1925 214.581 37.4538 213.32 38.5731C212.058 39.6923 210.584 40.6072 208.896 41.3178C207.208 42.0284 205.405 42.4548 203.487 42.5969L206.684 44.5955C207.679 45.2173 208.745 45.4394 209.882 45.2617C211.161 45.0841 212.307 44.6843 213.32 44.0626C214.332 43.4408 215.265 42.6857 216.118 41.7975C216.97 40.9092 217.761 39.9232 218.489 38.8395C218.574 38.7138 218.658 38.5879 218.743 38.4619C218.965 37.3372 219.245 36.2817 219.582 35.2954C220.754 32.3818 221.891 29.6193 222.993 27.0078C224.094 24.3963 225.16 22.0069 226.191 19.8395C227.221 17.6721 228.18 15.7446 229.069 14.0569C229.957 12.3692 230.774 10.9568 231.52 9.81985C231.733 9.57113 232.302 9.36683 233.226 9.20694C234.15 9.04705 235.136 8.96711 236.184 8.96711C237.232 8.96711 238.2 9.04705 239.088 9.20694C239.977 9.36683 240.492 9.64219 240.634 10.033C240.527 10.4594 240.314 11.0279 239.994 11.7385C239.675 12.4491 239.284 13.2663 238.822 14.1901C238.36 15.1139 237.845 16.1177 237.276 17.2013C236.708 18.285 236.104 19.4131 235.464 20.5856C232.337 26.5548 229.513 32.8259 226.99 39.3992C226.706 40.0387 226.493 40.7404 226.351 41.5043C226.208 42.2683 226.191 42.8812 226.297 43.3431C226.404 43.805 226.653 44.0181 227.043 43.9826C227.434 43.9471 228.038 43.4497 228.855 42.4903C229.282 41.9574 229.753 41.3445 230.268 40.6516C230.783 39.9588 231.272 39.2482 231.733 38.5198C232.195 37.7914 232.631 37.0985 233.039 36.4412C233.202 36.1795 233.349 35.9361 233.481 35.711ZM160.317 37.9602C160.814 37.6759 161.383 37.3117 162.022 36.8676C162.662 36.4235 163.337 35.8461 164.048 35.1355C164.758 34.4959 165.344 33.7675 165.806 32.9503C166.268 32.1331 166.57 31.4403 166.712 30.8718C166.854 30.3033 166.792 29.9569 166.526 29.8325C166.259 29.7082 165.771 30.0013 165.06 30.7119C164.598 31.1738 164.127 31.7334 163.648 32.3907C163.168 33.048 162.715 33.7054 162.289 34.3627C161.862 35.02 161.472 35.6418 161.116 36.228C160.761 36.8143 160.494 37.2673 160.317 37.5871V37.9602ZM206.311 32.3641C205.885 32.7549 205.423 33.2435 204.926 33.8297C204.428 34.416 203.931 35.0555 203.433 35.7484C202.936 36.4412 202.456 37.1696 201.994 37.9335C201.532 38.6974 201.124 39.4524 200.768 40.1986C202.261 39.9854 203.513 39.6301 204.526 39.1327C205.538 38.6352 206.356 38.0579 206.977 37.4006C207.599 36.7432 208.035 36.0682 208.283 35.3753C208.532 34.6824 208.639 34.0518 208.603 33.4833C208.496 32.3463 208.265 31.7068 207.91 31.5646C207.555 31.4225 207.022 31.689 206.311 32.3641Z" fill="#555555"/>
<path fill-rule="evenodd" clip-rule="evenodd" d="M63.9492 13.3756C63.7548 12.9765 63.4715 12.6119 63.049 12.3791C62.584 12.1244 62.0758 12.0813 61.5998 12.1661L61.566 12.148C54.4113 13.3844 47.1924 18.836 42.8378 27.1919C38.1465 36.1959 38.0787 46.0826 41.9002 52.8483C49.5774 52.2236 57.593 46.588 62.2843 37.584C66.6566 29.2011 67.0079 20.0599 63.9492 13.3756Z" fill="#828D8C"/>
<path fill-rule="evenodd" clip-rule="evenodd" d="M61.5518 13.0885C54.5023 14.3756 47.6542 19.9299 43.6453 27.6234C39.4012 35.7683 38.9378 45.2054 42.4101 51.8698C49.8019 51.0107 57.2348 45.2974 61.477 37.1527C65.5338 29.3744 66.1633 20.4137 63.1204 13.7636C62.992 13.5018 62.8228 13.3069 62.6125 13.1913C62.3699 13.056 62.0562 13.0198 61.7586 13.076C61.6874 13.0866 61.616 13.0957 61.5518 13.0885ZM41.9003 53.7725C41.5743 53.7725 41.2711 53.5957 41.1088 53.3068C36.9666 45.9743 37.3193 35.8025 42.0305 26.7606C46.3957 18.383 53.6412 12.5795 61.4128 11.2365C61.486 11.222 61.5625 11.2202 61.6375 11.2274C62.2808 11.1497 62.928 11.2635 63.4823 11.5667C64.0312 11.8681 64.4626 12.3393 64.7674 12.9674C68.0542 20.1483 67.409 29.7391 63.0918 38.0156C58.3809 47.0555 50.2886 53.0936 41.9735 53.7689C41.9484 53.7707 41.9252 53.7725 41.9003 53.7725Z" fill="#121716"/>
<path fill-rule="evenodd" clip-rule="evenodd" d="M60.6 17.2981C62.5929 18.3866 64.3627 19.7026 65.851 21.143C65.6409 18.3487 65.0168 15.7077 63.9492 13.3756C63.7547 12.9765 63.4714 12.6119 63.0489 12.3791C62.5839 12.1244 62.0757 12.0813 61.5998 12.1661L61.566 12.148C59.0991 12.5758 56.6322 13.5362 54.2686 14.908C56.3631 15.3739 58.5162 16.1607 60.6 17.2981Z" fill="#121716"/>
<path fill-rule="evenodd" clip-rule="evenodd" d="M49.4117 19.3343C47.5081 21.2297 45.6917 23.374 44.0215 25.7642C47.5472 25.5185 51.442 26.3833 54.9711 28.4789C58.4808 30.5585 61.117 33.5623 62.6284 36.779C63.8602 34.1001 64.7961 31.4142 65.4734 28.7823C63.6392 26.3688 61.2683 24.2261 58.4112 22.5294C55.5021 20.8001 52.44 19.7601 49.4117 19.3343Z" fill="#121716"/>
<path fill-rule="evenodd" clip-rule="evenodd" d="M40.3191 30.685C39.1143 33.0459 38.1 35.4072 37.2749 37.7466C40.5599 37.6671 44.0232 38.5244 47.1336 40.4505C50.2779 42.3858 51.6825 45.33 53.1155 48.359C55.9478 46.9744 57.3328 44.3245 58.8406 42.1365C57.028 38.9398 54.4168 36.1111 51.0087 34.0099C47.6094 31.9087 43.9431 30.8601 40.3191 30.685Z" fill="#121716"/>
<path fill-rule="evenodd" clip-rule="evenodd" d="M14.4576 4.82638C17.4432 7.84812 18.2434 11.9404 16.2435 13.9639C14.2455 15.9874 10.2046 15.1788 7.22081 12.1552C4.23703 9.13349 3.4366 5.04121 5.43468 3.01772C7.43295 0.994231 11.4736 1.80463 14.4576 4.82638Z" fill="#828D8C"/>
<path fill-rule="evenodd" clip-rule="evenodd" d="M12.4788 6.83195C13.9779 8.34463 14.4554 10.3212 13.5518 11.2347C12.6429 12.1534 10.6945 11.6696 9.19743 10.1533C7.70196 8.63698 7.22421 6.66584 8.12961 5.74873C9.03699 4.83 10.9816 5.31564 12.4788 6.83195Z" fill="#121716"/>
<path fill-rule="evenodd" clip-rule="evenodd" d="M8.35436 2.82826C7.69649 2.82826 6.76783 2.97443 6.07994 3.67108C4.46856 5.30296 5.28668 8.88987 7.86588 11.5019C9.50569 13.1626 11.5449 14.1536 13.3221 14.1536C13.9798 14.1536 14.9102 14.0074 15.5983 13.3105C16.3433 12.5561 16.6017 11.3628 16.3256 9.94933C16.0224 8.40061 15.1295 6.81383 13.8122 5.47974C12.1724 3.81907 10.1331 2.82826 8.35436 2.82826ZM13.3221 16.0019C11.0707 16.0019 8.5486 14.8087 6.57538 12.8086C3.18343 9.3735 2.39911 4.7849 4.78944 2.36417C5.6843 1.45792 6.91595 0.979736 8.35436 0.979736C10.6055 0.979736 13.1277 2.17289 15.1027 4.17303C16.6731 5.76141 17.7425 7.68584 18.1151 9.59014C18.5143 11.6281 18.0777 13.4134 16.8888 14.6175C15.994 15.5237 14.7605 16.0019 13.3221 16.0019Z" fill="#121716"/>
<path fill-rule="evenodd" clip-rule="evenodd" d="M41.9002 4.82638C38.9147 7.84812 38.1142 11.9404 40.1143 13.9639C42.1124 15.9874 46.1532 15.1788 49.137 12.1552C52.1208 9.13349 52.921 5.04121 50.923 3.01772C48.9249 0.994231 44.884 1.80463 41.9002 4.82638Z" fill="#828D8C"/>
<path fill-rule="evenodd" clip-rule="evenodd" d="M43.8786 6.83195C42.3796 8.34463 41.9018 10.3212 42.8054 11.2347C43.7144 12.1534 45.6628 11.6696 47.16 10.1533C48.6555 8.63698 49.1332 6.66584 48.2279 5.74873C47.3205 4.83 45.3759 5.31564 43.8786 6.83195Z" fill="#121716"/>
<path fill-rule="evenodd" clip-rule="evenodd" d="M42.5453 5.47974C41.228 6.81383 40.3349 8.40061 40.0319 9.94933C39.7556 11.3628 40.014 12.5561 40.7592 13.3105C41.4473 14.0074 42.3777 14.1536 43.0354 14.1536C44.8126 14.1536 46.8516 13.1626 48.4916 11.5019C51.0706 8.88987 51.8889 5.30296 50.2775 3.67108C49.5895 2.97443 48.6608 2.82826 48.0031 2.82826C46.2241 2.82826 44.1851 3.81907 42.5453 5.47974ZM39.4687 14.6175C38.2798 13.4134 37.843 11.6281 38.2424 9.59014C38.615 7.68584 39.6844 5.76141 41.2546 4.17303C43.2296 2.17289 45.7518 0.979736 48.0031 0.979736C49.4415 0.979736 50.6732 1.45792 51.5678 2.36417C53.9584 4.7849 53.1739 9.3735 49.7819 12.8086C47.8087 14.8087 45.2867 16.0019 43.0354 16.0019C41.597 16.0019 40.3635 15.5237 39.4687 14.6175Z" fill="#121716"/>
<path fill-rule="evenodd" clip-rule="evenodd" d="M48.3312 12.3413C43.6255 5.76866 36.3781 0.979736 28.1789 0.979736C19.9796 0.979736 12.7321 5.76866 8.02638 12.3413C2.30116 20.3342 -1.01583 31.6651 2.39023 41.2502C5.27441 49.3697 12.1991 55.5397 20.3413 57.8899C22.8867 58.6264 25.5319 58.9929 28.1789 58.9929C30.8257 58.9929 33.4709 58.6264 36.0163 57.8899C44.1585 55.5397 51.0833 49.3697 53.9675 41.2502C57.3738 31.6651 54.0566 20.3342 48.3312 12.3413Z" fill="#828D8C"/>
<path fill-rule="evenodd" clip-rule="evenodd" d="M50.2757 15.9785C49.9496 14.6662 49.1208 13.4207 48.349 12.3413C47.3651 10.9657 46.2636 9.67671 45.0711 8.48537C40.8163 6.41678 35.9538 6.42041 32.2463 8.95289C30.314 10.2743 28.9595 12.1192 28.1788 14.222C27.3981 12.1192 26.0433 10.2743 24.1113 8.95289C20.4036 6.42041 15.541 6.41678 11.2864 8.48537C10.094 9.67671 8.99234 10.9657 8.00862 12.3413C7.23662 13.4207 6.40777 14.6662 6.08172 15.9785C5.74115 17.345 5.25108 19.1791 5.3153 20.5617C5.42047 22.8109 6.79466 24.4681 8.60923 25.6577C9.05298 25.95 13.7998 29.6289 13.3577 29.8907C13.6929 29.6919 14.1154 29.4501 14.5857 29.1993V29.6199C16.3077 28.6035 18.8101 27.358 20.4857 27.5529L20.507 27.5565C20.5553 27.562 20.5945 27.5837 20.6408 27.5928C21.1024 27.7154 21.507 27.9429 21.8172 28.3256C22.5337 29.2083 22.5979 30.2281 22.3484 31.2191C22.5337 31.082 22.6995 30.9087 22.8796 30.7625C22.86 31.4448 22.7067 31.9629 22.7067 31.9629L22.3947 32.4068C24.2324 32.759 26.1628 32.9521 28.1609 32.9521H28.1716H28.1895C30.1946 32.9521 32.125 32.759 33.9629 32.4068L33.6509 31.9629C33.6509 31.9629 33.4976 31.4448 33.478 30.7625C33.6579 30.9087 33.8237 31.082 34.0092 31.2191C33.7597 30.2281 33.8237 29.2083 34.5404 28.3256C34.8504 27.9429 35.2551 27.7154 35.7168 27.5928C35.7631 27.5837 35.8025 27.562 35.8506 27.5565L35.8719 27.5529C37.5473 27.358 40.0499 28.6035 41.7718 29.6199V29.1993C42.2422 29.4501 42.6647 29.6919 42.9999 29.8907C42.5578 29.6289 47.3044 25.95 47.7482 25.6577C49.5627 24.4681 50.9371 22.8109 51.0423 20.5617C51.1065 19.1791 50.6162 17.345 50.2757 15.9785Z" fill="#EDEDEA"/>
<path fill-rule="evenodd" clip-rule="evenodd" d="M28.1788 36.7194C21.2682 36.7194 15.6694 43.7017 15.6694 52.3158C15.6694 54.036 15.9012 55.6842 16.313 57.2311C17.0687 57.4603 17.8174 57.7075 18.5928 57.8899C21.7066 58.6264 24.9419 58.9929 28.1788 58.9929C31.4156 58.9929 34.6509 58.6264 37.7649 57.8899C38.5401 57.7075 39.2888 57.4603 40.0445 57.2311C40.4563 55.6842 40.6881 54.036 40.6881 52.3158C40.6881 43.7017 35.0893 36.7194 28.1788 36.7194Z" fill="#EDEDEA"/>
<path fill-rule="evenodd" clip-rule="evenodd" d="M29.5902 22.5833C29.282 22.6846 28.9594 22.7352 28.6367 22.7621C28.6617 22.7062 28.7079 22.6629 28.7079 22.5997V21.3469C28.7651 21.3018 28.8276 21.2712 28.8773 21.2098L29.8469 20.0221C30.2302 19.5527 30.0503 19.1682 29.4477 19.1682H26.9096C26.307 19.1682 26.1271 19.5527 26.5102 20.0221L27.4798 21.2098C27.5655 21.3163 27.6689 21.3902 27.774 21.448V22.5997C27.774 22.6629 27.8186 22.7062 27.8418 22.7621C27.519 22.7331 27.1983 22.6826 26.8917 22.5833C26.4959 22.4553 25.6778 21.9751 25.5654 22.7207V22.856C25.5654 24.3489 26.7563 25.5584 28.2375 25.562H28.2444C29.7258 25.5584 30.9163 24.3489 30.9163 22.856C30.9163 22.8109 30.9163 22.7658 30.9163 22.7207C30.8042 21.9751 29.986 22.4553 29.5902 22.5833Z" fill="#121716"/>
<path fill-rule="evenodd" clip-rule="evenodd" d="M28.1788 1.90389C20.8369 1.90389 13.7605 5.90598 8.76614 12.8845C2.47768 21.6628 0.31201 32.674 3.24947 40.9379C5.94796 48.5376 12.5931 54.6932 20.5909 57.002C25.4891 58.4171 30.8704 58.4171 35.7649 57.002C43.7646 54.6932 50.4095 48.5376 53.108 40.9379C56.0457 32.674 53.88 21.6628 47.5933 12.8845C42.597 5.90598 35.5208 1.90389 28.1788 1.90389ZM28.1788 59.917C25.4231 59.917 22.7013 59.5345 20.0899 58.7781C11.4078 56.2726 4.47038 49.8375 1.53113 41.5627C-2.27435 30.8545 2.01067 19.1664 7.28856 11.7979C12.6305 4.3353 20.2452 0.0555725 28.1788 0.0555725C36.1125 0.0555725 43.7272 4.3353 49.0709 11.7979C54.347 19.1664 58.632 30.8545 54.8265 41.5627C51.8873 49.8375 44.9499 56.2726 36.266 58.7781C33.6563 59.5345 30.9344 59.917 28.1788 59.917Z" fill="#121716"/>
<path fill-rule="evenodd" clip-rule="evenodd" d="M20.8457 11.879C20.0757 11.4584 19.2166 11.2454 18.2913 11.2454C15.7103 11.2454 13.1401 13.4406 11.8798 14.917C9.76067 17.3992 7.79998 22.3921 11.8532 24.1051C13.3184 24.7244 14.9332 24.9121 16.509 24.9409C18.5214 24.9805 20.6727 24.9338 22.261 23.4968C23.8722 22.0383 24.1325 19.6556 23.9828 17.5868C23.7885 14.9007 22.6744 12.8718 20.8457 11.879Z" fill="#121716"/>
<path fill-rule="evenodd" clip-rule="evenodd" d="M20.9422 16.1934C20.9136 15.8396 20.5305 15.4496 20.3058 15.2474C19.805 14.8051 19.165 14.5597 18.5002 14.5597C18.29 14.5597 18.0743 14.583 17.855 14.6301C17.0067 14.8105 16.2936 15.3286 15.8997 16.0524C15.75 16.3268 15.4951 16.8739 15.5609 17.1862C15.6162 17.4461 15.8588 17.6247 16.1065 17.6698C16.4361 17.7312 16.5645 17.5742 16.7214 17.3036C16.7516 17.251 16.7836 17.1968 16.8194 17.1393C17.297 16.3901 17.9709 15.9785 18.7177 15.9785C19.1366 15.9785 19.3915 16.1011 19.7712 16.3558C20.0207 16.5238 20.2935 16.8612 20.6321 16.6806C20.8762 16.5489 20.9565 16.3774 20.9422 16.1934Z" fill="#FFFFFE"/>
<path fill-rule="evenodd" clip-rule="evenodd" d="M35.5117 11.879C36.2817 11.4584 37.1408 11.2454 38.0659 11.2454C40.6471 11.2454 43.2171 13.4406 44.4774 14.917C46.5967 17.3992 48.5574 22.3921 44.5042 24.1051C43.039 24.7244 41.424 24.9121 39.8484 24.9409C37.836 24.9805 35.6847 24.9338 34.0964 23.4968C32.485 22.0383 32.2247 19.6556 32.3745 17.5868C32.5689 14.9007 33.6828 12.8718 35.5117 11.879Z" fill="#121716"/>
<path fill-rule="evenodd" clip-rule="evenodd" d="M35.4156 16.1934C35.4442 15.8396 35.8276 15.4496 36.052 15.2474C36.553 14.8051 37.1928 14.5597 37.8576 14.5597C38.068 14.5597 38.2837 14.583 38.503 14.6301C39.3513 14.8105 40.0645 15.3286 40.4583 16.0524C40.608 16.3268 40.8629 16.8739 40.7971 17.1862C40.7416 17.4461 40.4995 17.6247 40.2513 17.6698C39.9217 17.7312 39.7935 17.5742 39.6366 17.3036C39.6062 17.251 39.5742 17.1968 39.5386 17.1393C39.0609 16.3901 38.3873 15.9785 37.6403 15.9785C37.2212 15.9785 36.9666 16.1011 36.5868 16.3558C36.3373 16.5238 36.0645 16.8612 35.726 16.6806C35.4816 16.5489 35.4015 16.3774 35.4156 16.1934Z" fill="#FFFFFE"/>
<path fill-rule="evenodd" clip-rule="evenodd" d="M10.0654 33.0226C9.82309 33.0226 9.58054 32.9251 9.40062 32.732C9.05468 32.3601 9.07258 31.7752 9.43978 31.4249C9.64834 31.2264 11.52 29.461 12.8478 28.8129C13.2987 28.5946 13.8461 28.7841 14.0652 29.2444C14.2845 29.7028 14.0938 30.2553 13.6391 30.4772C12.7301 30.9213 11.2027 32.2842 10.6911 32.7717C10.5146 32.9396 10.2899 33.0226 10.0654 33.0226Z" fill="#121716"/>
<path fill-rule="evenodd" clip-rule="evenodd" d="M20.9691 27.1558C18.4504 25.6216 14.5272 27.7587 13.1691 28.5981C12.0496 28.0421 11.0623 27.2297 10.1585 26.3688C9.06936 25.3327 8.38485 24.6809 7.65779 23.3199C7.48661 23.0672 7.21921 22.8795 6.89296 22.8795C5.82533 22.8795 5.84322 24.024 6.26729 24.6991C7.57568 26.7785 9.06936 28.1253 11.0889 29.5007C11.6575 29.887 12.2581 30.2444 12.8981 30.5007C13.176 30.6127 13.4987 30.5839 13.75 30.4142C14.8624 29.665 18.3899 27.748 20.0315 28.7408C20.83 29.2262 21.256 29.8943 21.297 30.7264C21.3701 32.2264 20.183 34.0496 18.1207 35.6056C16.0032 37.2032 12.2653 37.6526 9.03378 36.7013C6.73252 36.0244 3.66861 34.3601 2.13556 30.2859C1.95742 29.8057 1.42441 29.5675 0.959183 29.7515C0.486803 29.9321 0.251607 30.4665 0.431533 30.9431C1.83615 34.678 4.70959 37.353 8.52402 38.4759C9.83221 38.8621 11.1994 39.0497 12.5363 39.0497C15.0815 39.0497 17.5145 38.3694 19.2114 37.0895C21.8014 35.1344 23.2256 32.7826 23.1187 30.6344C23.0473 29.1902 22.2845 27.9556 20.9691 27.1558Z" fill="#121716"/>
<path fill-rule="evenodd" clip-rule="evenodd" d="M46.292 33.0226C46.5343 33.0226 46.7769 32.9251 46.9568 32.732C47.3025 32.3601 47.2846 31.7752 46.9176 31.4249C46.7091 31.2264 44.8374 29.461 43.5096 28.8129C43.0587 28.5946 42.5115 28.7841 42.292 29.2444C42.0729 29.7028 42.2636 30.2553 42.7181 30.4772C43.6273 30.9213 45.1548 32.2842 45.6663 32.7717C45.8426 32.9396 46.0673 33.0226 46.292 33.0226Z" fill="#121716"/>
<path fill-rule="evenodd" clip-rule="evenodd" d="M35.3886 27.1558C37.9071 25.6216 41.8305 27.7587 43.1886 28.5981C44.3081 28.0421 45.2956 27.2297 46.199 26.3688C47.2883 25.3327 47.9727 24.6809 48.7001 23.3199C48.8711 23.0672 49.1385 22.8795 49.4645 22.8795C50.5322 22.8795 50.5147 24.024 50.0904 24.6991C48.782 26.7785 47.2883 28.1253 45.2688 29.5007C44.7 29.887 44.0996 30.2444 43.4596 30.5007C43.1815 30.6127 42.859 30.5839 42.6075 30.4142C41.4953 29.665 37.9678 27.748 36.3262 28.7408C35.5278 29.2262 35.1017 29.8943 35.0605 30.7264C34.9876 32.2264 36.1747 34.0496 38.237 35.6056C40.3545 37.2032 44.0924 37.6526 47.3239 36.7013C49.6252 36.0244 52.6891 34.3601 54.2219 30.2859C54.4001 29.8057 54.9331 29.5675 55.3985 29.7515C55.8707 29.9321 56.1061 30.4665 55.926 30.9431C54.5216 34.678 51.6483 37.353 47.8337 38.4759C46.5253 38.8621 45.1583 39.0497 43.8214 39.0497C41.276 39.0497 38.843 38.3694 37.1461 37.0895C34.5562 35.1344 33.1321 32.7826 33.239 30.6344C33.3102 29.1902 34.073 27.9556 35.3886 27.1558Z" fill="#121716"/>
<path fill-rule="evenodd" clip-rule="evenodd" d="M14.5092 45.9797C17.5003 49.0087 18.1634 53.2544 15.9852 55.4585C13.807 57.6644 9.61461 56.9982 6.62367 53.9674C3.63273 50.9348 2.96969 46.6927 5.15146 44.4868C7.32608 42.2793 11.5184 42.9489 14.5092 45.9797Z" fill="#828D8C"/>
<path fill-rule="evenodd" clip-rule="evenodd" d="M13.5021 49.4926C15.1455 51.1605 15.4165 53.5901 14.1029 54.9221C12.7874 56.2546 10.3845 55.9838 8.73934 54.3159C7.09237 52.6462 6.82159 50.2146 8.13694 48.8823C9.45228 47.5502 11.8551 47.8244 13.5021 49.4926Z" fill="#EDEDEA"/>
<path fill-rule="evenodd" clip-rule="evenodd" d="M8.50238 44.1095C7.39539 44.1095 6.46137 44.4652 5.79654 45.1403C4.95357 45.9924 4.61658 47.283 4.85019 48.774C5.09791 50.3716 5.95698 51.9836 7.26895 53.314C9.78572 55.8664 13.5948 56.5758 15.34 54.805C16.1811 53.9529 16.5163 52.6641 16.2845 51.173C16.035 49.5737 15.1759 47.9617 13.864 46.6333C12.3043 45.0538 10.3008 44.1095 8.50238 44.1095ZM12.6305 57.6842C10.3241 57.6842 7.89998 56.5667 5.97845 54.6207C4.3955 53.0178 3.35471 51.0413 3.04635 49.0611C2.7201 46.9707 3.23881 45.1134 4.50624 43.8334C5.51859 42.8046 6.89995 42.2611 8.50238 42.2611C10.807 42.2611 13.2331 43.3784 15.1545 45.3262C16.7374 46.9293 17.7782 48.9022 18.0866 50.8842C18.4128 52.9748 17.8959 54.8319 16.6303 56.1121C15.6143 57.1407 14.2312 57.6842 12.6305 57.6842Z" fill="#121716"/>
<path fill-rule="evenodd" clip-rule="evenodd" d="M41.8486 45.9797C38.8576 49.0087 38.1946 53.2544 40.3728 55.4585C42.551 57.6644 46.7432 56.9982 49.7343 53.9674C52.7252 50.9348 53.3883 46.6927 51.2065 44.4868C49.0319 42.2793 44.8395 42.9489 41.8486 45.9797Z" fill="#828D8C"/>
<path fill-rule="evenodd" clip-rule="evenodd" d="M42.8555 49.4926C41.2123 51.1605 40.9411 53.5901 42.2551 54.9221C43.5704 56.2546 45.9731 55.9838 47.6183 54.3159C49.2652 52.6462 49.5362 50.2146 48.2207 48.8823C46.9053 47.5502 44.5025 47.8244 42.8555 49.4926Z" fill="#EDEDEA"/>
<path fill-rule="evenodd" clip-rule="evenodd" d="M42.4937 46.6333C41.1818 47.9617 40.3227 49.5737 40.073 51.173C39.8414 52.6641 40.1766 53.9529 41.0178 54.805C42.7627 56.5758 46.5718 55.8664 49.0888 53.314C50.4005 51.9836 51.2598 50.3716 51.5075 48.774C51.7409 47.283 51.4042 45.9924 50.561 45.1403C49.8962 44.4652 48.9621 44.1095 47.8553 44.1095C46.0569 44.1095 44.0534 45.0538 42.4937 46.6333ZM39.7273 56.1121C38.4618 54.8319 37.9449 52.9748 38.2712 50.8842C38.5793 48.9022 39.6205 46.9293 41.2033 45.3262C43.1248 43.3784 45.5507 42.2611 47.8553 42.2611C49.4576 42.2611 50.8391 42.8046 51.8515 43.8334C53.1189 45.1134 53.6376 46.9707 53.3114 49.0611C53.003 51.0413 51.962 53.0178 50.3793 54.6207C48.4577 56.5667 46.0334 57.6842 43.7272 57.6842C42.1265 57.6842 40.7432 57.1407 39.7273 56.1121Z" fill="#121716"/>
<path fill-rule="evenodd" clip-rule="evenodd" d="M33.906 2.04464C33.9488 1.90752 33.9933 1.77403 34.0325 1.62947C32.136 1.20907 30.1807 0.979736 28.179 0.979736C26.1772 0.979736 24.222 1.20907 22.3254 1.62947C22.3647 1.77403 22.4093 1.90752 22.452 2.04464L21.4556 2.22162L21.5945 2.65128L21.6391 2.98692C21.9297 2.88403 22.2381 2.81719 22.5679 2.81719C23.0972 2.81719 23.6568 3.03766 24.0936 3.33C25.737 4.44907 26.9402 5.95813 27.753 7.66772C27.8438 7.7994 27.9758 7.9041 28.1629 7.9041C28.3697 7.9041 28.5176 7.78148 28.6069 7.62987H28.621C29.4357 5.93658 30.6318 4.44202 32.2644 3.33C32.701 3.03766 33.2607 2.81719 33.7901 2.81719C34.12 2.81719 34.4281 2.88403 34.7188 2.98692L34.7633 2.65128L34.9023 2.22162L33.906 2.04464Z" fill="#121716"/>
</svg>
