<svg viewBox="0 0 100 30" fill="none" xmlns="http://www.w3.org/2000/svg" class="w-24 mt-1 mr-2 transform-gpu md:mr-6 lg:mr-18"><path d="M18.596 7.62499H14.1765C14.0958 7.05322 13.931 6.54536 13.6821 6.10139C13.4332 5.65071 13.1137 5.26728 12.7235 4.95113C12.3334 4.63497 11.8827 4.39281 11.3715 4.22465C10.867 4.05648 10.3188 3.9724 9.7268 3.9724C8.65726 3.9724 7.72561 4.2381 6.93186 4.76951C6.13811 5.29419 5.52262 6.06103 5.08538 7.07004C4.64815 8.07232 4.42953 9.28985 4.42953 10.7226C4.42953 12.1958 4.64815 13.4335 5.08538 14.4358C5.52935 15.438 6.1482 16.1948 6.94195 16.706C7.7357 17.2173 8.6539 17.4729 9.69653 17.4729C10.2818 17.4729 10.8233 17.3955 11.321 17.2408C11.8255 17.0861 12.2729 16.8607 12.663 16.5648C13.0532 16.2621 13.376 15.8955 13.6317 15.465C13.894 15.0344 14.0756 14.5434 14.1765 13.9918L18.596 14.012C18.4816 14.9605 18.1957 15.8753 17.7383 16.7565C17.2876 17.6309 16.6788 18.4146 15.912 19.1075C15.1519 19.7936 14.2438 20.3384 13.1877 20.742C12.1383 21.1389 10.9511 21.3374 9.62591 21.3374C7.78279 21.3374 6.13475 20.9203 4.68178 20.0862C3.23554 19.2521 2.092 18.0446 1.25117 16.4639C0.417055 14.8831 0 12.9693 0 10.7226C0 8.46919 0.423782 6.55208 1.27135 4.97131C2.11891 3.39054 3.26918 2.18646 4.72214 1.35908C6.17511 0.524965 7.8097 0.10791 9.62591 0.10791C10.8233 0.10791 11.9332 0.276077 12.9556 0.612412C13.9848 0.948747 14.8963 1.4398 15.69 2.08556C16.4838 2.72459 17.1295 3.50825 17.6273 4.43654C18.1318 5.36482 18.4547 6.42764 18.596 7.62499Z" fill="currentColor"></path><path d="M23.9576 12.0949V21.0548H19.6592V0.390431H23.8365V8.29093H24.0181C24.3679 7.3761 24.933 6.65971 25.7133 6.14175C26.4936 5.61707 27.4723 5.35473 28.6495 5.35473C29.7257 5.35473 30.6641 5.59017 31.4646 6.06103C32.2718 6.52518 32.8974 7.19448 33.3414 8.06895C33.792 8.9367 34.014 9.97597 34.0073 11.1868V21.0548H29.7089V11.9536C29.7157 10.9984 29.4735 10.2551 28.9825 9.72372C28.4981 9.19231 27.8187 8.92661 26.9443 8.92661C26.359 8.92661 25.8411 9.05105 25.3904 9.29994C24.9464 9.54883 24.5966 9.91207 24.341 10.3897C24.0921 10.8605 23.9643 11.4289 23.9576 12.0949Z" fill="currentColor"></path><path d="M42.4641 21.3575C40.8698 21.3575 39.4976 21.0347 38.3473 20.3889C37.2038 19.7364 36.3226 18.8148 35.7037 17.6242C35.0849 16.4269 34.7754 15.0109 34.7754 13.3763C34.7754 11.7821 35.0849 10.3829 35.7037 9.17886C36.3226 7.97478 37.1937 7.0364 38.3171 6.36373C39.4471 5.69107 40.7723 5.35473 42.2925 5.35473C43.315 5.35473 44.2668 5.51954 45.148 5.84914C46.0359 6.17203 46.8095 6.65971 47.4687 7.3122C48.1347 7.96469 48.6526 8.78535 49.0226 9.77417C49.3926 10.7563 49.5775 11.9065 49.5775 13.225V14.4055H36.4908V11.7417H45.5314C45.5314 11.1229 45.3969 10.5746 45.1278 10.0971C44.8588 9.61946 44.4854 9.24612 44.0078 8.97706C43.537 8.70126 42.9887 8.56336 42.3632 8.56336C41.7107 8.56336 41.1322 8.71472 40.6277 9.01742C40.1299 9.31339 39.7397 9.71363 39.4572 10.2181C39.1747 10.7159 39.0301 11.2709 39.0234 11.883V14.4156C39.0234 15.1824 39.1646 15.845 39.4471 16.4033C39.7364 16.9616 40.1434 17.3922 40.668 17.6949C41.1927 17.9976 41.8149 18.1489 42.5347 18.1489C43.0123 18.1489 43.4495 18.0816 43.8464 17.9471C44.2433 17.8126 44.583 17.6108 44.8655 17.3417C45.148 17.0726 45.3633 16.743 45.5113 16.3529L49.4867 16.6152C49.2849 17.5704 48.8712 18.4045 48.2457 19.1175C47.6268 19.8239 46.8263 20.3754 45.8442 20.7723C44.8689 21.1625 43.7421 21.3575 42.4641 21.3575Z" fill="currentColor"></path><path d="M57.3961 21.3575C55.8086 21.3575 54.4431 21.0212 53.2996 20.3485C52.1627 19.6691 51.2883 18.7274 50.6762 17.5233C50.0707 16.3192 49.768 14.9335 49.768 13.3662C49.768 11.7787 50.0741 10.3863 50.6862 9.18895C51.3051 7.98487 52.1829 7.04649 53.3197 6.37382C54.4566 5.69443 55.8086 5.35473 57.3759 5.35473C58.728 5.35473 59.9119 5.60026 60.9276 6.0913C61.9434 6.58235 62.7472 7.27184 63.3392 8.15976C63.9311 9.04769 64.2574 10.0903 64.3179 11.2877H60.2617C60.1473 10.5141 59.8446 9.89189 59.3536 9.42102C58.8693 8.94342 58.2336 8.70463 57.4466 8.70463C56.7806 8.70463 56.1988 8.88625 55.701 9.24949C55.2099 9.606 54.8265 10.1273 54.5507 10.8134C54.2749 11.4996 54.137 12.3303 54.137 13.3057C54.137 14.2945 54.2716 15.1353 54.5406 15.8282C54.8164 16.521 55.2032 17.0491 55.701 17.4123C56.1988 17.7756 56.7806 17.9572 57.4466 17.9572C57.9376 17.9572 58.3782 17.8563 58.7684 17.6545C59.1652 17.4527 59.4915 17.1601 59.7471 16.7767C60.0094 16.3865 60.181 15.919 60.2617 15.3741H64.3179C64.2506 16.558 63.9277 17.6007 63.3493 18.5021C62.7775 19.3967 61.9871 20.0963 60.9781 20.6008C59.9691 21.1053 58.7751 21.3575 57.3961 21.3575Z" fill="currentColor"></path><path d="M68.9758 16.595L68.9858 11.439H69.6114L74.5757 5.55653H79.5098L72.8403 13.346H71.8212L68.9758 16.595ZM65.081 21.0548V0.390431H69.3794V21.0548H65.081ZM74.7674 21.0548L70.2067 14.3046L73.0723 11.2675L79.8024 21.0548H74.7674Z" fill="currentColor"></path><path d="M83.928 0.390431V21.0548H79.6296V0.390431H83.928Z" fill="currentColor"></path><path d="M84.1513 5.55668L88.6716 19.8227L90.9644 13.346L88.6716 5.55668H84.1513Z" fill="currentColor"></path><path fill-rule="evenodd" clip-rule="evenodd" d="M90.7 29.8922H86.1742L79.1699 23.4988L85.1166 23.4988L88.0132 26.019L95.208 5.49805H100.001L90.7 29.8922Z" fill="#0075FF"></path></svg>