<svg width="520" height="182" viewBox="0 0 520 182" fill="none" xmlns="http://www.w3.org/2000/svg">
<g clip-path="url(#clip0_2387_1689)">
<path d="M279.953 79.417C287.279 79.417 293.15 84.9753 293.15 92.8027C293.15 100.63 287.269 106.188 279.953 106.188C272.637 106.188 266.756 100.63 266.756 92.8027C266.756 84.9753 272.637 79.417 279.953 79.417ZM474.781 88.5282H449.063C450.746 82.6863 455.862 78.8497 461.907 78.8497C467.951 78.8497 473.097 82.6863 474.786 88.5282H474.781ZM356.576 114.175H364.707C365.069 114.175 365.392 113.856 365.392 113.488V72.1122C365.392 71.7439 365.074 71.4255 364.707 71.4255H356.576C356.214 71.4255 355.89 71.7439 355.89 72.1122V113.483C355.89 113.851 356.208 114.17 356.576 114.17M242.121 93.36C242.121 85.6173 246.467 80.4222 254.999 80.1385C255.367 80.1385 255.65 79.8549 255.65 79.4917V71.4305C255.65 71.0274 255.333 70.7437 254.93 70.7437C248.97 70.7437 244.421 73.5652 242.135 78.3671V72.1221C242.135 71.7538 241.818 71.4355 241.45 71.4355H233.319C232.952 71.4355 232.634 71.7538 232.634 72.1221V113.483C232.634 113.851 232.952 114.17 233.319 114.17H241.45C241.813 114.17 242.135 113.851 242.135 113.483V93.36H242.126H242.121ZM317.661 90.3744C317.661 83.8457 322.007 79.4071 328.771 79.4071C335.536 79.4071 339.401 83.8457 339.401 90.3744V113.473C339.401 113.842 339.719 114.16 340.086 114.16H348.216C348.579 114.16 348.902 113.842 348.902 113.473V88.5232C348.902 77.6406 342.058 70.3805 331.429 70.3805C325.548 70.3805 320.566 72.6346 317.587 76.8245V72.1022C317.587 71.734 317.268 71.4155 316.901 71.4155H308.855C308.493 71.4155 308.169 71.734 308.169 72.1022V113.483C308.169 113.851 308.487 114.17 308.855 114.17H316.986C317.348 114.17 317.671 113.851 317.671 113.483V90.3744H317.661ZM405.762 87.3887C405.881 87.6723 406.129 87.7917 406.363 87.7917H415.02C415.537 87.7917 415.905 87.4236 415.785 86.9061C413.486 77.1429 404.759 70.3705 393.693 70.3705C380.57 70.3705 370.756 79.9644 370.756 92.7828C370.756 105.601 380.57 115.2 393.693 115.2C404.754 115.2 413.416 108.507 415.745 98.6645C415.864 98.147 415.547 97.7788 415.025 97.7788H406.363C406.08 97.7788 405.847 97.943 405.762 98.1818C403.914 103.024 399.32 106.158 393.688 106.158C386.287 106.158 380.412 100.6 380.412 92.7728C380.412 84.9454 386.292 79.3872 393.688 79.3872C399.32 79.3872 404.033 82.5271 405.762 87.3638M483.155 101.799C483.388 101.232 483.071 100.749 482.47 100.749H473.693C473.495 100.749 473.33 100.834 473.211 101.033C470.911 104.586 466.764 106.721 462.066 106.721C455.619 106.721 450.274 102.531 448.859 96.2412H483.825C484.144 96.2412 484.392 96.0072 484.426 95.6739C484.545 94.7036 484.625 93.7034 484.625 92.7678C484.625 79.8649 474.801 70.3506 461.887 70.3506C448.974 70.3506 439.149 79.9445 439.149 92.7678C439.149 105.591 448.974 115.185 462.051 115.185C471.945 115.185 479.842 109.896 483.14 101.799M279.943 115.185C292.985 115.185 302.801 105.586 302.801 92.7678C302.801 79.9495 292.985 70.3506 279.943 70.3506C266.9 70.3506 257.086 79.9445 257.086 92.7678C257.086 105.591 266.9 115.185 279.943 115.185ZM169.67 87.3638C169.789 87.6474 170.033 87.7669 170.271 87.7669H178.918C179.434 87.7669 179.802 87.3987 179.683 86.8812C177.384 77.1181 168.657 70.3456 157.591 70.3456C144.468 70.3456 134.654 79.9396 134.654 92.7629C134.654 105.586 144.468 115.175 157.591 115.175C168.652 115.175 177.314 108.482 179.643 98.6396C179.762 98.1221 179.445 97.7539 178.923 97.7539H170.276C169.993 97.7539 169.759 97.9181 169.675 98.1569C167.827 102.994 163.243 106.139 157.601 106.139C150.19 106.139 144.324 100.58 144.324 92.7529C144.324 84.9256 150.205 79.3673 157.601 79.3673C163.233 79.3673 167.946 82.5072 169.675 87.3439M194.464 90.3295C194.464 83.8009 198.81 79.3623 205.575 79.3623C212.34 79.3623 216.204 83.8009 216.204 90.3295V113.429C216.204 113.792 216.522 114.115 216.89 114.115H225.02C225.383 114.115 225.706 113.797 225.706 113.429V88.4785C225.706 77.5958 218.862 70.3357 208.232 70.3357C202.352 70.3357 197.37 72.5898 194.39 76.7797V54.3724C194.39 54.0042 194.072 53.6858 193.704 53.6858H185.658C185.295 53.6858 184.973 54.0042 184.973 54.3724V113.483C184.973 113.851 185.291 114.17 185.658 114.17H193.789C194.156 114.17 194.474 113.851 194.474 113.483V90.3246L194.464 90.3295ZM437.505 114.115C437.868 114.115 438.191 113.797 438.191 113.429V105.935C438.191 105.566 437.872 105.248 437.505 105.248H432.956C431.589 105.248 430.541 104.198 430.541 102.83V54.3724C430.541 54.0042 430.224 53.6858 429.856 53.6858H421.725C421.363 53.6858 421.04 54.0042 421.04 54.3724V105.87C421.04 110.712 424.586 114.18 429.414 114.18H437.51L437.5 114.11L437.505 114.115ZM359.66 64.1056H365.571C365.949 64.1056 366.256 63.7971 366.256 63.4189V53.4867C366.256 53.1085 365.949 52.8 365.571 52.8H355.672C355.294 52.8 354.987 53.1085 354.987 53.4867V59.4181C354.987 61.9908 357.087 64.1006 359.66 64.1006V64.1056Z" fill="black"/>
<path d="M77.0866 71.7459C79.5978 67.7839 81.5266 63.5014 82.8278 59.008C88.1047 70.348 99.5804 78.2254 112.855 78.2254V89.7746C112.818 89.7746 112.78 89.7745 112.743 89.7744C94.4838 89.7744 79.6272 104.68 79.6272 123H68.1161V122.993C68.1161 106.264 77.3074 91.6499 90.892 83.9666C85.4901 80.8894 80.787 76.7143 77.0866 71.7459Z" fill="black"/>
<path d="M64.9731 108.817C59.8761 97.9725 49.0996 90.3211 36.5168 89.7491C36.0126 89.766 35.5069 89.7745 35 89.7746L35 78.1656C35.5089 78.1656 36.0158 78.1742 36.5206 78.1912C44.7922 77.8183 52.5189 74.407 58.418 68.4953C64.6771 62.2226 68.1089 53.8712 68.1089 45L79.6201 45C79.6201 56.9606 74.9796 68.1993 66.5477 76.6591C63.6574 79.559 60.4415 82.0119 56.9828 83.9835C62.363 87.0514 67.0491 91.2088 70.7408 96.1547C68.264 100.043 66.3079 104.297 64.9731 108.817Z" fill="black"/>
</g>
<defs>
<clipPath id="clip0_2387_1689">
<rect width="450" height="78" fill="white" transform="translate(35 45)"/>
</clipPath>
</defs>
</svg>
