<svg width="578" height="100" viewBox="0 0 578 100" fill="none" xmlns="http://www.w3.org/2000/svg">
<path d="M314.628 44.1244C324.038 44.1244 331.579 51.2504 331.579 61.2855C331.579 71.3206 324.026 78.4466 314.628 78.4466C305.231 78.4466 297.678 71.3206 297.678 61.2855C297.678 51.2504 305.231 44.1244 314.628 44.1244ZM564.874 55.8054H531.841C534.003 48.3158 540.574 43.3971 548.338 43.3971C556.102 43.3971 562.711 48.3158 564.881 55.8054H564.874ZM413.046 88.6858H423.49C423.955 88.6858 424.37 88.2775 424.37 87.8054V34.7592C424.37 34.2871 423.962 33.8788 423.49 33.8788H413.046C412.581 33.8788 412.166 34.2871 412.166 34.7592V87.799C412.166 88.2711 412.574 88.6794 413.046 88.6794M266.035 62C266.035 52.0734 271.617 45.4131 282.577 45.0494C283.049 45.0494 283.413 44.6858 283.413 44.2201V33.8852C283.413 33.3684 283.005 33.0048 282.488 33.0048C274.833 33.0048 268.989 36.622 266.054 42.7783V34.7719C266.054 34.2998 265.646 33.8916 265.174 33.8916H254.73C254.258 33.8916 253.85 34.2998 253.85 34.7719V87.799C253.85 88.2711 254.258 88.6794 254.73 88.6794H265.174C265.64 88.6794 266.054 88.2711 266.054 87.799V62H266.042H266.035ZM363.062 58.1723C363.062 49.8022 368.644 44.1116 377.333 44.1116C386.022 44.1116 390.986 49.8022 390.986 58.1723V87.7863C390.986 88.2584 391.394 88.6667 391.866 88.6667H402.309C402.775 88.6667 403.19 88.2584 403.19 87.7863V55.799C403.19 41.8469 394.399 32.5391 380.746 32.5391C373.193 32.5391 366.794 35.429 362.967 40.8006V34.7464C362.967 34.2743 362.558 33.866 362.086 33.866H351.751C351.286 33.866 350.871 34.2743 350.871 34.7464V87.799C350.871 88.2711 351.279 88.6794 351.751 88.6794H362.195C362.66 88.6794 363.075 88.2711 363.075 87.799V58.1723H363.062ZM476.223 54.3445C476.376 54.7081 476.695 54.8612 476.995 54.8612H488.115C488.778 54.8612 489.251 54.3892 489.097 53.7257C486.144 41.2089 474.935 32.5263 460.721 32.5263C443.866 32.5263 431.26 44.8262 431.26 61.26C431.26 77.6938 443.866 90 460.721 90C474.928 90 486.054 81.4195 489.046 68.8006C489.199 68.1372 488.791 67.6651 488.121 67.6651H476.995C476.632 67.6651 476.332 67.8756 476.223 68.1818C473.85 74.3892 467.949 78.4083 460.715 78.4083C451.209 78.4083 443.662 71.2823 443.662 61.2472C443.662 51.2121 451.215 44.0861 460.715 44.0861C467.949 44.0861 474.003 48.1116 476.223 54.3126M575.63 72.8198C575.93 72.0925 575.522 71.4737 574.75 71.4737H563.477C563.222 71.4737 563.011 71.5821 562.858 71.8373C559.904 76.3923 554.577 79.1292 548.542 79.1292C540.262 79.1292 533.397 73.7576 531.579 65.6938H576.491C576.9 65.6938 577.219 65.3939 577.263 64.9665C577.416 63.7225 577.518 62.4402 577.518 61.2408C577.518 44.6986 564.9 32.5008 548.313 32.5008C531.726 32.5008 519.107 44.8006 519.107 61.2408C519.107 77.681 531.726 89.9809 548.523 89.9809C561.231 89.9809 571.375 83.1994 575.611 72.8198M314.616 89.9809C331.368 89.9809 343.975 77.6746 343.975 61.2408C343.975 44.807 331.368 32.5008 314.616 32.5008C297.863 32.5008 285.257 44.8006 285.257 61.2408C285.257 77.681 297.863 89.9809 314.616 89.9809ZM172.976 54.3126C173.129 54.6762 173.442 54.8293 173.748 54.8293H184.855C185.518 54.8293 185.99 54.3573 185.837 53.6938C182.884 41.177 171.675 32.4944 157.461 32.4944C140.606 32.4944 128 44.7943 128 61.2345C128 77.6746 140.606 89.9681 157.461 89.9681C171.668 89.9681 182.794 81.3876 185.786 68.7687C185.939 68.1053 185.531 67.6332 184.861 67.6332H173.754C173.391 67.6332 173.091 67.8437 172.982 68.1499C170.609 74.3509 164.721 78.3828 157.474 78.3828C147.955 78.3828 140.421 71.2568 140.421 61.2217C140.421 51.1866 147.974 44.0606 157.474 44.0606C164.708 44.0606 170.762 48.0861 172.982 54.2871M204.823 58.1148C204.823 49.7448 210.405 44.0542 219.094 44.0542C227.783 44.0542 232.746 49.7448 232.746 58.1148V87.7289C232.746 88.1946 233.155 88.6093 233.627 88.6093H244.07C244.536 88.6093 244.951 88.201 244.951 87.7289V55.7416C244.951 41.7895 236.16 32.4817 222.507 32.4817C214.954 32.4817 208.555 35.3716 204.727 40.7432V12.0159C204.727 11.5439 204.319 11.1356 203.847 11.1356H193.512C193.046 11.1356 192.632 11.5439 192.632 12.0159V87.799C192.632 88.2711 193.04 88.6794 193.512 88.6794H203.955C204.427 88.6794 204.836 88.2711 204.836 87.799V58.1085L204.823 58.1148ZM516.995 88.6093C517.461 88.6093 517.876 88.201 517.876 87.7289V78.1212C517.876 77.6491 517.467 77.2408 516.995 77.2408H511.152C509.397 77.2408 508.051 75.8947 508.051 74.1404V12.0159C508.051 11.5439 507.643 11.1356 507.171 11.1356H496.727C496.262 11.1356 495.847 11.5439 495.847 12.0159V78.0383C495.847 84.2456 500.402 88.6922 506.603 88.6922H517.002L516.989 88.6029L516.995 88.6093ZM417.008 24.4944H424.6C425.085 24.4944 425.48 24.0989 425.48 23.614V10.8804C425.48 10.3955 425.085 10 424.6 10H411.885C411.4 10 411.005 10.3955 411.005 10.8804V18.4848C411.005 21.7831 413.703 24.488 417.008 24.488V24.4944Z" fill="black"/>
<path d="M54.0579 34.2896C57.2834 29.2101 59.7609 23.7197 61.4322 17.959C68.21 32.4974 82.95 42.5967 100 42.5967V57.4033C99.9523 57.4033 99.9046 57.4032 99.857 57.4031C76.4036 57.4031 57.3212 76.513 57.3212 100H42.5358L42.5358 99.9907C42.5358 78.5435 54.3415 59.8075 71.7902 49.9572C64.8518 46.0121 58.8109 40.6593 54.0579 34.2896Z" fill="black"/>
<path d="M38.4988 81.8171C31.952 67.9134 18.1102 58.104 1.94823 57.3707C1.30063 57.3923 0.651149 57.4032 0 57.4033L2.51731e-05 42.52C0.653644 42.52 1.30475 42.531 1.95316 42.5528C12.5775 42.0747 22.502 37.7013 30.0791 30.1222C38.1186 22.0803 42.5265 11.3733 42.5265 0L57.312 6.47157e-07C57.312 15.3341 51.3516 29.7427 40.5213 40.5886C36.8088 44.3064 32.6782 47.4512 28.2357 49.9789C35.1463 53.9121 41.1653 59.2421 45.9071 65.5829C42.7257 70.5676 40.2132 76.0216 38.4988 81.8171Z" fill="black"/>
</svg>
