<?xml version="1.0" encoding="utf-8"?>
<!-- Generator: Adobe Illustrator 24.0.0, SVG Export Plug-In . SVG Version: 6.00 Build 0)  -->
<svg version="1.1" id="Layer_1" xmlns="http://www.w3.org/2000/svg" xmlns:xlink="http://www.w3.org/1999/xlink" x="0px" y="0px"
	 viewBox="0 0 330 64" style="enable-background:new 0 0 330 64;" xml:space="preserve">
<style type="text/css">
	.st0{fill:#2E3340;}
</style>
<path class="st0" d="M88,40.6c-1.7,0-2.8,0-2.8-1.3c0-0.3,0.1-0.7,0.3-1.2l5.1-11.3H107c1.7,0,2.7-0.1,2.7,1.2
	c0,0.4-0.1,0.8-0.3,1.2l-1,2.2h6.9l1.4-3.1c0.2-0.5,0.2-0.9,0.2-1.3c0-2.8-3-4.2-5.4-4.2H85.5l-7.3,16.1c-0.2,0.5-0.2,0.9-0.2,1.3
	c0,3,2.5,4.5,6,4.5h25.7l1.6-4.1H88z M142.2,22.7h-19.4l-8.8,22h7l7-17.8h10.7c1.7,0,2.6-0.2,2.6,1.1c0,0.4-0.1,0.8-0.3,1.2l-1,2.2
	h7l1.4-3.1c0.2-0.5,0.2-0.9,0.2-1.3c0-1.3-0.7-2.4-2.2-3.2C145.2,23.2,143.6,22.7,142.2,22.7z M180.7,22.7h-27l-7.3,16.1
	c-0.2,0.4-0.2,0.8-0.2,1.3c0,2.5,1.8,4.5,4.1,4.5h27.3l7.4-16.5c0.2-0.5,0.2-0.9,0.2-1.3C185.2,24.2,183,22.7,180.7,22.7z
	 M172.2,40.7h-16.3c-1.7,0-2.5-0.2-2.5-1.5c0-0.4,0.1-0.8,0.3-1.2l5.3-11.3h16.4c1.6,0,2.4-0.1,2.4,1.2c0,0.4-0.1,0.8-0.3,1.3
	L172.2,40.7z M189.9,44.7h36.4l9.4-21.9l-7.2,0l-7.8,17.8H209l7.8-17.9l-7.2,0l-8.1,17.8h-8c-1.7,0-2.6-0.2-2.6-1.5
	c0-0.4,0.1-0.8,0.3-1.2l6.7-15.2l-7,0l-7,15.8C182.5,42.7,186.7,44.7,189.9,44.7z M276,14.7l-7.5,2l-2.5,6h-18.5
	c-4.5,0-8.5,2-10.5,6l-5,12c-1,2,0.8,4,4.2,4H263L276,14.7z M241,40.7c-1.5,0-2.2-1-2-2l4.4-9.6c1-2.3,3.4-2.4,5.6-2.4h15l-6,14H241
	z M275,44.7l9.5-22.5l-8,1.5l-9,21H275z M285.7,19.4l2.1-4.7l-7.9,1.6l-2,4.7L285.7,19.4z M313.9,22.7H288l-9,22h7l7-18h17.1
	c1.7,0,2.6-0.1,2.6,1.3c0,0.4-0.1,0.8-0.3,1.2l-7,15.6h7l7.4-16.5c0.2-0.4,0.2-0.8,0.2-1.3c0-1.3-0.7-2.4-2.2-3.2
	C316.7,23.2,315.4,22.7,313.9,22.7z"/>
<path class="st0" d="M69.3,23.8c-11-1.3-20.9,0.9-22.3,7.8c0,0.3-0.2,1.6-0.2,1.8l1.8,0.2c0,0.3,0,0.7,0,1c0,0.6,0,1.2,0,1.8
	l-1.7-0.2c0.7,7.1,4.6,9.2,8.7,9.3h0.3c1.8,0.1,3.7-0.3,5.3-1c0.1,0,0.1-0.1,0.1-0.1c0-0.1,0-0.1,0-0.2c0-0.1-0.1-0.1-0.1-0.2
	c-0.1,0-0.1-0.1-0.2-0.1c-3.8,0.5-7.3-2.6-7.3-8.9c0-7.9,6.2-10.8,15.6-10.8C69.6,24.4,69.7,23.9,69.3,23.8z M48.9,38.1
	c1,0,1.9,0.2,2.8,0.3c0.3,2.1,1.3,4.1,2.8,5.5c-1.5-0.2-2.8-0.9-3.9-1.9C49.7,40.9,49.1,39.6,48.9,38.1L48.9,38.1z M52.3,31.2
	c0,0.3-0.2,0.7-0.3,1.2h-1.3c-0.7,0-1.3-0.1-2-0.2c0-0.1,0-0.1,0-0.2c0.8-4.3,5.1-6,9.2-6.8c-1.3,0.5-2.5,1.3-3.5,2.3
	C53.4,28.6,52.7,29.8,52.3,31.2L52.3,31.2z"/>
<path class="st0" d="M73.6,17.5c-8.3-2.3-43.2-5.1-43.2,14.3c1.2,0.2,2,0.4,2.6,0.5c-0.1,1.5,0,3.1,0,4.6l-3.1-0.5
	c0,11.2,8.2,14.8,14.7,14.8c1.1,0,2.1-0.1,3.2-0.2c2.7-0.3,5.3-1.1,7.6-2.4c0.1,0,0.1-0.1,0.1-0.1c0-0.1,0-0.1,0-0.2
	c0-0.1-0.1-0.1-0.1-0.2c-0.1,0-0.1-0.1-0.2-0.1c-5.5,1.1-12.9-0.4-12.9-13.4c0-17.3,24.3-16.2,31.4-16.5c0.1,0,0.1-0.1,0.1-0.1
	c0-0.1,0-0.1,0-0.2c0-0.1,0-0.1-0.1-0.2C73.7,17.5,73.7,17.5,73.6,17.5z M44.6,49.6c-3.1,0.2-6.2-0.8-8.6-2.9
	c-2.4-2.1-3.9-5-4.2-8.1c2.1,0.3,4.7,0.5,6.9,0.6c0.1,2.2,0.8,4.3,2,6.1c1.2,1.8,2.8,3.3,4.7,4.3H44.6z M38.9,31.3L35.6,31l-3.3-0.4
	c0-10.1,16.2-14,23.7-13.3C48.5,19,39.4,22.5,38.9,31.3z"/>
<path class="st0" d="M77.9,11.7c-10.1-3.4-21.6-5.1-32.3-5c-15.5,0-35.1,4.6-35.6,20.4l4.2,1c-0.5,2-0.5,6.1-0.5,6.1s-2.4-0.7-3.7-1
	C10,52,21,56.7,31.6,56.7c4.3,0,8.5-0.7,12.5-2.2c0.1,0,0.1-0.1,0.1-0.1c0-0.1,0-0.1,0-0.2c0-0.1-0.1-0.1-0.1-0.2
	C44.1,54,44,54,43.9,54c-3.3,0-5.9,1.1-11.1-2.6c-10.1-7.1-8.9-25.5,2.7-33.5c12-8.5,37.8-5.8,42.2-5.6c0,0,0.1,0,0.1,0
	c0,0,0.1,0,0.1,0c0,0,0.1,0,0.1-0.1c0,0,0-0.1,0-0.1c0,0,0-0.1,0-0.1c0,0,0-0.1,0-0.1C78,11.8,78,11.8,77.9,11.7
	C77.9,11.8,77.9,11.8,77.9,11.7z M31.7,55.2c-12.6,0-19-6.8-19.6-19.8c3.4,0.9,6.6,1.7,10.1,2.2c-0.2,5.1,1.6,10.1,5.1,14
	c1.8,1.7,4,3,6.4,3.7L31.7,55.2z M60.1,9.7c-15.3,0-33,1.8-36.5,18.5c0,0-9.4-1.5-11.5-2C14.7,5.2,50.9,6.8,65.5,9.7H60.1z"/>
</svg>
