<svg width="520" height="182" viewBox="0 0 520 182" fill="none" xmlns="http://www.w3.org/2000/svg">
<path d="M158.467 98.2875C156.236 98.2875 154.793 98.2875 154.793 96.5812C154.793 96.1875 154.924 95.6625 155.186 95.0062L161.878 80.175H183.397C185.628 80.175 186.94 80.0437 186.94 81.75C186.94 82.275 186.808 82.8 186.546 83.325L185.234 86.2125H194.288L196.125 82.1437C196.387 81.4875 196.387 80.9625 196.387 80.4375C196.387 76.7625 192.451 74.925 189.302 74.925H155.186L145.608 96.0562C145.345 96.7125 145.345 97.2375 145.345 97.7625C145.345 101.7 148.626 103.669 153.218 103.669H186.94L189.039 98.2875H158.467ZM229.584 74.7937H204.128L192.582 103.669H201.767L210.952 80.3062H224.991C227.222 80.3062 228.403 80.0437 228.403 81.75C228.403 82.275 228.272 82.8 228.009 83.325L226.697 86.2125H235.882L237.719 82.1437C237.981 81.4875 237.981 80.9625 237.981 80.4375C237.981 78.7312 237.063 77.2875 235.095 76.2375C233.52 75.45 231.421 74.7937 229.584 74.7937ZM280.1 74.7937H244.673L235.095 95.925C234.832 96.45 234.832 96.975 234.832 97.6312C234.832 100.912 237.194 103.537 240.212 103.537H276.033L285.742 81.8812C286.005 81.225 286.005 80.7 286.005 80.175C286.005 76.7625 283.118 74.7937 280.1 74.7937ZM268.947 98.4187H247.56C245.329 98.4187 244.279 98.1562 244.279 96.45C244.279 95.925 244.411 95.4 244.673 94.875L251.627 80.0437H273.146C275.245 80.0437 276.295 79.9125 276.295 81.6187C276.295 82.1437 276.164 82.6687 275.902 83.325L268.947 98.4187ZM292.172 103.669H339.933L352.267 74.925H342.82L332.585 98.2875H317.233L327.468 74.7937H318.021L307.392 98.1562H296.895C294.665 98.1562 293.484 97.8937 293.484 96.1875C293.484 95.6625 293.615 95.1375 293.878 94.6125L302.669 74.6625H293.484L284.299 95.4C282.462 101.044 287.973 103.669 292.172 103.669ZM405.145 64.2937L395.305 66.9187L392.024 74.7937H367.75C361.845 74.7937 356.597 77.4187 353.973 82.6687L347.412 98.4187C346.1 101.044 348.462 103.669 352.923 103.669H388.088L405.145 64.2937ZM359.221 98.4187C357.253 98.4187 356.335 97.1062 356.597 95.7937L362.37 83.1937C363.682 80.175 366.832 80.0437 369.718 80.0437H389.4L381.527 98.4187H359.221ZM403.833 103.669L416.298 74.1375L405.802 76.1062L393.992 103.669H403.833ZM417.873 70.4625L420.628 64.2937L410.263 66.3937L407.638 72.5625L417.873 70.4625ZM454.875 74.7937H420.891L409.082 103.669H418.267L427.452 80.0437H449.889C452.119 80.0437 453.3 79.9125 453.3 81.75C453.3 82.275 453.169 82.8 452.907 83.325L443.722 103.8H452.907L462.616 82.1437C462.879 81.6187 462.879 81.0937 462.879 80.4375C462.879 78.7312 461.96 77.2875 459.992 76.2375C458.549 75.45 456.843 74.7937 454.875 74.7937Z" fill="#2E3340"/>
<path d="M133.93 76.2375C119.497 74.5312 106.507 77.4187 104.67 86.475C104.67 86.8687 104.407 88.575 104.407 88.8375L106.769 89.1C106.769 89.4937 106.769 90.0187 106.769 90.4125C106.769 91.2 106.769 91.9875 106.769 92.775L104.538 92.5125C105.457 101.831 110.574 104.587 115.954 104.719H116.348C118.709 104.85 121.202 104.325 123.302 103.406C123.433 103.406 123.433 103.275 123.433 103.275C123.433 103.144 123.433 103.144 123.433 103.012C123.433 102.881 123.302 102.881 123.302 102.75C123.171 102.75 123.171 102.619 123.039 102.619C118.053 103.275 113.461 99.2062 113.461 90.9375C113.461 80.5687 121.596 76.7625 133.93 76.7625C134.324 77.025 134.455 76.3687 133.93 76.2375ZM107.163 95.0062C108.475 95.0062 109.656 95.2688 110.837 95.4C111.23 98.1563 112.542 100.781 114.511 102.619C112.542 102.356 110.837 101.437 109.393 100.125C108.212 98.6812 107.425 96.975 107.163 95.0062ZM111.624 85.95C111.624 86.3437 111.362 86.8688 111.23 87.525H109.525C108.606 87.525 107.819 87.3937 106.9 87.2625C106.9 87.1312 106.9 87.1312 106.9 87C107.95 81.3562 113.592 79.125 118.972 78.075C117.266 78.7312 115.692 79.7812 114.379 81.0937C113.067 82.5375 112.149 84.1125 111.624 85.95Z" fill="#2E3340"/>
<path d="M139.572 67.9687C128.682 64.95 82.8885 61.275 82.8885 86.7375C84.463 87 85.5127 87.2625 86.3 87.3937C86.1688 89.3625 86.3 91.4625 86.3 93.4312L82.2324 92.775C82.2324 107.475 92.9918 112.2 101.521 112.2C102.964 112.2 104.276 112.069 105.719 111.937C109.262 111.544 112.674 110.494 115.692 108.787C115.823 108.787 115.823 108.656 115.823 108.656C115.823 108.525 115.823 108.525 115.823 108.394C115.823 108.262 115.692 108.262 115.692 108.131C115.56 108.131 115.56 108 115.429 108C108.212 109.444 98.5027 107.475 98.5027 90.4125C98.5027 67.7062 130.387 69.15 139.703 68.7562C139.835 68.7562 139.835 68.625 139.835 68.625C139.835 68.4937 139.835 68.4937 139.835 68.3625C139.835 68.2312 139.835 68.2312 139.703 68.1C139.703 67.9687 139.703 67.9687 139.572 67.9687ZM101.521 110.1C97.453 110.362 93.3855 109.05 90.2364 106.294C87.0873 103.537 85.1191 99.7312 84.7255 95.6625C87.4809 96.0562 90.8924 96.3187 93.7791 96.45C93.9103 99.3375 94.8288 102.094 96.4033 104.456C97.9779 106.819 100.077 108.787 102.57 110.1H101.521ZM94.0415 86.0812L89.7115 85.6875L85.3815 85.1625C85.3815 71.9062 106.638 66.7875 116.479 67.7062C106.638 69.9375 94.6976 74.5312 94.0415 86.0812Z" fill="#2E3340"/>
<path d="M145.214 60.3563C131.962 55.8938 116.872 53.6625 102.833 53.7938C82.4949 53.7938 56.7773 59.8313 56.1212 80.5688L61.6321 81.8813C60.9761 84.5063 60.9761 89.8875 60.9761 89.8875C60.9761 89.8875 57.827 88.9688 56.1212 88.575C56.1212 113.25 70.5545 119.419 84.463 119.419C90.1052 119.419 95.6161 118.5 100.865 116.531C100.996 116.531 100.996 116.4 100.996 116.4C100.996 116.269 100.996 116.269 100.996 116.138C100.996 116.006 100.865 116.006 100.865 115.875C100.865 115.875 100.733 115.875 100.602 115.875C96.2721 115.875 92.8606 117.319 86.0376 112.463C72.7852 103.144 74.3597 78.9938 89.5803 68.4938C105.326 57.3375 139.178 60.8813 144.952 61.1438H145.083H145.214C145.214 61.1438 145.345 61.1438 145.345 61.0125V60.8813V60.75V60.6188C145.345 60.4875 145.345 60.4875 145.214 60.3563C145.214 60.4875 145.214 60.4875 145.214 60.3563ZM84.5942 117.45C68.0615 117.45 59.6639 108.525 58.8767 91.4625C63.3379 92.6438 67.5367 93.6938 72.1291 94.35C71.8667 101.044 74.2285 107.606 78.8209 112.725C81.1827 114.956 84.0694 116.663 87.2185 117.581L84.5942 117.45ZM121.858 57.7313C101.783 57.7313 78.5585 60.0938 73.9661 82.0125C73.9661 82.0125 61.6321 80.0438 58.8767 79.3875C62.2882 51.825 109.787 53.925 128.944 57.7313H121.858Z" fill="#2E3340"/>
</svg>
