<svg width="520" height="182" viewBox="0 0 520 182" fill="none" xmlns="http://www.w3.org/2000/svg">
<path d="M234.929 51.1282C235.25 51.2022 235.498 51.4547 235.567 51.7762L237.307 59.8926C237.407 60.3605 237.1 60.8185 236.629 60.9038L219.647 63.9809C219.084 64.0828 218.584 63.6094 218.655 63.0418L220.447 48.7422C220.51 48.2439 220.989 47.909 221.479 48.022L234.929 51.1282Z" fill="#E94F2E"/>
<path fill-rule="evenodd" clip-rule="evenodd" d="M329.926 118.925C335.82 118.925 340.984 116.738 344.135 112.868C344.665 112.218 345.879 112.487 345.965 113.321L346.343 116.954C346.388 117.385 346.751 117.713 347.185 117.713H356.012C356.48 117.713 356.859 117.334 356.859 116.866V49.2222C356.859 48.7543 356.48 48.375 356.012 48.375H346.43C345.962 48.375 345.583 48.7543 345.583 49.2222V74.6216C345.583 75.4704 344.359 75.8681 343.762 75.2649C340.622 72.0932 335.851 70.2762 330.578 70.2762C328.049 70.2762 325.702 70.6163 323.555 71.2595V83.8971C325.731 81.708 328.753 80.4345 332.442 80.4345C340.364 80.4345 345.49 86.2128 345.49 94.5072C345.49 102.802 340.364 108.487 332.442 108.487C328.753 108.487 325.731 107.234 323.555 105.066V118.095C325.521 118.639 327.65 118.925 329.926 118.925ZM386.508 118.925C398.127 118.925 406.35 113.269 408.657 103.806C408.783 103.289 408.381 102.802 407.85 102.802H398.976C398.601 102.802 398.277 103.05 398.145 103.401C396.654 107.403 392.649 109.605 386.697 109.605C379.443 109.605 375.201 105.819 374.136 98.3283C374.064 97.8318 374.457 97.3953 374.958 97.3938L407.844 97.3056C408.312 97.3041 408.69 96.9252 408.69 96.4581V93.855C408.69 79.5027 399.93 70.2762 386.136 70.2762C372.624 70.2762 363.21 80.2482 363.21 94.6938C363.21 108.953 372.81 118.925 386.508 118.925ZM386.229 79.596C392.724 79.596 397.011 83.4183 397.386 89.2788C397.416 89.7459 397.035 90.1272 396.567 90.1272H375.297C374.775 90.1272 374.376 89.6571 374.484 89.1465C375.822 82.8864 379.845 79.596 386.229 79.596ZM437.439 117.192C437.31 117.508 437.001 117.713 436.659 117.713H426.615C426.267 117.713 425.955 117.501 425.826 117.178L408.234 72.8339C408.012 72.2777 408.423 71.6741 409.02 71.6741H419.304C419.655 71.6741 419.97 71.8919 420.096 72.2212L427.902 92.8299C429.135 96.2907 430.218 99.4563 430.992 101.955C431.262 102.819 432.75 102.819 433.023 101.957C433.854 99.3225 435.012 96.1158 436.29 92.8299L444.465 72.2091C444.594 71.8862 444.906 71.6741 445.254 71.6741H455.151C455.754 71.6741 456.165 72.2894 455.931 72.8475L437.439 117.192Z" fill="url(#paint0_linear_2387_1735)"/>
<path d="M63 94.6005C63 109.232 72.1333 118.925 86.1127 118.925C97.7748 118.925 106.543 111.997 108.334 101.799C108.422 101.295 108.026 100.845 107.515 100.845H97.6842C97.2927 100.845 96.9552 101.115 96.8424 101.49C95.4528 106.116 91.5499 108.673 86.1127 108.673C78.8434 108.673 74.37 103.268 74.37 94.6005C74.37 85.9332 79.2162 80.4345 86.4855 80.4345C91.6659 80.4345 95.391 82.917 96.8409 87.7176C96.9531 88.0896 97.2894 88.3563 97.6782 88.3563H107.442C107.946 88.3563 108.34 87.9174 108.265 87.4185C106.683 76.8734 98.2428 70.2762 86.0195 70.2762C72.4129 70.2762 63 80.3415 63 94.6005Z" fill="#140505"/>
<path d="M143.038 72.1493C143.038 71.7605 142.773 71.42 142.394 71.3354C140.803 70.9807 139.404 70.8354 138.005 70.8354C133.237 70.8354 129.533 72.6834 127.197 75.6416C126.653 76.3295 125.282 76.0599 125.197 75.1874L124.939 72.5326C124.897 72.0985 124.532 71.7674 124.096 71.7674H114.994C114.526 71.7674 114.147 72.1467 114.147 72.6146V116.866C114.147 117.334 114.526 117.713 114.994 117.713H124.67C125.138 117.713 125.517 117.334 125.517 116.866V95.346C125.517 86.3991 130.643 82.0191 138.844 82.0191H142.19C142.658 82.0191 143.038 81.6396 143.038 81.1716V72.1493Z" fill="#140505"/>
<path d="M143.688 94.6005C143.688 108.953 154.033 118.832 168.292 118.832C182.551 118.832 192.896 108.953 192.896 94.6005C192.896 80.2482 182.551 70.3694 168.292 70.3694C154.033 70.3694 143.688 80.2482 143.688 94.6005ZM155.058 94.6005C155.058 86.2128 160.463 80.5278 168.292 80.5278C176.12 80.5278 181.526 86.2128 181.526 94.6005C181.526 102.988 176.12 108.673 168.292 108.673C160.463 108.673 155.058 102.988 155.058 94.6005Z" fill="#140505"/>
<path d="M284.95 118.925C290.844 118.925 296.009 116.738 299.16 112.868C299.689 112.218 300.903 112.487 300.99 113.321L301.367 116.954C301.412 117.385 301.776 117.713 302.21 117.713H311.037C311.505 117.713 311.884 117.334 311.884 116.866V49.2222C311.884 48.7543 311.505 48.375 311.037 48.375H301.455C300.987 48.375 300.607 48.7543 300.607 49.2222V74.6216C300.607 75.4704 299.384 75.8681 298.787 75.2649C295.647 72.0932 290.875 70.2762 285.603 70.2762C271.717 70.2762 263.329 80.5278 263.329 94.8801C263.329 109.139 271.623 118.925 284.95 118.925ZM287.467 108.487C279.545 108.487 274.699 102.709 274.699 94.5072C274.699 86.3061 279.545 80.4345 287.467 80.4345C295.389 80.4345 300.514 86.2128 300.514 94.5072C300.514 102.802 295.389 108.487 287.467 108.487Z" fill="#140505"/>
<path fill-rule="evenodd" clip-rule="evenodd" d="M196.404 81.8958C195.899 81.9873 195.591 82.5024 195.749 82.9905L206.805 117.127C206.919 117.476 207.244 117.713 207.611 117.713H217.468C217.836 117.713 218.162 117.475 218.274 117.125L224.423 97.9557C225.606 94.1226 226.405 91.395 226.965 89.3577C227.214 88.4547 228.762 88.4859 228.983 89.3958C229.532 91.6443 230.3 94.4559 231.32 97.7691L237.469 117.123C237.581 117.474 237.908 117.713 238.277 117.713H247.678C248.039 117.713 248.36 117.485 248.479 117.143L263.829 72.7985C264.019 72.2482 263.611 71.6741 263.028 71.6741H252.819C252.448 71.6741 252.121 71.9154 252.01 72.2696L246.045 91.4319C245.497 93.3171 244.672 96.3135 243.958 99.126C243.73 100.024 242.261 100.013 242.039 99.1131C241.285 96.0543 240.354 92.6565 239.987 91.4319L234.021 72.2696C233.911 71.9154 233.583 71.6741 233.212 71.6741H222.898C222.529 71.6741 222.203 71.912 222.091 72.2626L215.942 91.4319C214.982 94.3719 214.292 96.6168 213.699 99.0366C213.477 99.9435 212.075 99.9429 211.873 99.0312C211.281 96.3555 210.649 93.8136 209.978 91.4319L206.714 80.787C206.588 80.3766 206.175 80.1252 205.753 80.2017L196.404 81.8958Z" fill="#140505"/>
<defs>
<linearGradient id="paint0_linear_2387_1735" x1="343.498" y1="93.0396" x2="316.498" y2="96.0399" gradientUnits="userSpaceOnUse">
<stop stop-color="#E94F2E"/>
<stop offset="1" stop-color="#CA2400"/>
</linearGradient>
</defs>
</svg>
