<svg width="520" height="182" viewBox="0 0 520 182" fill="none" xmlns="http://www.w3.org/2000/svg">
<g clip-path="url(#clip0_2406_2)">
<path d="M281.61 35H300.353C318.96 35.19 337.54 35.4867 356.077 37.23C359.17 37.5211 362.247 37.9333 365.307 38.4667C370.757 39.4133 378.27 41.3967 379 48.1033V49.4367C378.383 54.1233 375.873 58.0733 373.093 61.95C373.063 61.9913 373.024 62.0249 372.979 62.0481C372.934 62.0712 372.884 62.0833 372.833 62.0833H345.527C345.511 62.0832 345.495 62.0787 345.482 62.0704C345.468 62.0621 345.458 62.0503 345.45 62.0362C345.443 62.0221 345.44 62.0063 345.441 61.9905C345.442 61.9748 345.448 61.9596 345.457 61.9467C349.937 55.7367 353.097 47.8433 342.09 45.9533C336.77 45.04 331.3 44.7233 325.913 44.48C312.573 43.8767 299.287 43.73 285.937 43.6067C271.617 43.4756 257.306 43.7533 243.003 44.44C237.019 44.7289 231.054 45.2444 225.11 45.9867C217.32 46.96 210.533 48.6733 204.02 53.1967C199.173 56.5611 194.918 60.8911 191.253 66.1867C184.931 75.3311 178.83 84.62 172.95 94.0533C168.03 101.943 162.82 112.947 176.92 115.483C187.687 117.42 199.1 117.777 210.02 118.067C225.769 118.487 241.519 118.596 257.27 118.393C270.467 118.22 283.647 117.787 296.857 115.867C304.167 114.8 310.113 111.923 315.527 107.077C320.36 102.75 325.913 96.33 327.27 90.0333C327.299 89.9 327.246 89.8333 327.11 89.8333L248.197 89.84C248.003 89.84 247.959 89.7589 248.063 89.5967L253.383 81.3933C253.446 81.2978 253.533 81.25 253.647 81.25H360.413C360.443 81.2501 360.473 81.258 360.499 81.2728C360.526 81.2876 360.548 81.3089 360.563 81.3346C360.579 81.3603 360.588 81.3897 360.589 81.4198C360.59 81.4499 360.584 81.4798 360.57 81.5067C351.29 99.63 336.183 117.953 314.997 122.243C309.634 123.33 303.822 124.153 297.56 124.713C271.953 127.01 246.17 127.093 220.48 127.03C206.647 126.994 192.828 126.523 179.023 125.617C172.312 125.174 165.642 124.392 159.013 123.27C151.57 122.01 141.68 119.953 141 110.467V108.73C141.767 100.983 145.91 94.5133 149.913 88.0667C155.111 79.7 159.789 72.52 163.947 66.5267C172.847 53.6933 185.933 45.48 200.837 41.6767C210.497 39.21 220.44 37.97 230.36 37.1667C247.404 35.7889 264.488 35.0667 281.61 35Z" fill="black"/>
<path d="M213.643 70.2967C210.017 67.3833 206.367 64.4444 202.693 61.48C202.358 61.2089 202.116 60.9222 201.967 60.62C201.923 60.5319 201.899 60.4357 201.895 60.3376C201.891 60.2395 201.908 60.1417 201.945 60.0505C201.981 59.9593 202.036 59.8768 202.107 59.8084C202.177 59.74 202.261 59.6872 202.353 59.6533C202.807 59.4867 203.07 59.6833 203.477 59.84C207.963 61.5533 212.411 63.2555 216.82 64.9467C216.925 64.9867 217.037 65.003 217.148 64.9943C217.26 64.9855 217.368 64.952 217.465 64.8961C217.563 64.8402 217.646 64.7634 217.71 64.6713C217.773 64.5791 217.815 64.4739 217.833 64.3633C218.64 59.4878 219.417 54.6167 220.163 49.75C220.317 48.7533 221.603 48.7533 221.753 49.6667C222.547 54.6133 223.338 59.5278 224.127 64.41C224.144 64.5132 224.183 64.6113 224.243 64.6973C224.302 64.7834 224.38 64.8551 224.471 64.9074C224.561 64.9597 224.662 64.9912 224.766 64.9998C224.871 65.0083 224.975 64.9936 225.073 64.9567C229.593 63.2411 234.158 61.4955 238.767 59.72C239.58 59.4067 240.157 59.8133 240.013 60.7133C240.005 60.767 239.976 60.8158 239.933 60.85L228.273 70.3567C228.183 70.4302 228.11 70.5228 228.06 70.6279C228.01 70.733 227.984 70.8478 227.984 70.9642C227.983 71.0806 228.009 71.1956 228.058 71.3009C228.108 71.4062 228.18 71.4993 228.27 71.5733C231.93 74.5689 235.572 77.5322 239.197 80.4633C239.783 80.9367 240.247 81.1767 239.943 81.9167C239.871 82.0907 239.734 82.2298 239.562 82.3045C239.39 82.3792 239.195 82.3835 239.02 82.3167L225.163 76.9867C225.047 76.9419 224.922 76.9252 224.798 76.9378C224.674 76.9504 224.555 76.9919 224.45 77.0591C224.346 77.1263 224.258 77.2172 224.195 77.3245C224.132 77.4318 224.095 77.5524 224.087 77.6767L221.76 112.59C221.751 112.724 221.707 112.854 221.634 112.967C221.56 113.08 221.459 113.171 221.34 113.233C220.693 113.567 220.233 113.133 220.19 112.48C219.421 101.153 218.651 89.8278 217.88 78.5033C217.853 78.1278 217.833 77.8144 217.82 77.5633C217.814 77.4551 217.783 77.3498 217.728 77.2561C217.674 77.1623 217.598 77.0828 217.508 77.0239C217.417 76.9651 217.314 76.9286 217.206 76.9175C217.099 76.9064 216.991 76.9209 216.89 76.96C212.301 78.7222 207.72 80.4789 203.147 82.23C202.517 82.47 201.963 82.27 201.83 81.58C201.806 81.4622 201.836 81.3622 201.92 81.28C202.151 81.0533 202.388 80.8389 202.63 80.6367C206.346 77.57 210.019 74.5578 213.65 71.6C213.747 71.5211 213.825 71.4214 213.878 71.3084C213.932 71.1953 213.959 71.0718 213.959 70.9467C213.958 70.8217 213.929 70.6984 213.875 70.5859C213.82 70.4734 213.741 70.3746 213.643 70.2967Z" fill="black"/>
<path d="M167.31 147H161.253C159.28 147 158.179 146.222 157.95 144.667C157.673 142.807 157.397 138.203 160.333 137.997C162.82 137.821 165.036 137.808 166.98 137.957C168.758 138.09 169.584 139.057 169.46 140.857C169.451 140.981 169.384 141.044 169.26 141.047L167.017 141.077C166.881 141.079 166.813 141.012 166.813 140.877C166.818 140.341 166.604 140.077 166.173 140.083C165.578 140.094 164.187 140.068 162 140.003C160.167 139.947 160.507 142.743 160.727 143.85C161.04 145.433 164.313 144.923 165.667 144.89C166.489 144.87 166.88 144.477 166.84 143.71C166.831 143.572 166.758 143.504 166.62 143.507L163.593 143.533C163.544 143.534 163.496 143.516 163.459 143.482C163.422 143.447 163.4 143.4 163.397 143.35L163.317 142.143C163.315 142.115 163.319 142.086 163.329 142.058C163.338 142.031 163.353 142.006 163.373 141.985C163.393 141.964 163.416 141.947 163.443 141.935C163.469 141.923 163.498 141.917 163.527 141.917L169.31 141.9C169.394 141.9 169.441 141.943 169.45 142.03C169.65 143.947 169.837 146.673 167.31 147Z" fill="black"/>
<path d="M189.693 145.39L188.9 146.853C188.889 146.873 188.873 146.889 188.854 146.9C188.834 146.911 188.812 146.917 188.79 146.917H186.033C186.012 146.916 185.991 146.911 185.972 146.9C185.954 146.889 185.939 146.874 185.928 146.855C185.917 146.837 185.911 146.816 185.911 146.794C185.911 146.773 185.916 146.752 185.927 146.733L190.763 138.04C190.774 138.02 190.79 138.004 190.81 137.993C190.829 137.982 190.851 137.976 190.873 137.977L194.437 137.99C194.458 137.99 194.48 137.996 194.499 138.007C194.517 138.018 194.533 138.034 194.543 138.053L199.263 146.733C199.274 146.752 199.279 146.773 199.279 146.794C199.279 146.816 199.273 146.837 199.262 146.855C199.251 146.874 199.236 146.889 199.218 146.9C199.199 146.911 199.178 146.916 199.157 146.917H196.467C196.445 146.916 196.424 146.91 196.405 146.899C196.386 146.888 196.371 146.872 196.36 146.853L195.567 145.39C195.556 145.371 195.541 145.355 195.522 145.344C195.503 145.333 195.482 145.327 195.46 145.327H189.803C189.781 145.326 189.759 145.332 189.74 145.343C189.72 145.354 189.704 145.37 189.693 145.39ZM190.773 143.26C190.765 143.276 190.76 143.293 190.76 143.311C190.761 143.329 190.766 143.347 190.775 143.362C190.784 143.378 190.797 143.391 190.812 143.4C190.828 143.408 190.845 143.413 190.863 143.413L194.34 143.42C194.358 143.42 194.376 143.415 194.391 143.406C194.407 143.397 194.42 143.384 194.429 143.369C194.438 143.353 194.443 143.336 194.443 143.318C194.443 143.3 194.439 143.282 194.43 143.267L192.697 140.073C192.688 140.057 192.675 140.044 192.659 140.035C192.643 140.026 192.625 140.021 192.607 140.021C192.588 140.021 192.57 140.026 192.555 140.035C192.539 140.044 192.526 140.057 192.517 140.073L190.773 143.26Z" fill="black"/>
<path d="M218.69 144.667H224.643C224.672 144.667 224.699 144.678 224.719 144.698C224.739 144.718 224.75 144.745 224.75 144.773V146.81C224.75 146.838 224.739 146.865 224.719 146.885C224.699 146.905 224.672 146.917 224.643 146.917H215.94C215.912 146.917 215.885 146.905 215.865 146.885C215.845 146.865 215.833 146.838 215.833 146.81V138.053C215.833 138.039 215.836 138.025 215.842 138.012C215.847 137.999 215.855 137.987 215.866 137.977C215.876 137.967 215.888 137.959 215.901 137.954C215.915 137.949 215.929 137.946 215.943 137.947L218.48 138.023C218.508 138.024 218.534 138.036 218.553 138.056C218.573 138.076 218.583 138.102 218.583 138.13V144.56C218.583 144.588 218.595 144.615 218.615 144.635C218.635 144.655 218.662 144.667 218.69 144.667Z" fill="black"/>
<path d="M250.07 145.293L244.413 145.28C244.391 145.28 244.369 145.285 244.35 145.296C244.33 145.308 244.314 145.324 244.303 145.343L243.487 146.853C243.476 146.872 243.461 146.888 243.442 146.899C243.423 146.911 243.402 146.916 243.38 146.917H240.63C240.609 146.916 240.588 146.911 240.569 146.9C240.551 146.889 240.535 146.874 240.524 146.855C240.514 146.837 240.508 146.816 240.508 146.794C240.508 146.773 240.513 146.752 240.523 146.733L245.37 138.027C245.381 138.007 245.397 137.991 245.416 137.98C245.436 137.969 245.458 137.963 245.48 137.963L249.047 138.007C249.068 138.007 249.09 138.013 249.109 138.024C249.127 138.035 249.143 138.051 249.153 138.07L253.867 146.733C253.877 146.752 253.882 146.773 253.882 146.794C253.882 146.816 253.876 146.837 253.866 146.855C253.855 146.874 253.839 146.889 253.821 146.9C253.802 146.911 253.781 146.916 253.76 146.917H251.033C251.011 146.917 250.988 146.911 250.969 146.899C250.95 146.887 250.934 146.87 250.923 146.85L250.18 145.36C250.17 145.34 250.154 145.323 250.134 145.311C250.115 145.299 250.093 145.293 250.07 145.293ZM245.387 143.257C245.377 143.273 245.373 143.292 245.373 143.312C245.373 143.331 245.378 143.35 245.388 143.366C245.398 143.383 245.412 143.396 245.429 143.406C245.445 143.415 245.464 143.42 245.483 143.42L248.933 143.413C248.953 143.413 248.971 143.408 248.988 143.399C249.005 143.39 249.019 143.376 249.028 143.359C249.038 143.343 249.044 143.324 249.044 143.305C249.044 143.286 249.039 143.267 249.03 143.25L247.3 140.057C247.29 140.039 247.276 140.025 247.259 140.015C247.242 140.005 247.222 140 247.202 140.001C247.183 140.001 247.163 140.007 247.146 140.017C247.13 140.028 247.116 140.042 247.107 140.06L245.387 143.257Z" fill="black"/>
<path d="M277.477 147H275.397C273.697 146.987 272.479 146.858 271.743 146.613C269.777 145.957 270.247 140.96 270.57 139.743C270.861 138.634 271.651 138.054 272.94 138.003C275.12 137.919 277.3 137.902 279.48 137.953C281.03 137.987 281.643 139.487 281.59 140.907C281.586 141.024 281.524 141.083 281.407 141.083H279.17C279.041 141.083 278.968 141.019 278.95 140.89C278.883 140.368 278.567 140.102 278 140.093C276.3 140.063 273.237 139.597 273.103 141.137C273.003 142.303 272.763 144.623 274.14 144.753C275.509 144.882 276.906 144.87 278.33 144.717C278.514 144.698 278.684 144.611 278.808 144.474C278.932 144.337 279 144.158 279 143.973V143.71C279 143.57 279.07 143.5 279.21 143.5H281.48C281.558 143.5 281.603 143.539 281.617 143.617C282.183 147.053 279.823 146.803 277.477 147Z" fill="black"/>
<path d="M301.787 140.15L298.037 140.237C298.021 140.237 298.006 140.234 297.991 140.229C297.976 140.223 297.963 140.215 297.952 140.204C297.941 140.193 297.932 140.18 297.926 140.165C297.92 140.151 297.917 140.136 297.917 140.12V138.103C297.917 138.072 297.929 138.043 297.951 138.021C297.973 137.999 298.002 137.987 298.033 137.987L308.467 138.007C308.482 138.007 308.497 138.01 308.511 138.016C308.525 138.021 308.538 138.03 308.549 138.041C308.56 138.052 308.569 138.065 308.574 138.079C308.58 138.093 308.583 138.108 308.583 138.123V140.083C308.583 140.099 308.58 140.114 308.574 140.128C308.569 140.142 308.56 140.155 308.549 140.166C308.538 140.177 308.525 140.185 308.511 140.191C308.497 140.197 308.482 140.2 308.467 140.2L304.7 140.147C304.669 140.147 304.639 140.159 304.618 140.181C304.596 140.203 304.583 140.232 304.583 140.263V146.8C304.583 146.831 304.571 146.861 304.549 146.883C304.527 146.904 304.498 146.917 304.467 146.917H302.027C301.996 146.917 301.966 146.904 301.944 146.883C301.922 146.861 301.91 146.831 301.91 146.8L301.907 140.267C301.907 140.251 301.904 140.236 301.898 140.221C301.891 140.207 301.883 140.194 301.871 140.183C301.86 140.172 301.847 140.164 301.832 140.158C301.818 140.152 301.802 140.15 301.787 140.15Z" fill="black"/>
<path d="M327.747 146.747C327.747 146.791 327.729 146.833 327.698 146.865C327.667 146.896 327.624 146.913 327.58 146.913H325.167C325.122 146.913 325.08 146.896 325.049 146.865C325.018 146.833 325 146.791 325 146.747V138.14C325 138.096 325.018 138.053 325.049 138.022C325.08 137.991 325.122 137.973 325.167 137.973H327.58C327.624 137.973 327.667 137.991 327.698 138.022C327.729 138.053 327.747 138.096 327.747 138.14V146.747Z" fill="black"/>
<path d="M351.81 147H349.73C347.583 146.9 344.977 147.077 344.853 144.447C344.77 142.617 344.39 139.203 346.263 138.277C347.42 137.7 353.863 137.657 354.96 138.29C355.807 138.781 356.164 139.656 356.033 140.913C356.022 141.024 355.96 141.081 355.847 141.083L353.667 141.087C353.527 141.087 353.449 141.017 353.433 140.877C353.373 140.3 353.027 140.103 352.457 140.093C351.221 140.076 349.987 140.068 348.753 140.07C347.163 140.073 347.517 142.307 347.597 143.41C347.72 145.177 349.693 144.827 351.217 144.82C352.417 144.817 353.403 144.993 353.54 143.69C353.553 143.563 353.623 143.5 353.75 143.5H355.917C356.037 143.5 356.107 143.558 356.127 143.673C356.327 144.756 356.074 145.69 355.37 146.477C355.288 146.572 355.183 146.627 355.057 146.64L351.81 147Z" fill="black"/>
</g>
<defs>
<clipPath id="clip0_2406_2">
<rect width="238" height="112" fill="white" transform="translate(141 35)"/>
</clipPath>
</defs>
</svg>
