<svg width="1202" height="203" viewBox="0 0 1202 203" fill="none" xmlns="http://www.w3.org/2000/svg">
<path fill-rule="evenodd" clip-rule="evenodd" d="M14.5122 67.5486C-4.01839 86.0722 -4.01839 116.101 14.5122 134.623L68.1897 188.282C86.7203 206.804 116.761 206.804 135.29 188.282L188.969 134.623C207.498 116.1 207.498 86.0705 188.969 67.5486L135.29 13.8914C116.759 -4.63046 86.7185 -4.63046 68.1897 13.8914L14.5122 67.5486ZM125.224 124.563C138.195 111.596 138.195 90.5755 125.224 77.6108C112.254 64.6443 91.2253 64.6443 78.2557 77.6108C65.2842 90.5773 65.2842 111.596 78.2557 124.563C91.2271 137.528 112.254 137.528 125.225 124.563H125.224Z" fill="#2962FF"/>
<path d="M249.799 178.152V21.5388H280.843V87.5358L277.118 82.5705C279.74 75.8122 283.948 70.8469 289.743 67.6746C295.676 64.3644 302.575 62.7093 310.439 62.7093C318.994 62.7093 326.445 64.5024 332.792 68.0884C339.277 71.6745 344.313 76.7087 347.9 83.1912C351.488 89.5357 353.281 96.9837 353.281 105.535V178.152H322.237V112.155C322.237 107.742 321.34 103.949 319.546 100.777C317.89 97.6043 315.476 95.1217 312.302 93.3287C309.267 91.5356 305.679 90.6391 301.54 90.6391C297.539 90.6391 293.951 91.5356 290.778 93.3287C287.604 95.1217 285.121 97.6043 283.327 100.777C281.671 103.949 280.843 107.742 280.843 112.155V178.152H249.799Z" fill="#0F172A"/>
<path d="M404.533 180.635C396.392 180.635 389.355 179.325 383.422 176.704C377.489 174.084 372.936 170.36 369.763 165.532C366.589 160.567 365.002 154.705 365.002 147.947C365.002 141.602 366.451 136.016 369.349 131.189C372.246 126.224 376.661 122.086 382.594 118.776C388.665 115.466 396.185 113.121 405.154 111.742L439.717 106.156V128.913L410.742 134.085C406.326 134.913 402.946 136.361 400.6 138.43C398.255 140.361 397.082 143.189 397.082 146.912C397.082 150.361 398.393 153.05 401.014 154.981C403.636 156.912 406.878 157.878 410.742 157.878C415.847 157.878 420.331 156.774 424.194 154.567C428.058 152.361 431.024 149.395 433.094 145.671C435.302 141.809 436.405 137.603 436.405 133.051V103.673C436.405 99.3974 434.681 95.8113 431.231 92.9149C427.92 90.0185 423.367 88.5703 417.572 88.5703C412.053 88.5703 407.154 90.0874 402.877 93.1218C398.738 96.1561 395.702 100.156 393.771 105.121L368.935 93.3287C371.142 86.9841 374.661 81.5361 379.49 76.9846C384.319 72.433 390.114 68.916 396.875 66.4333C403.636 63.9507 411.018 62.7093 419.02 62.7093C428.541 62.7093 436.957 64.4334 444.27 67.8815C451.583 71.3296 457.24 76.157 461.241 82.3636C465.381 88.4323 467.45 95.5355 467.45 103.673V178.152H438.475V159.946L445.512 158.705C442.201 163.67 438.544 167.808 434.543 171.118C430.541 174.291 426.057 176.635 421.09 178.152C416.123 179.808 410.604 180.635 404.533 180.635Z" fill="#0F172A"/>
<path d="M530.369 180.635C517.951 180.635 507.12 177.739 497.876 171.946C488.769 166.015 482.56 158.084 479.249 148.154L502.015 137.396C504.913 143.464 508.845 148.223 513.812 151.671C518.779 155.119 524.298 156.843 530.369 156.843C534.785 156.843 538.165 155.947 540.511 154.154C542.856 152.361 544.029 149.878 544.029 146.706C544.029 145.051 543.615 143.671 542.787 142.568C541.959 141.327 540.718 140.223 539.062 139.258C537.406 138.292 535.337 137.465 532.853 136.775L513.605 131.396C504.361 128.775 497.255 124.569 492.288 118.776C487.321 112.845 484.837 105.88 484.837 97.8802C484.837 90.846 486.631 84.7084 490.218 79.4672C493.806 74.2261 498.842 70.1573 505.327 67.2609C511.812 64.2265 519.262 62.7093 527.679 62.7093C538.717 62.7093 548.375 65.3299 556.654 70.5711C565.071 75.6743 571.004 82.9153 574.453 92.2942L551.48 103.052C549.824 98.3629 546.789 94.639 542.373 91.8805C538.096 88.984 533.198 87.5358 527.679 87.5358C523.678 87.5358 520.504 88.3634 518.158 90.0185C515.951 91.6736 514.847 93.9493 514.847 96.8458C514.847 98.3629 515.261 99.7422 516.089 100.983C516.917 102.225 518.227 103.328 520.021 104.294C521.953 105.259 524.298 106.156 527.058 106.983L545.064 112.362C554.446 115.121 561.621 119.328 566.588 124.982C571.556 130.499 574.039 137.327 574.039 145.464C574.039 152.498 572.176 158.636 568.451 163.877C564.864 169.118 559.828 173.256 553.343 176.29C546.858 179.187 539.2 180.635 530.369 180.635Z" fill="#0F172A"/>
<path d="M588.454 178.152V21.5388H619.499V87.5358L615.773 82.5705C618.395 75.8122 622.603 70.8469 628.398 67.6746C634.331 64.3644 641.23 62.7093 649.095 62.7093C657.649 62.7093 665.1 64.5024 671.447 68.0884C677.932 71.6745 682.968 76.7087 686.556 83.1912C690.143 89.5357 691.937 96.9837 691.937 105.535V178.152H660.892V112.155C660.892 107.742 659.995 103.949 658.201 100.777C656.546 97.6043 654.131 95.1217 650.958 93.3287C647.922 91.5356 644.335 90.6391 640.195 90.6391C636.194 90.6391 632.607 91.5356 629.433 93.3287C626.26 95.1217 623.776 97.6043 621.982 100.777C620.327 103.949 619.499 107.742 619.499 112.155V178.152H588.454Z" fill="#0F172A"/>
<path d="M708.211 178.152V65.192H737.186V87.5358L735.53 82.5705C738.152 75.8122 742.36 70.8469 748.155 67.6746C754.088 64.3644 760.987 62.7093 768.852 62.7093C777.406 62.7093 784.857 64.5024 791.204 68.0884C797.689 71.6745 802.725 76.7087 806.313 83.1912C809.9 89.5357 811.694 96.9837 811.694 105.535V178.152H780.649V112.155C780.649 107.742 779.752 103.949 777.958 100.777C776.303 97.6043 773.888 95.1217 770.715 93.3287C767.679 91.5356 764.092 90.6391 759.952 90.6391C755.951 90.6391 752.364 91.5356 749.19 93.3287C746.017 95.1217 743.533 97.6043 741.739 100.777C740.084 103.949 739.256 107.742 739.256 112.155V178.152H708.211Z" fill="#0F172A"/>
<path d="M884.056 180.635C872.88 180.635 862.669 178.084 853.425 172.98C844.318 167.877 837.005 160.912 831.486 152.085C826.105 143.12 823.415 132.982 823.415 121.672C823.415 110.224 826.105 100.087 831.486 91.2598C837.005 82.4326 844.318 75.4674 853.425 70.3642C862.669 65.261 872.88 62.7093 884.056 62.7093C895.232 62.7093 905.373 65.261 914.48 70.3642C923.586 75.4674 930.83 82.4326 936.211 91.2598C941.73 100.087 944.49 110.224 944.49 121.672C944.49 132.982 941.73 143.12 936.211 152.085C930.83 160.912 923.586 167.877 914.48 172.98C905.373 178.084 895.232 180.635 884.056 180.635ZM884.056 152.705C889.713 152.705 894.611 151.395 898.75 148.774C903.028 146.154 906.339 142.499 908.685 137.809C911.168 133.12 912.41 127.741 912.41 121.672C912.41 115.604 911.168 110.293 908.685 105.742C906.339 101.052 903.028 97.3975 898.75 94.7769C894.611 92.0184 889.713 90.6391 884.056 90.6391C878.399 90.6391 873.431 92.0184 869.154 94.7769C864.877 97.3975 861.496 101.052 859.013 105.742C856.667 110.293 855.494 115.604 855.494 121.672C855.494 127.741 856.667 133.12 859.013 137.809C861.496 142.499 864.877 146.154 869.154 148.774C873.431 151.395 878.399 152.705 884.056 152.705Z" fill="#0F172A"/>
<path d="M1011.83 180.635C1000.79 180.635 990.926 178.015 982.233 172.773C973.541 167.532 966.642 160.429 961.537 151.464C956.57 142.499 954.086 132.568 954.086 121.672C954.086 110.638 956.639 100.708 961.744 91.8805C966.849 82.9153 973.748 75.8122 982.44 70.5711C991.133 65.3299 1000.86 62.7093 1011.62 62.7093C1019.9 62.7093 1027.21 64.2955 1033.56 67.4677C1040.05 70.5021 1045.15 74.8467 1048.88 80.5017L1044.12 86.7083V21.5388H1075.16V178.152H1046.19V157.464L1049.08 163.877C1045.22 169.394 1039.98 173.601 1033.35 176.497C1026.73 179.256 1019.56 180.635 1011.83 180.635ZM1015.55 152.705C1021.21 152.705 1026.18 151.395 1030.46 148.774C1034.73 146.154 1038.05 142.499 1040.39 137.809C1042.87 133.12 1044.12 127.741 1044.12 121.672C1044.12 115.604 1042.87 110.224 1040.39 105.535C1038.05 100.846 1034.73 97.1906 1030.46 94.57C1026.18 91.9494 1021.21 90.6391 1015.55 90.6391C1009.9 90.6391 1004.79 92.0184 1000.24 94.7769C995.824 97.3975 992.375 101.052 989.891 105.742C987.407 110.293 986.166 115.604 986.166 121.672C986.166 127.741 987.407 133.12 989.891 137.809C992.375 142.499 995.824 146.154 1000.24 148.774C1004.79 151.395 1009.9 152.705 1015.55 152.705Z" fill="#0F172A"/>
<path d="M1148.19 180.635C1136.18 180.635 1125.77 178.015 1116.94 172.773C1108.11 167.394 1101.28 160.222 1096.45 151.257C1091.62 142.292 1089.2 132.361 1089.2 121.465C1089.2 110.156 1091.69 100.087 1096.65 91.2598C1101.76 82.4326 1108.59 75.4674 1117.14 70.3642C1125.7 65.261 1135.36 62.7093 1146.12 62.7093C1155.09 62.7093 1163.02 64.1576 1169.92 67.054C1176.82 69.8125 1182.61 73.7433 1187.31 78.8466C1192.13 83.9498 1195.79 89.8805 1198.27 96.6389C1200.76 103.259 1202 110.5 1202 118.362C1202 120.569 1201.86 122.776 1201.59 124.982C1201.45 127.051 1201.1 128.844 1200.55 130.362H1115.9V107.604H1182.96L1168.26 118.362C1169.64 112.431 1169.58 107.19 1168.06 102.639C1166.54 97.9492 1163.85 94.2941 1159.99 91.6736C1156.26 88.9151 1151.64 87.5358 1146.12 87.5358C1140.74 87.5358 1136.12 88.8461 1132.25 91.4667C1128.39 94.0873 1125.49 97.9492 1123.56 103.052C1121.63 108.156 1120.87 114.362 1121.28 121.672C1120.73 128.017 1121.49 133.603 1123.56 138.43C1125.63 143.257 1128.8 147.05 1133.08 149.809C1137.36 152.429 1142.53 153.74 1148.6 153.74C1154.12 153.74 1158.81 152.636 1162.68 150.43C1166.68 148.223 1169.78 145.188 1171.99 141.327L1196.83 153.119C1194.62 158.636 1191.1 163.463 1186.27 167.601C1181.58 171.739 1175.99 174.98 1169.51 177.325C1163.02 179.532 1155.92 180.635 1148.19 180.635Z" fill="#0F172A"/>
</svg>
