<svg width="520" height="182" viewBox="0 0 520 182" fill="none" xmlns="http://www.w3.org/2000/svg">
<path fill-rule="evenodd" clip-rule="evenodd" d="M107.876 46.2592C105.959 47.7654 105 49.8739 105 52.585C105 55.266 105.959 57.3594 107.876 58.8656C109.794 60.3718 112.051 61.1248 114.648 61.1248C117.215 61.1248 119.45 60.3642 121.352 58.843C123.255 57.3218 124.206 55.2358 124.206 52.585C124.206 49.8739 123.255 47.7654 121.352 46.2592C119.45 44.7531 117.215 44 114.648 44C112.051 44 109.794 44.7531 107.876 46.2592ZM123.164 65.101H106.042V110.059H123.164V65.101ZM127.035 110.059V64.3329H142.119L142.889 69.3484C144.731 67.2096 146.951 65.6432 149.548 64.6492C151.994 63.7154 154.44 63.2485 156.886 63.2485H157.339C159.362 63.2786 161.227 63.5121 162.933 63.9488C164.639 64.3856 166.263 65.1236 167.803 66.1629C169.343 67.2021 170.656 68.5275 171.744 70.1391C172.83 71.7507 173.691 73.7915 174.325 76.2614C174.96 78.7318 175.277 81.5481 175.277 84.7111V110.059H158.2V84.8013C158.2 82.1805 157.581 80.2604 156.343 79.0402C155.104 77.8204 153.579 77.2103 151.768 77.2103C149.563 77.2103 147.698 77.971 146.173 79.4922C144.648 81.0134 143.886 83.1899 143.886 86.0214V110.059H127.035ZM178.514 64.3329V110.059H195.364V86.0214C195.364 83.1899 196.127 81.0134 197.652 79.4922C199.177 77.971 201.041 77.2103 203.246 77.2103C205.058 77.2103 206.583 77.8204 207.821 79.0402C209.059 80.2604 209.678 82.1805 209.678 84.8013V110.059H226.755V84.7111C226.755 81.5481 226.438 78.7318 225.804 76.2614C225.17 73.7915 224.309 71.7507 223.222 70.1391C222.135 68.5275 220.821 67.2021 219.281 66.1629C217.741 65.1236 216.118 64.3856 214.412 63.9488C212.705 63.5121 210.841 63.2786 208.817 63.2485H208.365C205.919 63.2485 203.472 63.7154 201.027 64.6492C198.429 65.6432 196.21 67.2096 194.368 69.3484L193.598 64.3329H178.514ZM229.775 86.3618C229.775 81.6926 230.915 77.5659 233.195 73.9812C235.475 70.3966 238.54 67.663 242.39 65.7803C246.24 63.8976 250.536 62.9563 255.277 62.9563C258.478 62.9563 261.634 63.5286 264.744 64.6733L268.47 59.9629C268.972 59.3227 269.376 58.7993 269.682 58.3927L277.574 60.3215L282.002 67.2036L276.068 74.2072C278.998 77.4605 280.462 81.271 280.462 85.6389V86.5425C280.402 89.4342 279.647 92.2205 278.197 94.9017C276.748 97.5826 274.71 99.8567 272.082 101.724C274.045 102.839 275.683 104.089 276.997 105.475C278.31 106.86 279.239 108.223 279.783 109.564C280.326 110.904 280.681 112.011 280.847 112.885C281.013 113.758 281.096 114.632 281.096 115.506C281.096 118.367 280.613 120.958 279.647 123.277C278.681 125.597 277.375 127.525 275.729 129.061C274.083 130.597 272.135 131.885 269.885 132.924C267.636 133.963 265.288 134.709 262.842 135.161C260.396 135.612 257.814 135.838 255.096 135.838C246.912 135.838 240.646 133.835 236.298 129.829C232.372 126.214 230.409 121.379 230.409 115.325C230.409 114.692 230.424 114.044 230.454 113.382H246.49V113.698C246.49 115.181 246.672 116.442 247.036 117.483L247.124 117.72C247.546 118.925 248.188 119.828 249.049 120.43C249.91 121.033 250.823 121.455 251.789 121.696C252.756 121.937 253.858 122.057 255.096 122.057C257.482 122.057 259.49 121.493 261.12 120.363C262.751 119.233 263.567 117.614 263.567 115.506C263.567 113.668 262.91 112.192 261.596 111.077C260.333 110.006 258.337 109.449 255.608 109.408L255.277 109.406C247.546 109.406 241.363 107.327 236.728 103.17C232.093 99.0132 229.775 93.4106 229.775 86.3618ZM248.913 92.7763C247.237 91.1346 246.399 88.9732 246.399 86.2924C246.399 83.3402 247.229 81.0286 248.89 79.3567C250.551 77.6849 252.68 76.8488 255.277 76.8488C257.753 76.8488 259.814 77.7677 261.46 79.605C263.106 81.4427 263.929 83.6716 263.929 86.2924C263.929 89.1844 263.098 91.3984 261.437 92.9344C259.776 94.4708 257.723 95.239 255.277 95.239C252.71 95.239 250.589 94.4181 248.913 92.7763ZM282.938 87.2865C282.938 84.0635 283.429 81.1039 284.411 78.4078C285.392 75.7118 286.706 73.4451 288.351 71.6076C289.997 69.7701 291.915 68.2112 294.104 66.931C296.294 65.6508 298.596 64.717 301.012 64.1296C303.428 63.5422 305.904 63.2485 308.441 63.2485C312.517 63.2485 316.224 63.9036 319.561 65.214C322.898 66.5244 325.669 68.4145 327.873 70.8846C330.077 73.3547 331.602 76.3671 332.448 79.9216C332.805 81.4275 332.987 83.0085 332.994 84.6639L332.991 85.1627C332.991 87.3014 332.735 89.5908 332.221 92.0308H300.196C300.77 93.8985 302.084 95.3369 304.137 96.346C306.191 97.355 308.29 97.8597 310.434 97.8597C314.963 97.8597 318.889 96.6247 322.211 94.1546L330.545 103.508C327.858 106.008 324.71 107.898 321.101 109.178C317.492 110.458 313.68 111.099 309.664 111.099C305.949 111.099 302.514 110.632 299.359 109.698C296.203 108.764 293.387 107.356 290.911 105.473C288.434 103.59 286.487 101.098 285.067 97.9952C283.648 94.8924 282.938 91.323 282.938 87.2865ZM316.911 81.0961H300.287C300.498 79.6804 301.201 78.4906 302.393 77.5268C303.586 76.5627 304.968 75.9753 306.538 75.7645C307.263 75.6742 307.973 75.629 308.667 75.629C309.513 75.629 310.343 75.6891 311.158 75.8097C312.698 76.0506 314.02 76.6455 315.122 77.5944C316.224 78.5433 316.821 79.7104 316.911 81.0961ZM333.067 105.27L338.638 92.8442C340.783 94.2299 342.972 95.3217 345.207 96.12C347.441 96.9182 349.185 97.4003 350.438 97.5658C351.691 97.7317 353.164 97.8597 354.855 97.9499C357.965 97.9499 359.52 97.2121 359.52 95.7359C359.52 94.3201 357.905 93.4766 354.674 93.2057C352.771 93.1455 350.937 92.9496 349.17 92.6182C347.403 92.2868 345.644 91.7446 343.893 90.9917C342.141 90.2387 340.624 89.3124 339.34 88.2128C338.057 87.1132 337.015 85.7049 336.215 83.9881C335.415 82.271 335.015 80.3432 335.015 78.2045C335.015 75.5537 335.604 73.2342 336.781 71.2461C337.959 69.258 339.56 67.6991 341.583 66.5695C343.606 65.4399 345.841 64.604 348.287 64.0618C350.733 63.5196 353.36 63.2485 356.169 63.2485C359.822 63.2485 363.295 63.7455 366.587 64.7396C369.878 65.7336 372.657 67.0891 374.921 68.8061L367.674 78.9726C366.509 78.2355 364.875 77.6052 362.774 77.0813L362.374 76.9846C360.2 76.4424 358.222 76.1712 356.44 76.1712H356.169C353.45 76.1712 352.092 76.9242 352.092 78.4305C352.092 78.9726 352.356 79.4696 352.884 79.9216C353.378 80.3432 354.18 80.5812 355.291 80.6355L355.534 80.6445C357.648 80.7046 359.611 80.8705 361.423 81.1414C363.235 81.4127 365.099 81.8944 367.017 82.5872C368.935 83.2801 370.573 84.1689 371.932 85.2532C373.291 86.3376 374.4 87.776 375.261 89.5684C376.122 91.3606 376.552 93.4165 376.552 95.7359C376.552 97.935 376.167 99.9156 375.397 101.678C374.627 103.44 373.577 104.908 372.249 106.083C370.92 107.258 369.335 108.244 367.493 109.043C365.651 109.841 363.71 110.413 361.672 110.76C359.634 111.106 357.482 111.279 355.217 111.279C351.14 111.279 347.064 110.745 342.987 109.675C338.91 108.606 335.604 107.137 333.067 105.27ZM377.355 64.604V77.6623H384.693V93.4317C384.663 95.9017 384.92 98.1158 385.464 100.074C386.067 102.242 386.883 104.012 387.909 105.383C388.936 106.753 390.189 107.883 391.669 108.772C393.149 109.66 394.704 110.285 396.335 110.647C397.966 111.008 399.732 111.189 401.634 111.189C406.828 111.189 411.222 110.165 414.816 108.116L411.101 95.5099C409.471 96.5642 407.81 97.0915 406.119 97.0915C403.159 97.0915 401.634 95.6156 401.544 92.6635V77.6623H411.962V64.604H401.634V51.4102L384.693 53.2628V64.604H377.355Z" fill="#6366F1"/>
</svg>
