<svg width="520" height="182" viewBox="0 0 520 182" fill="none" xmlns="http://www.w3.org/2000/svg">
<path d="M357.272 55.0377C355.257 55.6558 351.569 56.686 345.797 57.2011C341.186 57.6132 333.878 57.3728 333.673 57.3728C313.557 57.4072 308.263 69.9758 308.263 77.668C308.263 81.4798 309.39 85.9097 312.532 89.5498C310.585 91.4042 307.922 94.8726 307.922 99.9206C307.922 106.514 312.088 109.879 312.088 109.879C312.088 109.879 307.58 115.202 307.58 121.761C307.58 134.227 317.314 139 333.673 139C349.042 139 359.8 133.849 359.8 121.006C359.8 107.338 350.544 102.153 339.923 102.153C337.191 102.153 328.106 102.153 324.896 102.153C323.017 102.153 321.207 100.573 321.207 98.4096C321.207 97.1734 321.753 96.2805 322.471 95.6281C325.339 96.4866 328.755 96.9673 332.819 96.9673H334.595C353.857 96.9673 359.117 85.841 359.117 77.668C359.117 74.7834 358.365 71.2464 356.384 67.9153C358.195 67.4346 359.731 66.9881 360.79 66.5074C361.507 66.1983 362.19 65.4428 361.951 64.4126C361.234 61.6654 359.731 56.6517 359.629 56.3083C359.356 55.4841 358.502 54.6599 357.272 55.0377ZM325.579 77.1872C325.579 70.903 329.574 67.5032 333.946 67.4689C338.318 67.5032 341.733 70.903 341.733 77.1872C341.733 83.0595 338.488 86.8369 333.673 86.8712C328.857 86.8369 325.579 83.0251 325.579 77.1872ZM337.942 114.103C342.279 114.103 344.363 116.919 344.363 120.525C344.363 123.753 342.689 127.393 334.151 127.393C325.305 127.393 323.632 124.131 323.632 121.28C323.632 116.644 326.364 114.103 326.364 114.103C326.364 114.103 330.531 114.103 337.942 114.103ZM298.803 55.0377C296.788 55.6558 293.099 56.686 287.327 57.2011C282.717 57.6132 275.408 57.3728 275.203 57.3728C255.087 57.4072 249.793 69.9758 249.793 77.668C249.793 81.4798 250.92 85.9097 254.062 89.5498C252.116 91.4042 249.452 94.8726 249.452 99.9206C249.452 106.514 253.618 109.879 253.618 109.879C253.618 109.879 249.11 115.202 249.11 121.761C249.11 134.227 258.844 139 275.203 139C290.572 139 301.33 133.849 301.33 121.006C301.33 107.338 292.075 102.153 281.453 102.153C278.721 102.153 269.636 102.153 266.426 102.153C264.547 102.153 262.737 100.573 262.737 98.4096C262.737 97.1734 263.284 96.2805 264.001 95.6281C266.87 96.4866 270.285 96.9673 274.349 96.9673H276.125C295.387 96.9673 300.647 85.841 300.647 77.668C300.647 74.7834 299.896 71.2464 297.915 67.9153C299.725 67.4346 301.262 66.9881 302.32 66.5074C303.038 66.1983 303.721 65.4428 303.482 64.4126C302.764 61.6654 301.262 56.6517 301.159 56.3083C300.886 55.4841 299.998 54.6599 298.803 55.0377ZM267.109 77.1872C267.109 70.903 271.105 67.5032 275.476 67.4689C279.848 67.5032 283.263 70.903 283.263 77.1872C283.263 83.0595 280.019 86.8369 275.203 86.8712C270.388 86.8369 267.109 83.0251 267.109 77.1872ZM279.472 114.103C283.81 114.103 285.893 116.919 285.893 120.525C285.893 123.753 284.219 127.393 275.681 127.393C266.836 127.393 265.162 124.131 265.162 121.28C265.162 116.644 267.894 114.103 267.894 114.103C267.894 114.103 272.061 114.103 279.472 114.103ZM179.575 98.753C176.399 98.753 174.486 97.6198 174.486 94.1514V43.8084C174.486 42.6751 173.496 41.851 172.369 42.0227C168.168 42.7095 159.083 44.1174 158.503 44.1861C157.786 44.2891 157 44.9416 157 45.9031C157 52.8399 157 82.6474 157 96.1432C157 111.459 168.475 112.901 174.93 112.901C179.029 112.901 181.897 112.352 183.434 111.94C184.322 111.699 184.766 110.978 184.766 110.223V100.195C184.766 99.2681 183.947 98.2379 182.683 98.444C181.863 98.65 180.839 98.753 179.575 98.753ZM225.272 58.3687C224.179 58.3687 223.461 59.2616 223.461 60.0514C223.461 60.6352 223.461 93.1899 223.461 93.1899C222.198 94.5635 218.065 98.65 213.147 98.65C210.039 98.65 208.673 97.139 208.673 93.1212V60.1544C208.673 59.1585 207.854 58.403 206.829 58.403H192.929C192.109 58.403 191.187 59.0899 191.187 60.1544V96.0058C191.187 104.625 193.714 113.004 205.736 113.004C213.352 113.004 220.012 108.025 223.837 104.488C224.452 106.548 225.579 110.394 225.681 110.772C225.818 111.253 226.33 112.043 227.389 112.043H239.172C239.787 112.043 240.948 111.562 240.948 110.223V60.0514C240.948 59.1585 240.162 58.3344 239.138 58.3344H225.272V58.3687Z" fill="#3C4BA3"/>
</svg>
