<?xml version="1.0" encoding="UTF-8"?>
<svg id="Layer_1" data-name="Layer 1" xmlns="http://www.w3.org/2000/svg" viewBox="0 0 149.82 36">
  <defs>
    <style>
      .cls-1 {
        fill: none;
        stroke: #20808d;
        stroke-miterlimit: 10;
      }

      .cls-2 {
        fill: #13343b;
        stroke-width: 0px;
      }
    </style>
  </defs>
  <path class="cls-1" d="m23.566,1.398l-9.495,9.504h9.495V1.398v2.602V1.398Zm-9.496,9.504L4.574,1.398v9.504h9.496Zm-.021-10.902v36m9.517-15.596l-9.495-9.504v13.625l9.495,9.504v-13.625Zm-18.991,0l9.496-9.504v13.625l-9.496,9.504v-13.625ZM.5,10.9v13.57h4.074v-4.066l9.496-9.504H.5Zm13.57,0l9.495,9.504v4.066h4.075v-13.57h-13.57Z"/>
  <path class="cls-2" d="m55.46,13.028c.593-1.109,1.422-1.963,2.491-2.564,1.067-.599,2.319-.899,3.755-.899s2.625.295,3.62.886c.996.591,1.741,1.374,2.234,2.349.493.976.74,2.045.74,3.207v1.61h-11.171c.09,1.396.561,2.506,1.413,3.329.852.824,1.996,1.235,3.433,1.235,1.166,0,2.06-.237,2.678-.711.62-.474,1.072-1.131,1.36-1.973h2.558c-.341,1.306-1.036,2.439-2.086,3.396-1.049.958-2.553,1.436-4.509,1.436-1.472,0-2.769-.3-3.891-.899-1.121-.599-1.988-1.454-2.598-2.564-.61-1.11-.915-2.416-.915-3.92s.296-2.809.889-3.919h-.001Zm10.149,2.576c0-1.217-.314-2.169-.942-2.859-.628-.689-1.615-1.033-2.962-1.033-1.256,0-2.284.335-3.082,1.006-.799.671-1.288,1.634-1.467,2.886h8.453Zm6.047-5.637v2.228c0,.126.063.188.189.188.072,0,.125-.018.162-.054.037-.036.072-.107.107-.214.466-1.467,1.624-2.201,3.473-2.201h1.184v2.415h-1.535c-1.203,0-2.1.286-2.693.859-.593.573-.889,1.512-.889,2.819v7.919h-2.423v-13.96h2.425Zm19.342,11.019c-.637,1.118-1.463,1.955-2.477,2.509-1.014.554-2.105.832-3.271.832-2.297,0-3.913-.912-4.846-2.738-.072-.142-.162-.214-.269-.214s-.162.054-.162.161v7.489h-2.423V9.968h2.423v2.389c0,.107.054.161.162.161s.197-.072.269-.214c.933-1.826,2.549-2.738,4.846-2.738,1.166,0,2.257.278,3.271.832,1.014.554,1.839,1.391,2.477,2.51.637,1.118.956,2.466.956,4.039s-.319,2.921-.956,4.04Zm-2.8-7.892c-.889-.922-2.06-1.383-3.513-1.383s-2.625.461-3.513,1.383c-.889.922-1.215,2.206-1.215,3.852s.326,2.931,1.215,3.852c.889.922,2.06,1.383,3.513,1.383s2.625-.46,3.513-1.383c.889-.922,1.333-2.206,1.333-3.852s-.444-2.93-1.333-3.852Zm7.272-8.496v19.327h-2.423V4.6h2.423Zm1.995,8.429c.592-1.109,1.422-1.963,2.491-2.564,1.067-.599,2.319-.899,3.754-.899s2.626.295,3.621.886c.996.591,1.741,1.374,2.234,2.349.494.976.74,2.045.74,3.207v1.61h-11.171c.09,1.396.561,2.506,1.413,3.329.852.824,1.996,1.235,3.433,1.235,1.166,0,2.059-.237,2.678-.711.62-.474,1.072-1.131,1.36-1.973h2.558c-.341,1.306-1.037,2.439-2.086,3.396-1.049.958-2.553,1.436-4.509,1.436-1.472,0-2.769-.3-3.891-.899-1.121-.599-1.988-1.454-2.598-2.564-.61-1.11-.915-2.416-.915-3.92s.296-2.809.889-3.919h-.001Zm10.149,2.576c0-1.217-.314-2.169-.942-2.859-.628-.689-1.615-1.033-2.962-1.033-1.255,0-2.284.335-3.082,1.006-.799.671-1.287,1.634-1.467,2.886h8.453Zm1.613,7.785l5.545-6.846-4.549-6.039v-.537h2.665l3.797,5.207,4.092-5.207h2.718v.564l-5.222,6.416,4.819,6.442v.537h-2.611l-4.119-5.61-4.414,5.61h-2.719v-.537h-.002Zm17.786-17.965v3.021h-2.83v-3.021h2.83Zm-.147,18.503h-2.424v-13.959h2.424v13.959Zm.764-13.959h2.636v-3.758h2.424v3.758h2.774l.681,2.046h-3.455v6.678c0,.912-.023,1.588-.068,2.027-.045.439-.067.703-.067.792,0,.126.035.224.107.295.072.072.17.107.297.107.089,0,.354-.022.794-.067.439-.045,1.117-.067,2.033-.067h.942v2.147h-1.884c-1.544,0-2.693-.375-3.446-1.128-.753-.752-1.131-1.896-1.131-3.436v-7.349h-2.635v-2.046h-.002Zm8.564,0h2.47l4.011,11.711c.055.144.14.333.415.333s.36-.19.414-.333l4.011-11.711h2.304v.537l-5.018,15.059c-.431,1.289-1.036,2.188-1.816,2.698-.781.51-1.688.765-3.197.765h-2.584v-2.147h1.966c.628,0,1.139.022,1.534.067.394.045.646.067.754.067.305,0,.511-.134.62-.402l.754-2.04c.09-.214.098-.375.027-.484-.036-.072-.08-.117-.134-.134-.054-.018-.135-.027-.242-.027h-1.642l-4.645-13.958h-.002Zm-83.162,11.042c-.637,1.118-1.463,1.955-2.477,2.509-1.014.554-2.105.832-3.271.832-2.297,0-3.913-.912-4.846-2.738-.072-.142-.162-.214-.269-.214s-.162.054-.162.161v7.489h-2.423V9.991h2.423v2.389c0,.107.054.161.162.161s.197-.072.269-.214c.932-1.826,2.549-2.738,4.846-2.738,1.166,0,2.257.278,3.271.832,1.014.554,1.839,1.391,2.477,2.509.637,1.118.956,2.466.956,4.04s-.319,2.921-.956,4.039Zm-2.8-7.892c-.889-.922-2.06-1.383-3.513-1.383s-2.625.461-3.513,1.383c-.889.922-1.215,2.206-1.215,3.852s.326,2.931,1.215,3.852c.889.922,2.06,1.383,3.513,1.383s2.625-.46,3.513-1.383c.889-.922,1.333-2.206,1.333-3.852s-.444-2.93-1.333-3.852Z"/>
</svg>