<svg width="520" height="182" viewBox="0 0 520 182" fill="none" xmlns="http://www.w3.org/2000/svg">
<g clip-path="url(#clip0_2387_1476)">
<path fill-rule="evenodd" clip-rule="evenodd" d="M94.2163 105.4C93.1557 107.144 93.1721 109.346 94.2586 111.074L113.924 142.357C115.201 144.387 117.661 145.313 119.944 144.622L176.695 127.454C179.793 126.517 181.35 123.033 179.997 120.072L143.515 40.2693C141.735 36.3775 136.372 36.0581 134.151 39.7116L94.2163 105.4ZM142.545 58.513C141.77 56.7038 139.144 56.9825 138.759 58.9149L124.714 129.437C124.418 130.924 125.798 132.194 127.24 131.76L166.45 119.957C167.594 119.613 168.184 118.338 167.71 117.232L142.545 58.513Z" fill="#2D3748"/>
<path fill-rule="evenodd" clip-rule="evenodd" d="M214.487 90.7958H217.944C221.174 90.7958 223.59 90.1527 225.194 88.8654C226.799 87.5781 227.6 85.7044 227.6 83.2444C227.6 80.7627 226.928 78.9288 225.584 77.7441C224.239 76.5593 222.134 75.9669 219.265 75.9669H214.487V90.7958ZM238.206 82.8691C238.206 88.2452 236.541 92.3557 233.207 95.2031C229.877 98.0517 225.139 99.4741 218.995 99.4741H214.488V117.242H203.984V67.2885H219.807C225.817 67.2885 230.385 68.5928 233.514 71.2C236.642 73.8084 238.206 77.6981 238.206 82.8691Z" fill="#2D3748"/>
<path fill-rule="evenodd" clip-rule="evenodd" d="M266.05 78.3234C267.451 78.3234 268.614 78.4259 269.54 78.631L268.761 88.4023C267.924 88.1755 266.909 88.0609 265.711 88.0609C262.413 88.0609 259.844 88.9151 258.002 90.6235C256.161 92.3319 255.241 94.7243 255.241 97.7995V117.241H244.906V79.0412H252.734L254.259 85.4646H254.766C255.941 83.3243 257.527 81.5978 259.528 80.2875C261.526 78.9785 263.7 78.3234 266.05 78.3234Z" fill="#2D3748"/>
<path fill-rule="evenodd" clip-rule="evenodd" d="M275.021 117.241H285.355V79.0416H275.021V117.241ZM274.582 69.166C274.582 65.7721 276.457 64.0758 280.207 64.0758C283.955 64.0758 285.831 65.7721 285.831 69.166C285.831 70.7839 285.362 72.0423 284.426 72.9423C283.488 73.8423 282.082 74.2911 280.207 74.2911C276.457 74.2911 274.582 72.5828 274.582 69.166Z" fill="#2D3748"/>
<path fill-rule="evenodd" clip-rule="evenodd" d="M321.741 105.896C321.741 109.815 320.391 112.799 317.691 114.849C314.991 116.898 310.953 117.924 305.578 117.924C302.822 117.924 300.474 117.736 298.531 117.359C296.588 116.984 294.769 116.431 293.075 115.702V107.092C294.995 108.004 297.157 108.767 299.565 109.382C301.97 109.996 304.087 110.304 305.916 110.304C309.666 110.304 311.542 109.211 311.542 107.025C311.542 106.204 311.294 105.538 310.797 105.026C310.299 104.512 309.441 103.932 308.221 103.282C307.002 102.633 305.374 101.876 303.342 101.01C300.428 99.7809 298.287 98.6418 296.922 97.5936C295.554 96.5459 294.56 95.3445 293.94 93.9884C293.318 92.6335 293.007 90.9649 293.007 88.9826C293.007 85.5888 294.311 82.9647 296.922 81.1079C299.53 79.2512 303.228 78.3234 308.018 78.3234C312.581 78.3234 317.02 79.326 321.334 81.3299L318.217 88.8464C316.32 88.0259 314.545 87.3551 312.897 86.8303C311.248 86.3067 309.564 86.0449 307.849 86.0449C304.799 86.0449 303.274 86.8761 303.274 88.5387C303.274 89.4737 303.767 90.282 304.748 90.9649C305.731 91.6478 307.882 92.6624 311.202 94.0062C314.163 95.2142 316.332 96.341 317.709 97.3881C319.086 98.4364 320.103 99.6433 320.758 101.01C321.414 102.377 321.741 104.006 321.741 105.896Z" fill="#2D3748"/>
<path fill-rule="evenodd" clip-rule="evenodd" d="M362.681 117.241H352.346V94.9292C352.346 92.1738 351.888 90.1059 350.975 88.7281C350.059 87.3503 348.619 86.6602 346.653 86.6602C344.012 86.6602 342.092 87.6399 340.894 89.5992C339.696 91.5585 339.098 94.7811 339.098 99.2692V117.241H328.763V79.0412H336.659L338.048 83.9275H338.624C339.64 82.1733 341.11 80.8003 343.029 79.8098C344.949 78.8192 347.151 78.3234 349.636 78.3234C355.306 78.3234 359.146 80.1922 361.157 83.9275H362.071C363.088 82.1504 364.584 80.7725 366.561 79.7929C368.538 78.8132 370.768 78.3234 373.253 78.3234C377.544 78.3234 380.793 79.4345 382.994 81.6545C385.197 83.8756 386.298 87.4347 386.298 92.3319V117.241H375.929V94.9292C375.929 92.1738 375.471 90.1059 374.558 88.7281C373.642 87.3503 372.202 86.6602 370.237 86.6602C367.708 86.6602 365.816 87.5723 364.561 89.3941C363.308 91.2171 362.681 94.1092 362.681 98.0723V117.241Z" fill="#2D3748"/>
<path fill-rule="evenodd" clip-rule="evenodd" d="M416.373 99.542L412.374 99.6784C409.37 99.7703 407.134 100.316 405.665 101.319C404.196 102.322 403.463 103.847 403.463 105.898C403.463 108.836 405.134 110.305 408.477 110.305C410.871 110.305 412.787 109.61 414.22 108.22C415.654 106.831 416.373 104.987 416.373 102.685V99.542ZM419.422 117.241L417.423 112.047H417.151C415.412 114.257 413.622 115.788 411.78 116.642C409.94 117.496 407.54 117.924 404.581 117.924C400.943 117.924 398.081 116.877 395.991 114.781C393.902 112.685 392.857 109.701 392.857 105.828C392.857 101.775 394.263 98.7849 397.075 96.8593C399.889 94.9353 404.129 93.8698 409.799 93.6649L416.372 93.4595V91.7851C416.372 87.9134 414.406 85.9771 410.476 85.9771C407.449 85.9771 403.891 86.8988 399.802 88.7447L396.381 81.7061C400.74 79.4053 405.575 78.2543 410.883 78.2543C415.965 78.2543 419.862 79.3715 422.573 81.6035C425.283 83.8355 426.639 87.2294 426.639 91.7851V117.241H419.422Z" fill="#2D3748"/>
</g>
<defs>
<clipPath id="clip0_2387_1476">
<rect width="334" height="108" fill="white" transform="translate(93 37)"/>
</clipPath>
</defs>
</svg>
