<svg width="520" height="182" viewBox="0 0 520 182" fill="none" xmlns="http://www.w3.org/2000/svg">
<path d="M197.711 69.134C177.703 69.134 172.701 73.4482 171.162 81.9996C169.7 90.5511 173.394 94.0947 190.478 94.0947C200.482 94.0947 203.329 94.0947 202.867 96.5601C202.405 99.1024 199.558 99.1024 192.401 99.1024C185.245 99.1024 182.397 99.1024 182.936 96.252H168.007C166.237 106.267 170.7 109.117 190.708 109.117C210.716 109.117 216.18 106.267 217.95 96.252C219.489 87.7004 215.103 84.0797 197.942 84.0797C187.938 84.0797 185.091 84.0026 185.552 81.6145C186.014 79.072 188.861 79.072 196.018 79.072C201.713 79.072 206.022 79.072 205.483 81.9225H219.72C221.259 73.1401 217.719 69.134 197.711 69.134Z" fill="#111111"/>
<path d="M82.0069 88.7431C82.0069 61.6176 91.0373 52.5759 118.129 52.5759C145.22 52.5759 154.251 61.6176 154.251 88.7431C154.251 115.869 145.22 124.91 118.129 124.91C91.0373 124.91 82.0069 115.869 82.0069 88.7431Z" fill="#FFC158"/>
<path fill-rule="evenodd" clip-rule="evenodd" d="M118.536 70.9808L104.715 92.1435C104.276 92.8148 104.758 93.7054 105.559 93.7054H112.678H116.348H118.23L115.882 106.535C115.684 107.619 117.116 108.191 117.718 107.27L131.539 86.1068C131.977 85.4355 131.496 84.5449 130.695 84.5449H122.169H119.905H118.024L120.371 71.7151C120.57 70.6316 119.138 70.0589 118.536 70.9808Z" fill="white"/>
<path d="M263.664 70.5199L260.371 89.0864C259.117 96.251 253.473 99.1014 247.671 99.1014C241.87 99.1014 237.245 96.251 238.578 89.0864L241.87 70.5199H225.878L222.507 89.0864C219.92 103.339 227.603 109.117 240.694 109.117C250.886 109.117 257.471 104.803 257.471 104.803L258.411 107.653H272.914L279.578 70.5199H263.664Z" fill="#111111"/>
<path d="M315.622 69.134C305.431 69.134 300.335 73.4482 300.335 73.4482L300.884 70.5978H284.891L275.171 124.91H291.163L294.769 104.88C294.769 104.88 298.375 109.195 308.567 109.195C321.658 109.195 332.555 104.88 335.378 89.1642C338.12 73.3712 328.715 69.134 315.622 69.134ZM319.307 89.0873C318.052 96.252 312.408 99.1024 306.607 99.1024C300.806 99.1024 296.18 96.252 297.513 89.0873C298.767 81.9225 304.412 79.072 310.213 79.072C316.014 79.072 320.561 81.9225 319.307 89.0873Z" fill="#111111"/>
<path d="M368.665 69.134C351.261 69.134 340.835 74.5268 338.249 88.7791C335.662 103.031 344.128 109.117 361.532 109.117C373.76 109.117 380.424 106.96 386.696 101.414L377.367 95.4814C375.329 96.7141 373.133 99.1024 363.334 99.1024C356.749 99.1024 353.769 96.637 353.927 91.6296H391.4C391.634 90.7051 391.87 89.7805 392.027 88.7791C394.535 74.4497 386.069 69.134 368.665 69.134ZM355.495 84.4649C357.376 80.4589 360.278 79.072 366.863 79.072C373.369 79.072 375.877 80.3818 376.27 84.4649H355.495Z" fill="#111111"/>
<path d="M414.564 73.3712L415.112 70.5207H399.122L392.459 107.654H408.449C408.449 107.654 409.469 101.953 411.271 91.9378C413.076 81.9225 420.601 80.5358 426.401 80.5358C432.125 80.5358 434.006 81.1521 437.768 81.9996L439.807 70.5978C437.768 69.9815 432.91 69.134 428.439 69.134C418.25 69.134 414.564 73.3712 414.564 73.3712Z" fill="#111111"/>
</svg>
