<svg width="151" height="31" viewBox="0 0 151 31" fill="none" xmlns="http://www.w3.org/2000/svg">
<path d="M49.3733 7.59668C40.981 7.59668 38.883 9.40398 38.2374 12.9863C37.6241 16.5687 39.1735 18.0532 46.3392 18.0532C50.5353 18.0532 51.7296 18.0532 51.5359 19.086C51.3422 20.151 50.1479 20.151 47.1461 20.151C44.1443 20.151 42.95 20.151 43.1759 18.9569H36.914C36.1716 23.1524 38.0437 24.3465 46.436 24.3465C54.8282 24.3465 57.12 23.1524 57.8624 18.9569C58.5079 15.3745 56.6681 13.8577 49.4701 13.8577C45.274 13.8577 44.0797 13.8254 44.2734 12.825C44.467 11.7599 45.6613 11.7599 48.6632 11.7599C51.0517 11.7599 52.8593 11.7599 52.6333 12.954H58.6047C59.2503 9.27489 57.7655 7.59668 49.3733 7.59668Z" fill="#111111"/>
<path d="M0.841797 15.8113C0.841797 4.44791 4.62955 0.660156 15.993 0.660156C27.3563 0.660156 31.1442 4.44791 31.1442 15.8113C31.1442 27.1747 27.3563 30.9624 15.993 30.9624C4.62955 30.9624 0.841797 27.1747 0.841797 15.8113Z" fill="#FFC158"/>
<path fill-rule="evenodd" clip-rule="evenodd" d="M16.1637 8.37034L10.3665 17.2358C10.1826 17.517 10.3844 17.8901 10.7204 17.8901H13.7064H15.2461H16.0352L15.0507 23.2648C14.9675 23.7187 15.5679 23.9586 15.8205 23.5724L21.6177 14.7069C21.8016 14.4257 21.5998 14.0526 21.2638 14.0526H17.6876H16.7381H15.949L16.9336 8.67796C17.0167 8.22405 16.4163 7.98413 16.1637 8.37034Z" fill="white"/>
<path d="M77.0367 8.17725L75.6557 15.9551C75.1296 18.9565 72.7621 20.1506 70.3288 20.1506C67.8956 20.1506 65.9555 18.9565 66.5145 15.9551L67.8956 8.17725H61.1877L59.7737 15.9551C58.6886 21.9257 61.9111 24.3462 67.4023 24.3462C71.677 24.3462 74.4391 22.5389 74.4391 22.5389L74.8336 23.733H80.9168L83.7118 8.17725H77.0367Z" fill="#111111"/>
<path d="M98.8303 7.59668C94.5557 7.59668 92.4184 9.40398 92.4184 9.40398L92.6485 8.20987H85.9406L81.8633 30.9625H88.5712L90.0838 22.5715C90.0838 22.5715 91.5963 24.3788 95.871 24.3788C101.362 24.3788 105.933 22.5715 107.117 15.9877C108.267 9.37171 104.322 7.59668 98.8303 7.59668ZM100.376 15.9555C99.8497 18.9569 97.4822 20.151 95.0489 20.151C92.6157 20.151 90.6756 18.9569 91.2346 15.9555C91.7607 12.954 94.1282 11.7599 96.5615 11.7599C98.9948 11.7599 100.902 12.954 100.376 15.9555Z" fill="#111111"/>
<path d="M121.079 7.59668C113.779 7.59668 109.406 9.85581 108.321 15.8264C107.236 21.7969 110.787 24.3465 118.087 24.3465C123.216 24.3465 126.011 23.4429 128.642 21.1192L124.729 18.6341C123.874 19.1505 122.953 20.151 118.843 20.151C116.081 20.151 114.831 19.1182 114.897 17.0205H130.615C130.713 16.6332 130.812 16.2459 130.878 15.8264C131.93 9.82353 128.379 7.59668 121.079 7.59668ZM115.555 14.0191C116.344 12.3409 117.561 11.7599 120.323 11.7599C123.052 11.7599 124.104 12.3086 124.269 14.0191H115.555Z" fill="#111111"/>
<path d="M140.331 9.37171L140.561 8.1776H133.854L131.059 23.7333H137.766C137.766 23.7333 138.194 21.3451 138.95 17.1496C139.707 12.954 142.863 12.3731 145.296 12.3731C147.697 12.3731 148.486 12.6313 150.064 12.9863L150.919 8.20987C150.064 7.95169 148.026 7.59668 146.151 7.59668C141.877 7.59668 140.331 9.37171 140.331 9.37171Z" fill="#111111"/>
</svg>
