<svg width="107" height="32" viewBox="0 0 107 32" fill="none" xmlns="http://www.w3.org/2000/svg">
<path d="M38.7685 12.0909H36.6165V9.47727H34.0455V12.0909H32.4972V14.0795H34.0455V20.1449C34.0312 22.1974 35.5227 23.206 37.4545 23.1491C38.1861 23.1278 38.6903 22.9858 38.9673 22.8935L38.5341 20.8835C38.392 20.919 38.1009 20.983 37.7812 20.983C37.1349 20.983 36.6165 20.7557 36.6165 19.7188V14.0795H38.7685V12.0909ZM40.9187 23H43.4897V12.0909H40.9187V23ZM42.2113 10.5426C43.0281 10.5426 43.6957 9.91761 43.6957 9.15057C43.6957 8.37642 43.0281 7.75142 42.2113 7.75142C41.3874 7.75142 40.7198 8.37642 40.7198 9.15057C40.7198 9.91761 41.3874 10.5426 42.2113 10.5426ZM48.7045 16.608C48.7045 15.0312 49.6562 14.1222 51.0128 14.1222C52.3409 14.1222 53.1364 14.9957 53.1364 16.4517V23H55.7074V16.054C55.7145 13.4403 54.223 11.9489 51.9716 11.9489C50.3381 11.9489 49.2159 12.7301 48.7188 13.9446H48.5909V12.0909H46.1335V23H48.7045V16.608ZM59.5284 27.0696C61.5312 27.0696 62.6889 26.0327 63.3068 24.321L67.6889 12.1051L64.9403 12.0909L62.419 20.3295H62.3054L59.7912 12.0909H57.0639L61.0199 23.2273L60.7997 23.8168C60.3097 25.0241 59.571 25.1165 58.4489 24.7969L57.8523 26.7926C58.2003 26.9418 58.8253 27.0696 59.5284 27.0696ZM69.587 23H72.1154V21.2812H72.2646C72.6694 22.0767 73.5146 23.1918 75.3896 23.1918C77.9606 23.1918 79.8853 21.1534 79.8853 17.5597C79.8853 13.9233 77.9038 11.9489 75.3825 11.9489C73.4577 11.9489 72.6552 13.1065 72.2646 13.8949H72.158V8.45455H69.587V23ZM72.1083 17.5455C72.1083 15.429 73.0174 14.0582 74.6722 14.0582C76.3839 14.0582 77.2646 15.5142 77.2646 17.5455C77.2646 19.5909 76.3697 21.0824 74.6722 21.0824C73.0316 21.0824 72.1083 19.6619 72.1083 17.5455ZM82.071 23H84.642V12.0909H82.071V23ZM83.3636 10.5426C84.1804 10.5426 84.848 9.91761 84.848 9.15057C84.848 8.37642 84.1804 7.75142 83.3636 7.75142C82.5398 7.75142 81.8722 8.37642 81.8722 9.15057C81.8722 9.91761 82.5398 10.5426 83.3636 10.5426ZM87.2859 23H89.8569V16.5866C89.8569 15.2017 90.9009 14.2216 92.3143 14.2216C92.7475 14.2216 93.2873 14.2997 93.5075 14.3707V12.0057C93.2731 11.9631 92.8683 11.9347 92.5842 11.9347C91.3342 11.9347 90.2901 12.6449 89.8924 13.9091H89.7788V12.0909H87.2859V23ZM98.8146 23.1918C100.69 23.1918 101.535 22.0767 101.94 21.2812H102.096V23H104.624V8.45455H102.046V13.8949H101.94C101.549 13.1065 100.746 11.9489 98.8217 11.9489C96.3004 11.9489 94.3189 13.9233 94.3189 17.5597C94.3189 21.1534 96.2436 23.1918 98.8146 23.1918ZM99.532 21.0824C97.8345 21.0824 96.9396 19.5909 96.9396 17.5455C96.9396 15.5142 97.8203 14.0582 99.532 14.0582C101.187 14.0582 102.096 15.429 102.096 17.5455C102.096 19.6619 101.173 21.0824 99.532 21.0824Z" fill="#25283D"/>
<path opacity="0.6" d="M24 6.05496L16.5077 4L13.8716 9.89089L24 6.05496Z" fill="#268472"/>
<path opacity="0.6" d="M16.954 20.5171L10.1255 17.7456L5.94482 28.0001L16.954 20.5171Z" fill="#268472"/>
<path d="M0.000156934 14.5562L16.8354 20.5815L19.5964 7.70885L0.000156934 14.5562Z" fill="#268472"/>
</svg>
