<svg width="520" height="182" viewBox="0 0 520 182" fill="none" xmlns="http://www.w3.org/2000/svg">
<g clip-path="url(#clip0_2406_27)">
<path d="M182.605 69.5638C182.97 68.4396 183.701 67.94 184.675 67.94H189.422C189.909 67.94 190.274 68.0649 190.639 68.4396C191.004 68.8143 191.126 69.1891 191.126 69.6887C191.126 69.8137 191.126 70.0634 191.004 70.3133L176.884 110.785C176.64 111.534 176.275 112.159 176.032 112.409C175.666 112.783 175.179 112.908 174.571 112.908H169.58C168.971 112.908 168.484 112.783 168.119 112.409C167.754 112.034 167.51 111.534 167.267 110.785L153.146 70.3133C153.025 70.0634 153.025 69.8137 153.025 69.6887C153.025 69.1891 153.146 68.8143 153.511 68.4396C153.877 68.0649 154.242 67.94 154.729 67.94H159.476C160.45 67.94 161.18 68.4396 161.546 69.5638L172.136 100.292L182.605 69.5638Z" fill="#2B2678"/>
<path d="M193.074 80.0564C193.439 79.6816 193.804 79.5567 194.291 79.5567H199.039C199.525 79.5567 199.891 79.6816 200.256 80.0564C200.621 80.4311 200.742 80.8059 200.742 81.3055V97.669C200.742 100.417 201.352 102.416 202.447 103.915C203.543 105.414 205.247 106.163 207.559 106.163C209.751 106.163 211.455 105.414 212.551 103.915C213.768 102.416 214.376 100.292 214.376 97.669V81.3055C214.376 80.8059 214.498 80.4311 214.864 80.0564C215.229 79.6816 215.594 79.5567 216.081 79.5567H220.829C221.315 79.5567 221.68 79.6816 222.046 80.0564C222.411 80.4311 222.532 80.8059 222.532 81.3055V111.284C222.532 111.784 222.411 112.159 222.046 112.534C221.68 112.908 221.315 113.033 220.829 113.033H216.081C215.594 113.033 215.229 112.908 214.864 112.534C214.498 112.159 214.376 111.784 214.376 111.284V109.785C211.942 112.409 209.021 113.658 205.611 113.658C200.864 113.658 197.578 112.284 195.509 109.536C193.561 106.787 192.465 103.165 192.465 98.6682V81.3055C192.587 80.8059 192.831 80.3063 193.074 80.0564Z" fill="#2B2678"/>
<path d="M251.138 81.0557C253.451 82.5547 255.277 84.5532 256.617 87.0515C257.834 89.5497 258.564 92.2977 258.564 95.1708V98.0438C258.564 98.5434 258.442 98.9182 258.077 99.2929C257.711 99.6676 257.346 99.7925 256.86 99.7925H235.922C235.922 101.666 236.652 103.165 238.114 104.164C239.574 105.289 241.278 105.788 243.226 105.788C245.539 105.788 247.244 105.289 248.582 104.289C249.069 103.915 249.434 103.665 249.678 103.54C249.921 103.415 250.408 103.29 250.895 103.29H255.886C256.372 103.29 256.738 103.415 257.103 103.79C257.468 104.164 257.59 104.539 257.59 104.914C257.59 105.788 256.981 106.912 255.886 108.286C254.79 109.661 253.085 110.91 250.895 111.909C248.704 112.908 246.148 113.408 243.226 113.408C240.182 113.408 237.383 112.658 235.07 111.16C232.757 109.661 230.931 107.662 229.714 105.039C228.496 102.416 227.888 99.4178 227.888 95.9202C227.888 92.6725 228.496 89.7996 229.714 87.1763C230.931 84.5532 232.757 82.4297 235.07 80.9308C237.383 79.4319 240.061 78.5574 243.104 78.5574C246.025 78.8073 248.704 79.5567 251.138 81.0557ZM249.921 92.5476C249.434 88.5504 247.121 86.6768 242.983 86.6768C240.791 86.6768 239.087 87.3013 237.869 88.4255C236.652 89.6746 235.922 91.0487 235.801 92.5476H249.921Z" fill="#2B2678"/>
<path d="M304.578 80.4312C304.213 80.8059 303.847 80.9307 303.361 80.9307H298.978C298.37 80.9307 297.761 80.8059 297.396 80.556C297.03 80.3063 296.665 79.9316 296.422 79.4319C295.691 78.1827 294.717 77.3083 293.378 76.5589C292.039 75.8094 290.214 75.4347 287.9 75.4347C285.587 75.4347 283.762 75.9343 282.18 76.8088C280.597 77.808 279.867 79.0572 279.867 80.556C279.867 81.8052 280.232 82.8044 280.963 83.554C281.692 84.3034 282.788 84.8031 284.37 85.3027C285.953 85.8024 288.388 86.4269 291.918 87.1764C297.03 88.3006 300.683 89.7996 302.873 91.923C305.186 93.9217 306.283 96.6697 306.283 100.167C306.283 102.79 305.552 105.039 304.09 107.037C302.63 109.036 300.56 110.66 297.761 111.784C295.083 112.908 291.796 113.533 288.144 113.533C284.979 113.533 282.057 113.033 279.38 112.034C276.702 111.035 274.511 109.536 272.807 107.662C271.102 105.788 270.25 103.54 270.128 101.167C270.128 100.667 270.25 100.292 270.616 99.9175C270.98 99.5426 271.345 99.4178 271.833 99.4178H276.214C276.823 99.4178 277.433 99.5426 277.797 99.7925C278.162 100.042 278.527 100.417 278.771 100.917C279.501 102.291 280.475 103.415 281.814 104.289C283.153 105.164 285.223 105.538 288.144 105.538C290.944 105.538 293.257 105.039 295.083 104.164C296.908 103.29 297.882 101.916 297.882 100.167C297.882 99.1679 297.518 98.2935 296.787 97.669C296.057 97.0444 295.083 96.5448 293.744 96.1701C292.404 95.7954 290.457 95.2957 287.9 94.5461C286.806 94.2964 285.466 94.0466 283.884 93.5469C279.501 92.4227 276.337 90.9237 274.389 88.9252C272.441 87.0515 271.467 84.1785 271.467 80.4312C271.467 77.9329 272.198 75.6845 273.658 73.561C275.12 71.5624 277.067 69.9386 279.623 68.8143C282.18 67.6902 284.979 67.0656 288.023 67.0656C291.553 67.0656 294.596 67.6902 297.153 68.9393C299.709 70.1884 301.656 71.6873 302.996 73.561C304.335 75.4347 305.064 77.1835 305.186 78.9322C305.064 79.6817 304.943 80.0564 304.578 80.4312Z" fill="#2B2678"/>
<path d="M320.037 104.04C321.377 105.289 323.081 105.913 325.027 105.913C326.854 105.913 328.314 105.663 329.288 105.039C330.262 104.539 331.115 103.54 331.844 102.416C332.21 101.916 332.454 101.416 332.818 101.167C333.184 100.917 333.549 100.667 333.914 100.667H338.661C339.149 100.667 339.514 100.792 339.88 101.167C340.245 101.541 340.366 101.916 340.366 102.416C340.245 103.79 339.635 105.414 338.54 107.162C337.444 108.911 335.74 110.41 333.428 111.659C331.115 112.908 328.314 113.533 325.027 113.533C322.107 113.533 319.429 112.908 317.116 111.534C314.803 110.16 312.977 108.411 311.638 106.163C310.299 103.915 309.568 101.416 309.325 98.7932C309.325 98.2935 309.203 97.4192 309.203 96.1701C309.203 94.921 309.203 94.0466 309.325 93.5469C309.568 90.9237 310.299 88.4255 311.638 86.1771C312.977 83.9287 314.803 82.18 317.116 80.8059C319.429 79.4319 322.107 78.8073 325.027 78.8073C328.314 78.8073 331.115 79.4319 333.428 80.681C335.74 81.9301 337.444 83.429 338.54 85.1778C339.635 86.9265 340.245 88.5505 340.366 89.9245C340.366 90.4242 340.245 90.7989 339.88 91.1736C339.514 91.5483 339.149 91.6732 338.661 91.6732H333.914C333.549 91.6732 333.184 91.5483 332.818 91.1736C332.454 90.9237 332.21 90.4242 331.844 89.9245C330.993 88.6753 330.141 87.8009 329.288 87.3013C328.314 86.8017 326.975 86.4269 325.027 86.4269C323.081 86.4269 321.497 87.0515 320.037 88.3006C318.576 89.5498 317.846 91.4234 317.602 93.9217C317.602 94.2964 317.481 95.0458 317.481 96.1701C317.481 97.2942 317.481 98.0438 317.602 98.4185C317.724 100.917 318.576 102.79 320.037 104.04Z" fill="#2B2678"/>
<path d="M375.303 112.409C374.938 112.783 374.572 112.908 374.085 112.908H369.338C368.85 112.908 368.486 112.783 368.121 112.409C367.756 112.034 367.633 111.659 367.633 111.159V94.9209C367.633 92.2978 367.025 90.1743 365.808 88.6753C364.591 87.1763 362.764 86.4269 360.451 86.4269C358.26 86.4269 356.556 87.1763 355.218 88.8003C353.879 90.2991 353.27 92.4227 353.27 94.9209V111.284C353.27 111.784 353.148 112.159 352.783 112.533C352.417 112.908 352.052 113.033 351.566 113.033H346.817C346.331 113.033 345.966 112.908 345.6 112.533C345.235 112.159 345.114 111.784 345.114 111.284V69.0641C345.114 68.5645 345.235 68.1897 345.6 67.815C345.966 67.4403 346.331 67.3154 346.817 67.3154H351.566C352.052 67.3154 352.417 67.4403 352.783 67.815C353.148 68.1897 353.27 68.5645 353.27 69.0641V82.8045C355.826 80.1813 358.748 78.9321 362.278 78.9321C367.025 78.9321 370.434 80.3062 372.503 83.0542C374.572 85.8023 375.667 89.4247 375.667 93.9216V111.284C375.789 111.659 375.546 112.159 375.303 112.409Z" fill="#2B2678"/>
<path d="M412.308 96.295C412.308 97.4192 412.308 98.5434 412.187 99.5427C411.944 102.166 411.213 104.539 409.874 106.663C408.535 108.786 406.709 110.535 404.396 111.784C402.083 113.033 399.405 113.658 396.483 113.658C393.562 113.658 390.883 113.033 388.572 111.784C386.259 110.535 384.432 108.786 383.094 106.663C381.755 104.539 381.024 102.166 380.781 99.5427C380.781 99.0431 380.659 97.9188 380.659 96.295C380.659 94.6711 380.659 93.5469 380.781 93.0473C381.024 90.4242 381.755 87.9259 383.094 85.8024C384.432 83.6788 386.259 81.9301 388.572 80.681C390.883 79.4319 393.562 78.8073 396.483 78.8073C399.405 78.8073 402.083 79.4319 404.396 80.681C406.709 81.9301 408.535 83.6788 409.874 85.8024C411.213 87.9259 411.944 90.2992 412.187 93.0473C412.308 94.0466 412.308 95.1707 412.308 96.295ZM391.371 88.1758C389.91 89.1749 389.18 90.9237 388.936 93.422C388.936 93.7967 388.815 94.796 388.815 96.295C388.815 97.7939 388.815 98.7932 388.936 99.1679C389.18 101.666 390.032 103.29 391.371 104.414C392.831 105.414 394.415 105.913 396.483 105.913C398.431 105.913 400.136 105.414 401.596 104.414C403.057 103.415 403.788 101.666 404.031 99.1679C404.153 98.2935 404.153 97.2942 404.153 96.295C404.153 95.1707 404.153 94.2964 404.031 93.422C403.788 90.9237 402.935 89.2999 401.596 88.1758C400.136 87.1764 398.553 86.6768 396.483 86.6768C394.536 86.5518 392.831 87.0515 391.371 88.1758Z" fill="#2B2678"/>
<path d="M447.731 96.295C447.731 97.4192 447.731 98.5434 447.609 99.5427C447.366 102.166 446.635 104.539 445.296 106.663C443.958 108.786 442.132 110.535 439.819 111.784C437.506 113.033 434.828 113.658 431.907 113.658C428.985 113.658 426.307 113.033 423.994 111.784C421.681 110.535 419.855 108.786 418.516 106.663C417.177 104.539 416.446 102.166 416.203 99.5427C416.203 99.0431 416.082 97.9188 416.082 96.295C416.082 94.6711 416.082 93.5469 416.203 93.0473C416.446 90.4242 417.177 87.9259 418.516 85.8024C419.855 83.6788 421.681 81.9301 423.994 80.681C426.307 79.4319 428.985 78.8073 431.907 78.8073C434.828 78.8073 437.506 79.4319 439.819 80.681C442.132 81.9301 443.958 83.6788 445.296 85.8024C446.635 87.9259 447.366 90.2992 447.609 93.0473C447.731 94.0466 447.731 95.1707 447.731 96.295ZM426.793 88.1758C425.333 89.1749 424.602 90.9237 424.359 93.422C424.359 93.7967 424.237 94.796 424.237 96.295C424.237 97.7939 424.237 98.7932 424.359 99.1679C424.602 101.666 425.455 103.29 426.793 104.414C428.132 105.414 429.837 105.913 431.907 105.913C433.855 105.913 435.558 105.414 437.019 104.414C438.358 103.415 439.21 101.666 439.453 99.1679C439.575 98.2935 439.575 97.2942 439.575 96.295C439.575 95.1707 439.575 94.2964 439.453 93.422C439.21 90.9237 438.358 89.2999 437.019 88.1758C435.558 87.1764 433.976 86.6768 431.907 86.6768C429.837 86.5518 428.132 87.0515 426.793 88.1758Z" fill="#2B2678"/>
<path d="M460.514 112.409C460.148 112.783 459.783 112.908 459.296 112.908H454.549C454.061 112.908 453.697 112.783 453.332 112.409C452.966 112.034 452.844 111.659 452.844 111.159V69.0641C452.844 68.5645 452.966 68.1897 453.332 67.815C453.697 67.4403 454.061 67.3154 454.549 67.3154H459.296C459.783 67.3154 460.148 67.4403 460.514 67.815C460.878 68.1897 461 68.5645 461 69.0641V111.284C461 111.659 460.878 112.159 460.514 112.409Z" fill="#2B2678"/>
<path d="M81.0175 101.354C75.2989 72.8074 80.7172 54.0748 80.7172 54.0748C80.7172 54.0748 79.2677 65.478 90.662 83.8579C90.5168 106.644 94.9596 118.529 94.9596 118.529L95.8726 117.851L94.9596 118.654C94.9596 118.654 88.2036 113.087 81.0175 101.354Z" fill="url(#paint0_linear_2406_27)"/>
<path d="M107.951 97.3125C110.684 100.093 113.234 102.017 115.077 102.932C115.067 102.926 115.056 102.921 115.045 102.915C115.045 102.915 117.114 103.665 117.479 103.165C120.002 100.469 120.619 95.4436 118.938 85.9991C109.32 80.455 108.106 71.8123 108.106 71.8123C108.106 71.8123 106.374 83.8111 107.951 97.3125Z" fill="url(#paint1_linear_2406_27)"/>
<path d="M80.7169 54.0748C80.7169 54.0748 72.8045 81.4305 86.1948 120.403C86.5599 121.527 86.1948 122.776 85.2209 123.526L71.1003 133.519C69.7612 134.518 67.8136 133.893 67.2049 132.27C63.4313 121.902 53.0843 87.5512 63.553 49.9527C64.0399 48.4537 65.6224 47.5793 67.0832 48.2039L80.7169 54.0748Z" fill="url(#paint2_linear_2406_27)"/>
<path d="M107.741 109.036L94.9595 118.529C94.9595 118.529 88.1426 100.292 91.6727 65.6916C91.9163 63.693 93.9856 62.6937 95.6898 63.693L108.106 71.8123C108.106 71.8123 105.672 88.6754 109.202 104.914C109.567 106.538 108.958 108.162 107.741 109.036Z" fill="url(#paint3_linear_2406_27)"/>
<path d="M131.356 87.9259L119.549 80.0565C118.818 79.5569 117.723 80.3063 117.966 81.1807C120.766 93.7967 120.401 100.042 117.479 103.165C117.114 103.665 115.045 102.915 115.045 102.915C116.992 103.915 117.479 103.415 117.479 103.415C119.427 101.916 126.731 96.5448 131.356 93.2971C133.182 91.923 133.182 89.175 131.356 87.9259Z" fill="url(#paint4_linear_2406_27)"/>
</g>
<defs>
<linearGradient id="paint0_linear_2406_27" x1="94.3019" y1="71.1087" x2="101.96" y2="96.6091" gradientUnits="userSpaceOnUse">
<stop stop-color="#131057"/>
<stop offset="1" stop-color="#4F48AD"/>
</linearGradient>
<linearGradient id="paint1_linear_2406_27" x1="94.3018" y1="71.1087" x2="101.96" y2="96.6091" gradientUnits="userSpaceOnUse">
<stop stop-color="#131057"/>
<stop offset="1" stop-color="#4F48AD"/>
</linearGradient>
<linearGradient id="paint2_linear_2406_27" x1="81.3397" y1="107.333" x2="66.4214" y2="72.8372" gradientUnits="userSpaceOnUse">
<stop stop-color="#EE6D93"/>
<stop offset="1" stop-color="#F7C6B8"/>
</linearGradient>
<linearGradient id="paint3_linear_2406_27" x1="98.9554" y1="117.658" x2="96.6383" y2="63.2938" gradientUnits="userSpaceOnUse">
<stop stop-color="#3CAC96"/>
<stop offset="1" stop-color="#5FCEB8"/>
</linearGradient>
<linearGradient id="paint4_linear_2406_27" x1="124.27" y1="75.4846" x2="115.333" y2="95.2453" gradientUnits="userSpaceOnUse">
<stop stop-color="#80C3FF"/>
<stop offset="0.455382" stop-color="#349BF7"/>
<stop offset="1" stop-color="#714DD6"/>
</linearGradient>
<clipPath id="clip0_2406_27">
<rect width="402" height="86" fill="white" transform="translate(59 48)"/>
</clipPath>
</defs>
</svg>
