<?xml version="1.0" encoding="utf-8"?>
<!-- Generator: Adobe Illustrator 19.0.0, SVG Export Plug-In . SVG Version: 6.00 Build 0)  -->
<svg version="1.1" id="layer" xmlns="http://www.w3.org/2000/svg" xmlns:xlink="http://www.w3.org/1999/xlink" x="0px" y="0px"
	 viewBox="-153 -46 652 652" style="enable-background:new -153 -46 652 652;" xml:space="preserve">
<style type="text/css">
	.st0{fill:#2E3340;}
</style>
<path id="Logo" class="st0" d="M454.3,171.7c-5.9,1.8-16.7,4.8-33.6,6.3c-13.5,1.2-34.9,0.5-35.5,0.5c-58.9,0.1-74.4,36.7-74.4,59.1
	c0,11.1,3.3,24,12.5,34.6c-5.7,5.4-13.5,15.5-13.5,30.2c0,19.2,12.2,29,12.2,29s-13.2,15.5-13.2,34.6c0,36.3,28.5,50.2,76.4,50.2
	c45,0,76.5-15,76.5-52.4c0-39.8-27.1-54.9-58.2-54.9c-8,0-34.6,0-44,0c-5.5,0-10.8-4.6-10.8-10.9c0-3.6,1.6-6.2,3.7-8.1
	c8.4,2.5,18.4,3.9,30.3,3.9h5.2c56.4,0,71.8-32.4,71.8-56.2c0-8.4-2.2-18.7-8-28.4c5.3-1.4,9.8-2.7,12.9-4.1
	c2.1-0.9,4.1-3.1,3.4-6.1c-2.1-8-6.5-22.6-6.8-23.6C460.4,173,457.9,170.6,454.3,171.7z M361.5,236.2c0-18.3,11.7-28.2,24.5-28.3
	c12.8,0.1,22.8,10,22.8,28.3c0,17.1-9.5,28.1-23.6,28.2C371.1,264.3,361.5,253.2,361.5,236.2z M397.7,343.7
	c12.7,0,18.8,8.2,18.8,18.7c0,9.4-4.9,20-29.9,20c-25.9,0-30.8-9.5-30.8-17.8c0-13.5,8-20.9,8-20.9S376,343.7,397.7,343.7z
	 M283.1,171.7c-5.9,1.8-16.7,4.8-33.6,6.3c-13.5,1.2-34.9,0.5-35.5,0.5c-58.9,0.1-74.4,36.7-74.4,59.1c0,11.1,3.3,24,12.5,34.6
	c-5.7,5.4-13.5,15.5-13.5,30.2c0,19.2,12.2,29,12.2,29s-13.2,15.5-13.2,34.6c0,36.3,28.5,50.2,76.4,50.2c45,0,76.5-15,76.5-52.4
	c0-39.8-27.1-54.9-58.2-54.9c-8,0-34.6,0-44,0c-5.5,0-10.8-4.6-10.8-10.9c0-3.6,1.6-6.2,3.7-8.1c8.4,2.5,18.4,3.9,30.3,3.9h5.2
	c56.4,0,71.8-32.4,71.8-56.2c0-8.4-2.2-18.7-8-28.4c5.3-1.4,9.8-2.7,12.9-4.1c2.1-0.9,4.1-3.1,3.4-6.1c-2.1-8-6.5-22.6-6.8-23.6
	C289.2,173,286.6,170.6,283.1,171.7z M190.3,236.2c0-18.3,11.7-28.2,24.5-28.3c12.8,0.1,22.8,10,22.8,28.3
	c0,17.1-9.5,28.1-23.6,28.2C199.9,264.3,190.3,253.2,190.3,236.2z M226.5,343.7c12.7,0,18.8,8.2,18.8,18.7c0,9.4-4.9,20-29.9,20
	c-25.9,0-30.8-9.5-30.8-17.8c0-13.5,8-20.9,8-20.9S204.8,343.7,226.5,343.7z M-66,299c-9.3,0-14.9-3.3-14.9-13.4V139
	c0-3.3-2.9-5.7-6.2-5.2c-12.3,2-38.9,6.1-40.6,6.3c-2.1,0.3-4.4,2.2-4.4,5c0,20.2,0,107,0,146.3c0,44.6,33.6,48.8,52.5,48.8
	c12,0,20.4-1.6,24.9-2.8c2.6-0.7,3.9-2.8,3.9-5v-29.2c0-2.7-2.4-5.7-6.1-5.1C-59.3,298.7-62.3,299-66,299z M67.8,181.4
	c-3.2,0-5.3,2.6-5.3,4.9c0,1.7,0,96.5,0,96.5c-3.7,4-15.8,15.9-30.2,15.9c-9.1,0-13.1-4.4-13.1-16.1v-96c0-2.9-2.4-5.1-5.4-5.1
	h-40.7c-2.4,0-5.1,2-5.1,5.1v104.4c0,25.1,7.4,49.5,42.6,49.5c22.3,0,41.8-14.5,53-24.8c1.8,6,5.1,17.2,5.4,18.3
	c0.4,1.4,1.9,3.7,5,3.7h34.5c1.8,0,5.2-1.4,5.2-5.3V186.3c0-2.6-2.3-5-5.3-5H67.8z"/>
</svg>
