<svg width="42" height="42" viewBox="0 0 42 42" fill="none" xmlns="http://www.w3.org/2000/svg">
<rect width="42" height="42" fill="#77B900"/>
<g clip-path="url(#clip0_50919_10662)">
<path d="M11.0382 16.1495C11.0382 16.1495 12.9234 13.368 16.6875 13.0803V12.0712C12.5183 12.406 8.90796 15.9371 8.90796 15.9371C8.90796 15.9371 10.9528 21.8484 16.6875 22.3896V21.317C12.4791 20.7876 11.0382 16.1495 11.0382 16.1495ZM16.6875 19.1839V20.1662C13.5069 19.5991 12.624 16.2929 12.624 16.2929C12.624 16.2929 14.1512 14.6011 16.6875 14.3268V15.4047C16.6856 15.4047 16.6842 15.4041 16.6826 15.4041C15.3514 15.2443 14.3115 16.4879 14.3115 16.4879C14.3115 16.4879 14.8944 18.5814 16.6875 19.1839ZM16.6875 10.21V12.0712C16.8099 12.0618 16.9323 12.0538 17.0553 12.0496C21.7952 11.8899 24.8836 15.9371 24.8836 15.9371C24.8836 15.9371 21.3365 20.2503 17.6411 20.2503C17.3024 20.2503 16.9853 20.2189 16.6875 20.1661V21.317C16.9422 21.3494 17.2062 21.3684 17.4817 21.3684C20.9206 21.3684 23.4075 19.6121 25.8156 17.5335C26.2148 17.8533 27.8493 18.6312 28.1854 18.9717C25.8957 20.8886 20.5596 22.4339 17.5344 22.4339C17.2428 22.4339 16.9628 22.4162 16.6875 22.3896V24.0069H29.7584V10.21H16.6875ZM16.6875 14.3268V13.0803C16.8086 13.0718 16.9307 13.0654 17.0553 13.0614C20.4638 12.9544 22.7 15.9905 22.7 15.9905C22.7 15.9905 20.2847 19.3449 17.695 19.3449C17.3223 19.3449 16.9882 19.285 16.6875 19.1839V15.4047C18.0144 15.565 18.2814 16.1511 19.0791 17.481L20.8534 15.9849C20.8534 15.9849 19.5582 14.2863 17.3749 14.2863C17.1376 14.2862 16.9105 14.3029 16.6875 14.3268Z" fill="white"/>
<path d="M31.7462 27.4255L32.634 29.8543H30.8309L31.7462 27.4255ZM30.7954 26.4798L28.7495 31.6636H30.1942L30.5178 30.7476H32.939L33.2453 31.6636H34.8136L32.7525 26.4792L30.7954 26.4798ZM26.6879 31.6655H28.1536V26.4782L26.6876 26.4779L26.6879 31.6655ZM16.5125 26.4779L15.2896 30.5892L14.1182 26.4782L12.5367 26.4779L14.2097 31.6655H16.3213L18.0079 26.4779H16.5125ZM22.4372 27.6075H23.0671C23.9811 27.6075 24.5722 28.0178 24.5722 29.0826C24.5722 30.1477 23.9811 30.558 23.0671 30.558H22.4372V27.6075ZM20.9838 26.4779V31.6655H23.36C24.626 31.6655 25.0394 31.4551 25.4864 30.9829C25.8022 30.6514 26.0064 29.924 26.0064 29.1287C26.0064 28.3994 25.8336 27.7492 25.5323 27.3441C24.9893 26.6196 24.2073 26.4779 23.0401 26.4779H20.9838ZM7.09937 26.4707V31.6655H8.5775V27.7211L9.72281 27.7214C10.102 27.7214 10.3724 27.8159 10.555 28.011C10.7866 28.2577 10.8812 28.6559 10.8812 29.3844V31.6655H12.3135V28.7953C12.3135 26.7469 11.0079 26.4707 9.73035 26.4707H7.09937ZM18.6248 26.4779L18.6254 31.6655H20.0904V26.4779H18.6248Z" fill="white"/>
</g>
<defs>
<clipPath id="clip0_50919_10662">
<rect width="28" height="21.6604" fill="white" transform="translate(7 10.1689)"/>
</clipPath>
</defs>
</svg>
