<svg width="42" height="42" viewBox="0 0 42 42" fill="none" xmlns="http://www.w3.org/2000/svg">
<rect width="42" height="42" fill="white"/>
<g clip-path="url(#clip0_50919_10648)">
<path d="M30.1463 17.1816C30.0071 17.2896 27.5495 18.6744 27.5495 21.7536C27.5495 25.3152 30.6767 26.5752 30.7703 26.6064C30.7559 26.6832 30.2735 28.332 29.1215 30.012C28.0943 31.4904 27.0215 32.9664 25.3895 32.9664C23.7575 32.9664 23.3375 32.0184 21.4535 32.0184C19.6175 32.0184 18.9647 32.9976 17.4719 32.9976C15.9791 32.9976 14.9375 31.6296 13.7399 29.9496C12.3527 27.9768 11.2319 24.912 11.2319 22.0032C11.2319 17.3376 14.2655 14.8632 17.2511 14.8632C18.8375 14.8632 20.1599 15.9048 21.1559 15.9048C22.1039 15.9048 23.5823 14.8008 25.3871 14.8008C26.0711 14.8008 28.5287 14.8632 30.1463 17.1816ZM24.5303 12.8256C25.2767 11.94 25.8047 10.7112 25.8047 9.4824C25.8047 9.312 25.7903 9.1392 25.7591 9C24.5447 9.0456 23.0999 9.8088 22.2287 10.8192C21.5447 11.5968 20.9063 12.8256 20.9063 14.0712C20.9063 14.2584 20.9375 14.4456 20.9519 14.5056C21.0287 14.52 21.1535 14.5368 21.2783 14.5368C22.3679 14.5368 23.7383 13.8072 24.5303 12.8256Z" fill="black"/>
</g>
<defs>
<clipPath id="clip0_50919_10648">
<rect width="19.536" height="24" fill="white" transform="translate(11.2319 9)"/>
</clipPath>
</defs>
</svg>
