<svg width="42" height="42" viewBox="0 0 42 42" fill="none" xmlns="http://www.w3.org/2000/svg">
<rect width="42" height="42" fill="white"/>
<path d="M9.24012 24.1409C9.24012 25.2864 9.49155 26.1659 9.82017 26.6979C10.251 27.3948 10.8937 27.6901 11.5489 27.6901C12.3939 27.6901 13.167 27.4804 14.6567 25.4199C15.8502 23.7685 17.2565 21.4503 18.2028 19.9971L19.8052 17.535C20.9184 15.8251 22.2068 13.9243 23.684 12.6358C24.8901 11.5842 26.191 11 27.5003 11C29.6984 11 31.7923 12.2738 33.3947 14.6629C35.1484 17.2794 35.9997 20.575 35.9997 23.9761C35.9997 25.9979 35.6012 27.4835 34.9231 28.6572C34.2679 29.7922 32.991 30.9263 30.8429 30.9263V27.6901C32.6822 27.6901 33.1412 26 33.1412 24.0658C33.1412 21.3095 32.4986 18.2507 31.0828 16.065C30.0782 14.5147 28.7762 13.5675 27.3438 13.5675C25.7946 13.5675 24.5479 14.7359 23.1468 16.8193C22.4019 17.9262 21.6372 19.2751 20.7786 20.7973L19.8334 22.4717C17.9346 25.8383 17.4537 26.6051 16.5043 27.8706C14.8403 30.0864 13.4194 30.9263 11.5489 30.9263C9.32984 30.9263 7.92666 29.9654 7.05762 28.5174C6.3482 27.3374 5.99976 25.7892 5.99976 24.0251L9.24012 24.1409Z" fill="#0081FB"/>
<path d="M8.55469 14.8914C10.0403 12.6014 12.1842 11 14.6432 11C16.0672 11 17.4829 11.4215 18.9612 12.6285C20.5783 13.9483 22.3017 16.1214 24.4519 19.7029L25.2228 20.9882C27.084 24.0887 28.1429 25.6839 28.7626 26.4361C29.5597 27.4021 30.1178 27.6901 30.8429 27.6901C32.6822 27.6901 33.1412 26 33.1412 24.0658L35.9997 23.9761C35.9997 25.9979 35.6012 27.4835 34.9231 28.6572C34.2679 29.7922 32.991 30.9263 30.8429 30.9263C29.5075 30.9263 28.3245 30.6362 27.0162 29.4021C26.0105 28.4548 24.8348 26.772 23.9302 25.2593L21.2397 20.7649C19.8897 18.5094 18.6514 16.8276 17.9346 16.0661C17.1637 15.2471 16.1726 14.2581 14.591 14.2581C13.3109 14.2581 12.2238 15.1563 11.3141 16.5303L8.55469 14.8914Z" fill="url(#paint0_linear_50919_10640)"/>
<path d="M14.591 14.2581C13.3109 14.2581 12.2238 15.1563 11.3141 16.5303C10.0278 18.4718 9.24012 21.3637 9.24012 24.1409C9.24012 25.2864 9.49155 26.1659 9.82017 26.6979L7.05762 28.5174C6.3482 27.3374 5.99976 25.7892 5.99976 24.0251C5.99976 20.8171 6.88027 17.4734 8.5547 14.8914C10.0403 12.6014 12.1842 11 14.6432 11L14.591 14.2581Z" fill="url(#paint1_linear_50919_10640)"/>
<defs>
<linearGradient id="paint0_linear_50919_10640" x1="12.3636" y1="23.2061" x2="33.0202" y2="24.2494" gradientUnits="userSpaceOnUse">
<stop stop-color="#0064E1"/>
<stop offset="0.4" stop-color="#0064E1"/>
<stop offset="0.83" stop-color="#0073EE"/>
<stop offset="1" stop-color="#0082FB"/>
</linearGradient>
<linearGradient id="paint1_linear_50919_10640" x1="10.6944" y1="25.5013" x2="10.6944" y2="17.8855" gradientUnits="userSpaceOnUse">
<stop stop-color="#0082FB"/>
<stop offset="1" stop-color="#0064E0"/>
</linearGradient>
</defs>
</svg>
