<svg width="42" height="42" viewBox="0 0 42 42" fill="none" xmlns="http://www.w3.org/2000/svg">
<rect width="42" height="42" fill="white"/>
<g clip-path="url(#clip0_50919_10666)">
<path fill-rule="evenodd" clip-rule="evenodd" d="M17.2661 7C15.7183 7.00115 14.4656 8.2593 14.4667 9.80965C14.4656 11.36 15.7194 12.6181 17.2672 12.6193H20.0677V9.81079C20.0688 8.26044 18.815 7.00229 17.2661 7C17.2672 7 17.2672 7 17.2661 7ZM17.2661 14.4939H9.80046C8.25266 14.4951 6.99886 15.7532 7 17.3036C6.99772 18.8539 8.25151 20.1121 9.79932 20.1144H17.2661C18.8139 20.1132 20.0677 18.8551 20.0665 17.3047C20.0677 15.7532 18.8139 14.4951 17.2661 14.4939Z" fill="#36C5F0"/>
<path fill-rule="evenodd" clip-rule="evenodd" d="M35.0001 17.3036C35.0013 15.7532 33.7475 14.4951 32.1997 14.4939C30.6519 14.4951 29.3981 15.7532 29.3992 17.3036V20.1144H32.1997C33.7475 20.1132 35.0013 18.8551 35.0001 17.3036ZM27.5334 17.3036V9.80965C27.5345 8.26044 26.2819 7.00229 24.7341 7C23.1863 7.00115 21.9325 8.2593 21.9336 9.80965V17.3036C21.9313 18.8539 23.1851 20.1121 24.7329 20.1144C26.2807 20.1132 27.5345 18.8551 27.5334 17.3036Z" fill="#2EB67D"/>
<path fill-rule="evenodd" clip-rule="evenodd" d="M24.7328 35.1018C26.2806 35.1007 27.5344 33.8425 27.5333 32.2922C27.5344 30.7418 26.2806 29.4837 24.7328 29.4825H21.9324V32.2922C21.9312 33.8414 23.185 35.0995 24.7328 35.1018ZM24.7328 27.6068H32.1996C33.7474 27.6056 35.0012 26.3475 35 24.7971C35.0023 23.2468 33.7485 21.9886 32.2007 21.9863H24.734C23.1862 21.9875 21.9324 23.2456 21.9335 24.796C21.9324 26.3475 23.185 27.6056 24.7328 27.6068Z" fill="#ECB22E"/>
<path fill-rule="evenodd" clip-rule="evenodd" d="M7 24.797C6.99886 26.3473 8.25266 27.6055 9.80046 27.6066C11.3483 27.6055 12.6021 26.3473 12.6009 24.797V21.9873H9.80046C8.25266 21.9885 6.99886 23.2466 7 24.797ZM14.4667 24.797V32.2909C14.4645 33.8412 15.7183 35.0994 17.2661 35.1017C18.8139 35.1005 20.0677 33.8424 20.0665 32.292V24.7992C20.0688 23.2489 18.815 21.9907 17.2672 21.9885C15.7183 21.9885 14.4656 23.2466 14.4667 24.797Z" fill="#E01E5A"/>
</g>
<defs>
<clipPath id="clip0_50919_10666">
<rect width="28" height="28.1022" fill="white" transform="translate(7 7)"/>
</clipPath>
</defs>
</svg>
