<svg width="42" height="42" viewBox="0 0 42 42" fill="none" xmlns="http://www.w3.org/2000/svg">
<rect width="42" height="42" fill="white"/>
<g clip-path="url(#clip0_50919_10645)">
<path d="M33.8289 18.254C34.1637 17.2457 34.2795 16.1775 34.1686 15.1209C34.0576 14.0643 33.7225 13.0435 33.1855 12.1267C31.5521 9.28351 28.2692 7.82101 25.063 8.50824C24.1753 7.52077 23.0433 6.78426 21.7809 6.37269C20.5184 5.96112 19.1699 5.88897 17.8707 6.1635C16.5715 6.43802 15.3675 7.04955 14.3794 7.93668C13.3914 8.8238 12.6542 9.95527 12.2418 11.2175C11.2008 11.4309 10.2173 11.8642 9.3571 12.4882C8.49691 13.1122 7.77981 13.9126 7.25374 14.8359C5.60258 17.6746 5.97747 21.2552 8.18062 23.6906C7.84456 24.6984 7.72758 25.7663 7.83752 26.823C7.94746 27.8797 8.28178 28.9007 8.81812 29.8177C10.4536 32.6619 13.7386 34.1243 16.9465 33.4362C17.6518 34.2304 18.5184 34.865 19.4885 35.2976C20.4586 35.7303 21.5098 35.951 22.572 35.9451C25.8582 35.948 28.7697 33.8265 29.7736 30.6973C30.8145 30.4834 31.7978 30.0501 32.6579 29.4261C33.518 28.8021 34.2352 28.0019 34.7615 27.0788C36.3927 24.2452 36.0164 20.684 33.8289 18.254ZM22.572 33.9853C21.2602 33.9874 19.9896 33.5276 18.9829 32.6866L19.16 32.5862L25.122 29.1449C25.2704 29.0579 25.3936 28.9338 25.4795 28.7847C25.5654 28.6357 25.6111 28.4669 25.612 28.2949V19.8891L28.1326 21.3471C28.1577 21.3599 28.1753 21.384 28.1798 21.4121V28.3775C28.1733 31.4719 25.6664 33.9788 22.572 33.9853ZM10.5182 28.838C9.86036 27.7021 9.62416 26.3706 9.85116 25.0777L10.0282 25.184L15.9961 28.6254C16.1437 28.7121 16.3119 28.7578 16.4831 28.7578C16.6543 28.7578 16.8224 28.7121 16.97 28.6254L24.2602 24.4226V27.3327C24.2595 27.3477 24.2554 27.3625 24.2483 27.3757C24.2411 27.389 24.2311 27.4005 24.2189 27.4094L18.1802 30.8922C15.4967 32.4381 12.0683 31.5188 10.5182 28.838ZM8.94793 15.8513C9.61034 14.7081 10.6559 13.8362 11.8995 13.3898V20.4733C11.8972 20.6444 11.9409 20.813 12.0261 20.9615C12.1112 21.11 12.2347 21.2329 12.3835 21.3174L19.6382 25.5027L17.1176 26.9607C17.104 26.9679 17.0888 26.9717 17.0734 26.9717C17.0579 26.9717 17.0428 26.9679 17.0291 26.9607L11.0022 23.484C8.32404 21.9316 7.40558 18.5059 8.94793 15.8219V15.8513ZM29.6555 20.6623L22.3771 16.4357L24.8919 14.9836C24.9055 14.9764 24.9207 14.9726 24.9362 14.9726C24.9516 14.9726 24.9669 14.9764 24.9805 14.9836L31.0074 18.4664C31.9289 18.9981 32.6801 19.781 33.1734 20.7237C33.6667 21.6663 33.8816 22.7298 33.7931 23.7901C33.7046 24.8503 33.3163 25.8634 32.6735 26.7113C32.0308 27.5591 31.1602 28.2066 30.1632 28.5781V21.4946C30.158 21.3237 30.1085 21.1572 30.0195 21.0113C29.9305 20.8654 29.8051 20.7451 29.6555 20.6623ZM32.1642 16.8904L31.9871 16.784L26.0311 13.3131C25.8825 13.2259 25.7134 13.18 25.5412 13.18C25.3689 13.18 25.1998 13.2259 25.0512 13.3131L17.7669 17.5161V14.606C17.7653 14.5912 17.7678 14.5762 17.774 14.5627C17.7803 14.5492 17.79 14.5377 17.8023 14.5292L23.8292 11.0524C24.7529 10.5202 25.809 10.2621 26.874 10.3082C27.939 10.3543 28.9689 10.7026 29.8432 11.3125C30.7175 11.9224 31.4001 12.7686 31.8111 13.7522C32.2221 14.7358 32.3445 15.8161 32.1641 16.8667V16.8904H32.1642ZM16.3916 22.0494L13.871 20.5973C13.8584 20.5897 13.8477 20.5794 13.8395 20.5672C13.8313 20.5549 13.8259 20.541 13.8237 20.5265V13.5788C13.8251 12.513 14.1299 11.4696 14.7025 10.5706C15.275 9.67163 16.0916 8.95421 17.0569 8.50223C18.0221 8.05026 19.0961 7.88241 20.1532 8.01831C21.2103 8.15421 22.2069 8.58825 23.0265 9.26967L22.8494 9.37005L16.8874 12.8114C16.7391 12.8984 16.6159 13.0226 16.53 13.1716C16.4441 13.3206 16.3984 13.4894 16.3975 13.6614L16.3916 22.0496V22.0494ZM17.761 19.0979L21.0077 17.2267L24.2602 19.098V22.8404L21.0195 24.7117L17.767 22.8404L17.761 19.0979Z" fill="black"/>
</g>
<defs>
<clipPath id="clip0_50919_10645">
<rect width="29.5385" height="30" fill="white" transform="translate(6.23096 6)"/>
</clipPath>
</defs>
</svg>
