<?xml version="1.0"?><svg viewBox="0 0 256 256" xmlns="http://www.w3.org/2000/svg"><rect fill="none" height="256" width="256"/><polygon opacity="0.2" points="152 32 152 88 208 88 152 32"/><path d="M48,128V40a8,8,0,0,1,8-8h96l56,56v40" fill="none" stroke="#000" stroke-linecap="round" stroke-linejoin="round" stroke-width="16"/><polyline fill="none" points="152 32 152 88 208 88" stroke="#000" stroke-linecap="round" stroke-linejoin="round" stroke-width="16"/><path d="M48,200H64a16,16,0,0,0,0-32H48v48" fill="none" stroke="#000" stroke-linecap="round" stroke-linejoin="round" stroke-width="16"/><polyline fill="none" points="216 168 188 168 188 216" stroke="#000" stroke-linecap="round" stroke-linejoin="round" stroke-width="16"/><line fill="none" stroke="#000" stroke-linecap="round" stroke-linejoin="round" stroke-width="16" x1="212" x2="188" y1="196" y2="196"/><path d="M128,216a24,24,0,0,0,0-48H114v48Z" fill="none" stroke="#000" stroke-linecap="round" stroke-linejoin="round" stroke-width="16"/></svg>