<svg width="216" height="280" viewBox="0 0 216 280" fill="none" xmlns="http://www.w3.org/2000/svg">
    <rect width="216" height="336" rx="18" fill="white"/>
    <path d="M0 17.5775C0 7.8697 7.8697 0 17.5775 0H198.423C208.13 0 216 7.8697 216 17.5775V156H0V17.5775Z" fill="#006666"/>
    <g filter="url(#filter0_d_1792_15464)">
        <rect x="12" y="60" width="192" height="270" rx="10" fill="white"/>
    </g>
    <g opacity="0.4" filter="url(#filter1_d_1792_15464)">
        <rect x="12.1504" y="24.3379" width="191.7" height="24.338" rx="12.169" fill="white"/>
    </g>
    <path d="M39.5754 36.5079V39.7466H38.5136V32.4739H39.5612V35.1798H39.6286C39.7565 34.8863 39.9518 34.6531 40.2146 34.4802C40.4774 34.3074 40.8206 34.221 41.2444 34.221C41.6185 34.221 41.9452 34.298 42.2245 34.4518C42.5062 34.6057 42.724 34.8354 42.8779 35.1408C43.0342 35.4438 43.1123 35.8226 43.1123 36.2771V39.7466H42.0505V36.405C42.0505 36.0049 41.9475 35.6947 41.7416 35.4746C41.5356 35.252 41.2491 35.1408 40.8822 35.1408C40.6312 35.1408 40.4063 35.194 40.2075 35.3006C40.011 35.4071 39.8559 35.5633 39.7423 35.7693C39.631 35.9729 39.5754 36.2191 39.5754 36.5079ZM47.2754 34.292V35.1443H44.296V34.292H47.2754ZM45.095 32.9852H46.1568V38.145C46.1568 38.351 46.1875 38.5061 46.2491 38.6102C46.3106 38.712 46.39 38.7819 46.487 38.8197C46.5865 38.8552 46.6942 38.873 46.8102 38.873C46.8954 38.873 46.97 38.8671 47.0339 38.8552C47.0978 38.8434 47.1475 38.8339 47.183 38.8268L47.3748 39.704C47.3133 39.7276 47.2257 39.7513 47.112 39.775C46.9984 39.801 46.8563 39.8152 46.6859 39.8176C46.4065 39.8223 46.1461 39.7726 45.9046 39.6685C45.6632 39.5643 45.4678 39.4033 45.3187 39.1855C45.1695 38.9677 45.095 38.6943 45.095 38.3652V32.9852ZM51.1961 34.292V35.1443H48.2167V34.292H51.1961ZM49.0157 32.9852H50.0775V38.145C50.0775 38.351 50.1082 38.5061 50.1698 38.6102C50.2314 38.712 50.3107 38.7819 50.4077 38.8197C50.5072 38.8552 50.6149 38.873 50.7309 38.873C50.8161 38.873 50.8907 38.8671 50.9546 38.8552C51.0185 38.8434 51.0682 38.8339 51.1037 38.8268L51.2955 39.704C51.234 39.7276 51.1464 39.7513 51.0327 39.775C50.9191 39.801 50.777 39.8152 50.6066 39.8176C50.3272 39.8223 50.0668 39.7726 49.8253 39.6685C49.5839 39.5643 49.3885 39.4033 49.2394 39.1855C49.0903 38.9677 49.0157 38.6943 49.0157 38.3652V32.9852ZM52.5706 41.792V34.292H53.6075V35.1763H53.6963C53.7579 35.0626 53.8467 34.9312 53.9627 34.7821C54.0787 34.6329 54.2396 34.5027 54.4456 34.3915C54.6516 34.2778 54.9238 34.221 55.2624 34.221C55.7027 34.221 56.0957 34.3323 56.4414 34.5548C56.787 34.7774 57.0581 35.0981 57.2546 35.5172C57.4534 35.9362 57.5529 36.4405 57.5529 37.03C57.5529 37.6195 57.4546 38.1249 57.2581 38.5463C57.0616 38.9653 56.7917 39.2885 56.4485 39.5158C56.1052 39.7407 55.7134 39.8531 55.273 39.8531C54.9416 39.8531 54.6705 39.7975 54.4598 39.6862C54.2515 39.5749 54.0881 39.4447 53.9698 39.2956C53.8514 39.1464 53.7602 39.0139 53.6963 38.8979H53.6324V41.792H52.5706ZM53.6111 37.0193C53.6111 37.4028 53.6667 37.739 53.778 38.0278C53.8893 38.3167 54.0503 38.5427 54.261 38.7061C54.4717 38.8671 54.7297 38.9476 55.0351 38.9476C55.3523 38.9476 55.6175 38.8635 55.8306 38.6954C56.0436 38.525 56.2046 38.2942 56.3135 38.003C56.4248 37.7118 56.4804 37.3839 56.4804 37.0193C56.4804 36.6595 56.426 36.3363 56.3171 36.0498C56.2105 35.7634 56.0495 35.5373 55.8341 35.3716C55.621 35.2059 55.3547 35.123 55.0351 35.123C54.7273 35.123 54.4669 35.2023 54.2539 35.3609C54.0432 35.5195 53.8834 35.7409 53.7745 36.025C53.6655 36.3091 53.6111 36.6405 53.6111 37.0193ZM63.0298 35.6237L62.0675 35.7942C62.0272 35.6711 61.9633 35.5539 61.8757 35.4426C61.7905 35.3313 61.6745 35.2402 61.5277 35.1692C61.3809 35.0981 61.1975 35.0626 60.9773 35.0626C60.6766 35.0626 60.4257 35.1301 60.2244 35.265C60.0232 35.3976 59.9226 35.5693 59.9226 35.78C59.9226 35.9623 59.9901 36.109 60.125 36.2203C60.26 36.3316 60.4778 36.4227 60.7784 36.4937L61.6449 36.6926C62.1468 36.8086 62.5209 36.9873 62.7671 37.2288C63.0133 37.4703 63.1364 37.784 63.1364 38.1699C63.1364 38.4966 63.0417 38.7878 62.8523 39.0435C62.6653 39.2968 62.4037 39.4956 62.0675 39.64C61.7337 39.7845 61.3466 39.8567 60.9063 39.8567C60.2955 39.8567 59.7971 39.7265 59.4112 39.466C59.0253 39.2033 58.7886 38.8304 58.701 38.3474L59.7273 38.1912C59.7912 38.4587 59.9226 38.6611 60.1215 38.7984C60.3203 38.9334 60.5796 39.0008 60.8992 39.0008C61.2472 39.0008 61.5253 38.9286 61.7337 38.7842C61.942 38.6374 62.0462 38.4587 62.0462 38.248C62.0462 38.0775 61.9823 37.9343 61.8544 37.8183C61.7289 37.7023 61.536 37.6147 61.2756 37.5555L60.3523 37.3531C59.8433 37.2371 59.4669 37.0525 59.223 36.7991C58.9816 36.5458 58.8608 36.225 58.8608 35.8368C58.8608 35.5148 58.9508 35.2331 59.1307 34.9916C59.3106 34.7501 59.5592 34.5619 59.8764 34.427C60.1937 34.2897 60.5571 34.221 60.9666 34.221C61.5561 34.221 62.0201 34.3489 62.3587 34.6045C62.6972 34.8579 62.9209 35.1976 63.0298 35.6237ZM65.2034 39.8141C65.0093 39.8141 64.8424 39.7454 64.7027 39.6081C64.563 39.4684 64.4932 39.3003 64.4932 39.1038C64.4932 38.9097 64.563 38.744 64.7027 38.6067C64.8424 38.467 65.0093 38.3972 65.2034 38.3972C65.3975 38.3972 65.5644 38.467 65.7041 38.6067C65.8438 38.744 65.9136 38.9097 65.9136 39.1038C65.9136 39.234 65.8805 39.3536 65.8142 39.4625C65.7503 39.569 65.665 39.6543 65.5585 39.7182C65.452 39.7821 65.3336 39.8141 65.2034 39.8141ZM65.2034 35.8439C65.0093 35.8439 64.8424 35.774 64.7027 35.6344C64.563 35.4947 64.4932 35.3278 64.4932 35.1337C64.4932 34.9395 64.563 34.7738 64.7027 34.6365C64.8424 34.4968 65.0093 34.427 65.2034 34.427C65.3975 34.427 65.5644 34.4968 65.7041 34.6365C65.8438 34.7738 65.9136 34.9395 65.9136 35.1337C65.9136 35.2639 65.8805 35.3834 65.8142 35.4923C65.7503 35.5989 65.665 35.6841 65.5585 35.748C65.452 35.8119 65.3336 35.8439 65.2034 35.8439ZM70.3057 32.1329L67.962 40.8403H67.0138L69.3576 32.1329H70.3057ZM74.1776 32.1329L71.8339 40.8403H70.8857L73.2295 32.1329H74.1776ZM77.5665 41.9057C77.1333 41.9057 76.7604 41.8489 76.4479 41.7352C76.1378 41.6216 75.8845 41.4713 75.688 41.2842C75.4915 41.0972 75.3447 40.8924 75.2476 40.6699L76.1603 40.2935C76.2242 40.3976 76.3094 40.5077 76.416 40.6237C76.5249 40.7421 76.6716 40.8427 76.8563 40.9256C77.0433 41.0084 77.2836 41.0498 77.5772 41.0498C77.9796 41.0498 78.3123 40.9516 78.5751 40.7551C78.8378 40.561 78.9692 40.2508 78.9692 39.8247V38.7523H78.9018C78.8378 38.8683 78.7455 38.9973 78.6248 39.1393C78.5064 39.2814 78.343 39.4045 78.1347 39.5087C77.9264 39.6128 77.6553 39.6649 77.3215 39.6649C76.8906 39.6649 76.5024 39.5643 76.1567 39.3631C75.8135 39.1595 75.5412 38.86 75.34 38.4646C75.1411 38.0669 75.0417 37.578 75.0417 36.998C75.0417 36.418 75.1399 35.9208 75.3364 35.5065C75.5353 35.0922 75.8075 34.775 76.1532 34.5548C76.4988 34.3323 76.8906 34.221 77.3286 34.221C77.6671 34.221 77.9406 34.2778 78.1489 34.3915C78.3572 34.5027 78.5194 34.6329 78.6354 34.7821C78.7538 34.9312 78.8449 35.0626 78.9089 35.1763H78.987V34.292H80.0275V39.8673C80.0275 40.3361 79.9186 40.7208 79.7008 41.0214C79.483 41.3221 79.1882 41.5446 78.8165 41.6891C78.4472 41.8335 78.0305 41.9057 77.5665 41.9057ZM77.5559 38.7842C77.8613 38.7842 78.1193 38.7132 78.33 38.5712C78.5431 38.4267 78.7041 38.2208 78.813 37.9533C78.9242 37.6834 78.9799 37.3602 78.9799 36.9838C78.9799 36.6168 78.9254 36.2937 78.8165 36.0143C78.7076 35.735 78.5478 35.5172 78.3371 35.3609C78.1264 35.2023 77.866 35.123 77.5559 35.123C77.2363 35.123 76.9699 35.2059 76.7569 35.3716C76.5438 35.5349 76.3828 35.7575 76.2739 36.0392C76.1674 36.3209 76.1141 36.6358 76.1141 36.9838C76.1141 37.3413 76.1686 37.655 76.2775 37.9248C76.3864 38.1947 76.5474 38.4054 76.7604 38.557C76.9759 38.7085 77.241 38.7842 77.5559 38.7842ZM84.0023 39.8567C83.4649 39.8567 83.0021 39.7418 82.6138 39.5122C82.2279 39.2802 81.9296 38.9547 81.7189 38.5356C81.5106 38.1142 81.4064 37.6206 81.4064 37.0548C81.4064 36.4961 81.5106 36.0037 81.7189 35.5775C81.9296 35.1514 82.2232 34.8188 82.5996 34.5797C82.9784 34.3406 83.4211 34.221 83.9278 34.221C84.2355 34.221 84.5338 34.2719 84.8226 34.3737C85.1115 34.4755 85.3707 34.6353 85.6003 34.8531C85.83 35.0709 86.0111 35.3538 86.1437 35.7018C86.2762 36.0475 86.3425 36.4677 86.3425 36.9625V37.3389H82.0066V36.5435H85.302C85.302 36.2641 85.2452 36.0167 85.1316 35.8013C85.018 35.5835 84.8581 35.4118 84.6522 35.2864C84.4486 35.1609 84.2095 35.0981 83.9349 35.0981C83.6366 35.0981 83.3761 35.1715 83.1536 35.3183C82.9334 35.4627 82.763 35.6521 82.6422 35.8865C82.5239 36.1185 82.4647 36.3706 82.4647 36.6429V37.2643C82.4647 37.6289 82.5286 37.9391 82.6564 38.1947C82.7867 38.4504 82.9678 38.6457 83.1998 38.7807C83.4318 38.9132 83.7028 38.9795 84.013 38.9795C84.2142 38.9795 84.3977 38.9511 84.5634 38.8943C84.7291 38.8351 84.8724 38.7475 84.9931 38.6315C85.1138 38.5155 85.2062 38.3723 85.2701 38.2018L86.2751 38.3829C86.1946 38.6789 86.0501 38.9381 85.8418 39.1606C85.6358 39.3808 85.3766 39.5525 85.0641 39.6756C84.754 39.7963 84.4001 39.8567 84.0023 39.8567ZM90.2668 34.292V35.1443H87.2874V34.292H90.2668ZM88.0864 32.9852H89.1482V38.145C89.1482 38.351 89.1789 38.5061 89.2405 38.6102C89.3021 38.712 89.3814 38.7819 89.4784 38.8197C89.5779 38.8552 89.6856 38.873 89.8016 38.873C89.8868 38.873 89.9614 38.8671 90.0253 38.8552C90.0892 38.8434 90.1389 38.8339 90.1744 38.8268L90.3662 39.704C90.3047 39.7276 90.2171 39.7513 90.1034 39.775C89.9898 39.801 89.8477 39.8152 89.6773 39.8176C89.3979 39.8223 89.1375 39.7726 88.896 39.6685C88.6546 39.5643 88.4593 39.4033 88.3101 39.1855C88.161 38.9677 88.0864 38.6943 88.0864 38.3652V32.9852ZM95.2653 41.792V38.8979H95.2013C95.1374 39.0139 95.0451 39.1464 94.9243 39.2956C94.806 39.4447 94.6426 39.5749 94.4343 39.6862C94.226 39.7975 93.9561 39.8531 93.6246 39.8531C93.1843 39.8531 92.7913 39.7407 92.4457 39.5158C92.1024 39.2885 91.8325 38.9653 91.636 38.5463C91.4419 38.1249 91.3448 37.6195 91.3448 37.03C91.3448 36.4405 91.443 35.9362 91.6395 35.5172C91.8384 35.0981 92.1107 34.7774 92.4563 34.5548C92.8019 34.3323 93.1938 34.221 93.6317 34.221C93.9703 34.221 94.2425 34.2778 94.4485 34.3915C94.6568 34.5027 94.8178 34.6329 94.9314 34.7821C95.0475 34.9312 95.1374 35.0626 95.2013 35.1763H95.2901V34.292H96.327V41.792H95.2653ZM93.859 38.9476C94.1644 38.9476 94.4224 38.8671 94.6332 38.7061C94.8462 38.5427 95.0072 38.3167 95.1161 38.0278C95.2274 37.739 95.283 37.4028 95.283 37.0193C95.283 36.6405 95.2286 36.3091 95.1197 36.025C95.0108 35.7409 94.851 35.5195 94.6403 35.3609C94.4296 35.2023 94.1691 35.123 93.859 35.123C93.5394 35.123 93.2731 35.2059 93.06 35.3716C92.8469 35.5373 92.6859 35.7634 92.577 36.0498C92.4705 36.3363 92.4172 36.6595 92.4172 37.0193C92.4172 37.3839 92.4717 37.7118 92.5806 38.003C92.6895 38.2942 92.8505 38.525 93.0635 38.6954C93.279 38.8635 93.5441 38.9476 93.859 38.9476ZM97.9546 39.7466V34.292H98.9809V35.1585H99.0377C99.1371 34.865 99.3123 34.6341 99.5633 34.466C99.8166 34.2956 100.103 34.2104 100.423 34.2104C100.489 34.2104 100.567 34.2127 100.657 34.2175C100.749 34.2222 100.822 34.2281 100.874 34.2352V35.2508C100.831 35.239 100.755 35.226 100.646 35.2118C100.537 35.1952 100.429 35.1869 100.32 35.1869C100.069 35.1869 99.845 35.2402 99.6485 35.3467C99.4544 35.4509 99.3005 35.5965 99.1868 35.7835C99.0732 35.9682 99.0164 36.1789 99.0164 36.4156V39.7466H97.9546ZM102.067 39.8141C101.873 39.8141 101.706 39.7454 101.566 39.6081C101.427 39.4684 101.357 39.3003 101.357 39.1038C101.357 38.9097 101.427 38.744 101.566 38.6067C101.706 38.467 101.873 38.3972 102.067 38.3972C102.261 38.3972 102.428 38.467 102.568 38.6067C102.707 38.744 102.777 38.9097 102.777 39.1038C102.777 39.234 102.744 39.3536 102.678 39.4625C102.614 39.569 102.529 39.6543 102.422 39.7182C102.316 39.7821 102.197 39.8141 102.067 39.8141ZM106.697 39.8567C106.169 39.8567 105.715 39.7371 105.333 39.498C104.955 39.2565 104.663 38.9239 104.46 38.5001C104.256 38.0764 104.154 37.591 104.154 37.0442C104.154 36.4902 104.259 36.0013 104.467 35.5775C104.675 35.1514 104.969 34.8188 105.348 34.5797C105.726 34.3406 106.173 34.221 106.686 34.221C107.101 34.221 107.47 34.298 107.794 34.4518C108.119 34.6034 108.38 34.8164 108.579 35.091C108.78 35.3657 108.9 35.6864 108.938 36.0534H107.904C107.848 35.7977 107.717 35.5775 107.514 35.3929C107.313 35.2082 107.043 35.1159 106.704 35.1159C106.408 35.1159 106.149 35.194 105.927 35.3503C105.706 35.5042 105.535 35.7243 105.412 36.0108C105.288 36.2949 105.227 36.6311 105.227 37.0193C105.227 37.417 105.287 37.7603 105.408 38.0491C105.529 38.338 105.699 38.5617 105.919 38.7203C106.142 38.8789 106.404 38.9582 106.704 38.9582C106.905 38.9582 107.088 38.9215 107.251 38.8481C107.417 38.7724 107.555 38.6647 107.667 38.525C107.78 38.3853 107.86 38.2172 107.904 38.0207H108.938C108.9 38.3735 108.785 38.6883 108.593 38.9653C108.402 39.2423 108.145 39.4601 107.823 39.6187C107.503 39.7774 107.128 39.8567 106.697 39.8567ZM112.571 39.8567C112.06 39.8567 111.613 39.7395 111.232 39.5051C110.851 39.2707 110.555 38.9428 110.344 38.5214C110.134 38.1 110.028 37.6076 110.028 37.0442C110.028 36.4784 110.134 35.9836 110.344 35.5598C110.555 35.136 110.851 34.807 111.232 34.5726C111.613 34.3382 112.06 34.221 112.571 34.221C113.082 34.221 113.529 34.3382 113.91 34.5726C114.291 34.807 114.587 35.136 114.797 35.5598C115.008 35.9836 115.114 36.4784 115.114 37.0442C115.114 37.6076 115.008 38.1 114.797 38.5214C114.587 38.9428 114.291 39.2707 113.91 39.5051C113.529 39.7395 113.082 39.8567 112.571 39.8567ZM112.574 38.9653C112.906 38.9653 113.181 38.8777 113.398 38.7025C113.616 38.5274 113.777 38.2942 113.881 38.003C113.988 37.7118 114.041 37.391 114.041 37.0406C114.041 36.6926 113.988 36.373 113.881 36.0818C113.777 35.7882 113.616 35.5527 113.398 35.3751C113.181 35.1976 112.906 35.1088 112.574 35.1088C112.241 35.1088 111.964 35.1976 111.744 35.3751C111.526 35.5527 111.364 35.7882 111.257 36.0818C111.153 36.373 111.101 36.6926 111.101 37.0406C111.101 37.391 111.153 37.7118 111.257 38.003C111.364 38.2942 111.526 38.5274 111.744 38.7025C111.964 38.8777 112.241 38.9653 112.574 38.9653ZM116.499 39.7466V34.292H117.518V35.1798H117.585C117.699 34.8792 117.885 34.6448 118.143 34.4767C118.401 34.3062 118.71 34.221 119.07 34.221C119.434 34.221 119.74 34.3062 119.986 34.4767C120.235 34.6471 120.418 34.8815 120.536 35.1798H120.593C120.723 34.8886 120.931 34.6566 121.215 34.4838C121.499 34.3086 121.837 34.221 122.23 34.221C122.725 34.221 123.129 34.3761 123.441 34.6862C123.756 34.9963 123.914 35.4639 123.914 36.0889V39.7466H122.852V36.1883C122.852 35.819 122.751 35.5515 122.55 35.3858C122.349 35.2201 122.108 35.1372 121.829 35.1372C121.483 35.1372 121.215 35.2437 121.023 35.4568C120.831 35.6675 120.735 35.9386 120.735 36.27V39.7466H119.677V36.1209C119.677 35.8249 119.585 35.587 119.4 35.4071C119.215 35.2272 118.975 35.1372 118.679 35.1372C118.478 35.1372 118.292 35.1905 118.122 35.297C117.954 35.4012 117.817 35.5468 117.713 35.7338C117.611 35.9208 117.561 36.1374 117.561 36.3837V39.7466H116.499Z" fill="white"/>
    <g clip-path="url(#clip0_1792_15464)">
        <path d="M31.4284 36.9999C31.4284 38.97 30.6458 40.8595 29.2526 42.2527C27.8595 43.6458 25.97 44.4284 23.9998 44.4284C22.0296 44.4284 20.1402 43.6458 18.747 42.2527C17.3539 40.8595 16.5713 38.97 16.5713 36.9999M31.4284 36.9999C31.4284 35.0297 30.6458 33.1402 29.2526 31.7471C27.8595 30.3539 25.97 29.5713 23.9998 29.5713C22.0296 29.5713 20.1402 30.3539 18.747 31.7471C17.3539 33.1402 16.5713 35.0297 16.5713 36.9999M31.4284 36.9999H16.5713" stroke="white" stroke-width="1.14286" stroke-linecap="round" stroke-linejoin="round"/>
        <path d="M26.8573 36.9999C26.7169 39.7164 25.7164 42.318 24.0001 44.4284C22.2839 42.318 21.2833 39.7164 21.143 36.9999C21.2833 34.2833 22.2839 31.6817 24.0001 29.5713C25.7164 31.6817 26.7169 34.2833 26.8573 36.9999Z" stroke="white" stroke-width="1.14286" stroke-linecap="round" stroke-linejoin="round"/>
    </g>
    <rect x="23" y="72" width="170" height="149" rx="6" fill="#D3E1E1"/>
    <g opacity="0.2">
        <rect x="112" y="102" width="40" height="40" rx="10" fill="#006666"/>
        <path fill-rule="evenodd" clip-rule="evenodd" d="M132.015 123.713L138.929 130.627C139.159 130.85 139.468 130.973 139.788 130.97C140.109 130.967 140.415 130.839 140.642 130.612C140.869 130.385 140.997 130.079 141 129.758C141.003 129.438 140.88 129.129 140.657 128.899L133.743 121.985L140.657 115.071C140.88 114.841 141.003 114.532 141 114.212C140.997 113.891 140.869 113.585 140.642 113.358C140.415 113.131 140.109 113.003 139.788 113C139.468 112.997 139.159 113.12 138.929 113.343L132.015 120.257L125.101 113.343C124.87 113.126 124.563 113.007 124.245 113.013C123.928 113.018 123.625 113.146 123.401 113.371C123.176 113.595 123.048 113.898 123.043 114.216C123.038 114.533 123.157 114.84 123.374 115.071L130.287 121.985L123.373 128.899C123.256 129.011 123.163 129.146 123.099 129.295C123.035 129.445 123.001 129.605 123 129.767C122.999 129.929 123.03 130.09 123.091 130.241C123.152 130.391 123.243 130.527 123.358 130.642C123.473 130.757 123.609 130.848 123.759 130.909C123.91 130.97 124.071 131.001 124.233 131C124.395 130.999 124.555 130.965 124.705 130.901C124.854 130.837 124.989 130.744 125.101 130.627L132.015 123.713Z" fill="#A9C8C8"/>
    </g>
    <g opacity="0.2">
        <rect x="65" y="102" width="40" height="40" rx="10" fill="#006666"/>
        <path fill-rule="evenodd" clip-rule="evenodd" d="M85.015 123.713L91.9288 130.627C92.1593 130.85 92.468 130.973 92.7885 130.97C93.1089 130.967 93.4154 130.839 93.642 130.612C93.8686 130.385 93.9972 130.079 94 129.758C94.0027 129.438 93.8796 129.129 93.6569 128.899L86.7432 121.985L93.6569 115.071C93.8796 114.841 94.0027 114.532 94 114.212C93.9972 113.891 93.8686 113.585 93.642 113.358C93.4154 113.131 93.1089 113.003 92.7885 113C92.468 112.997 92.1593 113.12 91.9288 113.343L85.015 120.257L78.1012 113.343C77.8697 113.126 77.5628 113.007 77.2454 113.013C76.928 113.018 76.6251 113.146 76.4007 113.371C76.1764 113.595 76.0482 113.898 76.0432 114.216C76.0383 114.533 76.157 114.84 76.3743 115.071L83.2869 121.985L76.3731 128.899C76.2564 129.011 76.1633 129.146 76.0992 129.295C76.0352 129.445 76.0015 129.605 76 129.767C75.9986 129.929 76.0296 130.09 76.091 130.241C76.1525 130.391 76.2432 130.527 76.358 130.642C76.4727 130.757 76.6092 130.848 76.7594 130.909C76.9096 130.97 77.0705 131.001 77.2328 131C77.3951 130.999 77.5554 130.965 77.7045 130.901C77.8536 130.837 77.9885 130.744 78.1012 130.627L85.015 123.713Z" fill="#A9C8C8"/>
    </g>
    <g opacity="0.2">
        <rect x="65" y="149" width="40" height="40" rx="10" fill="#006666"/>
        <path fill-rule="evenodd" clip-rule="evenodd" d="M85.015 170.713L91.9288 177.627C92.1593 177.85 92.468 177.973 92.7885 177.97C93.1089 177.967 93.4154 177.839 93.642 177.612C93.8686 177.385 93.9972 177.079 94 176.758C94.0027 176.438 93.8796 176.129 93.6569 175.899L86.7432 168.985L93.6569 162.071C93.8796 161.841 94.0027 161.532 94 161.212C93.9972 160.891 93.8686 160.585 93.642 160.358C93.4154 160.131 93.1089 160.003 92.7885 160C92.468 159.997 92.1593 160.12 91.9288 160.343L85.015 167.257L78.1012 160.343C77.8697 160.126 77.5628 160.007 77.2454 160.013C76.928 160.018 76.6251 160.146 76.4007 160.371C76.1764 160.595 76.0482 160.898 76.0432 161.216C76.0383 161.533 76.157 161.84 76.3743 162.071L83.2869 168.985L76.3731 175.899C76.2564 176.011 76.1633 176.146 76.0992 176.295C76.0352 176.445 76.0015 176.605 76 176.767C75.9986 176.929 76.0296 177.09 76.091 177.241C76.1525 177.391 76.2432 177.527 76.358 177.642C76.4727 177.757 76.6092 177.848 76.7594 177.909C76.9096 177.97 77.0705 178.001 77.2328 178C77.3951 177.999 77.5554 177.965 77.7045 177.901C77.8536 177.837 77.9885 177.744 78.1012 177.627L85.015 170.713Z" fill="#A9C8C8"/>
    </g>
    <path fill-rule="evenodd" clip-rule="evenodd" d="M132 171.4L141.603 181.002C141.923 181.311 142.352 181.483 142.797 181.479C143.242 181.475 143.667 181.296 143.982 180.982C144.297 180.667 144.475 180.241 144.479 179.796C144.483 179.351 144.312 178.922 144.003 178.602L134.4 169L144.003 159.397C144.312 159.077 144.483 158.648 144.479 158.203C144.475 157.758 144.297 157.332 143.982 157.018C143.667 156.703 143.242 156.524 142.797 156.521C142.352 156.517 141.923 156.688 141.603 156.997L132 166.599L122.398 156.997C122.076 156.695 121.65 156.531 121.209 156.538C120.768 156.545 120.348 156.724 120.036 157.035C119.724 157.347 119.546 157.768 119.539 158.209C119.533 158.65 119.697 159.076 119.999 159.397L129.6 169L119.998 178.602C119.835 178.759 119.706 178.946 119.617 179.153C119.528 179.36 119.481 179.583 119.479 179.808C119.477 180.034 119.52 180.257 119.606 180.466C119.691 180.674 119.817 180.864 119.977 181.023C120.136 181.183 120.325 181.309 120.534 181.394C120.743 181.479 120.966 181.522 121.192 181.52C121.417 181.518 121.64 181.472 121.847 181.383C122.054 181.294 122.241 181.164 122.398 181.002L132 171.4Z" fill="#A9C8C8" stroke="#A9C8C8" stroke-width="1.4"/>
    <rect x="22.9504" y="232.563" width="170.1" height="8.11268" rx="4.05634" fill="#BBCACA"/>
    <rect x="22.9504" y="246.084" width="135" height="8.11268" rx="4.05634" fill="#BBCACA"/>
    <rect x="22.9504" y="259.606" width="43.2" height="8.11268" rx="4.05634" fill="#EFEFEF"/>
    <defs>
        <filter id="filter0_d_1792_15464" x="3.21127" y="50.5352" width="210.93" height="288.93" filterUnits="userSpaceOnUse" color-interpolation-filters="sRGB">
            <feFlood flood-opacity="0" result="BackgroundImageFix"/>
            <feColorMatrix in="SourceAlpha" type="matrix" values="0 0 0 0 0 0 0 0 0 0 0 0 0 0 0 0 0 0 127 0" result="hardAlpha"/>
            <feMorphology radius="1.35211" operator="dilate" in="SourceAlpha" result="effect1_dropShadow_1792_15464"/>
            <feOffset dx="0.676056"/>
            <feGaussianBlur stdDeviation="4.05634"/>
            <feComposite in2="hardAlpha" operator="out"/>
            <feColorMatrix type="matrix" values="0 0 0 0 0 0 0 0 0 0 0 0 0 0 0 0 0 0 0.05 0"/>
            <feBlend mode="normal" in2="BackgroundImageFix" result="effect1_dropShadow_1792_15464"/>
            <feBlend mode="normal" in="SourceGraphic" in2="effect1_dropShadow_1792_15464" result="shape"/>
        </filter>
        <filter id="filter1_d_1792_15464" x="3.36166" y="14.8731" width="210.63" height="43.2677" filterUnits="userSpaceOnUse" color-interpolation-filters="sRGB">
            <feFlood flood-opacity="0" result="BackgroundImageFix"/>
            <feColorMatrix in="SourceAlpha" type="matrix" values="0 0 0 0 0 0 0 0 0 0 0 0 0 0 0 0 0 0 127 0" result="hardAlpha"/>
            <feMorphology radius="1.35211" operator="dilate" in="SourceAlpha" result="effect1_dropShadow_1792_15464"/>
            <feOffset dx="0.676056"/>
            <feGaussianBlur stdDeviation="4.05634"/>
            <feComposite in2="hardAlpha" operator="out"/>
            <feColorMatrix type="matrix" values="0 0 0 0 0 0 0 0 0 0 0 0 0 0 0 0 0 0 0.05 0"/>
            <feBlend mode="normal" in2="BackgroundImageFix" result="effect1_dropShadow_1792_15464"/>
            <feBlend mode="normal" in="SourceGraphic" in2="effect1_dropShadow_1792_15464" result="shape"/>
        </filter>
        <clipPath id="clip0_1792_15464">
            <rect width="16" height="16" fill="white" transform="translate(16 29)"/>
        </clipPath>
    </defs>
</svg>
