<svg width="320" height="418" viewBox="0 0 320 418" fill="none" xmlns="http://www.w3.org/2000/svg">
    <path d="M317.3 21.3C317.3 9.99997 310.9 3.59998 299.7 3.59998C206.6 3.59998 113.4 3.59998 20.2999 3.59998C9.39995 3.59998 2.99995 9.99998 2.79995 21C2.69995 29.3 2.69995 37.6 2.69995 45.9C2.69995 158.9 2.69995 271.9 2.69995 384.9C2.69995 387.9 2.69995 390.8 4.59995 393.4C8.49995 399 12.1 404.8 15.9 410.4C19.5 415.7 22.6 415.8 26.2 410.6C29.7 405.6 33.1 400.5 36.7 395.2C40.2999 400.6 43.5 405.7 46.9 410.6C50.5 415.8 53.5 415.8 57.2 410.5C60.7 405.5 64 400.5 67.6 395.2C71.2999 400.6 74.5 405.7 77.9 410.6C81.3 415.5 84.4 415.7 87.9 410.7C91.4 405.7 94.7 400.6 98.4 395.1C102.1 400.7 105.3 405.8 108.7 410.7C112.1 415.6 115.3 415.6 118.7 410.6C121.6 406.4 124.5 402.1 127.2 397.7C128.7 395.3 129.5 395.6 130.9 397.8C133.4 401.7 136.1 405.5 138.7 409.4C143.3 416.2 146 416.2 150.4 409.5C152.9 405.8 155.5 402.1 157.8 398.3C159.3 395.8 160.2 395.1 162 398.1C164.6 402.5 167.6 406.7 170.6 410.9C174 415.6 177 415.6 180.3 410.9C183.3 406.5 186.3 402.1 189.1 397.6C190.4 395.5 191.2 395.6 192.5 397.6C195.4 402.1 198.3 406.5 201.4 410.8C204.9 415.7 208 415.6 211.4 410.6C214.1 406.6 217 402.7 219.3 398.5C221.3 394.9 222.4 395.9 224.1 398.7C226.6 402.8 229.4 406.7 232.2 410.7C235.7 415.6 238.8 415.6 242.3 410.7C245.3 406.3 248.2 401.9 251.1 397.4C252.3 395.5 253 395.6 254.2 397.4C257.2 402 260.2 406.6 263.4 411C266.7 415.6 269.4 415.6 272.7 411C275.8 406.7 278.8 402.3 281.6 397.8C283 395.6 283.8 395.3 285.3 397.7C288.1 402.2 291.1 406.6 294.2 410.9C297.5 415.5 300.3 415.6 303.5 411C307.7 405 311.6 398.9 315.7 392.8C316.8 391.1 317.3 389.1 317.1 387.1C317.3 265.2 317.3 143.3 317.3 21.3ZM308.5 392.2C305.3 396.8 302.3 401.6 298.9 406.8C295.1 401.2 291.7 395.9 288.1 390.7C285 386.2 281.9 386.2 278.8 390.7C275.2 395.9 271.8 401.2 268 406.8C264.3 401.3 260.8 395.9 257.2 390.7C254.1 386.2 251 386.2 247.9 390.7C244.3 395.9 240.9 401.2 237.1 406.8C233.8 401.8 230.7 397 227.5 392.2C223.1 385.6 220.3 385.6 215.8 392.3C212.7 396.8 209.7 401.4 206.7 406C206.5 406.2 206.3 406.4 206 406.6C202.6 401.4 199.2 396.1 195.8 391C192.5 386.1 189.2 386.1 185.8 391C182.4 395.9 179 401.2 175.2 406.8C171.7 401.4 168.3 396.2 164.9 391.1C161.6 386.1 158.3 386.1 154.9 391C151.3 396.2 147.9 401.4 144.3 406.8C140.9 401.7 137.8 396.8 134.6 391.9C130.5 385.8 127.5 385.7 123.5 391.7C120.3 396.5 117.2 401.4 113.7 406.7C110.2 401.4 106.9 396.5 103.6 391.7C99.5 385.7 96.6 385.7 92.5 391.9C89.3 396.7 86.2 401.6 82.8 406.8C79 401.2 75.6 395.9 72.1 390.8C68.9 386.2 65.6 386.3 62.4 390.9C59 396 55.7999 401 52.0999 406.8C48.3999 401.3 45 396 41.5 391C38.0999 386.1 34.9 386.1 31.5 391.1C28.1 396.1 24.8 401.3 21.2 406.8C17.4 401 13.9 395.6 10.3 390.3C9.19995 388.8 9.29995 387.2 9.29995 385.5C9.29995 264.3 9.29995 143.2 9.29995 22.1C9.29995 13.1 12.1999 10.3 21.2999 10.3H298.3C307.8 10.3 310.6 13.1 310.6 22.9C310.6 143.7 310.6 264.5 310.6 385.4C310.8 387.7 310 390.2 308.5 392.2Z" fill="currentColor"/>
    <text id="qr-frame-text" x="160" y="360" font-size="40px" font-weight="600" font-family="Inter, sans-serif" fill="currentColor" text-anchor="middle">Scan Me!</text>
</svg>
