<svg width="320" height="418" viewBox="0 0 320 418" fill="none" xmlns="http://www.w3.org/2000/svg">
    <g clip-path="url(#clip0_1247_711)">
        <path d="M319.9 13.7C319.9 4.89997 317.8 2.19998 309.5 0.0999756H9.4C3.3 0.699976 0.4 4.29998 -0.5 10.1V406.5C1.4 416 3.8 417.9 13.6 417.9H305.2C316.4 417.9 320 414.4 320.1 403C319.9 273.3 319.9 143.4 319.9 13.7ZM312.9 403.5C313 404.5 312.9 405.5 312.5 406.4C311.7 409.4 309.5 410.6 306.6 410.7C305.1 410.8 303.6 410.8 302.1 410.8C206.9 410.8 111.7 410.8 16.6 410.8C12.6 410.8 8 411.8 6.2 406.4C5.8 405.5 5.7 404.5 5.8 403.5C5.8 375.8 5.8 348.2 5.8 320.5C5.7 319.5 5.8 318.5 6.1 317.6C9 315.4 12.5 316.1 15.7 316.1C93 316.1 170.3 316.1 247.6 316.1C266.6 316.1 285.7 316.1 304.7 316.1C307.3 316.1 310 315.7 312.4 317.5C313.1 318.5 312.9 319.8 312.9 320.9C312.9 348.5 312.9 376 312.9 403.5ZM312.5 311C310.7 312.6 308.5 312.3 306.4 312.3C208.4 312.3 110.4 312.3 12.5 312.3C6 312.3 5.9 312.1 5.9 305.6C5.9 209 5.9 112.5 5.9 16C5.9 14.4 5.6 12.7 6.3 11.1C6.8 8.09998 9 7.09998 11.6 6.79998C13.3 6.59998 14.9 6.59998 16.6 6.59998C111.8 6.59998 207 6.59998 302.1 6.59998C306.1 6.59998 310.6 5.69998 312.5 11C313.2 12.6 312.9 14.3 312.9 15.9C312.9 112.6 312.9 209.3 312.9 306C312.9 307.7 313.1 309.3 312.5 311Z" fill="currentColor"/>
        <path d="M6.29999 317.8L6.19999 406.4C4.79999 404.9 5.19999 403 5.19999 401.2C5.19999 272.8 5.19999 144.5 5.19999 16.1C5.19999 14.3 4.79999 12.4 6.19999 10.9C6.19999 109.3 6.19999 207.7 6.09999 306.1C6.09999 309.8 6.79999 311.2 10.9 311.1C110.2 311 209.6 310.9 308.9 311C310 311 311.2 310.9 312.4 310.8C312.6 311.5 312.3 312.1 311.6 312.4C308.6 313.7 305.4 313.3 302.3 313.3C207 313.3 111.6 313.3 16.3 313.3C12.4 313.5 8.39999 313.3 6.29999 317.8Z" fill="#616161"/>
        <path d="M315.9 312L316 317.8H3.20003C2.30003 313 4.20003 311.8 9.10003 311.8C111.3 312 213.6 312.2 315.9 312Z" fill="currentColor"/>
        <text id="qr-frame-text" x="160" y="380" font-size="40px" font-weight="600" font-family="Inter, sans-serif" fill="#212121" text-anchor="middle">Scan Me!</text>
    </g>
</svg>
