<svg width="320" height="418" viewBox="0 0 320 418" fill="none" xmlns="http://www.w3.org/2000/svg">
    <g clip-path="url(#clip0_1247_673)">
        <path d="M320.4 15C320.4 4.09998 316.8 0.0999756 306.5 0.0999756C208.8 0.0999756 111 0.0999756 13.2 0.0999756C4.19998 0.0999756 1.89998 1.99998 -0.400024 10.5V406.8C0.199976 412.4 2.39998 416.7 8.59998 417.8H311C314.6 416.8 318 415.4 319.3 411.5C320.2 408.6 320.5 405.7 320.4 402.7C320.4 386.3 320.4 369.9 320.4 353.4C320.4 240.6 320.4 127.8 320.4 15ZM307.1 303.8C307.1 307.9 306.2 308.9 302 308.9C207.2 308.8 112.3 308.8 17.5 308.9C13.4 308.9 12.4 308 12.4 303.8C12.6 256.3 12.5 208.9 12.5 161.4C12.5 113.8 12.6 66.1 12.4 18.5C12.4 14.4 13.3 13.4 17.5 13.4C112.3 13.5 207.2 13.5 302 13.4C306.1 13.4 307.1 14.3 307.1 18.5C307 113.6 307 208.6 307.1 303.8Z" fill="currentColor"/>
        <text id="qr-frame-text" x="160" y="380" font-size="40px" font-weight="600" font-family="Inter, sans-serif" fill="white" text-anchor="middle">Scan Me!</text>
    </g>
</svg>
