<svg width="320" height="418" viewBox="0 0 320 418" fill="none" xmlns="http://www.w3.org/2000/svg">
    <g clip-path="url(#clip0_1247_112)">
        <path d="M319.9 13.7C319.9 4.89997 317.8 2.19998 309.5 0.0999756H9.4C3.3 0.699976 0.4 4.29998 -0.5 10.1V406.5C1.4 416 3.8 417.9 13.6 417.9H305.2C316.4 417.9 320 414.4 320.1 403C319.9 273.3 319.9 143.4 319.9 13.7ZM312.9 403.5C313 404.5 312.9 405.5 312.5 406.4C311.7 409.4 309.5 410.6 306.6 410.7C305.1 410.8 303.6 410.8 302.1 410.8C206.9 410.8 111.7 410.8 16.6 410.8C12.6 410.8 8 411.8 6.2 406.4C5.8 405.5 5.7 404.5 5.8 403.5C5.8 375.8 5.8 348.2 5.8 320.5C5.7 319.5 5.8 318.5 6.1 317.6C9 315.4 12.5 316.1 15.7 316.1C93 316.1 170.3 316.1 247.6 316.1C266.6 316.1 285.7 316.1 304.7 316.1C307.3 316.1 310 315.7 312.4 317.5C313.1 318.5 312.9 319.8 312.9 320.9C312.9 348.5 312.9 376 312.9 403.5ZM312.5 311C310.7 312.6 308.5 312.3 306.4 312.3C208.4 312.3 110.4 312.3 12.5 312.3C6 312.3 5.9 312.1 5.9 305.6C5.9 209 5.9 112.5 5.9 16C5.9 14.4 5.6 12.7 6.3 11.1C6.8 8.09998 9 7.09998 11.6 6.79998C13.3 6.59998 14.9 6.59998 16.6 6.59998C111.8 6.59998 207 6.59998 302.1 6.59998C306.1 6.59998 310.6 5.69998 312.5 11C313.2 12.6 312.9 14.3 312.9 15.9C312.9 112.6 312.9 209.3 312.9 306C312.9 307.7 313.1 309.3 312.5 311Z" fill="#000000"/>
        <path d="M6.3 317.8L6.2 406.4C4.8 404.9 5.2 403 5.2 401.2C5.2 272.8 5.2 144.5 5.2 16.1C5.2 14.3 4.8 12.4 6.2 10.9C6.2 109.3 6.2 207.7 6.1 306.1C6.1 309.8 6.8 311.2 10.9 311.1C110.2 311 209.6 310.9 308.9 311C310 311 311.2 310.9 312.4 310.8C312.6 311.5 312.3 312.1 311.6 312.4C308.6 313.7 305.4 313.3 302.3 313.3C207 313.3 111.6 313.3 16.3 313.3C12.4 313.5 8.4 313.3 6.3 317.8Z" fill="#616161"/>
        <path d="M315.9 312L316 317.8H3.2C2.3 313 4.2 311.8 9.1 311.8C111.3 312 213.6 312.2 315.9 312Z" fill="#000000"/>
        <path d="M38.2 21.8H281.5C289.8 21.8 296.6 28.5 296.6 36.9V280.2C296.6 288.5 289.9 295.3 281.5 295.3H38.2C29.9 295.3 23.1 288.6 23.1 280.2V36.8C23.1 28.5 29.9 21.8 38.2 21.8Z" fill="#E5E7EF"/>
        <path d="M127.4 62H63.3V126.1H127.4V62ZM112.3 111H78.4V77H112.3V111Z" fill="#000000"/>
        <path d="M102.9 86.5H87.8V101.6H102.9V86.5Z" fill="#000000"/>
        <path d="M256.3 62H192.2V126.1H256.3V62ZM241.3 111H207.3V77H241.3V111Z" fill="#000000"/>
        <path d="M231.8 86.5H216.7V101.6H231.8V86.5Z" fill="#000000"/>
        <path d="M127.4 190.9H63.3V255H127.4V190.9ZM112.3 239.9H78.4V206H112.3V239.9Z" fill="#000000"/>
        <path d="M102.9 215.4H87.8V230.5H102.9V215.4Z" fill="#000000"/>
        <path d="M93.5 136.3H78.4V151.4H93.5V136.3Z" fill="#000000"/>
        <path d="M108.2 166.4V181.4H123.2V166.4H108.5V151.4H93.5V166.4H108.2Z" fill="#000000"/>
        <path d="M184 91H168.9V106.1H184V91Z" fill="#000000"/>
        <path d="M153.8 77H138.7V106H153.8V77Z" fill="#000000"/>
        <path d="M168.9 62H153.8V77.1H168.9V62Z" fill="#000000"/>
        <path d="M168.9 106.1H153.8V121.1H138.7V136.3H168.9V106.1Z" fill="#000000"/>
        <path d="M153.8 181.4V196.3H168.9V210.9H199V195.9H168.9V181.2H153.8V151.4H138.7V181.4H153.8Z" fill="#000000"/>
        <path d="M184 136.3H168.9V166.5H184V136.3Z" fill="#000000"/>
        <path d="M214.1 181.2H256.3V151H241.3V136.3H213.8V151.4H199.1V166.5H214.2V181.2H214.1ZM214.1 151.4H241.3V166.1H214.2L214.1 151.4Z" fill="#000000"/>
        <path d="M256.4 195.9H241.3V226.1H256.4V195.9Z" fill="#000000"/>
        <path d="M199 166.4H183.9V181.5H199V166.4Z" fill="#000000"/>
        <path d="M214.1 210.9H199V226H214.1V210.9Z" fill="#000000"/>
        <path d="M229.2 195.9H214.1V211H229.2V195.9Z" fill="#000000"/>
        <path d="M229.2 255.1V240.9H241.3V225.9H214.1V255.1H229.2Z" fill="#000000"/>
        <path d="M153.8 196.3H138.7V225H153.8V196.3Z" fill="#000000"/>
        <path d="M168.9 255.1V239.9H183.6V255.1H198.7V239.9H183.9V224.9H153.8V255.1H168.9Z" fill="#000000"/>
        <path d="M138.7 136.3H108.5V151.4H138.7V136.3Z" fill="#000000"/>
        <path d="M87.4 376.9C84.1 376.9 81.6 376 79.8 374.3C78 372.6 77.1 370 77.1 366.7H83.7C83.7 368.3 84 369.5 84.7 370.3C85.3 371.1 86.2 371.5 87.4 371.5C88.4 371.5 89.1 371.2 89.7 370.6C90.3 370 90.5 369.3 90.5 368.3C90.5 367.4 90.2 366.6 89.7 366C89.2 365.4 88.4 364.8 87.3 364.2L83.5 362.4C81.4 361.4 79.9 360.2 78.9 358.8C77.9 357.4 77.4 355.7 77.4 353.6C77.4 351.1 78.3 349 80 347.5C81.7 346 84 345.2 86.9 345.2C90 345.2 92.4 346 94 347.6C95.6 349.2 96.4 351.5 96.4 354.6H89.9C89.9 351.8 88.8 350.4 86.7 350.4C85.8 350.4 85.1 350.7 84.6 351.2C84.1 351.7 83.8 352.4 83.8 353.3C83.8 354.2 84.1 354.9 84.6 355.5C85.1 356.1 86 356.7 87.3 357.3L91.3 359.3C93.3 360.4 94.7 361.5 95.6 362.9C96.5 364.2 96.9 365.9 96.9 367.8C96.9 370.5 96 372.7 94.3 374.4C92.7 376.1 90.4 376.9 87.4 376.9Z" fill="#000000"/>
        <path d="M108.4 376.7C105.4 376.7 103 375.7 101.3 373.8C99.6 371.9 98.7 369.2 98.7 365.8C98.7 362.5 99.6 359.9 101.3 357.9C103.1 355.9 105.4 354.9 108.3 354.9C111.2 354.9 113.5 355.6 115.1 357.1C116.7 358.5 117.5 360.6 117.5 363.3H111.4C111.3 361.2 110.3 360.2 108.4 360.2C107.3 360.2 106.4 360.7 105.8 361.7C105.2 362.7 104.9 364.1 104.9 365.8C104.9 369.5 106.1 371.4 108.5 371.4C110.3 371.4 111.3 370.4 111.5 368.5H117.6C117.5 371.2 116.6 373.2 115 374.6C113.4 375.9 111.2 376.7 108.4 376.7Z" fill="#000000"/>
        <path d="M127.7 376.7C125.2 376.7 123.2 375.7 121.8 373.7C120.3 371.7 119.6 369.1 119.6 365.8C119.6 362.5 120.3 359.9 121.8 358C123.3 356 125.3 355 127.7 355C130.5 355 132.4 356.2 133.4 358.6V355.6H139.7V376.1H133.4V373.1C132.3 375.4 130.4 376.7 127.7 376.7ZM129.7 371.4C130.9 371.4 131.9 370.9 132.6 370C133.3 369 133.6 367.7 133.6 365.9C133.6 364.1 133.3 362.8 132.6 361.8C131.9 360.8 131 360.4 129.7 360.4C128.4 360.4 127.5 360.9 126.8 361.8C126.1 362.7 125.8 364.1 125.8 365.9C125.8 367.7 126.1 369.1 126.8 370C127.5 370.9 128.4 371.4 129.7 371.4Z" fill="#000000"/>
        <path d="M143.8 376.1V355.6H150V358.5C151.1 356.2 153.1 355 155.8 355C157.8 355 159.4 355.6 160.5 356.9C161.6 358.2 162.1 360.1 162.1 362.6V376H155.8V364.3C155.8 362.9 155.6 361.8 155.2 361.2C154.8 360.5 154.1 360.2 153.1 360.2C151 360.2 150 361.8 150 364.9V376H143.8V376.1Z" fill="#000000"/>
        <path d="M174.5 376.1V346.1H181.9L187.6 367.5L193.3 346.1H200.7V376.1H194.7V357.8L189.8 376.1H185.4L180.5 357.8V376.1H174.5Z" fill="#000000"/>
        <path d="M222.7 364.6C222.7 365.7 222.6 366.6 222.5 367.6H209.9C210 369 210.3 370.1 210.9 370.9C211.5 371.7 212.4 372.1 213.6 372.1C215.3 372.1 216.3 371.4 216.7 370H222.3C222 372.2 221.1 373.8 219.6 375C218.1 376.2 216.1 376.8 213.6 376.8C210.4 376.8 208 375.9 206.2 374C204.5 372.1 203.6 369.5 203.6 366C203.6 362.5 204.5 359.9 206.2 357.9C207.9 356 210.3 355 213.4 355C216.3 355 218.6 355.9 220.2 357.6C221.9 359.2 222.7 361.7 222.7 364.6ZM209.9 363.6H216.7C216.7 360.7 215.6 359.2 213.4 359.2C211.2 359.2 210 360.6 209.9 363.6Z" fill="#000000"/>
        <path d="M241.2 375.2C240.4 376 239.3 376.5 238.1 376.5C236.9 376.5 235.9 376.1 235 375.2C234.2 374.4 233.7 373.4 233.7 372.2C233.7 371 234.1 370 235 369.2C235.8 368.4 236.9 367.9 238.1 367.9C239.3 367.9 240.3 368.3 241.2 369.2C242 370 242.5 371 242.5 372.2C242.5 373.4 242.1 374.4 241.2 375.2ZM235 365.7V346.1H241.4V365.7H235Z" fill="#000000"/>
    </g>
</svg>
