<svg width="320" height="418" viewBox="0 0 320 418" fill="none" xmlns="http://www.w3.org/2000/svg">
    <path d="M317.3 21.3C317.3 9.99997 310.9 3.59998 299.7 3.59998C206.6 3.59998 113.4 3.59998 20.3 3.59998C9.40001 3.59998 3.00001 9.99998 2.80001 21C2.70001 29.3 2.70001 37.6 2.70001 45.9C2.70001 158.9 2.70001 271.9 2.70001 384.9C2.70001 387.9 2.70001 390.8 4.60001 393.4C8.50001 399 12.1 404.8 15.9 410.4C19.5 415.7 22.6 415.8 26.2 410.6C29.7 405.6 33.1 400.5 36.7 395.2C40.3 400.6 43.5 405.7 46.9 410.6C50.5 415.8 53.5 415.8 57.2 410.5C60.7 405.5 64 400.5 67.6 395.2C71.3 400.6 74.5 405.7 77.9 410.6C81.3 415.5 84.4 415.7 87.9 410.7C91.4 405.7 94.7 400.6 98.4 395.1C102.1 400.7 105.3 405.8 108.7 410.7C112.1 415.6 115.3 415.6 118.7 410.6C121.6 406.4 124.5 402.1 127.2 397.7C128.7 395.3 129.5 395.6 130.9 397.8C133.4 401.7 136.1 405.5 138.7 409.4C143.3 416.2 146 416.2 150.4 409.5C152.9 405.8 155.5 402.1 157.8 398.3C159.3 395.8 160.2 395.1 162 398.1C164.6 402.5 167.6 406.7 170.6 410.9C174 415.6 177 415.6 180.3 410.9C183.3 406.5 186.3 402.1 189.1 397.6C190.4 395.5 191.2 395.6 192.5 397.6C195.4 402.1 198.3 406.5 201.4 410.8C204.9 415.7 208 415.6 211.4 410.6C214.1 406.6 217 402.7 219.3 398.5C221.3 394.9 222.4 395.9 224.1 398.7C226.6 402.8 229.4 406.7 232.2 410.7C235.7 415.6 238.8 415.6 242.3 410.7C245.3 406.3 248.2 401.9 251.1 397.4C252.3 395.5 253 395.6 254.2 397.4C257.2 402 260.2 406.6 263.4 411C266.7 415.6 269.4 415.6 272.7 411C275.8 406.7 278.8 402.3 281.6 397.8C283 395.6 283.8 395.3 285.3 397.7C288.1 402.2 291.1 406.6 294.2 410.9C297.5 415.5 300.3 415.6 303.5 411C307.7 405 311.6 398.9 315.7 392.8C316.8 391.1 317.3 389.1 317.1 387.1C317.3 265.2 317.3 143.3 317.3 21.3ZM308.5 392.2C305.3 396.8 302.3 401.6 298.9 406.8C295.1 401.2 291.7 395.9 288.1 390.7C285 386.2 281.9 386.2 278.8 390.7C275.2 395.9 271.8 401.2 268 406.8C264.3 401.3 260.8 395.9 257.2 390.7C254.1 386.2 251 386.2 247.9 390.7C244.3 395.9 240.9 401.2 237.1 406.8C233.8 401.8 230.7 397 227.5 392.2C223.1 385.6 220.3 385.6 215.8 392.3C212.7 396.8 209.7 401.4 206.7 406C206.5 406.2 206.3 406.4 206 406.6C202.6 401.4 199.2 396.1 195.8 391C192.5 386.1 189.2 386.1 185.8 391C182.4 395.9 179 401.2 175.2 406.8C171.7 401.4 168.3 396.2 164.9 391.1C161.6 386.1 158.3 386.1 154.9 391C151.3 396.2 147.9 401.4 144.3 406.8C140.9 401.7 137.8 396.8 134.6 391.9C130.5 385.8 127.5 385.7 123.5 391.7C120.3 396.5 117.2 401.4 113.7 406.7C110.2 401.4 106.9 396.5 103.6 391.7C99.5 385.7 96.6 385.7 92.5 391.9C89.3 396.7 86.2 401.6 82.8 406.8C79 401.2 75.6 395.9 72.1 390.8C68.9 386.2 65.6 386.3 62.4 390.9C59 396 55.8 401 52.1 406.8C48.4 401.3 45 396 41.5 391C38.1 386.1 34.9 386.1 31.5 391.1C28.1 396.1 24.8 401.3 21.2 406.8C17.4 401 13.9 395.6 10.3 390.3C9.20001 388.8 9.30001 387.2 9.30001 385.5C9.30001 264.3 9.30001 143.2 9.30001 22.1C9.30001 13.1 12.2 10.3 21.3 10.3H298.3C307.8 10.3 310.6 13.1 310.6 22.9C310.6 143.7 310.6 264.5 310.6 385.4C310.8 387.7 310 390.2 308.5 392.2Z" fill="#000000"/>
    <path d="M37.6 27.5H280.9C289.2 27.5 296 34.2 296 42.6V285.9C296 294.2 289.3 301 280.9 301H37.6C29.3 301 22.5 294.3 22.5 285.9V42.5C22.5 34.2 29.3 27.5 37.6 27.5Z" fill="#E5E7EF"/>
    <path d="M126.8 67.7H62.7V131.8H126.8V67.7ZM111.7 116.7H77.8V82.7H111.7V116.7Z" fill="#000000"/>
    <path d="M102.3 92.2H87.2V107.3H102.3V92.2Z" fill="#000000"/>
    <path d="M255.7 67.7H191.6V131.8H255.7V67.7ZM240.7 116.7H206.7V82.7H240.7V116.7Z" fill="#000000"/>
    <path d="M231.2 92.2H216.1V107.3H231.2V92.2Z" fill="#000000"/>
    <path d="M126.8 196.6H62.7V260.7H126.8V196.6ZM111.7 245.6H77.8V211.7H111.7V245.6Z" fill="#000000"/>
    <path d="M102.3 221.1H87.2V236.2H102.3V221.1Z" fill="#000000"/>
    <path d="M92.9 141.9H77.8V157H92.9V141.9Z" fill="#000000"/>
    <path d="M107.6 172.1V187.1H122.6V172.1H107.9V157H92.9V172.1H107.6Z" fill="#000000"/>
    <path d="M183.4 96.7H168.3V111.8H183.4V96.7Z" fill="#000000"/>
    <path d="M153.2 82.7H138.1V111.7H153.2V82.7Z" fill="#000000"/>
    <path d="M168.3 67.7H153.2V82.8H168.3V67.7Z" fill="#000000"/>
    <path d="M168.3 111.8H153.2V126.8H138.1V141.9H168.3V111.8Z" fill="#000000"/>
    <path d="M153.2 187.1V201.9H168.3V216.6H198.4V201.5H168.3V186.8H153.2V157H138.1V187.1H153.2Z" fill="#000000"/>
    <path d="M183.4 141.9H168.3V172.1H183.4V141.9Z" fill="#000000"/>
    <path d="M213.5 186.8H255.7V156.6H240.7V141.9H213.2V157H198.5V172.1H213.6V186.8H213.5ZM213.5 157H240.7V171.7H213.6L213.5 157Z" fill="#000000"/>
    <path d="M255.8 201.5H240.7V231.7H255.8V201.5Z" fill="#000000"/>
    <path d="M198.4 172.1H183.3V187.2H198.4V172.1Z" fill="#000000"/>
    <path d="M213.5 216.6H198.4V231.7H213.5V216.6Z" fill="#000000"/>
    <path d="M228.6 201.5H213.5V216.6H228.6V201.5Z" fill="#000000"/>
    <path d="M228.6 260.7V246.6H240.7V231.6H213.5V260.7H228.6Z" fill="#000000"/>
    <path d="M153.2 201.9H138.1V230.6H153.2V201.9Z" fill="#000000"/>
    <path d="M168.3 260.7V245.6H183V260.7H198.1V245.6H183.3V230.5H153.2V260.7H168.3Z" fill="#000000"/>
    <path d="M138.1 141.9H107.9V157H138.1V141.9Z" fill="#000000"/>
    <path d="M86.8 362.6C83.5 362.6 81 361.7 79.2 360C77.4 358.3 76.5 355.7 76.5 352.4H83.1C83.1 354 83.4 355.2 84.1 356C84.7 356.8 85.6 357.2 86.8 357.2C87.8 357.2 88.5 356.9 89.1 356.3C89.7 355.7 89.9 355 89.9 354C89.9 353.1 89.6 352.3 89.1 351.7C88.6 351.1 87.8 350.5 86.7 349.9L82.9 348.1C80.8 347.1 79.3 345.9 78.3 344.5C77.3 343.1 76.8 341.4 76.8 339.3C76.8 336.8 77.7 334.7 79.4 333.2C81.1 331.7 83.4 330.9 86.3 330.9C89.4 330.9 91.8 331.7 93.4 333.3C95 334.9 95.8 337.2 95.8 340.3H89.3C89.3 337.5 88.2 336.1 86.1 336.1C85.2 336.1 84.5 336.4 84 336.9C83.5 337.4 83.2 338.1 83.2 339C83.2 339.9 83.5 340.6 84 341.2C84.5 341.8 85.4 342.4 86.7 343L90.7 345C92.7 346.1 94.1 347.2 95 348.6C95.9 349.9 96.3 351.6 96.3 353.5C96.3 356.2 95.4 358.4 93.7 360.1C92.1 361.8 89.8 362.6 86.8 362.6Z" fill="#000000"/>
    <path d="M107.8 362.4C104.8 362.4 102.4 361.4 100.7 359.5C99 357.6 98.1 354.9 98.1 351.5C98.1 348.2 99 345.6 100.7 343.6C102.5 341.6 104.8 340.6 107.7 340.6C110.6 340.6 112.9 341.3 114.5 342.8C116.1 344.2 116.9 346.3 116.9 349H110.8C110.7 346.9 109.7 345.9 107.8 345.9C106.7 345.9 105.8 346.4 105.2 347.4C104.6 348.4 104.3 349.8 104.3 351.5C104.3 355.2 105.5 357.1 107.9 357.1C109.7 357.1 110.7 356.1 110.9 354.2H117C116.9 356.9 116 358.9 114.4 360.3C112.8 361.6 110.6 362.4 107.8 362.4Z" fill="#000000"/>
    <path d="M127.1 362.4C124.6 362.4 122.6 361.4 121.2 359.4C119.7 357.4 119 354.8 119 351.5C119 348.2 119.7 345.6 121.2 343.7C122.7 341.7 124.7 340.7 127.1 340.7C129.9 340.7 131.8 341.9 132.8 344.3V341.3H139.1V361.8H132.8V358.8C131.7 361.1 129.8 362.4 127.1 362.4ZM129.1 357.1C130.3 357.1 131.3 356.6 132 355.7C132.7 354.7 133 353.4 133 351.6C133 349.8 132.7 348.5 132 347.5C131.3 346.5 130.4 346.1 129.1 346.1C127.8 346.1 126.9 346.6 126.2 347.5C125.5 348.4 125.2 349.8 125.2 351.6C125.2 353.4 125.5 354.8 126.2 355.7C126.9 356.6 127.8 357.1 129.1 357.1Z" fill="#000000"/>
    <path d="M143.2 361.8V341.3H149.4V344.2C150.5 341.9 152.5 340.7 155.2 340.7C157.2 340.7 158.8 341.3 159.9 342.6C161 343.9 161.5 345.8 161.5 348.3V361.7H155.2V350C155.2 348.6 155 347.5 154.6 346.9C154.2 346.2 153.5 345.9 152.5 345.9C150.4 345.9 149.4 347.5 149.4 350.6V361.7H143.2V361.8Z" fill="#000000"/>
    <path d="M173.9 361.8V331.8H181.3L187 353.2L192.7 331.8H200.1V361.8H194.1V343.5L189.2 361.8H184.8L179.9 343.5V361.8H173.9Z" fill="#000000"/>
    <path d="M222.1 350.3C222.1 351.4 222 352.3 221.9 353.3H209.3C209.4 354.7 209.7 355.8 210.3 356.6C210.9 357.4 211.8 357.8 213 357.8C214.7 357.8 215.7 357.1 216.1 355.7H221.7C221.4 357.9 220.5 359.5 219 360.7C217.5 361.9 215.5 362.5 213 362.5C209.8 362.5 207.4 361.6 205.6 359.7C203.9 357.8 203 355.2 203 351.7C203 348.2 203.9 345.6 205.6 343.6C207.3 341.7 209.7 340.7 212.8 340.7C215.7 340.7 218 341.6 219.6 343.3C221.3 344.9 222.1 347.4 222.1 350.3ZM209.3 349.3H216.1C216.1 346.4 215 344.9 212.8 344.9C210.6 344.9 209.4 346.3 209.3 349.3Z" fill="#000000"/>
    <path d="M240.6 360.9C239.8 361.7 238.7 362.2 237.5 362.2C236.3 362.2 235.3 361.8 234.4 360.9C233.6 360.1 233.1 359.1 233.1 357.9C233.1 356.7 233.5 355.7 234.4 354.9C235.2 354.1 236.3 353.6 237.5 353.6C238.7 353.6 239.7 354 240.6 354.9C241.4 355.7 241.9 356.7 241.9 357.9C241.9 359.1 241.5 360.1 240.6 360.9ZM234.4 351.4V331.8H240.8V351.4H234.4Z" fill="#000000"/>
</svg>
