<svg width="320" height="418" viewBox="0 0 320 418" fill="none" xmlns="http://www.w3.org/2000/svg">
    <g clip-path="url(#clip0_1247_39)">
        <path d="M320.4 15C320.4 4.09998 316.8 0.0999756 306.5 0.0999756C208.8 0.0999756 111 0.0999756 13.2 0.0999756C4.20001 0.0999756 1.90001 1.99998 -0.399994 10.5V406.8C0.200006 412.4 2.40001 416.7 8.60001 417.8H311C314.6 416.8 318 415.4 319.3 411.5C320.2 408.6 320.5 405.7 320.4 402.7C320.4 386.3 320.4 369.9 320.4 353.4C320.4 240.6 320.4 127.8 320.4 15ZM307.1 303.8C307.1 307.9 306.2 308.9 302 308.9C207.2 308.8 112.3 308.8 17.5 308.9C13.4 308.9 12.4 308 12.4 303.8C12.6 256.3 12.5 208.9 12.5 161.4C12.5 113.8 12.6 66.1 12.4 18.5C12.4 14.4 13.3 13.4 17.5 13.4C112.3 13.5 207.2 13.5 302 13.4C306.1 13.4 307.1 14.3 307.1 18.5C307 113.6 307 208.6 307.1 303.8Z" fill="#97949C"/>
        <path d="M113 361V365H112.1L111.3 361.9L113 361Z" fill="#383838"/>
        <path d="M136 367C135 367 133.8 366.8 133.9 365.6C134 363.8 135.6 364 136.9 364C137.8 364 139.1 363.6 139 365.1C138.9 366.6 137.4 367.1 136 367Z" fill="#0E0E0E"/>
        <path d="M207.2 360.9C209.2 358.2 211.1 358.8 213.5 360.7C211.4 361.3 209.2 361.4 207.2 360.9Z" fill="#171717"/>
        <path d="M38.1 22.9H281.4C289.7 22.9 296.5 29.6 296.5 38V281.3C296.5 289.6 289.8 296.4 281.4 296.4H38.1C29.8 296.4 23 289.7 23 281.3V37.9C23 29.6 29.8 22.9 38.1 22.9Z" fill="#E5E7EF"/>
        <path d="M127.3 63.1H63.2V127.2H127.3V63.1ZM112.2 112.1H78.3V78.1H112.2V112.1Z" fill="#97949C"/>
        <path d="M102.8 87.6H87.7V102.7H102.8V87.6Z" fill="#97949C"/>
        <path d="M256.1 63.1H192V127.2H256.1V63.1ZM241.2 112.1H207.2V78.1H241.2V112.1Z" fill="#97949C"/>
        <path d="M231.7 87.6H216.6V102.7H231.7V87.6Z" fill="#97949C"/>
        <path d="M127.3 192H63.2V256.1H127.3V192ZM112.2 241H78.3V207.1H112.2V241Z" fill="#97949C"/>
        <path d="M102.8 216.5H87.7V231.6H102.8V216.5Z" fill="#97949C"/>
        <path d="M93.4 137.3H78.3V152.4H93.4V137.3Z" fill="#97949C"/>
        <path d="M108.1 167.5V182.5H123.1V167.5H108.3V152.4H93.3V167.5H108.1Z" fill="#97949C"/>
        <path d="M183.9 92.1H168.8V107.2H183.9V92.1Z" fill="#97949C"/>
        <path d="M153.7 78.1H138.6V107.1H153.7V78.1Z" fill="#97949C"/>
        <path d="M168.8 63.1H153.7V78.2H168.8V63.1Z" fill="#97949C"/>
        <path d="M168.8 107.2H153.7V122.2H138.6V137.3H168.8V107.2Z" fill="#97949C"/>
        <path d="M153.7 182.5V197.3H168.8V212H198.9V196.9H168.8V182.3H153.7V152.4H138.6V182.5H153.7Z" fill="#97949C"/>
        <path d="M183.9 137.3H168.8V167.5H183.9V137.3Z" fill="#97949C"/>
        <path d="M214 182.3H256.2V152.1H241.2V137.4H213.7V152.5H199V167.6H214.1V182.3H214ZM214 152.4H241.2V167.1H214.1L214 152.4Z" fill="#97949C"/>
        <path d="M256.3 196.9H241.2V227.1H256.3V196.9Z" fill="#97949C"/>
        <path d="M198.9 167.5H183.8V182.6H198.9V167.5Z" fill="#97949C"/>
        <path d="M214 212H198.9V227.1H214V212Z" fill="#97949C"/>
        <path d="M229.1 196.9H214V212H229.1V196.9Z" fill="#97949C"/>
        <path d="M229.1 256.1V242H241.2V227H214V256.1H229.1Z" fill="#97949C"/>
        <path d="M153.7 197.3H138.6V226H153.7V197.3Z" fill="#97949C"/>
        <path d="M168.8 256.1V241H183.5V256.1H198.6V241H183.8V225.9H153.7V256.1H168.8Z" fill="#97949C"/>
        <path d="M138.5 137.3H108.3V152.4H138.5V137.3Z" fill="#97949C"/>
        <path d="M87.3 381C84 381 81.5 380.1 79.7 378.4C77.9 376.7 77 374.1 77 370.8H83.6C83.6 372.4 83.9 373.6 84.6 374.4C85.2 375.2 86.1 375.6 87.3 375.6C88.3 375.6 89 375.3 89.6 374.7C90.2 374.1 90.4 373.4 90.4 372.4C90.4 371.5 90.1 370.7 89.6 370.1C89.1 369.5 88.3 368.9 87.2 368.3L83.4 366.5C81.3 365.5 79.8 364.3 78.8 362.9C77.8 361.5 77.3 359.8 77.3 357.7C77.3 355.2 78.2 353.1 79.9 351.6C81.6 350.1 83.9 349.3 86.8 349.3C89.9 349.3 92.3 350.1 93.9 351.7C95.5 353.3 96.3 355.6 96.3 358.7H89.8C89.8 355.9 88.7 354.5 86.6 354.5C85.7 354.5 85 354.8 84.5 355.3C84 355.8 83.7 356.5 83.7 357.4C83.7 358.3 84 359 84.5 359.6C85 360.2 85.9 360.8 87.2 361.4L91.2 363.4C93.2 364.5 94.6 365.6 95.5 367C96.4 368.3 96.8 370 96.8 371.9C96.8 374.6 95.9 376.8 94.2 378.5C92.6 380.2 90.3 381 87.3 381Z" fill="white"/>
        <path d="M108.3 380.8C105.3 380.8 102.9 379.8 101.2 377.9C99.5 376 98.6 373.3 98.6 369.9C98.6 366.6 99.5 364 101.2 362C103 360 105.3 359 108.2 359C111.1 359 113.4 359.7 115 361.2C116.6 362.6 117.4 364.7 117.4 367.4H111.3C111.2 365.3 110.2 364.3 108.3 364.3C107.2 364.3 106.3 364.8 105.7 365.8C105.1 366.8 104.8 368.2 104.8 369.9C104.8 373.6 106 375.5 108.4 375.5C110.2 375.5 111.2 374.5 111.4 372.6H117.5C117.4 375.3 116.5 377.3 114.9 378.7C113.3 380 111.1 380.8 108.3 380.8Z" fill="white"/>
        <path d="M127.6 380.8C125.1 380.8 123.1 379.8 121.7 377.8C120.2 375.8 119.5 373.2 119.5 369.9C119.5 366.6 120.2 364 121.7 362.1C123.2 360.1 125.2 359.1 127.6 359.1C130.4 359.1 132.3 360.3 133.3 362.7V359.7H139.6V380.2H133.3V377.2C132.2 379.5 130.3 380.8 127.6 380.8ZM129.6 375.5C130.8 375.5 131.8 375 132.5 374.1C133.2 373.1 133.5 371.8 133.5 370C133.5 368.2 133.2 366.9 132.5 365.9C131.8 364.9 130.9 364.5 129.6 364.5C128.3 364.5 127.4 365 126.7 365.9C126 366.8 125.7 368.2 125.7 370C125.7 371.8 126 373.2 126.7 374.1C127.4 375 128.3 375.5 129.6 375.5Z" fill="white"/>
        <path d="M143.7 380.2V359.7H149.9V362.6C151 360.3 153 359.1 155.7 359.1C157.7 359.1 159.3 359.7 160.4 361C161.5 362.3 162 364.2 162 366.7V380.1H155.7V368.4C155.7 367 155.5 365.9 155.1 365.3C154.7 364.6 154 364.3 153 364.3C150.9 364.3 149.9 365.9 149.9 369V380.1H143.7V380.2Z" fill="white"/>
        <path d="M174.4 380.2V350.2H181.8L187.5 371.6L193.2 350.2H200.6V380.2H194.6V361.9L189.7 380.2H185.3L180.4 361.9V380.2H174.4Z" fill="white"/>
        <path d="M222.6 368.7C222.6 369.8 222.5 370.7 222.4 371.7H209.8C209.9 373.1 210.2 374.2 210.8 375C211.4 375.8 212.3 376.2 213.5 376.2C215.2 376.2 216.2 375.5 216.6 374.1H222.2C221.9 376.3 221 377.9 219.5 379.1C218 380.3 216 380.9 213.5 380.9C210.3 380.9 207.9 380 206.1 378.1C204.4 376.2 203.5 373.6 203.5 370.1C203.5 366.6 204.4 364 206.1 362C207.8 360.1 210.2 359.1 213.3 359.1C216.2 359.1 218.5 360 220.1 361.7C221.8 363.3 222.6 365.8 222.6 368.7ZM209.8 367.7H216.6C216.6 364.8 215.5 363.3 213.3 363.3C211.1 363.3 209.9 364.7 209.8 367.7Z" fill="white"/>
        <path d="M241.1 379.3C240.3 380.1 239.2 380.6 238 380.6C236.8 380.6 235.8 380.2 234.9 379.3C234.1 378.5 233.6 377.5 233.6 376.3C233.6 375.1 234 374.1 234.9 373.3C235.7 372.5 236.8 372 238 372C239.2 372 240.2 372.4 241.1 373.3C241.9 374.1 242.4 375.1 242.4 376.3C242.4 377.5 242 378.5 241.1 379.3ZM234.9 369.8V350.2H241.3V369.8H234.9Z" fill="white"/>
    </g>
</svg>
