<svg width="320" height="418" viewBox="0 0 320 418" fill="none" xmlns="http://www.w3.org/2000/svg">
    <g clip-path="url(#clip0_1247_637)">
        <path d="M320.5 343.8V408.6C319.8 413.3 316.2 416.9 311.5 417.6H9.09995C1.29995 415 -0.300049 412.6 -0.300049 404.1C-0.300049 385.5 -0.300049 366.9 -0.300049 348.3C-0.300049 337.3 4.29995 332.6 15.3 332.3C21.1 332.1 26.9 332.3 32.7 332.3H299C301.3 332.3 303.6 332.3 306 332.4C314.7 332.7 318.5 335.8 320.5 343.8Z" fill="currentColor"/>
        <path d="M306.8 0.0999756H305.8C208.7 0.0999756 111.6 0.0999756 14.5 0.0999756C12.3 0.0999756 10.2 0.299976 8.1 0.699976C3.8 1.49998 1.39999 4.29997 0.299995 8.19998C-0.300005 10.6 -0.500005 13.1 -0.400005 15.6C-0.400005 112.5 -0.400005 209.5 -0.400005 306.4C-0.400005 307.4 -0.400005 308.4 -0.400005 309.4C-5.21541e-06 318 4.39999 322.4 12.9 322.9C15.2 323 17.5 323 19.9 323H224.7C251.5 323 278.4 323.1 305.2 323C314.9 323 318 320.5 320.3 311.5V10.6C318.1 1.99998 315.8 0.199976 306.8 0.0999756ZM307.5 161.4C307.5 208.9 307.4 256.4 307.6 303.8C307.6 307.9 306.6 308.9 302.5 308.9C207.7 308.8 112.9 308.8 18 308.9C13.8 308.9 12.9 307.9 12.9 303.8C13 208.7 13 113.6 12.9 18.4C12.9 14.2 13.9 13.3 18 13.3C112.8 13.4 207.6 13.4 302.5 13.3C306.6 13.3 307.6 14.3 307.6 18.4C307.4 66.2 307.5 113.8 307.5 161.4Z" fill="currentColor"/>
        <text id="qr-frame-text" x="160" y="390" font-size="40px" font-weight="600" font-family="Inter, sans-serif" fill="white" text-anchor="middle">Scan Me!</text>
    </g>
</svg>
