<svg width="320" height="418" viewBox="0 0 320 418" fill="none" xmlns="http://www.w3.org/2000/svg">
    <path d="M302.7 58.8V344.1H17.3V58.8H302.7ZM302.7 46.4H17.3C10.4 46.4 4.89999 52 4.89999 58.8V344.1C4.89999 351 10.5 356.5 17.3 356.5H302.6C309.5 356.5 315 350.9 315 344.1V58.8C315.1 52 309.5 46.4 302.7 46.4Z" fill="#000000"/>
    <path d="M302.7 410.5H17.3C10.4 410.5 4.89999 404.9 4.89999 398.1V344.4H315V398.1C315.1 404.9 309.5 410.5 302.7 410.5Z" fill="#000000"/>
    <path d="M115.8 27.9H204.8C216.5 27.9 226 37.4 226 49.1V64.3C226 66.6 224.2 68.4 221.9 68.4H98.7C96.4 68.4 94.6 66.6 94.6 64.3V49.1C94.6 37.4 104.1 27.9 115.8 27.9Z" fill="#585858"/>
    <path d="M160.3 48.5C171.622 48.5 180.8 39.3218 180.8 28C180.8 16.6782 171.622 7.5 160.3 7.5C148.978 7.5 139.8 16.6782 139.8 28C139.8 39.3218 148.978 48.5 160.3 48.5Z" fill="#585858"/>
    <path d="M160.3 36.1C164.774 36.1 168.4 32.4735 168.4 28C168.4 23.5265 164.774 19.9 160.3 19.9C155.827 19.9 152.2 23.5265 152.2 28C152.2 32.4735 155.827 36.1 160.3 36.1Z" fill="white"/>
    <path d="M49.2 81.5H269.4C276.9 81.5 283.1 87.6 283.1 95.2V315.4C283.1 322.9 277 329.1 269.4 329.1H49.2C41.7 329.1 35.5 323 35.5 315.4V95.1C35.5 87.6 41.6 81.5 49.2 81.5Z" fill="#E5E7EF"/>
    <path d="M129.9 117.9H71.9V175.9H129.9V117.9ZM116.2 162.3H85.5V131.5H116.2V162.3Z" fill="#000000"/>
    <path d="M107.7 140.1H94V153.8H107.7V140.1Z" fill="#000000"/>
    <path d="M246.5 117.9H188.5V175.9H246.5V117.9ZM233 162.3H202.2V131.5H233V162.3Z" fill="#000000"/>
    <path d="M224.4 140.1H210.7V153.8H224.4V140.1Z" fill="#000000"/>
    <path d="M129.9 234.6H71.9V292.6H129.9V234.6ZM116.2 278.9H85.5V248.2H116.2V278.9Z" fill="#000000"/>
    <path d="M107.7 256.7H94V270.4H107.7V256.7Z" fill="#000000"/>
    <path d="M99.2 185.1H85.5V198.8H99.2V185.1Z" fill="#000000"/>
    <path d="M112.5 212.4V226H126.1V212.4H112.8V198.7H99.2V212.4H112.5Z" fill="#000000"/>
    <path d="M181.1 144.2H167.4V157.9H181.1V144.2Z" fill="#000000"/>
    <path d="M153.8 131.5H140.1V157.7H153.8V131.5Z" fill="#000000"/>
    <path d="M167.5 117.9H153.8V131.6H167.5V117.9Z" fill="#000000"/>
    <path d="M167.4 157.8H153.8V171.4H140.1V185.1H167.4V157.8Z" fill="#000000"/>
    <path d="M153.8 226V239.4H167.4V252.7H194.7V239H167.4V225.7H153.8V198.7H140.1V226H153.8Z" fill="#000000"/>
    <path d="M181.1 185.1H167.4V212.4H181.1V185.1Z" fill="#000000"/>
    <path d="M208.3 225.7H246.5V198.4H233V185.1H208.1V198.8H194.8V212.5H208.5L208.3 225.7ZM208.3 198.7H233V212H208.5L208.3 198.7Z" fill="#000000"/>
    <path d="M246.7 239H233V266.3H246.7V239Z" fill="#000000"/>
    <path d="M194.7 212.4H181V226.1H194.7V212.4Z" fill="#000000"/>
    <path d="M208.4 252.7H194.7V266.4H208.4V252.7Z" fill="#000000"/>
    <path d="M222 239H208.3V252.7H222V239Z" fill="#000000"/>
    <path d="M222 292.6V279.8H233V266.3H208.3V292.6H222Z" fill="#000000"/>
    <path d="M153.8 239.4H140.1V265.4H153.8V239.4Z" fill="#000000"/>
    <path d="M167.4 292.6V278.9H180.7V292.6H194.4V278.9H181V265.3H153.8V292.6H167.4Z" fill="#000000"/>
    <path d="M140.1 185.1H112.8V198.8H140.1V185.1Z" fill="#000000"/>
    <path d="M86.8 392.6C83.5 392.6 81 391.7 79.2 390C77.4 388.3 76.5 385.7 76.5 382.4H83.1C83.1 384 83.4 385.2 84.1 386C84.7 386.8 85.6 387.2 86.8 387.2C87.8 387.2 88.5 386.9 89.1 386.3C89.7 385.7 89.9 385 89.9 384C89.9 383.1 89.6 382.3 89.1 381.7C88.6 381.1 87.8 380.5 86.7 379.9L82.9 378.1C80.8 377.1 79.3 375.9 78.3 374.5C77.3 373.1 76.8 371.4 76.8 369.3C76.8 366.8 77.7 364.7 79.4 363.2C81.1 361.7 83.4 360.9 86.3 360.9C89.4 360.9 91.8 361.7 93.4 363.3C95 364.9 95.8 367.2 95.8 370.3H89.3C89.3 367.5 88.2 366.1 86.1 366.1C85.2 366.1 84.5 366.4 84 366.9C83.5 367.4 83.2 368.1 83.2 369C83.2 369.9 83.5 370.6 84 371.2C84.5 371.8 85.4 372.4 86.7 373L90.7 375C92.7 376.1 94.1 377.2 95 378.6C95.9 379.9 96.3 381.6 96.3 383.5C96.3 386.2 95.4 388.4 93.7 390.1C92.1 391.8 89.8 392.6 86.8 392.6Z" fill="white"/>
    <path d="M107.8 392.4C104.8 392.4 102.4 391.4 100.7 389.5C99 387.6 98.1 384.9 98.1 381.5C98.1 378.2 99 375.6 100.7 373.6C102.5 371.6 104.8 370.6 107.7 370.6C110.6 370.6 112.9 371.3 114.5 372.8C116.1 374.2 116.9 376.3 116.9 379H110.8C110.7 376.9 109.7 375.9 107.8 375.9C106.7 375.9 105.8 376.4 105.2 377.4C104.6 378.4 104.3 379.8 104.3 381.5C104.3 385.2 105.5 387.1 107.9 387.1C109.7 387.1 110.7 386.1 110.9 384.2H117C116.9 386.9 116 388.9 114.4 390.3C112.8 391.6 110.6 392.4 107.8 392.4Z" fill="white"/>
    <path d="M127.1 392.4C124.6 392.4 122.6 391.4 121.2 389.4C119.7 387.4 119 384.8 119 381.5C119 378.2 119.7 375.6 121.2 373.7C122.7 371.7 124.7 370.7 127.1 370.7C129.9 370.7 131.8 371.9 132.8 374.3V371.3H139.1V391.8H132.8V388.8C131.7 391.1 129.8 392.4 127.1 392.4ZM129.1 387.1C130.3 387.1 131.3 386.6 132 385.7C132.7 384.7 133 383.4 133 381.6C133 379.8 132.7 378.5 132 377.5C131.3 376.5 130.4 376.1 129.1 376.1C127.8 376.1 126.9 376.6 126.2 377.5C125.5 378.4 125.2 379.8 125.2 381.6C125.2 383.4 125.5 384.8 126.2 385.7C126.9 386.6 127.8 387.1 129.1 387.1Z" fill="white"/>
    <path d="M143.2 391.8V371.3H149.4V374.2C150.5 371.9 152.5 370.7 155.2 370.7C157.2 370.7 158.8 371.3 159.9 372.6C161 373.9 161.5 375.8 161.5 378.3V391.7H155.2V380C155.2 378.6 155 377.5 154.6 376.9C154.2 376.2 153.5 375.9 152.5 375.9C150.4 375.9 149.4 377.5 149.4 380.6V391.7H143.2V391.8Z" fill="white"/>
    <path d="M173.9 391.8V361.8H181.3L187 383.2L192.7 361.8H200.1V391.8H194.1V373.5L189.2 391.8H184.8L179.9 373.5V391.8H173.9Z" fill="white"/>
    <path d="M222.1 380.3C222.1 381.4 222 382.3 221.9 383.3H209.3C209.4 384.7 209.7 385.8 210.3 386.6C210.9 387.4 211.8 387.8 213 387.8C214.7 387.8 215.7 387.1 216.1 385.7H221.7C221.4 387.9 220.5 389.5 219 390.7C217.5 391.9 215.5 392.5 213 392.5C209.8 392.5 207.4 391.6 205.6 389.7C203.9 387.8 203 385.2 203 381.7C203 378.2 203.9 375.6 205.6 373.6C207.3 371.7 209.7 370.7 212.8 370.7C215.7 370.7 218 371.6 219.6 373.3C221.3 374.9 222.1 377.4 222.1 380.3ZM209.3 379.3H216.1C216.1 376.4 215 374.9 212.8 374.9C210.6 374.9 209.4 376.3 209.3 379.3Z" fill="white"/>
    <path d="M240.6 390.9C239.8 391.7 238.7 392.2 237.5 392.2C236.3 392.2 235.3 391.8 234.4 390.9C233.6 390.1 233.1 389.1 233.1 387.9C233.1 386.7 233.5 385.7 234.4 384.9C235.2 384.1 236.3 383.6 237.5 383.6C238.7 383.6 239.7 384 240.6 384.9C241.4 385.7 241.9 386.7 241.9 387.9C241.9 389.1 241.5 390.1 240.6 390.9ZM234.4 381.4V361.8H240.8V381.4H234.4Z" fill="white"/>
</svg>
