<svg width="320" height="418" viewBox="0 0 320 418" fill="none" xmlns="http://www.w3.org/2000/svg">
<path d="M11 312.3H282.2C284.7 312.3 286.8 314.3 286.8 316.9V317.8C286.8 320.3 284.8 322.4 282.2 322.4H11C8.49999 322.4 6.39999 320.4 6.39999 317.8V316.9C6.39999 314.3 8.49999 312.3 11 312.3Z" fill="#000000"/>
<path d="M250.3 352.7H42.9C25.8 352.7 12 338.9 12 321.8H281.2C281.2 338.9 267.4 352.7 250.3 352.7Z" fill="#000000"/>
<path d="M216.9 327.3H76.3C50.1 327.3 28.9 306 28.9 279.9V97.2C28.9 92.6 32.6 88.9 37.2 88.9H256C260.6 88.9 264.3 92.6 264.3 97.2V132.9C292.3 135.5 314.3 159 314.3 187.7C314.3 216.4 292.3 239.9 264.3 242.5V279.9C264.3 306 243 327.3 216.9 327.3ZM39 99V279.9C39 300.5 55.8 317.2 76.3 317.2H216.8C237.4 317.2 254.1 300.4 254.1 279.9V232.6H259.1C283.9 232.6 304 212.5 304 187.7C304 162.9 283.9 142.8 259.1 142.8H254.1V99H39Z" fill="#000000"/>
<path d="M259.2 217.3H254.2V158H259.2C275.5 158 288.8 171.3 288.8 187.6C288.8 203.9 275.5 217.3 259.2 217.3ZM264.3 168.8V206.6C272.6 204.4 278.8 196.8 278.8 187.7C278.8 178.6 272.6 171 264.3 168.8Z" fill="#000000"/>
<path d="M101.1 75.8C100.1 75.8 99.1 75.5 98.2 74.9C96 73.3 95.4 70.1 97 67.9C99.2 64.8 102.7 58.5999 102.7 54.7999C102.7 49.1999 101.3 46.6999 99.7 43.7999C98 40.6999 96.1 37.2999 96.1 31.2999C96.1 19.0999 104.3 12.4 104.6 12.2L110.9 20.1C110.7 20.3 106.1 24.2 106.1 31.4C106.1 34.7 107 36.4 108.4 39C110.3 42.4 112.7 46.7 112.7 54.9C112.7 63.1 105.9 72.8 105.1 73.9C104.2 75 102.6 75.8 101.1 75.8Z" fill="#000000"/>
<path d="M143.3 75.8C142.3 75.8 141.3 75.5 140.4 74.9C138.2 73.3 137.6 70.1 139.2 67.9C141.4 64.8 144.9 58.5999 144.9 54.7999C144.9 49.1999 143.5 46.6999 141.9 43.7999C140.2 40.6999 138.3 37.2999 138.3 31.2999C138.3 19.0999 146.5 12.4 146.8 12.2L153 20C152.8 20.2 148.2 24.0999 148.2 31.2999C148.2 34.5999 149.1 36.3 150.6 38.9C152.5 42.3 154.9 46.5999 154.9 54.7999C154.9 62.9999 148.1 72.7 147.3 73.8C146.4 75 144.8 75.8 143.3 75.8Z" fill="#000000"/>
<path d="M185.5 75.8C184.5 75.8 183.5 75.5 182.6 74.9C180.4 73.3 179.8 70.1 181.4 67.9C183.6 64.8 187.1 58.5999 187.1 54.7999C187.1 49.1999 185.7 46.6999 184.1 43.7999C182.4 40.6999 180.5 37.2999 180.5 31.2999C180.5 19.0999 188.7 12.4 189 12.2L195.3 20.1C195.1 20.3 190.5 24.2 190.5 31.4C190.5 34.7 191.4 36.4 192.8 39C194.7 42.4 197.1 46.7 197.1 54.9C197.1 63.1 190.3 72.8 189.5 73.9C188.6 75 187 75.8 185.5 75.8Z" fill="#000000"/>
<path d="M68.5 114.8H226C231.4 114.8 235.8 119.1 235.8 124.6V282C235.8 287.4 231.5 291.8 226 291.8H68.5C63.1 291.8 58.7 287.5 58.7 282V124.5C58.7 119.1 63.1 114.8 68.5 114.8Z" fill="#E5E7EF"/>
<path d="M126.2 140.8H84.7V182.3H126.2V140.8ZM116.5 172.5H94.5V150.5H116.4V172.5H116.5Z" fill="#000000"/>
<path d="M110.4 156.7H100.6V166.5H110.4V156.7Z" fill="#000000"/>
<path d="M209.7 140.8H168.2V182.3H209.7V140.8ZM200 172.5H178V150.5H200V172.5Z" fill="#000000"/>
<path d="M193.9 156.7H184.1V166.5H193.9V156.7Z" fill="#000000"/>
<path d="M126.2 224.2H84.7V265.7H126.2V224.2ZM116.5 256H94.5V234H116.4V256H116.5Z" fill="#000000"/>
<path d="M110.4 240.1H100.6V249.9H110.4V240.1Z" fill="#000000"/>
<path d="M104.3 188.8H94.5V198.6H104.3V188.8Z" fill="#000000"/>
<path d="M113.8 208.4V218.1H123.5V208.4H114V198.6H104.3V208.4H113.8Z" fill="#000000"/>
<path d="M162.9 159.6H153.1V169.4H162.9V159.6Z" fill="#000000"/>
<path d="M143.4 150.5H133.6V169.3H143.4V150.5Z" fill="#000000"/>
<path d="M153.1 140.8H143.3V150.6H153.1V140.8Z" fill="#000000"/>
<path d="M153.1 169.3H143.3V179.1H133.6V188.8H153.1V169.3Z" fill="#000000"/>
<path d="M143.3 218.1V227.7H153.1V237.2H172.6V227.4H153.1V217.9H143.3V198.6H133.6V218.1H143.3Z" fill="#000000"/>
<path d="M162.9 188.8H153.1V208.3H162.9V188.8Z" fill="#000000"/>
<path d="M182.4 217.9H209.7V198.4H200V188.9H182.2V198.7H172.7V208.5H182.5L182.4 217.9ZM182.4 198.6H200V208.1H182.5L182.4 198.6Z" fill="#000000"/>
<path d="M209.8 227.4H200V246.9H209.8V227.4Z" fill="#000000"/>
<path d="M172.6 208.4H162.8V218.2H172.6V208.4Z" fill="#000000"/>
<path d="M182.4 237.2H172.6V247H182.4V237.2Z" fill="#000000"/>
<path d="M192.2 227.4H182.4V237.2H192.2V227.4Z" fill="#000000"/>
<path d="M192.1 265.7V256.6H200V246.9H182.4V265.7H192.1Z" fill="#000000"/>
<path d="M143.4 227.7H133.6V246.3H143.4V227.7Z" fill="#000000"/>
<path d="M153.1 265.7V256H162.6V265.7H172.4V256H162.8V246.2H143.3V265.7H153.1Z" fill="#000000"/>
<path d="M133.5 188.8H114V198.6H133.5V188.8Z" fill="#000000"/>
<path d="M86.8 397.8C83.5 397.8 81 396.9 79.2 395.2C77.4 393.5 76.5 390.9 76.5 387.6H83.1C83.1 389.2 83.4 390.4 84.1 391.2C84.7 392 85.6 392.4 86.8 392.4C87.8 392.4 88.5 392.1 89.1 391.5C89.7 390.9 89.9 390.2 89.9 389.2C89.9 388.3 89.6 387.5 89.1 386.9C88.6 386.3 87.8 385.7 86.7 385.1L82.9 383.3C80.8 382.3 79.3 381.1 78.3 379.7C77.3 378.3 76.8 376.6 76.8 374.5C76.8 372 77.7 369.9 79.4 368.4C81.1 366.9 83.4 366.1 86.3 366.1C89.4 366.1 91.8 366.9 93.4 368.5C95 370.1 95.8 372.4 95.8 375.5H89.3C89.3 372.7 88.2 371.3 86.1 371.3C85.2 371.3 84.5 371.6 84 372.1C83.5 372.6 83.2 373.3 83.2 374.2C83.2 375.1 83.5 375.8 84 376.4C84.5 377 85.4 377.6 86.7 378.2L90.7 380.2C92.7 381.3 94.1 382.4 95 383.8C95.9 385.1 96.3 386.8 96.3 388.7C96.3 391.4 95.4 393.6 93.7 395.3C92.1 397 89.8 397.8 86.8 397.8Z" fill="#000000"/>
<path d="M107.8 397.6C104.8 397.6 102.4 396.6 100.7 394.7C99 392.8 98.1 390.1 98.1 386.7C98.1 383.4 99 380.8 100.7 378.8C102.5 376.8 104.8 375.8 107.7 375.8C110.6 375.8 112.9 376.5 114.5 378C116.1 379.4 116.9 381.5 116.9 384.2H110.8C110.7 382.1 109.7 381.1 107.8 381.1C106.7 381.1 105.8 381.6 105.2 382.6C104.6 383.6 104.3 385 104.3 386.7C104.3 390.4 105.5 392.3 107.9 392.3C109.7 392.3 110.7 391.3 110.9 389.4H117C116.9 392.1 116 394.1 114.4 395.5C112.8 396.8 110.6 397.6 107.8 397.6Z" fill="#000000"/>
<path d="M127.1 397.6C124.6 397.6 122.6 396.6 121.2 394.6C119.7 392.6 119 390 119 386.7C119 383.4 119.7 380.8 121.2 378.9C122.7 376.9 124.7 375.9 127.1 375.9C129.9 375.9 131.8 377.1 132.8 379.5V376.5H139.1V397H132.8V394C131.7 396.3 129.8 397.6 127.1 397.6ZM129.1 392.3C130.3 392.3 131.3 391.8 132 390.9C132.7 389.9 133 388.6 133 386.8C133 385 132.7 383.7 132 382.7C131.3 381.7 130.4 381.3 129.1 381.3C127.8 381.3 126.9 381.8 126.2 382.7C125.5 383.6 125.2 385 125.2 386.8C125.2 388.6 125.5 390 126.2 390.9C126.9 391.8 127.8 392.3 129.1 392.3Z" fill="#000000"/>
<path d="M143.2 397V376.5H149.4V379.4C150.5 377.1 152.5 375.9 155.2 375.9C157.2 375.9 158.8 376.5 159.9 377.8C161 379.1 161.5 381 161.5 383.5V396.9H155.2V385.2C155.2 383.8 155 382.7 154.6 382.1C154.2 381.4 153.5 381.1 152.5 381.1C150.4 381.1 149.4 382.7 149.4 385.8V396.9H143.2V397Z" fill="#000000"/>
<path d="M173.9 397V367H181.3L187 388.4L192.7 367H200.1V397H194.1V378.7L189.2 397H184.8L179.9 378.7V397H173.9Z" fill="#000000"/>
<path d="M222.1 385.5C222.1 386.6 222 387.5 221.9 388.5H209.3C209.4 389.9 209.7 391 210.3 391.8C210.9 392.6 211.8 393 213 393C214.7 393 215.7 392.3 216.1 390.9H221.7C221.4 393.1 220.5 394.7 219 395.9C217.5 397.1 215.5 397.7 213 397.7C209.8 397.7 207.4 396.8 205.6 394.9C203.9 393 203 390.4 203 386.9C203 383.4 203.9 380.8 205.6 378.8C207.3 376.9 209.7 375.9 212.8 375.9C215.7 375.9 218 376.8 219.6 378.5C221.3 380.1 222.1 382.6 222.1 385.5ZM209.3 384.5H216.1C216.1 381.6 215 380.1 212.8 380.1C210.6 380.1 209.4 381.5 209.3 384.5Z" fill="#000000"/>
<path d="M240.6 396.1C239.8 396.9 238.7 397.4 237.5 397.4C236.3 397.4 235.3 397 234.4 396.1C233.6 395.3 233.1 394.3 233.1 393.1C233.1 391.9 233.5 390.9 234.4 390.1C235.2 389.3 236.3 388.8 237.5 388.8C238.7 388.8 239.7 389.2 240.6 390.1C241.4 390.9 241.9 391.9 241.9 393.1C241.9 394.3 241.5 395.3 240.6 396.1ZM234.4 386.6V367H240.8V386.6H234.4Z" fill="#000000"/>
</svg>
