<svg width="320" height="418" viewBox="0 0 320 418" fill="none" xmlns="http://www.w3.org/2000/svg">
    <path d="M276 166.8L313 199.2L277.6 227.1L276 166.8Z" fill="currentColor"/>
    <path d="M44.1 166.8L7.09998 199.2L42.4 227.1L44.1 166.8Z" fill="currentColor"/>
    <path d="M280.6 163.1V28.6C280.6 20.9 274.4 14.7 266.7 14.7H53.5C45.8 14.7 39.6 20.9 39.6 28.6V163.1L1.40002 192.6V383.3C1.40002 395.2 11.1 404.9 23 404.9H297.1C309 404.9 318.7 395.2 318.7 383.3V192.6L280.6 163.1ZM307.3 210.9V356.7L213.1 283.8L307.3 210.9ZM306.1 197.3L280.6 217V177.5L306.1 197.3ZM53.5 25.1H266.7C268.6 25.1 270.2 26.7 270.2 28.6V225.2L203.8 276.6L173.7 253.3C165.7 247.1 154.5 247.1 146.4 253.3L116.3 276.6L50 225.1V28.6C50 26.6 51.5 25.1 53.5 25.1ZM107 283.8L12.8 356.7V210.9L107 283.8ZM39.5 217L14 197.3L39.5 177.6V217ZM297.1 393.5H23C17.4 393.5 12.8 388.9 12.8 383.3V371L153.4 262.1C157.3 259.1 162.8 259.1 166.7 262.1L307.3 371V383.3C307.3 389 302.7 393.5 297.1 393.5Z" fill="currentColor"/>
    <text id="qr-frame-text" x="160" y="370" font-size="40px" font-weight="600" font-family="Inter, sans-serif" fill="currentColor" text-anchor="middle">Scan Me!</text>
</svg>
