<svg width="320" height="418" viewBox="0 0 320 418" fill="none" xmlns="http://www.w3.org/2000/svg">
    <path d="M276 166.8L313 199.2L277.6 227.1L276 166.8Z" fill="#000000"/>
    <path d="M44.1 166.8L7.10001 199.2L42.4 227.1L44.1 166.8Z" fill="#000000"/>
    <path d="M280.6 163.1V28.6C280.6 20.9 274.4 14.7 266.7 14.7H53.5C45.8 14.7 39.6 20.9 39.6 28.6V163.1L1.39999 192.6V383.3C1.39999 395.2 11.1 404.9 23 404.9H297.1C309 404.9 318.7 395.2 318.7 383.3V192.6L280.6 163.1ZM307.3 210.9V356.7L213.1 283.8L307.3 210.9ZM306.1 197.3L280.6 217V177.5L306.1 197.3ZM53.5 25.1H266.7C268.6 25.1 270.2 26.7 270.2 28.6V225.2L203.8 276.6L173.7 253.3C165.7 247.1 154.5 247.1 146.4 253.3L116.3 276.6L50 225.1V28.6C50 26.6 51.5 25.1 53.5 25.1ZM107 283.8L12.8 356.7V210.9L107 283.8ZM39.5 217L14 197.3L39.5 177.6V217ZM297.1 393.5H23C17.4 393.5 12.8 388.9 12.8 383.3V371L153.4 262.1C157.3 259.1 162.8 259.1 166.7 262.1L307.3 371V383.3C307.3 389 302.7 393.5 297.1 393.5Z" fill="#000000"/>
    <path d="M75.8 37.5H242.7C248.4 37.5 253.1 42.1 253.1 47.9V214.8C253.1 220.5 248.5 225.2 242.7 225.2H75.8C70.1 225.2 65.4 220.6 65.4 214.8V47.8C65.5 42.1 70.1 37.5 75.8 37.5Z" fill="#E5E7EF"/>
    <path d="M137 65.1H93V109.1H137V65.1ZM126.6 98.7H103.4V75.4H126.6V98.7Z" fill="#000000"/>
    <path d="M120.2 81.9H109.8V92.3H120.2V81.9Z" fill="#000000"/>
    <path d="M225.4 65.1H181.4V109.1H225.4V65.1ZM215.1 98.7H191.8V75.4H215.1V98.7Z" fill="#000000"/>
    <path d="M208.6 81.9H198.2V92.3H208.6V81.9Z" fill="#000000"/>
    <path d="M137 153.5H93V197.5H137V153.5ZM126.6 187.1H103.4V163.9H126.6V187.1Z" fill="#000000"/>
    <path d="M120.2 170.3H109.8V180.7H120.2V170.3Z" fill="#000000"/>
    <path d="M113.8 116H103.4V126.4H113.8V116Z" fill="#000000"/>
    <path d="M123.8 136.7V147H134.1V136.7H124V126.3H113.7V136.7H123.8Z" fill="#000000"/>
    <path d="M175.9 85H165.5V95.4H175.9V85Z" fill="#000000"/>
    <path d="M155.1 75.4H144.7V95.3H155.1V75.4Z" fill="#000000"/>
    <path d="M165.5 65.1H155.1V75.5H165.5V65.1Z" fill="#000000"/>
    <path d="M165.5 95.3H155.1V105.6H144.7V116H165.5V95.3Z" fill="#000000"/>
    <path d="M155.1 147V157.1H165.5V167.2H186.1V156.8H165.5V146.8H155.1V126.3H144.7V147H155.1Z" fill="#000000"/>
    <path d="M175.9 116H165.5V136.7H175.9V116Z" fill="#000000"/>
    <path d="M196.5 146.8H225.4V126.1H215.1V116H196.2V126.4H186.1V136.8H196.5V146.8ZM196.5 126.3H215.2V136.4H196.6L196.5 126.3Z" fill="#000000"/>
    <path d="M225.5 156.8H215.1V177.5H225.5V156.8Z" fill="#000000"/>
    <path d="M186.1 136.7H175.7V147.1H186.1V136.7Z" fill="#000000"/>
    <path d="M196.5 167.2H186.1V177.6H196.5V167.2Z" fill="#000000"/>
    <path d="M206.9 156.8H196.5V167.2H206.9V156.8Z" fill="#000000"/>
    <path d="M206.8 197.4V187.8H215.1V177.5H196.5V197.4H206.8Z" fill="#000000"/>
    <path d="M155.1 157.1H144.7V176.8H155.1V157.1Z" fill="#000000"/>
    <path d="M165.5 197.4V187.1H175.5V197.4H185.9V187.1H175.7V176.7H155.1V197.4H165.5Z" fill="#000000"/>
    <path d="M144.7 116H124V126.4H144.7V116Z" fill="#000000"/>
    <path d="M86.8 363.6C83.5 363.6 81 362.7 79.2 361C77.4 359.3 76.5 356.7 76.5 353.4H83.1C83.1 355 83.4 356.2 84.1 357C84.7 357.8 85.6 358.2 86.8 358.2C87.8 358.2 88.5 357.9 89.1 357.3C89.7 356.7 89.9 356 89.9 355C89.9 354.1 89.6 353.3 89.1 352.7C88.6 352.1 87.8 351.5 86.7 350.9L82.9 349.1C80.8 348.1 79.3 346.9 78.3 345.5C77.3 344.1 76.8 342.4 76.8 340.3C76.8 337.8 77.7 335.7 79.4 334.2C81.1 332.7 83.4 331.9 86.3 331.9C89.4 331.9 91.8 332.7 93.4 334.3C95 335.9 95.8 338.2 95.8 341.3H89.3C89.3 338.5 88.2 337.1 86.1 337.1C85.2 337.1 84.5 337.4 84 337.9C83.5 338.4 83.2 339.1 83.2 340C83.2 340.9 83.5 341.6 84 342.2C84.5 342.8 85.4 343.4 86.7 344L90.7 346C92.7 347.1 94.1 348.2 95 349.6C95.9 350.9 96.3 352.6 96.3 354.5C96.3 357.2 95.4 359.4 93.7 361.1C92.1 362.8 89.8 363.6 86.8 363.6Z" fill="#000000"/>
    <path d="M107.8 363.4C104.8 363.4 102.4 362.4 100.7 360.5C99 358.6 98.1 355.9 98.1 352.5C98.1 349.2 99 346.6 100.7 344.6C102.5 342.6 104.8 341.6 107.7 341.6C110.6 341.6 112.9 342.3 114.5 343.8C116.1 345.2 116.9 347.3 116.9 350H110.8C110.7 347.9 109.7 346.9 107.8 346.9C106.7 346.9 105.8 347.4 105.2 348.4C104.6 349.4 104.3 350.8 104.3 352.5C104.3 356.2 105.5 358.1 107.9 358.1C109.7 358.1 110.7 357.1 110.9 355.2H117C116.9 357.9 116 359.9 114.4 361.3C112.8 362.6 110.6 363.4 107.8 363.4Z" fill="#000000"/>
    <path d="M127.1 363.4C124.6 363.4 122.6 362.4 121.2 360.4C119.7 358.4 119 355.8 119 352.5C119 349.2 119.7 346.6 121.2 344.7C122.7 342.7 124.7 341.7 127.1 341.7C129.9 341.7 131.8 342.9 132.8 345.3V342.3H139.1V362.8H132.8V359.8C131.7 362.1 129.8 363.4 127.1 363.4ZM129.1 358.1C130.3 358.1 131.3 357.6 132 356.7C132.7 355.7 133 354.4 133 352.6C133 350.8 132.7 349.5 132 348.5C131.3 347.5 130.4 347.1 129.1 347.1C127.8 347.1 126.9 347.6 126.2 348.5C125.5 349.4 125.2 350.8 125.2 352.6C125.2 354.4 125.5 355.8 126.2 356.7C126.9 357.6 127.8 358.1 129.1 358.1Z" fill="#000000"/>
    <path d="M143.2 362.8V342.3H149.4V345.2C150.5 342.9 152.5 341.7 155.2 341.7C157.2 341.7 158.8 342.3 159.9 343.6C161 344.9 161.5 346.8 161.5 349.3V362.7H155.2V351C155.2 349.6 155 348.5 154.6 347.9C154.2 347.2 153.5 346.9 152.5 346.9C150.4 346.9 149.4 348.5 149.4 351.6V362.7H143.2V362.8Z" fill="#000000"/>
    <path d="M173.9 362.8V332.8H181.3L187 354.2L192.7 332.8H200.1V362.8H194.1V344.5L189.2 362.8H184.8L179.9 344.5V362.8H173.9Z" fill="#000000"/>
    <path d="M222.1 351.3C222.1 352.4 222 353.3 221.9 354.3H209.3C209.4 355.7 209.7 356.8 210.3 357.6C210.9 358.4 211.8 358.8 213 358.8C214.7 358.8 215.7 358.1 216.1 356.7H221.7C221.4 358.9 220.5 360.5 219 361.7C217.5 362.9 215.5 363.5 213 363.5C209.8 363.5 207.4 362.6 205.6 360.7C203.9 358.8 203 356.2 203 352.7C203 349.2 203.9 346.6 205.6 344.6C207.3 342.7 209.7 341.7 212.8 341.7C215.7 341.7 218 342.6 219.6 344.3C221.3 345.9 222.1 348.4 222.1 351.3ZM209.3 350.3H216.1C216.1 347.4 215 345.9 212.8 345.9C210.6 345.9 209.4 347.3 209.3 350.3Z" fill="#000000"/>
    <path d="M240.6 361.9C239.8 362.7 238.7 363.2 237.5 363.2C236.3 363.2 235.3 362.8 234.4 361.9C233.6 361.1 233.1 360.1 233.1 358.9C233.1 357.7 233.5 356.7 234.4 355.9C235.2 355.1 236.3 354.6 237.5 354.6C238.7 354.6 239.7 355 240.6 355.9C241.4 356.7 241.9 357.7 241.9 358.9C241.9 360.1 241.5 361.1 240.6 361.9ZM234.4 352.4V332.8H240.8V352.4H234.4Z" fill="#000000"/>
</svg>
