<svg width="320" height="418" viewBox="10 40 300 348" fill="none" xmlns="http://www.w3.org/2000/svg">
<path d="M267.4 287.9C246.8 287.9 230.1 304.6 230.1 325.2C230.1 345.8 246.8 362.5 267.4 362.5C288 362.5 304.7 345.8 304.7 325.2C304.7 304.6 288 287.9 267.4 287.9ZM267.4 349.1C254.2 349.1 243.6 338.4 243.6 325.3C243.6 312.2 254.3 301.5 267.4 301.5C280.5 301.5 291.2 312.2 291.2 325.3C291.2 338.4 280.5 349.1 267.4 349.1Z" fill="#585858"/>
<path d="M267.4 337.1C273.972 337.1 279.3 331.772 279.3 325.2C279.3 318.628 273.972 313.3 267.4 313.3C260.828 313.3 255.5 318.628 255.5 325.2C255.5 331.772 260.828 337.1 267.4 337.1Z" fill="#585858"/>
<path d="M110 287.9C89.4 287.9 72.7 304.6 72.7 325.2C72.7 345.8 89.4 362.5 110 362.5C130.6 362.5 147.3 345.8 147.3 325.2C147.3 304.6 130.6 287.9 110 287.9ZM110 349.1C96.8 349.1 86.2 338.4 86.2 325.3C86.2 312.2 96.9 301.5 110 301.5C123.1 301.5 133.8 312.2 133.8 325.3C133.8 338.4 123.2 349.1 110 349.1Z" fill="#585858"/>
<path d="M110 337.1C116.572 337.1 121.9 331.772 121.9 325.2C121.9 318.628 116.572 313.3 110 313.3C103.428 313.3 98.1 318.628 98.1 325.2C98.1 331.772 103.428 337.1 110 337.1Z" fill="#585858"/>
<path d="M315.1 314.8C315.1 288.4 293.7 267.1 267.4 267.1C241.1 267.1 219.7 288.5 219.7 314.8H315.1Z" fill="#000000"/>
<path d="M275.3 267.5L243.2 199.7L247.1 198.8L240.8 170.9C239.9 166.9 235.9 164.3 231.8 165.2L199.3 172.5L205.2 198.5C206.3 203.6 211.4 206.7 216.5 205.6L227.4 271.9C228.3 277.1 226.6 282.4 222.8 286.2L208.9 300.1C205.8 303.2 201.6 304.9 197.3 304.9H174.5V263.3H184.2C186.3 263.3 188 261.6 188 259.5V244.8C188 242.7 186.3 241 184.2 241H89.6C87.5 241 85.8 242.7 85.8 244.8V253.4C62 263 45.3 286.3 45.3 313.5C45.3 315.1 45.4 316.8 45.5 318.4C45.8 322.2 48.9 325.2 52.8 325.2H206.3C210.4 325.2 214.4 323.6 217.4 320.9L275.1 267.7V267.6L275.3 267.5Z" fill="#585858"/>
<path d="M182.7 176.3L211 170C213.6 169.4 216.2 171.1 216.8 173.6L217.1 175C217.7 177.6 216 180.2 213.5 180.8L185.2 187.2C182.6 187.8 180 186.1 179.4 183.6L179.1 182.2C178.5 179.5 180.2 176.9 182.7 176.3Z" fill="#000000"/>
<path d="M264.8 176.1C264.8 174.3 263.3 172.8 261.5 172.8C258.9 172.8 255.6 172.9 255 172.9C245.8 172.9 238.3 180.4 238.3 189.6C238.3 198.8 245.8 206.3 255 206.3C255.7 206.3 258.9 206.4 261.5 206.4C263.3 206.4 264.8 204.9 264.8 203.1V176.1Z" fill="#000000"/>
<path d="M159.5 325.2C159.5 297.8 137.4 275.7 110 275.7C82.6 275.7 60.5 297.8 60.5 325.2H159.5Z" fill="#000000"/>
<path d="M158.3 62.4C161.4 62.4 163.9 64.9 163.9 68V214.6H11.8V68C11.8 64.9 14.3 62.4 17.4 62.4H158.3ZM158.3 55.6H17.3C10.4 55.6 4.9 61.2 4.9 68V221.4H170.7V68C170.7 61.1 165.2 55.6 158.3 55.6Z" fill="#000000"/>
<path d="M158.3 256.5H17.3C10.4 256.5 4.9 250.9 4.9 244.1V215.1H170.7V244.1C170.7 250.9 165.2 256.5 158.3 256.5Z" fill="#000000"/>
<path d="M30.5 74.6H145.1C149 74.6 152.2 77.8 152.2 81.7V196.3C152.2 200.2 149 203.4 145.1 203.4H30.5C26.6 203.4 23.4 200.2 23.4 196.3V81.7C23.4 77.8 26.6 74.6 30.5 74.6Z" fill="#E5E7EF"/>
<path d="M72.6 93.6H42.4V123.8H72.6V93.6ZM65.4 116.6H49.4V100.6H65.4V116.6Z" fill="#000000"/>
<path d="M61 105.1H53.9V112.2H61V105.1Z" fill="#000000"/>
<path d="M133.3 93.6H103.1V123.8H133.3V93.6ZM126.2 116.6H110.2V100.6H126.2V116.6Z" fill="#000000"/>
<path d="M121.7 105.1H114.6V112.2H121.7V105.1Z" fill="#000000"/>
<path d="M72.6 154.3H42.4V184.5H72.6V154.3ZM65.4 177.4H49.4V161.4H65.4V177.4Z" fill="#000000"/>
<path d="M61 165.8H53.9V172.9H61V165.8Z" fill="#000000"/>
<path d="M56.6 128.5H49.5V135.6H56.6V128.5Z" fill="#000000"/>
<path d="M63.5 142.7V149.8H70.6V142.7H63.7V135.6H56.6V142.7H63.5Z" fill="#000000"/>
<path d="M99.2 107.2H92.1V114.3H99.2V107.2Z" fill="#000000"/>
<path d="M85 100.6H77.9V114.3H85V100.6Z" fill="#000000"/>
<path d="M92.1 93.6H85V100.7H92.1V93.6Z" fill="#000000"/>
<path d="M92.1 114.3H85V121.4H77.9V128.5H92.1V114.3Z" fill="#000000"/>
<path d="M85 149.8V156.8H92.1V163.7H106.3V156.6H92.1V149.7H85V135.6H77.9V149.8H85Z" fill="#000000"/>
<path d="M99.2 128.5H92.1V142.7H99.2V128.5Z" fill="#000000"/>
<path d="M113.4 149.7H133.3V135.5H126.2V128.6H113.2V135.7H106.3V142.8H113.4V149.7ZM113.4 135.6H126.2V142.5H113.4V135.6Z" fill="#000000"/>
<path d="M133.3 156.6H126.2V170.8H133.3V156.6Z" fill="#000000"/>
<path d="M106.3 142.7H99.2V149.8H106.3V142.7Z" fill="#000000"/>
<path d="M113.4 163.7H106.3V170.8H113.4V163.7Z" fill="#000000"/>
<path d="M120.5 156.6H113.4V163.7H120.5V156.6Z" fill="#000000"/>
<path d="M120.5 184.5V177.8H126.2V170.8H113.4V184.5H120.5Z" fill="#000000"/>
<path d="M85 156.8H77.9V170.3H85V156.8Z" fill="#000000"/>
<path d="M92.1 184.5V177.4H99V184.5H106.1V177.4H99.2V170.2H85V184.5H92.1Z" fill="#000000"/>
<path d="M77.9 128.5H63.7V135.6H77.9V128.5Z" fill="#000000"/>
<path d="M28.8 247.7C26.1 247.7 24 247 22.6 245.6C21.1 244.2 20.4 242.1 20.4 239.4H25.8C25.8 240.7 26 241.7 26.6 242.3C27.1 243 27.8 243.3 28.8 243.3C29.6 243.3 30.2 243.1 30.7 242.6C31.2 242.1 31.4 241.5 31.4 240.7C31.4 240 31.2 239.3 30.7 238.8C30.3 238.3 29.6 237.8 28.7 237.3L25.6 235.8C23.9 235 22.7 234 21.8 232.9C21 231.8 20.6 230.4 20.6 228.6C20.6 226.6 21.3 224.8 22.7 223.6C24.1 222.4 26 221.7 28.4 221.7C30.9 221.7 32.9 222.4 34.2 223.7C35.5 225 36.2 226.9 36.2 229.4H30.9C30.9 227.1 30 226 28.3 226C27.6 226 27 226.2 26.6 226.7C26.2 227.1 25.9 227.7 25.9 228.4C25.9 229.1 26.1 229.7 26.6 230.2C27 230.7 27.7 231.2 28.8 231.7L32.1 233.3C33.7 234.2 34.9 235.1 35.6 236.2C36.3 237.3 36.7 238.7 36.7 240.2C36.7 242.4 36 244.2 34.6 245.6C33.2 247.1 31.3 247.7 28.8 247.7Z" fill="white"/>
<path d="M46 247.6C43.5 247.6 41.6 246.8 40.2 245.2C38.8 243.6 38.1 241.4 38.1 238.6C38.1 235.9 38.8 233.8 40.2 232.1C41.7 230.5 43.6 229.6 45.9 229.6C48.3 229.6 50.2 230.2 51.5 231.4C52.8 232.5 53.5 234.3 53.5 236.5H48.5C48.4 234.8 47.6 234 46 234C45.1 234 44.4 234.4 43.9 235.2C43.4 236 43.2 237.2 43.2 238.6C43.2 241.6 44.2 243.2 46.1 243.2C47.6 243.2 48.4 242.4 48.6 240.8H53.6C53.5 243 52.8 244.7 51.5 245.8C50.1 246.9 48.3 247.6 46 247.6Z" fill="white"/>
<path d="M61.9 247.6C59.9 247.6 58.2 246.8 57.1 245.1C55.9 243.5 55.3 241.3 55.3 238.6C55.3 235.9 55.9 233.8 57.1 232.2C58.3 230.6 60 229.7 61.9 229.7C64.2 229.7 65.8 230.7 66.6 232.6V230.1H71.8V246.9H66.6V244.4C65.6 246.5 64.1 247.6 61.9 247.6ZM63.5 243.2C64.5 243.2 65.3 242.8 65.9 242.1C66.5 241.3 66.7 240.2 66.7 238.7C66.7 237.2 66.5 236.2 65.9 235.3C65.3 234.4 64.6 234.2 63.5 234.2C62.4 234.2 61.7 234.6 61.1 235.3C60.5 236 60.3 237.2 60.3 238.7C60.3 240.2 60.5 241.3 61.1 242.1C61.7 242.9 62.4 243.2 63.5 243.2Z" fill="white"/>
<path d="M75.1 247.1V230.3H80.2V232.7C81.1 230.8 82.7 229.8 85 229.8C86.6 229.8 87.9 230.3 88.9 231.4C89.8 232.5 90.2 234 90.2 236.1V247.1H85V237.5C85 236.4 84.8 235.5 84.5 235C84.2 234.4 83.6 234.2 82.8 234.2C81.1 234.2 80.3 235.5 80.3 238.1V247.2L75.1 247.1Z" fill="white"/>
<path d="M100.2 247.1V222.5H106.3L111 240L115.7 222.5H121.8V247.1H116.9V232.1L112.9 247.1H109.3L105.3 232.1V247.1H100.2Z" fill="white"/>
<path d="M139.7 237.6C139.7 238.5 139.6 239.2 139.5 240.1H129.2C129.3 241.2 129.5 242.1 130 242.8C130.5 243.5 131.2 243.8 132.2 243.8C133.6 243.8 134.4 243.2 134.7 242.1H139.3C139.1 243.9 138.3 245.2 137.1 246.2C135.9 247.2 134.2 247.7 132.2 247.7C129.6 247.7 127.6 247 126.1 245.4C124.7 243.8 124 241.7 124 238.8C124 235.9 124.7 233.8 126.1 232.2C127.5 230.6 129.5 229.8 132 229.8C134.4 229.8 136.3 230.5 137.6 231.9C139 233.2 139.7 235.3 139.7 237.6ZM129.2 236.8H134.8C134.8 234.4 133.9 233.2 132.1 233.2C130.3 233.2 129.3 234.4 129.2 236.8Z" fill="white"/>
<path d="M154.9 246.3C154.2 247 153.3 247.4 152.4 247.4C151.4 247.4 150.6 247.1 149.9 246.3C149.2 245.6 148.8 244.8 148.8 243.8C148.8 242.8 149.1 242 149.9 241.3C150.6 240.6 151.5 240.2 152.4 240.2C153.4 240.2 154.2 240.5 154.9 241.3C155.6 242 156 242.8 156 243.8C156 244.8 155.6 245.7 154.9 246.3ZM149.8 238.5V222.4H155V238.5H149.8Z" fill="white"/>
</svg>
