<svg width="320" height="418" viewBox="-15 40 350 338" fill="none" xmlns="http://www.w3.org/2000/svg">
  <g id="qr-frame-secondary-color" fill="currentColor">
    <path
      d="M267.4 287.9C246.8 287.9 230.1 304.6 230.1 325.2C230.1 345.8 246.8 362.5 267.4 362.5C288 362.5 304.7 345.8 304.7 325.2C304.7 304.6 288 287.9 267.4 287.9ZM267.4 349.1C254.2 349.1 243.6 338.4 243.6 325.3C243.6 312.2 254.3 301.5 267.4 301.5C280.5 301.5 291.2 312.2 291.2 325.3C291.2 338.4 280.5 349.1 267.4 349.1Z"
    />
    <path
      d="M267.4 337.1C273.972 337.1 279.3 331.772 279.3 325.2C279.3 318.628 273.972 313.3 267.4 313.3C260.828 313.3 255.5 318.628 255.5 325.2C255.5 331.772 260.828 337.1 267.4 337.1Z"
    />
    <path
      d="M110 287.9C89.4 287.9 72.7 304.6 72.7 325.2C72.7 345.8 89.4 362.5 110 362.5C130.6 362.5 147.3 345.8 147.3 325.2C147.3 304.6 130.6 287.9 110 287.9ZM110 349.1C96.8 349.1 86.2 338.4 86.2 325.3C86.2 312.2 96.9 301.5 110 301.5C123.1 301.5 133.8 312.2 133.8 325.3C133.8 338.4 123.2 349.1 110 349.1Z"
    />
    <path
      d="M110 337.1C116.572 337.1 121.9 331.772 121.9 325.2C121.9 318.628 116.572 313.3 110 313.3C103.428 313.3 98.1 318.628 98.1 325.2C98.1 331.772 103.428 337.1 110 337.1Z"
    />
    <path
      d="M275.3 267.5L243.2 199.7L247.1 198.8L240.8 170.9C239.9 166.9 235.9 164.3 231.8 165.2L199.3 172.5L205.2 198.5C206.3 203.6 211.4 206.7 216.5 205.6L227.4 271.9C228.3 277.1 226.6 282.4 222.8 286.2L208.9 300.1C205.8 303.2 201.6 304.9 197.3 304.9H174.5V263.3H184.2C186.3 263.3 188 261.6 188 259.5V244.8C188 242.7 186.3 241 184.2 241H89.6C87.5 241 85.8 242.7 85.8 244.8V253.4C62 263 45.3 286.3 45.3 313.5C45.3 315.1 45.4 316.8 45.5 318.4C45.8 322.2 48.9 325.2 52.8 325.2H206.3C210.4 325.2 214.4 323.6 217.4 320.9L275.1 267.7V267.6L275.3 267.5Z"
    />
  </g>
  <path d="M315.1 314.8C315.1 288.4 293.7 267.1 267.4 267.1C241.1 267.1 219.7 288.5 219.7 314.8H315.1Z" fill="currentColor"/>
  <path d="M182.7 176.3L211 170C213.6 169.4 216.2 171.1 216.8 173.6L217.1 175C217.7 177.6 216 180.2 213.5 180.8L185.2 187.2C182.6 187.8 180 186.1 179.4 183.6L179.1 182.2C178.5 179.5 180.2 176.9 182.7 176.3Z" fill="currentColor"/>
  <path d="M264.8 176.1C264.8 174.3 263.3 172.8 261.5 172.8C258.9 172.8 255.6 172.9 255 172.9C245.8 172.9 238.3 180.4 238.3 189.6C238.3 198.8 245.8 206.3 255 206.3C255.7 206.3 258.9 206.4 261.5 206.4C263.3 206.4 264.8 204.9 264.8 203.1V176.1Z" fill="currentColor"/>
  <path d="M159.5 325.2C159.5 297.8 137.4 275.7 110 275.7C82.6 275.7 60.5 297.8 60.5 325.2H159.5Z" fill="currentColor"/>
  <path d="M158.3 62.4C161.4 62.4 163.9 64.9 163.9 68V214.6H11.8V68C11.8 64.9 14.3 62.4 17.4 62.4H158.3ZM158.3 55.6H17.3C10.4 55.6 4.9 61.2 4.9 68V221.4H170.7V68C170.7 61.1 165.2 55.6 158.3 55.6Z" fill="currentColor"/>
  <path d="M158.3 256.5H17.3C10.4 256.5 4.9 250.9 4.9 244.1V215.1H170.7V244.1C170.7 250.9 165.2 256.5 158.3 256.5Z" fill="currentColor"/>

  <text id="qr-frame-text" x="87" y="245" font-size="30px" font-weight="600" font-family="Inter, sans-serif" fill="white" text-anchor="middle">Scan Me !</text>
</svg>
