<svg width="320" height="418" viewBox="0 0 320 418" fill="none" xmlns="http://www.w3.org/2000/svg">
    <g clip-path="url(#clip0_1247_911)">
        <path d="M263.6 59.4C265.4 59.4 266.9 60.9 266.9 62.7V266H60.3V62.6C60.3 60.8 61.8 59.3 63.6 59.3L263.6 59.4ZM263.6 49.5H63.6C56.4 49.5 50.5 55.4 50.5 62.6V275.8H276.8V62.6C276.7 55.4 270.8 49.5 263.6 49.5Z" fill="currentColor"/>
        <g id="qr-frame-secondary-color" fill="currentColor">
            <path d="M19.2999 265.9H307.8C310.3 265.9 312.2 267.9 312.2 270.3C312.2 272.8 310.2 274.7 307.8 274.7H19.2999C16.7999 274.7 14.8999 272.7 14.8999 270.3C14.8999 267.8 16.8999 265.9 19.2999 265.9Z"/>
            <path d="M-0.100098 415.5H5.4999L63.6999 378.8L41.0999 316.3L-0.100098 328V415.5Z"/>
        </g>
        <path d="M264.8 304.8H62.4001C45.8001 304.8 32.3 291.3 32.3 274.7H294.9C294.9 291.3 281.4 304.8 264.8 304.8Z" fill="currentColor" />
        <path d="M251.6 307.8C247 302.5 240.1 301.4 233.7 304.8C230.4 301.6 224.4 301.5 219.3 303.4C217.4 304.1 194.7 313.1 187.4 316C184.7 311.4 179 309.6 176.6 308.9C172.9 307.8 122 298.7 102.8 302.9C96.3 304.3 45.9 323.2 43.8 324C42.3 324.6 41.5 326.3 42.1 327.8C42.7 329.3 44.4 330.1 45.9 329.5C60.4 324.1 99 309.8 104.1 308.7C121 305 170.2 313.1 175 314.5C180.9 316.3 183.2 318.4 183.1 322C182.9 326.1 180.8 327.9 174.7 329.1C170.5 329.9 135.2 332.6 122 333.7C120.4 333.8 119.2 335.2 119.3 336.9C119.4 338.4 120.7 339.6 122.2 339.6C122.3 339.6 122.4 339.6 122.4 339.6C123.3 339.5 132.6 338.8 143.4 338C146.2 339.5 156.9 345.2 161.5 347.5C168.7 351.1 173.4 348.4 179.3 345.1C180 344.7 180.8 344.3 181.6 343.9C185.2 341.9 229.8 314.7 235.2 311C236.9 309.9 242.8 306.5 247.4 311.8C248.5 313.1 249 314.7 248.9 316.5C248.7 318.6 247.6 320.5 245.8 321.9C243.6 323.7 189.8 366 183.1 370.6C171.6 378.4 157.8 380.6 141.8 377.1C138.3 376.3 96.7 364.6 75.2 358.5C74.6 358.3 74 358.4 73.4 358.6L58.5 364C57 364.6 56.2 366.3 56.8 367.8C57.4 369.3 59.1 370.1 60.6 369.5L74.4 364.3C82.5 366.6 136.1 381.8 140.4 382.7C145.8 383.9 151 384.5 156 384.5C167.2 384.5 177.4 381.5 186.3 375.4C193.3 370.7 247.3 328.2 249.4 326.5C252.5 324 254.3 320.7 254.7 317C254.8 313.5 253.8 310.3 251.6 307.8ZM178.5 338.6C177.7 339 176.9 339.5 176.2 339.9C170.1 343.3 168 344.3 163.9 342.2C161.6 341.1 157.7 339 154 337.1C164.2 336.2 173.3 335.4 175.5 335C179 334.3 188.2 332.6 188.7 322.4C188.7 322.2 188.7 322 188.7 321.8C200.1 317.3 219.5 309.6 221.1 309C223.6 308.1 226.2 307.9 228 308.4C216.1 315.9 181.7 336.9 178.5 338.6Z" fill="currentColor" />
        <text id="qr-frame-text" x="160" y="40" font-size="40px" font-weight="600" font-family="Inter, sans-serif" fill="currentColor" text-anchor="middle">Scan Me!</text>
    </g>
</svg>
