<svg width="320" height="418" viewBox="0 0 320 418" fill="none" xmlns="http://www.w3.org/2000/svg">
    <g clip-path="url(#clip0_1247_277)">
        <path d="M263.6 59.4C265.4 59.4 266.9 60.9 266.9 62.7V266H60.3V62.6C60.3 60.8 61.8 59.3 63.6 59.3L263.6 59.4ZM263.6 49.5H63.6C56.4 49.5 50.5 55.4 50.5 62.6V275.8H276.8V62.6C276.7 55.4 270.8 49.5 263.6 49.5Z" fill="#97949C"/>
        <path d="M19.3 265.9H307.8C310.3 265.9 312.2 267.9 312.2 270.3C312.2 272.8 310.2 274.7 307.8 274.7H19.3C16.8 274.7 14.9 272.7 14.9 270.3C14.9 267.8 16.9 265.9 19.3 265.9Z" fill="#585858"/>
        <path d="M264.8 304.8H62.4C45.8 304.8 32.3 291.3 32.3 274.7H294.9C294.9 291.3 281.4 304.8 264.8 304.8Z" fill="#97949C"/>
        <path d="M251.6 307.8C247 302.5 240.1 301.4 233.7 304.8C230.4 301.6 224.4 301.5 219.3 303.4C217.4 304.1 194.7 313.1 187.4 316C184.7 311.4 179 309.6 176.6 308.9C172.9 307.8 122 298.7 102.8 302.9C96.3 304.3 45.9 323.2 43.8 324C42.3 324.6 41.5 326.3 42.1 327.8C42.7 329.3 44.4 330.1 45.9 329.5C60.4 324.1 99 309.8 104.1 308.7C121 305 170.2 313.1 175 314.5C180.9 316.3 183.2 318.4 183.1 322C182.9 326.1 180.8 327.9 174.7 329.1C170.5 329.9 135.2 332.6 122 333.7C120.4 333.8 119.2 335.2 119.3 336.9C119.4 338.4 120.7 339.6 122.2 339.6C122.3 339.6 122.4 339.6 122.4 339.6C123.3 339.5 132.6 338.8 143.4 338C146.2 339.5 156.9 345.2 161.5 347.5C168.7 351.1 173.4 348.4 179.3 345.1C180 344.7 180.8 344.3 181.6 343.9C185.2 341.9 229.8 314.7 235.2 311C236.9 309.9 242.8 306.5 247.4 311.8C248.5 313.1 249 314.7 248.9 316.5C248.7 318.6 247.6 320.5 245.8 321.9C243.6 323.7 189.8 366 183.1 370.6C171.6 378.4 157.8 380.6 141.8 377.1C138.3 376.3 96.7 364.6 75.2 358.5C74.6 358.3 74 358.4 73.4 358.6L58.5 364C57 364.6 56.2 366.3 56.8 367.8C57.4 369.3 59.1 370.1 60.6 369.5L74.4 364.3C82.5 366.6 136.1 381.8 140.4 382.7C145.8 383.9 151 384.5 156 384.5C167.2 384.5 177.4 381.5 186.3 375.4C193.3 370.7 247.3 328.2 249.4 326.5C252.5 324 254.3 320.7 254.7 317C254.8 313.5 253.8 310.3 251.6 307.8ZM178.5 338.6C177.7 339 176.9 339.5 176.2 339.9C170.1 343.3 168 344.3 163.9 342.2C161.6 341.1 157.7 339 154 337.1C164.2 336.2 173.3 335.4 175.5 335C179 334.3 188.2 332.6 188.7 322.4C188.7 322.2 188.7 322 188.7 321.8C200.1 317.3 219.5 309.6 221.1 309C223.6 308.1 226.2 307.9 228 308.4C216.1 315.9 181.7 336.9 178.5 338.6Z" fill="#97949C"/>
        <path d="M-0.100006 415.5H5.49999L63.7 378.8L41.1 316.3L-0.100006 328V415.5Z" fill="#585858"/>
        <path d="M83.9 75.2H240.6C245.9 75.2 250.3 79.5 250.3 84.9V241.6C250.3 246.9 246 251.3 240.6 251.3H83.9C78.6 251.3 74.2 247 74.2 241.6V84.9C74.2 79.6 78.6 75.2 83.9 75.2Z" fill="#E5E7EF"/>
        <path d="M141.4 101.1H100.1V142.4H141.4V101.1ZM131.6 132.7H109.8V110.8H131.6V132.7Z" fill="#97949C"/>
        <path d="M125.6 116.9H115.9V126.6H125.6V116.9Z" fill="#97949C"/>
        <path d="M224.4 101.1H183.1V142.4H224.4V101.1ZM214.7 132.7H192.8V110.8H214.7V132.7Z" fill="#97949C"/>
        <path d="M208.6 116.9H198.9V126.6H208.6V116.9Z" fill="#97949C"/>
        <path d="M141.4 184.1H100.1V225.4H141.4V184.1ZM131.6 215.7H109.8V193.9H131.6V215.7Z" fill="#97949C"/>
        <path d="M125.6 199.9H115.9V209.6H125.6V199.9Z" fill="#97949C"/>
        <path d="M119.5 148.9H109.8V158.6H119.5V148.9Z" fill="#97949C"/>
        <path d="M129 168.4V178H138.7V168.4H129.2V158.6H119.5V168.4H129Z" fill="#97949C"/>
        <path d="M177.8 119.8H168.1V129.5H177.8V119.8Z" fill="#97949C"/>
        <path d="M158.3 110.8H148.6V129.5H158.3V110.8Z" fill="#97949C"/>
        <path d="M168.1 101.1H158.4V110.8H168.1V101.1Z" fill="#97949C"/>
        <path d="M168.1 129.5H158.4V139.2H148.6V148.9H168.1V129.5Z" fill="#97949C"/>
        <path d="M158.4 178V187.5H168.1V197H187.5V187.3H168.1V177.8H158.4V158.6H148.6V178H158.4Z" fill="#97949C"/>
        <path d="M177.8 148.9H168.1V168.3H177.8V148.9Z" fill="#97949C"/>
        <path d="M197.2 177.8H224.4V158.4H214.7V148.9H197V158.6H187.5V168.3H197.2V177.8ZM197.2 158.6H214.7V168.1H197.3L197.2 158.6Z" fill="#97949C"/>
        <path d="M224.4 187.3H214.7V206.7H224.4V187.3Z" fill="#97949C"/>
        <path d="M187.4 168.4H177.7V178.1H187.4V168.4Z" fill="#97949C"/>
        <path d="M197.2 197H187.5V206.7H197.2V197Z" fill="#97949C"/>
        <path d="M206.9 187.3H197.2V197H206.9V187.3Z" fill="#97949C"/>
        <path d="M206.9 225.4V216.3H214.7V206.7H197.2V225.4H206.9Z" fill="#97949C"/>
        <path d="M158.3 187.5H148.6V206H158.3V187.5Z" fill="#97949C"/>
        <path d="M168.1 225.4V215.7H177.5V225.4H187.3V215.7H177.7V206H158.4V225.4H168.1Z" fill="#97949C"/>
        <path d="M148.6 148.9H129.2V158.6H148.6V148.9Z" fill="#97949C"/>
        <path d="M86.8 41.1C83.5 41.1 81 40.2 79.2 38.5C77.4 36.8 76.5 34.2 76.5 30.9H83.1C83.1 32.5 83.4 33.7 84.1 34.5C84.7 35.3 85.6 35.7 86.8 35.7C87.8 35.7 88.5 35.4 89.1 34.8C89.7 34.2 89.9 33.5 89.9 32.5C89.9 31.6 89.6 30.8 89.1 30.2C88.6 29.6 87.8 29 86.7 28.4L82.9 26.6C80.8 25.6 79.3 24.4 78.3 23C77.3 21.6 76.8 19.9 76.8 17.8C76.8 15.3 77.7 13.2 79.4 11.7C81.1 10.2 83.4 9.4 86.3 9.4C89.4 9.4 91.8 10.2 93.4 11.8C95 13.4 95.8 15.7 95.8 18.8H89.3C89.3 16 88.2 14.6 86.1 14.6C85.2 14.6 84.5 14.9 84 15.4C83.5 15.9 83.2 16.6 83.2 17.5C83.2 18.4 83.5 19.1 84 19.7C84.5 20.3 85.4 20.9 86.7 21.5L90.7 23.5C92.7 24.6 94.1 25.7 95 27.1C95.9 28.4 96.3 30.1 96.3 32C96.3 34.7 95.4 36.9 93.7 38.6C92.1 40.3 89.8 41.1 86.8 41.1Z" fill="#97949C"/>
        <path d="M107.8 40.9C104.8 40.9 102.4 39.9 100.7 38C99 36.1 98.1 33.4 98.1 30C98.1 26.7 99 24.1 100.7 22.1C102.5 20.1 104.8 19.1 107.7 19.1C110.6 19.1 112.9 19.8 114.5 21.3C116.1 22.7 116.9 24.8 116.9 27.5H110.8C110.7 25.4 109.7 24.4 107.8 24.4C106.7 24.4 105.8 24.9 105.2 25.9C104.6 26.9 104.3 28.3 104.3 30C104.3 33.7 105.5 35.6 107.9 35.6C109.7 35.6 110.7 34.6 110.9 32.7H117C116.9 35.4 116 37.4 114.4 38.8C112.8 40.1 110.6 40.9 107.8 40.9Z" fill="#97949C"/>
        <path d="M127.1 40.9C124.6 40.9 122.6 39.9 121.2 37.9C119.7 35.9 119 33.3 119 30C119 26.7 119.7 24.1 121.2 22.2C122.7 20.2 124.7 19.2 127.1 19.2C129.9 19.2 131.8 20.4 132.8 22.8V19.8H139.1V40.3H132.8V37.3C131.7 39.6 129.8 40.9 127.1 40.9ZM129.1 35.6C130.3 35.6 131.3 35.1 132 34.2C132.7 33.2 133 31.9 133 30.1C133 28.3 132.7 27 132 26C131.3 25 130.4 24.6 129.1 24.6C127.8 24.6 126.9 25.1 126.2 26C125.5 26.9 125.2 28.3 125.2 30.1C125.2 31.9 125.5 33.3 126.2 34.2C126.9 35.1 127.8 35.6 129.1 35.6Z" fill="#97949C"/>
        <path d="M143.2 40.3V19.8H149.4V22.7C150.5 20.4 152.5 19.2 155.2 19.2C157.2 19.2 158.8 19.8 159.9 21.1C161 22.4 161.5 24.3 161.5 26.8V40.2H155.2V28.5C155.2 27.1 155 26 154.6 25.4C154.2 24.7 153.5 24.4 152.5 24.4C150.4 24.4 149.4 26 149.4 29.1V40.2H143.2V40.3Z" fill="#97949C"/>
        <path d="M173.9 40.3V10.3H181.3L187 31.7L192.7 10.3H200.1V40.3H194.1V22L189.2 40.3H184.8L179.9 22V40.3H173.9Z" fill="#97949C"/>
        <path d="M222.1 28.8C222.1 29.9 222 30.8 221.9 31.8H209.3C209.4 33.2 209.7 34.3 210.3 35.1C210.9 35.9 211.8 36.3 213 36.3C214.7 36.3 215.7 35.6 216.1 34.2H221.7C221.4 36.4 220.5 38 219 39.2C217.5 40.4 215.5 41 213 41C209.8 41 207.4 40.1 205.6 38.2C203.9 36.3 203 33.7 203 30.2C203 26.7 203.9 24.1 205.6 22.1C207.3 20.2 209.7 19.2 212.8 19.2C215.7 19.2 218 20.1 219.6 21.8C221.3 23.4 222.1 25.9 222.1 28.8ZM209.3 27.8H216.1C216.1 24.9 215 23.4 212.8 23.4C210.6 23.4 209.4 24.8 209.3 27.8Z" fill="#97949C"/>
        <path d="M240.6 39.4C239.8 40.2 238.7 40.7 237.5 40.7C236.3 40.7 235.3 40.3 234.4 39.4C233.6 38.6 233.1 37.6 233.1 36.4C233.1 35.2 233.5 34.2 234.4 33.4C235.2 32.6 236.3 32.1 237.5 32.1C238.7 32.1 239.7 32.5 240.6 33.4C241.4 34.2 241.9 35.2 241.9 36.4C241.9 37.6 241.5 38.6 240.6 39.4ZM234.4 29.9V10.3H240.8V29.9H234.4Z" fill="#97949C"/>
    </g>
    <defs>
        <clipPath id="clip0_1247_277">
            <rect width="320" height="418" fill="white"/>
        </clipPath>
    </defs>
</svg>
