<svg width="320" height="418" viewBox="20 70 280 288" fill="none" xmlns="http://www.w3.org/2000/svg">
    <path d="M256.3 83.3C258 83.3 259.5 84.7 259.5 86.5V282.3H60.5V86.4C60.5 84.7 61.9 83.2 63.7 83.2H256.3M256.3 73.8H63.7C56.7 73.8 51.1 79.4 51.1 86.4V291.7H269V86.4C268.9 79.4 263.3 73.8 256.3 73.8Z" fill="#97949C"/>
    <path d="M51.1 302H2.29999L20.9 271L2.29999 240H51.1V302Z" fill="#585858"/>
    <path d="M51.1 285V252.5C51.1 252.5 34.3 259.1 34.3 267.8C34.3 285 51.1 285 51.1 285Z" fill="white"/>
    <path d="M268.9 302H317.7L299.1 271L317.7 240H268.9V302Z" fill="#585858"/>
    <path d="M268.9 285V252.5C268.9 252.5 285.7 259.1 285.7 267.8C285.7 285 268.9 285 268.9 285Z" fill="white"/>
    <path d="M285.7 307.1V267.9C285.2 284.7 254.1 282.3 237 282.3H82.9C65.8 282.3 34.8 284.7 34.2 267.9V307.1C34.2 307.2 34.2 307.3 34.2 307.4V328.4C34.2 337.1 41.3 344.2 50 344.2H270C278.7 344.2 285.8 337.1 285.8 328.4V307.4C285.7 307.3 285.7 307.2 285.7 307.1Z" fill="#97949C"/>
    <path d="M80.7 94.5H237.8C243.2 94.5 247.5 98.8 247.5 104.2V261.3C247.5 266.7 243.2 271 237.8 271H80.7C75.3 271 71 266.7 71 261.3V104.1C71 98.8 75.4 94.5 80.7 94.5Z" fill="#E5E7EF"/>
    <path d="M138.3 120.4H96.9V161.8H138.3V120.4ZM128.6 152H106.7V130.1H128.6V152Z" fill="#97949C"/>
    <path d="M122.4 136.2H112.7V145.9H122.4V136.2Z" fill="#97949C"/>
    <path d="M221.5 120.4H180.1V161.8H221.5V120.4ZM211.8 152H189.9V130.1H211.8V152Z" fill="#97949C"/>
    <path d="M205.6 136.2H195.9V145.9H205.6V136.2Z" fill="#97949C"/>
    <path d="M138.3 203.6H96.9V245H138.3V203.6ZM128.6 235.2H106.7V213.3H128.6V235.2Z" fill="#97949C"/>
    <path d="M122.4 219.4H112.7V229.1H122.4V219.4Z" fill="#97949C"/>
    <path d="M116.4 168.3H106.7V178H116.4V168.3Z" fill="#97949C"/>
    <path d="M125.9 187.8V197.5H135.6V187.8H126.1V178.1H116.4V187.8H125.9Z" fill="#97949C"/>
    <path d="M174.8 139.1H165.1V148.8H174.8V139.1Z" fill="#97949C"/>
    <path d="M155.3 130.1H145.6V148.8H155.3V130.1Z" fill="#97949C"/>
    <path d="M165 120.4H155.3V130.1H165V120.4Z" fill="#97949C"/>
    <path d="M165.1 148.9H155.3V158.6H145.6V168.3H165.1V148.9Z" fill="#97949C"/>
    <path d="M155.3 197.5V207H165.1V216.5H184.5V206.8H165.1V197.3H155.3V178.1H145.6V197.5H155.3Z" fill="#97949C"/>
    <path d="M174.8 168.3H165.1V187.8H174.8V168.3Z" fill="#97949C"/>
    <path d="M194.3 197.3H221.5V177.8H211.8V168.3H194V178H184.5V187.7H194.2L194.3 197.3ZM194.3 178.1H211.9V187.6H194.4L194.3 178.1Z" fill="#97949C"/>
    <path d="M221.5 206.8H211.8V226.3H221.5V206.8Z" fill="#97949C"/>
    <path d="M184.5 187.8H174.8V197.5H184.5V187.8Z" fill="#97949C"/>
    <path d="M194.2 216.5H184.5V226.2H194.2V216.5Z" fill="#97949C"/>
    <path d="M204 206.8H194.3V216.5H204V206.8Z" fill="#97949C"/>
    <path d="M204 245V235.9H211.8V226.2H194.3V245H204Z" fill="#97949C"/>
    <path d="M155.3 207H145.6V225.5H155.3V207Z" fill="#97949C"/>
    <path d="M165.1 245V235.2H174.6V245H184.3V235.2H174.8V225.5H155.3V245H165.1Z" fill="#97949C"/>
    <path d="M145.6 168.3H126.1V178H145.6V168.3Z" fill="#97949C"/>
    <path d="M86.8 327.6C83.5 327.6 81 326.7 79.2 325C77.4 323.3 76.5 320.7 76.5 317.4H83.1C83.1 319 83.4 320.2 84.1 321C84.7 321.8 85.6 322.2 86.8 322.2C87.8 322.2 88.5 321.9 89.1 321.3C89.7 320.7 89.9 320 89.9 319C89.9 318.1 89.6 317.3 89.1 316.7C88.6 316.1 87.8 315.5 86.7 314.9L82.9 313.1C80.8 312.1 79.3 310.9 78.3 309.5C77.3 308.1 76.8 306.4 76.8 304.3C76.8 301.8 77.7 299.7 79.4 298.2C81.1 296.7 83.4 295.9 86.3 295.9C89.4 295.9 91.8 296.7 93.4 298.3C95 299.9 95.8 302.2 95.8 305.3H89.3C89.3 302.5 88.2 301.1 86.1 301.1C85.2 301.1 84.5 301.4 84 301.9C83.5 302.4 83.2 303.1 83.2 304C83.2 304.9 83.5 305.6 84 306.2C84.5 306.8 85.4 307.4 86.7 308L90.7 310C92.7 311.1 94.1 312.2 95 313.6C95.9 314.9 96.3 316.6 96.3 318.5C96.3 321.2 95.4 323.4 93.7 325.1C92.1 326.8 89.8 327.6 86.8 327.6Z" fill="white"/>
    <path d="M107.8 327.4C104.8 327.4 102.4 326.4 100.7 324.5C99 322.6 98.1 319.9 98.1 316.5C98.1 313.2 99 310.6 100.7 308.6C102.5 306.6 104.8 305.6 107.7 305.6C110.6 305.6 112.9 306.3 114.5 307.8C116.1 309.2 116.9 311.3 116.9 314H110.8C110.7 311.9 109.7 310.9 107.8 310.9C106.7 310.9 105.8 311.4 105.2 312.4C104.6 313.4 104.3 314.8 104.3 316.5C104.3 320.2 105.5 322.1 107.9 322.1C109.7 322.1 110.7 321.1 110.9 319.2H117C116.9 321.9 116 323.9 114.4 325.3C112.8 326.6 110.6 327.4 107.8 327.4Z" fill="white"/>
    <path d="M127.1 327.4C124.6 327.4 122.6 326.4 121.2 324.4C119.7 322.4 119 319.8 119 316.5C119 313.2 119.7 310.6 121.2 308.7C122.7 306.7 124.7 305.7 127.1 305.7C129.9 305.7 131.8 306.9 132.8 309.3V306.3H139.1V326.8H132.8V323.8C131.7 326.1 129.8 327.4 127.1 327.4ZM129.1 322.1C130.3 322.1 131.3 321.6 132 320.7C132.7 319.7 133 318.4 133 316.6C133 314.8 132.7 313.5 132 312.5C131.3 311.5 130.4 311.1 129.1 311.1C127.8 311.1 126.9 311.6 126.2 312.5C125.5 313.4 125.2 314.8 125.2 316.6C125.2 318.4 125.5 319.8 126.2 320.7C126.9 321.6 127.8 322.1 129.1 322.1Z" fill="white"/>
    <path d="M143.2 326.8V306.3H149.4V309.2C150.5 306.9 152.5 305.7 155.2 305.7C157.2 305.7 158.8 306.3 159.9 307.6C161 308.9 161.5 310.8 161.5 313.3V326.7H155.2V315C155.2 313.6 155 312.5 154.6 311.9C154.2 311.2 153.5 310.9 152.5 310.9C150.4 310.9 149.4 312.5 149.4 315.6V326.7H143.2V326.8Z" fill="white"/>
    <path d="M173.9 326.8V296.8H181.3L187 318.2L192.7 296.8H200.1V326.8H194.1V308.5L189.2 326.8H184.8L179.9 308.5V326.8H173.9Z" fill="white"/>
    <path d="M222.1 315.3C222.1 316.4 222 317.3 221.9 318.3H209.3C209.4 319.7 209.7 320.8 210.3 321.6C210.9 322.4 211.8 322.8 213 322.8C214.7 322.8 215.7 322.1 216.1 320.7H221.7C221.4 322.9 220.5 324.5 219 325.7C217.5 326.9 215.5 327.5 213 327.5C209.8 327.5 207.4 326.6 205.6 324.7C203.9 322.8 203 320.2 203 316.7C203 313.2 203.9 310.6 205.6 308.6C207.3 306.7 209.7 305.7 212.8 305.7C215.7 305.7 218 306.6 219.6 308.3C221.3 309.9 222.1 312.4 222.1 315.3ZM209.3 314.3H216.1C216.1 311.4 215 309.9 212.8 309.9C210.6 309.9 209.4 311.3 209.3 314.3Z" fill="white"/>
    <path d="M240.6 325.9C239.8 326.7 238.7 327.2 237.5 327.2C236.3 327.2 235.3 326.8 234.4 325.9C233.6 325.1 233.1 324.1 233.1 322.9C233.1 321.7 233.5 320.7 234.4 319.9C235.2 319.1 236.3 318.6 237.5 318.6C238.7 318.6 239.7 319 240.6 319.9C241.4 320.7 241.9 321.7 241.9 322.9C241.9 324.1 241.5 325.1 240.6 325.9ZM234.4 316.4V296.8H240.8V316.4H234.4Z" fill="white"/>
</svg>
