<svg width="32" height="32" viewBox="0 0 32 32" fill="none" xmlns="http://www.w3.org/2000/svg">
<path d="M24.218 9.10285C24.4008 8.99422 24.5577 8.84887 24.682 8.67797L17.5155 4.41809C16.5777 3.86064 15.4223 3.86064 14.4845 4.41809L7.31798 8.67797C7.44229 8.84887 7.59924 8.99422 7.78199 9.10285L15.2509 13.5425C15.7163 13.8192 16.2837 13.8192 16.7491 13.5425L24.218 9.10285Z" fill="#6A7383"/>
<path d="M26.5 11.5603C26.5 11.4215 26.491 11.2841 26.4736 11.1486C26.2529 11.3479 26.0113 11.5268 25.7509 11.6817L18.282 16.1213C16.8718 16.9596 15.1282 16.9596 13.718 16.1213L6.2491 11.6817C5.98866 11.5268 5.7471 11.3479 5.52644 11.1486C5.50895 11.2841 5.5 11.4215 5.5 11.5603V20.4397C5.5 21.5546 6.07772 22.5848 7.01554 23.1423L14.4845 27.5819C15.4223 28.1394 16.5777 28.1394 17.5155 27.5819L24.9845 23.1423C25.9223 22.5848 26.5 21.5546 26.5 20.4397V11.5603Z" fill="#6A7383"/>
</svg>
