<svg id="Layer_1" data-name="Layer 1" xmlns="http://www.w3.org/2000/svg" viewBox="0 0 1500 1500"><defs><style>.cls-1{fill:#fff;}</style></defs><title>Call waiting</title><path class="cls-1" d="M516.15,1163.43c11.36.42,27,.4,42.56.07h0c28.14-.61,55.76-2.23,56.14-4.1,3.83-.67,2.39-133.74-.65-142.2-3.33-9.23-37.27-4.49-47.17-4.49-12.08,0-30-.62-42.16.32-9.79.75-18.66,2.88-19.26,13.87-1.78,32.68-.17,85-.11,122.17C505.51,1158.42,505.11,1163,516.15,1163.43Z"/><path class="cls-1" d="M477.55,784.22c17.86-9.36,14.92-25,27.66-39l-38.89,25C458.64,780.64,467.6,789.44,477.55,784.22Z"/><path class="cls-1" d="M460.1,744.3l28.2-80,18.12,81.38,33.24-6.09A404.57,404.57,0,0,0,521,791.93c-7.91,28.21-24.76,135.91-17.23,155.69l7.25.06c-2.61,3.84-64.17,66-39.28,63.72a467.16,467.16,0,0,1,59.95-1.65c3,.12,29.24.07,56.32-.53,3.38-.08,9.66-13.44,13-13.53,3.91-.11,4.9,13,8.66,12.92,22.13-.79,40.45-2.06,41-4,.43-1.66,3.83-47.61,4.24-55.78h.7l-.69-28,30.93,4.85c-4,66.29-8.27,153.63-3.62,165.85h33.52c-12.51,11.32-74.68,63.9-46.41,61.77a713,713,0,0,1,73.94-1.64c3.69.11,36.07.06,69.47-.53,4.17-.08,11.92-13.44,16.06-13.54,4.84-.1,6.05,13.06,10.7,12.92,27.29-.78,49.88-2,50.51-4,.57-1.78,5.39-54.86,5.27-57h-.2c1.35-11.54-.41-71-.8-109.14,1.24,3.93,111.59,1.5,122.76,1.5,73,0,93-47.29,105.73-109.24,12.15-59,25.89-147.5,26.66-167.47,1-26.71-24.56-50.26-52.81-53.81-25-3.14-102.34-3.7-129.29-1.27h0C931.24,579,892.35,561.65,867,570c-.22-4.85-.62-9.66-1.2-14.33-1.33-10.65-2.32-26.09-3-41,3.21.38,1.93.66,5.32.66,8.47,0,18.5-45,21.09-53.84,4.4-15,2.34-34.28-10.28-43.95-16.91-13-66.57-31.62-84.81-24.14-31.34,12.84-20.95,38.8-.35,45.34h0c-6.84,7.4-13.13,17.29-18.24,29.38A16,16,0,0,0,766,465a16.64,16.64,0,0,0,0,33.28c.17,0,.33,0,.5,0a201.18,201.18,0,0,0-3.74,35.67c-.47,25,39,25.42,39.06,26.37,1,8,8.23,31.76,10.15,46.43h0c-10.11-5.24-29-8-67.4-.9l-36.46,6.76a64.78,64.78,0,0,1-8.05-7.08c-12.4-12.64,2.89-39.11-24.85-47.93-.27-1.4-.52-2.84-.73-4.3l-13.33-80.61c-1.09-3.3-2.52-11.72-11.62-10.69l-43.38,5.75c-14.62,1.7-12.07,10.47-10,22.88L600,516.49c-14.27,2.84.44,33.36,2.14,38.71-10.48-21.86-17.4-1.69-9.36,18.92,7.19,18.44,12.25,34.58,30.61,54.13L485.93,653.71l2.37,10.62C450.22,669.8,415.81,690,399.47,715l-38.85-6.2-2.71,12.55,35.18,5.93a50.49,50.49,0,0,0-3.61,20.35c.42,11.22,12.36,7.11,13,13.59,1.34,14.41,19.19,13.7,20.8,4.19-.19.88-2.52,16.3,2.39,22.2,5.83,7,16.86,8.24,21.69-6.82a12.62,12.62,0,0,0-.2,1.72M683,713.35l38.69,23.58a408.24,408.24,0,0,0-18.12,49c-7-14.44-13.36-28.25-14.71-31.17a183.18,183.18,0,0,0-24.34-38Zm211.24,267c-.07-6.81-.09-12.94,0-18l4,.31Z"/><path d="M824,484.58a18.37,18.37,0,1,0-18.37,18.69A18.55,18.55,0,0,0,824,484.58Zm-18.37,14.59a14.59,14.59,0,1,1,14.27-14.59A14.45,14.45,0,0,1,805.59,499.17Z"/><path d="M367,644.39c-24.3,19.71-23.11,25-16.12,37.54A84.36,84.36,0,0,1,357,694.59l3.85-1.42a89.67,89.67,0,0,0-6.35-13.24c-5.93-10.62-7.73-13.82,15.12-32.35,7-5.7,10.57-11.42,10.84-17.51.47-10.53-8.86-19.6-18.74-29.21s-20.22-19.66-19.2-30.67c.75-8.16,7.52-16.38,20.68-25.13,18.07-12,12.45-25.35,7-38.25-2.77-6.57-5.63-13.37-5.63-20.28h-4.1c0,7.74,3,14.93,5.95,21.88,5.44,12.9,9.73,23.1-5.51,33.23-14.26,9.49-21.62,18.7-22.5,28.17-1.2,13,9.8,23.65,20.43,34,9.2,9,17.89,17.4,17.5,26.09C376.12,634.73,373.07,639.48,367,644.39Z"/><path d="M565.25,1031.08c-1.15,10.83-1.29,25.71-1.29,37.45V1070c0,6.93,0,10.42,2.27,12.58,1.47,1.39,3.52,1.82,6.67,1.82,1,0,2.06,0,3.25-.1,1.76-.1,4.23-.11,6.84-.12a93.1,93.1,0,0,0,10.09-.34c7.55-1,9.65-2.64,10.2-7.86,0-.28.71-40.41.15-43.53-1.56-8.65-6.61-8.53-16.66-8.3l-2.92.06c-1.67,0-3.3,0-4.89-.1C572.91,1023.82,566,1023.55,565.25,1031.08Z"/><path d="M592.78,1093.47c-1.58,0-3.37,0-5.32-.14-11.7-.7-18.35.38-21.55,3.51a8.73,8.73,0,0,0-2.34,6.94c.31,8,.12,23.2,0,33.28-.06,5.12-.11,8.84-.07,10a4,4,0,0,0,1.2,2.85c2.36,2.36,7.62,2.34,14.91,2.32,1.85,0,3.76,0,5.66,0h.13c1.13,0,2.3,0,3.48,0,7.47,0,15.29-1,16-9.49.79-9.54.65-30,.21-39.83C604.66,1093.52,599.15,1093.49,592.78,1093.47Z"/><path d="M592.79,580c6.08,15.85,11.59,30.21,26.52,46.93L485.56,651.7l-2.09.38,2.35,10.57c-25.56,4.08-50.58,15-69,30.26a96.92,96.92,0,0,0-18.39,19.87L359,706.49,355.46,723l34.84,5.88a52.08,52.08,0,0,0-2.87,18.82c.29,7.79,5.59,9.66,9.09,10.9,2.9,1,3.76,1.51,3.88,2.79.8,8.66,7.05,12.75,12.88,13a12.93,12.93,0,0,0,7.23-1.8c-.18,5.45.32,12.48,3.54,16.35a14.91,14.91,0,0,0,11.22,5.74,11.31,11.31,0,0,0,2.46-.27c2.92-.64,8-3.07,11.16-11.88h.28a7.67,7.67,0,0,1,.13-1.16c.17-.56.35-1.14.51-1.75l-.19,0c1.49-7.65,6.27-26.54,7.73-29.12,2.86-5.09,8.62-7.78,12.33-7.34a4.12,4.12,0,0,1,3.76,3c0,1.78-.3,12.81-7.74,21.57-5.84,6.87-4.84,13.13-2.22,16.41a10.2,10.2,0,0,0,8.17,3.75,14.91,14.91,0,0,0,6.86-1.79c11.16-5.85,14.62-13.93,18.29-22.47,2.22-5.18,4.52-10.52,8.75-15.61l30.73-5.63a408.63,408.63,0,0,0-17.27,49c-7.3,26.07-25.13,136.06-17.17,157l.5,1.31,4.19,0-2.59,2.83c-26.61,29-43.52,50-39.58,57.93,1,2,3.05,3,6.1,3,.46,0,1,0,1.46-.07a468.61,468.61,0,0,1,47.65-1.91c-6.86,1.05-15.4,4.13-16,15.26-1.25,22.9-.85,54.73-.46,85.52.16,13.15.32,25.57.34,36.76v1c0,8.71,0,15,12.62,15.46,5.73.21,12.75.32,20.46.32,12.61,0,27.09-.28,40.82-.81,33.43-1.28,38.3-2.79,39.25-4.4a2.81,2.81,0,0,0,.26-.38c2.57-4.43,2.45-51.28,2.27-71.21-.21-24.41-1.08-67.14-3-72.5-2.1-5.82-11.94-7.19-24.6-7a44.16,44.16,0,0,0,4.67-5.85c1.43-2,3.77-5.25,4.86-5.84.78.6,1.87,3.55,2.47,5.17,1.42,3.84,2.89,7.77,6.24,7.7,41.82-1.49,42.33-3.47,42.87-5.57.6-2.34,3.34-42.3,4.12-54.22h.93L657,923.2l26.65,4.17c-4,65.72-8.2,152.14-3.37,164.85l.51,1.32h29.55l-.79.7c-32.11,28.4-52.75,49.06-49.15,57.58,1,2.36,3.48,3.55,7.39,3.55.53,0,1.09,0,1.67-.06a712.29,712.29,0,0,1,73.73-1.64c3.74.12,36.16.06,69.57-.53,3-.06,6-3.5,9.56-7.48,1.85-2.09,5.3-6,6.51-6.06h0c1.09,0,2.62,3.36,3.54,5.36,1.71,3.77,3.52,7.69,7.16,7.56,51.14-1.47,51.76-3.41,52.41-5.45.87-2.75,5.38-57.34,5.36-57.69l-.07-1.42c.33-4.16.44-11.73.32-25.67h15.09L926,1151.78c-2.86,2.28-6.29,5.13-6.93,5.86,2.08-.32,19.29.68,19.1,0l0,0c1.95,0,4.44.11,6.85.17l1,.16,0-.13c4.14.11,7.79.15,7.7-.17-.23-.8-4.33-4.89-6.61-7.25l12.29-83.4h124.78l15.75,83.63c-2.32,2.39-6.17,6.24-6.39,7s17-.31,19.1,0c-.77-.88-5.57-4.81-8.56-7.15l-33.65-178.65a80,80,0,0,0,23.67-20.09c17.17-21.37,25.15-51.79,30.69-78.72,12.35-60,26-148.25,26.7-167.81,1-26.47-24-52.08-54.6-55.92-23.81-3-99.32-3.78-128.36-1.4-16.2-31.64-33.93-54.6-52.76-68.3-16-11.66-32.54-16-46.85-12.28-.23-4.11-.59-8.11-1.06-11.89-1.26-10-2.21-24.37-2.85-38.25a12.9,12.9,0,0,0,3.15.24c7.24,0,13.51-18.63,21.29-48.67.76-2.94,1.36-5.27,1.77-6.65,4.36-14.83,2.77-35.6-11-46.16-16.8-12.87-67.6-32.29-86.84-24.41-18.93,7.76-21.33,19.13-21.08,25.22.38,9.48,7.64,18.53,18,22.89a93.62,93.62,0,0,0-8.76,12.24,117.8,117.8,0,0,0-6.86,13.25,18,18,0,0,0-8.66-2.22,18.71,18.71,0,0,0-1.94,37.28,205.84,205.84,0,0,0-3.36,33.66c-.42,22.81,28.53,26.65,38,27.92l1.26.17c.62,3.75,2.06,9.53,3.7,16.1,2.08,8.33,4.39,17.61,5.68,25.26-11.2-4.32-30.41-6-65.18.48l-35.56,6.58a62.5,62.5,0,0,1-7.12-6.32c-4.35-4.45-4.91-11.1-5.49-18.15-.95-11.42-2-24-19-29.91-.18-1-.36-2-.51-3L663.17,472.3l-.08-.32c-.11-.32-.21-.68-.33-1.09-1.08-3.62-3.59-12.11-13.51-11l-43.35,5.74c-5.47.64-9.15,2.31-11.25,5.11-3.25,4.36-2.18,10.59-.93,17.8.13.76.27,1.55.4,2.3L597.66,515a8.52,8.52,0,0,0-4.43,4c-3.27,6-.61,16.45,2.42,25a4.69,4.69,0,0,0-3.71,0c-5.87,2.55-6.41,17.22-1.12,30.79C591.49,576.59,592.14,578.3,592.79,580Zm.79-32.14a.5.5,0,0,1,.19,0c.83,0,3.17,1.4,6.45,8.22a107,107,0,0,0,5.14,11.5c.91,1.76,1.86,3.55,2.86,5.34.17.3.34.59.5.89l2.28,4.75,2,4.25-1.13-3.56c2.51,4.15,5.16,8.21,7.77,12l1.4,2c.47.67.95,1.33,1.42,2,1.18,1.61,2.34,3.14,3.46,4.56a2.38,2.38,0,0,0,1.85,1.57l.92-4a1.81,1.81,0,0,1,1.11,1.08,3.77,3.77,0,0,0-.63-1.16c-.69-.87-1.4-1.8-2.11-2.75-.45-.6-.91-1.2-1.37-1.83s-.88-1.22-1.32-1.84a210,210,0,0,1-15.08-24.5c-1.08-2.08-2.08-4.13-3-6.11s-1.68-3.86-2.34-5.66h0c-.2-.61-.51-1.43-.94-2.5-.14-.37-.3-.77-.48-1.21-2.78-7-9.29-23.34-5.77-29.82a4.65,4.65,0,0,1,1.46-1.64,5.42,5.42,0,0,1,2-.79l.1,0a3.8,3.8,0,0,1,2,.13c2.66.94,4.61,5,6.83,10.42,1,5.3,10,20.17,19.54,35.52,1.26,2,2.45,3.93,2.62,4.26a2,2,0,0,1-.18-.84h4.1c0-.69,0-.69-3.06-5.59-3.66-5.87-11.73-18.82-16.1-27.28a2.66,2.66,0,0,0-.22-1c-3.67-8.62-4.69-16-2.53-18.26,1.62-1.73,5.43-.87,8.34.16,2.28.92,9.4,12.88,15.12,22.48,7.62,12.8,16.26,27.3,23.3,34.47a17.42,17.42,0,0,1,1.12,1.35c1.09,1.38,2.44,3.09,4.22,3.86a1.52,1.52,0,0,0,1.33.22l8.1-1.23-7.35-2.6c-3.5-3.26-13.35-15.22-12.38-17.65a2.67,2.67,0,0,1,1.41-.18,72.68,72.68,0,0,1,16.86,2.37c.77.22,1.52.45,2.23.69s1.55.58,2.27.89c12.33,5.33,13.16,15.22,14,25.53.62,7.46,1.26,15.18,6.65,20.68,1.69,1.72,3.25,3.18,4.73,4.44.71.61,1.4,1.17,2.07,1.7s1.52,1.15,2.26,1.67c2.6,1.83,5.05,3.22,7.68,4.72,2.3,1.3,4.66,2.64,7.38,4.43l-31.83,62.32-42.69-38.46-.12-.1a208.56,208.56,0,0,1-20.6-18l-1.72-1.77c-.56-.6-1.13-1.19-1.67-1.78-15.77-17.07-21.31-31.51-27.45-47.51-.65-1.7-1.3-3.41-2-5.14C589.34,559.77,591.32,548.82,593.58,547.84Zm10.24-62.65c-1.47.09-2.76-1.48-2.88-3.51s1-3.76,2.42-3.86,2.75,1.48,2.88,3.51S605.28,485.09,603.82,485.19ZM810.48,608.28a27.92,27.92,0,0,1,3.38,2,24,24,0,0,1,4.92,4.52,36.12,36.12,0,0,1,3.23,4.81c1.84,3.09,3.57,6,7.38,6,1,0,1.86,0,2.67-.05a20.68,20.68,0,0,1,6.47.52c.37,3.4,1,7.77,1.94,12.77.14.76.28,1.54.43,2.33l.42,2.25c3.95,20.7,10.8,49.18,15.15,64.69L725.76,620.92l0,0c-3.18-2.12-5.94-3.7-8.4-5.09-1.31-.75-2.58-1.47-3.85-2.23l31.45-5.83C782.21,600.9,800.64,603.4,810.48,608.28ZM803.85,560c-.21-1.73-1.49-1.9-4.58-2.31-8.62-1.14-34.83-4.63-34.47-23.77a198.07,198.07,0,0,1,3.45-33.79,18.75,18.75,0,0,0,9.85-32.55A100.09,100.09,0,0,1,794.47,441c11.79,2.6,37.93,9.68,40.83,12.66.88,4.58-.08,11.8-1.11,19.43-2,15-4.08,30.5,6.35,34.18a46.27,46.27,0,0,1,7.12,3.6c4.18,2.41,8.5,4.88,13.18,5.32.65,14.34,1.63,29.3,2.93,39.73.51,4.12.87,8.37,1.1,12.67-19.61,7.35-30.63,29.15-27,53.13a28,28,0,0,0-5.89-.28c-.78,0-1.62,0-2.57,0-1.35,0-2.09-1-3.85-4-2.12-3.58-5-8.37-11.69-12.11-1.19-8.29-3.83-18.91-6.18-28.33C805.84,569.71,804.26,563.37,803.85,560ZM766,467a13.86,13.86,0,0,1,7,1.92,12.76,12.76,0,0,1,1.72,1.18,14.31,14.31,0,0,1,1.66,1.55,14.71,14.71,0,0,1,3.84,9.94,14.55,14.55,0,0,1-11.11,14.22,15,15,0,0,1-2.23.32c-.3,0-.61,0-.92,0s-.75,0-1.12-.05A14.6,14.6,0,0,1,766,467Zm202.7,190.44c.82,1.69,1.65,3.41,2.47,5.13l1.19,2.49c.39.83.79,1.66,1.19,2.5,16.21,34.11,33.05,72.15,48.07,106.09,7.76,17.52,15.11,34.15,21.17,47.45l-73.46,0c9.44-26.54-.08-71.3-6.64-102.1-1.31-6.19-2.53-11.92-3.46-16.84-.24-1.3-.47-2.55-.67-3.74-.23-1.39-.44-2.7-.6-3.9-.12-.9-.22-1.75-.3-2.53v-.14c-3.94-23.58-14.67-41.75-31.88-54-19.65-14-43.7-17.6-61.34-18l-2.21,0h-2.16a143.08,143.08,0,0,0-18.16,1.19c-3.15-21.45,6.23-40.9,23.16-48q1-.42,2-.78l.34-.13c.55-.19,1.11-.35,1.67-.51C894.11,564.44,932.86,583.32,968.69,657.46Zm-75.47,430c-.05.8-.11,1.48-.18,2H683.73c-3.75-15.6.12-97.08,4-161.43l.12-2.06c0-.68.09-1.37.13-2.05,2-33.06,4-61,4.87-72.16,1.46-18.79,5.37-39.33,11.23-60.1.28-1,.56-2,.85-2.95s.57-1.94.86-2.91a403.52,403.52,0,0,1,16.84-45.89c.27-.63.56-1.26.84-1.89l.83-1.89q3-6.61,6.18-13,1.32-2.67,2.68-5.29c.88-1.71,1.77-3.39,2.67-5.06q2-3.76,4.12-7.44c11.12-19.43,25.1-28.94,41.55-28.19,35,1.55,72.24,47.76,86.4,78.51,1.7,3.71,9.67,20.82,17.39,36.73,8.06,16.57,12.36,24.79,14.88,28.85.54.85,1,1.53,1.38,2,1.1,1.48,1.73,1.82,2.28,1.88a2.36,2.36,0,0,0,.46,0h4l54.78,0h4.6l77,.05a1.72,1.72,0,0,1,.07.21c11.19,32.33,7.18,66.24-10.62,88.82-20.5,26-57.67,36.87-107.45,31.33h-29c.11-2.5,0-6.85-.38-14.88-.74-17.58-2.11-50.31,3.83-56.5a1.86,1.86,0,0,1,1.43-.72v-4.1a6,6,0,0,0-4.39,2c-6.61,6.89-6.12,32.08-5,59.51.29,6.87.59,13.95.29,15.72-.7,1.17-1.12,4.27-1.24,13.55,0,.65,0,1.34,0,2.06s0,1.34,0,2c0,10.74.18,27.88.68,55.35.22,12.59.48,26.47.6,38.6,0,1.39,0,2.76,0,4.1C893.57,1073.5,893.53,1082.77,893.22,1087.44ZM669.07,831.68H669c-3.58,0-5.93,5.61-9,15.94-.2.68-.43,1.46-.5,1.63-2.52,6.22-4.45,34.87-6.52,69.16l-.2,0,.68,27.19H511.05l-1.08,0-4.72,0c-6.07-22,9.81-124.9,17.71-153.1a404.23,404.23,0,0,1,18.15-51c.33-.76.66-1.51,1-2.26s.66-1.52,1-2.27c4.95-11.08,10.32-21.72,16-31.62,11.12-19.43,25.1-28.93,41.54-28.19,21.07.93,43,18.06,60.13,38.25l1.51,1.8c.5.61,1,1.21,1.49,1.82A181.65,181.65,0,0,1,687,755.61c1.49,3.22,7.7,16.59,14.39,30.51-6.64,22.53-11.06,44.92-12.65,65.31-.07.82-2.39,32-4.85,71.83l-26.87-4.21c1.52-25.28,3.78-62.16,6.25-68.26.13-.32.29-.85.63-2,2.53-8.53,4.07-11.58,4.92-12.63a12.6,12.6,0,0,1,.88,2.56l4-1C673.29,836.08,672.2,831.74,669.07,831.68ZM488.4,655.34l134.2-24.86a207.08,207.08,0,0,0,22.89,20.35L688.91,690l-11.83,22.18.29.17-12,2.21c-18.09-21.69-41.68-40.5-64.51-41.5-18.11-.81-33.34,9.37-45.28,30.25a367.1,367.1,0,0,0-17.3,34.54L508,743.34Zm203.69,37.47,1.21-2.36,34-63.61,126.89,84.64c5.28,4.14,41.53,29.2,44.51,30.71a27.33,27.33,0,0,1,3.17,2c2.48,1.75,5.29,3.72,8.83,3.72v-4.1c-2.24,0-4.29-1.44-6.47-3a29.77,29.77,0,0,0-3.68-2.34c-3-1.54-27.52-18.6-38.6-26.47-4-13.16-11.93-45.37-16.36-68.35-.14-.69-.26-1.36-.39-2s-.26-1.37-.38-2c-.86-4.68-1.54-8.85-2-12.23-.1-.85-.2-1.66-.27-2.4h.07a145.44,145.44,0,0,1,16-1h2.2l2.26,0c17.23.31,41.22,3.6,60.28,17.18,16.26,11.59,26.42,28.84,30.18,51.26.25,2.57.74,5.71,1.39,9.26.21,1.18.45,2.41.7,3.68s.47,2.37.72,3.61c.7,3.4,1.47,7,2.28,10.86,6.59,30.93,16.23,76.24,6.31,101.23l-55,0h-5c-4-4.89-23.42-45.64-33.32-67.13-14.58-31.66-53.25-79.27-89.94-80.88-17.69-.78-32.65,8.92-44.46,28.84l-.83,1.41c-.62,1.09-1.23,2.19-1.85,3.29-.9,1.62-1.8,3.25-2.68,4.9-3.9,7.28-7.6,14.81-11.08,22.51l-32.1-19.56-2.63-1.6-2.63-1.61-.91-.55,9.53-17.86Zm27,44.93a408.11,408.11,0,0,0-15.93,42.59c-4.59-9.6-9.06-19.13-12.42-26.44a183.44,183.44,0,0,0-22.49-35.75l14.36-2.63Zm-323-21.19,4.48.71L411.33,719l4.25.68L432,722.27l-3,9-17.08-2.88-4.1-.69-11.77-2-4.24-.71-31.41-5.3,1.85-8.55Zm1.82,38.21c-3.45-1.21-6.17-2.18-6.36-7.19a47.73,47.73,0,0,1,2.93-18l12.08,2A201.17,201.17,0,0,0,401,756.05,23.17,23.17,0,0,0,397.89,754.76Zm15.55,15.53c-3.91-.14-8.3-2.63-8.95-9.15.05-2.88,2.61-17.06,6.14-28.81l18.14,3.06c-4.34,11.46-7.49,23.54-7.57,29.79C420.54,768.7,416.82,770.43,413.44,770.29Zm90.25-26.45c-5.47,6-8.11,12.16-10.66,18.11-3.52,8.2-6.56,15.28-16.43,20.45-4.48,2.36-8.21,1.26-9.92-.88s-2.07-6.23,2.14-11.19c9.15-10.76,8.74-24.07,8.71-24.63v-.25l-.06-.24a8.31,8.31,0,0,0-7.31-6.18c-5.83-.67-13,3.45-16.38,9.41-1.82,3.24-7.14,24.3-8.42,31.81-1.88,5.77-4.86,9.36-8.5,10.16-3.26.72-7-.86-9.65-4.09-3.87-4.66-2.47-17.51-2-20.18,0-.12.05-.24.07-.37l-1.75-.34h1.78c0-11,11.94-45.65,20.54-52.72l-2.6-3.17c-2.23,1.83-4.59,5.13-6.92,9.27l-20.45-3.26-1.39-1.33a12.15,12.15,0,0,0-.83,1l-10.56-1.69c16.19-22.57,47.68-41.22,83.63-46.86L504,744.08Zm12.53,417.54c-8.67-.31-8.67-2.65-8.67-11.36v-1c0-11.21-.18-23.64-.34-36.8-.39-30.72-.79-62.49.45-85.25.48-8.86,7-11.14,17.36-11.94,5.17-.39,11.41-.51,17.81-.51,4,0,8,.05,11.92.09-5.41,5.62-5.25,16.11-5.11,25.06,0,1.43,0,2.84,0,4.2,0,3.74,0,87-.12,91.21-.27,15.5-.12,22.85,1.49,26.47C538.51,1161.78,526.16,1161.75,516.22,1161.38Zm96-143.49c1.24,3.46,2.43,33.73,2.76,70.43.36,40.08-.49,64.47-1.55,69.24l-.37.07-.09.48c-4.6,1.35-28.8,2.76-54.14,3.33-.6-.12-1.16-.22-1.66-.29-2.14-.33-2.37-.36-2.86-2.53-.74-3.21-.94-9.78-.7-23.42.08-4.39.13-90.45.13-91.29,0-1.38,0-2.81,0-4.27-.22-14.2.43-24.3,10.91-24.88H567c2.13,0,5.3-.21,9-.45C587.09,1013.57,610.16,1012,612.27,1017.89Zm285.26,40.3c-.1-9.83-.3-22.44-.59-38.67-.22-11.82-.45-24.77-.58-36.35,1.15.2,2.66.39,4.63.56l11.06,74.46Zm45.37,92.51c-1.92,1.5-4.44,3.55-6.23,5.07-2.33-2.6-6.68-6.82-6.66-7.06a1.25,1.25,0,0,0-.34.2L905.18,984c7.14.4,18.36.63,36.09.63,7.48,0,16.14,0,26.12-.13Zm140.48-87.82H960l11.55-78.41c9.56-.09,20.28-.22,32.31-.4,6.56-.1,11.3-.17,13.18-.17,19.37,0,35.81-3.32,49.58-10.07Zm13-409.51c28.6,3.59,52,27.26,51,51.69-.76,19.42-14.31,107.27-26.63,167.14-5.44,26.45-13.24,56.29-29.86,77a76,76,0,0,1-23.41,19.56l-1.76.33.1.54c-13.43,6.83-29.61,10.19-48.79,10.19-1.91,0-6.66.07-13.24.17-7.76.11-20.36.3-34.27.42l-1.49-.21,0,.23c-29.85.26-65.1.23-71.67-1.33-.05-5.31-.08-10.23-.06-14.52l2,.15h.16c4.83,0,12.51.08,21.4.16,12.13.12,26.46.26,38.77.26,4.24,0,8.24,0,11.83-.06,31-.34,48.57-2.75,64.58-15.56l5.85-4.67a80.21,80.21,0,0,0,11.55-10.44c1.23-1.27,2.74-2.83,4.67-4.79,29.15-29.74,55.93-135.94,64.73-170.84,5.87-23.27,11.53-56.81-7-79.35-7.52-9.16-17.87-12.89-35.54-16.93-14.83-3.4-78.78-3.85-104.58-2.1-.76-1.58-1.51-3.16-2.27-4.72-.62-1.28-1.24-2.55-1.87-3.81C1000.46,649.65,1073.16,650.46,1096.35,653.37Z"/></svg>