<svg id="Layer_1" data-name="Layer 1" xmlns="http://www.w3.org/2000/svg" viewBox="0 0 1500 1500"><defs><style>.cls-1{fill:#fff;}</style></defs><title>Cat shot</title><path class="cls-1" d="M1179.76,1003.13c-24.57-6.61-32.38-25-50.46-32.28-16.63-6.74-36.29,4.86-52.81,6l1.33,12.2a33.49,33.49,0,0,0-4.09-.11l-1.07,0-.53,0-.65,0-.55,0-.72,0-.58,0-.81,0-.58,0-.88,0-.69,0-.86,0-.77,0-.86.05-.85,0-.86,0-.87.05-1,.06-.87.05-1,.06-.91.06-1,.07-.91.06-1.08.07-1,.06-1,.07-1.13.07-1,.07-1.15.08-1,.07-1.18.08-1,.08-1.18.08-1.11.08-1.23.09-1.06.08-1.26.09-1.11.08-1.28.1-1.12.08-1.27.1-1.12.08-1.4.11-.92.07-1.54.12-1,.08-1.45.12-1.08.08-1.44.12-1,.08-1.5.13-.81.06-1.79.15-.32,0-2.19.18-.31,0c-4.84.41-9.68.85-14.43,1.3l-.25,0-2,.19-.48,0-1.91.19-.53,0-1.91.19-.5,0-1.83.19-.58.06-1.71.18-.65.06-1.66.18-.67.07-1.6.18-.68.07-1.55.18-.68.08-1.54.17-.63.08-1.52.18-.61.07-1.45.18-.64.08-1.39.18-.62.08-1.35.17-.59.08-1.32.18-.55.08-1.28.18-.52.07-1.24.19-.48.07-1.2.19-.45.07-1.14.18-.42.07-1.1.19-.37.07-1.05.19-.33.06-1,.19-.27.06-1,.2-.22,0-.92.2-.12,0-.91.23h0a10.26,10.26,0,0,0-3.71,1.46h0c0-.13.07-.28.11-.44v0c0-.17.09-.35.13-.55v-.05c0-.2.1-.42.15-.65l0-.08c.05-.22.1-.47.16-.73l0-.12c.06-.26.11-.54.17-.83l0-.12c.06-.3.13-.61.19-.94l0-.12c.07-.34.14-.69.21-1.06l0-.08c.07-.38.15-.78.23-1.19v-.06c1.2-6.1,2.9-15.32,4.8-25.81l0-.16c2-11.27,4.29-24,6.37-35.79h0c.27-1.55.54-3.09.81-4.61l0-.13c1.4-7.92,2.69-15.27,3.75-21.29l.44-2.5.09-.51c0-.2.07-.39.1-.58l.21-1.19c0-.09,0-.18,0-.28.07-.41.14-.82.21-1.21,8.94,18.2,17.65,35.21,18.58,38.51,8.64-2.64,19.69-8,31.66-14.61,38-20.1,88.84-57.27,100.85-65.31,2.32-1.55-3.55-16.38-11.58-33.53h0c5.12-3.43-18.1-38.06-27.89-53L1078,776.1l-.08-.13-.76.43-21.32-22.19c8.37,10.8,15.31,18.87,20.28,22.79-3.74,2.13-13,7.42-24.89,14.28-10.3-26.62-20-50.59-29.08-72.13l33.69,35.06c-12.51-16.13-28.21-38.34-45.26-61.83q-3-6.89-6-13.39C931,517.19,899.05,532.05,873.9,572l-.43.65c-3.67-6.95-8.87-16.63-13.35-26.42,23-15,49-34.27,49-34.27,6.86-27-17.05-86-60.35-105.85-39.23-18-70.38-9.63-103.37,18.74-19.72,17-30.09,55.51,5.68,76.22,1.72,15.71,13,70.61,4.07,82.08-1.86,2.38,27-1.85,55.57-10.81a28.39,28.39,0,0,1,3.75,5.08c2,3.19,6.63,12.53,10.78,20.07-12.71,2.9-22.82,10.9-27.14,22.27-16.65,28.32-44.09,90.92-68.53,102.34-20.73,9.69-170.49,21.26-171.41,25.19h0c-4.51-4-14.28-2.83-19.32-21.24-3.29-12-4.78-19.55-10.36-25.78-1.57-1.76-11.69,3.81-6.39,15.64,3.61,8,1.88,12.43,1.42,18.87-.14,1.83-2.26,4.09-4.9,6.53-2.35-3.92-4.36-7.21-6-9.74-11.21-17.28-15.51-28-32.3-23.71-4.39,1.13-12.53,3.2-19.12,4.48-14.88,2.9-8.73,13.9-2.64,23.34,3.72,5.76,8.77,14.08,14.19,23.13-2.1,4.48-1.58,10.61,4.26,12.26h0l.6.15.77.2c1.86,1.13-.43,11.34,10.48,14.34l2.32,3.81a5.07,5.07,0,0,0,1.86,3.58c.21.17.41.32.62.47,3.61,5.87,6.75,10.83,9,14.1,5.27,7.53,12.59,17.09,25.64,13.53,5.62-1.54,14.68-2.6,18.33-3.71,8.09-2.46,13.58-5.67,3.5-22.94,9.11-1.15,16.82-2.45,16.82-2.45,17.89,1.41,68.33,4.52,116.28,4.22-19.53,19-38.1,39.21-38.1,39.21l.78.9c-5,4.32-9.29,7.59-12.6,8.6a179.68,179.68,0,0,1-27.52,6.55c-15.62,2.42-17.92,4.07-24.36,17.41-.57,1.19-2.85,9.19-4.35,14.79a25.47,25.47,0,0,0-6.14-.41c-7.16.79-10.35-2.18-24.33.49-6.27,1.2-19.35-.69-22,6.1-.86,2.18-7.94,11.84-4.92,11.64,7.85-.53,13.5-4.95,21.9-2.13,2.49.84,14.62-1.71,25.2-2.67-.82,1.58-2.05,3.78-3.94,6.9-3.7,6.1-.15,18.53,11.64,19.91,5.93.69,17.35-3.8,28.1-9.85.4-.22.28.42.17,1.49h0c-.2,2-.38,5.39,2.58,7.79,5.26,4.28,13-1.63,13.27-.25,1.88,9.24,12.05-.24,13.58,2.68,3,5.76,15.46-1.76,23.78-10.42,1.76-1.83,19.53-31.41,27.5-45.1a2.08,2.08,0,0,0,1.38-.59c1.52-1.54,9.51-8.63,21.64-19.32,14.76,52.17,37.55,131,46,157.45-.7,35.27-11.46,73.83-41.4,92.81-.63.4-9.26,9.48-18.82,16.29-10.18,7.25-16.2,14.32-.15,14.32,18.38,0,64,2.38,75.83-10.12,4.56-4.81,38.25-44.65,38.25-39.46,0,8.13,1,47.47,1,48.33l9.44.29c.87-3.38.55-19.69.55-30.1,0-25.44,15.07-48.75,17.44-68.1,2.2-17.82-11.24-23.68-16.66-39.33l-10.95,1.89c-3.35-19.6-16.49-155.08-13.73-164.86,0,0,14.77,3.25,35.58,7.27,3.27,21.61,5.3,35.49,5.3,35.49h.41c6.72,44.9,17.72,114,18.69,121.61,10.21,79.84,14.46,116,80.66,96.41,24.7-7.31,102.33-35.67,149.08-52.88l.07.68c39.06,17.81,55.53,18.08,62.4,56.88.13.74-16.41,14.5-19.86,23.16-4.62,11.61-4.62,12.21-2.33,12.57,6.34,1,57.45,2.25,58.48-2.74,6.29-30.54,8.79-41.16,7.54-49.54-5-33.79-32.71-66.26-29.74-65.46,7.85,2.11,43.75,7.47,43.67,7.29-.82-1.68,1.57-9.71,1.57-9.71C1203.92,1010.06,1189.81,1005.83,1179.76,1003.13ZM574.53,907c1.81-1.74,2.48-4.37,3.15-6.7a12.61,12.61,0,0,0,.48-3.5c2.24.34,4,1,4.81,2.13,1.81,2.4,6.62.09,9.91-2.35A50.49,50.49,0,0,1,583.2,904C573.11,909.81,573.23,908.27,574.53,907Zm23.71-16.16c.23-1.05-2.29-1-8-4l-.88-.24a50,50,0,0,0,5.18-8c1.57-2.77,18-3.64,18-3.59C607.65,878.5,603.53,884.65,598.24,890.85ZM751.39,483.69c-.44-3.86-.49-6.35-.16-7.8.21.27.44.54.67.81A33.27,33.27,0,0,0,754,494.85c.5,1.22,1,2.45,1.43,3.69l-.91.22A74.19,74.19,0,0,1,751.39,483.69Z"/><path class="cls-1" d="M489,1112.37c0-9.32-9-162.81-17.93-226.77-3.3-23.7-13.26-31.36-19.94-19.76-8.3,14.4-8.49,18.76-10.51,18.8-4.56.09-11.32-.27-21.46-.69a7.33,7.33,0,0,1-2.19-.09c-.26-.09-.47-.42-.65-.94l4-2.59a39.42,39.42,0,0,0-4.39,1c-2-10.58-1.05-48.11-34,0-12.42,18.16-66.66,108.55-95,178.44l-2.7-2.88a27,27,0,0,0,.33,8.82q-1.26,3.23-2.43,6.38c-17.61-57.09,57.47-135.48,62.28-193.2,2.07-24.75-22.77-24.38-25.91,1-8.48,68.46-105.68,142.36-49.74,226.87.73,1.12,1.47,2.2,2.21,3.26-3.84,21.15-.42,34.8,14.82,34.75,3.21,0,140.52,0,197.1,0l1.06,1.92c.06-.6.11-1.24.13-1.92,13.61,0,22.26,0,22.78.06C508.51,1120.44,489,1116.18,489,1112.37Z"/><rect x="404.78" y="729.55" width="28.17" height="4.1" transform="translate(-114.59 78.83) rotate(-9.46)"/><rect x="415.58" y="753.35" width="28.26" height="4.1" transform="translate(-399.78 496.12) rotate(-43.01)"/><rect x="425.93" y="705.4" width="4.1" height="15.94" transform="translate(-374.98 930.92) rotate(-74.2)"/><rect x="436.69" y="764.5" width="24.16" height="4.1" transform="translate(-411.6 987.38) rotate(-74.05)"/><path d="M493.89,1114.43a19.17,19.17,0,0,1-2.82-2.27c-.08-9.29-5.06-94.54-11.21-163.76l24.58,6.31,1-4-26-6.68q-.41-4.39-.8-8.69h27.68v-4.1H478.29c-.22-2.24-.43-4.47-.65-6.65l27.49-7.57L504,913.1l-26.82,7.38c-1.35-13.3-2.73-25.31-4.1-35.16-2.16-15.48-7.3-25.47-13.77-26.73-2.15-.42-6.3-.17-10,6.23-4,6.93-6.1,11.5-7.49,14.52a30.4,30.4,0,0,1-1.63,3.25c-3.54.06-8.48-.15-15.22-.44l-4.41-.19.07.39a40.5,40.5,0,0,0-4.19.95c-.67.19-1.33.4-2,.62-7.47,2.56-13.43,7.15-15.92,12.54l-3.73-1.72c3.05-6.6,10-12,18.76-14.87.66-.21,1.32-.41,2-.6s1.33-.34,2-.49c-.11-.83-.21-1.69-.3-2.49-.94-8-2.22-19-9-20.73-6.51-1.61-15.4,6.23-28,24.64-9,13.2-42,67.49-69.93,123.52q-14.85,29.76-24.56,53.41l.49.07a23.05,23.05,0,0,0-.15,4.64,25.8,25.8,0,0,0,.57,4.05,33.55,33.55,0,0,0,7.42,14.67A32.66,32.66,0,0,0,319,1091.83l0,4.1A36.68,36.68,0,0,1,291,1083.24a38.11,38.11,0,0,1-6.71-11.14c-.16-.4-.3-.81-.44-1.22-.21-.59-.4-1.19-.58-1.8a32.36,32.36,0,0,1-.84-3.6,31.19,31.19,0,0,1-.42-3.55,74.37,74.37,0,0,1,.15-18.47c3.27-25.9,18.23-54.77,32.71-82.68,15.18-29.28,29.52-56.94,31.59-81.69,1.1-13.19-5-19.78-11.61-20.47-7.72-.79-16.54,6.16-18.38,21-2.92,23.56-16.51,47.74-30.9,73.34-13.37,23.8-27.19,48.41-33.13,74.1-6.77,29.31-2,55.74,14.61,80.81.58.88,1.17,1.75,1.75,2.6q-3.24,18.81,1.54,27.88c3,5.64,8.15,8.47,15.46,8.45,1.63,0,144,0,199.33,0l-3.22-.35c.06-.52.09-1.09.11-1.7s0-1.33,0-2c-.18-5.37-1.71-12.66-5.86-17.65a14,14,0,0,0-10-5.26l-2.3-.18.44-2.26c.08-.41,7.94-41.55.44-67.49-4.19-14.51-8.86-21.36-15.59-22.9a14.66,14.66,0,0,0-11.26,2c-4.39,2.82-7.42,7.79-8.79,14.37l-4-.83c2-9.71,6.86-14.6,10.58-17a18.73,18.73,0,0,1,14.39-2.56c10.55,2.41,15.33,14.37,18.62,25.76,6.86,23.74,1.6,58.3,0,67.28a17.93,17.93,0,0,1,10.61,6.43c4.63,5.56,6.65,13.67,6.83,20.27,0,.71,0,1.39,0,2s-.07,1.4-.13,2c12.32,0,20.12,0,20.77.06l2,.09.13-2C510.19,1126.24,499.58,1118.55,493.89,1114.43Z"/><path d="M863.93,793.85a7.15,7.15,0,0,1-1.32-1.64l-.06-.09a3.36,3.36,0,0,1-.38-2.65,2.28,2.28,0,0,1,.26-.55L859,786.69a7,7,0,0,0-.2,7,3.78,3.78,0,0,0,.17.35,9.63,9.63,0,0,0,1,1.49,11.21,11.21,0,0,0,1.43,1.5,15.7,15.7,0,0,0,10.33,3.78h.58v-4.1h-.58A11.34,11.34,0,0,1,863.93,793.85Z"/><path d="M875.29,746.74c3.43,2.38,7.7,5.33,14.37,1.13,4.12-2.61,6.24-3,7.59-2.52a4.26,4.26,0,0,1,1.68,1.18l.2.21a9,9,0,0,0,1.3,1.2,3.84,3.84,0,0,0,2.7.81l-.32-3.8,0-.28a.34.34,0,0,1,.15,0,5.51,5.51,0,0,1-.83-.78l-.61-.6a9.43,9.43,0,0,0-1.61-1.26c-2.43-1.48-6-1.72-12.41,2.35-4.37,2.76-6.67,1.17-9.85-1-5.46-3.78-10.74-6.06-20.17,4.27l3,2.77C868.26,741.88,871.21,743.92,875.29,746.74Z"/><path d="M923.35,810.28c-2.16,3.59-3.75,7.71,2.34,15l3.15-2.62c-4.74-5.68-3.45-7.81-2-10.28,2.07-3.43,3.2-6.69-3.91-11.78l-2.39,3.33C925.18,807.24,924.68,808.07,923.35,810.28Z"/><path d="M892.52,840.94a1.38,1.38,0,0,1-.43.76,4.41,4.41,0,0,1-3,1.36v4.1a8.58,8.58,0,0,0,6-2.69,5.15,5.15,0,0,0,1.5-3.88Z"/><path d="M853.12,839.17c0,.35,0,.69,0,1h4.1c0-.09,0-.2,0-.29-.12-5.75-3.73-15.3-10.2-18.09l-1.63,3.76C849.5,827.33,852.73,834.05,853.12,839.17Z"/><path d="M915.88,782.48a36.17,36.17,0,0,1,4.73-6l-1-1-1.9-1.9a43.61,43.61,0,0,0-7.6,10.63l3.64,1.9C914.42,784.85,915.14,783.63,915.88,782.48Z"/><path d="M955.78,723.31l.6,0L956,719.2a2.79,2.79,0,0,1-1.39-.27,6.33,6.33,0,0,1-1.7-1.17,18.78,18.78,0,0,1-1.49-1.56c-.57-.66-1.14-1.38-1.73-2.12l-.41-.51c-.6-.75-1.23-1.53-1.9-2.27A20.47,20.47,0,0,0,945,709a8.71,8.71,0,0,0-7.48-2.07l.31,1.51.41,2.06.1.44c1.81-.37,3.35.45,5,2a39.59,39.59,0,0,1,3.16,3.64c.94,1.18,1.88,2.36,2.89,3.4a16,16,0,0,0,1.56,1.43,10.35,10.35,0,0,0,1.73,1.11A7,7,0,0,0,955.78,723.31Z"/><path d="M987.17,759.79c0,.28,0,.56,0,.81h4.1c0-.2,0-.42,0-.65a7.53,7.53,0,0,0-.31-3c-4.84-12.52-3.09-13.57-1.93-14.26,3.76-2.24,3.84-5.4.31-13.55l-3.76,1.63c2,4.58,2.3,6.58,2.22,7.46,0,.41,0,.44-.87.94-3.91,2.32-4.95,5.94.21,19.25A6.9,6.9,0,0,1,987.17,759.79Z"/><path d="M959,666.1c3.07,5.33,7.28,12.63,14,12.63v-4.1c-4.31,0-7.83-6.12-10.4-10.58-.62-1.07-1.21-2.09-1.76-2.95l-3.45,2.21C957.88,664.1,958.44,665.07,959,666.1Z"/><path d="M966.82,794.64a12.38,12.38,0,0,1-2.34.83l.79,4a15.26,15.26,0,0,0,3.19-1.09c2.19-1,3.84-1.68,7.59,1q.78.55,1.71,1.32a9,9,0,0,0,.83.59,6.6,6.6,0,0,0,2.23.92,5.82,5.82,0,0,0,1.17.13,6.59,6.59,0,0,0,4-1.43c2.56-2,4.43-6,3.13-8.89-.45-1-1.94-3.24-6.08-2.44l.78,4c1-.18,1.49-.06,1.55.08.29.65-.3,2.76-1.87,4a2.23,2.23,0,0,1-3.1-.1l-.34-.26a24.48,24.48,0,0,0-2.4-1.74,15.79,15.79,0,0,0-2.5-1.33C971.76,792.8,969.31,793.55,966.82,794.64Z"/><path d="M1021.42,780.48a7.89,7.89,0,0,1,.17,2.12l4.1-.09c0-1.83-.11-3.87-1.49-5-2.78-2.37-2.36-2.89-1.53-3.94a3.78,3.78,0,0,0-.71-6.18l-2.43,3.31.11.08c-.06.09-.13.17-.18.24C1017.64,773.26,1016.45,776.18,1021.42,780.48Z"/><path d="M995.28,707.38v-4.1c-3.11,0-3.78-.5-3.92-.72-.05-.07-.46-.8.61-3.4l-3.8-1.56c-.83,2-1.75,5-.22,7.25S992.35,707.38,995.28,707.38Z"/><path d="M951.87,747v4.11c2.5,0,4.25.78,5.06,2.27a2.87,2.87,0,0,1,.28,2.37.77.77,0,0,1,.37-.24l1.31,3.88c1.88-.63,2.9-2.92,2.46-5.57C960.84,750.65,958,747,951.87,747Z"/><path d="M920.21,679.84a17,17,0,0,0-.72,2.57c-.56,2.17-1.5,5.81-2,7.2l3.87,1.34c.53-1.54,1.46-5.14,2.07-7.52.27-1,.47-1.81.54-2l-1.94-.67Z"/><path d="M881.54,717.79v-2.15l.39-1.91-.94-.2c-2.66-.59-4.76-1-6.37-1.37-2.32-.48-3.64-.72-4.18-.77l-.09,1-.28,3.12c.69.06,4.07.76,10,2.06A6.3,6.3,0,0,0,881.54,717.79Z"/><path d="M941.42,592.75h4.1a18.75,18.75,0,0,1,.31-2.86,15.29,15.29,0,0,0-.43-8.27l-3.85,1.43a11.38,11.38,0,0,1,.22,6.21A22.92,22.92,0,0,0,941.42,592.75Z"/><path d="M805.27,646.51l.05.09,1.85-.89,2-.47a2.52,2.52,0,0,0-.26-.65c-1.68-3.19-1.56-4.7-1.39-5,.07-.11.49-.27,1.33-.24l.13-4.1c-2.91-.08-4.29,1.12-4.94,2.17C802.76,639.48,803.17,642.53,805.27,646.51Z"/><path d="M928.94,626.61l-2.18,3.47a13,13,0,0,1,4.51,4.7c.45.69,1,1.47,1.59,2.31l3.29-2.44c-.56-.75-1-1.45-1.46-2.12A16.88,16.88,0,0,0,928.94,626.61Z"/><path d="M1180.3,1001.15c-13.52-3.64-21.82-11-29.83-18-6.32-5.59-12.28-10.86-20.39-14.15-11.4-4.62-23.77-1.22-35.72,2.08-6.37,1.75-12.38,3.41-18,3.8l-2.12.15,1.3,11.93c-.64,0-1.26,0-1.87,0-10.15.38-38.86,2.25-66.33,4.78-31.57,2.89-44.63,5.06-50.25,6.57.29-1.42.64-3.18,1-5.26,1-5.44,2.52-13.36,4.36-23.52,3.35-18.55,7.28-40.89,10.15-57.21.32-1.85.63-3.6.92-5.27l4.28,8.63c5.78,11.64,10.77,21.68,11.39,23.91l.57,2,2-.61c8.86-2.71,20.09-8.11,32.22-14.86,30.49-16.13,68.82-43,89.88-57.73,4.83-3.38,8.64-6,10.95-7.6,1.73-1.15,4.55-3-10.34-35,2.19-4.91-4.91-18.35-26.65-51.45l-3-4.53-1.68,1-4.58,2.61-.08-.12-1.67,1-.61.35c-10.29-8.84-29.37-35.29-51-65.27-4.24-5.88-8.57-11.88-13-17.94q-3-6.76-5.91-13.19c-40.93-90-72.06-132.74-98-134.5-15.32-1-26.58,12.3-34.82,25-3.13-5.92-7.2-13.68-10.9-21.63,3-2,6.33-4.2,9.93-6.64,19.22-13.06,37.48-26.59,37.67-26.72l.58-.44.18-.71c7.2-28.32-17.48-88.07-61.49-108.21-19.68-9-37.76-11.68-55.28-8.15-16.39,3.3-32.83,12.19-50.28,27.2-11,9.44-20.89,27.35-18.31,46.09,1.35,9.75,6.63,22.88,23.41,32.93.39,3.22,1.08,7.67,1.91,13,3.16,20.33,9.05,58.17,2.47,66.59a2.28,2.28,0,0,0,0,3c.43.49.9,1,3.55,1a66.76,66.76,0,0,0,9.12-.91c7-1,15.59-2.77,24.33-4.9,5.16-1.25,12-3,19.5-5.36a32.4,32.4,0,0,1,2.65,3.82c1.07,1.71,3,5.37,5.2,9.59,1.61,3.09,3,5.75,4.27,8.06a39.76,39.76,0,0,0-22.12,15.43,35.49,35.49,0,0,0-3.83,7.29c-3.87,6.6-8.3,15-13.21,24.28-15.29,29-36.22,68.62-54.33,77.09C717,725.72,661.58,732,617.08,737c-41.5,4.67-54.48,6.37-58.73,7.89a26.56,26.56,0,0,0-3.68-1.91c-4.61-2.09-10.36-4.69-13.86-17.45q-.59-2.16-1.11-4.14c-2.59-9.65-4.46-16.62-9.69-22.47-1.28-1.43-3.69-1.32-6.15.28-4.12,2.67-7.54,8.87-3.64,17.57,2.63,5.86,2.19,9.45,1.64,14-.15,1.23-.3,2.51-.4,3.89-.06.78-1.08,2-2.42,3.41-1.8-3-3.37-5.53-4.71-7.58s-2.42-3.79-3.53-5.55c-8.82-14-14.65-23.25-31-19-3.31.85-12.12,3.12-19,4.46-5.35,1-8.78,3.24-10.19,6.53-2.44,5.73,1.74,13,6.22,19.93,3.6,5.57,8.37,13.43,13.62,22.18a13.09,13.09,0,0,0-.79,6.31,9,9,0,0,0,7,7.82h0l.07,0,.36.11c.09.38.19.94.27,1.38.62,3.44,1.85,10.23,10.18,12.91l1.68,2.77a7.12,7.12,0,0,0,2.52,4.45l.39.3c3.55,5.76,6.64,10.64,8.9,13.87,3.87,5.54,10.59,15.17,21.93,15.17a22.24,22.24,0,0,0,5.93-.84c2.83-.77,6.7-1.44,10.11-2a82.31,82.31,0,0,0,8.27-1.68c3.92-1.2,8.24-2.82,9.82-6.95,1.45-3.79.32-8.92-3.63-16.3,6.53-.87,11.89-1.75,13.63-2,19.61,1.54,65.41,4.2,109.88,4.2h1.29c-18,17.77-34.36,35.52-34.59,35.77l-1.22,1.34.61.72c-4.12,3.47-7.66,6.06-10.3,6.87l-.7.22a175.56,175.56,0,0,1-26.53,6.26c-16.26,2.52-19.16,4.6-25.89,18.55-.62,1.28-2.38,7.48-3.38,11.06-.23.85-.45,1.63-.65,2.34a22.24,22.24,0,0,0-4.84-.17,28.91,28.91,0,0,1-6.8-.21,51.46,51.46,0,0,0-17.69.73,46.17,46.17,0,0,1-6,.49c-6.75.3-15.15.68-17.58,6.87a34.4,34.4,0,0,1-1.75,3c-3.43,5.61-4.81,8.27-3.66,10.18a2.64,2.64,0,0,0,2.32,1.24h.21a40.7,40.7,0,0,0,8.26-1.63c4.33-1.18,8.07-2.2,12.86-.59,1.86.62,5.61.13,13.25-1,2.51-.36,5.65-.81,8.9-1.19-.56,1-1.22,2.1-2,3.38-2.27,3.75-2.27,9.2,0,13.88a16.41,16.41,0,0,0,13.15,9.12c7.36.86,19.82-5,26.36-8.47a9.42,9.42,0,0,0,3.43,7.47c4.45,3.61,10,1.55,12.94.45l.15,0a6.11,6.11,0,0,0,2.65,3.21c2.74,1.55,6,.38,8.67-.56a18.46,18.46,0,0,1,2.25-.71,5.69,5.69,0,0,0,4.08,2.49,7.68,7.68,0,0,0,1.09.07c6.18,0,15.35-6.59,21.57-13.07,1.51-1.57,11.18-17.57,16.82-27,5-8.3,8.31-13.92,10.55-17.76a3.91,3.91,0,0,0,1.49-.95c1.38-1.4,8.37-7.62,19.1-17.07,5.43,19.19,11.86,41.66,18.24,63.74,8.09,28,15.09,51.82,20.24,69,3,9.91,5.06,16.75,6.58,21.49-.56,22.77-6.14,68.92-40.44,90.66a14.62,14.62,0,0,0-1.91,1.74,155,155,0,0,1-17,14.61c-8.51,6.06-11.81,10.3-10.7,13.75,1.23,3.85,7.29,4.29,11.74,4.29,2.24,0,4.89,0,7.84.08,3.75.05,7.92.11,12.33.11,21.32,0,48-1.32,57.15-11,1-1.06,3.29-3.66,6.44-7.25,7-8,22.26-25.38,28.29-30.62.15,12,.93,44.45,1,45.46l.11,1.87,12.95.39.41-1.59c.7-2.73.71-11.51.64-23.61,0-2.48,0-4.86,0-7,0-14.51,5-28.17,9.78-41.38,3.41-9.36,6.63-18.21,7.65-26.47,1.45-11.79-3.43-18.63-8.6-25.87-3-4.26-6.18-8.67-8.16-14.38l-.57-1.65L808.8,992C805,967.08,794,850.22,795.11,832c4.69,1,16.62,3.54,32,6.54,3.08,20.42,5,33.61,5.08,34.05l.26,1.78h.41c2.83,18.83,6.78,44.34,11.85,76.93,3.42,22,6.12,39.29,6.58,42.86l.16,1.29c6.43,50.27,10.67,83.48,30.33,96.3,5.94,3.88,13.23,5.81,22.21,5.81,8.57,0,18.66-1.76,30.58-5.29,24.54-7.26,100.37-35,147.62-52.33l.09,0c6.18,2.82,11.87,5.23,16.89,7.35,27.14,11.51,38.53,16.33,44.18,47.12-.57.58-1.57,1.54-2.54,2.48-5.4,5.19-14.43,13.87-17,20.47-3.91,9.81-4.59,11.9-3.55,13.71a3.59,3.59,0,0,0,2.81,1.63c3,.48,14.56.94,26.16.94,1.82,0,3.63,0,5.42,0,28.22-.38,28.83-3.31,29.23-5.25l1.66-8.08c5.16-24.91,7.09-34.23,5.9-42.18-3.71-25-19.22-48.68-26.67-60.08-.48-.73-1-1.46-1.4-2.15,5.91,1.19,15,2.68,20.7,3.59,20,3.17,20,3.17,20.85,2.08l.84-1-.53-1.09c-.16-1,.6-4.82,1.64-8.33l.5-1.66-1.56-.76C1204.51,1008.06,1189.73,1003.69,1180.3,1001.15Zm-296.24,87.14c-18.07-11.78-22.22-44.24-28.5-93.38l-.16-1.29c-.47-3.63-3.17-21-6.59-43-3.46-22.2-8.15-52.29-11.77-76.37l120.06-1.86c.42,1,.85,1.93,1.32,3,3.5,7.79,7.81,16.74,12.06,25.39-.54,3-1.18,6.66-1.9,10.79-4.73,26.88-14.34,81.57-16.22,89a2.52,2.52,0,0,0-.44,1.71,2.1,2.1,0,0,0,2,1.93,1.9,1.9,0,0,0,2-1.33c8.14-4.36,92.71-11,117.89-11.9.7,0,1.43,0,2.17,0l4.91,45c-47.2,17.37-123,45-147.44,52.28C910.28,1095.17,894.59,1095.17,884.06,1088.29ZM793.83,827.5l-1.89-.41-.53,1.86c-2.91,10.32,9.78,138.92,13.37,163.75l-51.94,9c-9.32-29.89-30.08-101.74-44-150.9l23-20.22c24-21.12,54.07-47.51,82.75-73,4.57,28.67,8.76,55.88,11.9,76.62C807.44,830.5,794.07,827.56,793.83,827.5Zm-104.45,35c-3.16,2.82-5.21,4.69-5.91,5.4a1.89,1.89,0,0,1-1.06-.13c-1.95-.59-7-3.37-19-15.46-6-6.06-11.61-12.34-14.54-15.67l-.92-1.05c1.4-1.51,3.92-4.22,7.22-7.71,7.12-7.52,17.89-18.7,29-29.52l2.11-2,2.17-2.09,1.22-1.16,1.86-1.76,1.93-1.81c3.07-2.87,6.1-5.63,9-8.18,17.4-15.25,34.91-34.1,52.37-54.74.71-.85,1.43-1.69,2.14-2.55l2.13-2.54c13.7-16.43,27.35-33.88,40.87-51.48l1.7-2.21,1.68-2.2q6.95-9,13.82-18.09,8.57-11.25,16.88-22.09l1.26-1.63,1.25-1.62c6-7.8,11.91-15.36,17.69-22.6q1.53-1.92,3-3.8t3.16-3.9q6.51-8,12.78-15.32l1.44-1.68,1.45-1.66,2.61-3a15.23,15.23,0,0,1,3.12-1.11c2.4.18,6,1.64,10.5,5,8.34,6.25,19.11,18.89,24.35,35.61,4,12.91,6,32.79-7.4,54.21-2.79,4.44-21.21,21.85-46.25,44.61l-2.36,2.14L858.22,713c-12.51,11.33-26.44,23.79-40.77,36.54-.6.54-1.2,1.08-1.81,1.61l-1.82,1.63c-29.94,26.61-61.23,54.1-84.68,74.71l-21.53,18.92-1.7,1.5-1.7,1.5C698,854.86,693,859.33,689.38,862.55ZM565.12,781c-.73-3.28-1.48-7.09-2.17-10.95-1.61-9-2.88-18.33-2.85-21.55.35-.11.8-.22,1.34-.34,7.38-1.66,32.09-4.44,56.1-7.15,44.8-5,100.55-11.33,112.9-17.1,19.35-9,39.79-47.77,56.22-78.89,2.51-4.75,4.89-9.26,7.13-13.41a45.36,45.36,0,0,0,.82,9.31c1.41,7.35,2.88,15.28,4.38,23.62-15.35,20-30.87,39.89-46.42,58.33-7,1.55-13.92,3.22-20.61,5-33.56,9.08-43.91,35.36-42.73,59.93-2.25,2.11-4.5,4.27-6.76,6.45-44.24.23-91-2.37-112.62-4l-2.05-.15C567.07,788.93,566.11,785.48,565.12,781Zm242-171.52a37.35,37.35,0,0,1,17.14-9.67c.68-.18,1.38-.35,2.07-.5l1.39-.28.74-.14a95.65,95.65,0,0,0,29.48-10.39c-2.07,2.54-4.16,5.14-6.27,7.77-1,1.2-1.92,2.4-2.88,3.62l-2.85,3.6q-6.21,7.89-12.59,16.18l-.72.93c-2.76-1.71-3.41-2.91-3.49-3.85a3.62,3.62,0,0,1,.06-.95,3.67,3.67,0,0,0-.62-3.2c-1.16-1.36-3.3-1.77-9.55-1.82v4.1c1.08,0,2,0,2.73.06a22.19,22.19,0,0,1,3.4.31,9.59,9.59,0,0,0-.1,1.42,6.23,6.23,0,0,0,.67,2.78,11.86,11.86,0,0,0,4.42,4.41c-5.31,6.91-10.7,14-16.17,21.16q-5.76,7.55-11.54,15.12c-1.27-7-2.52-13.72-3.72-20A36,36,0,0,1,800,620.63a31.39,31.39,0,0,1,3.49-6.73c.47-.69,1-1.35,1.51-2C805.62,611.08,806.33,610.28,807.07,609.52Zm9.08-33.27c-.57-.91-1.19-1.9-1.92-2.9a19.24,19.24,0,0,0-1.37-1.7,15.62,15.62,0,0,0-1.69-1.66,13.27,13.27,0,0,0-6.88-3.06c-14-2-25.43-10-32.25-22.78-3.73-7-6-15.85-8.44-25.27-.91-3.55-1.85-7.15-2.88-10.75l.63.29-1.23-2.37c-.61-2.05-1.26-4.08-2-6.11-.23-.64-.46-1.28-.7-1.93s-.48-1.29-.73-1.93-.52-1.35-.8-2a30.87,30.87,0,0,1-2.37-12.49l-.36-.36c-.57-.59-1.11-1.18-1.63-1.76l-.55-.61q-.64-.73-1.23-1.47l-.74-.91c-6.71-8.63-8.37-16.65-5.57-25.54l3.91,1.24c-2.17,6.89-1.17,13.12,3.49,19.86.11.18.22.35.34.52.37.51.77,1,1.18,1.55l.13.17c.49.62,1,1.24,1.57,1.87q1.74,2,3.88,4.05l.12.1c3.81,3.18,8.83,7.35,15,10.38.93.45,1.87.88,2.85,1.27l.49.21c.87.34,1.73.69,2.57,1,43.2,18,44.19,50.51,44.61,64.56.12,4,.2,6.39,1.56,7.36a2.57,2.57,0,0,0,.93.42,5.19,5.19,0,0,0,1.33.17,11.78,11.78,0,0,0,3.78-.8,58,58,0,0,0,7.79-3.54c2.49-1.3,5.47-3,9.07-5.14q2.35-1.41,5.07-3.11c1.89-1.18,3.91-2.46,6.09-3.87,3.81,8.14,8,16.06,11.31,22.32.17.31.33.62.49.94C864.61,581.11,849,591,826.94,595l-.62.13c-1.74-3.2-3.47-6.49-4.77-9C819.3,581.89,817.35,578.17,816.15,576.25Zm92-28.52c23.48,1.59,53.72,43.32,92.4,127.5-12-16.29-24.28-32.49-36.38-47.28,4.66-.88,4.5-3.15,3.89-11.33l-4.09.3a43.38,43.38,0,0,1,.22,6.85c-.23.06-.59.12-.9.18-.58.1-1.26.23-2.07.43-19.59-23.59-38.61-43.15-55.08-53l.93-.08L909,572c.06-.17.36-.92.77-2,1.69-4.29,3.52-9,3.89-10.28l-3.94-1.12c-.35,1.22-2.66,7.08-3.76,9.9-.49,1.24-.74,1.86-.86,2.24-8.72-5-16.7-7.2-23.64-5.72h-.3c8.82-11.88,17-17.35,25.65-17.35C907.23,547.69,907.7,547.7,908.18,547.73Zm172.67,229.09,2.72-1.55.86,1.3c4.55,6.94,10.61,16.17,15.85,24.93.65,1.08,1.28,2.15,1.9,3.21,6.21,10.68,8,15.57,8.49,17.75a4,4,0,0,1,.12,1.5l-1.25.85c-.77.52-1.64,1.13-2.6,1.79l-1.71,1.19-1.69,1.18-3.57,2.5c-6.45,4.52-15.12,10.59-24.92,17.27l-1.75,1.18-1.75,1.19-2,1.38-1.74-3.84a15.11,15.11,0,0,0-19.94-7.55h0a15.09,15.09,0,0,0-7.54,19.94L1043,867l.92,2,.08.19-3,1.91c-19.84,12.43-39.78,23.66-53.8,28.36-1.47-3.25-4.65-8.65-9.23-16.35l-.34-.56c-.41-.68-.83-1.4-1.28-2.14l-1.62-2.74c-1-1.75-2.12-3.6-3.22-5.49l-1.17-2c-.39-.67-.77-1.35-1.15-2a136.81,136.81,0,0,1-7.62-15,9.36,9.36,0,0,1-1-4.08l.13-.1a2.76,2.76,0,0,1,.25-.21l.32-.26.36-.29.39-.3.42-.31.45-.33.47-.34.51-.36.52-.37.57-.39.57-.4.62-.42.61-.42.68-.45.66-.44.73-.48.69-.45.8-.53.7-.44.88-.57.74-.48.91-.58.8-.51.95-.6.78-.49,1.05-.66.76-.48.68-.42.46-.29.8-.49.91-.57.24-.15c.3-.18.6-.36.89-.55l1-.6.15-.09,1-.62,1.09-.67,1-.62,1.15-.7.89-.54,1.35-.82.82-.5,1.42-.86,1-.6,1.3-.78,1-.59,1.41-.85.77-.47,1.6-1,.89-.53,1.55-.93.74-.44,1.73-1,.7-.42,1.78-1.06.81-.47,1.66-1,1-.6,1.54-.92.86-.51,1.68-1,.9-.53,1.67-1,1-.56,1.56-.92,1.07-.63,1.57-.92.6-.35,2-1.15.83-.48,1.75-1,.56-.33c8-4.67,15.84-9.24,23.08-13.43l1.81-1.05,1.79-1c8.91-5.15,16.68-9.62,22.27-12.82l1.22-.7,1.77-1,1.08-.62Zm41.33,80.8-2.43,1.66-1.89,1.31-6.32,4.42c-19.52,13.68-59.16,41.44-89.93,57.7A162.8,162.8,0,0,1,998.76,933c-1.57-3.73-5.26-11.2-10.92-22.62-.92-1.83-1.9-3.81-2.93-5.9l1.63-.5c15.23-4.65,37.41-17.2,59.22-31a15,15,0,0,0,7.7,6.5,15,15,0,0,0,11.52-.34,15,15,0,0,0,7.89-8.42l0-.1a15.55,15.55,0,0,0,.6-2.06,16,16,0,0,0,.31-2.06,14.89,14.89,0,0,0-1.28-7.3l-1.31-2.9,1.8-1.21,1.75-1.18,1.75-1.19c9.89-6.74,18.8-13,25.81-17.89l3-2.08,1.69-1.18,1.71-1.2,2.59-1.79C1117.8,842.68,1122.55,854.55,1122.18,857.62ZM992.42,936.44c-1.56-3.73-5.25-11.2-10.92-22.62-2-4-4.31-8.68-6.75-13.65-.51-1-1-2.07-1.53-3.13s-1-2.08-1.53-3.13c-3.55-7.32-7.14-14.88-10.13-21.56-.31-.69-.62-1.37-.91-2s-.6-1.37-.89-2c-3.38-7.8-5.61-13.84-5.42-15.88q.87-.74,2.25-1.74A22.72,22.72,0,0,0,957.9,855c1,3.09,2.64,7.32,5.2,13.18l.9,2,.76,1.7.15.34c2.32,5.15,5,10.79,7.75,16.51.49,1,1,2.05,1.49,3.07s1,2.08,1.52,3.12c2.92,6,5.84,11.87,8.49,17.21,5.32,10.7,10,20,11.15,23.2C994.32,935.78,993.36,936.13,992.42,936.44ZM748.16,728.11C732,747,715.8,764.2,699.75,778.28c-2.11,1.85-4.29,3.81-6.49,5.84.07-21.84,10.26-44.24,39.77-52.22Q740.44,729.89,748.16,728.11ZM831.09,837.2c-.1-.71-.21-1.43-.32-2.16l-.36-2.33c-.13-.92-.27-1.84-.42-2.77-3.17-20.89-7.29-47.61-11.77-75.59l5.34-4.74a39.17,39.17,0,0,0,2.3,3.78c1.67,2.54,3.57,5.43,3.57,7.79h4.1c0-3.59-2.26-7-4.25-10a23.24,23.24,0,0,1-2.49-4.41c13.48-12,26.39-23.61,37.94-34.1l2.43-2.22,2.33-2.11c10.77-9.83,20.16-18.55,27.45-25.54l10.55,24.7.85,2,.9,2.11,5.2,12.17.91,2.15.92,2.14L929.05,758l1,2.42,1,2.41,33.21,77.79a130.3,130.3,0,0,0-13,9c-1.55,1.38-2.27,3.87,4,18.76l-17.75.28c.92-3,2.31-7.35,2.54-7.9l-1.87-.85-1.58-1.31c-.5.61-2.49,7.08-3.41,10.13l-96.84,1.5H836c-.61-4.16-2.26-15.3-4.61-30.86Zm226.82,7.4a10.87,10.87,0,0,1,6.12,5.73l2,4.48.86,1.91.86,1.91,1,2.25a11,11,0,0,1,.89,5.69,10.67,10.67,0,0,1-.44,2.06,5.31,5.31,0,0,1-.21.64,9.68,9.68,0,0,1-.66,1.42,11,11,0,0,1-19,.3l-.12-.21c-.16-.29-.31-.57-.44-.87l-.43-1,0-.05-.86-1.91,0-.08-3.41-7.56a11,11,0,0,1,5.49-14.51h0A10.89,10.89,0,0,1,1057.91,844.6Zm-77,51.74a40.23,40.23,0,0,1,3.07,6.24h0C983,900.58,982,898.49,980.9,896.34Zm43.36-166.76a5.14,5.14,0,0,0-3,.56c-2,1.07-2.53,3.22-3,5-.41,1.51-.73,2.52-1.34,2.74l1.34,3.87c2.72-.94,3.43-3.6,4-5.55.26-1,.59-2.19,1-2.42a2.91,2.91,0,0,1,1.85.18l.43-1.39q11.16,26.9,23.16,57.87C1037.11,797,1023.33,805,1009.78,813l-.18-.46c-1.43-3.71-2-5.17.77-8.32l.2-.09,0-.09.12-.14-.31-.29-1.42-3.23-1,.43-.29.32c-4.8,5.25-3.44,8.79-1.86,12.89.14.36.28.72.42,1.1-8.13,4.8-16.1,9.56-23.36,14l-2.08,1.26-2.15,1.31c-3.88,2.37-7.5,4.61-10.77,6.67l-34.24-80.19-1-2.41-1-2.42-12.36-29-.92-2.14-.91-2.14-3.62-8.48-.9-2.12-.86-2L900.1,679.71c6.83-6.65,11.32-11.39,12.66-13.51,14.27-22.74,12.14-43.88,7.84-57.62-5.53-17.65-17-31-25.8-37.66-.39-.3-.78-.58-1.17-.85,12.56,4,29,17.16,49.08,39.27,4.77,5.23,9.59,10.8,14.44,16.6-.42.21-.85.44-1.3.7-3.57,2-2.71,5.76-2.2,8a7.3,7.3,0,0,1,.32,2.09.55.55,0,0,1,.08-.13l3.16,2.61c1.34-1.61.86-3.67.44-5.49-.59-2.58-.47-3.11.22-3.51s1.38-.73,2-1c16.45,19.95,33.13,42.45,48.91,64.2Q1016.28,710.4,1024.26,729.58Zm-2.3-17.91c24.23,33.6,40.37,55.7,50.57,65-4.33,2.47-11.51,6.58-20.29,11.64q-17-43.72-32.24-79.36ZM481.47,774.21l.54.1c.82.13,1.69.24,2.58.32.62,0,1.24.08,1.86.08a16.82,16.82,0,0,0,2.68-.2c1.52-.26,4-.45,6.65-.65s5.13-.39,7.18-.67c1-.13,2.16-.3,3.41-.48l.49-.07c1.3-.19,2.68-.39,4.06-.57,2.77-.38,5.49-.72,7.41-.85h.07c5.06.1,8.93,1.27,10.09,3.07a3,3,0,0,1,.2,2.69,39.79,39.79,0,0,1-5.93,1.21,40.37,40.37,0,0,0-6.9,1.49c-.46.15-1.49.4-3.55.8-1,.21-2.38.45-4,.75-3.63.65-8.86,1.52-16.35,2.72l-1,.17-.74-.15a14.25,14.25,0,0,1-3-1C482.84,780.92,482,777.2,481.47,774.21Zm11.79,13.69c7-1.12,12.42-2,16.33-2.73,1.64-.29,3-.55,4.13-.78a34.61,34.61,0,0,0,3.42-.81,36.13,36.13,0,0,1,6.23-1.32,49.79,49.79,0,0,0,5.74-1.12,10.74,10.74,0,0,1,0,3.78c-.05.33-.08.64-.1.92s0,.49,0,.53c-.64.85-6.09,2.38-11.34,3.72-1.57.4-3.12.78-4.52,1.12l-2,.49c-1.37.33-2.63.69-3.85,1-5,1.42-8.14,2.31-12-.48-.28-.21-.57-.43-.86-.67a3.21,3.21,0,0,1-1.17-2.64C493.22,788.62,493.24,788.27,493.26,787.9ZM465,730.14c-1,.57-2.72-.44-3.72-2.26s-1-3.76.1-4.34,2.71.43,3.71,2.25S466,729.56,465,730.14Zm9.13,30.92a9.91,9.91,0,0,1,1-2.3,7.88,7.88,0,0,1,1.45-1.79c1.67,1.73,2.56,2.77,3.14,3.44,1.05,1.23,1.63,1.82,3.33,1.7a8.63,8.63,0,0,1,1.09,0A143,143,0,0,0,506.58,761l.92-.12a28,28,0,0,1,3.18-.26c5-.12,8.57,1.14,9.07,1.86.87,1.43.45,2.31-2.11,4.51l-.2.18c-1.88.15-4.27.44-6.72.77l-4.09.58-.84.12-3.39.48c-1.92.26-4.47.46-6.93.64-2.73.21-5.31.4-7,.69a19.84,19.84,0,0,1-6.55-.33c-1.06-.21-2-.44-2.75-.63h0a2.83,2.83,0,0,0-.64-.19c-.18,0-.34-.08-.51-.12l-.55-.13a5.86,5.86,0,0,1-1.27-.55,4.83,4.83,0,0,1-2.43-3.78c0-.1,0-.21,0-.31A8.8,8.8,0,0,1,474.09,761.06Zm77.18,31.35-.19-.32c-8.22-13.56-15.6-26.14-21.53-36.26-3.1-5.28-5.89-10-8.34-14.16,2.42-2.36,4.18-4.55,4.34-6.75.09-1.28.24-2.5.39-3.68.57-4.77,1.12-9.27-2-16.16-2.29-5.13-1.23-8.49.06-10.4a6.51,6.51,0,0,1,3.29-2.64c4.31,5,6,11.2,8.42,20.4.36,1.32.73,2.71,1.13,4.16,4,14.61,11,17.78,16.12,20.1a24.33,24.33,0,0,1,3.1,1.58c.06,7.07,4.14,33.62,7.51,42.37C559.81,791.25,555.57,791.86,551.27,792.41Zm45.05,87.28c1.1-.93,6.09-1.73,10.4-2.21-2,2.09-3.87,4.47-5.84,6.92-.94,1.17-1.9,2.37-2.9,3.58l-1-.38a42.8,42.8,0,0,1-4.36-1.85c1.27-1.81,2.42-3.84,3.58-5.9Zm-16.79,21.62.12-.43a15.09,15.09,0,0,0,.35-1.59,3,3,0,0,1,1.33.89,4.59,4.59,0,0,0,1.82,1.42l-1,.6c-1.41.82-2.58,1.46-3.55,2C579,903.21,579.26,902.24,579.53,901.31Zm75,12.38c-6.75,7-15.32,12.32-19.13,11.77a1.6,1.6,0,0,1-1.35-.89,3,3,0,0,0-2.86-1.67,13,13,0,0,0-4.06,1c-1.76.63-4.17,1.48-5.28.86a3.48,3.48,0,0,1-1.19-2.3,2.33,2.33,0,0,0-1.13-1.55c-1.12-.62-2.24-.21-3.92.42-2.51.93-6.31,2.34-8.94.2-1.74-1.41-2-3.28-1.88-5.18.6-.35,1.68-.86,2.59-1.3a41.45,41.45,0,0,0,9.41-5.6l.3-.14-1.7-3.73-.87.39-.23.22c-2.47,2.21-6,3.92-8.67,5.16-.62.29-1.15.55-1.63.79l0,0a2.2,2.2,0,0,0-2.32-.05c-11.39,6.41-21.93,10.18-26.86,9.6a12.2,12.2,0,0,1-9.93-6.85c-1.67-3.41-1.75-7.41-.2-10s2.65-4.49,3.47-6a61.58,61.58,0,0,1,7.85-.22,9.31,9.31,0,0,1-.25,1.14l-.12.44c-.59,2-1.19,4.11-2.48,5.35-2,1.89-1.1,3.37-.79,3.78,1.29,1.71,3.29,1.43,11.9-3.56a52.11,52.11,0,0,0,10.08-7.67,18.78,18.78,0,0,0,2.76-2.47c.39-.45.74-.85,1.05-1.19A12.08,12.08,0,0,0,600,891.9c1.42-1.67,2.75-3.33,4-4.93,3.42-4.27,6.38-8,9.67-10.31l1.14-.81-.68-2.71-1.38-.18c-.16,0-17.68.46-20,4.61l-.16.26a60.28,60.28,0,0,1-4,6.45c-2.64-.7-5.84-1.49-8.94-2.07,1.42-5.18,3.2-11.32,3.64-12.27,6.15-12.74,7.85-14,22.82-16.28a180.47,180.47,0,0,0,27.12-6.39l.7-.22c3.3-1,7.19-3.82,11.77-7.68,7,8.12,25,28,34.59,32C672,885.54,656.32,911.68,654.53,913.69Z"/></svg>