<svg id="Layer_1" data-name="Layer 1" xmlns="http://www.w3.org/2000/svg" viewBox="0 0 1500 1500"><defs><style>.cls-1{fill:#fff;}</style></defs><title>Dog call</title><path class="cls-1" d="M724.48,703.08c-.38-62.21.53-133.84-3.52-195.72,42.47,17,87.18,10.28,87-45.57-.05-16-14.69-174.22-23.44-179.23-1.87-1.06-5.43-1.52-10-1.49,3.34-11.06-7-66.66-25.76-81.75-.12-.09-14.32-10.55-25.09-15.76l-.88-.41,2.84-23a3.63,3.63,0,0,0-3.15-4h0a3.63,3.63,0,0,0-4,3.14l-2.65,21.57a6.11,6.11,0,0,0-6.58,3.22c-1.54,2.6,1.93,5.85,5.17,8.2l-.14,1.14h0c-3.89-1.63-6.29-.65-7.35,1.53-3.72-3.55-7.29-5.45-10.51-3.09-9.51,3.83,9.23,26.53,7.59,45.58-.22,2.63,1.12,7.42,3.28,12.85l-3.21,26.06a3.62,3.62,0,0,0,3.15,4h0a3.63,3.63,0,0,0,4-3.15L713,262.65c4.57,8.59,9.8,16.1,13,17.05v-.34c.41,11.17.51,11.6,6.57,9.48l.07,0c-7.51,2.7-13,5.83-13.7,9-.06.26.16,24.39.07,40.56,0,.73,0,2,0,3.8,0,5.07-.14,8.88-.3,10.08l-15.26,21.88c-6.32-3.15-15.09-6.78-22.14-9.69a86.36,86.36,0,0,0-11.6-5.08h0c-14.71-5.54-37.49-12.41-53.69-18-.16-.05-2.75-.1-6.9-.13-2.81-13.92-5.32-26.85-5.32-29.11,0-.94,39.54-1.32,39.07-25.86-.82-43-14.28-75.48-31.05-93.26h0c20.61-6.41,25.2-35.12,4-48.07-7.87-4.81-19.29-3.48-29.64.08l8.63-8.76c-8.82-.61-18.63,7.88-24.74,16.31-10.43,5.11-29.46,9.18-43.41,19.65C514,181.66,512,200.6,516.36,215.27c.43,1.45,1.07,3.89,1.88,6.94-8,4.66-7.9,9.18-3.68,19.92,5.52,14,12.6,36.47,15,40a4.9,4.9,0,0,0,.55.93c-3.64-2.89-8.28-5.95-9.91-4.28-6.63,6.79-1.32,16.22,5.5,27.71,5.22,8.78,11.84,17.52,11.23,35.38-37.1,12.72-76,33-81.58,47.94C448.68,415.14,471,726.7,471,726.7l3.06,0c4.48,55.27,10.55,164.8,16.73,269.77,7.8,132.62,15.76,257.94,20.87,257.28,1.79-.23,5.84-.3,11.14-.32.45,6.07,1,14,1.6,21.06-4.31-.09-7.77-.15-9.86-.15-1.19,6.84-.46,22.67-1.27,35.25-3,46.82-2.63,44.45-.42,43.72,3.07-1,18.94-.64,23.16-.88,11.57-.64,9.45-25.45,22.08.44,1.88,3.84,108.9,8,119,3.79,3.35-1.39,5.16-2.94,5.82-4.55,35.06.23,99.08-2.79,107-6.32,0,0-3.28-19.55-25.52-20.44-43.11-1.73-75-16.46-89.79-61.9l.81,2.48c-2,1-5.92,1.82-11,2.38.69-6.68,1.58-14.71,2.23-21.79l9-.48,33-417.47m-108,78.82c.06-.74.12-1.39.18-2v-.15c0-.28.06-.54.08-.78h0c0-.23.05-.43.08-.62v-.12c0-.18,0-.35.07-.49h0c0-.14,0-.25.06-.34s0-.06,0-.08l.05-.22a.76.76,0,0,0,0-.16.29.29,0,0,0,0-.09c0-.06,0-.12.05-.2l0-.16c0-.08,0-.16,0-.25s0-.13,0-.2l.06-.32.06-.26.06-.37.06-.31c0-.14.06-.29.08-.44s0-.22.07-.34,0-.32.08-.49.05-.27.08-.42.07-.36.1-.55,0-.25.07-.38.07-.44.11-.66.06-.3.08-.46.1-.53.15-.81l0-.29c.14-.81.29-1.67.44-2.58l.09-.51.15-.89.1-.56c0-.31.1-.61.16-.92l.08-.49c.06-.38.13-.76.2-1.15l.06-.39c.06-.36.13-.73.19-1.11l.12-.69c.05-.32.11-.65.16-1s.08-.44.11-.66l.18-1.08.12-.68.18-1.07L605,881l.21-1.28c0-.16.06-.32.08-.47l.18-1.08c.3-1.79.61-3.63.92-5.5.07-.4.13-.79.2-1.18l.1-.62.2-1.21.17-1,.17-1.05c.08-.44.15-.87.22-1.31,0-.14,0-.27.07-.41.07-.45.15-.9.22-1.35,0-.28.1-.56.14-.85l.18-1.06.18-1.07c.06-.42.13-.83.2-1.25l0-.16.27-1.63c.06-.38.12-.76.19-1.15l.11-.7.17-1c0-.27.1-.55.14-.83l-8.83,53.92c0-.41.07-.8.1-1.18Zm7,402c-10.1-8-17.69-19.59-22.21-39.73l.56,2.52c-2.56,1.3-9.43,2-18,2.35.21-6.59.52-14.66.68-21.86,8.26-.6,14.08-1.65,14.27-3.51.78-7.78,6.62-134.19,11.54-232.12.12-2.48.25-5,.37-7.39l.06-1.13.15-3.06c0-.46,0-.92.07-1.38.05-.87.09-1.73.13-2.59,0-.32,0-.64.05-1q.09-1.77.18-3.51v-.17c.06-1.23.12-2.45.19-3.66v-.27l.15-3c0-.42,0-.84.07-1.26,0-1,.1-1.93.15-2.88,0-.26,0-.51,0-.76.05-1,.1-2.06.16-3.08l0-.4.18-3.47v-.27c.06-1.09.11-2.18.17-3.26l0-.28c.12-2.28.23-4.52.35-6.72l0-.46q.27-5.1.52-9.89l7.11,292.58,15.94-.84c0,6.19,0,14.13.08,21-6,.08-10.94.16-13.94.34C610.8,1281.76,607.69,1296.8,607.68,1309.35ZM774.52,281.07c-1.8,0-3.76.1-5.82.26A21.18,21.18,0,0,1,774.52,281.07ZM703.3,374.29l-6.61,9.47c-4.09-7.83-8.79-14.14-14.19-18.61-.19-.13-.42-.27-.65-.41Z"/><path class="cls-1" d="M679.4,138.9c5.1,4.84,10.53,7.83,15.32,10.79l-22.18-16C675.58,136,679.11,138.62,679.4,138.9Z"/><path class="cls-1" d="M694.72,149.69l7,5A47.39,47.39,0,0,0,694.72,149.69Z"/><path class="cls-1" d="M672.54,133.71c-2.29-1.7-4.31-3.16-4.48-3.22Z"/><path class="cls-1" d="M667.9,161.35l-9.24-2.28A78.45,78.45,0,0,0,667.9,161.35Z"/><path class="cls-1" d="M667.9,161.35l21.51,5.31C684.89,164.43,675.69,162.92,667.9,161.35Z"/><path class="cls-1" d="M669.89,181.37l9.75-1A69.36,69.36,0,0,0,669.89,181.37Z"/><path class="cls-1" d="M669.89,181.37l-8.7.85A63.44,63.44,0,0,0,669.89,181.37Z"/><path class="cls-1" d="M928.57,1165.1c-18.83,27.11-72.22,90.31-59.17,139,.75,2.81,1.29,5.46,1.7,8-26.13-2.06-45.71-30.23-29.67-93.4,4.61-18.17,32.92-50,30.49-50.93-27.26-10.32-60.61,43.12-64.22,59.57-4.32,19.72-22.36,88.22,43.38,117,16.09,7,37.19,6.31,47.37,3.15a259.29,259.29,0,0,0,29.89,1.63c47.36.46,149.26-2.09,182.6-.5,7.6.36,23.19-14,7.18-31.43-6.1-6.64-12.72-10.38-12.72-10.6,0-9.81-1-17.5-1.45-35.45-.69-29.71,2-227.45,1.22-230.74,2.55-1.44,4-2.84,4.3-4,1.45-5.58-.73-20.57-2.6-19.42a27.82,27.82,0,0,1-2.59,1.39c2.24-4.27.67-16.5,9.4-19.58,17.72-6.25,34.56-37.69,21.6-47.67-28.58-22-29.38-5.09-35-40.2-3.49-21.87,1.34-21.38-9.34-43.83-7.1-14.94-25.29,37.31-26.77,44.43-.92,4.41-24.34,4.4-29.67,4.4-3.19-12.44-10.75-36.2-12.54-49-2.55-18.21-31.16,18.38-32.5,61.85-.61,19.89,3,80.86,1.53,84.7l.33.25-.6-.25c-5.8-2.46-1.14,17.26-4.34,23.28a28.51,28.51,0,0,1,3.31,1.11C990.82,1067,974,1099.67,928.57,1165.1Zm134.49-115.89q6.09-.35,11.38-1Q1068.76,1049,1063.06,1049.21Z"/><path d="M524.22,1271.73h.26l1.8,0c-.43-5.49-.87-11.35-1.24-16.32h-4.11c.31,4.18.68,9,1,13.79.06.82.12,1.63.19,2.43Z"/><path d="M570.16,1271.66c0-1.18.08-2.38.12-3.59.18-5.26.32-9.74.42-13.56l-2.05.16-2.06.13c-.12,4.63-.28,9.31-.41,13.13,0,1.34-.09,2.64-.13,3.89l2.06-.07Z"/><path d="M618.59,1247h.09c.09-2.25.21-5.76.34-10.36.84-29.56,2.32-104.05,2-178.05-.47-104.42-4.21-171.5-10.87-195.86l-7.6,46.45c-.62,8-1.59,24.1-2.88,48.06l7.05,290.39Z"/><path d="M469.12,728.75h5.13l2.05,0c3.63,45.4,8.25,124.87,13.07,207.7,1.15,19.87,2.32,40,3.5,59.93,4.64,78.93,14.21,241.57,19.67,255.26,1.8-.13,4.6-.19,8.08-.22h6.07l-.75-2.77a2,2,0,0,0-1.33,1.18,1.2,1.2,0,0,0-.09.29,6.63,6.63,0,0,0,.05-.82c0-.78,0-2,0-3.69,0-.64,0-1.35-.06-2.12s0-1.36-.07-2.11c-1-29.49-6.72-127.46-12.25-222.67C504.87,893,497.33,763.12,496.6,728.25c0-.72,0-1.41,0-2v0l2.06,0,2,0c0,.63,0,1.31,0,2,.28,13.58,1.65,42.35,3.62,79.5,10.15-18.85,31.22-66.06,33-80.55a14,14,0,0,0,.11-2l2-.07,2.07-.08h0a15.15,15.15,0,0,1-.09,2.06c-1.79,17.59-28.94,75.73-36.58,88l-.14.23c3.09,57.57,7.47,133.07,11.54,203.21,3.54,60.79,6.87,118.21,9.21,161.12,1.25,23,2.11,39.84,2.63,51.51.16,3.52.28,6.55.37,9.13,0,.74,0,1.45.07,2.11s.05,1.46.07,2.11c0,.35,0,.7,0,1,.07,3.24.11,5-.23,5.95h2.5c9.22,0,24.45,0,35.78-.64l2.06-.13,2-.16c5.12-.42,8.93-1,10.17-1.9.54-6.45,2.84-54.19,5.51-109.27,1.88-38.89,4-83,6-122.35,1.25-24.85,2.26-44.39,3.09-59.73l-.65-26.75,3.63-22.15a38.4,38.4,0,0,1,.76-6.37c.42-1.52,4-22.61,7.81-46l6-36.89v0h0l4.05.66c-1.18,7.25-3.38,20.73-5.69,34.78,18.33,37.73,13.51,315.51,11.63,381.6,0,.75,0,1.46-.06,2.15s0,1.47-.06,2.15c-.09,2.68-.16,4.85-.22,6.46l42-2.23,2.08-.11,2-.11,4.89-.26L706.54,829.2l1.87,2.41,1.86,2.39C754.76,890.69,814.62,950.36,853,971.33c13.43,7.33,24.91,13.93,36,20.32,30.92,17.78,55.34,31.82,96.65,46.94l1.67.62,0-.09.28.1c.52,27.3-14.72,58.35-60.81,124.71-2.38,3.41-5.26,7.35-8.6,11.91-23.38,31.92-62.52,85.33-50.87,128.8.68,2.53,1.18,4.93,1.57,7.21-25-3.4-43.16-31.72-27.56-93.17,4.61-18.17,32.92-50,30.49-50.93-27.26-10.32-60.61,43.12-64.22,59.57-4.32,19.72-22.36,88.22,43.38,117,13.65,6,30.88,6.35,42,4.4,8.22,1.52,19.54,2.27,35.22,2.43,4.12,0,8.62.06,13.45.06,18.31,0,41.25-.26,65.24-.53,41.51-.47,84.44-1,103.83,0,4.51.2,11.38-3.77,14.57-10.59,2.09-4.45,4.1-13.53-5.78-24.28a67.4,67.4,0,0,0-12.14-10.22l0,0c0-4.44-.26-8.45-.55-13.43-.32-5.58-.68-11.91-.9-21-.36-15.54.21-77.91.71-132.93.23-25.76.46-50.1.57-68.1.06-9.64.09-16.7.08-21.58,0-3.4,0-5.57-.08-7,2.37-1.53,3.79-3.09,4.18-4.58,1.29-5,.09-19.35-2.89-21.55a2.47,2.47,0,0,0-1.19-.48c.1-.57.2-1.15.3-1.76.82-5,1.74-10.66,6.68-12.4,12.23-4.32,24.94-20.59,27.21-34.82,1.17-7.3-.58-13-5-16.41a97.17,97.17,0,0,0-21.46-12.88c-8-3.61-9.26-4.16-12.74-26a130.87,130.87,0,0,1-1.58-15.91c-.41-8.21-.65-13.16-7.94-28.48-1.66-3.5-3.91-4-5.51-3.81-10.51,1.26-24.11,44.5-25.09,48.55-.46.47-3.9,2.81-26.1,2.92-.93-3.5-2.13-7.73-3.4-12.18-3.33-11.69-7.47-26.24-8.7-35.07-.86-6.15-4.44-6.63-5.94-6.54-10.75.58-29.57,34-30.64,68.61-.29,9.55.36,28.06,1,46,.52,14.78,1.11,31.29.83,36.61a3.34,3.34,0,0,0-1.33.53c-2.51,1.69-2.44,6.21-2.35,12.47a52.79,52.79,0,0,1-.42,9.84c-39.8-14.73-63.8-28.53-94-45.93-11.12-6.39-22.62-13-36.1-20.36-38.88-21.23-99.93-82.45-144.26-139.67l-1.86-2.43L707,823.2l8-101.94,2.07-.07,2.06-.07,5.49-.19,2-.07,0-2c-.19-17.79-.22-36.23-.26-55.76-.09-50.92-.18-104.61-3.17-152.65,12.61,4.73,24.94,7.2,36.1,7.2a65.36,65.36,0,0,0,14.19-1.48c23.63-5.29,36.59-24.6,36.5-54.39,0-7.81-3.59-50.7-8.47-93.94-9.39-83.28-14.19-86-16-87.06s-4.78-1.56-8.54-1.71c.86-7.6-1.12-22.91-5.06-37.88-3.22-12.25-10.34-34.2-21.88-43.47-.11-.09-14-10.36-25-15.79l2.65-21.51a5.68,5.68,0,0,0-4.93-6.32h0a5.68,5.68,0,0,0-6.32,4.93L714,178.74a7.94,7.94,0,0,0-6.53,4.28c-1.57,2.65-.29,5.32,1.88,7.64a6,6,0,0,0-2.71,1.3c-3.75-3.11-7.52-4.51-11.26-1.92-6.55,2.86-3.31,11.23.44,20.91,3.21,8.3,6.86,17.72,6.12,26.3-.24,2.8,1.06,7.73,3.22,13.31L702,276.08A5.68,5.68,0,0,0,707,282.4a5.32,5.32,0,0,0,.69,0,5.67,5.67,0,0,0,5.62-5l1-8.34c3.38,5.57,6.89,10.09,9.72,11.86.18,4.53.37,7.14,1.15,8.74-4.9,2.43-7.6,4.93-8.22,7.59-.08.33-.08.33,0,9.24,0,8.14.1,21.54.05,31.75,0,.77-.05,2.1,0,3.86-.05,4.95-.13,8.65-.28,9.79l.47.06c.08,3.53.18,7.55.3,11.88s.25,9.58.37,14.88a45.93,45.93,0,0,1-8.6-3.89c-6-3.63-18-8.61-27-12.32-7.47-4.24-26.18-10.3-44.31-16.17-7.65-2.48-14.88-4.82-21.23-7a58.89,58.89,0,0,0-5.89-.22c-2.18-10.87-4.21-21.29-4.78-25.46l.88-.11c9.51-1.25,38.45-5.05,38-27.41-.59-31-8-59.59-20.82-80.4a90.71,90.71,0,0,0-8.74-12A27.24,27.24,0,0,0,631.47,172c1.43-11.57-4-22.34-14.61-28.8-9.73-6-24.9-3.36-37.92,2.46a52.05,52.05,0,0,0-4.27,4.39c-1.18,1.35-2.27,2.75-3.26,4.13a43.44,43.44,0,0,0-3.55,5.89,80.15,80.15,0,0,1-17.43,23.86l-.43.61-3.39-2.31a6.75,6.75,0,0,1,.86-1.15,75.23,75.23,0,0,0,16.7-22.81c.2-.4.41-.82.64-1.23.49-.94,1.05-1.9,1.67-2.87s1.4-2.13,2.18-3.21c-3.29,1.57-7.45,3.06-12.12,4.74-9.62,3.44-21.6,7.73-31.14,14.89-13.79,10.36-15.37,30.76-11,45.32.36,1.18.86,3.06,1.48,5.43-7.58,4.94-7.66,10.29-3.21,21.59C515,248.76,517.5,256,520,263c2.13,6.06,3.83,10.87,5.18,14.36-2.64-1.23-5-1.48-6.45.05-7.91,8.1-1.24,19.33,5.21,30.18.53.9,1.08,1.8,1.63,2.71,4.69,7.69,9.53,15.63,9.35,30.16-35.33,12.27-75.42,32.51-81.49,48.69l-.06.2c-6.64,25.34,14.75,324.8,15.67,337.53ZM1028,1321.9c-8.37-7.57-18.78-17-11.07-35.67,11.27-27.32-2.12-69.81-21.69-92.36-10.46-12-21.57-17.32-31.27-14.84l-1-4c11.28-2.89,23.85,2.84,35.38,16.12,10.34,11.92,18.86,28.78,23.36,46.29,4.9,19,4.55,36.91-1,50.33-6.61,16,1.85,23.66,10,31,5.41,4.89,10.52,9.51,10,16.08l-4.09-.32C1037,1330.05,1032.86,1326.27,1028,1321.9Zm78.39-302.37c1,3.35,2.11,12.31,1.07,16.29-.15.59-1,1.42-2.56,2.35l-.55.23a118.58,118.58,0,0,1-26.27,7.32c-5.17.72-11,1.28-17.63,1.56l-1.59.06c-20.2.26-42.28-3.71-66.58-11.93a2.15,2.15,0,0,0-2.25-1.35,3,3,0,0,0-.77.14,58.08,58.08,0,0,0,.39-10.08c0-3-.11-7.33.45-8.76l.19.07c13,9.89,40.2,15.28,65.83,15.28,19.23,0,37.54-3,48.18-9.46a4.49,4.49,0,0,0,1.42-1.39Zm-99-96.43c0-1.84,1-13.27,2.55-24.47,3.21-23.1,5.67-23.54,7.46-23.86l.72,4a1.17,1.17,0,0,0,.51-.22c-3.16,3.13-7.14,39.29-7.14,44.51Zm71.63-7.6c0-9.47,3.17-19.13,6.24-28.47.9-2.75,1.76-5.35,2.53-7.93l3.93,1.17c-.79,2.64-1.69,5.38-2.56,8-3,9-6,18.38-6,27.19Zm39.29,39.1c5.44.08,9.74.15,12.12,3.28,2,2.63,2.08,6.69.27,13.6-1.36,5.16-4.44,8.9-8.48,10.27a11.22,11.22,0,0,1-3.57.57c-2.88,0-6.59-1-11-4.48l-.22-.2c-4.28-4.44-7.28-12.22-4.89-17.54,1.22-2.72,4.29-5.89,12-5.59C1115.85,954.56,1117.1,954.58,1118.29,954.6ZM476,724.6l-2.05,0h-1c-.29-4.11-1-14.52-2-29.27,0-.34-.05-.68-.07-1,0-.67-.09-1.35-.14-2.05-5.56-81.48-18.53-281.56-13.44-301.85,4.44-11.49,33.59-29.18,69.87-42.87.09.52.31,1.65.89,4.46.17.82.37,1.81.61,3,.07.36.15.72.23,1.12.12.61.26,1.26.39,1.93,1.65,8,4.09,19.88,5.89,29.12.12,1.15.26,2.47.41,3.95.07.71.15,1.45.22,2.22s.15,1.43.23,2.18c2,20,5.72,57.7,7.48,79.37-10.3,25.57-1.57,60.48,15,97.65-28.86-13.65-60.55-52.62-85.29-131l-3.91,1.23C495.54,525.93,530,565.63,561,578c15.44,33.32,36.68,68.15,55.78,99.48q3.12,5.1,6.12,10l1.22,2,1.22,2c6.07,10,11.68,19.43,16.56,28.07C579.6,721.71,500.81,724.23,476,724.6Zm45.55-444.23c1.11,0,3.92,1.7,7.06,4.15,1.6,1.25,3.29,2.69,4.88,4.21l.17.16,1.22,1.17.36-.33,1.06-1,.52-.51,1.46-1.56,2.09-2.3c.12-.13.23-.26.36-.39l1.78-2c.67-.74,1.38-1.52,2.13-2.33,8.35-9.11,21.24-22.69,31.49-29.78.48-.33,1-.66,1.42-1l.55-.34c.7-.45,1.36-.84,2-1.19,4.36-2.46,6.52-2.57,7.58-2.15.34.14,1.39.56,2.06,3.37.48,2-.51,6.46-1,8.6-.49.75-1.15,1.83-2,3.17-1.14,1.86-3.53,5.79-5.84,9.1-.75,1.06-1.48,2.06-2.16,2.9a12.75,12.75,0,0,1-2.18,2.25,2.34,2.34,0,0,1-.54.28l.33,1.82.4,2.21a4.65,4.65,0,0,0,1.44-.56,10.84,10.84,0,0,0,2.27-1.84c2.59-2.63,5.71-7.34,9.78-14l.66-1.08a5.06,5.06,0,0,0,.83-.27,3.47,3.47,0,0,1,2.63-.32c.76.36,1.43,1.41,1.94,3,.57,1.86-.32,5.08-1,7.43-.59,2.1-1,3.66-.78,4.91-.63.84-1.35,2-2.31,3.52-2.12,3.42-5,8.11-8.42,10.6l2.42,3.31c4-3,7.19-8,9.49-11.75.68-1.1,1.48-2.39,2.06-3.17a3.34,3.34,0,0,1,1.49,1.65c1.54,3.25.92,10.17-4.06,17.69-10.14,15.29-8.67,30.83-6.31,41,.16.71.33,1.4.5,2.05s.37,1.4.56,2c.32,1.13.62,2.15.89,3,.13.4.25.81.37,1.21l0,.13c-3.52-.44-10.24-1.15-19.55-2.14-6-.63-13-1.37-19.12-2.05-5.13-.57-9.6-1.09-12.32-1.48L539,341.7v-.59c0-.51,0-1,0-1.52s0-1,0-1.43a55.51,55.51,0,0,0-.93-9.06c-1.73-9.05-5.52-15.28-9-21l-1.61-2.66c-7.09-12-11-19.64-5.92-25.09Zm9.88,1-.18-.34c-1.22-1.85-4.36-10.78-7.4-19.42-2.46-7-5-14.27-7.35-20.22-3.27-8.32-4.17-12.23.52-15.89a18.49,18.49,0,0,1,1.79-1.23c.56-.34,1.18-.69,1.85-1,2.16-1.13,4.89-2.32,8.29-3.68,2.32-.93,4.89-2.22,7.61-3.58a111,111,0,0,1,10.13-4.62c.82-.31,1.62-.59,2.4-.83s1.61-.46,2.37-.62a16.1,16.1,0,0,1,3.4-.4,7.94,7.94,0,0,1,6.84,3.32c.43.59.87,1.27,1.33,2,.36.59.72,1.23,1.09,1.91s.67,1.26,1,1.94a194.44,194.44,0,0,1,10.4,26.71l-.2.13c-9.62,6.22-21.7,18.48-30.5,27.93-.73.78-1.44,1.54-2.12,2.29l-2.13,2.32-2.89,3.17-2.86,3.14c-1.07-1-2.19-1.95-3.31-2.85A1.29,1.29,0,0,1,531.4,281.36Zm74.94,28.17c-3.08.4-4.62.6-4.62,2.56,0,2.23,2,12.71,4.86,27-3.86,0-8.53,0-13.48,0-2.31-9.45-4-24.32,5.5-38.71,5.19-7.82,6.9-16.34,4.36-21.72a7.19,7.19,0,0,0-4.29-4c.14-.66.38-1.55.58-2.26.83-3,1.86-6.73.94-9.73-.87-2.79-2.24-4.66-4.1-5.54a5.87,5.87,0,0,0-3.07-.53c.6-2.77,1.23-6.5.65-8.94-.77-3.24-2.29-5.33-4.53-6.23-2.49-1-5.73-.43-10,1.79-2.61-8.26-7.12-20.48-11.38-28.36a29.75,29.75,0,0,0,2.51-7.28c2.94-2.93,29.08-9.87,40.85-12.41,16.21,17.89,28.89,50.19,29.67,91.06C641.15,305,614.94,308.4,606.34,309.53Zm9.21,33.82c6.33,2.17,13.49,4.49,21.07,6.94,11.13,3.61,23.15,7.5,32.15,10.88,1.35.83,4.81,2.27,11.37,5l.27.11c.31.18.6.36.86.53,18,15,29.61,52.41,35.56,114.51.71,7.46,1.33,15.12,1.87,22.91.1,1.52.21,3.05.31,4.58,3.11,48.29,3.2,102.05,3.29,154.32,0,18.8.06,36.6.24,53.79l-3,.1-2.06.07-2.06.08c-13,.44-38.77,1.33-68.87,2.33-4.83-8.64-10.42-18-16.47-28.06l-1.23-2c-.4-.67-.81-1.34-1.22-2q-3.57-5.89-7.32-12l-1.78-2.93c-.34-3.83,3.25-17.63,7-32.22,9.23-35.48,21.81-83.86,12.19-102.68a92.93,92.93,0,0,0,2-46.3c-.57-2.83-1.66-9.05-3.17-17.66-3.37-19.33-8.48-48.54-13.8-73.73-1.49-7-2.83-13-4.07-18.11-2-8.44-3.74-14.51-5.19-18.88-1.64-5-3-7.77-4-9.37a4.75,4.75,0,0,0-2.78-2.36c-1.66-.55-5.66-1.56-11-2.74-.17-.87-.49-1.94-.92-3.34-.17-.57-.36-1.19-.55-1.86l13.2,0,2.09,0,2.1,0C613.61,343.28,615,343.31,615.55,343.35ZM544.41,491.12l4.06.63c.72-4.63-5.1-63.82-7.86-91.28l1-.07c0-.65-.24-1.93-.54-3.71-.11-.65-.24-1.36-.38-2.14l-.39-2.16c-1.66-8.87-4.62-23.37-7.44-37.1-.18-.84-.34-1.65-.5-2.43-.22-1-.42-2-.59-2.85-.26-1.28-.46-2.27-.56-2.79l0-.14c0-.09.13-.21.38-.38l0,0a9,9,0,0,1,3.42-1.16c.44-.07.9-.14,1.39-.19a9,9,0,0,0,1.14.29c.62.12,1.33.22,2.12.34,1.9.27,4.59.6,8.23,1,6.68.78,15.53,1.71,23.33,2.53,10,1.05,20.28,2.14,21.67,2.44a1.25,1.25,0,0,0,.19,0c5.59,1.18,10,2.26,12.23,3,.82.48,3.58,3.94,9.16,26.89.26,1,.51,2.12.78,3.25q.3,1.26.6,2.58c1,4.13,2,8.77,3.08,14,5.23,24.89,10.25,53.58,13.56,72.56,1.51,8.65,2.61,14.89,3.2,17.78,8,39.55-9.89,76.8-40.85,84.81-9.39,2.43-19.87,2-30.85-2-15.14-32.92-24.34-64.06-19.7-88.26A33.72,33.72,0,0,1,544.41,491.12ZM583,582.46a51.14,51.14,0,0,0,12.88-1.63c18.21-4.71,32.22-18.77,39.73-37.41,5.63,20.08-6.08,65.11-14.06,95.76-3.32,12.78-5.6,21.67-6.6,27.46-16.89-27.75-34.84-57.81-48.59-86.72A57.6,57.6,0,0,0,583,582.46ZM705.74,788.21l-3.88,1.34c-1.74-5-16.82-55.71-19.35-67.18-.2-.89-.32-1.55-.36-1.92l2.05-.19,2-.18s0,.08,0,.11c0,.4.19,1.09.41,2C689.36,733.78,703.93,783,705.74,788.21ZM721.66,244c-1.12-3-2.25-6.13-3.18-8.81-.61-1.75-1.13-3.3-1.51-4.56,0-.15-.1-.32-.14-.47a43.68,43.68,0,0,1-1.22-5.22c-.75-4.61.31-5.41.37-5.45a.82.82,0,0,1,.31-.1,1.9,1.9,0,0,1,.37,0,5.71,5.71,0,0,1,1.66.32,13.8,13.8,0,0,1,2,.81c.62.31,1.33.7,2.14,1.19l.37.29-.06.11.67.36c1.43,1.11,2.69,2,3.62,2.72a38.17,38.17,0,0,0,3.16,2.18,69.74,69.74,0,0,1,8.91,9.2l3.24-2.51a71.17,71.17,0,0,0-14.47-13.65c-1.14-.83-2.24-1.57-3.26-2.19-1.18-.93-2.42-1.94-3.67-3-.63-.52-1.25-1.05-1.87-1.59s-1.25-1.11-1.86-1.66c-1-.91-1.94-1.82-2.82-2.71-.66-.66-1.27-1.32-1.83-1.95a28.24,28.24,0,0,1-1.79-2.24c-.23-.32-.44-.63-.62-.94a12.9,12.9,0,0,1-1.72-4.62,5.45,5.45,0,0,1,.67-4.22,1.61,1.61,0,0,1,.63-.43,3.6,3.6,0,0,1,2.3,0,10.43,10.43,0,0,1,1.43.47l.55.24,1,.42,1,.4.55.23c.76.35,1.57.75,2.44,1.2.62.33,1.27.68,1.93,1.06s1.27.73,1.93,1.12c5.92,3.57,12.75,8.65,17.07,13.66l3.11-2.68c-4.82-5.58-12.78-11.5-19.63-15.43-.66-.37-1.3-.73-1.94-1.07l-.86-.46a5.72,5.72,0,0,0-1.05-.8l-.26-.17c-1-.62-1.88-1.19-2.66-1.73s-1.35-.95-1.9-1.37c-.76-.6-1.38-1.12-1.87-1.59-2.27-2.18-1.9-3.07-1.82-3.21a4.09,4.09,0,0,1,2.48-2.15,5.73,5.73,0,0,1,2.08-.09,12.63,12.63,0,0,1,2,.43,26,26,0,0,1,3,1.11c.62.26,1.26.55,2,.88l.25.12c.56.27,1.13.55,1.7.85,10.31,5.32,22.91,14.6,23,14.66,17.64,14.16,27.12,65.16,25.4,78-1,0-2.34.13-3.83.3-11.13,1.28-32.79,6.2-37,7.61l-.17,0a16.84,16.84,0,0,1-3.1.89c-.46-1-.6-4.71-.76-9s-.38-10.4-1-18.47C726.86,258.32,724.88,252.82,721.66,244ZM706,237.6c.81-9.53-3.18-19.84-6.39-28.13-3.48-9-5.39-14.56-2.49-15.73l.24-.09.21-.16c1.86-1.36,4.16-.37,6.92,2.07-.77,3.07,0,7.1,2.11,10.69a28.74,28.74,0,0,0,3.44,4.43l-3.71,30.13A11.66,11.66,0,0,1,706,237.6Zm9.11,24.65,2.22-18c.14.4.29.8.44,1.2,2.22,6.09,5,13.67,5.12,15.24.47,6,.72,10.88.88,14.78A71.19,71.19,0,0,1,715.15,262.25Zm-8.07,116.14c.86.52,7.9,4.35,10.82,4.52.34,15.66.54,31.48-.11,33.6l3.9,1.27c1.07-3.32.61-24.48-.16-54-.23-8.89-.44-16.88-.49-21.58.09-9.12,0-22.72,0-35.67,0-4,0-7.54,0-8.44.27-.76,1.6-2.84,8.14-5.69,1.24-.54,2.57-1.06,4-1.56l.18-.07c4.83-1.69,24.64-5.9,34.87-7.32,2.22-.18,4.3-.29,6.19-.31l1.61.45.14-.45c3.42.06,6,.43,7.38,1.17.93.94,5.66,9.46,14.18,85.32,4.77,42.58,8.27,84.61,8.29,92.16.09,28.06-11.43,45.48-33.3,50.37-14.1,3.15-31.58.88-49.68-6.21-4-60.41-12.86-111.29-32.38-135.45A152.14,152.14,0,0,1,707.08,378.39Z"/><path d="M764.37,1325.33c-43.11-1.73-75-16.46-89.79-61.9l.81,2.48c-1.7.9-4.84,1.59-8.88,2.13.17-1.64.35-3.35.53-5.07.61-5.73,1.09-10.51,1.47-14.52l-2,.11-2.08.11c-.47,4.87-1,9.85-1.42,13.87q-.33,3.15-.63,6c-11.32,1.08-27.18,1.28-39.55,1.44,0-6.17-.06-13.19-.08-19.06l-2.05.11-2,.11c0,3.94,0,8.4,0,12.77,0,2.09,0,4.15,0,6.13-5,.07-9.24.15-11.89.31,3.63,10.39,1.42,23.72,1,35.47,9,7.79,20.29,12.17,33.4,17.26,5.9,2.29,12,4.66,18.5,7.54l1.15.5c12.46,5.42,25.19,12,25.12,19.57a6.32,6.32,0,0,1-.17,1.45c35.57.06,96.43-2.9,104.13-6.33C789.89,1345.77,786.61,1326.22,764.37,1325.33Z"/><path d="M516.5,1292.19c-.06,5.88-.11,12-.47,17.56-1.36,21.17-2.25,35.48-2.16,40.56a150.6,150.6,0,0,1,15.46-.53c2.84,0,5.29,0,6.56-.1,2.81-.15,4.55-2.53,6.7-5.88,1.78-2.77,3.63-5.62,6.9-5.44s6.3,3.61,10.72,12.54c4.19,1.31,25.87,3.18,56.94,4.2,36,1.18,55.74.32,58.88-1a12.58,12.58,0,0,0,3.55-2,2.2,2.2,0,0,0,.88-1.45c0-1.5-2.09-5.92-21.83-14.51l-1.19-.52c-2.7-1.2-5.34-2.3-7.94-3.36l-1-.41c-3.17-1.28-6.27-2.49-9.32-3.67-11.79-4.58-22.49-8.73-31.51-15.39-10.32-7.62-18.45-18.53-23.53-37.14a87.78,87.78,0,0,1-14.15,1.54l-2,.09-2.06.07c-11.09.36-25,.2-39.18-.06l-2.06,0h-.27l-1.79,0-5.61-.1C516.61,1280.87,516.56,1286.4,516.5,1292.19Z"/><path d="M523.49,233.73a3,3,0,0,0-.8-.13,2.76,2.76,0,0,0-2.71,2.7v0a2.72,2.72,0,0,0,2.71,2.71l.19,0a2.73,2.73,0,0,0,2.53-2.69A2.72,2.72,0,0,0,523.49,233.73Z"/><path d="M691.39,150.06a57.55,57.55,0,0,1,8.93,6.18l2.77-3a61.13,61.13,0,0,0-9.57-6.65,70.91,70.91,0,0,1-12.71-9.15c-.07-.07-11.08-8.51-12.08-8.86l-.8,2.33-.86,1.4c.79.49,10.11,7.41,10.92,8.11A75.29,75.29,0,0,0,691.39,150.06Z"/><path d="M688.5,168.5l1.82-3.67c-4-2-11.07-3.35-17.92-4.68a112.23,112.23,0,0,1-13.07-3L658,161a113.75,113.75,0,0,0,13.63,3.16C678.2,165.45,685,166.77,688.5,168.5Z"/><path d="M661.19,180.17v4.1a66.76,66.76,0,0,0,9.18-.9,66.24,66.24,0,0,1,9.27-.91v-4.1a69.57,69.57,0,0,0-9.86.95A62.41,62.41,0,0,1,661.19,180.17Z"/><path d="M1106.25,961.78c-1.56,3.48.85,9.56,4,12.91,4,3.08,7.66,4.17,10.62,3.17,2.71-.91,4.83-3.62,5.83-7.42,1.38-5.26,1.52-8.65.44-10.08s-4.59-1.59-8.92-1.66c-1.22,0-2.51,0-3.86-.09C1110,958.44,1107.27,959.51,1106.25,961.78Z"/></svg>