<svg id="Layer_1" data-name="Layer 1" xmlns="http://www.w3.org/2000/svg" viewBox="0 0 1500 1500"><defs><style>.cls-1{fill:#fff;}</style></defs><title>Selfie</title><path class="cls-1" d="M715.78,1285.54c3.43-12,7.89-25,13.09-38.78l16.56,40.49h68.11L779.61,1125c47.3-113.36,93.76-245.94,52.93-355.72-13.92-54.23-21.1-97.6-23.81-131.78,1,1,1.82,1.7,2.36,1.56,3.69-.95,8.52-.86,5.33-11.66-1.3-4.43-5.22-10.7-5.17-11.29.17-2.1,10.38,18.82,10.93,19.27,9.7,8.06,12.42,2.38,10.91-5.87,1.56,3.73,3.16,7,5.21,9,6.25,6,11.33-1.15,8-11.91-8.4-26.9-24.22-33.06-38.54-33.81,1.43-30.3,7.64-48.6,14.75-57.66,6-7.69,34.34-38.57,41-47.07,0,0-7.53-9.25-17-20.65,18.69-32.66,36.49-66.79,39.73-73.64,5.22-11.05,20.41-36.66,33.79-59,18.13-30.29,31-58.95,48.35-89,10.78-18.7,11.16-55.27,5.88-77.66-8.42-35.7-19.6-32.05-20.71-34.49l0-.06c-4.1-15.39-8.1-30.32-9-33.9C939.19,78,929.93,77.32,920.05,79.08c-8.38,1.49-14.95,3-22.94,3.78-11.68,1.07-18.07,4-13.78,20.85,3.65,14.41,14,52.17,18.71,67.25,2.11,6.77,2.69,7.27,3,10,1.44,4.75,3.69,8.25,6.83,10.49,2.8,4.21,8.21,10.49,18.94,21.11,6.8,6.74,9.65,18.54-9.52,47.11-23.37,34.84-57,83.77-63.33,97.23-4.28,9.06-31.17,47.5-47.7,69.39-.2-.17-.39-.33-.56-.45-2.68-2.05-21.52,36-48.75,37.52a70.3,70.3,0,0,0-8.15,1l-.12-.46-.15-.56-.45-1.69c-.06-.22-.12-.44-.17-.65l-.3-1.14-.18-.7-.27-1.1c-.06-.24-.13-.49-.19-.74s-.17-.72-.26-1.08l-.18-.75c-.09-.36-.17-.73-.26-1.09s-.11-.48-.17-.72c-.09-.4-.17-.79-.26-1.18,0-.21-.1-.42-.14-.62-.1-.48-.21-.94-.3-1.41l-.09-.39-.36-1.78c0-.12,0-.24-.07-.37-.09-.45-.18-.91-.26-1.36,0-.2-.07-.38-.11-.58-.06-.37-.13-.75-.19-1.13,0-.2-.07-.41-.11-.62s-.11-.69-.16-1-.07-.42-.1-.63-.09-.66-.13-1-.06-.4-.08-.59-.08-.66-.12-1l-.06-.53q0-.54-.09-1.05l0-.38c0-.47-.07-.92-.08-1.36a.76.76,0,0,0,0-.15c0-.38,0-.75,0-1.1,0-.13,0-.26,0-.39s0-.52,0-.76,0-.28,0-.42l.06-.63.06-.4c0-.19.06-.37.1-.55s.05-.23.07-.34.1-.33.15-.48a2.47,2.47,0,0,1,.1-.29,4.28,4.28,0,0,1,.2-.43c0-.07.07-.14.11-.2a2.37,2.37,0,0,1,.38-.49c13.85-13.5,15.28-38.25,9.59-61.13,17.63-3.89,12.61-41.52,12.61-41.52l-19.47,8.18c-7.54-64.57-74.88-63.35-96.15-18.37-15,31.77-31.48,100.81-108.49,159.61-3.31,2.53,31.86,22.71,69.77,43.24-15,23.87-23.06,56.51-32.82,97.77l3.58-.36c-1.15,3.63-2.45,7.87-3.74,12.49-23.13,46.78-58.39,141.86-71.21,185.17-25.38,27.51-72.08,194.47-74.05,211.51-.76,6.62,59.55,23,65.45,25.7,25.82,12,102.53,31,129.92,40.53,1.26.44,6.58-14.75,13.36-36.1,2.65,5,5.2,9.68,7.61,14.14l.6,1.13c4.75,8.8,8.92,16.5,12.1,22.61l.19.35q1.95,3.75,3.36,6.64c.19.39.38.77.55,1.13s.45,1,.65,1.39l.35.77c.41.92.75,1.74,1,2.41h0l-32.23,178.25h74.59ZM542.91,815.26l40.7-118.34c10.81,11.38,42.59-5.95,52.94-15a410.75,410.75,0,0,1-20.28,73.8v0l-.58,1.49,0,.11c-.18.47-.35.92-.53,1.37l-.05.13c-.16.42-.33.84-.48,1.24l-.08.18-.44,1.12-.08.19c-.14.35-.27.69-.41,1l-.08.2-.37.92-.08.19-.35.84-.06.16-.26.62a191.8,191.8,0,0,0-25.1,63C570.8,823.27,555.3,818.48,542.91,815.26Z"/><path class="cls-1" d="M863.86,1404.92l-6.14-.06C858.07,1409.7,861.37,1406.35,863.86,1404.92Z"/><path class="cls-1" d="M874.94,1405l-8.63-.07a1.79,1.79,0,0,1,.15.37C868.14,1411,871.94,1407.19,874.94,1405Z"/><path class="cls-1" d="M874.94,1405l3.83,0C878.14,1403.05,876.68,1403.75,874.94,1405Z"/><path class="cls-1" d="M887.82,1407.82a23.54,23.54,0,0,0,2.64-2.67l-11.69-.1c0,.13.08.27.12.43C879.17,1406.79,885.76,1409.78,887.82,1407.82Z"/><path class="cls-1" d="M857.72,1404.85c-.13-1.77-1.42-1.19-3.09,0l3.09,0Z"/><path class="cls-1" d="M863.86,1404.92l2.45,0C865.85,1404,864.93,1404.3,863.86,1404.92Z"/><path class="cls-1" d="M631.26,1407.79c5.29-2.68.16,5.88,12.62-.42,5.22-2.64.84,9.13,15.93-.31,4-2.47,4.22,7.89,17.88-1.91,3.44-2.47-.53,6.57,13.56.59,7.65-3.25.41,7.93,16.17-.31,9.62-5,.25,9.55,17.83.64,7.12-3.61.54,7.43,13.61.58,4.83-2.52,3.27,7.86,12.7.94,3-2.23.41,7.22,10.37-2,3.55-3.31,4.36.94,12.32.53a12,12,0,0,1,2.33.3c5.49,9.59,8.35-2,12.27,2.75,3.44,4.17,8.4-3.71,10.51-1,3.64,4.69,6.06-4.33,9.83-.74,5.45,5.18,9.5-5.92,12.09-.71,3.29,6.61,7.55-6.09,11.84.91,4.68,7.62,10.1-8.13,13.83,0,1.22,2.67,4.95-.84,7.68-2.76l-127-1.13,41.81-.53c3.14,0,6.21,0,9.11-.11l111.59-1.41C888,1391.8,884.6,1373,874.25,1373H872c11.91-7.51-17.07-35.31-28.21-41.4-27-14.79-22.38-37.48-51.69-10.38-15.81,14.62-24.93-28-43.22-15.71-9.93,6.69-13.66,14.15-15.35,21-1.12-.94-2.3-1.93-3.54-3-31.52-27.15-23.42-7-33.65.4l6.59-38.29c-1.14,4.09-5.8,29.66-6.84,38.46a13.89,13.89,0,0,1-7.5,2.27c-34.48,1.56-28.59-18.87-38.69-23.91,2.42-8.13,4.8-16.17,4.92-16.82l-5,16.8a11.8,11.8,0,0,0-5.29-1.09c-7.85,0-15.13,12.47-20.12,26.14l-2.81.25c.72.61,1.42,1.16,2.12,1.69-3.73,10.74-6,21.89-6,28.07,0,3.76-1.6,7.08-1.6,13.43-11.15,3-23.44,31.73-16.06,31.73,6.77,0,13.63.08,20.53.19l-20.53-.19c1.16,3.28,5.86,8.06,10.93,4.2C614.19,1404.34,614.41,1416.35,631.26,1407.79Zm211.46-34.92-57.65-.18C806.35,1372.39,829.33,1372.2,842.72,1372.87Z"/><path d="M970.14,246.76c10.86-18.84,11.62-55.75,6.1-79.15-7-29.64-16.25-33.28-20.2-34.83l-.71-.29c-.88-3.32-1.76-6.59-2.59-9.71-3-11.21-5.56-20.89-6.24-23.64C941.24,77.8,932,74.88,919.69,77.06c-2.33.41-4.53.83-6.66,1.24a161.16,161.16,0,0,1-16.11,2.52c-6.81.62-11.94,1.87-14.81,5.92-2.61,3.7-2.86,9.26-.77,17.48,3.7,14.58,14,52.09,18.74,67.35.86,2.77,1.47,4.5,1.92,5.77a15.8,15.8,0,0,1,1,3.84l.07.34q2.31,7.56,7.26,11.29c3,4.38,8.45,10.69,19,21.17,5.18,5.13,9.8,15.32-9.78,44.51-4.13,6.16-8.59,12.76-13.15,19.53-21.11,31.28-45,66.74-50.33,78-4,8.47-29.79,45.48-46.42,67.62a2.75,2.75,0,0,1,1.26.56l.55.45c.44.37.94.84,1.51,1.38,16.43-21.87,42.39-58.9,46.81-68.26,5.16-10.93,29-46.25,50-77.42,4.57-6.77,9-13.37,13.16-19.54,16.41-24.46,19.27-39.79,9.25-49.71-6.63-6.56-11.13-11.38-14.23-15-.8-.94-1.51-1.81-2.13-2.6-1-1.33-1.86-2.46-2.5-3.43a17.67,17.67,0,0,1-2.1-4.14c-2.47-7.5-1.06-8.79-1.05-8.8a.91.91,0,0,1,.51-.11c1,0,3.11.61,6.9,3.37a61.13,61.13,0,0,1,5.22,4.38c2.79,2.52,5.5,5,9.13,6.18a16.11,16.11,0,0,0,5.5.82,22.44,22.44,0,0,0,4-.43,16.79,16.79,0,0,0,4.58-1.72,33.23,33.23,0,0,0,5-3.34,39.66,39.66,0,0,0,4.18-3.85c3.8-4.16,4.17-12.53,3.34-21.35-.6-6.39-1.82-13-2.83-18.48l-.24-1.27-.19-1a26.91,26.91,0,0,1-.42-3.5,14.5,14.5,0,0,1,1.75.82c3.92,2.18,10.2,8.26,15.56,31s4.7,58.18-5.66,76.15c-8,13.8-15.07,27.5-22,40.76-8.14,15.66-16.56,31.85-26.36,48.22-14.58,24.36-28.78,48.39-33.88,59.19-3.26,6.9-20.38,39.65-38.2,70.93l1.4,1.68,1.4,1.68c18.15-31.76,35.79-65.51,39.1-72.54,5-10.64,19.17-34.56,33.7-58.83,9.86-16.48,18.31-32.73,26.48-48.44C955.12,274.15,962.23,260.48,970.14,246.76Z"/><path d="M633.71,1094.88a2.35,2.35,0,0,0,1.43-.5c.86-.65,2.54-1.93,12.35-32.43l-1.34-2.51-1.35-2.52c-7.52,23.63-10.56,31.21-11.77,33.51-10.66-3.63-27.94-8.55-46.19-13.75-31.14-8.86-66.43-18.9-82.25-26.25-1.69-.79-7-2.45-14.36-4.74-9.05-2.83-21.46-6.7-31.58-10.4-15.21-5.56-17.85-8.06-18.3-8.72,1.21-9.22,14.86-60.85,31.71-112.27,16.37-49.95,27.67-75.29,35.08-88.09,1.34-2.32,2.55-4.22,3.64-5.78a37,37,0,0,1,3.36-4.23c2-2.1,3.3-2.72,4.08-2.86h0c3.7-.68,11.59.7,22,3.34l2,.52,2,.52c11.57,3.09,25.73,7.45,40.62,12.2.13-.67.28-1.34.42-2s.28-1.34.43-2c-14.85-4.73-28.68-9-40.14-12l39-113.48a15.77,15.77,0,0,0,6.35,2.17,22.36,22.36,0,0,0,3,.19c12.45,0,29.71-8.78,39.64-15.87.19-1,.37-2,.54-3s.36-2,.54-3c-8.62,7.23-30.39,19.31-43.18,17.61a10.93,10.93,0,0,1-5.5-2.14,8.75,8.75,0,0,1-1.6-1.67c-.09-.13-.2-.25-.29-.39-.39-.6-.76-1.22-1.1-1.87-8.18-15.27-2.91-42.24,2.51-61.84,1.06-3.8,2.12-7.33,3.08-10.44.09-.26.17-.53.25-.79l-2.22.22h-.06l-2.16.21c-.88,2.86-1.82,6-2.75,9.3-16.59,33.53-36.92,87-43.75,105.33-8.51,22.78-20.64,56.81-27.41,79.64-3.94,4.43-9.24,12.94-16.48,29.3-7.66,17.3-16.35,40.74-25.84,69.69-16.59,50.62-30.8,103.65-31.92,113.32-.58,5.08,11.25,10.29,52.77,23.25,6.66,2.08,12.4,3.87,13.85,4.54,16.11,7.5,51.57,17.59,82.85,26.49,19,5.39,36.86,10.49,47.26,14.12A2.1,2.1,0,0,0,633.71,1094.88Zm-91.9-359.27C552.48,707,565.45,674.38,577,648.75c-3.27,17.45-4,36,3.69,47.77.2.3.41.57.62.84L541.59,812.81c-11.27-2.84-19.83-4.29-24.11-3.51h0a7.8,7.8,0,0,0-1.37.39C521.62,791.87,530.38,766.23,541.81,735.61Z"/><path d="M762.9,1169.63c-11.6,27.12-22.79,53.28-31.82,77.11l15.73,38.45H811L779,1131.86C773.56,1144.71,768.16,1157.33,762.9,1169.63Z"/><path d="M831.1,771.31H611.26a188.45,188.45,0,0,0-21.62,55.83l-.42,2c-.14.68-.29,1.35-.42,2-6.65,34.49-4.24,71.81,7.53,109.84,10.38,33.51,32,76.15,50.2,110.43l1.35,2.54c.45.84.9,1.69,1.35,2.52,3.16,5.91,6.2,11.54,9,16.78,6.24,11.56,11.26,20.86,14.33,27.12L698,960c1.51-11.16-4.25-19.1-11.47-28.87l-.18-.25L685,929l-1.54-2.11c-10.43-14.43-22.17-34-18.09-71.67.07-.68.15-1.36.23-2.05s.18-1.37.27-2.06c.69-5.16,1.66-10.62,3-16.46l4,.9c-1.33,5.94-2.31,11.47-3,16.67-.09.68-.19,1.38-.27,2s-.15,1.37-.22,2.05c-3.46,32.59,5.32,50.61,14.77,64.39.56.82,1.12,1.62,1.68,2.41s1.23,1.71,1.84,2.54l2,2.72c7,9.52,13.23,17.93,12.68,29.39l.22,0-.45,2.52c-.14,1.06-.34,2.16-.6,3.28l-57.85,319.87h70.6c3.3-11.38,7.55-23.69,12.44-36.68l1.06-2.82c.35-.92.72-1.86,1.07-2.79,8.77-22.8,19.36-47.56,30.32-73.18,6-14,12.18-28.49,18.34-43.24.47-1.11.93-2.23,1.4-3.34l1.39-3.36C826.53,1006.43,870.12,878.24,831.1,771.31Z"/><path d="M620.8,1413c2.82,0,6.51-.87,11.39-3.35l.48-.22h0c2.17,3.22,5.46,3.16,12.13-.21a1.75,1.75,0,0,1,.27-.12c.12.15.27.38.38.55,2.56,3.85,6,5.06,15.45-.83l.13-.08a7.27,7.27,0,0,1,1,.66c3.14,2.24,7.24,4.09,16.19-2.12,1.77,2.57,4.9,4.14,13.79.36a4.14,4.14,0,0,1,1.57-.44,6.35,6.35,0,0,1,.38.55c2.09,3.36,5.12,4.35,14.37-.48a6.22,6.22,0,0,1,2.28-.86,7.58,7.58,0,0,1,.41.81,5.93,5.93,0,0,0,3.39,3.55c2.5.86,6.12,0,11.73-2.85a5.92,5.92,0,0,1,1.23-.5c.07.13.15.3.22.42a5.1,5.1,0,0,0,3,2.93c2.06.67,4.89,0,9.17-2.28a3.1,3.1,0,0,1,.43-.18,5.14,5.14,0,0,1,.92.94c2.2,2.62,5,4.47,10.84.56a4,4,0,0,0,2.8,1.92c2.13.31,4.68-1.09,8.53-4.67,1-.92,1.06-.9,2.8-.25a18.73,18.73,0,0,0,8.23,1.33,3.09,3.09,0,0,1,.92.11h0c1.45,2.3,2.94,3.57,4.62,4,2.21.54,4-.6,5.3-1.44a7.89,7.89,0,0,1,1.53-.8s.18,0,.51.45c3,3.67,6.92,1.38,9,.14a14.83,14.83,0,0,1,1.68-.9,4.89,4.89,0,0,0,3.13,1.88c1.91.22,3.38-1,4.56-1.89,1.59-1.27,1.66-1.2,2.12-.77,4.14,3.94,8,1.06,10.13-.49a13.65,13.65,0,0,1,1.44-1l.1.18a5.07,5.07,0,0,0,3.23,3c2,.49,3.7-.74,5.18-1.83.76-.55,1.91-1.39,2.38-1.3.08,0,.49.14,1.14,1.2a5.89,5.89,0,0,0,3.94,3.06c2.5.43,4.58-1.28,6.41-2.78a9.26,9.26,0,0,1,2.54-1.72s.34.18.81,1.22a3.49,3.49,0,0,0,2.35,2c2.28.57,4.7-1.24,7-3,.41-.31.93-.7,1.41-1a3.83,3.83,0,0,0,1.93,2.65c2,1,4-.39,5.79-1.59.33-.22.79-.53,1.18-.77a5.24,5.24,0,0,0,3.12,3.38c2.59.84,5.05-1,7.23-2.7.54-.41,1.26-1,1.81-1.3.71,2.24,4.72,3.58,5.54,3.84,3,.92,5.32.69,6.75-.66l.36-.34c2.07-1.91,2.56-2.46,2.8-3.12l-3.85-1.4a1.38,1.38,0,0,1,.18-.36c-.26.34-1.51,1.49-1.92,1.87l-.38.36c-.85.53-4.54-.69-5.62-1.65a5,5,0,0,0-.31-.85l12.23-.15-1-4.42c-2.16-10-5.69-26.22-15.52-28.14.06-.15.13-.3.18-.46,4.22-12-21.72-35.47-31.64-40.89-8.48-4.64-13.78-10.12-18-14.52-4.88-5-8.73-8.6-13.78-8.7l-3-17.24-.36-2-.06-.35-2,.35-2,.35.29,1.7,3.1,17.84c-4.59,1.38-10.29,5.22-18.19,12.54-1.94,1.79-3.76,2.62-5.56,2.54-3.94-.19-7.91-4.63-12.13-9.32-4-4.52-8.72-9.72-14.23-11.29l-3.42-12.31-.57-2-.15-.55-2,.55-2,.54.41,1.51,3.31,11.89a14.41,14.41,0,0,0-6.69,2.58c-7.74,5.22-12.67,11.34-15.28,19.06l-1.12-.95c-12.83-11.06-20-15.14-24.76-14.11-3.56.78-5.06,4-6.51,7.21-.27.61-.55,1.22-.85,1.82,1.56-9.78,4.12-23.89,5.33-29.21.14-.62.27-1.14.37-1.5l-2-.55-2-.55c0,.15-.09.34-.14.55-.14.52-.29,1.22-.47,2-1.64,7.58-5.06,26.61-6.17,35.17a12.55,12.55,0,0,1-5.69,1.47c-22.25,1-26.47-7.28-30.2-14.59-1.56-3.06-3.16-6.18-6-8.2,2.13-7.17,3.44-11.62,4.07-13.85.27-.95.42-1.5.45-1.68l-1.94-.37-2.09-.4a3.75,3.75,0,0,1-.1.4c-.11.42-.31,1.13-.58,2-.78,2.71-2.14,7.28-3.57,12.1a15.45,15.45,0,0,0-4-.49c-9,0-16.67,13-21.87,27.18l-2.38,2.83c.36.31.72.6,1.08.89-3.61,10.83-5.69,21.69-5.69,27.3a24.52,24.52,0,0,1-.61,4.55,45.34,45.34,0,0,0-1,7.43c-9.69,4.21-19.29,23.31-18.26,31.09a4.43,4.43,0,0,0,2.78,3.9,11,11,0,0,0,6.28,5.55,7.85,7.85,0,0,0,6.92-1.23c.16.15.35.33.5.49A11.06,11.06,0,0,0,620.8,1413Zm22.15-7.43c-3.89,2-5.56,2.18-6.19,2.14-.32,0-.32,0-.69-.56-1-1.41-2.46-2.82-5.74-1.15-10.15,5.15-13.13,2.22-15.1.28a7.62,7.62,0,0,0-2.05-1.55c10.09.11,20.32.33,30.4.56A6.79,6.79,0,0,0,643,1405.54Zm5.92,1.82a5.77,5.77,0,0,0-2-2l1.26,0,10.13.23C650.78,1410.19,649.72,1408.63,648.87,1407.36Zm15.58-1.32-.47-.33,8.72.17C667.85,1408.46,666,1407.14,664.45,1406Zm34.13.43a.77.77,0,0,1-.72-.35h2.89A6.48,6.48,0,0,1,698.58,1406.47Zm17.22.4c-.31-.11-.5-.34-.79-.92l3.63-.08,2.19,0C717.56,1407.15,716.26,1407,715.8,1406.87Zm-96.68-44.13a27.69,27.69,0,0,0,.68-5.34c0-5.05,1.74-14.67,5-24.8,5.17,3.42,9.81,4.78,14.16,4.78,7.55,0,14.27-4.08,21.56-8.51,1.84-1.12,3.75-2.28,5.74-3.42l-.64-1.12c4.91,2.75,12.07,4.48,23,4a16.69,16.69,0,0,0,7.28-1.84,12.77,12.77,0,0,0,2.07-1.36c3-2.4,4.51-5.7,5.76-8.43s2.17-4.59,3.66-4.91c3.15-.69,10.09,3.63,21.21,13.21l2.58,2.19c-3.27,13.92-2.7,17.93-2.09,22.16.48,3.29,1,6.69-.33,15.72a10.91,10.91,0,0,0,.23,5.34c-22.18.79-47,1-50.49.87-1.48-.07-5-.07-9.94-.07h-2c-13,0-42.6,0-48.39-1.49A39.89,39.89,0,0,1,619.12,1362.74Zm8.55-38.08c5.37-13.37,11.69-21.36,16.89-21.36a11.34,11.34,0,0,1,2.82.32,7.4,7.4,0,0,1,3.65,2.11,23.8,23.8,0,0,1,3.61,5.77c1.82,3.59,4,7.8,8.37,11.12-1.58.92-3.12,1.85-4.6,2.75-11.71,7.11-19.76,12-32.22,3.21C626.66,1327.27,627.15,1326,627.67,1324.66Zm142.3-9a55.6,55.6,0,0,0,8.17,8,20.11,20.11,0,0,0-4.1,3.51c-3.68,4.69-11.8,4.84-18.32,5l-1.69,0c-2.95.07-10.34-2-15-3.84a20.94,20.94,0,0,1-3.45-1.62c.08-.33.17-.66.27-1,1.46-5.15,4.7-12.13,14.18-18.52C757.21,1302.33,762.35,1307.14,770,1315.64Zm15,10.67c2.91.14,5.78-1.08,8.53-3.62,18.35-17,21.6-13.6,30.3-4.6,4.45,4.6,10,10.33,19,15.27,10.88,6,32.56,27.89,29.74,35.93a3.51,3.51,0,0,1-1.19,1.61l-28.65-.08c-6.75-.33-15.84-.46-25.9-.46s-21.12.13-31.75.28l-4.27,0a2.74,2.74,0,0,0-.58-.25l-.07.25-12.64,0-7.94,0-24.6-.08a7,7,0,0,1-.75-.28,2.92,2.92,0,0,1-1-.68c-.54-.62-.63-1.75-.33-3.88,1.39-9.61.83-13.47.34-16.89-.53-3.71-1-7,1.41-17.94.71.38,1.5.75,2.35,1.11a55.94,55.94,0,0,0,5.71,2c1.57.47,3.15.89,4.63,1.23a35.56,35.56,0,0,0,6.69,1.09h.13l1.67,0c7.39-.14,16.58-.32,21.47-6.53a20.48,20.48,0,0,1,3.66-3c.51-.35.92-.65,1.27-.91A9.92,9.92,0,0,0,785,1326.31Zm15.65,74.42-22.16.28-9,.11-47.69.6v0c.83-7.41,3-22.24,9.83-27.1h2.74l44.62.14h6.1l57.7.18,29.82.09h1.64c7.9,0,11.33,15.18,13.38,24.62Zm-68.72,6.12c-.16-.06-.3-.28-.6-.88,0-.08-.09-.17-.14-.26l5.12-.07C733.22,1407.06,732.16,1406.93,731.89,1406.85Zm18.45-.91c-4.07,3-4.81,2.11-6,.65a12,12,0,0,0-1-1l7.87-.1A4.19,4.19,0,0,0,750.34,1405.94Zm5.15,1.7c-.09-.12-.2-.32-.29-.46a3.9,3.9,0,0,0-1.71-1.75l5.56-.07C756.81,1407.24,755.8,1407.58,755.49,1407.64Zm47.62-1.2a6.73,6.73,0,0,1-1.51,1,2.15,2.15,0,0,1-.62-.6c-2-2.63-5-.89-6.77.16-2.73,1.61-3.18,1.5-3.77.79-2.84-3.44-5.94-1.46-7.42-.5-.83.53-1.61,1-2.11.91-.32-.08-1.2-.51-2.55-2.88l-.14-.24,27.61-.34A9.93,9.93,0,0,0,803.11,1406.44Zm12.36-1.35c-2.53,1.88-3.42,2.19-4.86.82a5.29,5.29,0,0,0-1.83-1.18l7.32-.09Zm10,.38a9.17,9.17,0,0,1-1.77,1.12,3,3,0,0,1-.54-.82,5.55,5.55,0,0,0-.81-1.21l4.52-.06C826.33,1404.81,825.87,1405.15,825.43,1405.47Zm13.7.31c-1,.8-2.45,2-3.12,1.9-.23,0-.65-.36-1.14-1.16a7.85,7.85,0,0,0-1.77-2.1l7.95-.1C840.38,1404.77,839.74,1405.28,839.13,1405.78Zm12.87-1.56a19.93,19.93,0,0,1-3.34,2.2,7.38,7.38,0,0,0-1.57-2.18l5-.06Zm9.31-.1c-.42.28-1,.69-1.51,1a3.43,3.43,0,0,1,0-.38,3.75,3.75,0,0,0-.08-.61l1.71,0Zm11.33.05c-.86.66-2.86,2.19-3.46,2.06,0,0-.37-.22-.75-1.5a4,4,0,0,0-.31-.75l4.86-.06ZM601,1393.64c2.75-8.33,9.14-18.14,14.69-20.49a18.24,18.24,0,0,0,5.51,1.12c3.06.32,7.5.56,13.19.73,10.34.3,23,.3,32.18.3,5.68,0,10.18,0,11.76.07.48,0,1.78,0,3.72,0,7.42,0,24.26-.18,41.07-.69l2.66-.08c-5.14,6.7-7.14,18-8.16,27.15-22.8.55-46.41,0-69.42-.52-15.91-.36-32.35-.74-48.16-.75C599.87,1400.05,599.58,1398.07,601,1393.64Zm8.74,11.49a4,4,0,0,1-3.68.86,5.57,5.57,0,0,1-2.2-1.36l6.63,0A3.61,3.61,0,0,0,609.78,1405.13Z"/><path d="M613.64,520.78l1.8,1,1.82,1c-13.39,22.09-21.13,51.68-29.17,85.41-.57,2.42-1.15,4.85-1.73,7.31l1.6-.16,1-.11,1.2-.12,1.32-.13,2.55-.25,16.22-1.62,2.25-.22,2.24-.23,23.52-2.34q-.3-3.35-.7-6.69c-.21-1.79-.52-5-.87-8.88-.06-.66-.12-1.35-.18-2.05s-.12-1.36-.18-2.07c-1.15-13.58-2.52-32.42-2.52-37.16l4.09-.16,3,37.49.16,2.08.16,2.09,1.5,19h0c.17,2.51.3,5,.39,7.52l-2.06,0h-.13a34.24,34.24,0,0,1-1.74,8c-2.43,8.11-6.68,19.08-8.09,20.47l2.78,3c1.25-1.15,3.14-5.16,5-10,.77-2,1.54-4.14,2.26-6.28.79-2.34,1.52-4.68,2.13-6.82a298.73,298.73,0,0,1-3.78,46.91c-.16,1-.32,2-.49,3s-.35,2.11-.54,3.15a412.28,412.28,0,0,1-18.87,69.74c-.57,1.56-1.13,3-1.65,4.42-1.47,3.85-2.73,7-3.67,9.22-.12.29-.24.56-.34.81h216a1.21,1.21,0,0,1,0-.18c-12.44-48.94-20.18-92-23.13-128.68a12.74,12.74,0,0,0,2.25,2.09,3.4,3.4,0,0,0,2.1.67,3.21,3.21,0,0,0,.53-.07c.32-.09.65-.16,1-.24,2-.45,4.51-1,5.94-3.44a7.19,7.19,0,0,0,.89-2.68c1,1.91,1.14,2,1.45,2.27,4.66,3.87,8.29,5.16,11.08,3.93a5.52,5.52,0,0,0,2.94-3.31,14.2,14.2,0,0,0,2,2.42c2.22,2.14,4.21,2.77,5.76,2.77a5.76,5.76,0,0,0,3-.84c3.8-2.35,4.85-8.75,2.61-15.93-8.37-26.78-24-33.83-38.36-35.1-.68-.06-1.36-.11-2-.14s-1.37-.06-2-.08c1.46-26.24,6.7-46.14,15.08-56.81,3-3.8,11.13-13,19.75-22.65,8-9,16.29-18.31,20.25-23.14-4-4.91-8.9-10.86-14.07-17.09l-1.4-1.69L844,467.6c-13.08-15.69-27.26-32.31-33.43-38.32-.41-.4-.8-.77-1.14-1.07-1,1.05-2.69,3.24-4.22,5.22-1.84,2.39-4,5.23-6.56,8.22-1.65,2-3.44,4-5.36,6-8.39,8.73-19.31,17-32.19,17.74-1.84.1-3.75.32-5.69.61-.19-.67-.37-1.33-.55-2s-.36-1.33-.54-2c-4.22-15.94-6.12-28.67-4.23-30.51,14.33-14,15.67-38.84,10.58-61.18l-.48-2c-.17-.67-.34-1.34-.52-2a10.25,10.25,0,0,0,1.91-1.07c9-6.57,8.16-27.41,7.52-34.87l-15.5,6.51c-.07-.72-.16-1.42-.24-2.12s-.19-1.41-.29-2.11c-4-26.72-18.8-44.77-40.65-48.84-23.62-4.4-47.9,9-59,32.52-2.62,5.53-5.23,12.06-8.25,19.62-14.47,36.2-36.34,90.92-99.63,139.24a2.53,2.53,0,0,0-1,2.31C544.69,479.63,545.05,483.59,613.64,520.78ZM649,337.42c3-7.49,5.58-14,8.15-19.39,10.33-21.86,32.78-34.29,54.57-30.24,20.29,3.78,34,21,37.5,46.45.09.7.17,1.41.25,2.12s.15,1.42.21,2.14c0,.4.08.79.11,1.2a3.35,3.35,0,0,1-.51.8,13.52,13.52,0,0,1-1.52,1.51q-.71.62-1.59,1.29c-6.6,5.1-20.13,12.81-24.18,13.94l-2.11.59.73,2.06a3.58,3.58,0,0,0,.52.92c.32.5,1.11,1.75,1.36,2.16.78,2.18,1.51,4.36,2.21,6.54.29.88.57,1.77.84,2.65s.54,1.82.8,2.73c9.45,32.62,9.57,64.84,6.12,92.18-.1.74-.19,1.47-.29,2.2l-.3,2.2c-1.21,8.48-2.74,16.45-4.42,23.76-.17.74-.35,1.47-.52,2.2s-.35,1.47-.53,2.19-.28,1.17-.43,1.74a300.69,300.69,0,0,1-22.84,61.84c-24.93-12.74-55.93-29-83.63-43.94l-1.81-1-1.8-1c-33.91-18.41-62.1-34.62-66.76-39.73C612.43,428.77,634.39,373.84,649,337.42ZM756.2,369.16c.16.67.33,1.34.48,2,4.87,21.13,3.77,44.47-9.45,57.36-1.82,1.77-3.4,6.08.54,23.87.77,3.51,1.65,7,2.52,10.3.18.67.35,1.33.53,2l.24.9a2.85,2.85,0,0,0-1.27,1.4,4.76,4.76,0,0,0-.35,1c-.09.39-.27,1.36-.59,3.19-.54,3-2,11-2.54,12.32-3,4.53-8.36,8.25-14.42,10.43,1.62-7.3,3.08-15.21,4.23-23.6.09-.73.19-1.46.29-2.2l.27-2.19c3.42-28.48,3-62-7.55-95.87-.25-.81-.5-1.61-.77-2.42s-.49-1.51-.74-2.26c-.45-1.33-.9-2.65-1.39-4a5.23,5.23,0,0,0-.66-1.18,130.88,130.88,0,0,0,14.72-8c3.34-2.07,5.85-3.8,7.76-5.26,1.17,2.34,2.29,4.81,3.34,7.39a111.82,111.82,0,0,1,4.28,12.77C755.85,367.79,756,368.47,756.2,369.16Zm51.43,225.67c.68,0,1.37.09,2,.15,13.17,1.24,27,7.83,34.63,32.22,1.93,6.18.67,10.28-.85,11.22-1.26.78-3-.72-3.73-1.39-1.74-1.68-3.2-4.66-4.64-8.07-1.51-8.12-6.73-18-13.32-21.68l-2,3.56c4.74,2.77,7.5,9.63,10.17,16.26.41,1,.83,2,1.24,3a18.92,18.92,0,0,1,.28,3.86c-.08,1.64-.51,2.83-1.12,3.1-.3.14-2,.6-6.59-3.14-.42-.71-1.65-3.1-2.75-5.22-1.48-2.85-3.31-6.39-4.82-9.14-2.59-4.71-3.42-6.05-5.22-5.68a2.09,2.09,0,0,0-1.35.92,2.28,2.28,0,0,0-.37,1.07,3.11,3.11,0,0,0,.45,1.73c.23.49.56,1.13,1,2a51.46,51.46,0,0,1,3.77,8.28c1.33,4.53,1,6.47.54,7.31s-1.58,1.13-3.31,1.52l-.58.13a3.9,3.9,0,0,1-.41-.36,31.58,31.58,0,0,1-2.23-2.49l-.89-1.08c-.5-.63-1-1.16-1.37-1.66q-.9-13.83-.85-26.34c0-3.51.1-6.91.23-10.23C806.27,594.77,807,594.8,807.63,594.83Z"/><path d="M513,969.44h.17c11.12.1,17.91,10.08,20.19,29.66.1.86.36,3.13,2.27,3.81,2.12.76,4-1,7-3.89,5-4.82,13.29-12.78,26.16-13.33a31.11,31.11,0,0,0,3.39,6.37c2.29,3.46,3.94,6,3.94,22.66,0,1,0,4.22,2.3,5.57a4.18,4.18,0,0,0,2.17.56c2.54,0,5.8-1.84,10.49-4.49a124.15,124.15,0,0,1,14-7l1-.37c3.24-1.21,5.17-2,6.09-2.83l-2.73-3.07a32.66,32.66,0,0,1-4.79,2.05l-1.1.42a127.94,127.94,0,0,0-14.42,7.27c-3.3,1.87-7.39,4.17-8.54,4a4.29,4.29,0,0,1-.3-2c0-17.93-2-21-4.62-24.92a27,27,0,0,1-3.45-6.86l-.48-1.38h-1.46c-15.34,0-25.15,9.43-30.42,14.5-.78.75-1.67,1.61-2.37,2.21-3.25-27.06-14.93-32.85-24.18-32.94H513c-17.59,0-39.4,21-40.36,28.13l4.06.55C477.27,989.82,496.89,969.44,513,969.44Z"/><path d="M464,1004.14l4,.9c2.29-10.19,18.41-49.06,32.64-83.35,14.54-35.06,21.75-52.68,23.44-59,6.53.58,16.58,4.23,26.32,7.78,11.17,4.06,22.68,8.23,30.86,8.67.69,0,1.37.06,2,0l-.13-4.1c-.63,0-1.31,0-2,0-7.49-.48-18.58-4.52-29.33-8.43-11.45-4.16-22.27-8.1-29.38-8.1h-2.23l.18,2.15c-.31,3.43-12.64,33.16-23.53,59.41C482.55,954.56,466.35,993.6,464,1004.14Z"/><path d="M538.34,896.91c-11,0-19.4,5.61-23.13,15.4-4.41,11.62-1.17,26.24,7.56,34A22.29,22.29,0,0,0,537.82,952c4.41,0,9.65-1.17,15.75-4.35,11.73-6.11,17.64-18.3,14.69-30.31C565.85,907.45,556.72,896.91,538.34,896.91Z"/><rect x="842.97" y="55.58" width="4.1" height="40.77" transform="translate(387.77 790.64) rotate(-62.53)"/><rect x="819.18" y="101.35" width="36.04" height="4.1" transform="translate(-4.91 152.94) rotate(-10.41)"/><rect x="852.41" y="122.73" width="29.48" height="4.1" transform="translate(501.92 921.1) rotate(-73.55)"/><rect x="863.24" y="52.32" width="35.92" height="4.1" transform="translate(727.19 923.71) rotate(-83.49)"/></svg>