<svg width="34" height="34" viewBox="0 0 34 34" xmlns="http://www.w3.org/2000/svg" fill="black">
    <path clip-rule="evenodd" d="
    M 0 12.14
    v 9.72
    a 12.14 12.14 0 0 0 12.14 12.14
    h 9.72
    a 12.14 12.14 0 0 0 12.14 -12.14
    v -9.72
    a 12.14 12.14 0 0 0 -12.14 -12.14
    h -9.72
    a 12.14 12.14 0 0 0 -12.14 12.14
    M 12.14 4.86
    h 9.72
    a 7.29 7.29 0 0 1 7.29 7.29
    v 9.72
    a 7.29 7.29 0 0 1 -7.29 7.29
    h -9.72
    a 7.29 7.29 0 0 1 -7.29 -7.29
    v -9.72
    a 7.29 7.29 0 0 1 7.29 -7.29
  " />
</svg>
