<svg width="34" height="34" viewBox="0 0 34 34" fill="none" xmlns="http://www.w3.org/2000/svg">
    <path d="M16.9997 33.6666C14.6941 33.6666 12.5275 33.2289 10.4997 32.3533C8.4719 31.4778 6.70801 30.2905 5.20801 28.7916C3.70801 27.2928 2.52079 25.5289 1.64634 23.5C0.771899 21.4711 0.334121 19.3044 0.33301 17C0.331899 14.6955 0.769677 12.5289 1.64634 10.5C2.52301 8.47109 3.71023 6.7072 5.20801 5.20831C6.70579 3.70942 8.46968 2.5222 10.4997 1.64665C12.5297 0.771091 14.6963 0.333313 16.9997 0.333313C19.303 0.333313 21.4697 0.771091 23.4997 1.64665C25.5297 2.5222 27.2936 3.70942 28.7913 5.20831C30.2891 6.7072 31.4769 8.47109 32.3547 10.5C33.2325 12.5289 33.6697 14.6955 33.6663 17C33.663 19.3044 33.2252 21.4711 32.353 23.5C31.4808 25.5289 30.2936 27.2928 28.7913 28.7916C27.2891 30.2905 25.5252 31.4783 23.4997 32.355C21.4741 33.2316 19.3075 33.6689 16.9997 33.6666Z" fill="black"/>
</svg>
