<svg height="2500" viewBox=".82 .51 958.8 958.8" width="2499" xmlns="http://www.w3.org/2000/svg"><path d="m959.62 484.03c0 225.24-150.78 358.42-256.43 418.45-69.42 39.44-117.21 56.83-179.43 56.83-144.54 0-204.91-88.4-204.91-165.37 3.98-279.03-3.28-387.62-3.57-395.1-.38-9.73-.74-24.96-10.18-25.97-5.74-.62-9.44 1.14-16.04 9.38-9.89 13.19-29.85 18.41-42 11.36-14.67-8.52-17.41-27.33-9.98-44.64 20.6-46.15 53.63-66.57 98.15-65.93 76.91 1.1 98.98 51.52 98.98 114.51-1.14 63.62-1.71 112.47-1.71 146.53 27.2-22.25 67.18-46.12 133.95-46.12 92.23 0 171.73 67.96 171.73 193.41 0 73.7-19.24 111.55-19.38 111.91 93.32-81.42 145.02-209.07 145.02-314.79 0-173.03-134.42-377.17-385.79-377.17-206.51 0-389.84 173.73-389.84 380.2 0 114.96 59.77 230.05 146.23 306.07 22.28 19.59 23.27 47.55 11.28 59.16-14.21 13.78-39.02 15.25-59.84-.82-108.14-83.45-185.04-222.35-185.04-366.12 0-277.27 213.05-489.3 477.21-489.3 253.66 0 481.59 202.08 481.59 483.52zm-332.47 221.04c0-77.23-39.3-104.21-98.3-92.41-47.43 9.49-95.49 58.93-100.69 127.65-.86 11.34-1.15 30.13-.25 47.77 2.4 47.03 41.65 64.33 95.46 63.38 89.29-1.56 103.78-94.2 103.78-146.39z" fill="#ee6123"/></svg>