<?xml version="1.0" encoding="UTF-8" standalone="no"?>
<!DOCTYPE svg PUBLIC "-//W3C//DTD SVG 1.1//EN" "http://www.w3.org/Graphics/SVG/1.1/DTD/svg11.dtd">
<svg xmlns="http://www.w3.org/2000/svg" version="1.1" viewBox="0.00 0.00 400.00 400.00">
<g stroke-width="2.00" fill="none" stroke-linecap="butt">
<path stroke="#91caf1" vector-effect="non-scaling-stroke" d="
  M 368.05 202.00
  A 168.05 168.05 0.0 0 0 200.00 33.95
  A 168.05 168.05 0.0 0 0 31.95 202.00
  A 168.05 168.05 0.0 0 0 200.00 370.05
  A 168.05 168.05 0.0 0 0 368.05 202.00"
/>
<path stroke="#91caf1" vector-effect="non-scaling-stroke" d="
  M 353.08 202.00
  A 143.17 143.17 0.0 0 0 209.91 58.83
  A 143.17 143.17 0.0 0 0 66.74 202.00
  A 143.17 143.17 0.0 0 0 209.91 345.17
  A 143.17 143.17 0.0 0 0 353.08 202.00"
/>
<path stroke="#91caf1" vector-effect="non-scaling-stroke" d="
  M 200.15 239.30
  Q 200.55 238.86 200.75 239.42
  Q 205.76 252.95 211.08 268.61
  C 215.37 281.24 222.52 291.19 237.16 290.34
  Q 245.03 289.89 251.72 286.33
  C 261.27 281.27 269.24 273.15 275.84 264.63
  Q 284.53 253.43 290.74 242.56
  A 2.48 2.47 -35.5 0 0 291.02 240.90
  Q 290.61 238.77 289.27 238.60
  Q 286.22 238.21 284.36 240.68
  Q 272.44 256.50 258.27 266.96
  C 253.29 270.63 244.06 276.23 239.15 269.47
  Q 236.55 265.90 235.49 263.05
  C 231.36 251.96 227.40 240.58 220.40 230.94
  Q 219.94 230.32 220.71 230.25
  C 236.95 228.79 251.74 223.74 263.69 213.77
  C 278.44 201.47 286.65 184.39 285.49 165.25
  C 283.27 128.79 250.40 110.46 217.06 110.07
  C 187.13 109.72 156.09 115.84 130.25 130.43
  C 124.06 133.92 110.71 142.74 109.35 150.12
  C 107.20 161.75 115.23 172.26 124.59 178.25
  A 0.69 0.68 -57.0 0 0 125.52 178.05
  Q 128.68 173.25 132.59 169.20
  Q 140.81 160.69 150.07 153.36
  Q 158.46 146.72 169.63 141.42
  Q 186.18 133.58 200.49 130.37
  C 215.46 127.01 236.44 126.42 248.81 137.59
  C 255.66 143.78 259.78 151.79 259.57 161.35
  C 258.94 191.09 242.01 213.94 212.81 222.25
  Q 212.17 222.43 211.60 222.09
  L 207.35 219.59
  A 0.64 0.64 0.0 0 1 207.07 218.82
  C 215.50 195.57 224.68 172.67 232.44 149.08
  Q 233.51 145.84 233.17 143.99
  C 232.31 139.24 224.53 138.52 220.72 138.67
  Q 214.30 138.92 207.78 140.76
  Q 207.24 140.91 207.05 141.43
  C 198.22 165.41 188.07 190.47 179.60 215.65
  Q 179.43 216.17 178.90 216.31
  Q 175.53 217.16 173.14 219.43
  C 169.70 222.70 170.74 227.62 174.25 230.39
  Q 174.76 230.79 174.58 231.41
  Q 169.47 248.87 164.01 268.60
  Q 161.80 276.57 160.90 282.81
  C 159.93 289.56 166.15 293.80 172.39 293.87
  Q 176.71 293.92 181.25 293.42
  Q 181.80 293.36 181.98 292.83
  Q 190.92 266.44 199.91 239.72
  Q 199.98 239.49 200.15 239.30"
/>
</g>
<path fill="#2394e2" d="
  M 368.05 202.00
  A 168.05 168.05 0.0 0 1 200.00 370.05
  A 168.05 168.05 0.0 0 1 31.95 202.00
  A 168.05 168.05 0.0 0 1 200.00 33.95
  A 168.05 168.05 0.0 0 1 368.05 202.00
  Z
  M 353.08 202.00
  A 143.17 143.17 0.0 0 0 209.91 58.83
  A 143.17 143.17 0.0 0 0 66.74 202.00
  A 143.17 143.17 0.0 0 0 209.91 345.17
  A 143.17 143.17 0.0 0 0 353.08 202.00
  Z"
/>
<path fill="#ffffff" d="
  M 353.08 202.00
  A 143.17 143.17 0.0 0 1 209.91 345.17
  A 143.17 143.17 0.0 0 1 66.74 202.00
  A 143.17 143.17 0.0 0 1 209.91 58.83
  A 143.17 143.17 0.0 0 1 353.08 202.00
  Z
  M 200.15 239.30
  Q 200.55 238.86 200.75 239.42
  Q 205.76 252.95 211.08 268.61
  C 215.37 281.24 222.52 291.19 237.16 290.34
  Q 245.03 289.89 251.72 286.33
  C 261.27 281.27 269.24 273.15 275.84 264.63
  Q 284.53 253.43 290.74 242.56
  A 2.48 2.47 -35.5 0 0 291.02 240.90
  Q 290.61 238.77 289.27 238.60
  Q 286.22 238.21 284.36 240.68
  Q 272.44 256.50 258.27 266.96
  C 253.29 270.63 244.06 276.23 239.15 269.47
  Q 236.55 265.90 235.49 263.05
  C 231.36 251.96 227.40 240.58 220.40 230.94
  Q 219.94 230.32 220.71 230.25
  C 236.95 228.79 251.74 223.74 263.69 213.77
  C 278.44 201.47 286.65 184.39 285.49 165.25
  C 283.27 128.79 250.40 110.46 217.06 110.07
  C 187.13 109.72 156.09 115.84 130.25 130.43
  C 124.06 133.92 110.71 142.74 109.35 150.12
  C 107.20 161.75 115.23 172.26 124.59 178.25
  A 0.69 0.68 -57.0 0 0 125.52 178.05
  Q 128.68 173.25 132.59 169.20
  Q 140.81 160.69 150.07 153.36
  Q 158.46 146.72 169.63 141.42
  Q 186.18 133.58 200.49 130.37
  C 215.46 127.01 236.44 126.42 248.81 137.59
  C 255.66 143.78 259.78 151.79 259.57 161.35
  C 258.94 191.09 242.01 213.94 212.81 222.25
  Q 212.17 222.43 211.60 222.09
  L 207.35 219.59
  A 0.64 0.64 0.0 0 1 207.07 218.82
  C 215.50 195.57 224.68 172.67 232.44 149.08
  Q 233.51 145.84 233.17 143.99
  C 232.31 139.24 224.53 138.52 220.72 138.67
  Q 214.30 138.92 207.78 140.76
  Q 207.24 140.91 207.05 141.43
  C 198.22 165.41 188.07 190.47 179.60 215.65
  Q 179.43 216.17 178.90 216.31
  Q 175.53 217.16 173.14 219.43
  C 169.70 222.70 170.74 227.62 174.25 230.39
  Q 174.76 230.79 174.58 231.41
  Q 169.47 248.87 164.01 268.60
  Q 161.80 276.57 160.90 282.81
  C 159.93 289.56 166.15 293.80 172.39 293.87
  Q 176.71 293.92 181.25 293.42
  Q 181.80 293.36 181.98 292.83
  Q 190.92 266.44 199.91 239.72
  Q 199.98 239.49 200.15 239.30
  Z"
/>
<path fill="#2394e2" d="
  M 200.15 239.30
  Q 199.98 239.49 199.91 239.72
  Q 190.92 266.44 181.98 292.83
  Q 181.80 293.36 181.25 293.42
  Q 176.71 293.92 172.39 293.87
  C 166.15 293.80 159.93 289.56 160.90 282.81
  Q 161.80 276.57 164.01 268.60
  Q 169.47 248.87 174.58 231.41
  Q 174.76 230.79 174.25 230.39
  C 170.74 227.62 169.70 222.70 173.14 219.43
  Q 175.53 217.16 178.90 216.31
  Q 179.43 216.17 179.60 215.65
  C 188.07 190.47 198.22 165.41 207.05 141.43
  Q 207.24 140.91 207.78 140.76
  Q 214.30 138.92 220.72 138.67
  C 224.53 138.52 232.31 139.24 233.17 143.99
  Q 233.51 145.84 232.44 149.08
  C 224.68 172.67 215.50 195.57 207.07 218.82
  A 0.64 0.64 0.0 0 0 207.35 219.59
  L 211.60 222.09
  Q 212.17 222.43 212.81 222.25
  C 242.01 213.94 258.94 191.09 259.57 161.35
  C 259.78 151.79 255.66 143.78 248.81 137.59
  C 236.44 126.42 215.46 127.01 200.49 130.37
  Q 186.18 133.58 169.63 141.42
  Q 158.46 146.72 150.07 153.36
  Q 140.81 160.69 132.59 169.20
  Q 128.68 173.25 125.52 178.05
  A 0.69 0.68 -57.0 0 1 124.59 178.25
  C 115.23 172.26 107.20 161.75 109.35 150.12
  C 110.71 142.74 124.06 133.92 130.25 130.43
  C 156.09 115.84 187.13 109.72 217.06 110.07
  C 250.40 110.46 283.27 128.79 285.49 165.25
  C 286.65 184.39 278.44 201.47 263.69 213.77
  C 251.74 223.74 236.95 228.79 220.71 230.25
  Q 219.94 230.32 220.40 230.94
  C 227.40 240.58 231.36 251.96 235.49 263.05
  Q 236.55 265.90 239.15 269.47
  C 244.06 276.23 253.29 270.63 258.27 266.96
  Q 272.44 256.50 284.36 240.68
  Q 286.22 238.21 289.27 238.60
  Q 290.61 238.77 291.02 240.90
  A 2.48 2.47 -35.5 0 1 290.74 242.56
  Q 284.53 253.43 275.84 264.63
  C 269.24 273.15 261.27 281.27 251.72 286.33
  Q 245.03 289.89 237.16 290.34
  C 222.52 291.19 215.37 281.24 211.08 268.61
  Q 205.76 252.95 200.75 239.42
  Q 200.55 238.86 200.15 239.30
  Z"
/>
</svg>
