<svg width="40" height="40" viewBox="0 0 40 40" fill="none" xmlns="http://www.w3.org/2000/svg">
    <path d="M30.975 9.78594L33.425 7.09063C33.6432 6.84457 33.7558 6.52239 33.7381 6.19394C33.7204 5.86549 33.574 5.55725 33.3306 5.33603C33.0871 5.11481 32.7663 4.99845 32.4377 5.01218C32.1091 5.02591 31.7991 5.16863 31.575 5.40938L29.125 8.10313C26.1419 5.81206 22.4066 4.72603 18.6601 5.06049C14.9136 5.39494 11.4297 7.12544 8.89963 9.90868C6.36952 12.6919 4.97805 16.3245 5.00126 20.0858C5.02448 23.8471 6.46069 27.4623 9.02497 30.2141L6.57497 32.9094C6.46226 33.0304 6.3747 33.1727 6.31737 33.3278C6.26004 33.483 6.23407 33.648 6.24098 33.8133C6.24788 33.9785 6.28752 34.1408 6.35759 34.2906C6.42767 34.4405 6.52679 34.5749 6.6492 34.6862C6.77162 34.7974 6.91489 34.8833 7.07073 34.9387C7.22657 34.9942 7.39186 35.0182 7.55704 35.0093C7.72221 35.0004 7.88398 34.9588 8.03297 34.887C8.18195 34.8151 8.31519 34.7144 8.42497 34.5906L10.875 31.8969C13.8581 34.1879 17.5934 35.274 21.3398 34.9395C25.0863 34.6051 28.5702 32.8746 31.1003 30.0913C33.6304 27.3081 35.0219 23.6755 34.9987 19.9142C34.9755 16.1529 33.5392 12.5377 30.975 9.78594ZM7.49997 20C7.50136 17.6859 8.14512 15.4175 9.35955 13.4477C10.574 11.4778 12.3114 9.88371 14.3783 8.84296C16.4452 7.80222 18.7605 7.35568 21.0662 7.55306C23.3719 7.75045 25.5775 8.58403 27.4375 9.96094L10.7187 28.3563C8.6459 26.0668 7.49862 23.0884 7.49997 20ZM20 32.5C17.3203 32.5028 14.7116 31.6396 12.5625 30.0391L29.2812 11.6438C30.8987 13.4382 31.9612 15.6631 32.34 18.0491C32.7188 20.435 32.3977 22.8796 31.4155 25.0868C30.4333 27.2939 28.8321 29.1689 26.806 30.4847C24.7799 31.8004 22.4158 32.5005 20 32.5Z" fill="#6E7275"/>
</svg>
