<svg width="48" height="48" viewBox="0 0 48 48" fill="none" xmlns="http://www.w3.org/2000/svg">
    <path d="M31.91 16C32 15.67 32 0 32 0H30C26.69 0 24 2.69 24 6V8H22C18.69 8 16 10.69 16 14V16H24V24H32V32H40V40H38C34.69 40 32 42.69 32 46V48H42C45.31 48 48 45.31 48 42V16H31.91ZM46 0C42.69 0 40 2.69 40 6V8H42C45.31 8 48 5.31 48 2V0H46ZM8 10V8H10C13.31 8 16 5.31 16 2V0H6C2.69 0 0 2.69 0 6V16H2C5.31 16 8 13.31 8 10ZM24 24H16V16H14C10.69 16 8 18.69 8 22V24H6C2.69 24 0 26.69 0 30V48H18C21.31 48 24 45.31 24 42V40H26C29.31 40 32 37.31 32 34V32H24V24ZM8 40V32H16V40H8Z" fill="black"/>
</svg>
