<svg width="320" height="418" viewBox="0 0 320 418" fill="none" xmlns="http://www.w3.org/2000/svg">
    <path d="M266.1 149.5V100.1H143.3C143.3 100.1 143.3 100.2 143.2 100.2C141.1 104 138.5 107.1 135.2 109.9H256.3V149.5H266.1Z" fill="#97949C"/>
    <path d="M256.3 340V291.9H266.1V340H256.3Z" fill="#97949C"/>
    <path d="M50.4 325.6V109.9H86.4C84.8 107.7 83.1 105.6 81.7 103.3C81 102.2 80.4 101.1 79.9 100.1H40.6V325.6H50.4Z" fill="#97949C"/>
    <path d="M249.2 381.8H57.4C48.1 381.8 40.5 374.2 40.5 364.9V317H266V364.9C266.1 374.3 258.5 381.8 249.2 381.8Z" fill="#97949C"/>
    <path d="M26.4 249.6C16.9 249.6 3.4 241.1 3.4 222C3.4 209 10.5 195.1 16.3 183.9C18.5 179.6 20.6 175.5 21.8 172.4C23.1 169.1 21.5 163 19.7 156.1C16.8 144.8 12.7 129.3 16.5 110.2C19.8 93.5 28.5 81 42.3 73.2C52.8 67.2 63.4 65.6 68.3 65C68.5 64.8 68.6 64.6001 68.8 64.4001C72.9 59.9001 82.6 49.2001 95.5 39.7001C111.9 27.5001 127.9 21.3 142.9 21.3C158.7 21.3 173.9 26.3001 186.7 35.9001C196.4 43.1001 201.4 50.4001 201.6 50.7001C203.1 53 202.5 56 200.3 57.5C198.1 59 195 58.4001 193.5 56.2001C193.5 56.1001 189.1 49.8 180.6 43.5C169.4 35.3 156.8 31.1 143 31.1C122.7 31.1 100.2 44.5 76.2 71C75.3 72 74.7 72.6 74.3 73.1C73.5 73.9 72.6 74.3 71.6 74.5C71.2 74.6 70.8 74.6 70.2 74.7C45.3 78.1 30.4 90.7 26.2 112.2C22.9 129.1 26.4 142.8 29.3 153.7C31.6 162.6 33.5 169.7 31.1 176C29.7 179.6 27.5 183.9 25.1 188.5C19.8 198.7 13.3 211.5 13.3 222.1C13.3 235.5 22.2 239.9 26.4 239.9C32.8 239.9 37.6 236.2 40.4 228.9C41.4 226.4 44.2 225.1 46.7 226.1C49.2 227.1 50.5 229.9 49.5 232.4C47.1 238.4 43.6 243 39 246C35.3 248.4 31 249.6 26.4 249.6Z" fill="#97949C"/>
    <path d="M110.1 124.8C99.9 124.8 90.7 120.7 83.4 112.9C78 107.1 75.5 101.3 75.4 101.1C74.4 98.6 75.5 95.7 78 94.7C80.5 93.7 83.4 94.8 84.4 97.3C84.4 97.3 86.4 102 90.7 106.5C96.2 112.2 102.7 115.1 110.1 115.1C128.5 115.1 135.6 102.6 135.7 102.5C136.6 101 138.2 100 140 100H251.3C253.3 93.4 253.4 86.4 251.4 79.7C248.8 70.4 242.7 62.8 234.2 58.1C225.8 53.4 216.1 52.3 206.8 55C201 56.7 195.7 59.7 191.5 63.9C189.6 65.8 186.5 65.8 184.6 63.8C182.7 61.8 182.7 58.8 184.7 56.9C190.1 51.6 196.9 47.6 204.2 45.6C216 42.2 228.4 43.6 239.1 49.6C249.8 55.6 257.6 65.3 260.9 77.1C263.7 87 263.2 97.3 259.4 106.8C258.6 108.7 256.8 109.9 254.9 109.9H142.6C138.9 114.6 128.8 124.8 110.1 124.8Z" fill="#97949C"/>
    <path d="M100.9 73.2C100.2 73.2 99.5 72.9 98.9 72.4C97.7 71.3 97.7 69.4 98.7 68.2C109.6 56.5 126.5 42.6 145 43.1C150.4 43.2 155.8 44.2 160.8 46.1C162.3 46.7 163.1 48.4 162.6 49.9C162 51.4 160.3 52.2 158.8 51.7C154.3 50.1 149.6 49.1 144.8 49.1C128.5 48.6 113 61.5 103 72.3C102.5 72.9 101.7 73.2 100.9 73.2Z" fill="#97949C"/>
    <path d="M292.1 301.7H261.4V291.9H292.1C300.1 291.9 306.7 285.4 306.7 277.3V164.1C306.7 156.1 300.2 149.5 292.1 149.5H261.4V139.7H292.1C305.5 139.7 316.5 150.7 316.5 164.1V277.3C316.5 290.8 305.5 301.7 292.1 301.7Z" fill="#97949C"/>
    <path d="M285.8 275.3H256.4V166.1H285.8C290.5 166.1 294.3 169.9 294.3 174.6V266.8C294.4 271.5 290.5 275.3 285.8 275.3ZM266.3 265.5H284.6V175.9H266.3V265.5Z" fill="#97949C"/>
    <path d="M77.3 130.3H229.6C234.8 130.3 239 134.5 239 139.7V292C239 297.2 234.8 301.4 229.6 301.4H77.3C72.1 301.4 67.9 297.2 67.9 292V139.7C67.8 134.5 72.1 130.3 77.3 130.3Z" fill="#E5E7EF"/>
    <path d="M133.1 155.5H93V195.6H133.1V155.5ZM123.7 186.1H102.5V164.8H123.7V186.1Z" fill="#97949C"/>
    <path d="M117.7 170.8H108.3V180.2H117.7V170.8Z" fill="#97949C"/>
    <path d="M213.8 155.5H173.7V195.6H213.8V155.5ZM204.4 186.1H183.1V164.8H204.4V186.1Z" fill="#97949C"/>
    <path d="M198.4 170.8H189V180.2H198.4V170.8Z" fill="#97949C"/>
    <path d="M133.1 236.1H93V276.2H133.1V236.1ZM123.7 266.8H102.5V245.6H123.7V266.8Z" fill="#97949C"/>
    <path d="M117.7 251.5H108.3V260.9H117.7V251.5Z" fill="#97949C"/>
    <path d="M111.8 201.9H102.4V211.3H111.8V201.9Z" fill="#97949C"/>
    <path d="M121.1 220.8V230.2H130.5V220.8H121.3V211.4H111.9V220.8H121.1Z" fill="#97949C"/>
    <path d="M168.5 173.6H159.1V183H168.5V173.6Z" fill="#97949C"/>
    <path d="M149.6 164.9H140.2V183H149.6V164.9Z" fill="#97949C"/>
    <path d="M159 155.5H149.6V164.9H159V155.5Z" fill="#97949C"/>
    <path d="M159.1 183.1H149.6V192.5H140.2V201.9H159.1V183.1Z" fill="#97949C"/>
    <path d="M149.6 230.2V239.5H159.1V248.7H177.9V239.2H159.1V230H149.6V211.4H140.2V230.2H149.6Z" fill="#97949C"/>
    <path d="M168.5 201.9H159.1V220.8H168.5V201.9Z" fill="#97949C"/>
    <path d="M187.4 230H213.8V211.1H204.4V201.9H187.2V211.3H178V220.7H187.4V230ZM187.4 211.4H204.4V220.6H187.4V211.4Z" fill="#97949C"/>
    <path d="M213.8 239.2H204.4V258.1H213.8V239.2Z" fill="#97949C"/>
    <path d="M177.9 220.8H168.5V230.2H177.9V220.8Z" fill="#97949C"/>
    <path d="M187.3 248.7H177.9V258.1H187.3V248.7Z" fill="#97949C"/>
    <path d="M196.8 239.2H187.4V248.6H196.8V239.2Z" fill="#97949C"/>
    <path d="M196.8 276.3V267.4H204.4V258H187.4V276.3H196.8Z" fill="#97949C"/>
    <path d="M149.6 239.5H140.2V257.5H149.6V239.5Z" fill="#97949C"/>
    <path d="M159.1 276.3V266.8H168.3V276.3H177.7V266.8H168.5V257.4H149.6V276.3H159.1Z" fill="#97949C"/>
    <path d="M140.2 201.9H121.3V211.3H140.2V201.9Z" fill="#97949C"/>
    <path d="M84 364.1C80.7 364.1 78.2 363.2 76.4 361.5C74.6 359.8 73.7 357.2 73.7 353.9H80.3C80.3 355.5 80.6 356.7 81.3 357.5C81.9 358.3 82.8 358.7 84 358.7C85 358.7 85.7 358.4 86.3 357.8C86.9 357.2 87.1 356.5 87.1 355.5C87.1 354.6 86.8 353.8 86.3 353.2C85.8 352.6 85 352 83.9 351.4L80.1 349.6C78 348.6 76.5 347.4 75.5 346C74.5 344.6 74 342.9 74 340.8C74 338.3 74.9 336.2 76.6 334.7C78.3 333.2 80.6 332.4 83.5 332.4C86.6 332.4 89 333.2 90.6 334.8C92.2 336.4 93 338.7 93 341.8H86.5C86.5 339 85.4 337.6 83.3 337.6C82.4 337.6 81.7 337.9 81.2 338.4C80.7 338.9 80.4 339.6 80.4 340.5C80.4 341.4 80.7 342.1 81.2 342.7C81.7 343.3 82.6 343.9 83.9 344.5L87.9 346.5C89.9 347.6 91.3 348.7 92.2 350.1C93.1 351.4 93.5 353.1 93.5 355C93.5 357.7 92.6 359.9 90.9 361.6C89.3 363.3 87 364.1 84 364.1Z" fill="white"/>
    <path d="M105 363.9C102 363.9 99.6 362.9 97.9 361C96.2 359.1 95.3 356.4 95.3 353C95.3 349.7 96.2 347.1 97.9 345.1C99.7 343.1 102 342.1 104.9 342.1C107.8 342.1 110.1 342.8 111.7 344.3C113.3 345.7 114.1 347.8 114.1 350.5H108C107.9 348.4 106.9 347.4 105 347.4C103.9 347.4 103 347.9 102.4 348.9C101.8 349.9 101.5 351.3 101.5 353C101.5 356.7 102.7 358.6 105.1 358.6C106.9 358.6 107.9 357.6 108.1 355.7H114.2C114.1 358.4 113.2 360.4 111.6 361.8C110 363.1 107.8 363.9 105 363.9Z" fill="white"/>
    <path d="M124.3 363.9C121.8 363.9 119.8 362.9 118.4 360.9C116.9 358.9 116.2 356.3 116.2 353C116.2 349.7 116.9 347.1 118.4 345.2C119.9 343.2 121.9 342.2 124.3 342.2C127.1 342.2 129 343.4 130 345.8V342.8H136.3V363.3H130V360.3C128.9 362.6 127 363.9 124.3 363.9ZM126.3 358.6C127.5 358.6 128.5 358.1 129.2 357.2C129.9 356.2 130.2 354.9 130.2 353.1C130.2 351.3 129.9 350 129.2 349C128.5 348 127.6 347.6 126.3 347.6C125 347.6 124.1 348.1 123.4 349C122.7 349.9 122.4 351.3 122.4 353.1C122.4 354.9 122.7 356.3 123.4 357.2C124.1 358.1 125 358.6 126.3 358.6Z" fill="white"/>
    <path d="M140.4 363.3V342.8H146.6V345.7C147.7 343.4 149.7 342.2 152.4 342.2C154.4 342.2 156 342.8 157.1 344.1C158.2 345.4 158.7 347.3 158.7 349.8V363.2H152.4V351.5C152.4 350.1 152.2 349 151.8 348.4C151.4 347.7 150.7 347.4 149.7 347.4C147.6 347.4 146.6 349 146.6 352.1V363.2H140.4V363.3Z" fill="white"/>
    <path d="M171.1 363.3V333.3H178.5L184.2 354.7L189.9 333.3H197.3V363.3H191.3V345L186.4 363.3H182L177.1 345V363.3H171.1Z" fill="white"/>
    <path d="M219.3 351.8C219.3 352.9 219.2 353.8 219.1 354.8H206.5C206.6 356.2 206.9 357.3 207.5 358.1C208.1 358.9 209 359.3 210.2 359.3C211.9 359.3 212.9 358.6 213.3 357.2H218.9C218.6 359.4 217.7 361 216.2 362.2C214.7 363.4 212.7 364 210.2 364C207 364 204.6 363.1 202.8 361.2C201.1 359.3 200.2 356.7 200.2 353.2C200.2 349.7 201.1 347.1 202.8 345.1C204.5 343.2 206.9 342.2 210 342.2C212.9 342.2 215.2 343.1 216.8 344.8C218.5 346.4 219.3 348.9 219.3 351.8ZM206.5 350.8H213.3C213.3 347.9 212.2 346.4 210 346.4C207.8 346.4 206.6 347.8 206.5 350.8Z" fill="white"/>
    <path d="M237.8 362.4C237 363.2 235.9 363.7 234.7 363.7C233.5 363.7 232.5 363.3 231.6 362.4C230.8 361.6 230.3 360.6 230.3 359.4C230.3 358.2 230.7 357.2 231.6 356.4C232.4 355.6 233.5 355.1 234.7 355.1C235.9 355.1 236.9 355.5 237.8 356.4C238.6 357.2 239.1 358.2 239.1 359.4C239.1 360.6 238.7 361.6 237.8 362.4ZM231.6 352.9V333.3H238V352.9H231.6Z" fill="white"/>
</svg>
