<svg width="320" height="418" viewBox="0 0 320 418" fill="none" xmlns="http://www.w3.org/2000/svg">
    <g clip-path="url(#clip0_1247_3)">
        <path d="M320.5 343.8V408.6C319.8 413.3 316.2 416.9 311.5 417.6H9.10001C1.30001 415 -0.299988 412.6 -0.299988 404.1C-0.299988 385.5 -0.299988 366.9 -0.299988 348.3C-0.299988 337.3 4.30001 332.6 15.3 332.3C21.1 332.1 26.9 332.3 32.7 332.3H299C301.3 332.3 303.6 332.3 306 332.4C314.7 332.7 318.5 335.8 320.5 343.8Z" fill="#97949C"/>
        <path d="M306.8 0.0999756H305.8C208.7 0.0999756 111.6 0.0999756 14.5 0.0999756C12.3 0.0999756 10.2 0.299976 8.1 0.699976C3.8 1.49998 1.39999 4.29997 0.299995 8.19998C-0.300005 10.6 -0.500005 13.1 -0.400005 15.6C-0.400005 112.5 -0.400005 209.5 -0.400005 306.4C-0.400005 307.4 -0.400005 308.4 -0.400005 309.4C-5.21541e-06 318 4.39999 322.4 12.9 322.9C15.2 323 17.5 323 19.9 323H224.7C251.5 323 278.4 323.1 305.2 323C314.9 323 318 320.5 320.3 311.5V10.6C318.1 1.99998 315.8 0.199976 306.8 0.0999756ZM307.5 161.4C307.5 208.9 307.4 256.4 307.6 303.8C307.6 307.9 306.6 308.9 302.5 308.9C207.7 308.8 112.9 308.8 18 308.9C13.8 308.9 12.9 307.9 12.9 303.8C13 208.7 13 113.6 12.9 18.4C12.9 14.2 13.9 13.3 18 13.3C112.8 13.4 207.6 13.4 302.5 13.3C306.6 13.3 307.6 14.3 307.6 18.4C307.4 66.2 307.5 113.8 307.5 161.4Z" fill="#97949C"/>
        <path d="M38.4 22.8H281.7C290 22.8 296.8 29.5 296.8 37.9V281.2C296.8 289.5 290.1 296.3 281.7 296.3H38.4C30.1 296.3 23.3 289.6 23.3 281.2V37.8C23.3 29.5 30.1 22.8 38.4 22.8Z" fill="#E5E7EF"/>
        <path d="M127.6 63H63.5V127.1H127.6V63ZM112.5 112H78.6V78H112.5V112Z" fill="#97949C"/>
        <path d="M103.1 87.5H88V102.6H103.1V87.5Z" fill="#97949C"/>
        <path d="M256.5 63H192.4V127.1H256.5V63ZM241.6 112H207.6V78H241.6V112Z" fill="#97949C"/>
        <path d="M232 87.5H216.9V102.6H232V87.5Z" fill="#97949C"/>
        <path d="M127.6 191.9H63.5V256H127.6V191.9ZM112.5 240.9H78.6V207H112.5V240.9Z" fill="#97949C"/>
        <path d="M103.1 216.4H88V231.5H103.1V216.4Z" fill="#97949C"/>
        <path d="M93.7 137.2H78.6V152.3H93.7V137.2Z" fill="#97949C"/>
        <path d="M108.4 167.4V182.4H123.4V167.4H108.7V152.3H93.7V167.4H108.4Z" fill="#97949C"/>
        <path d="M184.3 92H169.2V107.1H184.3V92Z" fill="#97949C"/>
        <path d="M154 78H138.9V107H154V78Z" fill="#97949C"/>
        <path d="M169.2 63H154.1V78.1H169.2V63Z" fill="#97949C"/>
        <path d="M169.2 107.1H154.1V122.1H138.9V137.2H169.2V107.1Z" fill="#97949C"/>
        <path d="M154.1 182.4V197.2H169.2V211.9H199.3V196.8H169.2V182.1H154.1V152.3H138.9V182.4H154.1Z" fill="#97949C"/>
        <path d="M184.3 137.2H169.2V167.4H184.3V137.2Z" fill="#97949C"/>
        <path d="M214.4 182.1H256.6V151.9H241.6V137.2H214.1V152.3H199.4V167.4H214.5V182.1H214.4ZM214.4 152.3H241.6V167H214.5L214.4 152.3Z" fill="#97949C"/>
        <path d="M256.7 196.8H241.6V227H256.7V196.8Z" fill="#97949C"/>
        <path d="M199.3 167.4H184.2V182.5H199.3V167.4Z" fill="#97949C"/>
        <path d="M214.4 211.9H199.3V227H214.4V211.9Z" fill="#97949C"/>
        <path d="M229.5 196.8H214.4V211.9H229.5V196.8Z" fill="#97949C"/>
        <path d="M229.4 256V241.9H241.6V226.9H214.4V256H229.4Z" fill="#97949C"/>
        <path d="M154 197.2H138.9V225.9H154V197.2Z" fill="#97949C"/>
        <path d="M169.2 256V240.9H183.9V256H198.9V240.9H184.2V225.8H154.1V256H169.2Z" fill="#97949C"/>
        <path d="M138.9 137.2H108.7V152.3H138.9V137.2Z" fill="#97949C"/>
        <path d="M87.7 389.8C84.4 389.8 81.9 388.9 80.1 387.2C78.3 385.5 77.4 382.9 77.4 379.6H84C84 381.2 84.3 382.4 85 383.2C85.6 384 86.5 384.4 87.7 384.4C88.7 384.4 89.4 384.1 90 383.5C90.6 382.9 90.8 382.2 90.8 381.2C90.8 380.3 90.5 379.5 90 378.9C89.5 378.3 88.7 377.7 87.6 377.1L83.8 375.3C81.7 374.3 80.2 373.1 79.2 371.7C78.2 370.3 77.7 368.6 77.7 366.5C77.7 364 78.6 361.9 80.3 360.4C82 358.9 84.3 358.1 87.2 358.1C90.3 358.1 92.7 358.9 94.3 360.5C95.9 362.1 96.7 364.4 96.7 367.5H90.2C90.2 364.7 89.1 363.3 87 363.3C86.1 363.3 85.4 363.6 84.9 364.1C84.4 364.6 84.1 365.3 84.1 366.2C84.1 367.1 84.4 367.8 84.9 368.4C85.4 369 86.3 369.6 87.6 370.2L91.6 372.2C93.6 373.3 95 374.4 95.9 375.8C96.8 377.1 97.2 378.8 97.2 380.7C97.2 383.4 96.3 385.6 94.6 387.3C93 389 90.7 389.8 87.7 389.8Z" fill="white"/>
        <path d="M108.7 389.6C105.7 389.6 103.3 388.6 101.6 386.7C99.9 384.8 99 382.1 99 378.7C99 375.4 99.9 372.8 101.6 370.8C103.4 368.8 105.7 367.8 108.6 367.8C111.5 367.8 113.8 368.5 115.4 370C117 371.4 117.8 373.5 117.8 376.2H111.7C111.6 374.1 110.6 373.1 108.7 373.1C107.6 373.1 106.7 373.6 106.1 374.6C105.5 375.6 105.2 377 105.2 378.7C105.2 382.4 106.4 384.3 108.8 384.3C110.6 384.3 111.6 383.3 111.8 381.4H117.9C117.8 384.1 116.9 386.1 115.3 387.5C113.7 388.8 111.5 389.6 108.7 389.6Z" fill="white"/>
        <path d="M128 389.6C125.5 389.6 123.5 388.6 122.1 386.6C120.6 384.6 119.9 382 119.9 378.7C119.9 375.4 120.6 372.8 122.1 370.9C123.6 368.9 125.6 367.9 128 367.9C130.8 367.9 132.7 369.1 133.7 371.5V368.5H140V389H133.7V386C132.6 388.3 130.7 389.6 128 389.6ZM130 384.3C131.2 384.3 132.2 383.8 132.9 382.9C133.6 381.9 133.9 380.6 133.9 378.8C133.9 377 133.6 375.7 132.9 374.7C132.2 373.7 131.3 373.3 130 373.3C128.7 373.3 127.8 373.8 127.1 374.7C126.4 375.6 126.1 377 126.1 378.8C126.1 380.6 126.4 382 127.1 382.9C127.8 383.8 128.7 384.3 130 384.3Z" fill="white"/>
        <path d="M144.1 389V368.5H150.3V371.4C151.4 369.1 153.4 367.9 156.1 367.9C158.1 367.9 159.7 368.5 160.8 369.8C161.9 371.1 162.4 373 162.4 375.5V388.9H156.1V377.2C156.1 375.8 155.9 374.7 155.5 374.1C155.1 373.4 154.4 373.1 153.4 373.1C151.3 373.1 150.3 374.7 150.3 377.8V388.9H144.1V389Z" fill="white"/>
        <path d="M174.8 389V359H182.2L187.9 380.4L193.6 359H201V389H195V370.7L190.1 389H185.7L180.8 370.7V389H174.8Z" fill="white"/>
        <path d="M223 377.5C223 378.6 222.9 379.5 222.8 380.5H210.2C210.3 381.9 210.6 383 211.2 383.8C211.8 384.6 212.7 385 213.9 385C215.6 385 216.6 384.3 217 382.9H222.6C222.3 385.1 221.4 386.7 219.9 387.9C218.4 389.1 216.4 389.7 213.9 389.7C210.7 389.7 208.3 388.8 206.5 386.9C204.8 385 203.9 382.4 203.9 378.9C203.9 375.4 204.8 372.8 206.5 370.8C208.2 368.9 210.6 367.9 213.7 367.9C216.6 367.9 218.9 368.8 220.5 370.5C222.2 372.1 223 374.6 223 377.5ZM210.2 376.5H217C217 373.6 215.9 372.1 213.7 372.1C211.5 372.1 210.3 373.5 210.2 376.5Z" fill="white"/>
        <path d="M241.5 388.1C240.7 388.9 239.6 389.4 238.4 389.4C237.2 389.4 236.2 389 235.3 388.1C234.5 387.3 234 386.3 234 385.1C234 383.9 234.4 382.9 235.3 382.1C236.1 381.3 237.2 380.8 238.4 380.8C239.6 380.8 240.6 381.2 241.5 382.1C242.3 382.9 242.8 383.9 242.8 385.1C242.8 386.3 242.4 387.3 241.5 388.1ZM235.3 378.6V359H241.7V378.6H235.3Z" fill="white"/>
    </g>
</svg>
