<svg width="320" height="418" viewBox="0 0 320 418" fill="none" xmlns="http://www.w3.org/2000/svg">
    <g clip-path="url(#clip0_1247_673)">
        <path d="M320.4 15C320.4 4.09998 316.8 0.0999756 306.5 0.0999756C208.8 0.0999756 111 0.0999756 13.2 0.0999756C4.19998 0.0999756 1.89998 1.99998 -0.400024 10.5V406.8C0.199976 412.4 2.39998 416.7 8.59998 417.8H311C314.6 416.8 318 415.4 319.3 411.5C320.2 408.6 320.5 405.7 320.4 402.7C320.4 386.3 320.4 369.9 320.4 353.4C320.4 240.6 320.4 127.8 320.4 15ZM307.1 303.8C307.1 307.9 306.2 308.9 302 308.9C207.2 308.8 112.3 308.8 17.5 308.9C13.4 308.9 12.4 308 12.4 303.8C12.6 256.3 12.5 208.9 12.5 161.4C12.5 113.8 12.6 66.1 12.4 18.5C12.4 14.4 13.3 13.4 17.5 13.4C112.3 13.5 207.2 13.5 302 13.4C306.1 13.4 307.1 14.3 307.1 18.5C307 113.6 307 208.6 307.1 303.8Z" fill="#212121"/>
        <path d="M87.3 381C84 381 81.5 380.1 79.7 378.4C77.9 376.7 77 374.1 77 370.8H83.6C83.6 372.4 83.9 373.6 84.6 374.4C85.2 375.2 86.1 375.6 87.3 375.6C88.3 375.6 89 375.3 89.6 374.7C90.2 374.1 90.4 373.4 90.4 372.4C90.4 371.5 90.1 370.7 89.6 370.1C89.1 369.5 88.3 368.9 87.2 368.3L83.4 366.5C81.3 365.5 79.8 364.3 78.8 362.9C77.8 361.5 77.3 359.8 77.3 357.7C77.3 355.2 78.2 353.1 79.9 351.6C81.6 350.1 83.9 349.3 86.8 349.3C89.9 349.3 92.3 350.1 93.9 351.7C95.5 353.3 96.3 355.6 96.3 358.7H89.8C89.8 355.9 88.7 354.5 86.6 354.5C85.7 354.5 85 354.8 84.5 355.3C84 355.8 83.7 356.5 83.7 357.4C83.7 358.3 84 359 84.5 359.6C85 360.2 85.9 360.8 87.2 361.4L91.2 363.4C93.2 364.5 94.6 365.6 95.5 367C96.4 368.3 96.8 370 96.8 371.9C96.8 374.6 95.9 376.8 94.2 378.5C92.6 380.2 90.3 381 87.3 381Z" fill="white"/>
        <path d="M108.3 380.8C105.3 380.8 102.9 379.8 101.2 377.9C99.5 376 98.6 373.3 98.6 369.9C98.6 366.6 99.5 364 101.2 362C103 360 105.3 359 108.2 359C111.1 359 113.4 359.7 115 361.2C116.6 362.6 117.4 364.7 117.4 367.4H111.3C111.2 365.3 110.2 364.3 108.3 364.3C107.2 364.3 106.3 364.8 105.7 365.8C105.1 366.8 104.8 368.2 104.8 369.9C104.8 373.6 106 375.5 108.4 375.5C110.2 375.5 111.2 374.5 111.4 372.6H117.5C117.4 375.3 116.5 377.3 114.9 378.7C113.3 380 111.1 380.8 108.3 380.8Z" fill="white"/>
        <path d="M127.6 380.8C125.1 380.8 123.1 379.8 121.7 377.8C120.2 375.8 119.5 373.2 119.5 369.9C119.5 366.6 120.2 364 121.7 362.1C123.2 360.1 125.2 359.1 127.6 359.1C130.4 359.1 132.3 360.3 133.3 362.7V359.7H139.6V380.2H133.3V377.2C132.2 379.5 130.3 380.8 127.6 380.8ZM129.6 375.5C130.8 375.5 131.8 375 132.5 374.1C133.2 373.1 133.5 371.8 133.5 370C133.5 368.2 133.2 366.9 132.5 365.9C131.8 364.9 130.9 364.5 129.6 364.5C128.3 364.5 127.4 365 126.7 365.9C126 366.8 125.7 368.2 125.7 370C125.7 371.8 126 373.2 126.7 374.1C127.4 375 128.3 375.5 129.6 375.5Z" fill="white"/>
        <path d="M143.7 380.2V359.7H149.9V362.6C151 360.3 153 359.1 155.7 359.1C157.7 359.1 159.3 359.7 160.4 361C161.5 362.3 162 364.2 162 366.7V380.1H155.7V368.4C155.7 367 155.5 365.9 155.1 365.3C154.7 364.6 154 364.3 153 364.3C150.9 364.3 149.9 365.9 149.9 369V380.1H143.7V380.2Z" fill="white"/>
        <path d="M174.4 380.2V350.2H181.8L187.5 371.6L193.2 350.2H200.6V380.2H194.6V361.9L189.7 380.2H185.3L180.4 361.9V380.2H174.4Z" fill="white"/>
        <path d="M222.6 368.7C222.6 369.8 222.5 370.7 222.4 371.7H209.8C209.9 373.1 210.2 374.2 210.8 375C211.4 375.8 212.3 376.2 213.5 376.2C215.2 376.2 216.2 375.5 216.6 374.1H222.2C221.9 376.3 221 377.9 219.5 379.1C218 380.3 216 380.9 213.5 380.9C210.3 380.9 207.9 380 206.1 378.1C204.4 376.2 203.5 373.6 203.5 370.1C203.5 366.6 204.4 364 206.1 362C207.8 360.1 210.2 359.1 213.3 359.1C216.2 359.1 218.5 360 220.1 361.7C221.8 363.3 222.6 365.8 222.6 368.7ZM209.8 367.7H216.6C216.6 364.8 215.5 363.3 213.3 363.3C211.1 363.3 209.9 364.7 209.8 367.7Z" fill="white"/>
        <path d="M241.1 379.3C240.3 380.1 239.2 380.6 238 380.6C236.8 380.6 235.8 380.2 234.9 379.3C234.1 378.5 233.6 377.5 233.6 376.3C233.6 375.1 234 374.1 234.9 373.3C235.7 372.5 236.8 372 238 372C239.2 372 240.2 372.4 241.1 373.3C241.9 374.1 242.4 375.1 242.4 376.3C242.4 377.5 242 378.5 241.1 379.3ZM234.9 369.8V350.2H241.3V369.8H234.9Z" fill="white"/>
    </g>
</svg>
