<svg width="320" height="418" viewBox="0 0 320 418" fill="none" xmlns="http://www.w3.org/2000/svg">
    <path d="M302.7 58.8V344.1H17.3V58.8H302.7ZM302.7 46.4H17.3C10.4 46.4 4.90002 52 4.90002 58.8V344.1C4.90002 351 10.5 356.5 17.3 356.5H302.6C309.5 356.5 315 350.9 315 344.1V58.8C315.1 52 309.5 46.4 302.7 46.4Z" fill="currentColor" />
    <path d="M302.7 410.5H17.3C10.4 410.5 4.90002 404.9 4.90002 398.1V344.4H315V398.1C315.1 404.9 309.5 410.5 302.7 410.5Z" fill="currentColor" />
    <g id="qr-frame-secondary-color" fill="currentColor">
        <path d="M115.8 27.9H204.8C216.5 27.9 226 37.4 226 49.1V64.3C226 66.6 224.2 68.4 221.9 68.4H98.7C96.4 68.4 94.6 66.6 94.6 64.3V49.1C94.6 37.4 104.1 27.9 115.8 27.9Z" />
    </g>
    <path d="M160.3 48.5C171.622 48.5 180.8 39.3218 180.8 28C180.8 16.6782 171.622 7.5 160.3 7.5C148.978 7.5 139.8 16.6782 139.8 28C139.8 39.3218 148.978 48.5 160.3 48.5Z" fill="currentColor" />
    <path d="M160.3 36.1C164.773 36.1 168.4 32.4735 168.4 28C168.4 23.5265 164.773 19.9 160.3 19.9C155.826 19.9 152.2 23.5265 152.2 28C152.2 32.4735 155.826 36.1 160.3 36.1Z" fill="white"/>
    <text id="qr-frame-text" x="160" y="390" font-size="40px" font-weight="600" font-family="Inter, sans-serif" fill="white" text-anchor="middle">Scan Me!</text>
</svg>
