<svg width="320" height="418" viewBox="0 0 320 418" fill="none" xmlns="http://www.w3.org/2000/svg">
<path d="M11 302.3H282.2C284.7 302.3 286.8 304.3 286.8 306.9V307.8C286.8 320.3 284.8 322.4 282.2 322.4H11C8.50002 322.4 6.40002 320.4 6.40002 307.8V306.9C6.40002 304.3 8.50002 302.3 11 302.3Z" fill="currentColor"/>
<path d="M250.3 352.7H42.9C25.8 352.7 12 338.9 12 321.8H281.2C281.2 338.9 267.4 352.7 250.3 352.7Z" fill="currentColor"/>
<path d="M216.9 327.3H76.3C50.1 327.3 28.9 306 28.9 279.9V97.2C28.9 92.6 32.6 88.9 37.2 88.9H256C260.6 88.9 264.3 92.6 264.3 97.2V132.9C292.3 135.5 314.3 159 314.3 187.7C314.3 216.4 292.3 239.9 264.3 242.5V279.9C264.3 306 243 327.3 216.9 327.3ZM39 99V279.9C39 300.5 55.8 317.2 76.3 317.2H216.8C237.4 317.2 254.1 300.4 254.1 279.9V232.6H259.1C283.9 232.6 304 212.5 304 187.7C304 162.9 283.9 142.8 259.1 142.8H254.1V99H39Z" fill="currentColor"/>
<path d="M259.2 217.3H254.2V158H259.2C275.5 158 288.8 171.3 288.8 187.6C288.8 203.9 275.5 217.3 259.2 217.3ZM264.3 168.8V206.6C272.6 204.4 278.8 196.8 278.8 187.7C278.8 178.6 272.6 171 264.3 168.8Z" fill="currentColor"/>
<path d="M101.1 75.8C100.1 75.8 99.1 75.5 98.2 74.9C96 73.3 95.4 70.1 97 67.9C99.2 64.8 102.7 58.5999 102.7 54.7999C102.7 49.1999 101.3 46.6999 99.7 43.7999C98 40.6999 96.1 37.2999 96.1 31.2999C96.1 19.0999 104.3 12.4 104.6 12.2L110.9 20.1C110.7 20.3 106.1 24.2 106.1 31.4C106.1 34.7 107 36.4 108.4 39C110.3 42.4 112.7 46.7 112.7 54.9C112.7 63.1 105.9 72.8 105.1 73.9C104.2 75 102.6 75.8 101.1 75.8Z" fill="currentColor"/>
<path d="M143.3 75.8C142.3 75.8 141.3 75.5 140.4 74.9C138.2 73.3 137.6 70.1 139.2 67.9C141.4 64.8 144.9 58.5999 144.9 54.7999C144.9 49.1999 143.5 46.6999 141.9 43.7999C140.2 40.6999 138.3 37.2999 138.3 31.2999C138.3 19.0999 146.5 12.4 146.8 12.2L153 20C152.8 20.2 148.2 24.0999 148.2 31.2999C148.2 34.5999 149.1 36.3 150.6 38.9C152.5 42.3 154.9 46.5999 154.9 54.7999C154.9 62.9999 148.1 72.7 147.3 73.8C146.4 75 144.8 75.8 143.3 75.8Z" fill="currentColor"/>
<path d="M185.5 75.8C184.5 75.8 183.5 75.5 182.6 74.9C180.4 73.3 179.8 70.1 181.4 67.9C183.6 64.8 187.1 58.5999 187.1 54.7999C187.1 49.1999 185.7 46.6999 184.1 43.7999C182.4 40.6999 180.5 37.2999 180.5 31.2999C180.5 19.0999 188.7 12.4 189 12.2L195.3 20.1C195.1 20.3 190.5 24.2 190.5 31.4C190.5 34.7 191.4 36.4 192.8 39C194.7 42.4 197.1 46.7 197.1 54.9C197.1 63.1 190.3 72.8 189.5 73.9C188.6 75 187 75.8 185.5 75.8Z" fill="currentColor"/>
<text id="qr-frame-text" x="150" y="390" font-size="40px" font-weight="600" font-family="Inter, sans-serif" fill="currentColor" text-anchor="middle">Scan Me!</text>
</svg>
