<svg width="320" height="418" viewBox="0 0 320 418" fill="none" xmlns="http://www.w3.org/2000/svg">
    <g clip-path="url(#clip0_1247_316)">
        <path d="M283.8 92.4C283.6 92.4 283.5 92.4 283.3 92.4C283.1 92.4 283 92.4 282.8 92.3C282.6 92.3 282.5 92.2 282.4 92.2C282.2 92.2 282.1 92.1 282 92C281.8 91.9 281.7 91.9 281.6 91.8C281.5 91.7 281.3 91.6 281.2 91.5C281.1 91.4 280.9 91.3 280.8 91.2C280.7 91.1 280.5 91 280.4 90.9C280.3 90.8 280.2 90.7 280.1 90.5C280 90.4 279.9 90.2 279.8 90.1C279.7 90 279.6 89.8 279.5 89.7C279.4 89.6 279.4 89.4 279.3 89.3C279.2 89.1 279.2 89 279.1 88.9C279.1 88.7 279 88.6 279 88.5C279 88.3 278.9 88.2 278.9 88C278.9 87.8 278.9 87.7 278.9 87.5C278.9 87.3 278.9 87.2 278.9 87C278.9 86.8 278.9 86.7 279 86.5C279 86.3 279.1 86.2 279.1 86.1C279.2 85.9 279.2 85.8 279.3 85.7C279.4 85.5 279.4 85.4 279.5 85.3C279.6 85.2 279.7 85 279.8 84.9C279.9 84.8 280 84.6 280.1 84.5C280.2 84.4 280.3 84.2 280.4 84.1C281.3 83.2 282.5 82.7 283.8 82.7C285.1 82.7 286.3 83.2 287.2 84.1C287.3 84.2 287.4 84.3 287.5 84.5C287.6 84.6 287.7 84.8 287.8 84.9C287.9 85 288 85.2 288.1 85.3C288.2 85.4 288.2 85.6 288.3 85.7C288.4 85.9 288.4 86 288.5 86.1C288.5 86.3 288.6 86.4 288.6 86.5C288.6 86.7 288.7 86.8 288.7 87C288.7 87.2 288.7 87.3 288.7 87.5C288.7 87.7 288.7 87.8 288.7 88C288.7 88.2 288.7 88.3 288.6 88.5C288.6 88.7 288.5 88.8 288.5 88.9C288.4 89 288.4 89.2 288.3 89.3C288.2 89.5 288.2 89.6 288.1 89.7C288 89.8 287.9 90 287.8 90.1C287.7 90.2 287.6 90.4 287.5 90.5C287.4 90.6 287.3 90.7 287.2 90.9C287.1 91 287 91.1 286.8 91.2C286.7 91.3 286.5 91.4 286.4 91.5C286.3 91.6 286.1 91.7 286 91.8C285.9 91.9 285.7 91.9 285.6 92C285.4 92.1 285.3 92.1 285.2 92.2C285 92.2 284.9 92.3 284.8 92.3C284.6 92.3 284.5 92.4 284.3 92.4C284.1 92.4 284 92.4 283.8 92.4Z" fill="#97949C"/>
        <path d="M127.8 150.8C124.8 150.8 122.2 148.7 121.5 145.7L99.1 38.2C98 33.3 94.3 29.2 89.5 27.6L47.6 13.5C44.3 12.4 42.4 8.80002 43.6 5.40002C44.7 2.00002 48.4 0.20002 51.7 1.40002L93.5 15.5C102.6 18.5 109.5 26.2 111.6 35.5V35.6L134.1 143C134.8 146.5 132.6 149.9 129.1 150.6C128.6 150.7 128.2 150.8 127.8 150.8Z" fill="#585858"/>
        <path d="M17.2 71.3H160.5H303.5C305.3 71.4 306.3 72.3 306.6 72.6C307 73 307.2 73.4 307.2 73.8C303.7 130.2 299.5 185.8 294.9 239C294.4 245.7 293.8 252.4 293.2 258.9C289.1 307.4 285.3 353.3 285.4 401.2C285.4 403.1 284.2 404.4 283.5 404.4H38C36.7 404.2 34.7 402.1 34.6 399.3V399.2V399.1C33.6 379.5 32.8 360.4 31.9 342.1C30.2 305.1 28.7 270.2 26.3 234.7C24.4 204.6 21.8 173.7 19.4 143.8C17.5 121 15.6 97.4 13.9 74C14 73.1 14.4 72.5 14.8 72.1C15.1 71.9 15.9 71.3 17.2 71.3ZM303.8 58.5C256 58.5 208.3 58.5 160.5 58.5C112.7 58.5 65 58.5 17.2 58.5C8.2 58.5 0.999998 65.6 1.1 74.5C5 129.1 10.2 182.7 13.6 235.6C17.2 288.8 18.9 341.3 21.9 399.8C22.2 409 29.3 416.9 37.7 417.3H283.5C291.6 417.3 298.1 410.1 298.2 401.3C298.1 347.3 303.2 294.8 307.6 240.1C312.3 185.7 316.5 129.3 320 74.4C320.3 66 313.1 58.8 303.8 58.5Z" fill="#97949C"/>
        <path d="M16 108.6L27.1 378.5C27.1 399.6 31.3 409.3 41.3 409.3H280.2C290.2 409.3 294.2 397 294.2 385L305 118C305 118 277.9 111.3 240.1 113.9C208.6 116.1 148.6 123.5 117 123.1C75.8 122.6 16 108.6 16 108.6Z" fill="#97949C"/>
        <path d="M265.6 92.4H216.2C213.5 92.4 211.4 90.3 211.4 87.6C211.4 84.9 213.5 82.8 216.2 82.8H265.6C268.3 82.8 270.4 84.9 270.4 87.6C270.4 90.3 268.2 92.4 265.6 92.4Z" fill="#97949C"/>
        <path d="M132.8 166.3H78.3V220.7H132.7V166.3H132.8ZM120 207.9H91.1V179.1H120V207.9Z" fill="#97949C"/>
        <path d="M111.9 187.1H99.1V199.9H111.9V187.1Z" fill="#97949C"/>
        <path d="M242.3 166.3H187.9V220.7H242.3V166.3ZM229.5 207.9H200.7V179.1H229.5V207.9Z" fill="#97949C"/>
        <path d="M221.5 187.1H208.7V199.9H221.5V187.1Z" fill="#97949C"/>
        <path d="M132.8 275.8H78.3V330.2H132.7V275.8H132.8ZM120 317.5H91.1V288.7H120V317.5Z" fill="#97949C"/>
        <path d="M111.9 296.7H99.1V309.5H111.9V296.7Z" fill="#97949C"/>
        <path d="M103.9 229.4H91.1V242.2H103.9V229.4Z" fill="#97949C"/>
        <path d="M116.4 255V267.8H129.3V255H116.8V242.2H104V255H116.4Z" fill="#97949C"/>
        <path d="M180.8 191H168V203.8H180.8V191Z" fill="#97949C"/>
        <path d="M155.2 179.1H142.4V203.8H155.2V179.1Z" fill="#97949C"/>
        <path d="M168 166.3H155.2V179.1H168V166.3Z" fill="#97949C"/>
        <path d="M168 203.8H155.2V216.6H142.4V229.4H168V203.8Z" fill="#97949C"/>
        <path d="M155.2 267.8V280.3H168V292.8H193.6V280H168V267.5H155.2V242.2H142.4V267.8H155.2Z" fill="#97949C"/>
        <path d="M180.8 229.4H168V255H180.8V229.4Z" fill="#97949C"/>
        <path d="M206.4 267.5H242.3V241.9H229.5V229.4H206.1V242.2H193.6V255H206.4V267.5ZM206.4 242.2H229.5V254.7H206.4V242.2Z" fill="#97949C"/>
        <path d="M242.3 280H229.5V305.6H242.3V280Z" fill="#97949C"/>
        <path d="M193.6 255H180.8V267.8H193.6V255Z" fill="#97949C"/>
        <path d="M206.4 292.8H193.6V305.6H206.4V292.8Z" fill="#97949C"/>
        <path d="M219.2 280H206.4V292.8H219.2V280Z" fill="#97949C"/>
        <path d="M219.3 330.3V318.4H229.5V305.6H206.4V330.3H219.3Z" fill="#97949C"/>
        <path d="M155.2 280.3H142.4V304.6H155.2V280.3Z" fill="#97949C"/>
        <path d="M168 330.3V317.5H180.5V330.3H193.3V317.5H180.8V304.7H155.2V330.3H168Z" fill="#97949C"/>
        <path d="M142.4 229.4H116.8V242.2H142.4V229.4Z" fill="#97949C"/>
        <path d="M91.1 242.2H78.3V267.8H91.1V242.2Z" fill="#97949C"/>
        <path d="M67.8 143.2H250.7C256.9 143.2 262 148.2 262 154.5V337.4C262 343.6 257 348.7 250.7 348.7H67.8C61.6 348.7 56.5 343.7 56.5 337.4V154.4C56.5 148.2 61.6 143.2 67.8 143.2Z" fill="#E5E7EF"/>
        <path d="M134.9 173.4H86.7V221.6H134.9V173.4ZM123.5 210.2H98V184.6H123.5V210.2Z" fill="#97949C"/>
        <path d="M116.4 191.8H105.1V203.1H116.4V191.8Z" fill="#97949C"/>
        <path d="M231.7 173.4H183.5V221.6H231.7V173.4ZM220.5 210.2H194.9V184.6H220.5V210.2Z" fill="#97949C"/>
        <path d="M213.3 191.8H202V203.1H213.3V191.8Z" fill="#97949C"/>
        <path d="M134.9 270.3H86.7V318.5H134.9V270.3ZM123.5 307.1H98V281.6H123.5V307.1Z" fill="#97949C"/>
        <path d="M116.4 288.7H105.1V300H116.4V288.7Z" fill="#97949C"/>
        <path d="M109.3 229.1H98V240.4H109.3V229.1Z" fill="#97949C"/>
        <path d="M120.4 251.8V263.1H131.7V251.8H120.7V240.5H109.4V251.8H120.4Z" fill="#97949C"/>
        <path d="M177.4 195.2H166.1V206.5H177.4V195.2Z" fill="#97949C"/>
        <path d="M154.7 184.7H143.4V206.5H154.7V184.7Z" fill="#97949C"/>
        <path d="M166 173.4H154.7V184.7H166V173.4Z" fill="#97949C"/>
        <path d="M166.1 206.5H154.7V217.8H143.4V229.1H166.1V206.5Z" fill="#97949C"/>
        <path d="M154.7 263.1V274.2H166.1V285.3H188.7V273.9H166.1V262.9H154.7V240.5H143.4V263.1H154.7Z" fill="#97949C"/>
        <path d="M177.4 229.1H166.1V251.8H177.4V229.1Z" fill="#97949C"/>
        <path d="M200 262.9H231.7V240.2H220.4V229.2H199.7V240.5H188.7V251.8H200V262.9ZM200 240.5H220.4V251.5H200V240.5Z" fill="#97949C"/>
        <path d="M231.8 273.9H220.5V296.6H231.8V273.9Z" fill="#97949C"/>
        <path d="M188.6 251.8H177.3V263.1H188.6V251.8Z" fill="#97949C"/>
        <path d="M200 285.3H188.7V296.6H200V285.3Z" fill="#97949C"/>
        <path d="M211.3 273.9H200V285.2H211.3V273.9Z" fill="#97949C"/>
        <path d="M211.4 318.4V307.8H220.5V296.6H200V318.4H211.4Z" fill="#97949C"/>
        <path d="M154.7 274.2H143.4V295.8H154.7V274.2Z" fill="#97949C"/>
        <path d="M166.1 318.4V307.1H177.1V318.4H188.4V307.1H177.3V295.7H154.7V318.4H166.1Z" fill="#97949C"/>
        <path d="M143.4 229.1H120.7V240.4H143.4V229.1Z" fill="#97949C"/>
        <path d="M86.8 397.2C83.5 397.2 81 396.3 79.2 394.6C77.4 392.9 76.5 390.3 76.5 387H83.1C83.1 388.6 83.4 389.8 84.1 390.6C84.7 391.4 85.6 391.8 86.8 391.8C87.8 391.8 88.5 391.5 89.1 390.9C89.7 390.3 89.9 389.6 89.9 388.6C89.9 387.7 89.6 386.9 89.1 386.3C88.6 385.7 87.8 385.1 86.7 384.5L82.9 382.7C80.8 381.7 79.3 380.5 78.3 379.1C77.3 377.7 76.8 376 76.8 373.9C76.8 371.4 77.7 369.3 79.4 367.8C81.1 366.3 83.4 365.5 86.3 365.5C89.4 365.5 91.8 366.3 93.4 367.9C95 369.5 95.8 371.8 95.8 374.9H89.3C89.3 372.1 88.2 370.7 86.1 370.7C85.2 370.7 84.5 371 84 371.5C83.5 372 83.2 372.7 83.2 373.6C83.2 374.5 83.5 375.2 84 375.8C84.5 376.4 85.4 377 86.7 377.6L90.7 379.6C92.7 380.7 94.1 381.8 95 383.2C95.9 384.5 96.3 386.2 96.3 388.1C96.3 390.8 95.4 393 93.7 394.7C92.1 396.4 89.8 397.2 86.8 397.2Z" fill="white"/>
        <path d="M107.8 397C104.8 397 102.4 396 100.7 394.1C99 392.2 98.1 389.5 98.1 386.1C98.1 382.8 99 380.2 100.7 378.2C102.5 376.2 104.8 375.2 107.7 375.2C110.6 375.2 112.9 375.9 114.5 377.4C116.1 378.8 116.9 380.9 116.9 383.6H110.8C110.7 381.5 109.7 380.5 107.8 380.5C106.7 380.5 105.8 381 105.2 382C104.6 383 104.3 384.4 104.3 386.1C104.3 389.8 105.5 391.7 107.9 391.7C109.7 391.7 110.7 390.7 110.9 388.8H117C116.9 391.5 116 393.5 114.4 394.9C112.8 396.2 110.6 397 107.8 397Z" fill="white"/>
        <path d="M127.1 397C124.6 397 122.6 396 121.2 394C119.7 392 119 389.4 119 386.1C119 382.8 119.7 380.2 121.2 378.3C122.7 376.3 124.7 375.3 127.1 375.3C129.9 375.3 131.8 376.5 132.8 378.9V375.9H139.1V396.4H132.8V393.4C131.7 395.7 129.8 397 127.1 397ZM129.1 391.7C130.3 391.7 131.3 391.2 132 390.3C132.7 389.3 133 388 133 386.2C133 384.4 132.7 383.1 132 382.1C131.3 381.1 130.4 380.7 129.1 380.7C127.8 380.7 126.9 381.2 126.2 382.1C125.5 383 125.2 384.4 125.2 386.2C125.2 388 125.5 389.4 126.2 390.3C126.9 391.2 127.8 391.7 129.1 391.7Z" fill="white"/>
        <path d="M143.2 396.4V375.9H149.4V378.8C150.5 376.5 152.5 375.3 155.2 375.3C157.2 375.3 158.8 375.9 159.9 377.2C161 378.5 161.5 380.4 161.5 382.9V396.3H155.2V384.6C155.2 383.2 155 382.1 154.6 381.5C154.2 380.8 153.5 380.5 152.5 380.5C150.4 380.5 149.4 382.1 149.4 385.2V396.3H143.2V396.4Z" fill="white"/>
        <path d="M173.9 396.4V366.4H181.3L187 387.8L192.7 366.4H200.1V396.4H194.1V378.1L189.2 396.4H184.8L179.9 378.1V396.4H173.9Z" fill="white"/>
        <path d="M222.1 384.9C222.1 386 222 386.9 221.9 387.9H209.3C209.4 389.3 209.7 390.4 210.3 391.2C210.9 392 211.8 392.4 213 392.4C214.7 392.4 215.7 391.7 216.1 390.3H221.7C221.4 392.5 220.5 394.1 219 395.3C217.5 396.5 215.5 397.1 213 397.1C209.8 397.1 207.4 396.2 205.6 394.3C203.9 392.4 203 389.8 203 386.3C203 382.8 203.9 380.2 205.6 378.2C207.3 376.3 209.7 375.3 212.8 375.3C215.7 375.3 218 376.2 219.6 377.9C221.3 379.5 222.1 382 222.1 384.9ZM209.3 383.9H216.1C216.1 381 215 379.5 212.8 379.5C210.6 379.5 209.4 380.9 209.3 383.9Z" fill="white"/>
        <path d="M240.6 395.5C239.8 396.3 238.7 396.8 237.5 396.8C236.3 396.8 235.3 396.4 234.4 395.5C233.6 394.7 233.1 393.7 233.1 392.5C233.1 391.3 233.5 390.3 234.4 389.5C235.2 388.7 236.3 388.2 237.5 388.2C238.7 388.2 239.7 388.6 240.6 389.5C241.4 390.3 241.9 391.3 241.9 392.5C241.9 393.7 241.5 394.7 240.6 395.5ZM234.4 386V366.4H240.8V386H234.4Z" fill="white"/>
    </g>
</svg>
