<svg width="48" height="48" viewBox="0 0 48 48" fill="none" xmlns="http://www.w3.org/2000/svg">
    <path d="M2.52111 0.265776C1.07088 0.783614 0.0177396 2.31987 0.000474992 3.94242C0.000474992 5.61677 0.88097 6.94588 2.50384 7.70538C2.98725 7.91251 3.22896 8.10239 3.05631 8.10239C2.59017 8.11965 1.51976 8.72379 1.00182 9.27615C-0.603786 10.9505 -0.223965 13.9885 1.7442 15.3003C2.72828 15.9563 3.66057 16.1289 4.83456 15.87C7.87313 15.214 8.97807 11.5546 6.83726 9.20711C6.42291 8.77558 5.83591 8.34405 5.45609 8.22322L4.78277 7.98156L5.54241 7.63633C5.95676 7.4292 6.42291 7.17028 6.56102 7.04945C7.04443 6.63518 7.71775 5.61677 7.85587 5.09893L7.99399 4.58109L8.11484 5.01262C8.63278 6.84232 10.1003 7.94704 11.9476 7.94704C14.6063 7.92978 16.4191 5.70307 15.8666 3.13115C15.1933 0.00685692 11.4296 -1.06334 9.13345 1.23241C8.6673 1.6812 8.27022 2.25082 8.20116 2.56152C8.04578 3.26924 7.8386 3.26924 7.70049 2.56152C7.56237 1.81929 5.95676 0.283037 5.19712 0.127686C4.29936 -0.0621872 3.26348 0.00685692 2.52111 0.265776Z" fill="black"/>
    <path d="M26.5187 0.248505C25.6727 0.559208 24.7404 1.45679 24.326 2.33712C23.4283 4.28764 24.516 6.92861 26.5187 7.70537L27.3128 7.99881L26.4323 8.32677C25.4655 8.68926 24.3778 9.79398 24.2225 10.5707C24.1016 11.2094 23.9462 11.1749 23.67 10.4499C23.1866 9.10353 21.5637 7.94703 20.1308 7.94703C18.6115 7.94703 16.9541 8.94818 16.3325 10.26C15.9527 11.0713 15.97 12.8492 16.3843 13.7468C17.3684 15.9045 20.2861 16.6467 22.3061 15.2658C22.9621 14.7997 23.8254 13.6605 23.8254 13.229C23.8254 13.0909 23.9117 12.9183 23.998 12.8665C24.1016 12.8147 24.1707 12.901 24.1707 13.0736C24.1707 13.6087 25.1202 14.9378 25.759 15.3348C26.1043 15.542 26.6222 15.7664 26.933 15.8354L27.5027 15.939L26.6395 16.267C24.3951 17.0955 23.3938 19.5121 24.4124 21.6697C24.8958 22.7399 25.8281 23.5685 26.7949 23.8446C27.6926 24.0863 29.1083 23.9655 29.8335 23.5857C30.6794 23.1542 31.5772 22.1013 31.8189 21.29L32.0433 20.5477L32.2332 21.29C32.5267 22.3947 33.6662 23.4822 34.961 23.9137C35.2545 24.0173 35.2027 24.069 34.6503 24.2589C33.0447 24.8113 32.0433 26.2267 32.0606 27.9528C32.0606 30.3176 33.6489 31.9402 35.9451 31.9402C37.7234 31.9229 39.2772 30.9218 39.7779 29.4546L40.0023 28.8159L40.4857 29.7825C41.0209 30.8872 41.9705 31.6985 42.9546 31.8711L43.5761 31.992L42.8164 32.2164C40.0023 33.0449 39.1218 36.5489 41.159 38.7929C41.5734 39.2244 42.1604 39.656 42.5402 39.7768L43.2135 40.0184L42.4539 40.3637C42.0395 40.5708 41.5734 40.8297 41.4353 40.9506C40.9519 41.3648 40.2785 42.3832 40.1404 42.9011L40.0023 43.4189L39.8815 42.9874C39.3635 41.1577 37.896 40.053 36.0487 40.053C33.39 40.0702 31.5772 42.2969 32.1296 44.8689C32.803 47.9932 36.5667 49.0634 38.8628 46.7676C39.329 46.3188 39.7261 45.7492 39.7951 45.4385C39.9505 44.7308 40.1577 44.7308 40.2958 45.4385C40.4339 46.1807 42.0395 47.717 42.7992 47.8723C44.353 48.183 45.6651 47.8896 46.6492 46.992C47.5469 46.1807 47.9958 45.2314 47.9958 44.0576C47.9958 42.3832 47.1153 41.0541 45.4924 40.2946C45.0263 40.0875 44.7673 39.8976 44.94 39.8976C45.4061 39.8804 46.4765 39.2762 46.9945 38.7239C48.6173 37.0323 48.2203 34.0115 46.2003 32.6652C45.7514 32.3717 45.1644 32.1128 44.9055 32.0955C44.5602 32.0955 44.6637 32.0092 45.3716 31.7503C46.4075 31.3533 47.3916 30.4557 47.7541 29.5926C48.0476 28.9022 48.0649 27.6249 47.8059 26.71C47.5642 25.8297 46.5456 24.725 45.596 24.2934L44.8537 23.9655L45.6824 23.5685C47.2189 22.8608 47.9958 21.6525 47.9958 19.9609C47.9958 18.7698 47.3225 17.4235 46.3557 16.733C44.4048 15.3348 41.4007 16.1289 40.3476 18.321L39.916 19.2186L39.8124 18.6835C39.657 18.0103 38.5176 16.6985 37.7406 16.336C36.9292 15.9563 35.151 15.9735 34.2532 16.3878C33.3727 16.7848 32.3196 18.0103 32.1814 18.8044L32.0606 19.4258L31.8189 18.7008C31.4563 17.6133 30.455 16.6122 29.4018 16.2497L28.5213 15.9563L29.2637 15.7491C30.8866 15.3176 31.9397 13.8504 31.9397 12.0552C31.9225 10.26 30.9211 8.72378 29.4191 8.20594L28.7631 7.98155L29.4364 7.70537C31.7671 6.72148 32.6476 4.35669 31.4736 2.11272C30.7657 0.731819 29.8335 0.110413 28.3487 0.0586281C27.6581 0.0241089 26.933 0.110413 26.5187 0.248505ZM40.2785 21.4108C40.4339 22.1185 41.5389 23.2923 42.4711 23.7066L43.2481 24.069L42.6783 24.2244C41.8151 24.4833 40.6411 25.6226 40.2958 26.5201L40.0023 27.3142L39.6743 26.4338C39.3117 25.4672 38.2068 24.3797 37.4299 24.2244C36.7911 24.1036 36.8256 23.9482 37.568 23.672C38.4485 23.3441 39.2945 22.5501 39.657 21.6697C39.8297 21.2382 40.0196 20.893 40.0714 20.893C40.1404 20.893 40.2267 21.1174 40.2785 21.4108Z" fill="black"/>
    <path d="M42.3854 0.334814C40.9352 1.008 40.0547 2.40616 40.0547 4.01146C40.072 6.04829 41.5222 7.72263 43.4558 7.89525C44.9924 8.03334 45.8556 7.72263 46.8915 6.6697C47.7892 5.75485 47.9964 5.23701 47.9964 3.9942C47.9964 2.44069 47.0469 0.956219 45.6657 0.334814C44.7679 -0.0794573 43.2832 -0.0794573 42.3854 0.334814Z" fill="black"/>
    <path d="M10.2729 16.3878C9.39239 16.7848 8.35652 17.924 8.13208 18.7698C7.85584 19.7365 7.90764 20.4269 8.30472 21.4798C8.68454 22.5328 9.75495 23.603 10.5837 23.7756C11.2397 23.9137 11.1706 24.0345 10.2729 24.397C9.39239 24.7595 8.59822 25.6053 8.2702 26.4856C7.99396 27.2451 7.83858 27.2624 7.71773 26.5892C7.57961 25.916 6.45741 24.7077 5.61145 24.3279C3.69508 23.4476 1.08812 24.4833 0.276684 26.4511C-0.621075 28.5915 0.794622 31.4741 2.91817 31.8711L3.52243 31.9919L2.76279 32.2163C0.604712 32.855 -0.482958 35.0472 0.207626 37.3602C0.466595 38.2405 1.81323 39.6214 2.55561 39.794C3.26346 39.9494 3.26346 40.1565 2.55561 40.2946C1.81323 40.4327 0.276684 42.038 0.121303 42.7975C-0.18946 44.351 0.104038 45.6629 1.0018 46.6468C1.81323 47.5443 2.76279 47.9931 3.93678 47.9931C5.61145 47.9931 6.94082 47.1128 7.70046 45.4903C7.90764 45.0069 8.09755 44.7653 8.09755 44.9379C8.11481 45.4039 8.71907 46.4741 9.27154 46.992C10.9635 48.6145 13.9848 48.2175 15.3314 46.198C15.6249 45.7492 15.8839 45.1623 15.9011 44.9034C15.9011 44.5581 15.9875 44.6617 16.2464 45.3694C16.6435 46.4051 17.5413 47.389 18.4045 47.7515C19.0951 48.0449 20.3727 48.0622 21.2877 47.8033C22.1337 47.5789 23.2731 46.5432 23.6702 45.6629C24.568 43.7123 23.4803 41.0541 21.4776 40.2946L20.6834 40.0012L21.5639 39.6732C22.5308 39.3107 23.6184 38.206 23.7738 37.412C23.8947 36.7906 24.05 36.8251 24.3263 37.5501C24.8097 38.8965 26.4326 40.053 27.8655 40.053C29.3848 40.053 31.0422 39.0518 31.6637 37.7399C32.0435 36.9287 32.0263 35.1508 31.6119 34.2532C30.6279 32.0955 27.7101 31.3533 25.6902 32.7342C25.0341 33.2002 24.1709 34.3395 24.1709 34.771C24.1709 34.9091 24.1018 35.0817 23.9982 35.1335C23.9119 35.1853 23.8256 35.099 23.8256 34.9264C23.8256 34.3913 22.876 33.0621 22.2373 32.6651C21.892 32.458 21.374 32.2336 21.0633 32.1646L20.4935 32.061L21.3568 31.733C23.6012 30.9045 24.6025 28.4879 23.5839 26.3303C23.1005 25.2601 22.1682 24.4315 21.2014 24.1553C20.3036 23.9137 18.8879 24.0345 18.1628 24.4143C17.3168 24.8458 16.4191 25.8987 16.1774 26.71L15.9529 27.4522L15.763 26.71C15.4695 25.6053 14.3301 24.5178 13.0352 24.0863C12.7417 23.9827 12.7935 23.9309 13.346 23.7411C16.0047 22.8262 16.8507 19.2704 14.8825 17.2163C13.7949 16.0598 11.7749 15.6973 10.2729 16.3878ZM17.0579 30.7319C17.4895 31.2152 17.9902 31.5432 18.5944 31.7503L19.4749 32.0437L18.7325 32.2509C17.1097 32.6824 16.0565 34.1496 16.0565 35.9448C16.0738 37.7227 17.0751 39.2762 18.5426 39.7768L19.1814 40.0012L18.2146 40.4845C17.1097 41.0196 16.2982 41.969 16.1256 42.9528L16.0047 43.5743L15.7803 42.8148C14.9516 40.0012 11.4469 39.1208 9.20248 41.1577C8.77087 41.5719 8.33925 42.1588 8.2184 42.5386L7.9767 43.2118L7.6314 42.4523C7.42423 42.038 7.16526 41.5719 7.04441 41.4339C6.63006 40.9505 5.61145 40.2774 5.09351 40.1393L4.57557 40.0012L5.00718 39.8803C6.23297 39.5351 7.21705 38.6721 7.66593 37.6019C8.23567 36.2727 7.85584 34.2532 6.8545 33.183C6.38835 32.6824 5.33521 32.1128 4.80001 32.0955C4.50651 32.0783 4.55831 32.0265 5.04171 31.8711C6.16391 31.5259 7.16526 30.6801 7.64867 29.6789L8.08028 28.7814L8.18387 29.3165C8.33925 29.9896 9.47872 31.3015 10.2556 31.664C11.0671 32.0437 12.8453 32.0265 13.7431 31.6122C14.6236 31.2152 15.6767 29.9896 15.8148 29.1956L15.9357 28.5742L16.1774 29.2992C16.3155 29.6962 16.7126 30.3349 17.0579 30.7319Z" fill="black"/>
</svg>
