<svg width="50" height="50" viewBox="0 0 50 50" fill="none" xmlns="http://www.w3.org/2000/svg">
    <g clip-path="url(#clip0_1247_2978)">
        <rect width="50" height="50" rx="8" fill="#F7931A"/>
        <g clip-path="url(#clip1_1247_2978)">
            <path d="M18.0794 29.1303C17.9592 29.4288 17.6545 29.8765 16.9676 29.7065C16.9919 29.7418 15.2043 29.2664 15.2043 29.2664L14 32.0434L17.157 32.8304C17.7443 32.9776 18.3199 33.1316 18.8865 33.2768L17.8824 37.3078L20.3057 37.9124L21.3 33.9242C21.9426 34.0983 22.587 34.2656 23.2333 34.4258L22.2424 38.3954L24.6684 39L25.6724 34.9765C29.8092 35.7593 32.9198 35.4436 34.2292 31.702C35.2844 28.6895 34.1768 26.9516 32.0002 25.8185C33.5853 25.4529 34.7792 24.4103 35.0978 22.2566C35.5379 19.3144 33.2978 17.7328 30.2348 16.6777L31.2284 12.6922L28.8023 12.0876L27.835 15.9681C27.1973 15.8091 26.5422 15.6592 25.8914 15.5106L26.8656 11.6046L24.441 11L23.4467 14.9841C22.9188 14.8638 22.4006 14.7449 21.8976 14.6199L21.9003 14.6074L18.5547 13.7721L17.9093 16.3632C17.9093 16.3632 19.7093 16.7757 19.6712 16.8013C20.6538 17.0466 20.8314 17.6967 20.8017 18.2122L18.0794 29.1303ZM29.5549 30.0292C28.8052 33.0418 23.7328 31.4132 22.0883 31.0048L23.4205 25.6644C25.065 26.0748 30.3384 26.8874 29.5549 30.0292ZM30.3052 22.2131C29.6212 24.9534 25.3994 23.5611 24.0299 23.2198L25.2377 18.3761C26.6072 18.7175 31.0176 19.3545 30.3052 22.2131Z" fill="white"/>
        </g>
    </g>
    <defs>
        <clipPath id="clip0_1247_2978">
            <rect width="50" height="50" fill="white"/>
        </clipPath>
        <clipPath id="clip1_1247_2978">
            <rect width="28" height="28" fill="white" transform="translate(11 11)"/>
        </clipPath>
    </defs>
</svg>
