<svg width="50" height="50" viewBox="0 0 50 50" fill="none" xmlns="http://www.w3.org/2000/svg">
    <g clip-path="url(#clip0_1247_2081)">
        <rect width="50" height="50" rx="8" fill="#34D186"/>
        <path fill-rule="evenodd" clip-rule="evenodd" d="M28.899 11V22.2776H26.2005V11.5638L28.899 11ZM21.2155 19.6241C21.9615 19.6241 22.565 19.0306 22.565 18.2973C22.565 17.5638 21.9615 16.9705 21.2155 16.9705C20.4698 16.9705 19.8662 17.5638 19.8662 18.2973C19.8662 19.0306 20.4698 19.6241 21.2155 19.6241ZM21.2155 14.2026C23.5132 14.2026 25.3796 16.0343 25.3796 18.2973C25.3796 20.5601 23.513 22.3919 21.2155 22.3919C18.9143 22.3919 17.0514 20.5601 17.0514 18.2973C17.0514 16.0343 18.918 14.2026 21.2155 14.2026ZM21.2155 23.3464C21.9607 23.3464 22.565 23.9404 22.565 24.6732C22.565 25.406 21.9607 26 21.2155 26C20.4705 26 19.8662 25.406 19.8662 24.6732C19.8662 23.9404 20.4705 23.3464 21.2155 23.3464ZM15.2112 16.3145C15.8634 16.9484 16.2681 17.8256 16.2643 18.7947C16.2643 20.7186 14.679 22.2776 12.7225 22.2776H8V11H12.1978C14.1543 11 15.7396 12.559 15.7396 14.4827C15.7396 15.1535 15.5485 15.7838 15.2112 16.3145ZM12.7262 19.6241C13.191 19.6241 13.5696 19.2518 13.5696 18.7947C13.5696 18.3379 13.191 17.9656 12.7262 17.9656H10.7024V19.6241H12.7262ZM10.7024 13.6536V15.312H12.2017C12.6663 15.312 13.0447 14.9398 13.0447 14.4827C13.0447 14.0258 12.6663 13.6536 12.2017 13.6536H10.7024ZM33.9963 17.0073H32.6507V19.0897C32.6507 19.7199 32.857 20.1842 33.3967 20.1842C33.7452 20.1842 34 20.1069 34 20.1069V22.0603C34 22.0603 33.4416 22.392 32.6844 22.392H32.6507C32.6172 22.392 32.5872 22.3882 32.5533 22.3882H32.5271C32.5122 22.3882 32.4932 22.3845 32.4783 22.3845C30.9715 22.307 29.9485 21.3746 29.9485 19.7567V12.8906L32.647 12.3268V14.3538H33.9963V17.0073Z" fill="white"/>
        <path fill-rule="evenodd" clip-rule="evenodd" d="M19.7058 36.0844C20.4795 36.0844 21.1057 35.4593 21.1057 34.6868C21.1057 33.9142 20.4795 33.2892 19.7058 33.2892C18.9319 33.2892 18.3057 33.9142 18.3057 34.6868C18.3057 35.4593 18.9319 36.0844 19.7058 36.0844ZM19.7058 30.3736C22.0894 30.3736 24.026 32.303 24.026 34.6868C24.026 37.0704 22.0894 39 19.7058 39C17.3183 39 15.3855 37.0704 15.3855 34.6868C15.3855 32.303 17.3221 30.3736 19.7058 30.3736ZM28.8485 36.0844C29.6222 36.0844 30.2484 35.4593 30.2484 34.6868C30.2484 33.9142 29.6222 33.2892 28.8485 33.2892C28.0746 33.2892 27.4484 33.9142 27.4484 34.6868C27.4484 35.4593 28.0746 36.0844 28.8485 36.0844ZM28.8485 30.3736C31.2322 30.3736 33.1688 32.303 33.1688 34.6868C33.1688 37.0704 31.2322 39 28.8485 39C26.461 39 24.5282 37.0704 24.5282 34.6868C24.5282 32.303 26.4648 30.3736 28.8485 30.3736ZM10.7998 34.3394V38.8795H8V27H15.4737V29.799H10.7998V31.5402H14.6262V34.3394H10.7998ZM39.4728 38.1621C38.9977 38.6031 38.3883 38.8795 37.6347 38.8795C35.446 38.8795 33.6719 36.9756 33.6719 34.6266C33.6719 32.2777 35.446 30.3736 37.6347 30.3736C38.3883 30.3736 38.9977 30.645 39.4728 31.0812V27H42.2726V38.8795H39.4728V38.1621ZM37.9537 36.0371C38.734 36.0371 39.3666 35.4056 39.3666 34.6266C39.3666 33.8475 38.734 33.2162 37.9537 33.2162C37.1735 33.2162 36.5409 33.8475 36.5409 34.6266C36.5409 35.4056 37.1735 36.0371 37.9537 36.0371Z" fill="#2F313F"/>
    </g>
    <defs>
        <clipPath id="clip0_1247_2081">
            <rect width="50" height="50" fill="white"/>
        </clipPath>
    </defs>
</svg>
