<svg width="50" height="50" viewBox="0 0 50 50" fill="none" xmlns="http://www.w3.org/2000/svg">
    <g clip-path="url(#clip0_1247_2117)">
        <rect width="50" height="50" rx="8" fill="#0C3B7C"/>
        <path d="M22.6339 32.8851L18.6067 32.881V28.0657C18.6067 27.0369 19.0059 26.5014 19.8863 26.3791H22.6339C24.5933 26.3791 25.8608 27.6145 25.8608 29.614C25.8608 31.6677 24.6254 32.8831 22.6339 32.8851ZM18.6067 19.8971V18.6296C18.6067 17.5206 19.076 16.9931 20.1049 16.9249H22.1666C23.9335 16.9249 24.9924 17.9818 24.9924 19.7527C24.9924 21.1005 24.2664 22.6748 22.2308 22.6748H18.6067V19.8971ZM27.7761 24.7024L27.0481 24.2933L27.6839 23.7498C28.4239 23.114 29.6633 21.6841 29.6633 19.2172C29.6633 15.4388 26.7332 13.002 22.1987 13.002H17.0244V13H16.4347C15.091 13.0502 14.014 14.1432 14 15.4949V36.9343H22.301C27.3409 36.9343 30.5939 34.1907 30.5939 29.9409C30.5939 27.6526 29.543 25.6972 27.7761 24.7024Z" fill="white"/>
        <path d="M32.7559 33.9726C32.7559 32.3348 34.0769 31.0098 35.7043 31.0098C37.3359 31.0098 38.663 32.3348 38.663 33.9726C38.663 35.6083 37.3359 36.9354 35.7043 36.9354C34.0769 36.9354 32.7559 35.6083 32.7559 33.9726Z" fill="#00BAFC"/>
    </g>
    <defs>
        <clipPath id="clip0_1247_2117">
            <rect width="50" height="50" fill="white"/>
        </clipPath>
    </defs>
</svg>
