<svg width="50" height="50" viewBox="0 0 50 50" fill="none" xmlns="http://www.w3.org/2000/svg">
    <g clip-path="url(#clip0_1247_2140)">
        <path d="M25 50C38.8072 50 50 38.8071 50 25C50 11.1929 38.8072 0 25 0C11.1929 0 0 11.1929 0 25C0 38.8071 11.1929 50 25 50Z" fill="#FFCC1B"/>
        <path d="M24.9843 8.00073C18.9152 8.00073 14 12.9202 14 18.9953C14 21.3072 14.7104 23.5293 16.0722 25.3967L16.3683 25.8113L22.0829 33.9026C22.0829 33.9026 22.794 35.0575 24.3038 35.0575H25.6955C27.206 35.0575 27.9164 33.9026 27.9164 33.9026L33.6303 25.8113L33.9272 25.3967C35.2896 23.5001 36 21.3072 36 18.9959C35.97 12.9195 31.0549 8.00073 24.9843 8.00073ZM29.5145 22.2548L29.2184 22.6694L25.0136 28.6262L20.7803 22.6694L20.4834 22.2248C19.8022 21.2473 19.4178 20.1502 19.4178 18.9654C19.417 18.2335 19.5604 17.5087 19.8399 16.8323C20.1193 16.156 20.5293 15.5415 21.0464 15.024C21.5634 14.5065 22.1774 14.0961 22.8532 13.8164C23.5289 13.5367 24.2531 13.3932 24.9843 13.394C25.7156 13.3932 26.4398 13.5367 27.1156 13.8164C27.7913 14.0961 28.4053 14.5065 28.9224 15.024C29.4394 15.5415 29.8494 16.156 30.1289 16.8323C30.4083 17.5087 30.5518 18.2335 30.551 18.9654C30.5532 20.1427 30.1911 21.2917 29.5145 22.2548ZM21.905 40.0069C21.905 38.3476 23.2083 36.984 24.9552 36.984C26.7319 36.984 28.0054 38.3177 28.0054 39.977V40.007C28.0054 41.6371 26.702 43 24.926 43C23.1784 42.9708 21.905 41.6363 21.905 40.0069Z" fill="#00A082"/>
        <rect width="50" height="50" rx="8" fill="#FFCC1B"/>
        <path d="M24.9843 8.00073C18.9152 8.00073 14 12.9202 14 18.9953C14 21.3072 14.7104 23.5293 16.0722 25.3967L16.3683 25.8113L22.0829 33.9026C22.0829 33.9026 22.794 35.0575 24.3038 35.0575H25.6955C27.206 35.0575 27.9164 33.9026 27.9164 33.9026L33.6303 25.8113L33.9272 25.3967C35.2896 23.5001 36 21.3072 36 18.9959C35.97 12.9195 31.0549 8.00073 24.9843 8.00073ZM29.5145 22.2548L29.2184 22.6694L25.0136 28.6262L20.7803 22.6694L20.4834 22.2248C19.8022 21.2473 19.4178 20.1502 19.4178 18.9654C19.417 18.2335 19.5604 17.5087 19.8399 16.8323C20.1193 16.156 20.5293 15.5415 21.0464 15.024C21.5634 14.5065 22.1774 14.0961 22.8532 13.8164C23.5289 13.5367 24.2531 13.3932 24.9843 13.394C25.7156 13.3932 26.4398 13.5367 27.1156 13.8164C27.7913 14.0961 28.4053 14.5065 28.9224 15.024C29.4394 15.5415 29.8494 16.156 30.1289 16.8323C30.4083 17.5087 30.5518 18.2335 30.551 18.9654C30.5532 20.1427 30.1911 21.2917 29.5145 22.2548ZM21.905 40.0069C21.905 38.3476 23.2083 36.984 24.9552 36.984C26.7319 36.984 28.0054 38.3177 28.0054 39.977V40.007C28.0054 41.6371 26.702 43 24.926 43C23.1784 42.9708 21.905 41.6363 21.905 40.0069Z" fill="#00A082"/>
    </g>
    <defs>
        <clipPath id="clip0_1247_2140">
            <rect width="50" height="50" fill="white"/>
        </clipPath>
    </defs>
</svg>
