<svg width="50" height="50" viewBox="0 0 50 50" fill="none" xmlns="http://www.w3.org/2000/svg">
    <g clip-path="url(#clip0_1247_2954)">
        <rect width="50" height="50" rx="8" fill="#5B51D8"/>
        <path d="M22.6667 26.1667C23.1678 26.8365 23.807 27.3907 24.5411 27.7918C25.2751 28.1928 26.0868 28.4313 26.9212 28.4911C27.7555 28.5508 28.5929 28.4304 29.3767 28.1381C30.1604 27.8457 30.872 27.3882 31.4634 26.7967L34.9634 23.2967C36.026 22.1965 36.614 20.723 36.6007 19.1935C36.5874 17.664 35.9739 16.2009 34.8924 15.1194C33.8108 14.0378 32.3477 13.4244 30.8183 13.4111C29.2888 13.3978 27.8153 13.9857 26.7151 15.0483L24.7084 17.0433" stroke="white" stroke-width="2.04167" stroke-linecap="round" stroke-linejoin="round"/>
        <path d="M27.3333 23.8333C26.8323 23.1635 26.1931 22.6093 25.459 22.2082C24.725 21.8072 23.9132 21.5687 23.0789 21.5089C22.2446 21.4492 21.4071 21.5696 20.6234 21.8619C19.8397 22.1543 19.128 22.6117 18.5367 23.2033L15.0367 26.7033C13.9741 27.8035 13.3861 29.277 13.3994 30.8065C13.4127 32.336 14.0262 33.7991 15.1077 34.8806C16.1893 35.9621 17.6523 36.5756 19.1818 36.5889C20.7113 36.6022 22.1848 36.0142 23.285 34.9517L25.28 32.9567" stroke="white" stroke-width="2.04167" stroke-linecap="round" stroke-linejoin="round"/>
    </g>
    <defs>
        <clipPath id="clip0_1247_2954">
            <rect width="50" height="50" fill="white"/>
        </clipPath>
    </defs>
</svg>
