<svg width="50" height="50" viewBox="0 0 50 50" fill="none" xmlns="http://www.w3.org/2000/svg">
    <g clip-path="url(#clip0_1247_3027)">
        <rect width="50" height="50" rx="8" fill="#BA006F"/>
        <path d="M25 12C19.704 12 15.3955 16.3085 15.3955 21.6045C15.3955 23.348 16.1774 25.2232 16.2102 25.3023C16.4627 25.9017 16.961 26.8328 17.3204 27.3785L23.9057 37.3565C24.1752 37.7655 24.574 38 25 38C25.426 38 25.8249 37.7655 26.0944 37.3571L32.6803 27.3785C33.0401 26.8328 33.5379 25.9017 33.7904 25.3023C33.8232 25.2237 34.6045 23.3486 34.6045 21.6045C34.6045 16.3085 30.2961 12 25 12ZM32.7486 24.8638C32.5232 25.4011 32.0593 26.2672 31.7367 26.7565L25.1509 36.735C25.0209 36.9322 24.9797 36.9322 24.8497 36.735L18.2639 26.7565C17.9413 26.2672 17.4774 25.4006 17.252 24.8633C17.2424 24.8401 16.5255 23.1141 16.5255 21.6045C16.5255 16.9316 20.3271 13.1299 25 13.1299C29.6729 13.1299 33.4746 16.9316 33.4746 21.6045C33.4746 23.1164 32.756 24.8469 32.7486 24.8638Z" fill="white" stroke="white" stroke-width="0.4"/>
        <path d="M25 16.5204C22.1961 16.5204 19.9153 18.8017 19.9153 21.6051C19.9153 24.4085 22.1961 26.6898 25 26.6898C27.804 26.6898 30.0848 24.4085 30.0848 21.6051C30.0848 18.8017 27.804 16.5204 25 16.5204ZM25 25.5599C22.8198 25.5599 21.0452 23.7859 21.0452 21.6051C21.0452 19.4243 22.8198 17.6503 25 17.6503C27.1803 17.6503 28.9548 19.4243 28.9548 21.6051C28.9548 23.7859 27.1803 25.5599 25 25.5599Z" fill="white" stroke="white" stroke-width="0.4"/>
    </g>
    <defs>
        <clipPath id="clip0_1247_3027">
            <rect width="50" height="50" fill="white"/>
        </clipPath>
    </defs>
</svg>
