<svg width="50" height="50" viewBox="0 0 50 50" fill="none" xmlns="http://www.w3.org/2000/svg">
    <g clip-path="url(#clip0_1247_3050)">
        <rect width="50" height="50" rx="8" fill="#673DC5"/>
        <path d="M21 13.431V21.1897C21 21.7612 20.7742 22.3094 20.3724 22.7136C19.9705 23.1178 19.4255 23.3448 18.8571 23.3448L19.2857 36.7069C19.2857 38.431 16.7143 38.431 16.7143 36.7069L17.1429 23.3448C16.5745 23.3448 16.0295 23.1178 15.6276 22.7136C15.2258 22.3094 15 21.7612 15 21.1897V13.431C15 13.3167 15.0452 13.2071 15.1255 13.1262C15.2059 13.0454 15.3149 13 15.4286 13C15.5422 13 15.6512 13.0454 15.7316 13.1262C15.812 13.2071 15.8571 13.3167 15.8571 13.431V19.4655C15.8571 19.5798 15.9023 19.6895 15.9827 19.7703C16.063 19.8511 16.1721 19.8966 16.2857 19.8966C16.3994 19.8966 16.5084 19.8511 16.5888 19.7703C16.6691 19.6895 16.7143 19.5798 16.7143 19.4655V13.431C16.7143 13.3167 16.7594 13.2071 16.8398 13.1262C16.9202 13.0454 17.0292 13 17.1429 13C17.2565 13 17.3655 13.0454 17.4459 13.1262C17.5263 13.2071 17.5714 13.3167 17.5714 13.431V19.4655C17.5714 19.5798 17.6166 19.6895 17.697 19.7703C17.7773 19.8511 17.8863 19.8966 18 19.8966C18.1137 19.8966 18.2227 19.8511 18.303 19.7703C18.3834 19.6895 18.4286 19.5798 18.4286 19.4655V13.431C18.4286 13.3167 18.4737 13.2071 18.5541 13.1262C18.6345 13.0454 18.7435 13 18.8571 13C18.9708 13 19.0798 13.0454 19.1602 13.1262C19.2406 13.2071 19.2857 13.3167 19.2857 13.431V19.4655C19.2857 19.5798 19.3309 19.6895 19.4112 19.7703C19.4916 19.8511 19.6006 19.8966 19.7143 19.8966C19.828 19.8966 19.937 19.8511 20.0173 19.7703C20.0977 19.6895 20.1429 19.5798 20.1429 19.4655V13.431C20.1429 13.3167 20.188 13.2071 20.2684 13.1262C20.3488 13.0454 20.4578 13 20.5714 13C20.6851 13 20.7941 13.0454 20.8745 13.1262C20.9548 13.2071 21 13.3167 21 13.431Z" fill="white"/>
        <path d="M31 13C33.4533 13 35 16.1767 35 19.0345C35 21.5302 33.8222 22.9526 31.8889 23.2759V23.3448L32.3333 36.7069C32.3333 38.431 29.6667 38.431 29.6667 36.7069L30.1111 23.3448V23.2759C28.1778 22.9526 27 21.5302 27 19.0345C27 16.1767 28.5467 13 31 13Z" fill="white"/>
    </g>
    <defs>
        <clipPath id="clip0_1247_3050">
            <rect width="50" height="50" fill="white"/>
        </clipPath>
    </defs>
</svg>
