<svg width="48" height="48" viewBox="0 0 48 48" fill="none" xmlns="http://www.w3.org/2000/svg">
    <path d="M32 16V0H26C24.9 0 24 0.9 24 2V8H18C16.9 8 16 8.9 16 10V16H24V24H32V32H40V40H34C32.9 40 32 40.9 32 42V48H46C47.1 48 48 47.1 48 46V16H32ZM42 0C40.9 0 40 0.9 40 2V8H46C47.1 8 48 7.1 48 6V0H42ZM8 14V8H14C15.1 8 16 7.1 16 6V0H2C0.9 0 0 0.9 0 2V16H6C7.1 16 8 15.1 8 14ZM24 24H16V16H10C8.9 16 8 16.9 8 18V24H2C0.9 24 0 24.9 0 26V48H22C23.1 48 24 47.1 24 46V40H30C31.1 40 32 39.1 32 38V32H24V24ZM16 40H8V32H16V40Z" fill="black"/>
</svg>
