<svg width="48" height="48" viewBox="0 0 48 48" fill="none" xmlns="http://www.w3.org/2000/svg">
    <path d="M43 0H45C46.66 0 48 1.34 48 3V5C48 6.66 46.66 8 45 8H43C41.34 8 40 6.66 40 5V3C40 1.34 41.34 0 43 0ZM44 16H32V4C32 1.79 30.21 0 28 0C25.79 0 24 1.79 24 4V8H20C17.79 8 16 9.79 16 12C16 14.21 17.79 16 20 16H24V20C24 22.21 25.79 24 28 24H32V28C32 30.21 33.79 32 36 32H40V40H36C33.79 40 32 41.79 32 44C32 46.21 33.79 48 36 48H44C46.21 48 48 46.21 48 44V20C48 17.79 46.21 16 44 16ZM4 16C6.21 16 8 14.21 8 12V8H12C14.21 8 16 6.21 16 4C16 1.79 14.21 0 12 0H4C1.79 0 0 1.79 0 4V12C0 14.21 1.79 16 4 16ZM28 32H24V28C24 25.79 22.21 24 20 24H16V20C16 17.79 14.21 16 12 16C9.79 16 8 17.79 8 20V24H4C1.79 24 0 25.79 0 28V44C0 46.21 1.79 48 4 48H20C22.21 48 24 46.21 24 44V40H28C30.21 40 32 38.21 32 36C32 33.79 30.21 32 28 32ZM16 40H8V32H16V40Z" fill="black"/>
</svg>
