<svg width="48" height="48" viewBox="0 0 48 48" fill="none" xmlns="http://www.w3.org/2000/svg">
    <path d="M42 0H46C47.1 0 48 0.9 48 2V6C48 7.1 47.1 8 46 8H42C40.9 8 40 7.1 40 6V2C40 0.9 40.9 0 42 0ZM2 16H6C7.1 16 8 15.1 8 14V8H14C15.1 8 16 7.1 16 6V2C16 0.9 15.1 0 14 0H2C0.9 0 0 0.9 0 2V14C0 15.1 0.9 16 2 16ZM32 34C32 32.9 31.1 32 30 32H24V26C24 24.9 23.1 24 22 24H16V18C16 16.9 15.1 16 14 16H10C8.9 16 8 16.9 8 18V24H2C0.9 24 0 24.9 0 26V46C0 47.1 0.9 48 2 48H22C23.1 48 24 47.1 24 46V40H30C31.1 40 32 39.1 32 38V34ZM16 40H8V32H16V40ZM46 16H32V2C32 0.9 31.1 0 30 0H26C24.9 0 24 0.9 24 2V8H18C16.9 8 16 8.9 16 10V14C16 15.1 16.9 16 18 16H24V22C24 23.1 24.9 24 26 24H32V30C32 31.1 32.9 32 34 32H40V40H34C32.9 40 32 40.9 32 42V46C32 47.1 32.9 48 34 48H46C47.1 48 48 47.1 48 46V18C48 16.9 47.1 16 46 16Z" fill="black"/>
</svg>
